ISO-10303-21;
HEADER;
/* Generated by software containing ST-Developer
 * from STEP Tools, Inc. (www.steptools.com) 
 */

FILE_DESCRIPTION(
/* description */ (''),
/* implementation_level */ '2;1');

FILE_NAME(
/* name */ 'picture-fixings-6mm.stp',
/* time_stamp */ '2025-09-26T14:59:29+01:00',
/* author */ ('iwheard'),
/* organization */ (''),
/* preprocessor_version */ 'ST-DEVELOPER v20',
/* originating_system */ 'Autodesk Inventor 2024',
/* authorisation */ '');

FILE_SCHEMA (('AUTOMOTIVE_DESIGN { 1 0 10303 214 3 1 1 }'));
ENDSEC;

DATA;
#10=MECHANICAL_DESIGN_GEOMETRIC_PRESENTATION_REPRESENTATION('',(#13),#452);
#11=SHAPE_REPRESENTATION_RELATIONSHIP('SRR','None',#459,#12);
#12=ADVANCED_BREP_SHAPE_REPRESENTATION('',(#14),#451);
#13=STYLED_ITEM('',(#468),#14);
#14=MANIFOLD_SOLID_BREP('Solid1',#253);
#15=FACE_BOUND('',#66,.T.);
#16=CYLINDRICAL_SURFACE('',#284,6.);
#17=CYLINDRICAL_SURFACE('',#290,2.);
#18=CYLINDRICAL_SURFACE('',#298,6.);
#19=CYLINDRICAL_SURFACE('',#300,6.);
#20=CIRCLE('',#278,5.);
#21=CIRCLE('',#279,6.);
#22=CIRCLE('',#282,6.);
#23=CIRCLE('',#283,5.);
#24=CIRCLE('',#285,6.);
#25=CIRCLE('',#288,2.);
#26=CIRCLE('',#289,5.);
#27=CIRCLE('',#291,2.);
#28=CIRCLE('',#295,6.);
#29=CIRCLE('',#299,6.);
#30=CIRCLE('',#301,6.);
#31=CONICAL_SURFACE('',#277,5.5,0.785398163397449);
#32=CONICAL_SURFACE('',#281,5.5,0.785398163397448);
#33=CONICAL_SURFACE('',#287,3.5,0.785398163397448);
#34=FACE_OUTER_BOUND('',#50,.T.);
#35=FACE_OUTER_BOUND('',#51,.T.);
#36=FACE_OUTER_BOUND('',#52,.T.);
#37=FACE_OUTER_BOUND('',#53,.T.);
#38=FACE_OUTER_BOUND('',#54,.T.);
#39=FACE_OUTER_BOUND('',#55,.T.);
#40=FACE_OUTER_BOUND('',#56,.T.);
#41=FACE_OUTER_BOUND('',#57,.T.);
#42=FACE_OUTER_BOUND('',#58,.T.);
#43=FACE_OUTER_BOUND('',#59,.T.);
#44=FACE_OUTER_BOUND('',#60,.T.);
#45=FACE_OUTER_BOUND('',#61,.T.);
#46=FACE_OUTER_BOUND('',#62,.T.);
#47=FACE_OUTER_BOUND('',#63,.T.);
#48=FACE_OUTER_BOUND('',#64,.T.);
#49=FACE_OUTER_BOUND('',#65,.T.);
#50=EDGE_LOOP('',(#162,#163,#164,#165));
#51=EDGE_LOOP('',(#166,#167,#168,#169));
#52=EDGE_LOOP('',(#170,#171,#172,#173));
#53=EDGE_LOOP('',(#174,#175,#176,#177));
#54=EDGE_LOOP('',(#178,#179,#180,#181));
#55=EDGE_LOOP('',(#182,#183,#184,#185,#186,#187));
#56=EDGE_LOOP('',(#188,#189,#190,#191,#192));
#57=EDGE_LOOP('',(#193,#194,#195,#196));
#58=EDGE_LOOP('',(#197,#198,#199,#200));
#59=EDGE_LOOP('',(#201,#202,#203,#204));
#60=EDGE_LOOP('',(#205,#206));
#61=EDGE_LOOP('',(#207,#208));
#62=EDGE_LOOP('',(#209,#210,#211,#212,#213,#214));
#63=EDGE_LOOP('',(#215,#216,#217,#218));
#64=EDGE_LOOP('',(#219,#220,#221,#222));
#65=EDGE_LOOP('',(#223,#224,#225,#226));
#66=EDGE_LOOP('',(#227));
#67=LINE('',#385,#89);
#68=LINE('',#387,#90);
#69=LINE('',#389,#91);
#70=LINE('',#390,#92);
#71=LINE('',#394,#93);
#72=LINE('',#400,#94);
#73=LINE('',#401,#95);
#74=LINE('',#402,#96);
#75=LINE('',#408,#97);
#76=LINE('',#411,#98);
#77=LINE('',#414,#99);
#78=LINE('',#416,#100);
#79=LINE('',#418,#101);
#80=LINE('',#419,#102);
#81=LINE('',#423,#103);
#82=LINE('',#428,#104);
#83=LINE('',#431,#105);
#84=LINE('',#433,#106);
#85=LINE('',#434,#107);
#86=LINE('',#440,#108);
#87=LINE('',#442,#109);
#88=LINE('',#443,#110);
#89=VECTOR('',#307,10.);
#90=VECTOR('',#308,10.);
#91=VECTOR('',#309,10.);
#92=VECTOR('',#310,10.);
#93=VECTOR('',#313,10.);
#94=VECTOR('',#320,10.);
#95=VECTOR('',#321,10.);
#96=VECTOR('',#322,10.);
#97=VECTOR('',#331,10.);
#98=VECTOR('',#334,10.);
#99=VECTOR('',#337,10.);
#100=VECTOR('',#338,10.);
#101=VECTOR('',#339,10.);
#102=VECTOR('',#340,10.);
#103=VECTOR('',#345,3.5);
#104=VECTOR('',#352,2.);
#105=VECTOR('',#357,10.);
#106=VECTOR('',#358,10.);
#107=VECTOR('',#359,10.);
#108=VECTOR('',#368,10.);
#109=VECTOR('',#369,10.);
#110=VECTOR('',#370,10.);
#111=VERTEX_POINT('',#383);
#112=VERTEX_POINT('',#384);
#113=VERTEX_POINT('',#386);
#114=VERTEX_POINT('',#388);
#115=VERTEX_POINT('',#392);
#116=VERTEX_POINT('',#393);
#117=VERTEX_POINT('',#398);
#118=VERTEX_POINT('',#399);
#119=VERTEX_POINT('',#407);
#120=VERTEX_POINT('',#409);
#121=VERTEX_POINT('',#413);
#122=VERTEX_POINT('',#415);
#123=VERTEX_POINT('',#417);
#124=VERTEX_POINT('',#421);
#125=VERTEX_POINT('',#426);
#126=VERTEX_POINT('',#432);
#127=VERTEX_POINT('',#439);
#128=VERTEX_POINT('',#441);
#129=EDGE_CURVE('',#111,#112,#67,.T.);
#130=EDGE_CURVE('',#112,#113,#68,.T.);
#131=EDGE_CURVE('',#113,#114,#69,.T.);
#132=EDGE_CURVE('',#114,#111,#70,.T.);
#133=EDGE_CURVE('',#115,#116,#71,.T.);
#134=EDGE_CURVE('',#116,#112,#20,.T.);
#135=EDGE_CURVE('',#111,#115,#21,.T.);
#136=EDGE_CURVE('',#117,#118,#72,.T.);
#137=EDGE_CURVE('',#118,#116,#73,.T.);
#138=EDGE_CURVE('',#115,#117,#74,.T.);
#139=EDGE_CURVE('',#117,#114,#22,.T.);
#140=EDGE_CURVE('',#118,#113,#23,.T.);
#141=EDGE_CURVE('',#111,#119,#75,.T.);
#142=EDGE_CURVE('',#120,#119,#24,.T.);
#143=EDGE_CURVE('',#115,#120,#76,.T.);
#144=EDGE_CURVE('',#114,#121,#77,.T.);
#145=EDGE_CURVE('',#122,#121,#78,.T.);
#146=EDGE_CURVE('',#122,#123,#79,.T.);
#147=EDGE_CURVE('',#123,#119,#80,.T.);
#148=EDGE_CURVE('',#124,#124,#25,.T.);
#149=EDGE_CURVE('',#124,#118,#81,.T.);
#150=EDGE_CURVE('',#113,#118,#26,.T.);
#151=EDGE_CURVE('',#125,#125,#27,.T.);
#152=EDGE_CURVE('',#125,#124,#82,.T.);
#153=EDGE_CURVE('',#119,#120,#83,.T.);
#154=EDGE_CURVE('',#126,#123,#84,.T.);
#155=EDGE_CURVE('',#126,#120,#85,.T.);
#156=EDGE_CURVE('',#123,#126,#28,.T.);
#157=EDGE_CURVE('',#127,#126,#86,.T.);
#158=EDGE_CURVE('',#128,#127,#87,.T.);
#159=EDGE_CURVE('',#117,#128,#88,.T.);
#160=EDGE_CURVE('',#127,#122,#29,.T.);
#161=EDGE_CURVE('',#121,#128,#30,.T.);
#162=ORIENTED_EDGE('',*,*,#129,.T.);
#163=ORIENTED_EDGE('',*,*,#130,.T.);
#164=ORIENTED_EDGE('',*,*,#131,.T.);
#165=ORIENTED_EDGE('',*,*,#132,.T.);
#166=ORIENTED_EDGE('',*,*,#133,.T.);
#167=ORIENTED_EDGE('',*,*,#134,.T.);
#168=ORIENTED_EDGE('',*,*,#129,.F.);
#169=ORIENTED_EDGE('',*,*,#135,.T.);
#170=ORIENTED_EDGE('',*,*,#136,.T.);
#171=ORIENTED_EDGE('',*,*,#137,.T.);
#172=ORIENTED_EDGE('',*,*,#133,.F.);
#173=ORIENTED_EDGE('',*,*,#138,.T.);
#174=ORIENTED_EDGE('',*,*,#136,.F.);
#175=ORIENTED_EDGE('',*,*,#139,.T.);
#176=ORIENTED_EDGE('',*,*,#131,.F.);
#177=ORIENTED_EDGE('',*,*,#140,.F.);
#178=ORIENTED_EDGE('',*,*,#135,.F.);
#179=ORIENTED_EDGE('',*,*,#141,.T.);
#180=ORIENTED_EDGE('',*,*,#142,.F.);
#181=ORIENTED_EDGE('',*,*,#143,.F.);
#182=ORIENTED_EDGE('',*,*,#132,.F.);
#183=ORIENTED_EDGE('',*,*,#144,.T.);
#184=ORIENTED_EDGE('',*,*,#145,.F.);
#185=ORIENTED_EDGE('',*,*,#146,.T.);
#186=ORIENTED_EDGE('',*,*,#147,.T.);
#187=ORIENTED_EDGE('',*,*,#141,.F.);
#188=ORIENTED_EDGE('',*,*,#148,.T.);
#189=ORIENTED_EDGE('',*,*,#149,.T.);
#190=ORIENTED_EDGE('',*,*,#140,.T.);
#191=ORIENTED_EDGE('',*,*,#150,.T.);
#192=ORIENTED_EDGE('',*,*,#149,.F.);
#193=ORIENTED_EDGE('',*,*,#151,.F.);
#194=ORIENTED_EDGE('',*,*,#152,.T.);
#195=ORIENTED_EDGE('',*,*,#148,.F.);
#196=ORIENTED_EDGE('',*,*,#152,.F.);
#197=ORIENTED_EDGE('',*,*,#137,.F.);
#198=ORIENTED_EDGE('',*,*,#150,.F.);
#199=ORIENTED_EDGE('',*,*,#130,.F.);
#200=ORIENTED_EDGE('',*,*,#134,.F.);
#201=ORIENTED_EDGE('',*,*,#153,.F.);
#202=ORIENTED_EDGE('',*,*,#147,.F.);
#203=ORIENTED_EDGE('',*,*,#154,.F.);
#204=ORIENTED_EDGE('',*,*,#155,.T.);
#205=ORIENTED_EDGE('',*,*,#154,.T.);
#206=ORIENTED_EDGE('',*,*,#156,.T.);
#207=ORIENTED_EDGE('',*,*,#153,.T.);
#208=ORIENTED_EDGE('',*,*,#142,.T.);
#209=ORIENTED_EDGE('',*,*,#138,.F.);
#210=ORIENTED_EDGE('',*,*,#143,.T.);
#211=ORIENTED_EDGE('',*,*,#155,.F.);
#212=ORIENTED_EDGE('',*,*,#157,.F.);
#213=ORIENTED_EDGE('',*,*,#158,.F.);
#214=ORIENTED_EDGE('',*,*,#159,.F.);
#215=ORIENTED_EDGE('',*,*,#160,.F.);
#216=ORIENTED_EDGE('',*,*,#157,.T.);
#217=ORIENTED_EDGE('',*,*,#156,.F.);
#218=ORIENTED_EDGE('',*,*,#146,.F.);
#219=ORIENTED_EDGE('',*,*,#139,.F.);
#220=ORIENTED_EDGE('',*,*,#159,.T.);
#221=ORIENTED_EDGE('',*,*,#161,.F.);
#222=ORIENTED_EDGE('',*,*,#144,.F.);
#223=ORIENTED_EDGE('',*,*,#161,.T.);
#224=ORIENTED_EDGE('',*,*,#158,.T.);
#225=ORIENTED_EDGE('',*,*,#160,.T.);
#226=ORIENTED_EDGE('',*,*,#145,.T.);
#227=ORIENTED_EDGE('',*,*,#151,.T.);
#228=PLANE('',#276);
#229=PLANE('',#280);
#230=PLANE('',#286);
#231=PLANE('',#292);
#232=PLANE('',#293);
#233=PLANE('',#294);
#234=PLANE('',#296);
#235=PLANE('',#297);
#236=PLANE('',#302);
#237=ADVANCED_FACE('',(#34),#228,.T.);
#238=ADVANCED_FACE('',(#35),#31,.T.);
#239=ADVANCED_FACE('',(#36),#229,.T.);
#240=ADVANCED_FACE('',(#37),#32,.T.);
#241=ADVANCED_FACE('',(#38),#16,.T.);
#242=ADVANCED_FACE('',(#39),#230,.T.);
#243=ADVANCED_FACE('',(#40),#33,.F.);
#244=ADVANCED_FACE('',(#41),#17,.F.);
#245=ADVANCED_FACE('',(#42),#231,.F.);
#246=ADVANCED_FACE('',(#43),#232,.T.);
#247=ADVANCED_FACE('',(#44),#233,.F.);
#248=ADVANCED_FACE('',(#45),#234,.F.);
#249=ADVANCED_FACE('',(#46),#235,.T.);
#250=ADVANCED_FACE('',(#47),#18,.T.);
#251=ADVANCED_FACE('',(#48),#19,.T.);
#252=ADVANCED_FACE('',(#49,#15),#236,.T.);
#253=CLOSED_SHELL('',(#237,#238,#239,#240,#241,#242,#243,#244,#245,#246,
#247,#248,#249,#250,#251,#252));
#254=DERIVED_UNIT_ELEMENT(#257,1.);
#255=DERIVED_UNIT_ELEMENT(#454,-3.);
#256=DIMENSIONAL_EXPONENTS(0.,1.,0.,0.,0.,0.,0.);
#257=(
CONVERSION_BASED_UNIT('gram',#259)
MASS_UNIT()
NAMED_UNIT(#256)
);
#258=(
MASS_UNIT()
NAMED_UNIT(*)
SI_UNIT(.KILO.,.GRAM.)
);
#259=MASS_MEASURE_WITH_UNIT(MASS_MEASURE(0.001),#258);
#260=DERIVED_UNIT((#254,#255));
#261=MEASURE_REPRESENTATION_ITEM('density measure',
POSITIVE_RATIO_MEASURE(1.),#260);
#262=PROPERTY_DEFINITION_REPRESENTATION(#267,#264);
#263=PROPERTY_DEFINITION_REPRESENTATION(#268,#265);
#264=REPRESENTATION('material name',(#266),#451);
#265=REPRESENTATION('density',(#261),#451);
#266=DESCRIPTIVE_REPRESENTATION_ITEM('Generic','Generic');
#267=PROPERTY_DEFINITION('material property','material name',#461);
#268=PROPERTY_DEFINITION('material property','density of part',#461);
#269=DATE_TIME_ROLE('creation_date');
#270=APPLIED_DATE_AND_TIME_ASSIGNMENT(#271,#269,(#461));
#271=DATE_AND_TIME(#272,#273);
#272=CALENDAR_DATE(2025,26,9);
#273=LOCAL_TIME(0,0,0.,#274);
#274=COORDINATED_UNIVERSAL_TIME_OFFSET(0,0,.BEHIND.);
#275=AXIS2_PLACEMENT_3D('',#381,#303,#304);
#276=AXIS2_PLACEMENT_3D('',#382,#305,#306);
#277=AXIS2_PLACEMENT_3D('',#391,#311,#312);
#278=AXIS2_PLACEMENT_3D('',#395,#314,#315);
#279=AXIS2_PLACEMENT_3D('',#396,#316,#317);
#280=AXIS2_PLACEMENT_3D('',#397,#318,#319);
#281=AXIS2_PLACEMENT_3D('',#403,#323,#324);
#282=AXIS2_PLACEMENT_3D('',#404,#325,#326);
#283=AXIS2_PLACEMENT_3D('',#405,#327,#328);
#284=AXIS2_PLACEMENT_3D('',#406,#329,#330);
#285=AXIS2_PLACEMENT_3D('',#410,#332,#333);
#286=AXIS2_PLACEMENT_3D('',#412,#335,#336);
#287=AXIS2_PLACEMENT_3D('',#420,#341,#342);
#288=AXIS2_PLACEMENT_3D('',#422,#343,#344);
#289=AXIS2_PLACEMENT_3D('',#424,#346,#347);
#290=AXIS2_PLACEMENT_3D('',#425,#348,#349);
#291=AXIS2_PLACEMENT_3D('',#427,#350,#351);
#292=AXIS2_PLACEMENT_3D('',#429,#353,#354);
#293=AXIS2_PLACEMENT_3D('',#430,#355,#356);
#294=AXIS2_PLACEMENT_3D('',#435,#360,#361);
#295=AXIS2_PLACEMENT_3D('',#436,#362,#363);
#296=AXIS2_PLACEMENT_3D('',#437,#364,#365);
#297=AXIS2_PLACEMENT_3D('',#438,#366,#367);
#298=AXIS2_PLACEMENT_3D('',#444,#371,#372);
#299=AXIS2_PLACEMENT_3D('',#445,#373,#374);
#300=AXIS2_PLACEMENT_3D('',#446,#375,#376);
#301=AXIS2_PLACEMENT_3D('',#447,#377,#378);
#302=AXIS2_PLACEMENT_3D('',#448,#379,#380);
#303=DIRECTION('axis',(0.,0.,1.));
#304=DIRECTION('refdir',(1.,0.,0.));
#305=DIRECTION('center_axis',(-0.707106781186548,0.,-0.707106781186547));
#306=DIRECTION('ref_axis',(-0.707106781186547,0.,0.707106781186548));
#307=DIRECTION('',(0.707106781186547,0.,-0.707106781186548));
#308=DIRECTION('',(0.,-1.,0.));
#309=DIRECTION('',(-0.707106781186547,0.,0.707106781186548));
#310=DIRECTION('',(0.,1.,0.));
#311=DIRECTION('center_axis',(0.,0.,1.));
#312=DIRECTION('ref_axis',(-1.,0.,0.));
#313=DIRECTION('',(-0.707106781186548,0.,-0.707106781186547));
#314=DIRECTION('center_axis',(0.,0.,1.));
#315=DIRECTION('ref_axis',(-1.,0.,0.));
#316=DIRECTION('center_axis',(0.,0.,-1.));
#317=DIRECTION('ref_axis',(-1.,0.,0.));
#318=DIRECTION('center_axis',(0.707106781186548,2.61682076447296E-16,-0.707106781186547));
#319=DIRECTION('ref_axis',(-0.707106781186547,0.,-0.707106781186548));
#320=DIRECTION('',(-0.707106781186548,-2.00307048680152E-15,-0.707106781186547));
#321=DIRECTION('',(-3.70074341541719E-16,1.,0.));
#322=DIRECTION('',(3.70074341541719E-16,-1.,0.));
#323=DIRECTION('center_axis',(0.,0.,1.));
#324=DIRECTION('ref_axis',(1.,0.,0.));
#325=DIRECTION('center_axis',(0.,0.,-1.));
#326=DIRECTION('ref_axis',(1.,0.,0.));
#327=DIRECTION('center_axis',(0.,0.,-1.));
#328=DIRECTION('ref_axis',(-1.,0.,0.));
#329=DIRECTION('center_axis',(0.,0.,1.));
#330=DIRECTION('ref_axis',(-1.,0.,0.));
#331=DIRECTION('',(0.,0.,1.));
#332=DIRECTION('center_axis',(0.,0.,1.));
#333=DIRECTION('ref_axis',(-1.,0.,0.));
#334=DIRECTION('',(0.,0.,1.));
#335=DIRECTION('center_axis',(-1.,0.,0.));
#336=DIRECTION('ref_axis',(0.,1.,0.));
#337=DIRECTION('',(0.,0.,1.));
#338=DIRECTION('',(0.,-1.,0.));
#339=DIRECTION('',(0.,0.,-1.));
#340=DIRECTION('',(0.,0.,-1.));
#341=DIRECTION('center_axis',(0.,0.,-1.));
#342=DIRECTION('ref_axis',(-1.,0.,0.));
#343=DIRECTION('center_axis',(0.,0.,1.));
#344=DIRECTION('ref_axis',(-1.,0.,0.));
#345=DIRECTION('',(0.707106781186547,8.65956056235493E-17,-0.707106781186548));
#346=DIRECTION('center_axis',(0.,0.,-1.));
#347=DIRECTION('ref_axis',(-1.,0.,0.));
#348=DIRECTION('center_axis',(0.,0.,1.));
#349=DIRECTION('ref_axis',(-1.,0.,0.));
#350=DIRECTION('center_axis',(0.,0.,-1.));
#351=DIRECTION('ref_axis',(-1.,0.,0.));
#352=DIRECTION('',(0.,0.,-1.));
#353=DIRECTION('center_axis',(0.,0.,1.));
#354=DIRECTION('ref_axis',(1.,0.,0.));
#355=DIRECTION('center_axis',(0.,1.,0.));
#356=DIRECTION('ref_axis',(1.,0.,0.));
#357=DIRECTION('',(1.,0.,0.));
#358=DIRECTION('',(-1.,0.,0.));
#359=DIRECTION('',(0.,0.,-1.));
#360=DIRECTION('center_axis',(0.,0.,1.));
#361=DIRECTION('ref_axis',(1.,0.,0.));
#362=DIRECTION('center_axis',(0.,0.,-1.));
#363=DIRECTION('ref_axis',(1.,1.85037170770859E-16,0.));
#364=DIRECTION('center_axis',(0.,0.,-1.));
#365=DIRECTION('ref_axis',(-1.,0.,0.));
#366=DIRECTION('center_axis',(1.,3.70074341541719E-16,0.));
#367=DIRECTION('ref_axis',(3.70074341541719E-16,-1.,0.));
#368=DIRECTION('',(0.,0.,-1.));
#369=DIRECTION('',(-3.70074341541719E-16,1.,0.));
#370=DIRECTION('',(0.,0.,1.));
#371=DIRECTION('center_axis',(0.,0.,-1.));
#372=DIRECTION('ref_axis',(1.,1.85037170770859E-16,0.));
#373=DIRECTION('center_axis',(0.,0.,1.));
#374=DIRECTION('ref_axis',(1.,1.85037170770859E-16,0.));
#375=DIRECTION('center_axis',(0.,0.,1.));
#376=DIRECTION('ref_axis',(1.,0.,0.));
#377=DIRECTION('center_axis',(0.,0.,1.));
#378=DIRECTION('ref_axis',(1.,0.,0.));
#379=DIRECTION('center_axis',(0.,0.,1.));
#380=DIRECTION('ref_axis',(1.,0.,0.));
#381=CARTESIAN_POINT('',(0.,0.,0.));
#382=CARTESIAN_POINT('Origin',(-5.5,0.,0.5));
#383=CARTESIAN_POINT('',(-6.,6.,1.));
#384=CARTESIAN_POINT('',(-5.,6.,0.));
#385=CARTESIAN_POINT('',(-6.,6.,1.));
#386=CARTESIAN_POINT('',(-5.,0.,0.));
#387=CARTESIAN_POINT('',(-5.,0.,0.));
#388=CARTESIAN_POINT('',(-6.,0.,1.));
#389=CARTESIAN_POINT('',(-5.,0.,0.));
#390=CARTESIAN_POINT('',(-6.,0.,1.));
#391=CARTESIAN_POINT('Origin',(0.,6.,0.5));
#392=CARTESIAN_POINT('',(6.,6.,1.));
#393=CARTESIAN_POINT('',(5.,6.,0.));
#394=CARTESIAN_POINT('',(6.,6.,1.));
#395=CARTESIAN_POINT('Origin',(0.,6.,0.));
#396=CARTESIAN_POINT('Origin',(0.,6.,1.));
#397=CARTESIAN_POINT('Origin',(5.5,3.,0.5));
#398=CARTESIAN_POINT('',(6.,2.22044604925031E-15,1.));
#399=CARTESIAN_POINT('',(5.,-6.12323399573677E-16,0.));
#400=CARTESIAN_POINT('',(6.,2.22044604925031E-15,1.));
#401=CARTESIAN_POINT('',(5.,3.,0.));
#402=CARTESIAN_POINT('',(6.,3.,1.));
#403=CARTESIAN_POINT('Origin',(0.,0.,0.5));
#404=CARTESIAN_POINT('Origin',(0.,0.,1.));
#405=CARTESIAN_POINT('Origin',(0.,0.,0.));
#406=CARTESIAN_POINT('Origin',(0.,6.,0.));
#407=CARTESIAN_POINT('',(-6.,6.,5.));
#408=CARTESIAN_POINT('',(-6.,6.,0.));
#409=CARTESIAN_POINT('',(6.,6.,5.));
#410=CARTESIAN_POINT('Origin',(0.,6.,5.));
#411=CARTESIAN_POINT('',(6.,6.,0.));
#412=CARTESIAN_POINT('Origin',(-6.,0.,21.));
#413=CARTESIAN_POINT('',(-6.,0.,21.));
#414=CARTESIAN_POINT('',(-6.,0.,0.));
#415=CARTESIAN_POINT('',(-6.,6.,21.));
#416=CARTESIAN_POINT('',(-6.,6.,21.));
#417=CARTESIAN_POINT('',(-6.,6.,11.));
#418=CARTESIAN_POINT('',(-6.,6.,21.));
#419=CARTESIAN_POINT('',(-6.,6.,11.));
#420=CARTESIAN_POINT('Origin',(0.,0.,1.5));
#421=CARTESIAN_POINT('',(2.,2.44929359829471E-16,3.));
#422=CARTESIAN_POINT('Origin',(0.,0.,3.));
#423=CARTESIAN_POINT('',(3.5,4.28626379701574E-16,1.5));
#424=CARTESIAN_POINT('Origin',(0.,0.,0.));
#425=CARTESIAN_POINT('Origin',(0.,0.,0.));
#426=CARTESIAN_POINT('',(2.,2.44929359829471E-16,21.));
#427=CARTESIAN_POINT('Origin',(0.,0.,21.));
#428=CARTESIAN_POINT('',(2.,2.44929359829471E-16,0.));
#429=CARTESIAN_POINT('Origin',(0.,0.,0.));
#430=CARTESIAN_POINT('Origin',(-6.,6.,11.));
#431=CARTESIAN_POINT('',(-3.,6.,5.));
#432=CARTESIAN_POINT('',(6.,6.,11.));
#433=CARTESIAN_POINT('',(2.77555756156289E-16,6.,11.));
#434=CARTESIAN_POINT('',(6.,6.,11.));
#435=CARTESIAN_POINT('Origin',(5.55111512312578E-16,3.,11.));
#436=CARTESIAN_POINT('Origin',(0.,6.,11.));
#437=CARTESIAN_POINT('Origin',(0.,6.,5.));
#438=CARTESIAN_POINT('Origin',(6.,6.,21.));
#439=CARTESIAN_POINT('',(6.,6.,21.));
#440=CARTESIAN_POINT('',(6.,6.,21.));
#441=CARTESIAN_POINT('',(6.,0.,21.));
#442=CARTESIAN_POINT('',(6.,7.34788079488412E-16,21.));
#443=CARTESIAN_POINT('',(6.,2.22044604925031E-15,0.));
#444=CARTESIAN_POINT('Origin',(0.,6.,21.));
#445=CARTESIAN_POINT('Origin',(0.,6.,21.));
#446=CARTESIAN_POINT('Origin',(0.,0.,0.));
#447=CARTESIAN_POINT('Origin',(0.,0.,21.));
#448=CARTESIAN_POINT('Origin',(0.,0.,21.));
#449=UNCERTAINTY_MEASURE_WITH_UNIT(LENGTH_MEASURE(0.01),#453,
'DISTANCE_ACCURACY_VALUE',
'Maximum model space distance between geometric entities at asserted c
onnectivities');
#450=UNCERTAINTY_MEASURE_WITH_UNIT(LENGTH_MEASURE(0.01),#453,
'DISTANCE_ACCURACY_VALUE',
'Maximum model space distance between geometric entities at asserted c
onnectivities');
#451=(
GEOMETRIC_REPRESENTATION_CONTEXT(3)
GLOBAL_UNCERTAINTY_ASSIGNED_CONTEXT((#449))
GLOBAL_UNIT_ASSIGNED_CONTEXT((#453,#455,#456))
REPRESENTATION_CONTEXT('','3D')
);
#452=(
GEOMETRIC_REPRESENTATION_CONTEXT(3)
GLOBAL_UNCERTAINTY_ASSIGNED_CONTEXT((#450))
GLOBAL_UNIT_ASSIGNED_CONTEXT((#453,#455,#456))
REPRESENTATION_CONTEXT('','3D')
);
#453=(
LENGTH_UNIT()
NAMED_UNIT(*)
SI_UNIT(.MILLI.,.METRE.)
);
#454=(
LENGTH_UNIT()
NAMED_UNIT(*)
SI_UNIT(.CENTI.,.METRE.)
);
#455=(
NAMED_UNIT(*)
PLANE_ANGLE_UNIT()
SI_UNIT($,.RADIAN.)
);
#456=(
NAMED_UNIT(*)
SI_UNIT($,.STERADIAN.)
SOLID_ANGLE_UNIT()
);
#457=SHAPE_DEFINITION_REPRESENTATION(#458,#459);
#458=PRODUCT_DEFINITION_SHAPE('',$,#461);
#459=SHAPE_REPRESENTATION('',(#275),#451);
#460=PRODUCT_DEFINITION_CONTEXT('part definition',#465,'design');
#461=PRODUCT_DEFINITION('picture-fixings-6mm','picture-fixings-6mm',#462,
#460);
#462=PRODUCT_DEFINITION_FORMATION('',$,#467);
#463=PRODUCT_RELATED_PRODUCT_CATEGORY('picture-fixings-6mm',
'picture-fixings-6mm',(#467));
#464=APPLICATION_PROTOCOL_DEFINITION('international standard',
'automotive_design',2009,#465);
#465=APPLICATION_CONTEXT(
'Core Data for Automotive Mechanical Design Process');
#466=PRODUCT_CONTEXT('part definition',#465,'mechanical');
#467=PRODUCT('picture-fixings-6mm','picture-fixings-6mm',$,(#466));
#468=PRESENTATION_STYLE_ASSIGNMENT((#469));
#469=SURFACE_STYLE_USAGE(.BOTH.,#472);
#470=SURFACE_STYLE_RENDERING_WITH_PROPERTIES($,#476,(#471));
#471=SURFACE_STYLE_TRANSPARENT(0.);
#472=SURFACE_SIDE_STYLE('',(#473,#470));
#473=SURFACE_STYLE_FILL_AREA(#474);
#474=FILL_AREA_STYLE('',(#475));
#475=FILL_AREA_STYLE_COLOUR('',#476);
#476=COLOUR_RGB('',0.749019607843137,0.749019607843137,0.749019607843137);
ENDSEC;
END-ISO-10303-21;
