ISO-10303-21;
HEADER;
/* Generated by software containing ST-Developer
 * from STEP Tools, Inc. (www.steptools.com) 
 */

FILE_DESCRIPTION(
/* description */ (''),
/* implementation_level */ '2;1');

FILE_NAME(
/* name */ 'synth-straight-bracket.stp',
/* time_stamp */ '2025-04-09T22:23:06+01:00',
/* author */ ('iwheard'),
/* organization */ (''),
/* preprocessor_version */ 'ST-DEVELOPER v20',
/* originating_system */ 'Autodesk Inventor 2024',
/* authorisation */ '');

FILE_SCHEMA (('AUTOMOTIVE_DESIGN { 1 0 10303 214 3 1 1 }'));
ENDSEC;

DATA;
#10=MECHANICAL_DESIGN_GEOMETRIC_PRESENTATION_REPRESENTATION('',(#13),#1052);
#11=SHAPE_REPRESENTATION_RELATIONSHIP('SRR','None',#1059,#12);
#12=ADVANCED_BREP_SHAPE_REPRESENTATION('',(#14),#1051);
#13=STYLED_ITEM('',(#1068),#14);
#14=MANIFOLD_SOLID_BREP('bracket',#609);
#15=FACE_BOUND('',#129,.T.);
#16=FACE_BOUND('',#130,.T.);
#17=CYLINDRICAL_SURFACE('',#648,8.);
#18=CYLINDRICAL_SURFACE('',#651,8.);
#19=CYLINDRICAL_SURFACE('',#670,1.6);
#20=CYLINDRICAL_SURFACE('',#677,1.6);
#21=CYLINDRICAL_SURFACE('',#680,8.);
#22=CYLINDRICAL_SURFACE('',#682,8.);
#23=CYLINDRICAL_SURFACE('',#685,1.6);
#24=CYLINDRICAL_SURFACE('',#688,1.6);
#25=(
BOUNDED_CURVE()
B_SPLINE_CURVE(2,(#891,#892,#893),.UNSPECIFIED.,.F.,.F.)
B_SPLINE_CURVE_WITH_KNOTS((3,3),(0.,0.406939798987518),.UNSPECIFIED.)
CURVE()
GEOMETRIC_REPRESENTATION_ITEM()
RATIONAL_B_SPLINE_CURVE((1.,1.,1.))
REPRESENTATION_ITEM('')
);
#26=(
BOUNDED_CURVE()
B_SPLINE_CURVE(2,(#921,#922,#923),.UNSPECIFIED.,.F.,.F.)
B_SPLINE_CURVE_WITH_KNOTS((3,3),(0.,0.406939798987515),.UNSPECIFIED.)
CURVE()
GEOMETRIC_REPRESENTATION_ITEM()
RATIONAL_B_SPLINE_CURVE((1.,1.,1.))
REPRESENTATION_ITEM('')
);
#27=CIRCLE('',#634,8.);
#28=CIRCLE('',#635,6.);
#29=CIRCLE('',#638,8.);
#30=CIRCLE('',#639,6.);
#31=CIRCLE('',#642,8.);
#32=CIRCLE('',#643,6.);
#33=CIRCLE('',#646,8.);
#34=CIRCLE('',#647,6.);
#35=CIRCLE('',#649,8.);
#36=CIRCLE('',#652,8.);
#37=CIRCLE('',#655,3.6);
#38=CIRCLE('',#656,3.6);
#39=CIRCLE('',#657,3.6);
#40=CIRCLE('',#658,3.6);
#41=CIRCLE('',#659,3.6);
#42=CIRCLE('',#660,3.6);
#43=CIRCLE('',#662,1.6);
#44=CIRCLE('',#664,1.6);
#45=CIRCLE('',#667,1.6);
#46=CIRCLE('',#671,1.6);
#47=CIRCLE('',#674,1.6);
#48=CIRCLE('',#678,1.6);
#49=CIRCLE('',#681,8.);
#50=CIRCLE('',#683,8.);
#51=CIRCLE('',#686,1.6);
#52=CIRCLE('',#689,1.6);
#53=CONICAL_SURFACE('',#633,7.,0.785398163397449);
#54=CONICAL_SURFACE('',#637,7.,0.785398163397449);
#55=CONICAL_SURFACE('',#641,7.,0.785398163397448);
#56=CONICAL_SURFACE('',#645,7.,0.785398163397449);
#57=CONICAL_SURFACE('',#661,2.6,0.785398163397448);
#58=CONICAL_SURFACE('',#663,2.6,0.785398163397449);
#59=CONICAL_SURFACE('',#666,2.6,0.785398163397448);
#60=CONICAL_SURFACE('',#673,2.6,0.785398163397448);
#61=FACE_OUTER_BOUND('',#95,.T.);
#62=FACE_OUTER_BOUND('',#96,.T.);
#63=FACE_OUTER_BOUND('',#97,.T.);
#64=FACE_OUTER_BOUND('',#98,.T.);
#65=FACE_OUTER_BOUND('',#99,.T.);
#66=FACE_OUTER_BOUND('',#100,.T.);
#67=FACE_OUTER_BOUND('',#101,.T.);
#68=FACE_OUTER_BOUND('',#102,.T.);
#69=FACE_OUTER_BOUND('',#103,.T.);
#70=FACE_OUTER_BOUND('',#104,.T.);
#71=FACE_OUTER_BOUND('',#105,.T.);
#72=FACE_OUTER_BOUND('',#106,.T.);
#73=FACE_OUTER_BOUND('',#107,.T.);
#74=FACE_OUTER_BOUND('',#108,.T.);
#75=FACE_OUTER_BOUND('',#109,.T.);
#76=FACE_OUTER_BOUND('',#110,.T.);
#77=FACE_OUTER_BOUND('',#111,.T.);
#78=FACE_OUTER_BOUND('',#112,.T.);
#79=FACE_OUTER_BOUND('',#113,.T.);
#80=FACE_OUTER_BOUND('',#114,.T.);
#81=FACE_OUTER_BOUND('',#115,.T.);
#82=FACE_OUTER_BOUND('',#116,.T.);
#83=FACE_OUTER_BOUND('',#117,.T.);
#84=FACE_OUTER_BOUND('',#118,.T.);
#85=FACE_OUTER_BOUND('',#119,.T.);
#86=FACE_OUTER_BOUND('',#120,.T.);
#87=FACE_OUTER_BOUND('',#121,.T.);
#88=FACE_OUTER_BOUND('',#122,.T.);
#89=FACE_OUTER_BOUND('',#123,.T.);
#90=FACE_OUTER_BOUND('',#124,.T.);
#91=FACE_OUTER_BOUND('',#125,.T.);
#92=FACE_OUTER_BOUND('',#126,.T.);
#93=FACE_OUTER_BOUND('',#127,.T.);
#94=FACE_OUTER_BOUND('',#128,.T.);
#95=EDGE_LOOP('',(#385,#386,#387,#388));
#96=EDGE_LOOP('',(#389,#390,#391,#392));
#97=EDGE_LOOP('',(#393,#394,#395,#396,#397,#398));
#98=EDGE_LOOP('',(#399,#400,#401,#402));
#99=EDGE_LOOP('',(#403,#404,#405,#406));
#100=EDGE_LOOP('',(#407,#408,#409,#410));
#101=EDGE_LOOP('',(#411,#412,#413,#414,#415,#416));
#102=EDGE_LOOP('',(#417,#418,#419,#420));
#103=EDGE_LOOP('',(#421,#422,#423,#424));
#104=EDGE_LOOP('',(#425,#426,#427,#428));
#105=EDGE_LOOP('',(#429,#430,#431,#432));
#106=EDGE_LOOP('',(#433,#434,#435,#436));
#107=EDGE_LOOP('',(#437,#438,#439,#440,#441,#442,#443,#444,#445,#446,#447,
#448,#449,#450,#451,#452,#453,#454,#455,#456));
#108=EDGE_LOOP('',(#457,#458,#459,#460,#461,#462));
#109=EDGE_LOOP('',(#463,#464,#465,#466,#467,#468));
#110=EDGE_LOOP('',(#469,#470,#471,#472));
#111=EDGE_LOOP('',(#473,#474,#475,#476));
#112=EDGE_LOOP('',(#477,#478,#479,#480));
#113=EDGE_LOOP('',(#481,#482,#483,#484));
#114=EDGE_LOOP('',(#485,#486,#487,#488));
#115=EDGE_LOOP('',(#489,#490,#491,#492));
#116=EDGE_LOOP('',(#493,#494,#495,#496));
#117=EDGE_LOOP('',(#497,#498,#499,#500));
#118=EDGE_LOOP('',(#501,#502,#503,#504));
#119=EDGE_LOOP('',(#505,#506,#507,#508));
#120=EDGE_LOOP('',(#509,#510,#511,#512));
#121=EDGE_LOOP('',(#513,#514,#515,#516));
#122=EDGE_LOOP('',(#517,#518,#519,#520));
#123=EDGE_LOOP('',(#521,#522,#523,#524));
#124=EDGE_LOOP('',(#525,#526,#527,#528));
#125=EDGE_LOOP('',(#529,#530,#531,#532));
#126=EDGE_LOOP('',(#533,#534,#535,#536));
#127=EDGE_LOOP('',(#537,#538,#539,#540));
#128=EDGE_LOOP('',(#541,#542,#543,#544,#545,#546,#547,#548));
#129=EDGE_LOOP('',(#549,#550,#551,#552));
#130=EDGE_LOOP('',(#553,#554,#555,#556));
#131=LINE('',#876,#189);
#132=LINE('',#878,#190);
#133=LINE('',#880,#191);
#134=LINE('',#881,#192);
#135=LINE('',#886,#193);
#136=LINE('',#894,#194);
#137=LINE('',#896,#195);
#138=LINE('',#898,#196);
#139=LINE('',#899,#197);
#140=LINE('',#904,#198);
#141=LINE('',#909,#199);
#142=LINE('',#910,#200);
#143=LINE('',#911,#201);
#144=LINE('',#916,#202);
#145=LINE('',#924,#203);
#146=LINE('',#926,#204);
#147=LINE('',#928,#205);
#148=LINE('',#929,#206);
#149=LINE('',#935,#207);
#150=LINE('',#938,#208);
#151=LINE('',#941,#209);
#152=LINE('',#942,#210);
#153=LINE('',#945,#211);
#154=LINE('',#949,#212);
#155=LINE('',#950,#213);
#156=LINE('',#955,#214);
#157=LINE('',#959,#215);
#158=LINE('',#964,#216);
#159=LINE('',#968,#217);
#160=LINE('',#972,#218);
#161=LINE('',#975,#219);
#162=LINE('',#978,#220);
#163=LINE('',#981,#221);
#164=LINE('',#984,#222);
#165=LINE('',#985,#223);
#166=LINE('',#988,#224);
#167=LINE('',#991,#225);
#168=LINE('',#994,#226);
#169=LINE('',#996,#227);
#170=LINE('',#997,#228);
#171=LINE('',#1000,#229);
#172=LINE('',#1004,#230);
#173=LINE('',#1005,#231);
#174=LINE('',#1008,#232);
#175=LINE('',#1011,#233);
#176=LINE('',#1014,#234);
#177=LINE('',#1016,#235);
#178=LINE('',#1017,#236);
#179=LINE('',#1020,#237);
#180=LINE('',#1024,#238);
#181=LINE('',#1025,#239);
#182=LINE('',#1029,#240);
#183=LINE('',#1032,#241);
#184=LINE('',#1036,#242);
#185=LINE('',#1037,#243);
#186=LINE('',#1042,#244);
#187=LINE('',#1043,#245);
#188=LINE('',#1047,#246);
#189=VECTOR('',#696,10.);
#190=VECTOR('',#697,10.);
#191=VECTOR('',#698,10.);
#192=VECTOR('',#699,10.);
#193=VECTOR('',#704,10.);
#194=VECTOR('',#709,10.);
#195=VECTOR('',#710,10.);
#196=VECTOR('',#711,10.);
#197=VECTOR('',#712,10.);
#198=VECTOR('',#717,10.);
#199=VECTOR('',#722,10.);
#200=VECTOR('',#723,10.);
#201=VECTOR('',#724,10.);
#202=VECTOR('',#729,10.);
#203=VECTOR('',#734,10.);
#204=VECTOR('',#735,10.);
#205=VECTOR('',#736,10.);
#206=VECTOR('',#737,10.);
#207=VECTOR('',#746,10.);
#208=VECTOR('',#749,10.);
#209=VECTOR('',#752,10.);
#210=VECTOR('',#753,10.);
#211=VECTOR('',#756,10.);
#212=VECTOR('',#761,10.);
#213=VECTOR('',#762,10.);
#214=VECTOR('',#767,10.);
#215=VECTOR('',#770,10.);
#216=VECTOR('',#775,10.);
#217=VECTOR('',#778,10.);
#218=VECTOR('',#783,10.);
#219=VECTOR('',#786,10.);
#220=VECTOR('',#789,10.);
#221=VECTOR('',#792,10.);
#222=VECTOR('',#795,10.);
#223=VECTOR('',#796,10.);
#224=VECTOR('',#799,10.);
#225=VECTOR('',#804,10.);
#226=VECTOR('',#807,10.);
#227=VECTOR('',#808,10.);
#228=VECTOR('',#809,10.);
#229=VECTOR('',#812,10.);
#230=VECTOR('',#817,10.);
#231=VECTOR('',#818,10.);
#232=VECTOR('',#821,10.);
#233=VECTOR('',#826,10.);
#234=VECTOR('',#829,10.);
#235=VECTOR('',#830,10.);
#236=VECTOR('',#831,10.);
#237=VECTOR('',#834,10.);
#238=VECTOR('',#839,10.);
#239=VECTOR('',#840,10.);
#240=VECTOR('',#845,10.);
#241=VECTOR('',#848,10.);
#242=VECTOR('',#853,10.);
#243=VECTOR('',#854,10.);
#244=VECTOR('',#861,10.);
#245=VECTOR('',#862,10.);
#246=VECTOR('',#869,10.);
#247=VERTEX_POINT('',#874);
#248=VERTEX_POINT('',#875);
#249=VERTEX_POINT('',#877);
#250=VERTEX_POINT('',#879);
#251=VERTEX_POINT('',#883);
#252=VERTEX_POINT('',#885);
#253=VERTEX_POINT('',#889);
#254=VERTEX_POINT('',#890);
#255=VERTEX_POINT('',#895);
#256=VERTEX_POINT('',#897);
#257=VERTEX_POINT('',#901);
#258=VERTEX_POINT('',#903);
#259=VERTEX_POINT('',#907);
#260=VERTEX_POINT('',#908);
#261=VERTEX_POINT('',#913);
#262=VERTEX_POINT('',#915);
#263=VERTEX_POINT('',#919);
#264=VERTEX_POINT('',#920);
#265=VERTEX_POINT('',#925);
#266=VERTEX_POINT('',#927);
#267=VERTEX_POINT('',#934);
#268=VERTEX_POINT('',#936);
#269=VERTEX_POINT('',#940);
#270=VERTEX_POINT('',#944);
#271=VERTEX_POINT('',#948);
#272=VERTEX_POINT('',#952);
#273=VERTEX_POINT('',#954);
#274=VERTEX_POINT('',#956);
#275=VERTEX_POINT('',#958);
#276=VERTEX_POINT('',#961);
#277=VERTEX_POINT('',#963);
#278=VERTEX_POINT('',#965);
#279=VERTEX_POINT('',#967);
#280=VERTEX_POINT('',#971);
#281=VERTEX_POINT('',#973);
#282=VERTEX_POINT('',#977);
#283=VERTEX_POINT('',#979);
#284=VERTEX_POINT('',#983);
#285=VERTEX_POINT('',#987);
#286=VERTEX_POINT('',#993);
#287=VERTEX_POINT('',#995);
#288=VERTEX_POINT('',#999);
#289=VERTEX_POINT('',#1003);
#290=VERTEX_POINT('',#1007);
#291=VERTEX_POINT('',#1013);
#292=VERTEX_POINT('',#1015);
#293=VERTEX_POINT('',#1019);
#294=VERTEX_POINT('',#1023);
#295=VERTEX_POINT('',#1027);
#296=VERTEX_POINT('',#1031);
#297=VERTEX_POINT('',#1035);
#298=VERTEX_POINT('',#1041);
#299=EDGE_CURVE('',#247,#248,#131,.T.);
#300=EDGE_CURVE('',#248,#249,#132,.T.);
#301=EDGE_CURVE('',#249,#250,#133,.T.);
#302=EDGE_CURVE('',#250,#247,#134,.T.);
#303=EDGE_CURVE('',#247,#251,#27,.T.);
#304=EDGE_CURVE('',#251,#252,#135,.T.);
#305=EDGE_CURVE('',#252,#248,#28,.T.);
#306=EDGE_CURVE('',#253,#254,#25,.T.);
#307=EDGE_CURVE('',#254,#252,#136,.T.);
#308=EDGE_CURVE('',#251,#255,#137,.T.);
#309=EDGE_CURVE('',#255,#256,#138,.T.);
#310=EDGE_CURVE('',#256,#253,#139,.T.);
#311=EDGE_CURVE('',#255,#257,#29,.T.);
#312=EDGE_CURVE('',#257,#258,#140,.T.);
#313=EDGE_CURVE('',#258,#256,#30,.T.);
#314=EDGE_CURVE('',#259,#260,#141,.T.);
#315=EDGE_CURVE('',#260,#258,#142,.T.);
#316=EDGE_CURVE('',#257,#259,#143,.T.);
#317=EDGE_CURVE('',#259,#261,#31,.T.);
#318=EDGE_CURVE('',#261,#262,#144,.T.);
#319=EDGE_CURVE('',#262,#260,#32,.T.);
#320=EDGE_CURVE('',#263,#264,#26,.T.);
#321=EDGE_CURVE('',#264,#262,#145,.T.);
#322=EDGE_CURVE('',#261,#265,#146,.T.);
#323=EDGE_CURVE('',#265,#266,#147,.T.);
#324=EDGE_CURVE('',#266,#263,#148,.T.);
#325=EDGE_CURVE('',#265,#250,#33,.T.);
#326=EDGE_CURVE('',#249,#266,#34,.T.);
#327=EDGE_CURVE('',#255,#267,#149,.T.);
#328=EDGE_CURVE('',#267,#268,#35,.T.);
#329=EDGE_CURVE('',#268,#257,#150,.T.);
#330=EDGE_CURVE('',#269,#251,#151,.T.);
#331=EDGE_CURVE('',#269,#267,#152,.T.);
#332=EDGE_CURVE('',#247,#270,#153,.T.);
#333=EDGE_CURVE('',#270,#269,#36,.T.);
#334=EDGE_CURVE('',#271,#250,#154,.T.);
#335=EDGE_CURVE('',#271,#270,#155,.T.);
#336=EDGE_CURVE('',#272,#264,#37,.T.);
#337=EDGE_CURVE('',#273,#272,#156,.T.);
#338=EDGE_CURVE('',#274,#273,#38,.T.);
#339=EDGE_CURVE('',#275,#274,#157,.T.);
#340=EDGE_CURVE('',#263,#275,#39,.T.);
#341=EDGE_CURVE('',#276,#254,#40,.T.);
#342=EDGE_CURVE('',#277,#276,#158,.T.);
#343=EDGE_CURVE('',#278,#277,#41,.T.);
#344=EDGE_CURVE('',#279,#278,#159,.T.);
#345=EDGE_CURVE('',#253,#279,#42,.T.);
#346=EDGE_CURVE('',#275,#280,#160,.T.);
#347=EDGE_CURVE('',#280,#281,#43,.T.);
#348=EDGE_CURVE('',#281,#272,#161,.T.);
#349=EDGE_CURVE('',#279,#282,#162,.T.);
#350=EDGE_CURVE('',#282,#283,#44,.T.);
#351=EDGE_CURVE('',#283,#276,#163,.T.);
#352=EDGE_CURVE('',#284,#277,#164,.T.);
#353=EDGE_CURVE('',#283,#284,#165,.T.);
#354=EDGE_CURVE('',#285,#278,#166,.T.);
#355=EDGE_CURVE('',#284,#285,#45,.T.);
#356=EDGE_CURVE('',#285,#282,#167,.T.);
#357=EDGE_CURVE('',#283,#286,#168,.T.);
#358=EDGE_CURVE('',#287,#286,#169,.T.);
#359=EDGE_CURVE('',#284,#287,#170,.T.);
#360=EDGE_CURVE('',#282,#288,#171,.T.);
#361=EDGE_CURVE('',#286,#288,#46,.T.);
#362=EDGE_CURVE('',#289,#273,#172,.T.);
#363=EDGE_CURVE('',#281,#289,#173,.T.);
#364=EDGE_CURVE('',#290,#274,#174,.T.);
#365=EDGE_CURVE('',#289,#290,#47,.T.);
#366=EDGE_CURVE('',#290,#280,#175,.T.);
#367=EDGE_CURVE('',#281,#291,#176,.T.);
#368=EDGE_CURVE('',#292,#291,#177,.T.);
#369=EDGE_CURVE('',#289,#292,#178,.T.);
#370=EDGE_CURVE('',#280,#293,#179,.T.);
#371=EDGE_CURVE('',#291,#293,#48,.T.);
#372=EDGE_CURVE('',#268,#294,#180,.T.);
#373=EDGE_CURVE('',#259,#294,#181,.T.);
#374=EDGE_CURVE('',#294,#295,#49,.T.);
#375=EDGE_CURVE('',#295,#261,#182,.T.);
#376=EDGE_CURVE('',#265,#296,#183,.T.);
#377=EDGE_CURVE('',#296,#271,#50,.T.);
#378=EDGE_CURVE('',#285,#297,#184,.T.);
#379=EDGE_CURVE('',#288,#297,#185,.T.);
#380=EDGE_CURVE('',#297,#287,#51,.T.);
#381=EDGE_CURVE('',#290,#298,#186,.T.);
#382=EDGE_CURVE('',#293,#298,#187,.T.);
#383=EDGE_CURVE('',#298,#292,#52,.T.);
#384=EDGE_CURVE('',#295,#296,#188,.T.);
#385=ORIENTED_EDGE('',*,*,#299,.T.);
#386=ORIENTED_EDGE('',*,*,#300,.T.);
#387=ORIENTED_EDGE('',*,*,#301,.T.);
#388=ORIENTED_EDGE('',*,*,#302,.T.);
#389=ORIENTED_EDGE('',*,*,#299,.F.);
#390=ORIENTED_EDGE('',*,*,#303,.T.);
#391=ORIENTED_EDGE('',*,*,#304,.T.);
#392=ORIENTED_EDGE('',*,*,#305,.T.);
#393=ORIENTED_EDGE('',*,*,#306,.T.);
#394=ORIENTED_EDGE('',*,*,#307,.T.);
#395=ORIENTED_EDGE('',*,*,#304,.F.);
#396=ORIENTED_EDGE('',*,*,#308,.T.);
#397=ORIENTED_EDGE('',*,*,#309,.T.);
#398=ORIENTED_EDGE('',*,*,#310,.T.);
#399=ORIENTED_EDGE('',*,*,#309,.F.);
#400=ORIENTED_EDGE('',*,*,#311,.T.);
#401=ORIENTED_EDGE('',*,*,#312,.T.);
#402=ORIENTED_EDGE('',*,*,#313,.T.);
#403=ORIENTED_EDGE('',*,*,#314,.T.);
#404=ORIENTED_EDGE('',*,*,#315,.T.);
#405=ORIENTED_EDGE('',*,*,#312,.F.);
#406=ORIENTED_EDGE('',*,*,#316,.T.);
#407=ORIENTED_EDGE('',*,*,#314,.F.);
#408=ORIENTED_EDGE('',*,*,#317,.T.);
#409=ORIENTED_EDGE('',*,*,#318,.T.);
#410=ORIENTED_EDGE('',*,*,#319,.T.);
#411=ORIENTED_EDGE('',*,*,#320,.T.);
#412=ORIENTED_EDGE('',*,*,#321,.T.);
#413=ORIENTED_EDGE('',*,*,#318,.F.);
#414=ORIENTED_EDGE('',*,*,#322,.T.);
#415=ORIENTED_EDGE('',*,*,#323,.T.);
#416=ORIENTED_EDGE('',*,*,#324,.T.);
#417=ORIENTED_EDGE('',*,*,#323,.F.);
#418=ORIENTED_EDGE('',*,*,#325,.T.);
#419=ORIENTED_EDGE('',*,*,#301,.F.);
#420=ORIENTED_EDGE('',*,*,#326,.T.);
#421=ORIENTED_EDGE('',*,*,#311,.F.);
#422=ORIENTED_EDGE('',*,*,#327,.T.);
#423=ORIENTED_EDGE('',*,*,#328,.T.);
#424=ORIENTED_EDGE('',*,*,#329,.T.);
#425=ORIENTED_EDGE('',*,*,#308,.F.);
#426=ORIENTED_EDGE('',*,*,#330,.F.);
#427=ORIENTED_EDGE('',*,*,#331,.T.);
#428=ORIENTED_EDGE('',*,*,#327,.F.);
#429=ORIENTED_EDGE('',*,*,#303,.F.);
#430=ORIENTED_EDGE('',*,*,#332,.T.);
#431=ORIENTED_EDGE('',*,*,#333,.T.);
#432=ORIENTED_EDGE('',*,*,#330,.T.);
#433=ORIENTED_EDGE('',*,*,#302,.F.);
#434=ORIENTED_EDGE('',*,*,#334,.F.);
#435=ORIENTED_EDGE('',*,*,#335,.T.);
#436=ORIENTED_EDGE('',*,*,#332,.F.);
#437=ORIENTED_EDGE('',*,*,#310,.F.);
#438=ORIENTED_EDGE('',*,*,#313,.F.);
#439=ORIENTED_EDGE('',*,*,#315,.F.);
#440=ORIENTED_EDGE('',*,*,#319,.F.);
#441=ORIENTED_EDGE('',*,*,#321,.F.);
#442=ORIENTED_EDGE('',*,*,#336,.F.);
#443=ORIENTED_EDGE('',*,*,#337,.F.);
#444=ORIENTED_EDGE('',*,*,#338,.F.);
#445=ORIENTED_EDGE('',*,*,#339,.F.);
#446=ORIENTED_EDGE('',*,*,#340,.F.);
#447=ORIENTED_EDGE('',*,*,#324,.F.);
#448=ORIENTED_EDGE('',*,*,#326,.F.);
#449=ORIENTED_EDGE('',*,*,#300,.F.);
#450=ORIENTED_EDGE('',*,*,#305,.F.);
#451=ORIENTED_EDGE('',*,*,#307,.F.);
#452=ORIENTED_EDGE('',*,*,#341,.F.);
#453=ORIENTED_EDGE('',*,*,#342,.F.);
#454=ORIENTED_EDGE('',*,*,#343,.F.);
#455=ORIENTED_EDGE('',*,*,#344,.F.);
#456=ORIENTED_EDGE('',*,*,#345,.F.);
#457=ORIENTED_EDGE('',*,*,#320,.F.);
#458=ORIENTED_EDGE('',*,*,#340,.T.);
#459=ORIENTED_EDGE('',*,*,#346,.T.);
#460=ORIENTED_EDGE('',*,*,#347,.T.);
#461=ORIENTED_EDGE('',*,*,#348,.T.);
#462=ORIENTED_EDGE('',*,*,#336,.T.);
#463=ORIENTED_EDGE('',*,*,#306,.F.);
#464=ORIENTED_EDGE('',*,*,#345,.T.);
#465=ORIENTED_EDGE('',*,*,#349,.T.);
#466=ORIENTED_EDGE('',*,*,#350,.T.);
#467=ORIENTED_EDGE('',*,*,#351,.T.);
#468=ORIENTED_EDGE('',*,*,#341,.T.);
#469=ORIENTED_EDGE('',*,*,#352,.T.);
#470=ORIENTED_EDGE('',*,*,#342,.T.);
#471=ORIENTED_EDGE('',*,*,#351,.F.);
#472=ORIENTED_EDGE('',*,*,#353,.T.);
#473=ORIENTED_EDGE('',*,*,#354,.T.);
#474=ORIENTED_EDGE('',*,*,#343,.T.);
#475=ORIENTED_EDGE('',*,*,#352,.F.);
#476=ORIENTED_EDGE('',*,*,#355,.T.);
#477=ORIENTED_EDGE('',*,*,#349,.F.);
#478=ORIENTED_EDGE('',*,*,#344,.T.);
#479=ORIENTED_EDGE('',*,*,#354,.F.);
#480=ORIENTED_EDGE('',*,*,#356,.T.);
#481=ORIENTED_EDGE('',*,*,#353,.F.);
#482=ORIENTED_EDGE('',*,*,#357,.T.);
#483=ORIENTED_EDGE('',*,*,#358,.F.);
#484=ORIENTED_EDGE('',*,*,#359,.F.);
#485=ORIENTED_EDGE('',*,*,#350,.F.);
#486=ORIENTED_EDGE('',*,*,#360,.T.);
#487=ORIENTED_EDGE('',*,*,#361,.F.);
#488=ORIENTED_EDGE('',*,*,#357,.F.);
#489=ORIENTED_EDGE('',*,*,#362,.T.);
#490=ORIENTED_EDGE('',*,*,#337,.T.);
#491=ORIENTED_EDGE('',*,*,#348,.F.);
#492=ORIENTED_EDGE('',*,*,#363,.T.);
#493=ORIENTED_EDGE('',*,*,#364,.T.);
#494=ORIENTED_EDGE('',*,*,#338,.T.);
#495=ORIENTED_EDGE('',*,*,#362,.F.);
#496=ORIENTED_EDGE('',*,*,#365,.T.);
#497=ORIENTED_EDGE('',*,*,#346,.F.);
#498=ORIENTED_EDGE('',*,*,#339,.T.);
#499=ORIENTED_EDGE('',*,*,#364,.F.);
#500=ORIENTED_EDGE('',*,*,#366,.T.);
#501=ORIENTED_EDGE('',*,*,#363,.F.);
#502=ORIENTED_EDGE('',*,*,#367,.T.);
#503=ORIENTED_EDGE('',*,*,#368,.F.);
#504=ORIENTED_EDGE('',*,*,#369,.F.);
#505=ORIENTED_EDGE('',*,*,#347,.F.);
#506=ORIENTED_EDGE('',*,*,#370,.T.);
#507=ORIENTED_EDGE('',*,*,#371,.F.);
#508=ORIENTED_EDGE('',*,*,#367,.F.);
#509=ORIENTED_EDGE('',*,*,#316,.F.);
#510=ORIENTED_EDGE('',*,*,#329,.F.);
#511=ORIENTED_EDGE('',*,*,#372,.T.);
#512=ORIENTED_EDGE('',*,*,#373,.F.);
#513=ORIENTED_EDGE('',*,*,#317,.F.);
#514=ORIENTED_EDGE('',*,*,#373,.T.);
#515=ORIENTED_EDGE('',*,*,#374,.T.);
#516=ORIENTED_EDGE('',*,*,#375,.T.);
#517=ORIENTED_EDGE('',*,*,#325,.F.);
#518=ORIENTED_EDGE('',*,*,#376,.T.);
#519=ORIENTED_EDGE('',*,*,#377,.T.);
#520=ORIENTED_EDGE('',*,*,#334,.T.);
#521=ORIENTED_EDGE('',*,*,#356,.F.);
#522=ORIENTED_EDGE('',*,*,#378,.T.);
#523=ORIENTED_EDGE('',*,*,#379,.F.);
#524=ORIENTED_EDGE('',*,*,#360,.F.);
#525=ORIENTED_EDGE('',*,*,#355,.F.);
#526=ORIENTED_EDGE('',*,*,#359,.T.);
#527=ORIENTED_EDGE('',*,*,#380,.F.);
#528=ORIENTED_EDGE('',*,*,#378,.F.);
#529=ORIENTED_EDGE('',*,*,#366,.F.);
#530=ORIENTED_EDGE('',*,*,#381,.T.);
#531=ORIENTED_EDGE('',*,*,#382,.F.);
#532=ORIENTED_EDGE('',*,*,#370,.F.);
#533=ORIENTED_EDGE('',*,*,#365,.F.);
#534=ORIENTED_EDGE('',*,*,#369,.T.);
#535=ORIENTED_EDGE('',*,*,#383,.F.);
#536=ORIENTED_EDGE('',*,*,#381,.F.);
#537=ORIENTED_EDGE('',*,*,#322,.F.);
#538=ORIENTED_EDGE('',*,*,#375,.F.);
#539=ORIENTED_EDGE('',*,*,#384,.T.);
#540=ORIENTED_EDGE('',*,*,#376,.F.);
#541=ORIENTED_EDGE('',*,*,#333,.F.);
#542=ORIENTED_EDGE('',*,*,#335,.F.);
#543=ORIENTED_EDGE('',*,*,#377,.F.);
#544=ORIENTED_EDGE('',*,*,#384,.F.);
#545=ORIENTED_EDGE('',*,*,#374,.F.);
#546=ORIENTED_EDGE('',*,*,#372,.F.);
#547=ORIENTED_EDGE('',*,*,#328,.F.);
#548=ORIENTED_EDGE('',*,*,#331,.F.);
#549=ORIENTED_EDGE('',*,*,#379,.T.);
#550=ORIENTED_EDGE('',*,*,#380,.T.);
#551=ORIENTED_EDGE('',*,*,#358,.T.);
#552=ORIENTED_EDGE('',*,*,#361,.T.);
#553=ORIENTED_EDGE('',*,*,#382,.T.);
#554=ORIENTED_EDGE('',*,*,#383,.T.);
#555=ORIENTED_EDGE('',*,*,#368,.T.);
#556=ORIENTED_EDGE('',*,*,#371,.T.);
#557=PLANE('',#632);
#558=PLANE('',#636);
#559=PLANE('',#640);
#560=PLANE('',#644);
#561=PLANE('',#650);
#562=PLANE('',#653);
#563=PLANE('',#654);
#564=PLANE('',#665);
#565=PLANE('',#668);
#566=PLANE('',#669);
#567=PLANE('',#672);
#568=PLANE('',#675);
#569=PLANE('',#676);
#570=PLANE('',#679);
#571=PLANE('',#684);
#572=PLANE('',#687);
#573=PLANE('',#690);
#574=PLANE('',#691);
#575=ADVANCED_FACE('',(#61),#557,.T.);
#576=ADVANCED_FACE('',(#62),#53,.T.);
#577=ADVANCED_FACE('',(#63),#558,.T.);
#578=ADVANCED_FACE('',(#64),#54,.T.);
#579=ADVANCED_FACE('',(#65),#559,.T.);
#580=ADVANCED_FACE('',(#66),#55,.T.);
#581=ADVANCED_FACE('',(#67),#560,.T.);
#582=ADVANCED_FACE('',(#68),#56,.T.);
#583=ADVANCED_FACE('',(#69),#17,.T.);
#584=ADVANCED_FACE('',(#70),#561,.T.);
#585=ADVANCED_FACE('',(#71),#18,.T.);
#586=ADVANCED_FACE('',(#72),#562,.T.);
#587=ADVANCED_FACE('',(#73),#563,.T.);
#588=ADVANCED_FACE('',(#74),#57,.F.);
#589=ADVANCED_FACE('',(#75),#58,.F.);
#590=ADVANCED_FACE('',(#76),#564,.T.);
#591=ADVANCED_FACE('',(#77),#59,.F.);
#592=ADVANCED_FACE('',(#78),#565,.T.);
#593=ADVANCED_FACE('',(#79),#566,.F.);
#594=ADVANCED_FACE('',(#80),#19,.F.);
#595=ADVANCED_FACE('',(#81),#567,.T.);
#596=ADVANCED_FACE('',(#82),#60,.F.);
#597=ADVANCED_FACE('',(#83),#568,.T.);
#598=ADVANCED_FACE('',(#84),#569,.F.);
#599=ADVANCED_FACE('',(#85),#20,.F.);
#600=ADVANCED_FACE('',(#86),#570,.T.);
#601=ADVANCED_FACE('',(#87),#21,.T.);
#602=ADVANCED_FACE('',(#88),#22,.T.);
#603=ADVANCED_FACE('',(#89),#571,.F.);
#604=ADVANCED_FACE('',(#90),#23,.F.);
#605=ADVANCED_FACE('',(#91),#572,.F.);
#606=ADVANCED_FACE('',(#92),#24,.F.);
#607=ADVANCED_FACE('',(#93),#573,.T.);
#608=ADVANCED_FACE('',(#94,#15,#16),#574,.F.);
#609=CLOSED_SHELL('',(#575,#576,#577,#578,#579,#580,#581,#582,#583,#584,
#585,#586,#587,#588,#589,#590,#591,#592,#593,#594,#595,#596,#597,#598,#599,
#600,#601,#602,#603,#604,#605,#606,#607,#608));
#610=DERIVED_UNIT_ELEMENT(#613,1.);
#611=DERIVED_UNIT_ELEMENT(#1054,-3.);
#612=DIMENSIONAL_EXPONENTS(0.,1.,0.,0.,0.,0.,0.);
#613=(
CONVERSION_BASED_UNIT('gram',#615)
MASS_UNIT()
NAMED_UNIT(#612)
);
#614=(
MASS_UNIT()
NAMED_UNIT(*)
SI_UNIT(.KILO.,.GRAM.)
);
#615=MASS_MEASURE_WITH_UNIT(MASS_MEASURE(0.001),#614);
#616=DERIVED_UNIT((#610,#611));
#617=MEASURE_REPRESENTATION_ITEM('density measure',
POSITIVE_RATIO_MEASURE(1.),#616);
#618=PROPERTY_DEFINITION_REPRESENTATION(#623,#620);
#619=PROPERTY_DEFINITION_REPRESENTATION(#624,#621);
#620=REPRESENTATION('material name',(#622),#1051);
#621=REPRESENTATION('density',(#617),#1051);
#622=DESCRIPTIVE_REPRESENTATION_ITEM('Generic','Generic');
#623=PROPERTY_DEFINITION('material property','material name',#1061);
#624=PROPERTY_DEFINITION('material property','density of part',#1061);
#625=DATE_TIME_ROLE('creation_date');
#626=APPLIED_DATE_AND_TIME_ASSIGNMENT(#627,#625,(#1061));
#627=DATE_AND_TIME(#628,#629);
#628=CALENDAR_DATE(2025,9,2);
#629=LOCAL_TIME(0,0,0.,#630);
#630=COORDINATED_UNIVERSAL_TIME_OFFSET(0,0,.BEHIND.);
#631=AXIS2_PLACEMENT_3D('',#872,#692,#693);
#632=AXIS2_PLACEMENT_3D('',#873,#694,#695);
#633=AXIS2_PLACEMENT_3D('',#882,#700,#701);
#634=AXIS2_PLACEMENT_3D('',#884,#702,#703);
#635=AXIS2_PLACEMENT_3D('',#887,#705,#706);
#636=AXIS2_PLACEMENT_3D('',#888,#707,#708);
#637=AXIS2_PLACEMENT_3D('',#900,#713,#714);
#638=AXIS2_PLACEMENT_3D('',#902,#715,#716);
#639=AXIS2_PLACEMENT_3D('',#905,#718,#719);
#640=AXIS2_PLACEMENT_3D('',#906,#720,#721);
#641=AXIS2_PLACEMENT_3D('',#912,#725,#726);
#642=AXIS2_PLACEMENT_3D('',#914,#727,#728);
#643=AXIS2_PLACEMENT_3D('',#917,#730,#731);
#644=AXIS2_PLACEMENT_3D('',#918,#732,#733);
#645=AXIS2_PLACEMENT_3D('',#930,#738,#739);
#646=AXIS2_PLACEMENT_3D('',#931,#740,#741);
#647=AXIS2_PLACEMENT_3D('',#932,#742,#743);
#648=AXIS2_PLACEMENT_3D('',#933,#744,#745);
#649=AXIS2_PLACEMENT_3D('',#937,#747,#748);
#650=AXIS2_PLACEMENT_3D('',#939,#750,#751);
#651=AXIS2_PLACEMENT_3D('',#943,#754,#755);
#652=AXIS2_PLACEMENT_3D('',#946,#757,#758);
#653=AXIS2_PLACEMENT_3D('',#947,#759,#760);
#654=AXIS2_PLACEMENT_3D('',#951,#763,#764);
#655=AXIS2_PLACEMENT_3D('',#953,#765,#766);
#656=AXIS2_PLACEMENT_3D('',#957,#768,#769);
#657=AXIS2_PLACEMENT_3D('',#960,#771,#772);
#658=AXIS2_PLACEMENT_3D('',#962,#773,#774);
#659=AXIS2_PLACEMENT_3D('',#966,#776,#777);
#660=AXIS2_PLACEMENT_3D('',#969,#779,#780);
#661=AXIS2_PLACEMENT_3D('',#970,#781,#782);
#662=AXIS2_PLACEMENT_3D('',#974,#784,#785);
#663=AXIS2_PLACEMENT_3D('',#976,#787,#788);
#664=AXIS2_PLACEMENT_3D('',#980,#790,#791);
#665=AXIS2_PLACEMENT_3D('',#982,#793,#794);
#666=AXIS2_PLACEMENT_3D('',#986,#797,#798);
#667=AXIS2_PLACEMENT_3D('',#989,#800,#801);
#668=AXIS2_PLACEMENT_3D('',#990,#802,#803);
#669=AXIS2_PLACEMENT_3D('',#992,#805,#806);
#670=AXIS2_PLACEMENT_3D('',#998,#810,#811);
#671=AXIS2_PLACEMENT_3D('',#1001,#813,#814);
#672=AXIS2_PLACEMENT_3D('',#1002,#815,#816);
#673=AXIS2_PLACEMENT_3D('',#1006,#819,#820);
#674=AXIS2_PLACEMENT_3D('',#1009,#822,#823);
#675=AXIS2_PLACEMENT_3D('',#1010,#824,#825);
#676=AXIS2_PLACEMENT_3D('',#1012,#827,#828);
#677=AXIS2_PLACEMENT_3D('',#1018,#832,#833);
#678=AXIS2_PLACEMENT_3D('',#1021,#835,#836);
#679=AXIS2_PLACEMENT_3D('',#1022,#837,#838);
#680=AXIS2_PLACEMENT_3D('',#1026,#841,#842);
#681=AXIS2_PLACEMENT_3D('',#1028,#843,#844);
#682=AXIS2_PLACEMENT_3D('',#1030,#846,#847);
#683=AXIS2_PLACEMENT_3D('',#1033,#849,#850);
#684=AXIS2_PLACEMENT_3D('',#1034,#851,#852);
#685=AXIS2_PLACEMENT_3D('',#1038,#855,#856);
#686=AXIS2_PLACEMENT_3D('',#1039,#857,#858);
#687=AXIS2_PLACEMENT_3D('',#1040,#859,#860);
#688=AXIS2_PLACEMENT_3D('',#1044,#863,#864);
#689=AXIS2_PLACEMENT_3D('',#1045,#865,#866);
#690=AXIS2_PLACEMENT_3D('',#1046,#867,#868);
#691=AXIS2_PLACEMENT_3D('',#1048,#870,#871);
#692=DIRECTION('axis',(0.,0.,1.));
#693=DIRECTION('refdir',(1.,0.,0.));
#694=DIRECTION('center_axis',(1.73191211247099E-16,0.707106781186547,0.707106781186548));
#695=DIRECTION('ref_axis',(1.,0.,-2.44929359829471E-16));
#696=DIRECTION('',(0.,0.707106781186548,-0.707106781186547));
#697=DIRECTION('',(-1.,0.,2.44929359829471E-16));
#698=DIRECTION('',(0.,-0.707106781186548,0.707106781186547));
#699=DIRECTION('',(1.,0.,-2.44929359829471E-16));
#700=DIRECTION('center_axis',(0.,-1.,0.));
#701=DIRECTION('ref_axis',(0.707106781186548,0.,0.707106781186547));
#702=DIRECTION('center_axis',(0.,1.,0.));
#703=DIRECTION('ref_axis',(0.707106781186548,0.,0.707106781186547));
#704=DIRECTION('',(-0.707106781186548,0.707106781186547,3.92523114670944E-16));
#705=DIRECTION('center_axis',(0.,-1.,0.));
#706=DIRECTION('ref_axis',(0.707106781186548,0.,0.707106781186547));
#707=DIRECTION('center_axis',(0.707106781186547,0.707106781186548,-3.14018491736755E-16));
#708=DIRECTION('ref_axis',(-4.44089209850063E-16,0.,-1.));
#709=DIRECTION('',(4.44089209850063E-16,0.,1.));
#710=DIRECTION('',(-4.44089209850063E-16,0.,-1.));
#711=DIRECTION('',(-0.707106781186548,0.707106781186547,0.));
#712=DIRECTION('',(4.44089209850063E-16,0.,1.));
#713=DIRECTION('center_axis',(0.,-1.,0.));
#714=DIRECTION('ref_axis',(0.707106781186548,0.,-0.707106781186548));
#715=DIRECTION('center_axis',(0.,1.,0.));
#716=DIRECTION('ref_axis',(0.707106781186548,0.,-0.707106781186548));
#717=DIRECTION('',(0.,0.707106781186546,0.707106781186549));
#718=DIRECTION('center_axis',(0.,-1.,0.));
#719=DIRECTION('ref_axis',(0.707106781186548,0.,-0.707106781186548));
#720=DIRECTION('center_axis',(-1.04672830578918E-16,0.707106781186548,-0.707106781186547));
#721=DIRECTION('ref_axis',(-1.,0.,1.48029736616688E-16));
#722=DIRECTION('',(-3.92523114670944E-16,0.707106781186548,0.707106781186547));
#723=DIRECTION('',(1.,0.,-1.48029736616688E-16));
#724=DIRECTION('',(-1.,0.,1.48029736616688E-16));
#725=DIRECTION('center_axis',(0.,-1.,0.));
#726=DIRECTION('ref_axis',(-0.707106781186548,0.,-0.707106781186547));
#727=DIRECTION('center_axis',(0.,1.,0.));
#728=DIRECTION('ref_axis',(-0.707106781186548,0.,-0.707106781186547));
#729=DIRECTION('',(0.707106781186547,0.707106781186547,0.));
#730=DIRECTION('center_axis',(0.,-1.,0.));
#731=DIRECTION('ref_axis',(-0.707106781186548,0.,-0.707106781186547));
#732=DIRECTION('center_axis',(-0.707106781186548,0.707106781186547,2.16489014058873E-16));
#733=DIRECTION('ref_axis',(3.06161699786838E-16,0.,1.));
#734=DIRECTION('',(-3.06161699786838E-16,0.,-1.));
#735=DIRECTION('',(3.06161699786838E-16,0.,1.));
#736=DIRECTION('',(0.707106781186548,0.707106781186547,0.));
#737=DIRECTION('',(-3.06161699786838E-16,0.,-1.));
#738=DIRECTION('center_axis',(0.,-1.,0.));
#739=DIRECTION('ref_axis',(-0.707106781186547,0.,0.707106781186548));
#740=DIRECTION('center_axis',(0.,1.,0.));
#741=DIRECTION('ref_axis',(-0.707106781186547,0.,0.707106781186548));
#742=DIRECTION('center_axis',(0.,-1.,0.));
#743=DIRECTION('ref_axis',(-0.707106781186547,0.,0.707106781186548));
#744=DIRECTION('center_axis',(0.,1.,0.));
#745=DIRECTION('ref_axis',(0.707106781186548,0.,-0.707106781186548));
#746=DIRECTION('',(0.,-1.,0.));
#747=DIRECTION('center_axis',(0.,1.,0.));
#748=DIRECTION('ref_axis',(0.707106781186548,0.,-0.707106781186548));
#749=DIRECTION('',(0.,1.,0.));
#750=DIRECTION('center_axis',(1.,0.,-4.44089209850063E-16));
#751=DIRECTION('ref_axis',(-4.44089209850063E-16,0.,-1.));
#752=DIRECTION('',(0.,1.,0.));
#753=DIRECTION('',(-4.44089209850063E-16,0.,-1.));
#754=DIRECTION('center_axis',(0.,1.,0.));
#755=DIRECTION('ref_axis',(0.707106781186548,0.,0.707106781186547));
#756=DIRECTION('',(0.,-1.,0.));
#757=DIRECTION('center_axis',(0.,1.,0.));
#758=DIRECTION('ref_axis',(0.707106781186548,0.,0.707106781186547));
#759=DIRECTION('center_axis',(2.44929359829471E-16,0.,1.));
#760=DIRECTION('ref_axis',(1.,0.,-2.44929359829471E-16));
#761=DIRECTION('',(0.,1.,0.));
#762=DIRECTION('',(1.,0.,-2.44929359829471E-16));
#763=DIRECTION('center_axis',(0.,1.,0.));
#764=DIRECTION('ref_axis',(0.,0.,1.));
#765=DIRECTION('center_axis',(0.,1.,0.));
#766=DIRECTION('ref_axis',(-1.,0.,0.));
#767=DIRECTION('',(-1.,0.,0.));
#768=DIRECTION('center_axis',(0.,1.,0.));
#769=DIRECTION('ref_axis',(6.93889390390724E-16,0.,1.));
#770=DIRECTION('',(1.,0.,-8.88178419700125E-16));
#771=DIRECTION('center_axis',(0.,1.,0.));
#772=DIRECTION('ref_axis',(-1.,0.,0.));
#773=DIRECTION('center_axis',(0.,1.,0.));
#774=DIRECTION('ref_axis',(1.,0.,0.));
#775=DIRECTION('',(1.,0.,0.));
#776=DIRECTION('center_axis',(0.,1.,0.));
#777=DIRECTION('ref_axis',(0.,0.,-1.));
#778=DIRECTION('',(-1.,0.,8.88178419700125E-16));
#779=DIRECTION('center_axis',(0.,1.,0.));
#780=DIRECTION('ref_axis',(1.,0.,0.));
#781=DIRECTION('center_axis',(0.,1.,0.));
#782=DIRECTION('ref_axis',(-1.,0.,0.));
#783=DIRECTION('',(-1.96261557335472E-16,-0.707106781186548,-0.707106781186547));
#784=DIRECTION('center_axis',(0.,-1.,0.));
#785=DIRECTION('ref_axis',(-1.,0.,0.));
#786=DIRECTION('',(-5.88784672006415E-16,0.707106781186547,-0.707106781186548));
#787=DIRECTION('center_axis',(0.,1.,0.));
#788=DIRECTION('ref_axis',(1.,0.,0.));
#789=DIRECTION('',(0.,-0.707106781186548,0.707106781186547));
#790=DIRECTION('center_axis',(0.,-1.,0.));
#791=DIRECTION('ref_axis',(1.,0.,0.));
#792=DIRECTION('',(0.,0.707106781186547,0.707106781186548));
#793=DIRECTION('center_axis',(0.,0.707106781186547,-0.707106781186548));
#794=DIRECTION('ref_axis',(-1.,0.,0.));
#795=DIRECTION('',(0.,0.707106781186548,0.707106781186547));
#796=DIRECTION('',(-1.,0.,0.));
#797=DIRECTION('center_axis',(0.,1.,0.));
#798=DIRECTION('ref_axis',(0.,0.,-1.));
#799=DIRECTION('',(0.,0.707106781186547,-0.707106781186548));
#800=DIRECTION('center_axis',(0.,-1.,0.));
#801=DIRECTION('ref_axis',(0.,0.,-1.));
#802=DIRECTION('center_axis',(6.2803698347351E-16,0.707106781186547,0.707106781186548));
#803=DIRECTION('ref_axis',(1.,0.,-8.88178419700125E-16));
#804=DIRECTION('',(1.,0.,-8.88178419700125E-16));
#805=DIRECTION('center_axis',(0.,0.,1.));
#806=DIRECTION('ref_axis',(-1.,0.,0.));
#807=DIRECTION('',(0.,-1.,0.));
#808=DIRECTION('',(1.,0.,0.));
#809=DIRECTION('',(0.,-1.,0.));
#810=DIRECTION('center_axis',(0.,-1.,0.));
#811=DIRECTION('ref_axis',(1.,0.,0.));
#812=DIRECTION('',(0.,-1.,0.));
#813=DIRECTION('center_axis',(0.,1.,0.));
#814=DIRECTION('ref_axis',(1.,0.,0.));
#815=DIRECTION('center_axis',(0.,0.707106781186547,0.707106781186548));
#816=DIRECTION('ref_axis',(1.,0.,0.));
#817=DIRECTION('',(0.,0.707106781186548,-0.707106781186547));
#818=DIRECTION('',(1.,0.,0.));
#819=DIRECTION('center_axis',(0.,1.,0.));
#820=DIRECTION('ref_axis',(6.93889390390724E-16,0.,1.));
#821=DIRECTION('',(3.92523114670944E-16,0.707106781186547,0.707106781186548));
#822=DIRECTION('center_axis',(0.,-1.,0.));
#823=DIRECTION('ref_axis',(6.93889390390724E-16,0.,1.));
#824=DIRECTION('center_axis',(-6.2803698347351E-16,0.707106781186547,-0.707106781186548));
#825=DIRECTION('ref_axis',(-1.,0.,8.88178419700125E-16));
#826=DIRECTION('',(-1.,0.,8.88178419700125E-16));
#827=DIRECTION('center_axis',(0.,0.,-1.));
#828=DIRECTION('ref_axis',(1.,0.,0.));
#829=DIRECTION('',(0.,-1.,0.));
#830=DIRECTION('',(-1.,0.,0.));
#831=DIRECTION('',(0.,-1.,0.));
#832=DIRECTION('center_axis',(0.,-1.,0.));
#833=DIRECTION('ref_axis',(-1.,0.,5.66553889764798E-16));
#834=DIRECTION('',(0.,-1.,0.));
#835=DIRECTION('center_axis',(0.,1.,0.));
#836=DIRECTION('ref_axis',(1.,0.,0.));
#837=DIRECTION('center_axis',(-1.48029736616688E-16,0.,-1.));
#838=DIRECTION('ref_axis',(-1.,0.,1.48029736616688E-16));
#839=DIRECTION('',(-1.,0.,1.48029736616688E-16));
#840=DIRECTION('',(0.,-1.,0.));
#841=DIRECTION('center_axis',(0.,1.,0.));
#842=DIRECTION('ref_axis',(-0.707106781186548,0.,-0.707106781186547));
#843=DIRECTION('center_axis',(0.,1.,0.));
#844=DIRECTION('ref_axis',(-0.707106781186548,0.,-0.707106781186547));
#845=DIRECTION('',(0.,1.,0.));
#846=DIRECTION('center_axis',(0.,1.,0.));
#847=DIRECTION('ref_axis',(-0.707106781186547,0.,0.707106781186548));
#848=DIRECTION('',(0.,-1.,0.));
#849=DIRECTION('center_axis',(0.,1.,0.));
#850=DIRECTION('ref_axis',(-0.707106781186547,0.,0.707106781186548));
#851=DIRECTION('center_axis',(-8.88178419700125E-16,0.,-1.));
#852=DIRECTION('ref_axis',(1.,0.,-8.88178419700125E-16));
#853=DIRECTION('',(0.,-1.,0.));
#854=DIRECTION('',(-1.,0.,8.88178419700125E-16));
#855=DIRECTION('center_axis',(0.,-1.,0.));
#856=DIRECTION('ref_axis',(0.,0.,-1.));
#857=DIRECTION('center_axis',(0.,1.,0.));
#858=DIRECTION('ref_axis',(0.,0.,-1.));
#859=DIRECTION('center_axis',(8.88178419700125E-16,0.,1.));
#860=DIRECTION('ref_axis',(-1.,0.,8.88178419700125E-16));
#861=DIRECTION('',(0.,-1.,0.));
#862=DIRECTION('',(1.,0.,-8.88178419700125E-16));
#863=DIRECTION('center_axis',(0.,-1.,0.));
#864=DIRECTION('ref_axis',(6.93889390390724E-16,0.,1.));
#865=DIRECTION('center_axis',(0.,1.,0.));
#866=DIRECTION('ref_axis',(6.93889390390724E-16,0.,1.));
#867=DIRECTION('center_axis',(-1.,0.,3.06161699786838E-16));
#868=DIRECTION('ref_axis',(3.06161699786838E-16,0.,1.));
#869=DIRECTION('',(3.06161699786838E-16,0.,1.));
#870=DIRECTION('center_axis',(0.,1.,0.));
#871=DIRECTION('ref_axis',(0.,0.,1.));
#872=CARTESIAN_POINT('',(0.,0.,0.));
#873=CARTESIAN_POINT('Origin',(7.5,2.,-1.));
#874=CARTESIAN_POINT('',(22.,1.,-5.55111512312578E-15));
#875=CARTESIAN_POINT('',(22.,3.,-2.00000000000001));
#876=CARTESIAN_POINT('',(22.,1.,-5.55111512312578E-15));
#877=CARTESIAN_POINT('',(8.,3.,-2.));
#878=CARTESIAN_POINT('',(7.5,3.,-2.));
#879=CARTESIAN_POINT('',(8.,1.,-2.22044604925031E-15));
#880=CARTESIAN_POINT('',(8.,3.,-2.));
#881=CARTESIAN_POINT('',(7.5,1.,-1.94289029309402E-15));
#882=CARTESIAN_POINT('Origin',(22.,2.,-8.00000000000001));
#883=CARTESIAN_POINT('',(30.,1.,-8.00000000000001));
#884=CARTESIAN_POINT('Origin',(22.,1.,-8.00000000000001));
#885=CARTESIAN_POINT('',(28.,3.,-8.00000000000001));
#886=CARTESIAN_POINT('',(30.,1.,-8.00000000000001));
#887=CARTESIAN_POINT('Origin',(22.,3.,-8.00000000000001));
#888=CARTESIAN_POINT('Origin',(29.,2.,-5.00000000000001));
#889=CARTESIAN_POINT('',(28.,3.,-11.9899748742133));
#890=CARTESIAN_POINT('',(28.,3.,-8.01002512578675));
#891=CARTESIAN_POINT('Ctrl Pts',(28.,3.,-11.9899748742133));
#892=CARTESIAN_POINT('Ctrl Pts',(28.6,2.39999999999999,-10.));
#893=CARTESIAN_POINT('Ctrl Pts',(28.,3.,-8.01002512578676));
#894=CARTESIAN_POINT('',(28.,3.,-5.00000000000001));
#895=CARTESIAN_POINT('',(30.,1.,-12.));
#896=CARTESIAN_POINT('',(30.,1.,-5.00000000000001));
#897=CARTESIAN_POINT('',(28.,3.,-12.));
#898=CARTESIAN_POINT('',(30.,1.,-12.));
#899=CARTESIAN_POINT('',(28.,3.,-5.00000000000001));
#900=CARTESIAN_POINT('Origin',(22.,2.,-12.));
#901=CARTESIAN_POINT('',(22.,1.,-20.));
#902=CARTESIAN_POINT('Origin',(22.,1.,-12.));
#903=CARTESIAN_POINT('',(22.,3.,-18.));
#904=CARTESIAN_POINT('',(22.,1.,-20.));
#905=CARTESIAN_POINT('Origin',(22.,3.,-12.));
#906=CARTESIAN_POINT('Origin',(22.5,2.,-19.));
#907=CARTESIAN_POINT('',(7.99999999999999,1.,-20.));
#908=CARTESIAN_POINT('',(7.99999999999999,3.,-18.));
#909=CARTESIAN_POINT('',(7.99999999999999,1.,-20.));
#910=CARTESIAN_POINT('',(22.5,3.,-18.));
#911=CARTESIAN_POINT('',(22.5,1.,-20.));
#912=CARTESIAN_POINT('Origin',(8.,2.,-12.));
#913=CARTESIAN_POINT('',(-4.44089209850063E-15,1.,-12.));
#914=CARTESIAN_POINT('Origin',(8.,1.,-12.));
#915=CARTESIAN_POINT('',(2.,3.,-12.));
#916=CARTESIAN_POINT('',(-4.44089209850063E-15,1.,-12.));
#917=CARTESIAN_POINT('Origin',(8.,3.,-12.));
#918=CARTESIAN_POINT('Origin',(0.999999999999995,2.,-15.));
#919=CARTESIAN_POINT('',(2.,3.,-8.01002512578677));
#920=CARTESIAN_POINT('',(2.,3.,-11.9899748742132));
#921=CARTESIAN_POINT('Ctrl Pts',(2.,3.,-8.01002512578677));
#922=CARTESIAN_POINT('Ctrl Pts',(1.4,2.4,-10.));
#923=CARTESIAN_POINT('Ctrl Pts',(1.99999999999999,3.,-11.9899748742132));
#924=CARTESIAN_POINT('',(2.,3.,-15.));
#925=CARTESIAN_POINT('',(-3.33066907387547E-15,1.,-8.));
#926=CARTESIAN_POINT('',(-4.44089209850063E-15,1.,-15.));
#927=CARTESIAN_POINT('',(2.,3.,-8.));
#928=CARTESIAN_POINT('',(-3.33066907387547E-15,1.,-8.));
#929=CARTESIAN_POINT('',(2.,3.,-15.));
#930=CARTESIAN_POINT('Origin',(8.,2.,-8.));
#931=CARTESIAN_POINT('Origin',(8.,1.,-8.));
#932=CARTESIAN_POINT('Origin',(8.,3.,-8.));
#933=CARTESIAN_POINT('Origin',(22.,0.,-12.));
#934=CARTESIAN_POINT('',(30.,0.,-12.));
#935=CARTESIAN_POINT('',(30.,0.,-12.));
#936=CARTESIAN_POINT('',(22.,0.,-20.));
#937=CARTESIAN_POINT('Origin',(22.,0.,-12.));
#938=CARTESIAN_POINT('',(22.,0.,-20.));
#939=CARTESIAN_POINT('Origin',(30.,0.,-7.34788079488412E-15));
#940=CARTESIAN_POINT('',(30.,0.,-8.00000000000001));
#941=CARTESIAN_POINT('',(30.,0.,-8.00000000000001));
#942=CARTESIAN_POINT('',(30.,0.,-8.88178419700125E-15));
#943=CARTESIAN_POINT('Origin',(22.,0.,-8.00000000000001));
#944=CARTESIAN_POINT('',(22.,0.,-5.38844591624835E-15));
#945=CARTESIAN_POINT('',(22.,0.,-5.55111512312578E-15));
#946=CARTESIAN_POINT('Origin',(22.,0.,-8.00000000000001));
#947=CARTESIAN_POINT('Origin',(0.,0.,0.));
#948=CARTESIAN_POINT('',(8.,0.,-1.95943487863577E-15));
#949=CARTESIAN_POINT('',(8.,0.,-2.22044604925031E-15));
#950=CARTESIAN_POINT('',(0.,0.,0.));
#951=CARTESIAN_POINT('Origin',(15.,3.,-10.));
#952=CARTESIAN_POINT('',(4.99999999999999,3.,-13.6));
#953=CARTESIAN_POINT('Origin',(5.,3.,-10.));
#954=CARTESIAN_POINT('',(10.,3.,-13.6));
#955=CARTESIAN_POINT('',(10.,3.,-13.6));
#956=CARTESIAN_POINT('',(10.,3.,-6.40000000000001));
#957=CARTESIAN_POINT('Origin',(10.,3.,-10.));
#958=CARTESIAN_POINT('',(5.,3.,-6.40000000000001));
#959=CARTESIAN_POINT('',(12.5,3.,-6.40000000000001));
#960=CARTESIAN_POINT('Origin',(5.,3.,-10.));
#961=CARTESIAN_POINT('',(25.,3.,-6.4));
#962=CARTESIAN_POINT('Origin',(25.,3.,-10.));
#963=CARTESIAN_POINT('',(20.,3.,-6.40000000000001));
#964=CARTESIAN_POINT('',(20.,3.,-6.40000000000001));
#965=CARTESIAN_POINT('',(20.,3.,-13.6));
#966=CARTESIAN_POINT('Origin',(20.,3.,-10.));
#967=CARTESIAN_POINT('',(25.,3.,-13.6));
#968=CARTESIAN_POINT('',(17.5,3.,-13.6));
#969=CARTESIAN_POINT('Origin',(25.,3.,-10.));
#970=CARTESIAN_POINT('Origin',(5.,2.,-10.));
#971=CARTESIAN_POINT('',(5.,1.,-8.4));
#972=CARTESIAN_POINT('',(5.,3.,-6.40000000000001));
#973=CARTESIAN_POINT('',(5.,1.,-11.6));
#974=CARTESIAN_POINT('Origin',(5.,1.,-10.));
#975=CARTESIAN_POINT('',(5.,1.,-11.6));
#976=CARTESIAN_POINT('Origin',(25.,2.,-10.));
#977=CARTESIAN_POINT('',(25.,1.,-11.6));
#978=CARTESIAN_POINT('',(25.,3.,-13.6));
#979=CARTESIAN_POINT('',(25.,1.,-8.40000000000001));
#980=CARTESIAN_POINT('Origin',(25.,1.,-10.));
#981=CARTESIAN_POINT('',(25.,1.,-8.40000000000001));
#982=CARTESIAN_POINT('Origin',(20.,2.,-7.40000000000001));
#983=CARTESIAN_POINT('',(20.,1.,-8.40000000000001));
#984=CARTESIAN_POINT('',(20.,1.,-8.40000000000001));
#985=CARTESIAN_POINT('',(20.,1.,-8.40000000000001));
#986=CARTESIAN_POINT('Origin',(20.,2.,-10.));
#987=CARTESIAN_POINT('',(20.,1.,-11.6));
#988=CARTESIAN_POINT('',(20.,1.,-11.6));
#989=CARTESIAN_POINT('Origin',(20.,1.,-10.));
#990=CARTESIAN_POINT('Origin',(17.5,2.,-12.6));
#991=CARTESIAN_POINT('',(17.5,1.,-11.6));
#992=CARTESIAN_POINT('Origin',(25.,3.,-8.40000000000001));
#993=CARTESIAN_POINT('',(25.,0.,-8.40000000000001));
#994=CARTESIAN_POINT('',(25.,3.,-8.40000000000001));
#995=CARTESIAN_POINT('',(20.,0.,-8.40000000000001));
#996=CARTESIAN_POINT('',(20.,0.,-8.40000000000001));
#997=CARTESIAN_POINT('',(20.,3.,-8.40000000000001));
#998=CARTESIAN_POINT('Origin',(25.,3.,-10.));
#999=CARTESIAN_POINT('',(25.,0.,-11.6));
#1000=CARTESIAN_POINT('',(25.,3.,-11.6));
#1001=CARTESIAN_POINT('Origin',(25.,0.,-10.));
#1002=CARTESIAN_POINT('Origin',(10.,2.,-12.6));
#1003=CARTESIAN_POINT('',(10.,1.,-11.6));
#1004=CARTESIAN_POINT('',(10.,1.,-11.6));
#1005=CARTESIAN_POINT('',(10.,1.,-11.6));
#1006=CARTESIAN_POINT('Origin',(10.,2.,-10.));
#1007=CARTESIAN_POINT('',(10.,1.,-8.40000000000001));
#1008=CARTESIAN_POINT('',(10.,1.,-8.40000000000001));
#1009=CARTESIAN_POINT('Origin',(10.,1.,-10.));
#1010=CARTESIAN_POINT('Origin',(12.5,2.,-7.40000000000001));
#1011=CARTESIAN_POINT('',(12.5,1.,-8.40000000000001));
#1012=CARTESIAN_POINT('Origin',(5.,3.,-11.6));
#1013=CARTESIAN_POINT('',(5.,0.,-11.6));
#1014=CARTESIAN_POINT('',(5.,3.,-11.6));
#1015=CARTESIAN_POINT('',(10.,0.,-11.6));
#1016=CARTESIAN_POINT('',(10.,0.,-11.6));
#1017=CARTESIAN_POINT('',(10.,3.,-11.6));
#1018=CARTESIAN_POINT('Origin',(5.,3.,-10.));
#1019=CARTESIAN_POINT('',(5.,0.,-8.4));
#1020=CARTESIAN_POINT('',(5.,3.,-8.4));
#1021=CARTESIAN_POINT('Origin',(5.,0.,-10.));
#1022=CARTESIAN_POINT('Origin',(30.,0.,-20.));
#1023=CARTESIAN_POINT('',(7.99999999999999,0.,-20.));
#1024=CARTESIAN_POINT('',(30.,0.,-20.));
#1025=CARTESIAN_POINT('',(7.99999999999999,0.,-20.));
#1026=CARTESIAN_POINT('Origin',(8.,0.,-12.));
#1027=CARTESIAN_POINT('',(-3.67394039744206E-15,0.,-12.));
#1028=CARTESIAN_POINT('Origin',(8.,0.,-12.));
#1029=CARTESIAN_POINT('',(-4.44089209850063E-15,0.,-12.));
#1030=CARTESIAN_POINT('Origin',(8.,0.,-8.));
#1031=CARTESIAN_POINT('',(-2.44929359829471E-15,0.,-8.));
#1032=CARTESIAN_POINT('',(-3.33066907387547E-15,0.,-8.));
#1033=CARTESIAN_POINT('Origin',(8.,0.,-8.));
#1034=CARTESIAN_POINT('Origin',(20.,3.,-11.6));
#1035=CARTESIAN_POINT('',(20.,0.,-11.6));
#1036=CARTESIAN_POINT('',(20.,3.,-11.6));
#1037=CARTESIAN_POINT('',(17.5,0.,-11.6));
#1038=CARTESIAN_POINT('Origin',(20.,3.,-10.));
#1039=CARTESIAN_POINT('Origin',(20.,0.,-10.));
#1040=CARTESIAN_POINT('Origin',(10.,3.,-8.40000000000001));
#1041=CARTESIAN_POINT('',(10.,0.,-8.40000000000001));
#1042=CARTESIAN_POINT('',(10.,3.,-8.40000000000001));
#1043=CARTESIAN_POINT('',(12.5,0.,-8.40000000000001));
#1044=CARTESIAN_POINT('Origin',(10.,3.,-10.));
#1045=CARTESIAN_POINT('Origin',(10.,0.,-10.));
#1046=CARTESIAN_POINT('Origin',(-6.12323399573677E-15,0.,-20.));
#1047=CARTESIAN_POINT('',(-6.12323399573677E-15,0.,-20.));
#1048=CARTESIAN_POINT('Origin',(15.,0.,-10.));
#1049=UNCERTAINTY_MEASURE_WITH_UNIT(LENGTH_MEASURE(0.01),#1053,
'DISTANCE_ACCURACY_VALUE',
'Maximum model space distance between geometric entities at asserted c
onnectivities');
#1050=UNCERTAINTY_MEASURE_WITH_UNIT(LENGTH_MEASURE(0.01),#1053,
'DISTANCE_ACCURACY_VALUE',
'Maximum model space distance between geometric entities at asserted c
onnectivities');
#1051=(
GEOMETRIC_REPRESENTATION_CONTEXT(3)
GLOBAL_UNCERTAINTY_ASSIGNED_CONTEXT((#1049))
GLOBAL_UNIT_ASSIGNED_CONTEXT((#1053,#1055,#1056))
REPRESENTATION_CONTEXT('','3D')
);
#1052=(
GEOMETRIC_REPRESENTATION_CONTEXT(3)
GLOBAL_UNCERTAINTY_ASSIGNED_CONTEXT((#1050))
GLOBAL_UNIT_ASSIGNED_CONTEXT((#1053,#1055,#1056))
REPRESENTATION_CONTEXT('','3D')
);
#1053=(
LENGTH_UNIT()
NAMED_UNIT(*)
SI_UNIT(.MILLI.,.METRE.)
);
#1054=(
LENGTH_UNIT()
NAMED_UNIT(*)
SI_UNIT(.CENTI.,.METRE.)
);
#1055=(
NAMED_UNIT(*)
PLANE_ANGLE_UNIT()
SI_UNIT($,.RADIAN.)
);
#1056=(
NAMED_UNIT(*)
SI_UNIT($,.STERADIAN.)
SOLID_ANGLE_UNIT()
);
#1057=SHAPE_DEFINITION_REPRESENTATION(#1058,#1059);
#1058=PRODUCT_DEFINITION_SHAPE('',$,#1061);
#1059=SHAPE_REPRESENTATION('',(#631),#1051);
#1060=PRODUCT_DEFINITION_CONTEXT('part definition',#1065,'design');
#1061=PRODUCT_DEFINITION('synth-straight-bracket',
'synth-straight-bracket',#1062,#1060);
#1062=PRODUCT_DEFINITION_FORMATION('',$,#1067);
#1063=PRODUCT_RELATED_PRODUCT_CATEGORY('synth-straight-bracket',
'synth-straight-bracket',(#1067));
#1064=APPLICATION_PROTOCOL_DEFINITION('international standard',
'automotive_design',2009,#1065);
#1065=APPLICATION_CONTEXT(
'Core Data for Automotive Mechanical Design Process');
#1066=PRODUCT_CONTEXT('part definition',#1065,'mechanical');
#1067=PRODUCT('synth-straight-bracket','synth-straight-bracket',$,(#1066));
#1068=PRESENTATION_STYLE_ASSIGNMENT((#1069));
#1069=SURFACE_STYLE_USAGE(.BOTH.,#1072);
#1070=SURFACE_STYLE_RENDERING_WITH_PROPERTIES($,#1076,(#1071));
#1071=SURFACE_STYLE_TRANSPARENT(0.);
#1072=SURFACE_SIDE_STYLE('',(#1073,#1070));
#1073=SURFACE_STYLE_FILL_AREA(#1074);
#1074=FILL_AREA_STYLE('',(#1075));
#1075=FILL_AREA_STYLE_COLOUR('',#1076);
#1076=COLOUR_RGB('',0.749019607843137,0.749019607843137,0.749019607843137);
ENDSEC;
END-ISO-10303-21;
