ISO-10303-21;
HEADER;
/* Generated by software containing ST-Developer
 * from STEP Tools, Inc. (www.steptools.com) 
 */

FILE_DESCRIPTION(
/* description */ (''),
/* implementation_level */ '2;1');

FILE_NAME(
/* name */ '01-sink-caddy-leggie-boys.stp',
/* time_stamp */ '2025-07-03T21:24:30+01:00',
/* author */ ('iwheard'),
/* organization */ (''),
/* preprocessor_version */ 'ST-DEVELOPER v20',
/* originating_system */ 'Autodesk Inventor 2024',
/* authorisation */ '');

FILE_SCHEMA (('AUTOMOTIVE_DESIGN { 1 0 10303 214 3 1 1 }'));
ENDSEC;

DATA;
#10=MECHANICAL_DESIGN_GEOMETRIC_PRESENTATION_REPRESENTATION('',(#13,#14),
#1887);
#11=SHAPE_REPRESENTATION_RELATIONSHIP('SRR','None',#1894,#12);
#12=ADVANCED_BREP_SHAPE_REPRESENTATION('',(#15,#16),#1886);
#13=STYLED_ITEM('',(#1903),#15);
#14=STYLED_ITEM('',(#1903),#16);
#15=MANIFOLD_SOLID_BREP('leggie-boys',#1025);
#16=MANIFOLD_SOLID_BREP('leggie-boys',#1026);
#17=B_SPLINE_SURFACE_WITH_KNOTS('',3,3,((#1443,#1444,#1445,#1446),(#1447,
#1448,#1449,#1450),(#1451,#1452,#1453,#1454),(#1455,#1456,#1457,#1458),
(#1459,#1460,#1461,#1462)),.UNSPECIFIED.,.F.,.F.,.F.,(4,1,4),(4,4),(-0.784789175811832,
-0.112112739401687,0.784789175811839),(0.,1.45),.UNSPECIFIED.);
#18=B_SPLINE_SURFACE_WITH_KNOTS('',3,3,((#1485,#1486,#1487,#1488),(#1489,
#1490,#1491,#1492),(#1493,#1494,#1495,#1496),(#1497,#1498,#1499,#1500),
(#1501,#1502,#1503,#1504)),.UNSPECIFIED.,.F.,.F.,.F.,(4,1,4),(4,4),(-0.784789175811839,
-0.112112739401694,0.784789175811832),(0.,1.45),.UNSPECIFIED.);
#19=B_SPLINE_SURFACE_WITH_KNOTS('',3,3,((#1527,#1528,#1529,#1530),(#1531,
#1532,#1533,#1534),(#1535,#1536,#1537,#1538),(#1539,#1540,#1541,#1542),
(#1543,#1544,#1545,#1546)),.UNSPECIFIED.,.F.,.F.,.F.,(4,1,4),(4,4),(-0.784789175811832,
-0.112112739401687,0.784789175811841),(0.,1.45),.UNSPECIFIED.);
#20=B_SPLINE_SURFACE_WITH_KNOTS('',3,3,((#1569,#1570,#1571,#1572),(#1573,
#1574,#1575,#1576),(#1577,#1578,#1579,#1580),(#1581,#1582,#1583,#1584),
(#1585,#1586,#1587,#1588)),.UNSPECIFIED.,.F.,.F.,.F.,(4,1,4),(4,4),(-0.784789175811832,
-0.11211273940169,0.784789175811832),(0.,1.45),.UNSPECIFIED.);
#21=B_SPLINE_SURFACE_WITH_KNOTS('',3,3,((#1711,#1712,#1713,#1714),(#1715,
#1716,#1717,#1718),(#1719,#1720,#1721,#1722),(#1723,#1724,#1725,#1726),
(#1727,#1728,#1729,#1730)),.UNSPECIFIED.,.F.,.F.,.F.,(4,1,4),(4,4),(-0.784789175811832,
0.112112739401696,0.784789175811841),(0.,1.45),.UNSPECIFIED.);
#22=B_SPLINE_SURFACE_WITH_KNOTS('',3,3,((#1753,#1754,#1755,#1756),(#1757,
#1758,#1759,#1760),(#1761,#1762,#1763,#1764),(#1765,#1766,#1767,#1768),
(#1769,#1770,#1771,#1772)),.UNSPECIFIED.,.F.,.F.,.F.,(4,1,4),(4,4),(-0.78478917581183,
-0.112112739401685,0.784789175811841),(0.,1.45),.UNSPECIFIED.);
#23=B_SPLINE_SURFACE_WITH_KNOTS('',3,3,((#1795,#1796,#1797,#1798),(#1799,
#1800,#1801,#1802),(#1803,#1804,#1805,#1806),(#1807,#1808,#1809,#1810),
(#1811,#1812,#1813,#1814)),.UNSPECIFIED.,.F.,.F.,.F.,(4,1,4),(4,4),(-0.784789175811832,
-0.112112739401692,0.78478917581183),(0.,1.45),.UNSPECIFIED.);
#24=B_SPLINE_SURFACE_WITH_KNOTS('',3,3,((#1837,#1838,#1839,#1840),(#1841,
#1842,#1843,#1844),(#1845,#1846,#1847,#1848),(#1849,#1850,#1851,#1852),
(#1853,#1854,#1855,#1856)),.UNSPECIFIED.,.F.,.F.,.F.,(4,1,4),(4,4),(-0.784789175811828,
0.1121127394017,0.784789175811846),(0.,1.45),.UNSPECIFIED.);
#25=B_SPLINE_CURVE_WITH_KNOTS('',3,(#1436,#1437,#1438,#1439),
 .UNSPECIFIED.,.F.,.F.,(4,4),(0.,1.45),.UNSPECIFIED.);
#26=B_SPLINE_CURVE_WITH_KNOTS('',3,(#1464,#1465,#1466,#1467,#1468),
 .UNSPECIFIED.,.F.,.F.,(4,1,4),(-0.784789175811839,0.112112739401687,0.784789175811832),
 .UNSPECIFIED.);
#27=B_SPLINE_CURVE_WITH_KNOTS('',3,(#1471,#1472,#1473,#1474,#1475),
 .UNSPECIFIED.,.F.,.F.,(4,1,4),(-0.784789175811839,0.112112739401687,0.784789175811832),
 .UNSPECIFIED.);
#28=B_SPLINE_CURVE_WITH_KNOTS('',3,(#1480,#1481,#1482,#1483),
 .UNSPECIFIED.,.F.,.F.,(4,4),(0.,1.45),.UNSPECIFIED.);
#29=B_SPLINE_CURVE_WITH_KNOTS('',3,(#1506,#1507,#1508,#1509,#1510),
 .UNSPECIFIED.,.F.,.F.,(4,1,4),(-0.784789175811832,0.112112739401694,0.784789175811839),
 .UNSPECIFIED.);
#30=B_SPLINE_CURVE_WITH_KNOTS('',3,(#1513,#1514,#1515,#1516,#1517),
 .UNSPECIFIED.,.F.,.F.,(4,1,4),(-0.784789175811832,0.112112739401694,0.784789175811839),
 .UNSPECIFIED.);
#31=B_SPLINE_CURVE_WITH_KNOTS('',3,(#1522,#1523,#1524,#1525),
 .UNSPECIFIED.,.F.,.F.,(4,4),(0.,1.45),.UNSPECIFIED.);
#32=B_SPLINE_CURVE_WITH_KNOTS('',3,(#1548,#1549,#1550,#1551,#1552),
 .UNSPECIFIED.,.F.,.F.,(4,1,4),(-0.784789175811841,0.112112739401687,0.784789175811832),
 .UNSPECIFIED.);
#33=B_SPLINE_CURVE_WITH_KNOTS('',3,(#1555,#1556,#1557,#1558,#1559),
 .UNSPECIFIED.,.F.,.F.,(4,1,4),(-0.784789175811841,0.112112739401687,0.784789175811832),
 .UNSPECIFIED.);
#34=B_SPLINE_CURVE_WITH_KNOTS('',3,(#1564,#1565,#1566,#1567),
 .UNSPECIFIED.,.F.,.F.,(4,4),(0.,1.45),.UNSPECIFIED.);
#35=B_SPLINE_CURVE_WITH_KNOTS('',3,(#1589,#1590,#1591,#1592,#1593),
 .UNSPECIFIED.,.F.,.F.,(4,1,4),(-0.784789175811832,0.11211273940169,0.784789175811832),
 .UNSPECIFIED.);
#36=B_SPLINE_CURVE_WITH_KNOTS('',3,(#1594,#1595,#1596,#1597,#1598),
 .UNSPECIFIED.,.F.,.F.,(4,1,4),(-0.784789175811832,0.11211273940169,0.784789175811832),
 .UNSPECIFIED.);
#37=B_SPLINE_CURVE_WITH_KNOTS('',3,(#1704,#1705,#1706,#1707),
 .UNSPECIFIED.,.F.,.F.,(4,4),(0.,1.45),.UNSPECIFIED.);
#38=B_SPLINE_CURVE_WITH_KNOTS('',3,(#1732,#1733,#1734,#1735,#1736),
 .UNSPECIFIED.,.F.,.F.,(4,1,4),(-0.784789175811841,-0.112112739401696,0.784789175811832),
 .UNSPECIFIED.);
#39=B_SPLINE_CURVE_WITH_KNOTS('',3,(#1739,#1740,#1741,#1742,#1743),
 .UNSPECIFIED.,.F.,.F.,(4,1,4),(-0.784789175811841,-0.112112739401696,0.784789175811832),
 .UNSPECIFIED.);
#40=B_SPLINE_CURVE_WITH_KNOTS('',3,(#1748,#1749,#1750,#1751),
 .UNSPECIFIED.,.F.,.F.,(4,4),(0.,1.45),.UNSPECIFIED.);
#41=B_SPLINE_CURVE_WITH_KNOTS('',3,(#1774,#1775,#1776,#1777,#1778),
 .UNSPECIFIED.,.F.,.F.,(4,1,4),(-0.784789175811841,0.112112739401685,0.78478917581183),
 .UNSPECIFIED.);
#42=B_SPLINE_CURVE_WITH_KNOTS('',3,(#1781,#1782,#1783,#1784,#1785),
 .UNSPECIFIED.,.F.,.F.,(4,1,4),(-0.784789175811841,0.112112739401685,0.78478917581183),
 .UNSPECIFIED.);
#43=B_SPLINE_CURVE_WITH_KNOTS('',3,(#1790,#1791,#1792,#1793),
 .UNSPECIFIED.,.F.,.F.,(4,4),(0.,1.45),.UNSPECIFIED.);
#44=B_SPLINE_CURVE_WITH_KNOTS('',3,(#1816,#1817,#1818,#1819,#1820),
 .UNSPECIFIED.,.F.,.F.,(4,1,4),(-0.78478917581183,0.112112739401692,0.784789175811832),
 .UNSPECIFIED.);
#45=B_SPLINE_CURVE_WITH_KNOTS('',3,(#1823,#1824,#1825,#1826,#1827),
 .UNSPECIFIED.,.F.,.F.,(4,1,4),(-0.78478917581183,0.112112739401692,0.784789175811832),
 .UNSPECIFIED.);
#46=B_SPLINE_CURVE_WITH_KNOTS('',3,(#1832,#1833,#1834,#1835),
 .UNSPECIFIED.,.F.,.F.,(4,4),(0.,1.45),.UNSPECIFIED.);
#47=B_SPLINE_CURVE_WITH_KNOTS('',3,(#1857,#1858,#1859,#1860,#1861),
 .UNSPECIFIED.,.F.,.F.,(4,1,4),(-0.784789175811846,-0.1121127394017,0.784789175811828),
 .UNSPECIFIED.);
#48=B_SPLINE_CURVE_WITH_KNOTS('',3,(#1862,#1863,#1864,#1865,#1866),
 .UNSPECIFIED.,.F.,.F.,(4,1,4),(-0.784789175811846,-0.1121127394017,0.784789175811828),
 .UNSPECIFIED.);
#49=FACE_BOUND('',#142,.T.);
#50=FACE_BOUND('',#158,.T.);
#51=FACE_BOUND('',#172,.T.);
#52=FACE_BOUND('',#188,.T.);
#53=ELLIPSE('',#1062,2.00000609235149,2.);
#54=ELLIPSE('',#1063,2.00000609235149,2.);
#55=ELLIPSE('',#1065,2.00000609235149,2.);
#56=ELLIPSE('',#1075,2.00000609235149,2.);
#57=ELLIPSE('',#1094,2.00000609235149,2.);
#58=ELLIPSE('',#1095,2.00000609235149,2.);
#59=ELLIPSE('',#1097,2.00000609235149,2.);
#60=ELLIPSE('',#1107,2.00000609235149,2.);
#61=CIRCLE('',#1051,1.39999569206698);
#62=CIRCLE('',#1052,1.39999569206698);
#63=CIRCLE('',#1059,1.39999569206653);
#64=CIRCLE('',#1060,1.39999569206653);
#65=CIRCLE('',#1085,1.39999569206694);
#66=CIRCLE('',#1086,1.39999569206694);
#67=CIRCLE('',#1089,1.39999569206702);
#68=CIRCLE('',#1090,1.39999569206702);
#69=CYLINDRICAL_SURFACE('',#1050,1.39999569206698);
#70=CYLINDRICAL_SURFACE('',#1058,1.39999569206653);
#71=CYLINDRICAL_SURFACE('',#1064,2.);
#72=CYLINDRICAL_SURFACE('',#1074,2.);
#73=CYLINDRICAL_SURFACE('',#1084,1.39999569206694);
#74=CYLINDRICAL_SURFACE('',#1088,1.39999569206702);
#75=CYLINDRICAL_SURFACE('',#1096,2.);
#76=CYLINDRICAL_SURFACE('',#1106,2.);
#77=FACE_OUTER_BOUND('',#133,.T.);
#78=FACE_OUTER_BOUND('',#134,.T.);
#79=FACE_OUTER_BOUND('',#135,.T.);
#80=FACE_OUTER_BOUND('',#136,.T.);
#81=FACE_OUTER_BOUND('',#137,.T.);
#82=FACE_OUTER_BOUND('',#138,.T.);
#83=FACE_OUTER_BOUND('',#139,.T.);
#84=FACE_OUTER_BOUND('',#140,.T.);
#85=FACE_OUTER_BOUND('',#141,.T.);
#86=FACE_OUTER_BOUND('',#143,.T.);
#87=FACE_OUTER_BOUND('',#144,.T.);
#88=FACE_OUTER_BOUND('',#145,.T.);
#89=FACE_OUTER_BOUND('',#146,.T.);
#90=FACE_OUTER_BOUND('',#147,.T.);
#91=FACE_OUTER_BOUND('',#148,.T.);
#92=FACE_OUTER_BOUND('',#149,.T.);
#93=FACE_OUTER_BOUND('',#150,.T.);
#94=FACE_OUTER_BOUND('',#151,.T.);
#95=FACE_OUTER_BOUND('',#152,.T.);
#96=FACE_OUTER_BOUND('',#153,.T.);
#97=FACE_OUTER_BOUND('',#154,.T.);
#98=FACE_OUTER_BOUND('',#155,.T.);
#99=FACE_OUTER_BOUND('',#156,.T.);
#100=FACE_OUTER_BOUND('',#157,.T.);
#101=FACE_OUTER_BOUND('',#159,.T.);
#102=FACE_OUTER_BOUND('',#160,.T.);
#103=FACE_OUTER_BOUND('',#161,.T.);
#104=FACE_OUTER_BOUND('',#162,.T.);
#105=FACE_OUTER_BOUND('',#163,.T.);
#106=FACE_OUTER_BOUND('',#164,.T.);
#107=FACE_OUTER_BOUND('',#165,.T.);
#108=FACE_OUTER_BOUND('',#166,.T.);
#109=FACE_OUTER_BOUND('',#167,.T.);
#110=FACE_OUTER_BOUND('',#168,.T.);
#111=FACE_OUTER_BOUND('',#169,.T.);
#112=FACE_OUTER_BOUND('',#170,.T.);
#113=FACE_OUTER_BOUND('',#171,.T.);
#114=FACE_OUTER_BOUND('',#173,.T.);
#115=FACE_OUTER_BOUND('',#174,.T.);
#116=FACE_OUTER_BOUND('',#175,.T.);
#117=FACE_OUTER_BOUND('',#176,.T.);
#118=FACE_OUTER_BOUND('',#177,.T.);
#119=FACE_OUTER_BOUND('',#178,.T.);
#120=FACE_OUTER_BOUND('',#179,.T.);
#121=FACE_OUTER_BOUND('',#180,.T.);
#122=FACE_OUTER_BOUND('',#181,.T.);
#123=FACE_OUTER_BOUND('',#182,.T.);
#124=FACE_OUTER_BOUND('',#183,.T.);
#125=FACE_OUTER_BOUND('',#184,.T.);
#126=FACE_OUTER_BOUND('',#185,.T.);
#127=FACE_OUTER_BOUND('',#186,.T.);
#128=FACE_OUTER_BOUND('',#187,.T.);
#129=FACE_OUTER_BOUND('',#189,.T.);
#130=FACE_OUTER_BOUND('',#190,.T.);
#131=FACE_OUTER_BOUND('',#191,.T.);
#132=FACE_OUTER_BOUND('',#192,.T.);
#133=EDGE_LOOP('',(#641,#642,#643,#644));
#134=EDGE_LOOP('',(#645,#646,#647,#648));
#135=EDGE_LOOP('',(#649,#650,#651,#652));
#136=EDGE_LOOP('',(#653,#654,#655,#656));
#137=EDGE_LOOP('',(#657,#658,#659,#660));
#138=EDGE_LOOP('',(#661,#662,#663,#664));
#139=EDGE_LOOP('',(#665,#666,#667,#668));
#140=EDGE_LOOP('',(#669,#670,#671,#672));
#141=EDGE_LOOP('',(#673,#674,#675,#676,#677,#678,#679,#680));
#142=EDGE_LOOP('',(#681,#682,#683,#684,#685,#686,#687,#688));
#143=EDGE_LOOP('',(#689,#690,#691,#692));
#144=EDGE_LOOP('',(#693,#694,#695,#696));
#145=EDGE_LOOP('',(#697,#698,#699,#700));
#146=EDGE_LOOP('',(#701,#702,#703,#704));
#147=EDGE_LOOP('',(#705,#706,#707,#708));
#148=EDGE_LOOP('',(#709,#710,#711,#712));
#149=EDGE_LOOP('',(#713,#714,#715,#716));
#150=EDGE_LOOP('',(#717,#718,#719,#720));
#151=EDGE_LOOP('',(#721,#722,#723,#724));
#152=EDGE_LOOP('',(#725,#726,#727,#728));
#153=EDGE_LOOP('',(#729,#730,#731,#732));
#154=EDGE_LOOP('',(#733,#734,#735,#736));
#155=EDGE_LOOP('',(#737,#738,#739,#740,#741,#742,#743,#744));
#156=EDGE_LOOP('',(#745,#746,#747,#748));
#157=EDGE_LOOP('',(#749,#750,#751,#752,#753,#754,#755,#756));
#158=EDGE_LOOP('',(#757,#758,#759,#760,#761,#762,#763,#764));
#159=EDGE_LOOP('',(#765,#766,#767,#768));
#160=EDGE_LOOP('',(#769,#770,#771,#772));
#161=EDGE_LOOP('',(#773,#774,#775,#776));
#162=EDGE_LOOP('',(#777,#778,#779,#780,#781,#782,#783,#784));
#163=EDGE_LOOP('',(#785,#786,#787,#788));
#164=EDGE_LOOP('',(#789,#790,#791,#792));
#165=EDGE_LOOP('',(#793,#794,#795,#796));
#166=EDGE_LOOP('',(#797,#798,#799,#800));
#167=EDGE_LOOP('',(#801,#802,#803,#804));
#168=EDGE_LOOP('',(#805,#806,#807,#808));
#169=EDGE_LOOP('',(#809,#810,#811,#812));
#170=EDGE_LOOP('',(#813,#814,#815,#816));
#171=EDGE_LOOP('',(#817,#818,#819,#820,#821,#822,#823,#824));
#172=EDGE_LOOP('',(#825,#826,#827,#828,#829,#830,#831,#832));
#173=EDGE_LOOP('',(#833,#834,#835,#836));
#174=EDGE_LOOP('',(#837,#838,#839,#840));
#175=EDGE_LOOP('',(#841,#842,#843,#844));
#176=EDGE_LOOP('',(#845,#846,#847,#848));
#177=EDGE_LOOP('',(#849,#850,#851,#852));
#178=EDGE_LOOP('',(#853,#854,#855,#856));
#179=EDGE_LOOP('',(#857,#858,#859,#860));
#180=EDGE_LOOP('',(#861,#862,#863,#864));
#181=EDGE_LOOP('',(#865,#866,#867,#868));
#182=EDGE_LOOP('',(#869,#870,#871,#872));
#183=EDGE_LOOP('',(#873,#874,#875,#876));
#184=EDGE_LOOP('',(#877,#878,#879,#880));
#185=EDGE_LOOP('',(#881,#882,#883,#884,#885,#886,#887,#888));
#186=EDGE_LOOP('',(#889,#890,#891,#892));
#187=EDGE_LOOP('',(#893,#894,#895,#896,#897,#898,#899,#900));
#188=EDGE_LOOP('',(#901,#902,#903,#904,#905,#906,#907,#908));
#189=EDGE_LOOP('',(#909,#910,#911,#912));
#190=EDGE_LOOP('',(#913,#914,#915,#916));
#191=EDGE_LOOP('',(#917,#918,#919,#920));
#192=EDGE_LOOP('',(#921,#922,#923,#924,#925,#926,#927,#928));
#193=LINE('',#1351,#297);
#194=LINE('',#1353,#298);
#195=LINE('',#1355,#299);
#196=LINE('',#1356,#300);
#197=LINE('',#1361,#301);
#198=LINE('',#1365,#302);
#199=LINE('',#1367,#303);
#200=LINE('',#1368,#304);
#201=LINE('',#1371,#305);
#202=LINE('',#1373,#306);
#203=LINE('',#1374,#307);
#204=LINE('',#1377,#308);
#205=LINE('',#1379,#309);
#206=LINE('',#1380,#310);
#207=LINE('',#1383,#311);
#208=LINE('',#1385,#312);
#209=LINE('',#1386,#313);
#210=LINE('',#1389,#314);
#211=LINE('',#1391,#315);
#212=LINE('',#1392,#316);
#213=LINE('',#1399,#317);
#214=LINE('',#1401,#318);
#215=LINE('',#1403,#319);
#216=LINE('',#1405,#320);
#217=LINE('',#1409,#321);
#218=LINE('',#1412,#322);
#219=LINE('',#1415,#323);
#220=LINE('',#1418,#324);
#221=LINE('',#1421,#325);
#222=LINE('',#1422,#326);
#223=LINE('',#1425,#327);
#224=LINE('',#1426,#328);
#225=LINE('',#1429,#329);
#226=LINE('',#1430,#330);
#227=LINE('',#1434,#331);
#228=LINE('',#1441,#332);
#229=LINE('',#1442,#333);
#230=LINE('',#1470,#334);
#231=LINE('',#1478,#335);
#232=LINE('',#1484,#336);
#233=LINE('',#1512,#337);
#234=LINE('',#1520,#338);
#235=LINE('',#1526,#339);
#236=LINE('',#1554,#340);
#237=LINE('',#1562,#341);
#238=LINE('',#1568,#342);
#239=LINE('',#1602,#343);
#240=LINE('',#1605,#344);
#241=LINE('',#1607,#345);
#242=LINE('',#1609,#346);
#243=LINE('',#1610,#347);
#244=LINE('',#1613,#348);
#245=LINE('',#1619,#349);
#246=LINE('',#1621,#350);
#247=LINE('',#1623,#351);
#248=LINE('',#1624,#352);
#249=LINE('',#1627,#353);
#250=LINE('',#1629,#354);
#251=LINE('',#1630,#355);
#252=LINE('',#1633,#356);
#253=LINE('',#1635,#357);
#254=LINE('',#1636,#358);
#255=LINE('',#1641,#359);
#256=LINE('',#1645,#360);
#257=LINE('',#1647,#361);
#258=LINE('',#1648,#362);
#259=LINE('',#1653,#363);
#260=LINE('',#1657,#364);
#261=LINE('',#1659,#365);
#262=LINE('',#1660,#366);
#263=LINE('',#1662,#367);
#264=LINE('',#1663,#368);
#265=LINE('',#1667,#369);
#266=LINE('',#1669,#370);
#267=LINE('',#1671,#371);
#268=LINE('',#1673,#372);
#269=LINE('',#1677,#373);
#270=LINE('',#1680,#374);
#271=LINE('',#1683,#375);
#272=LINE('',#1686,#376);
#273=LINE('',#1689,#377);
#274=LINE('',#1690,#378);
#275=LINE('',#1693,#379);
#276=LINE('',#1694,#380);
#277=LINE('',#1697,#381);
#278=LINE('',#1698,#382);
#279=LINE('',#1702,#383);
#280=LINE('',#1709,#384);
#281=LINE('',#1710,#385);
#282=LINE('',#1738,#386);
#283=LINE('',#1746,#387);
#284=LINE('',#1752,#388);
#285=LINE('',#1780,#389);
#286=LINE('',#1788,#390);
#287=LINE('',#1794,#391);
#288=LINE('',#1822,#392);
#289=LINE('',#1830,#393);
#290=LINE('',#1836,#394);
#291=LINE('',#1870,#395);
#292=LINE('',#1873,#396);
#293=LINE('',#1875,#397);
#294=LINE('',#1877,#398);
#295=LINE('',#1878,#399);
#296=LINE('',#1881,#400);
#297=VECTOR('',#1117,10.);
#298=VECTOR('',#1118,10.);
#299=VECTOR('',#1119,10.);
#300=VECTOR('',#1120,10.);
#301=VECTOR('',#1125,10.);
#302=VECTOR('',#1130,10.);
#303=VECTOR('',#1131,10.);
#304=VECTOR('',#1132,10.);
#305=VECTOR('',#1135,10.);
#306=VECTOR('',#1136,10.);
#307=VECTOR('',#1137,10.);
#308=VECTOR('',#1140,10.);
#309=VECTOR('',#1141,10.);
#310=VECTOR('',#1142,10.);
#311=VECTOR('',#1145,10.);
#312=VECTOR('',#1146,10.);
#313=VECTOR('',#1147,10.);
#314=VECTOR('',#1150,10.);
#315=VECTOR('',#1151,10.);
#316=VECTOR('',#1152,10.);
#317=VECTOR('',#1161,10.);
#318=VECTOR('',#1162,10.);
#319=VECTOR('',#1163,10.);
#320=VECTOR('',#1164,10.);
#321=VECTOR('',#1167,10.);
#322=VECTOR('',#1170,10.);
#323=VECTOR('',#1173,10.);
#324=VECTOR('',#1176,10.);
#325=VECTOR('',#1179,10.);
#326=VECTOR('',#1180,10.);
#327=VECTOR('',#1183,10.);
#328=VECTOR('',#1184,10.);
#329=VECTOR('',#1187,10.);
#330=VECTOR('',#1188,10.);
#331=VECTOR('',#1191,10.);
#332=VECTOR('',#1192,10.);
#333=VECTOR('',#1193,10.);
#334=VECTOR('',#1194,10.);
#335=VECTOR('',#1197,10.);
#336=VECTOR('',#1198,10.);
#337=VECTOR('',#1199,10.);
#338=VECTOR('',#1202,10.);
#339=VECTOR('',#1203,10.);
#340=VECTOR('',#1204,10.);
#341=VECTOR('',#1207,10.);
#342=VECTOR('',#1208,10.);
#343=VECTOR('',#1213,10.);
#344=VECTOR('',#1216,10.);
#345=VECTOR('',#1219,10.);
#346=VECTOR('',#1220,10.);
#347=VECTOR('',#1221,10.);
#348=VECTOR('',#1226,10.);
#349=VECTOR('',#1233,10.);
#350=VECTOR('',#1234,10.);
#351=VECTOR('',#1235,10.);
#352=VECTOR('',#1236,10.);
#353=VECTOR('',#1239,10.);
#354=VECTOR('',#1240,10.);
#355=VECTOR('',#1241,10.);
#356=VECTOR('',#1244,10.);
#357=VECTOR('',#1245,10.);
#358=VECTOR('',#1246,10.);
#359=VECTOR('',#1251,10.);
#360=VECTOR('',#1256,10.);
#361=VECTOR('',#1257,10.);
#362=VECTOR('',#1258,10.);
#363=VECTOR('',#1263,10.);
#364=VECTOR('',#1268,10.);
#365=VECTOR('',#1269,10.);
#366=VECTOR('',#1270,10.);
#367=VECTOR('',#1273,10.);
#368=VECTOR('',#1274,10.);
#369=VECTOR('',#1277,10.);
#370=VECTOR('',#1278,10.);
#371=VECTOR('',#1279,10.);
#372=VECTOR('',#1280,10.);
#373=VECTOR('',#1283,10.);
#374=VECTOR('',#1286,10.);
#375=VECTOR('',#1289,10.);
#376=VECTOR('',#1292,10.);
#377=VECTOR('',#1295,10.);
#378=VECTOR('',#1296,10.);
#379=VECTOR('',#1299,10.);
#380=VECTOR('',#1300,10.);
#381=VECTOR('',#1303,10.);
#382=VECTOR('',#1304,10.);
#383=VECTOR('',#1307,10.);
#384=VECTOR('',#1308,10.);
#385=VECTOR('',#1309,10.);
#386=VECTOR('',#1310,10.);
#387=VECTOR('',#1313,10.);
#388=VECTOR('',#1314,10.);
#389=VECTOR('',#1315,10.);
#390=VECTOR('',#1318,10.);
#391=VECTOR('',#1319,10.);
#392=VECTOR('',#1320,10.);
#393=VECTOR('',#1323,10.);
#394=VECTOR('',#1324,10.);
#395=VECTOR('',#1329,10.);
#396=VECTOR('',#1332,10.);
#397=VECTOR('',#1335,10.);
#398=VECTOR('',#1336,10.);
#399=VECTOR('',#1337,10.);
#400=VECTOR('',#1342,10.);
#401=VERTEX_POINT('',#1349);
#402=VERTEX_POINT('',#1350);
#403=VERTEX_POINT('',#1352);
#404=VERTEX_POINT('',#1354);
#405=VERTEX_POINT('',#1358);
#406=VERTEX_POINT('',#1360);
#407=VERTEX_POINT('',#1364);
#408=VERTEX_POINT('',#1366);
#409=VERTEX_POINT('',#1370);
#410=VERTEX_POINT('',#1372);
#411=VERTEX_POINT('',#1376);
#412=VERTEX_POINT('',#1378);
#413=VERTEX_POINT('',#1382);
#414=VERTEX_POINT('',#1384);
#415=VERTEX_POINT('',#1388);
#416=VERTEX_POINT('',#1390);
#417=VERTEX_POINT('',#1397);
#418=VERTEX_POINT('',#1398);
#419=VERTEX_POINT('',#1400);
#420=VERTEX_POINT('',#1402);
#421=VERTEX_POINT('',#1404);
#422=VERTEX_POINT('',#1406);
#423=VERTEX_POINT('',#1408);
#424=VERTEX_POINT('',#1410);
#425=VERTEX_POINT('',#1414);
#426=VERTEX_POINT('',#1416);
#427=VERTEX_POINT('',#1420);
#428=VERTEX_POINT('',#1424);
#429=VERTEX_POINT('',#1428);
#430=VERTEX_POINT('',#1432);
#431=VERTEX_POINT('',#1433);
#432=VERTEX_POINT('',#1435);
#433=VERTEX_POINT('',#1440);
#434=VERTEX_POINT('',#1463);
#435=VERTEX_POINT('',#1469);
#436=VERTEX_POINT('',#1477);
#437=VERTEX_POINT('',#1479);
#438=VERTEX_POINT('',#1505);
#439=VERTEX_POINT('',#1511);
#440=VERTEX_POINT('',#1519);
#441=VERTEX_POINT('',#1521);
#442=VERTEX_POINT('',#1547);
#443=VERTEX_POINT('',#1553);
#444=VERTEX_POINT('',#1561);
#445=VERTEX_POINT('',#1563);
#446=VERTEX_POINT('',#1601);
#447=VERTEX_POINT('',#1603);
#448=VERTEX_POINT('',#1608);
#449=VERTEX_POINT('',#1617);
#450=VERTEX_POINT('',#1618);
#451=VERTEX_POINT('',#1620);
#452=VERTEX_POINT('',#1622);
#453=VERTEX_POINT('',#1626);
#454=VERTEX_POINT('',#1628);
#455=VERTEX_POINT('',#1632);
#456=VERTEX_POINT('',#1634);
#457=VERTEX_POINT('',#1638);
#458=VERTEX_POINT('',#1640);
#459=VERTEX_POINT('',#1644);
#460=VERTEX_POINT('',#1646);
#461=VERTEX_POINT('',#1650);
#462=VERTEX_POINT('',#1652);
#463=VERTEX_POINT('',#1656);
#464=VERTEX_POINT('',#1658);
#465=VERTEX_POINT('',#1665);
#466=VERTEX_POINT('',#1666);
#467=VERTEX_POINT('',#1668);
#468=VERTEX_POINT('',#1670);
#469=VERTEX_POINT('',#1672);
#470=VERTEX_POINT('',#1674);
#471=VERTEX_POINT('',#1676);
#472=VERTEX_POINT('',#1678);
#473=VERTEX_POINT('',#1682);
#474=VERTEX_POINT('',#1684);
#475=VERTEX_POINT('',#1688);
#476=VERTEX_POINT('',#1692);
#477=VERTEX_POINT('',#1696);
#478=VERTEX_POINT('',#1700);
#479=VERTEX_POINT('',#1701);
#480=VERTEX_POINT('',#1703);
#481=VERTEX_POINT('',#1708);
#482=VERTEX_POINT('',#1731);
#483=VERTEX_POINT('',#1737);
#484=VERTEX_POINT('',#1745);
#485=VERTEX_POINT('',#1747);
#486=VERTEX_POINT('',#1773);
#487=VERTEX_POINT('',#1779);
#488=VERTEX_POINT('',#1787);
#489=VERTEX_POINT('',#1789);
#490=VERTEX_POINT('',#1815);
#491=VERTEX_POINT('',#1821);
#492=VERTEX_POINT('',#1829);
#493=VERTEX_POINT('',#1831);
#494=VERTEX_POINT('',#1869);
#495=VERTEX_POINT('',#1871);
#496=VERTEX_POINT('',#1876);
#497=EDGE_CURVE('',#401,#402,#193,.T.);
#498=EDGE_CURVE('',#401,#403,#194,.T.);
#499=EDGE_CURVE('',#403,#404,#195,.T.);
#500=EDGE_CURVE('',#402,#404,#196,.T.);
#501=EDGE_CURVE('',#405,#401,#61,.T.);
#502=EDGE_CURVE('',#405,#406,#197,.T.);
#503=EDGE_CURVE('',#406,#403,#62,.T.);
#504=EDGE_CURVE('',#407,#405,#198,.T.);
#505=EDGE_CURVE('',#407,#408,#199,.T.);
#506=EDGE_CURVE('',#408,#406,#200,.T.);
#507=EDGE_CURVE('',#409,#407,#201,.T.);
#508=EDGE_CURVE('',#409,#410,#202,.T.);
#509=EDGE_CURVE('',#410,#408,#203,.T.);
#510=EDGE_CURVE('',#411,#409,#204,.T.);
#511=EDGE_CURVE('',#411,#412,#205,.T.);
#512=EDGE_CURVE('',#412,#410,#206,.T.);
#513=EDGE_CURVE('',#413,#411,#207,.T.);
#514=EDGE_CURVE('',#413,#414,#208,.T.);
#515=EDGE_CURVE('',#414,#412,#209,.T.);
#516=EDGE_CURVE('',#415,#413,#210,.T.);
#517=EDGE_CURVE('',#415,#416,#211,.T.);
#518=EDGE_CURVE('',#416,#414,#212,.T.);
#519=EDGE_CURVE('',#402,#415,#63,.T.);
#520=EDGE_CURVE('',#404,#416,#64,.T.);
#521=EDGE_CURVE('',#417,#418,#213,.T.);
#522=EDGE_CURVE('',#419,#417,#214,.T.);
#523=EDGE_CURVE('',#420,#419,#215,.T.);
#524=EDGE_CURVE('',#421,#420,#216,.T.);
#525=EDGE_CURVE('',#422,#421,#53,.T.);
#526=EDGE_CURVE('',#423,#422,#217,.T.);
#527=EDGE_CURVE('',#424,#423,#54,.T.);
#528=EDGE_CURVE('',#418,#424,#218,.T.);
#529=EDGE_CURVE('',#421,#425,#219,.T.);
#530=EDGE_CURVE('',#425,#426,#55,.T.);
#531=EDGE_CURVE('',#426,#422,#220,.T.);
#532=EDGE_CURVE('',#427,#420,#221,.T.);
#533=EDGE_CURVE('',#427,#425,#222,.T.);
#534=EDGE_CURVE('',#419,#428,#223,.T.);
#535=EDGE_CURVE('',#428,#427,#224,.T.);
#536=EDGE_CURVE('',#429,#417,#225,.T.);
#537=EDGE_CURVE('',#429,#428,#226,.T.);
#538=EDGE_CURVE('',#430,#431,#227,.T.);
#539=EDGE_CURVE('',#432,#431,#25,.T.);
#540=EDGE_CURVE('',#433,#432,#228,.T.);
#541=EDGE_CURVE('',#433,#430,#229,.T.);
#542=EDGE_CURVE('',#431,#434,#26,.T.);
#543=EDGE_CURVE('',#435,#434,#230,.T.);
#544=EDGE_CURVE('',#432,#435,#27,.T.);
#545=EDGE_CURVE('',#434,#436,#231,.T.);
#546=EDGE_CURVE('',#437,#436,#28,.T.);
#547=EDGE_CURVE('',#435,#437,#232,.T.);
#548=EDGE_CURVE('',#436,#438,#29,.T.);
#549=EDGE_CURVE('',#439,#438,#233,.T.);
#550=EDGE_CURVE('',#437,#439,#30,.T.);
#551=EDGE_CURVE('',#438,#440,#234,.T.);
#552=EDGE_CURVE('',#441,#440,#31,.T.);
#553=EDGE_CURVE('',#439,#441,#235,.T.);
#554=EDGE_CURVE('',#440,#442,#32,.T.);
#555=EDGE_CURVE('',#443,#442,#236,.T.);
#556=EDGE_CURVE('',#441,#443,#33,.T.);
#557=EDGE_CURVE('',#442,#444,#237,.T.);
#558=EDGE_CURVE('',#445,#444,#34,.T.);
#559=EDGE_CURVE('',#443,#445,#238,.T.);
#560=EDGE_CURVE('',#444,#430,#35,.T.);
#561=EDGE_CURVE('',#445,#433,#36,.T.);
#562=EDGE_CURVE('',#423,#446,#239,.T.);
#563=EDGE_CURVE('',#446,#447,#56,.T.);
#564=EDGE_CURVE('',#447,#424,#240,.T.);
#565=EDGE_CURVE('',#426,#446,#241,.T.);
#566=EDGE_CURVE('',#448,#429,#242,.T.);
#567=EDGE_CURVE('',#447,#448,#243,.T.);
#568=EDGE_CURVE('',#418,#448,#244,.T.);
#569=EDGE_CURVE('',#449,#450,#245,.T.);
#570=EDGE_CURVE('',#449,#451,#246,.T.);
#571=EDGE_CURVE('',#451,#452,#247,.T.);
#572=EDGE_CURVE('',#450,#452,#248,.T.);
#573=EDGE_CURVE('',#453,#449,#249,.T.);
#574=EDGE_CURVE('',#453,#454,#250,.T.);
#575=EDGE_CURVE('',#454,#451,#251,.T.);
#576=EDGE_CURVE('',#455,#453,#252,.T.);
#577=EDGE_CURVE('',#455,#456,#253,.T.);
#578=EDGE_CURVE('',#456,#454,#254,.T.);
#579=EDGE_CURVE('',#457,#455,#65,.T.);
#580=EDGE_CURVE('',#457,#458,#255,.T.);
#581=EDGE_CURVE('',#458,#456,#66,.T.);
#582=EDGE_CURVE('',#459,#457,#256,.T.);
#583=EDGE_CURVE('',#459,#460,#257,.T.);
#584=EDGE_CURVE('',#460,#458,#258,.T.);
#585=EDGE_CURVE('',#461,#459,#67,.T.);
#586=EDGE_CURVE('',#461,#462,#259,.T.);
#587=EDGE_CURVE('',#462,#460,#68,.T.);
#588=EDGE_CURVE('',#463,#461,#260,.T.);
#589=EDGE_CURVE('',#463,#464,#261,.T.);
#590=EDGE_CURVE('',#464,#462,#262,.T.);
#591=EDGE_CURVE('',#450,#463,#263,.T.);
#592=EDGE_CURVE('',#452,#464,#264,.T.);
#593=EDGE_CURVE('',#465,#466,#265,.T.);
#594=EDGE_CURVE('',#467,#465,#266,.T.);
#595=EDGE_CURVE('',#468,#467,#267,.T.);
#596=EDGE_CURVE('',#469,#468,#268,.T.);
#597=EDGE_CURVE('',#470,#469,#57,.T.);
#598=EDGE_CURVE('',#471,#470,#269,.T.);
#599=EDGE_CURVE('',#472,#471,#58,.T.);
#600=EDGE_CURVE('',#466,#472,#270,.T.);
#601=EDGE_CURVE('',#469,#473,#271,.T.);
#602=EDGE_CURVE('',#473,#474,#59,.T.);
#603=EDGE_CURVE('',#474,#470,#272,.T.);
#604=EDGE_CURVE('',#475,#468,#273,.T.);
#605=EDGE_CURVE('',#475,#473,#274,.T.);
#606=EDGE_CURVE('',#467,#476,#275,.T.);
#607=EDGE_CURVE('',#476,#475,#276,.T.);
#608=EDGE_CURVE('',#477,#465,#277,.T.);
#609=EDGE_CURVE('',#477,#476,#278,.T.);
#610=EDGE_CURVE('',#478,#479,#279,.T.);
#611=EDGE_CURVE('',#480,#479,#37,.T.);
#612=EDGE_CURVE('',#481,#480,#280,.T.);
#613=EDGE_CURVE('',#481,#478,#281,.T.);
#614=EDGE_CURVE('',#479,#482,#38,.T.);
#615=EDGE_CURVE('',#483,#482,#282,.T.);
#616=EDGE_CURVE('',#480,#483,#39,.T.);
#617=EDGE_CURVE('',#482,#484,#283,.T.);
#618=EDGE_CURVE('',#485,#484,#40,.T.);
#619=EDGE_CURVE('',#483,#485,#284,.T.);
#620=EDGE_CURVE('',#484,#486,#41,.T.);
#621=EDGE_CURVE('',#487,#486,#285,.T.);
#622=EDGE_CURVE('',#485,#487,#42,.T.);
#623=EDGE_CURVE('',#486,#488,#286,.T.);
#624=EDGE_CURVE('',#489,#488,#43,.T.);
#625=EDGE_CURVE('',#487,#489,#287,.T.);
#626=EDGE_CURVE('',#488,#490,#44,.T.);
#627=EDGE_CURVE('',#491,#490,#288,.T.);
#628=EDGE_CURVE('',#489,#491,#45,.T.);
#629=EDGE_CURVE('',#490,#492,#289,.T.);
#630=EDGE_CURVE('',#493,#492,#46,.T.);
#631=EDGE_CURVE('',#491,#493,#290,.T.);
#632=EDGE_CURVE('',#492,#478,#47,.T.);
#633=EDGE_CURVE('',#493,#481,#48,.T.);
#634=EDGE_CURVE('',#471,#494,#291,.T.);
#635=EDGE_CURVE('',#494,#495,#60,.T.);
#636=EDGE_CURVE('',#495,#472,#292,.T.);
#637=EDGE_CURVE('',#474,#494,#293,.T.);
#638=EDGE_CURVE('',#496,#477,#294,.T.);
#639=EDGE_CURVE('',#495,#496,#295,.T.);
#640=EDGE_CURVE('',#466,#496,#296,.T.);
#641=ORIENTED_EDGE('',*,*,#497,.F.);
#642=ORIENTED_EDGE('',*,*,#498,.T.);
#643=ORIENTED_EDGE('',*,*,#499,.T.);
#644=ORIENTED_EDGE('',*,*,#500,.F.);
#645=ORIENTED_EDGE('',*,*,#501,.F.);
#646=ORIENTED_EDGE('',*,*,#502,.T.);
#647=ORIENTED_EDGE('',*,*,#503,.T.);
#648=ORIENTED_EDGE('',*,*,#498,.F.);
#649=ORIENTED_EDGE('',*,*,#504,.F.);
#650=ORIENTED_EDGE('',*,*,#505,.T.);
#651=ORIENTED_EDGE('',*,*,#506,.T.);
#652=ORIENTED_EDGE('',*,*,#502,.F.);
#653=ORIENTED_EDGE('',*,*,#507,.F.);
#654=ORIENTED_EDGE('',*,*,#508,.T.);
#655=ORIENTED_EDGE('',*,*,#509,.T.);
#656=ORIENTED_EDGE('',*,*,#505,.F.);
#657=ORIENTED_EDGE('',*,*,#510,.F.);
#658=ORIENTED_EDGE('',*,*,#511,.T.);
#659=ORIENTED_EDGE('',*,*,#512,.T.);
#660=ORIENTED_EDGE('',*,*,#508,.F.);
#661=ORIENTED_EDGE('',*,*,#513,.F.);
#662=ORIENTED_EDGE('',*,*,#514,.T.);
#663=ORIENTED_EDGE('',*,*,#515,.T.);
#664=ORIENTED_EDGE('',*,*,#511,.F.);
#665=ORIENTED_EDGE('',*,*,#516,.F.);
#666=ORIENTED_EDGE('',*,*,#517,.T.);
#667=ORIENTED_EDGE('',*,*,#518,.T.);
#668=ORIENTED_EDGE('',*,*,#514,.F.);
#669=ORIENTED_EDGE('',*,*,#519,.F.);
#670=ORIENTED_EDGE('',*,*,#500,.T.);
#671=ORIENTED_EDGE('',*,*,#520,.T.);
#672=ORIENTED_EDGE('',*,*,#517,.F.);
#673=ORIENTED_EDGE('',*,*,#521,.F.);
#674=ORIENTED_EDGE('',*,*,#522,.F.);
#675=ORIENTED_EDGE('',*,*,#523,.F.);
#676=ORIENTED_EDGE('',*,*,#524,.F.);
#677=ORIENTED_EDGE('',*,*,#525,.F.);
#678=ORIENTED_EDGE('',*,*,#526,.F.);
#679=ORIENTED_EDGE('',*,*,#527,.F.);
#680=ORIENTED_EDGE('',*,*,#528,.F.);
#681=ORIENTED_EDGE('',*,*,#520,.F.);
#682=ORIENTED_EDGE('',*,*,#499,.F.);
#683=ORIENTED_EDGE('',*,*,#503,.F.);
#684=ORIENTED_EDGE('',*,*,#506,.F.);
#685=ORIENTED_EDGE('',*,*,#509,.F.);
#686=ORIENTED_EDGE('',*,*,#512,.F.);
#687=ORIENTED_EDGE('',*,*,#515,.F.);
#688=ORIENTED_EDGE('',*,*,#518,.F.);
#689=ORIENTED_EDGE('',*,*,#525,.T.);
#690=ORIENTED_EDGE('',*,*,#529,.T.);
#691=ORIENTED_EDGE('',*,*,#530,.T.);
#692=ORIENTED_EDGE('',*,*,#531,.T.);
#693=ORIENTED_EDGE('',*,*,#524,.T.);
#694=ORIENTED_EDGE('',*,*,#532,.F.);
#695=ORIENTED_EDGE('',*,*,#533,.T.);
#696=ORIENTED_EDGE('',*,*,#529,.F.);
#697=ORIENTED_EDGE('',*,*,#523,.T.);
#698=ORIENTED_EDGE('',*,*,#534,.T.);
#699=ORIENTED_EDGE('',*,*,#535,.T.);
#700=ORIENTED_EDGE('',*,*,#532,.T.);
#701=ORIENTED_EDGE('',*,*,#522,.T.);
#702=ORIENTED_EDGE('',*,*,#536,.F.);
#703=ORIENTED_EDGE('',*,*,#537,.T.);
#704=ORIENTED_EDGE('',*,*,#534,.F.);
#705=ORIENTED_EDGE('',*,*,#538,.T.);
#706=ORIENTED_EDGE('',*,*,#539,.F.);
#707=ORIENTED_EDGE('',*,*,#540,.F.);
#708=ORIENTED_EDGE('',*,*,#541,.T.);
#709=ORIENTED_EDGE('',*,*,#542,.T.);
#710=ORIENTED_EDGE('',*,*,#543,.F.);
#711=ORIENTED_EDGE('',*,*,#544,.F.);
#712=ORIENTED_EDGE('',*,*,#539,.T.);
#713=ORIENTED_EDGE('',*,*,#545,.T.);
#714=ORIENTED_EDGE('',*,*,#546,.F.);
#715=ORIENTED_EDGE('',*,*,#547,.F.);
#716=ORIENTED_EDGE('',*,*,#543,.T.);
#717=ORIENTED_EDGE('',*,*,#548,.T.);
#718=ORIENTED_EDGE('',*,*,#549,.F.);
#719=ORIENTED_EDGE('',*,*,#550,.F.);
#720=ORIENTED_EDGE('',*,*,#546,.T.);
#721=ORIENTED_EDGE('',*,*,#551,.T.);
#722=ORIENTED_EDGE('',*,*,#552,.F.);
#723=ORIENTED_EDGE('',*,*,#553,.F.);
#724=ORIENTED_EDGE('',*,*,#549,.T.);
#725=ORIENTED_EDGE('',*,*,#554,.T.);
#726=ORIENTED_EDGE('',*,*,#555,.F.);
#727=ORIENTED_EDGE('',*,*,#556,.F.);
#728=ORIENTED_EDGE('',*,*,#552,.T.);
#729=ORIENTED_EDGE('',*,*,#557,.T.);
#730=ORIENTED_EDGE('',*,*,#558,.F.);
#731=ORIENTED_EDGE('',*,*,#559,.F.);
#732=ORIENTED_EDGE('',*,*,#555,.T.);
#733=ORIENTED_EDGE('',*,*,#560,.T.);
#734=ORIENTED_EDGE('',*,*,#541,.F.);
#735=ORIENTED_EDGE('',*,*,#561,.F.);
#736=ORIENTED_EDGE('',*,*,#558,.T.);
#737=ORIENTED_EDGE('',*,*,#538,.F.);
#738=ORIENTED_EDGE('',*,*,#560,.F.);
#739=ORIENTED_EDGE('',*,*,#557,.F.);
#740=ORIENTED_EDGE('',*,*,#554,.F.);
#741=ORIENTED_EDGE('',*,*,#551,.F.);
#742=ORIENTED_EDGE('',*,*,#548,.F.);
#743=ORIENTED_EDGE('',*,*,#545,.F.);
#744=ORIENTED_EDGE('',*,*,#542,.F.);
#745=ORIENTED_EDGE('',*,*,#527,.T.);
#746=ORIENTED_EDGE('',*,*,#562,.T.);
#747=ORIENTED_EDGE('',*,*,#563,.T.);
#748=ORIENTED_EDGE('',*,*,#564,.T.);
#749=ORIENTED_EDGE('',*,*,#563,.F.);
#750=ORIENTED_EDGE('',*,*,#565,.F.);
#751=ORIENTED_EDGE('',*,*,#530,.F.);
#752=ORIENTED_EDGE('',*,*,#533,.F.);
#753=ORIENTED_EDGE('',*,*,#535,.F.);
#754=ORIENTED_EDGE('',*,*,#537,.F.);
#755=ORIENTED_EDGE('',*,*,#566,.F.);
#756=ORIENTED_EDGE('',*,*,#567,.F.);
#757=ORIENTED_EDGE('',*,*,#540,.T.);
#758=ORIENTED_EDGE('',*,*,#544,.T.);
#759=ORIENTED_EDGE('',*,*,#547,.T.);
#760=ORIENTED_EDGE('',*,*,#550,.T.);
#761=ORIENTED_EDGE('',*,*,#553,.T.);
#762=ORIENTED_EDGE('',*,*,#556,.T.);
#763=ORIENTED_EDGE('',*,*,#559,.T.);
#764=ORIENTED_EDGE('',*,*,#561,.T.);
#765=ORIENTED_EDGE('',*,*,#526,.T.);
#766=ORIENTED_EDGE('',*,*,#531,.F.);
#767=ORIENTED_EDGE('',*,*,#565,.T.);
#768=ORIENTED_EDGE('',*,*,#562,.F.);
#769=ORIENTED_EDGE('',*,*,#521,.T.);
#770=ORIENTED_EDGE('',*,*,#568,.T.);
#771=ORIENTED_EDGE('',*,*,#566,.T.);
#772=ORIENTED_EDGE('',*,*,#536,.T.);
#773=ORIENTED_EDGE('',*,*,#528,.T.);
#774=ORIENTED_EDGE('',*,*,#564,.F.);
#775=ORIENTED_EDGE('',*,*,#567,.T.);
#776=ORIENTED_EDGE('',*,*,#568,.F.);
#777=ORIENTED_EDGE('',*,*,#497,.T.);
#778=ORIENTED_EDGE('',*,*,#519,.T.);
#779=ORIENTED_EDGE('',*,*,#516,.T.);
#780=ORIENTED_EDGE('',*,*,#513,.T.);
#781=ORIENTED_EDGE('',*,*,#510,.T.);
#782=ORIENTED_EDGE('',*,*,#507,.T.);
#783=ORIENTED_EDGE('',*,*,#504,.T.);
#784=ORIENTED_EDGE('',*,*,#501,.T.);
#785=ORIENTED_EDGE('',*,*,#569,.F.);
#786=ORIENTED_EDGE('',*,*,#570,.T.);
#787=ORIENTED_EDGE('',*,*,#571,.T.);
#788=ORIENTED_EDGE('',*,*,#572,.F.);
#789=ORIENTED_EDGE('',*,*,#573,.F.);
#790=ORIENTED_EDGE('',*,*,#574,.T.);
#791=ORIENTED_EDGE('',*,*,#575,.T.);
#792=ORIENTED_EDGE('',*,*,#570,.F.);
#793=ORIENTED_EDGE('',*,*,#576,.F.);
#794=ORIENTED_EDGE('',*,*,#577,.T.);
#795=ORIENTED_EDGE('',*,*,#578,.T.);
#796=ORIENTED_EDGE('',*,*,#574,.F.);
#797=ORIENTED_EDGE('',*,*,#579,.F.);
#798=ORIENTED_EDGE('',*,*,#580,.T.);
#799=ORIENTED_EDGE('',*,*,#581,.T.);
#800=ORIENTED_EDGE('',*,*,#577,.F.);
#801=ORIENTED_EDGE('',*,*,#582,.F.);
#802=ORIENTED_EDGE('',*,*,#583,.T.);
#803=ORIENTED_EDGE('',*,*,#584,.T.);
#804=ORIENTED_EDGE('',*,*,#580,.F.);
#805=ORIENTED_EDGE('',*,*,#585,.F.);
#806=ORIENTED_EDGE('',*,*,#586,.T.);
#807=ORIENTED_EDGE('',*,*,#587,.T.);
#808=ORIENTED_EDGE('',*,*,#583,.F.);
#809=ORIENTED_EDGE('',*,*,#588,.F.);
#810=ORIENTED_EDGE('',*,*,#589,.T.);
#811=ORIENTED_EDGE('',*,*,#590,.T.);
#812=ORIENTED_EDGE('',*,*,#586,.F.);
#813=ORIENTED_EDGE('',*,*,#591,.F.);
#814=ORIENTED_EDGE('',*,*,#572,.T.);
#815=ORIENTED_EDGE('',*,*,#592,.T.);
#816=ORIENTED_EDGE('',*,*,#589,.F.);
#817=ORIENTED_EDGE('',*,*,#593,.F.);
#818=ORIENTED_EDGE('',*,*,#594,.F.);
#819=ORIENTED_EDGE('',*,*,#595,.F.);
#820=ORIENTED_EDGE('',*,*,#596,.F.);
#821=ORIENTED_EDGE('',*,*,#597,.F.);
#822=ORIENTED_EDGE('',*,*,#598,.F.);
#823=ORIENTED_EDGE('',*,*,#599,.F.);
#824=ORIENTED_EDGE('',*,*,#600,.F.);
#825=ORIENTED_EDGE('',*,*,#592,.F.);
#826=ORIENTED_EDGE('',*,*,#571,.F.);
#827=ORIENTED_EDGE('',*,*,#575,.F.);
#828=ORIENTED_EDGE('',*,*,#578,.F.);
#829=ORIENTED_EDGE('',*,*,#581,.F.);
#830=ORIENTED_EDGE('',*,*,#584,.F.);
#831=ORIENTED_EDGE('',*,*,#587,.F.);
#832=ORIENTED_EDGE('',*,*,#590,.F.);
#833=ORIENTED_EDGE('',*,*,#597,.T.);
#834=ORIENTED_EDGE('',*,*,#601,.T.);
#835=ORIENTED_EDGE('',*,*,#602,.T.);
#836=ORIENTED_EDGE('',*,*,#603,.T.);
#837=ORIENTED_EDGE('',*,*,#596,.T.);
#838=ORIENTED_EDGE('',*,*,#604,.F.);
#839=ORIENTED_EDGE('',*,*,#605,.T.);
#840=ORIENTED_EDGE('',*,*,#601,.F.);
#841=ORIENTED_EDGE('',*,*,#595,.T.);
#842=ORIENTED_EDGE('',*,*,#606,.T.);
#843=ORIENTED_EDGE('',*,*,#607,.T.);
#844=ORIENTED_EDGE('',*,*,#604,.T.);
#845=ORIENTED_EDGE('',*,*,#594,.T.);
#846=ORIENTED_EDGE('',*,*,#608,.F.);
#847=ORIENTED_EDGE('',*,*,#609,.T.);
#848=ORIENTED_EDGE('',*,*,#606,.F.);
#849=ORIENTED_EDGE('',*,*,#610,.T.);
#850=ORIENTED_EDGE('',*,*,#611,.F.);
#851=ORIENTED_EDGE('',*,*,#612,.F.);
#852=ORIENTED_EDGE('',*,*,#613,.T.);
#853=ORIENTED_EDGE('',*,*,#614,.T.);
#854=ORIENTED_EDGE('',*,*,#615,.F.);
#855=ORIENTED_EDGE('',*,*,#616,.F.);
#856=ORIENTED_EDGE('',*,*,#611,.T.);
#857=ORIENTED_EDGE('',*,*,#617,.T.);
#858=ORIENTED_EDGE('',*,*,#618,.F.);
#859=ORIENTED_EDGE('',*,*,#619,.F.);
#860=ORIENTED_EDGE('',*,*,#615,.T.);
#861=ORIENTED_EDGE('',*,*,#620,.T.);
#862=ORIENTED_EDGE('',*,*,#621,.F.);
#863=ORIENTED_EDGE('',*,*,#622,.F.);
#864=ORIENTED_EDGE('',*,*,#618,.T.);
#865=ORIENTED_EDGE('',*,*,#623,.T.);
#866=ORIENTED_EDGE('',*,*,#624,.F.);
#867=ORIENTED_EDGE('',*,*,#625,.F.);
#868=ORIENTED_EDGE('',*,*,#621,.T.);
#869=ORIENTED_EDGE('',*,*,#626,.T.);
#870=ORIENTED_EDGE('',*,*,#627,.F.);
#871=ORIENTED_EDGE('',*,*,#628,.F.);
#872=ORIENTED_EDGE('',*,*,#624,.T.);
#873=ORIENTED_EDGE('',*,*,#629,.T.);
#874=ORIENTED_EDGE('',*,*,#630,.F.);
#875=ORIENTED_EDGE('',*,*,#631,.F.);
#876=ORIENTED_EDGE('',*,*,#627,.T.);
#877=ORIENTED_EDGE('',*,*,#632,.T.);
#878=ORIENTED_EDGE('',*,*,#613,.F.);
#879=ORIENTED_EDGE('',*,*,#633,.F.);
#880=ORIENTED_EDGE('',*,*,#630,.T.);
#881=ORIENTED_EDGE('',*,*,#610,.F.);
#882=ORIENTED_EDGE('',*,*,#632,.F.);
#883=ORIENTED_EDGE('',*,*,#629,.F.);
#884=ORIENTED_EDGE('',*,*,#626,.F.);
#885=ORIENTED_EDGE('',*,*,#623,.F.);
#886=ORIENTED_EDGE('',*,*,#620,.F.);
#887=ORIENTED_EDGE('',*,*,#617,.F.);
#888=ORIENTED_EDGE('',*,*,#614,.F.);
#889=ORIENTED_EDGE('',*,*,#599,.T.);
#890=ORIENTED_EDGE('',*,*,#634,.T.);
#891=ORIENTED_EDGE('',*,*,#635,.T.);
#892=ORIENTED_EDGE('',*,*,#636,.T.);
#893=ORIENTED_EDGE('',*,*,#635,.F.);
#894=ORIENTED_EDGE('',*,*,#637,.F.);
#895=ORIENTED_EDGE('',*,*,#602,.F.);
#896=ORIENTED_EDGE('',*,*,#605,.F.);
#897=ORIENTED_EDGE('',*,*,#607,.F.);
#898=ORIENTED_EDGE('',*,*,#609,.F.);
#899=ORIENTED_EDGE('',*,*,#638,.F.);
#900=ORIENTED_EDGE('',*,*,#639,.F.);
#901=ORIENTED_EDGE('',*,*,#612,.T.);
#902=ORIENTED_EDGE('',*,*,#616,.T.);
#903=ORIENTED_EDGE('',*,*,#619,.T.);
#904=ORIENTED_EDGE('',*,*,#622,.T.);
#905=ORIENTED_EDGE('',*,*,#625,.T.);
#906=ORIENTED_EDGE('',*,*,#628,.T.);
#907=ORIENTED_EDGE('',*,*,#631,.T.);
#908=ORIENTED_EDGE('',*,*,#633,.T.);
#909=ORIENTED_EDGE('',*,*,#598,.T.);
#910=ORIENTED_EDGE('',*,*,#603,.F.);
#911=ORIENTED_EDGE('',*,*,#637,.T.);
#912=ORIENTED_EDGE('',*,*,#634,.F.);
#913=ORIENTED_EDGE('',*,*,#593,.T.);
#914=ORIENTED_EDGE('',*,*,#640,.T.);
#915=ORIENTED_EDGE('',*,*,#638,.T.);
#916=ORIENTED_EDGE('',*,*,#608,.T.);
#917=ORIENTED_EDGE('',*,*,#600,.T.);
#918=ORIENTED_EDGE('',*,*,#636,.F.);
#919=ORIENTED_EDGE('',*,*,#639,.T.);
#920=ORIENTED_EDGE('',*,*,#640,.F.);
#921=ORIENTED_EDGE('',*,*,#569,.T.);
#922=ORIENTED_EDGE('',*,*,#591,.T.);
#923=ORIENTED_EDGE('',*,*,#588,.T.);
#924=ORIENTED_EDGE('',*,*,#585,.T.);
#925=ORIENTED_EDGE('',*,*,#582,.T.);
#926=ORIENTED_EDGE('',*,*,#579,.T.);
#927=ORIENTED_EDGE('',*,*,#576,.T.);
#928=ORIENTED_EDGE('',*,*,#573,.T.);
#929=PLANE('',#1049);
#930=PLANE('',#1053);
#931=PLANE('',#1054);
#932=PLANE('',#1055);
#933=PLANE('',#1056);
#934=PLANE('',#1057);
#935=PLANE('',#1061);
#936=PLANE('',#1066);
#937=PLANE('',#1067);
#938=PLANE('',#1068);
#939=PLANE('',#1069);
#940=PLANE('',#1070);
#941=PLANE('',#1071);
#942=PLANE('',#1072);
#943=PLANE('',#1073);
#944=PLANE('',#1076);
#945=PLANE('',#1077);
#946=PLANE('',#1078);
#947=PLANE('',#1079);
#948=PLANE('',#1080);
#949=PLANE('',#1081);
#950=PLANE('',#1082);
#951=PLANE('',#1083);
#952=PLANE('',#1087);
#953=PLANE('',#1091);
#954=PLANE('',#1092);
#955=PLANE('',#1093);
#956=PLANE('',#1098);
#957=PLANE('',#1099);
#958=PLANE('',#1100);
#959=PLANE('',#1101);
#960=PLANE('',#1102);
#961=PLANE('',#1103);
#962=PLANE('',#1104);
#963=PLANE('',#1105);
#964=PLANE('',#1108);
#965=PLANE('',#1109);
#966=PLANE('',#1110);
#967=PLANE('',#1111);
#968=PLANE('',#1112);
#969=ADVANCED_FACE('',(#77),#929,.F.);
#970=ADVANCED_FACE('',(#78),#69,.T.);
#971=ADVANCED_FACE('',(#79),#930,.F.);
#972=ADVANCED_FACE('',(#80),#931,.F.);
#973=ADVANCED_FACE('',(#81),#932,.F.);
#974=ADVANCED_FACE('',(#82),#933,.F.);
#975=ADVANCED_FACE('',(#83),#934,.F.);
#976=ADVANCED_FACE('',(#84),#70,.T.);
#977=ADVANCED_FACE('',(#85,#49),#935,.T.);
#978=ADVANCED_FACE('',(#86),#71,.T.);
#979=ADVANCED_FACE('',(#87),#936,.T.);
#980=ADVANCED_FACE('',(#88),#937,.T.);
#981=ADVANCED_FACE('',(#89),#938,.T.);
#982=ADVANCED_FACE('',(#90),#939,.T.);
#983=ADVANCED_FACE('',(#91),#17,.T.);
#984=ADVANCED_FACE('',(#92),#940,.T.);
#985=ADVANCED_FACE('',(#93),#18,.T.);
#986=ADVANCED_FACE('',(#94),#941,.T.);
#987=ADVANCED_FACE('',(#95),#19,.T.);
#988=ADVANCED_FACE('',(#96),#942,.T.);
#989=ADVANCED_FACE('',(#97),#20,.T.);
#990=ADVANCED_FACE('',(#98),#943,.T.);
#991=ADVANCED_FACE('',(#99),#72,.T.);
#992=ADVANCED_FACE('',(#100,#50),#944,.F.);
#993=ADVANCED_FACE('',(#101),#945,.T.);
#994=ADVANCED_FACE('',(#102),#946,.T.);
#995=ADVANCED_FACE('',(#103),#947,.T.);
#996=ADVANCED_FACE('',(#104),#948,.T.);
#997=ADVANCED_FACE('',(#105),#949,.F.);
#998=ADVANCED_FACE('',(#106),#950,.F.);
#999=ADVANCED_FACE('',(#107),#951,.F.);
#1000=ADVANCED_FACE('',(#108),#73,.T.);
#1001=ADVANCED_FACE('',(#109),#952,.F.);
#1002=ADVANCED_FACE('',(#110),#74,.T.);
#1003=ADVANCED_FACE('',(#111),#953,.F.);
#1004=ADVANCED_FACE('',(#112),#954,.F.);
#1005=ADVANCED_FACE('',(#113,#51),#955,.T.);
#1006=ADVANCED_FACE('',(#114),#75,.T.);
#1007=ADVANCED_FACE('',(#115),#956,.T.);
#1008=ADVANCED_FACE('',(#116),#957,.T.);
#1009=ADVANCED_FACE('',(#117),#958,.T.);
#1010=ADVANCED_FACE('',(#118),#959,.T.);
#1011=ADVANCED_FACE('',(#119),#21,.T.);
#1012=ADVANCED_FACE('',(#120),#960,.T.);
#1013=ADVANCED_FACE('',(#121),#22,.T.);
#1014=ADVANCED_FACE('',(#122),#961,.T.);
#1015=ADVANCED_FACE('',(#123),#23,.T.);
#1016=ADVANCED_FACE('',(#124),#962,.T.);
#1017=ADVANCED_FACE('',(#125),#24,.T.);
#1018=ADVANCED_FACE('',(#126),#963,.T.);
#1019=ADVANCED_FACE('',(#127),#76,.T.);
#1020=ADVANCED_FACE('',(#128,#52),#964,.F.);
#1021=ADVANCED_FACE('',(#129),#965,.T.);
#1022=ADVANCED_FACE('',(#130),#966,.T.);
#1023=ADVANCED_FACE('',(#131),#967,.T.);
#1024=ADVANCED_FACE('',(#132),#968,.T.);
#1025=CLOSED_SHELL('',(#969,#970,#971,#972,#973,#974,#975,#976,#977,#978,
#979,#980,#981,#982,#983,#984,#985,#986,#987,#988,#989,#990,#991,#992,#993,
#994,#995,#996));
#1026=CLOSED_SHELL('',(#997,#998,#999,#1000,#1001,#1002,#1003,#1004,#1005,
#1006,#1007,#1008,#1009,#1010,#1011,#1012,#1013,#1014,#1015,#1016,#1017,
#1018,#1019,#1020,#1021,#1022,#1023,#1024));
#1027=DERIVED_UNIT_ELEMENT(#1030,1.);
#1028=DERIVED_UNIT_ELEMENT(#1889,-3.);
#1029=DIMENSIONAL_EXPONENTS(0.,1.,0.,0.,0.,0.,0.);
#1030=(
CONVERSION_BASED_UNIT('gram',#1032)
MASS_UNIT()
NAMED_UNIT(#1029)
);
#1031=(
MASS_UNIT()
NAMED_UNIT(*)
SI_UNIT(.KILO.,.GRAM.)
);
#1032=MASS_MEASURE_WITH_UNIT(MASS_MEASURE(0.001),#1031);
#1033=DERIVED_UNIT((#1027,#1028));
#1034=MEASURE_REPRESENTATION_ITEM('density measure',
POSITIVE_RATIO_MEASURE(1.),#1033);
#1035=PROPERTY_DEFINITION_REPRESENTATION(#1040,#1037);
#1036=PROPERTY_DEFINITION_REPRESENTATION(#1041,#1038);
#1037=REPRESENTATION('material name',(#1039),#1886);
#1038=REPRESENTATION('density',(#1034),#1886);
#1039=DESCRIPTIVE_REPRESENTATION_ITEM('Generic','Generic');
#1040=PROPERTY_DEFINITION('material property','material name',#1896);
#1041=PROPERTY_DEFINITION('material property','density of part',#1896);
#1042=DATE_TIME_ROLE('creation_date');
#1043=APPLIED_DATE_AND_TIME_ASSIGNMENT(#1044,#1042,(#1896));
#1044=DATE_AND_TIME(#1045,#1046);
#1045=CALENDAR_DATE(2025,3,7);
#1046=LOCAL_TIME(0,0,0.,#1047);
#1047=COORDINATED_UNIVERSAL_TIME_OFFSET(0,0,.BEHIND.);
#1048=AXIS2_PLACEMENT_3D('',#1347,#1113,#1114);
#1049=AXIS2_PLACEMENT_3D('',#1348,#1115,#1116);
#1050=AXIS2_PLACEMENT_3D('',#1357,#1121,#1122);
#1051=AXIS2_PLACEMENT_3D('',#1359,#1123,#1124);
#1052=AXIS2_PLACEMENT_3D('',#1362,#1126,#1127);
#1053=AXIS2_PLACEMENT_3D('',#1363,#1128,#1129);
#1054=AXIS2_PLACEMENT_3D('',#1369,#1133,#1134);
#1055=AXIS2_PLACEMENT_3D('',#1375,#1138,#1139);
#1056=AXIS2_PLACEMENT_3D('',#1381,#1143,#1144);
#1057=AXIS2_PLACEMENT_3D('',#1387,#1148,#1149);
#1058=AXIS2_PLACEMENT_3D('',#1393,#1153,#1154);
#1059=AXIS2_PLACEMENT_3D('',#1394,#1155,#1156);
#1060=AXIS2_PLACEMENT_3D('',#1395,#1157,#1158);
#1061=AXIS2_PLACEMENT_3D('',#1396,#1159,#1160);
#1062=AXIS2_PLACEMENT_3D('',#1407,#1165,#1166);
#1063=AXIS2_PLACEMENT_3D('',#1411,#1168,#1169);
#1064=AXIS2_PLACEMENT_3D('',#1413,#1171,#1172);
#1065=AXIS2_PLACEMENT_3D('',#1417,#1174,#1175);
#1066=AXIS2_PLACEMENT_3D('',#1419,#1177,#1178);
#1067=AXIS2_PLACEMENT_3D('',#1423,#1181,#1182);
#1068=AXIS2_PLACEMENT_3D('',#1427,#1185,#1186);
#1069=AXIS2_PLACEMENT_3D('',#1431,#1189,#1190);
#1070=AXIS2_PLACEMENT_3D('',#1476,#1195,#1196);
#1071=AXIS2_PLACEMENT_3D('',#1518,#1200,#1201);
#1072=AXIS2_PLACEMENT_3D('',#1560,#1205,#1206);
#1073=AXIS2_PLACEMENT_3D('',#1599,#1209,#1210);
#1074=AXIS2_PLACEMENT_3D('',#1600,#1211,#1212);
#1075=AXIS2_PLACEMENT_3D('',#1604,#1214,#1215);
#1076=AXIS2_PLACEMENT_3D('',#1606,#1217,#1218);
#1077=AXIS2_PLACEMENT_3D('',#1611,#1222,#1223);
#1078=AXIS2_PLACEMENT_3D('',#1612,#1224,#1225);
#1079=AXIS2_PLACEMENT_3D('',#1614,#1227,#1228);
#1080=AXIS2_PLACEMENT_3D('',#1615,#1229,#1230);
#1081=AXIS2_PLACEMENT_3D('',#1616,#1231,#1232);
#1082=AXIS2_PLACEMENT_3D('',#1625,#1237,#1238);
#1083=AXIS2_PLACEMENT_3D('',#1631,#1242,#1243);
#1084=AXIS2_PLACEMENT_3D('',#1637,#1247,#1248);
#1085=AXIS2_PLACEMENT_3D('',#1639,#1249,#1250);
#1086=AXIS2_PLACEMENT_3D('',#1642,#1252,#1253);
#1087=AXIS2_PLACEMENT_3D('',#1643,#1254,#1255);
#1088=AXIS2_PLACEMENT_3D('',#1649,#1259,#1260);
#1089=AXIS2_PLACEMENT_3D('',#1651,#1261,#1262);
#1090=AXIS2_PLACEMENT_3D('',#1654,#1264,#1265);
#1091=AXIS2_PLACEMENT_3D('',#1655,#1266,#1267);
#1092=AXIS2_PLACEMENT_3D('',#1661,#1271,#1272);
#1093=AXIS2_PLACEMENT_3D('',#1664,#1275,#1276);
#1094=AXIS2_PLACEMENT_3D('',#1675,#1281,#1282);
#1095=AXIS2_PLACEMENT_3D('',#1679,#1284,#1285);
#1096=AXIS2_PLACEMENT_3D('',#1681,#1287,#1288);
#1097=AXIS2_PLACEMENT_3D('',#1685,#1290,#1291);
#1098=AXIS2_PLACEMENT_3D('',#1687,#1293,#1294);
#1099=AXIS2_PLACEMENT_3D('',#1691,#1297,#1298);
#1100=AXIS2_PLACEMENT_3D('',#1695,#1301,#1302);
#1101=AXIS2_PLACEMENT_3D('',#1699,#1305,#1306);
#1102=AXIS2_PLACEMENT_3D('',#1744,#1311,#1312);
#1103=AXIS2_PLACEMENT_3D('',#1786,#1316,#1317);
#1104=AXIS2_PLACEMENT_3D('',#1828,#1321,#1322);
#1105=AXIS2_PLACEMENT_3D('',#1867,#1325,#1326);
#1106=AXIS2_PLACEMENT_3D('',#1868,#1327,#1328);
#1107=AXIS2_PLACEMENT_3D('',#1872,#1330,#1331);
#1108=AXIS2_PLACEMENT_3D('',#1874,#1333,#1334);
#1109=AXIS2_PLACEMENT_3D('',#1879,#1338,#1339);
#1110=AXIS2_PLACEMENT_3D('',#1880,#1340,#1341);
#1111=AXIS2_PLACEMENT_3D('',#1882,#1343,#1344);
#1112=AXIS2_PLACEMENT_3D('',#1883,#1345,#1346);
#1113=DIRECTION('axis',(0.,0.,1.));
#1114=DIRECTION('refdir',(1.,0.,0.));
#1115=DIRECTION('center_axis',(-1.,0.,1.45221391593518E-15));
#1116=DIRECTION('ref_axis',(-1.45221391593518E-15,0.,-1.));
#1117=DIRECTION('',(-1.45221391593518E-15,0.,-1.));
#1118=DIRECTION('',(0.,-1.,0.));
#1119=DIRECTION('',(-1.45221391593518E-15,0.,-1.));
#1120=DIRECTION('',(0.,-1.,0.));
#1121=DIRECTION('center_axis',(0.,-1.,0.));
#1122=DIRECTION('ref_axis',(-9.0126001352906E-7,0.,0.999999999999594));
#1123=DIRECTION('center_axis',(0.,1.,0.));
#1124=DIRECTION('ref_axis',(-9.0126001352906E-7,0.,0.999999999999594));
#1125=DIRECTION('',(0.,-1.,0.));
#1126=DIRECTION('center_axis',(6.12644091197671E-14,1.,6.12644091197659E-14));
#1127=DIRECTION('ref_axis',(-9.0126001352906E-7,-5.07532087267383E-14,0.999999999999594));
#1128=DIRECTION('center_axis',(7.41166167613791E-16,0.,-1.));
#1129=DIRECTION('ref_axis',(1.,0.,7.41166167613791E-16));
#1130=DIRECTION('',(1.,0.,7.41166167613791E-16));
#1131=DIRECTION('',(0.,-1.,0.));
#1132=DIRECTION('',(1.,0.,7.41166167613791E-16));
#1133=DIRECTION('center_axis',(0.707106781186542,0.,-0.707106781186553));
#1134=DIRECTION('ref_axis',(0.707106781186553,0.,0.707106781186542));
#1135=DIRECTION('',(0.707106781186553,0.,0.707106781186542));
#1136=DIRECTION('',(0.,-1.,0.));
#1137=DIRECTION('',(0.707106781186553,0.,0.707106781186542));
#1138=DIRECTION('center_axis',(1.,0.,-1.51372650454212E-15));
#1139=DIRECTION('ref_axis',(1.51372650454212E-15,0.,1.));
#1140=DIRECTION('',(1.51372650454212E-15,0.,1.));
#1141=DIRECTION('',(0.,-1.,0.));
#1142=DIRECTION('',(1.51372650454212E-15,0.,1.));
#1143=DIRECTION('center_axis',(0.707106781186549,0.,0.707106781186546));
#1144=DIRECTION('ref_axis',(-0.707106781186546,0.,0.707106781186549));
#1145=DIRECTION('',(-0.707106781186546,0.,0.707106781186549));
#1146=DIRECTION('',(0.,-1.,0.));
#1147=DIRECTION('',(-0.707106781186546,0.,0.707106781186549));
#1148=DIRECTION('center_axis',(-7.41166167613789E-16,0.,1.));
#1149=DIRECTION('ref_axis',(-1.,0.,-7.41166167613789E-16));
#1150=DIRECTION('',(-1.,0.,-7.41166167613789E-16));
#1151=DIRECTION('',(0.,-1.,0.));
#1152=DIRECTION('',(-1.,0.,-7.41166167613789E-16));
#1153=DIRECTION('center_axis',(0.,-1.,0.));
#1154=DIRECTION('ref_axis',(0.999999999999594,0.,9.01260349769359E-7));
#1155=DIRECTION('center_axis',(0.,1.,0.));
#1156=DIRECTION('ref_axis',(0.999999999999594,0.,9.01260349769359E-7));
#1157=DIRECTION('center_axis',(-6.1264409119738E-14,1.,6.12644091197382E-14));
#1158=DIRECTION('ref_axis',(0.999999999999594,5.07532087267547E-14,9.01260349769359E-7));
#1159=DIRECTION('center_axis',(0.,1.,0.));
#1160=DIRECTION('ref_axis',(0.,0.,1.));
#1161=DIRECTION('',(0.707106781186547,0.,-0.707106781186548));
#1162=DIRECTION('',(-1.0449157878825E-15,0.,-1.));
#1163=DIRECTION('',(-0.707106781186551,0.,-0.707106781186544));
#1164=DIRECTION('',(-1.,0.,2.81069120158267E-16));
#1165=DIRECTION('center_axis',(0.,-1.,0.));
#1166=DIRECTION('ref_axis',(0.707106781186551,0.,0.707106781186544));
#1167=DIRECTION('',(2.089831575765E-15,0.,1.));
#1168=DIRECTION('center_axis',(0.,-1.,0.));
#1169=DIRECTION('ref_axis',(0.707106781186548,0.,-0.707106781186548));
#1170=DIRECTION('',(1.,0.,4.22942104619107E-16));
#1171=DIRECTION('center_axis',(-0.00174532570761999,0.999996953833535,-0.00174532570761998));
#1172=DIRECTION('ref_axis',(0.707104627221587,0.00246826328647496,0.70710462722158));
#1173=DIRECTION('',(0.00174532570761999,-0.999996953833535,0.00174532570761998));
#1174=DIRECTION('center_axis',(0.,1.,0.));
#1175=DIRECTION('ref_axis',(0.707106781186551,0.,0.707106781186544));
#1176=DIRECTION('',(-0.00174532570761999,0.999996953833535,-0.00174532570761998));
#1177=DIRECTION('center_axis',(2.81068692065625E-16,0.00174532836589832,
0.999998476913288));
#1178=DIRECTION('ref_axis',(1.,0.,-2.81069120158267E-16));
#1179=DIRECTION('',(0.00174532570761998,0.999996953833535,-0.00174532570761998));
#1180=DIRECTION('',(1.,0.,-2.81069120158267E-16));
#1181=DIRECTION('center_axis',(-0.70710462722158,0.00246826328647459,0.707104627221587));
#1182=DIRECTION('ref_axis',(0.707106781186551,0.,0.707106781186544));
#1183=DIRECTION('',(-0.00174532570761998,-0.999996953833535,0.00174532570761998));
#1184=DIRECTION('',(0.707106781186551,0.,0.707106781186544));
#1185=DIRECTION('center_axis',(-0.999998476913288,0.00174532836589832,1.04491419638515E-15));
#1186=DIRECTION('ref_axis',(1.0449157878825E-15,0.,1.));
#1187=DIRECTION('',(0.00174532570761998,0.999996953833535,0.00174532570761996));
#1188=DIRECTION('',(1.0449157878825E-15,0.,1.));
#1189=DIRECTION('center_axis',(0.999390827019096,-0.0348994967025012,0.));
#1190=DIRECTION('ref_axis',(0.,0.,1.));
#1191=DIRECTION('',(0.,0.,-1.));
#1192=DIRECTION('',(0.,0.,-1.));
#1193=DIRECTION('',(-0.0348994967025011,-0.999390827019096,0.));
#1194=DIRECTION('',(0.,-0.999390827019096,0.0348994967025008));
#1195=DIRECTION('center_axis',(0.,-0.0348994967025009,-0.999390827019096));
#1196=DIRECTION('ref_axis',(1.,0.,0.));
#1197=DIRECTION('',(-1.,0.,0.));
#1198=DIRECTION('',(-1.,0.,0.));
#1199=DIRECTION('',(0.0348994967025011,-0.999390827019096,0.));
#1200=DIRECTION('center_axis',(-0.999390827019096,-0.0348994967025012,0.));
#1201=DIRECTION('ref_axis',(0.,0.,-1.));
#1202=DIRECTION('',(0.,0.,1.));
#1203=DIRECTION('',(0.,0.,1.));
#1204=DIRECTION('',(0.,-0.999390827019096,-0.0348994967025011));
#1205=DIRECTION('center_axis',(0.,-0.0348994967025012,0.999390827019096));
#1206=DIRECTION('ref_axis',(-1.,0.,0.));
#1207=DIRECTION('',(1.,0.,0.));
#1208=DIRECTION('',(1.,0.,0.));
#1209=DIRECTION('center_axis',(0.,-1.,0.));
#1210=DIRECTION('ref_axis',(0.,0.,-1.));
#1211=DIRECTION('center_axis',(-0.00174532570761998,0.999996953833535,0.00174532570761996));
#1212=DIRECTION('ref_axis',(0.707104627221583,0.00246826328647495,-0.707104627221583));
#1213=DIRECTION('',(0.00174532570761998,-0.999996953833535,-0.00174532570761996));
#1214=DIRECTION('center_axis',(0.,1.,0.));
#1215=DIRECTION('ref_axis',(0.707106781186548,0.,-0.707106781186548));
#1216=DIRECTION('',(-0.00174532570761998,0.999996953833535,0.00174532570761996));
#1217=DIRECTION('center_axis',(0.,1.,0.));
#1218=DIRECTION('ref_axis',(0.,0.,1.));
#1219=DIRECTION('',(-2.089831575765E-15,0.,-1.));
#1220=DIRECTION('',(-0.707106781186547,0.,0.707106781186548));
#1221=DIRECTION('',(-1.,0.,-4.22942104619107E-16));
#1222=DIRECTION('center_axis',(0.999998476913288,0.00174532836589833,-2.0898283927703E-15));
#1223=DIRECTION('ref_axis',(-2.089831575765E-15,0.,-1.));
#1224=DIRECTION('center_axis',(-0.707104627221584,0.00246826328647458,-0.707104627221583));
#1225=DIRECTION('ref_axis',(-0.707106781186547,0.,0.707106781186548));
#1226=DIRECTION('',(-0.00174532570761998,-0.999996953833535,-0.00174532570761996));
#1227=DIRECTION('center_axis',(4.22941460441607E-16,0.0017453283658983,
-0.999998476913288));
#1228=DIRECTION('ref_axis',(-1.,0.,-4.22942104619107E-16));
#1229=DIRECTION('center_axis',(0.,1.,0.));
#1230=DIRECTION('ref_axis',(0.,0.,1.));
#1231=DIRECTION('center_axis',(1.,0.,0.));
#1232=DIRECTION('ref_axis',(0.,0.,1.));
#1233=DIRECTION('',(0.,0.,1.));
#1234=DIRECTION('',(0.,-1.,0.));
#1235=DIRECTION('',(0.,0.,1.));
#1236=DIRECTION('',(0.,-1.,0.));
#1237=DIRECTION('center_axis',(0.707106781186553,0.,0.707106781186542));
#1238=DIRECTION('ref_axis',(-0.707106781186542,0.,0.707106781186553));
#1239=DIRECTION('',(-0.707106781186542,0.,0.707106781186553));
#1240=DIRECTION('',(0.,-1.,0.));
#1241=DIRECTION('',(-0.707106781186542,0.,0.707106781186553));
#1242=DIRECTION('center_axis',(0.,0.,1.));
#1243=DIRECTION('ref_axis',(-1.,0.,0.));
#1244=DIRECTION('',(-1.,0.,0.));
#1245=DIRECTION('',(0.,-1.,0.));
#1246=DIRECTION('',(-1.,0.,0.));
#1247=DIRECTION('center_axis',(0.,-1.,0.));
#1248=DIRECTION('ref_axis',(0.999999999999594,0.,9.01260064282297E-7));
#1249=DIRECTION('center_axis',(0.,1.,0.));
#1250=DIRECTION('ref_axis',(0.999999999999594,0.,9.01260064282297E-7));
#1251=DIRECTION('',(0.,-1.,0.));
#1252=DIRECTION('center_axis',(6.12644091197632E-14,1.,-6.12644091197632E-14));
#1253=DIRECTION('ref_axis',(0.999999999999594,-5.07532087267399E-14,9.01260064282297E-7));
#1254=DIRECTION('center_axis',(-1.,0.,0.));
#1255=DIRECTION('ref_axis',(0.,0.,-1.));
#1256=DIRECTION('',(0.,0.,-1.));
#1257=DIRECTION('',(0.,-1.,0.));
#1258=DIRECTION('',(0.,0.,-1.));
#1259=DIRECTION('center_axis',(0.,-1.,0.));
#1260=DIRECTION('ref_axis',(-9.01260000840732E-7,0.,0.999999999999594));
#1261=DIRECTION('center_axis',(0.,1.,0.));
#1262=DIRECTION('ref_axis',(-9.01260000840732E-7,0.,0.999999999999594));
#1263=DIRECTION('',(0.,-1.,0.));
#1264=DIRECTION('center_axis',(-6.12644091197685E-14,1.,-6.12644091197687E-14));
#1265=DIRECTION('ref_axis',(-9.01260000840732E-7,5.07532087267369E-14,0.999999999999594));
#1266=DIRECTION('center_axis',(-3.70583083806895E-16,0.,-1.));
#1267=DIRECTION('ref_axis',(1.,0.,-3.70583083806895E-16));
#1268=DIRECTION('',(1.,0.,-3.70583083806895E-16));
#1269=DIRECTION('',(0.,-1.,0.));
#1270=DIRECTION('',(1.,0.,-3.70583083806895E-16));
#1271=DIRECTION('center_axis',(0.707106781186549,0.,-0.707106781186546));
#1272=DIRECTION('ref_axis',(0.707106781186546,0.,0.707106781186549));
#1273=DIRECTION('',(0.707106781186546,0.,0.707106781186549));
#1274=DIRECTION('',(0.707106781186546,0.,0.707106781186549));
#1275=DIRECTION('center_axis',(0.,1.,0.));
#1276=DIRECTION('ref_axis',(0.,0.,1.));
#1277=DIRECTION('',(0.707106781186543,0.,-0.707106781186552));
#1278=DIRECTION('',(0.,0.,-1.));
#1279=DIRECTION('',(-0.707106781186544,0.,-0.707106781186551));
#1280=DIRECTION('',(-1.,0.,0.));
#1281=DIRECTION('center_axis',(0.,-1.,0.));
#1282=DIRECTION('ref_axis',(0.707106781186549,0.,0.707106781186546));
#1283=DIRECTION('',(0.,0.,1.));
#1284=DIRECTION('center_axis',(0.,-1.,0.));
#1285=DIRECTION('ref_axis',(0.707106781186548,0.,-0.707106781186548));
#1286=DIRECTION('',(1.,0.,0.));
#1287=DIRECTION('center_axis',(-0.00174532570761998,0.999996953833535,-0.00174532570761996));
#1288=DIRECTION('ref_axis',(0.707104627221585,0.00246826328647495,0.707104627221582));
#1289=DIRECTION('',(0.00174532570761998,-0.999996953833535,0.00174532570761996));
#1290=DIRECTION('center_axis',(0.,1.,0.));
#1291=DIRECTION('ref_axis',(0.707106781186549,0.,0.707106781186546));
#1292=DIRECTION('',(-0.00174532570761998,0.999996953833535,-0.00174532570761996));
#1293=DIRECTION('center_axis',(0.,0.0017453283658983,0.999998476913288));
#1294=DIRECTION('ref_axis',(1.,0.,0.));
#1295=DIRECTION('',(0.00174532570761998,0.999996953833535,-0.00174532570761996));
#1296=DIRECTION('',(1.,0.,0.));
#1297=DIRECTION('center_axis',(-0.707104627221587,0.00246826328647458,0.70710462722158));
#1298=DIRECTION('ref_axis',(0.707106781186544,0.,0.707106781186551));
#1299=DIRECTION('',(-0.00174532570761998,-0.999996953833535,0.00174532570761996));
#1300=DIRECTION('',(0.707106781186544,0.,0.707106781186551));
#1301=DIRECTION('center_axis',(-0.999998476913288,0.00174532836589832,0.));
#1302=DIRECTION('ref_axis',(0.,0.,1.));
#1303=DIRECTION('',(0.00174532570761998,0.999996953833535,0.00174532570761998));
#1304=DIRECTION('',(0.,0.,1.));
#1305=DIRECTION('center_axis',(0.,-0.0348994967025012,-0.999390827019096));
#1306=DIRECTION('ref_axis',(1.,0.,0.));
#1307=DIRECTION('',(-1.,0.,0.));
#1308=DIRECTION('',(-1.,0.,0.));
#1309=DIRECTION('',(0.,-0.999390827019096,0.0348994967025011));
#1310=DIRECTION('',(0.0348994967025011,-0.999390827019096,0.));
#1311=DIRECTION('center_axis',(-0.999390827019096,-0.0348994967025012,0.));
#1312=DIRECTION('ref_axis',(0.,0.,-1.));
#1313=DIRECTION('',(0.,0.,1.));
#1314=DIRECTION('',(0.,0.,1.));
#1315=DIRECTION('',(0.,-0.999390827019096,-0.0348994967025008));
#1316=DIRECTION('center_axis',(0.,-0.0348994967025009,0.999390827019096));
#1317=DIRECTION('ref_axis',(-1.,0.,0.));
#1318=DIRECTION('',(1.,0.,0.));
#1319=DIRECTION('',(1.,0.,0.));
#1320=DIRECTION('',(-0.0348994967025011,-0.999390827019096,0.));
#1321=DIRECTION('center_axis',(0.999390827019096,-0.0348994967025012,0.));
#1322=DIRECTION('ref_axis',(0.,0.,1.));
#1323=DIRECTION('',(0.,0.,-1.));
#1324=DIRECTION('',(0.,0.,-1.));
#1325=DIRECTION('center_axis',(0.,-1.,0.));
#1326=DIRECTION('ref_axis',(0.,0.,-1.));
#1327=DIRECTION('center_axis',(-0.00174532570761998,0.999996953833535,0.00174532570761998));
#1328=DIRECTION('ref_axis',(0.707104627221583,0.00246826328647495,-0.707104627221583));
#1329=DIRECTION('',(0.00174532570761998,-0.999996953833535,-0.00174532570761998));
#1330=DIRECTION('center_axis',(0.,1.,0.));
#1331=DIRECTION('ref_axis',(0.707106781186548,0.,-0.707106781186548));
#1332=DIRECTION('',(-0.00174532570761998,0.999996953833535,0.00174532570761998));
#1333=DIRECTION('center_axis',(0.,1.,0.));
#1334=DIRECTION('ref_axis',(0.,0.,1.));
#1335=DIRECTION('',(0.,0.,-1.));
#1336=DIRECTION('',(-0.707106781186543,0.,0.707106781186552));
#1337=DIRECTION('',(-1.,0.,0.));
#1338=DIRECTION('center_axis',(0.999998476913288,0.00174532836589832,0.));
#1339=DIRECTION('ref_axis',(0.,0.,-1.));
#1340=DIRECTION('center_axis',(-0.707104627221588,0.00246826328647459,-0.707104627221579));
#1341=DIRECTION('ref_axis',(-0.707106781186543,0.,0.707106781186552));
#1342=DIRECTION('',(-0.00174532570761998,-0.999996953833535,-0.00174532570761998));
#1343=DIRECTION('center_axis',(0.,0.00174532836589832,-0.999998476913288));
#1344=DIRECTION('ref_axis',(-1.,0.,0.));
#1345=DIRECTION('center_axis',(0.,1.,0.));
#1346=DIRECTION('ref_axis',(0.,0.,1.));
#1347=CARTESIAN_POINT('',(0.,0.,0.));
#1348=CARTESIAN_POINT('Origin',(147.016027174678,228.,50.6160302208519));
#1349=CARTESIAN_POINT('',(147.016027174678,228.,50.6160302208519));
#1350=CARTESIAN_POINT('',(147.016027174678,228.,38.3839697791481));
#1351=CARTESIAN_POINT('',(147.016027174678,228.,47.5580151104259));
#1352=CARTESIAN_POINT('',(147.016027174678,218.,50.6160302208519));
#1353=CARTESIAN_POINT('',(147.016027174678,228.,50.6160302208519));
#1354=CARTESIAN_POINT('',(147.016027174678,218.,38.3839697791481));
#1355=CARTESIAN_POINT('',(147.016027174678,218.,38.3839697791481));
#1356=CARTESIAN_POINT('',(147.016027174678,228.,38.3839697791481));
#1357=CARTESIAN_POINT('Origin',(145.616031482612,228.,50.616031482612));
#1358=CARTESIAN_POINT('',(145.616030220852,228.,52.0160271746784));
#1359=CARTESIAN_POINT('Origin',(145.616031482612,228.,50.616031482612));
#1360=CARTESIAN_POINT('',(145.616030220852,218.,52.0160271746784));
#1361=CARTESIAN_POINT('',(145.616030220852,228.,52.0160271746784));
#1362=CARTESIAN_POINT('Origin',(145.616031482612,218.,50.616031482612));
#1363=CARTESIAN_POINT('Origin',(133.632504008914,228.,52.0160271746784));
#1364=CARTESIAN_POINT('',(133.632504008914,228.,52.0160271746784));
#1365=CARTESIAN_POINT('',(136.566252004457,228.,52.0160271746784));
#1366=CARTESIAN_POINT('',(133.632504008914,218.,52.0160271746784));
#1367=CARTESIAN_POINT('',(133.632504008914,228.,52.0160271746784));
#1368=CARTESIAN_POINT('',(145.616030220852,218.,52.0160271746784));
#1369=CARTESIAN_POINT('Origin',(131.983972825322,228.,50.3674959910858));
#1370=CARTESIAN_POINT('',(131.983972825322,228.,50.3674959910858));
#1371=CARTESIAN_POINT('',(132.39610562122,228.,50.779628786984));
#1372=CARTESIAN_POINT('',(131.983972825322,218.,50.3674959910858));
#1373=CARTESIAN_POINT('',(131.983972825322,228.,50.3674959910858));
#1374=CARTESIAN_POINT('',(133.632504008914,218.,52.0160271746784));
#1375=CARTESIAN_POINT('Origin',(131.983972825322,228.,38.6325040089141));
#1376=CARTESIAN_POINT('',(131.983972825322,228.,38.6325040089141));
#1377=CARTESIAN_POINT('',(131.983972825322,228.,41.5662520044571));
#1378=CARTESIAN_POINT('',(131.983972825322,218.,38.6325040089141));
#1379=CARTESIAN_POINT('',(131.983972825322,228.,38.6325040089141));
#1380=CARTESIAN_POINT('',(131.983972825322,218.,50.3674959910858));
#1381=CARTESIAN_POINT('Origin',(133.632504008914,228.,36.9839728253215));
#1382=CARTESIAN_POINT('',(133.632504008914,228.,36.9839728253215));
#1383=CARTESIAN_POINT('',(133.220371213016,228.,37.3961056212197));
#1384=CARTESIAN_POINT('',(133.632504008914,218.,36.9839728253215));
#1385=CARTESIAN_POINT('',(133.632504008914,228.,36.9839728253215));
#1386=CARTESIAN_POINT('',(131.983972825322,218.,38.6325040089141));
#1387=CARTESIAN_POINT('Origin',(145.616030220852,228.,36.9839728253215));
#1388=CARTESIAN_POINT('',(145.616030220852,228.,36.9839728253215));
#1389=CARTESIAN_POINT('',(142.558015110426,228.,36.9839728253215));
#1390=CARTESIAN_POINT('',(145.616030220852,218.,36.9839728253215));
#1391=CARTESIAN_POINT('',(145.616030220852,228.,36.9839728253215));
#1392=CARTESIAN_POINT('',(133.632504008914,218.,36.9839728253215));
#1393=CARTESIAN_POINT('Origin',(145.616031482612,228.,38.3839685173875));
#1394=CARTESIAN_POINT('Origin',(145.616031482612,228.,38.3839685173875));
#1395=CARTESIAN_POINT('Origin',(145.616031482612,218.,38.3839685173875));
#1396=CARTESIAN_POINT('Origin',(139.5,218.,44.5));
#1397=CARTESIAN_POINT('',(131.36651951508,218.,38.3665225612484));
#1398=CARTESIAN_POINT('',(133.366522561248,218.,36.3665195150796));
#1399=CARTESIAN_POINT('',(132.366521038164,218.,37.366521038164));
#1400=CARTESIAN_POINT('',(131.36651951508,218.,50.6334774387515));
#1401=CARTESIAN_POINT('',(131.36651951508,218.,48.75));
#1402=CARTESIAN_POINT('',(133.366522561248,218.,52.6334804849203));
#1403=CARTESIAN_POINT('',(132.366521038164,218.,51.6334789618359));
#1404=CARTESIAN_POINT('',(145.633483531094,218.,52.6334804849203));
#1405=CARTESIAN_POINT('',(143.75,218.,52.6334804849203));
#1406=CARTESIAN_POINT('',(147.63348048492,218.,50.6334835310938));
#1407=CARTESIAN_POINT('Origin',(145.633477438742,218.,50.6334774387423));
#1408=CARTESIAN_POINT('',(147.63348048492,218.,38.3665164689062));
#1409=CARTESIAN_POINT('',(147.63348048492,218.,40.25));
#1410=CARTESIAN_POINT('',(145.633483531094,218.,36.3665195150796));
#1411=CARTESIAN_POINT('Origin',(145.633477438742,218.,38.3665225612577));
#1412=CARTESIAN_POINT('',(135.25,218.,36.3665195150796));
#1413=CARTESIAN_POINT('Origin',(145.999983246112,8.00785393112669,50.9999832461123));
#1414=CARTESIAN_POINT('',(146.000003046173,8.,53.));
#1415=CARTESIAN_POINT('',(145.999983246112,8.01134458785849,52.9999801999388));
#1416=CARTESIAN_POINT('',(148.,8.,51.0000030461734));
#1417=CARTESIAN_POINT('Origin',(145.999996953822,8.,50.9999969538219));
#1418=CARTESIAN_POINT('',(147.999980199939,8.01134458785849,50.9999832461123));
#1419=CARTESIAN_POINT('Origin',(148.,8.,53.));
#1420=CARTESIAN_POINT('',(133.000003046169,8.,53.));
#1421=CARTESIAN_POINT('',(133.000022846211,8.0113445772254,52.9999801999574));
#1422=CARTESIAN_POINT('',(2.66453525910038E-14,8.,53.));
#1423=CARTESIAN_POINT('Origin',(132.000021323127,8.0113445772254,51.999978676873));
#1424=CARTESIAN_POINT('',(131.,8.,50.9999969538312));
#1425=CARTESIAN_POINT('',(131.000019800043,8.0113445772254,50.9999771537886));
#1426=CARTESIAN_POINT('',(132.000001523084,8.,51.9999984769156));
#1427=CARTESIAN_POINT('Origin',(131.,8.,53.));
#1428=CARTESIAN_POINT('',(131.,8.,38.0000030461687));
#1429=CARTESIAN_POINT('',(131.000019800043,8.0113445772254,38.0000228462113));
#1430=CARTESIAN_POINT('',(131.,8.,36.));
#1431=CARTESIAN_POINT('Origin',(146.5,8.,49.5012183459618));
#1432=CARTESIAN_POINT('',(145.99364884237,-6.5,49.5012183459618));
#1433=CARTESIAN_POINT('',(145.99364884237,-6.5,39.4987816540382));
#1434=CARTESIAN_POINT('',(145.99364884237,-6.5,39.4987816540382));
#1435=CARTESIAN_POINT('',(146.5,8.,39.4987816540382));
#1436=CARTESIAN_POINT('Ctrl Pts',(146.5,8.,39.4987816540382));
#1437=CARTESIAN_POINT('Ctrl Pts',(146.33121628079,3.16666666666667,39.4987816540382));
#1438=CARTESIAN_POINT('Ctrl Pts',(146.16243256158,-1.66666666666667,39.4987816540382));
#1439=CARTESIAN_POINT('Ctrl Pts',(145.99364884237,-6.5,39.4987816540382));
#1440=CARTESIAN_POINT('',(146.5,8.,49.5012183459618));
#1441=CARTESIAN_POINT('',(146.5,8.,47.0006091729809));
#1442=CARTESIAN_POINT('',(146.5,8.,49.5012183459618));
#1443=CARTESIAN_POINT('Ctrl Pts',(144.501218345962,8.,37.5));
#1444=CARTESIAN_POINT('Ctrl Pts',(144.501218345962,3.16666666666667,37.6687837192101));
#1445=CARTESIAN_POINT('Ctrl Pts',(144.501218345962,-1.66666666666667,37.8375674384202));
#1446=CARTESIAN_POINT('Ctrl Pts',(144.501218345962,-6.5,38.0063511576303));
#1447=CARTESIAN_POINT('Ctrl Pts',(144.94994232146,8.,37.5));
#1448=CARTESIAN_POINT('Ctrl Pts',(144.912198458189,3.16666666666667,37.6689176285279));
#1449=CARTESIAN_POINT('Ctrl Pts',(144.874149269755,-1.66666666666667,37.8374335291023));
#1450=CARTESIAN_POINT('Ctrl Pts',(144.836405406484,-6.5,38.0063511576303));
#1451=CARTESIAN_POINT('Ctrl Pts',(145.998554918776,8.,37.8651033563838));
#1452=CARTESIAN_POINT('Ctrl Pts',(145.872280740094,3.16666666666667,38.0029766109702));
#1453=CARTESIAN_POINT('Ctrl Pts',(145.745527311615,-1.66666666666667,38.1411225196054));
#1454=CARTESIAN_POINT('Ctrl Pts',(145.619253132934,-6.5,38.2789957741918));
#1455=CARTESIAN_POINT('Ctrl Pts',(146.5,8.,38.9004830200405));
#1456=CARTESIAN_POINT('Ctrl Pts',(146.330655295875,3.16666666666667,38.9511642713641));
#1457=CARTESIAN_POINT('Ctrl Pts',(146.162993546495,-1.66666666666667,39.0011843220185));
#1458=CARTESIAN_POINT('Ctrl Pts',(145.99364884237,-6.5,39.0518655733421));
#1459=CARTESIAN_POINT('Ctrl Pts',(146.5,8.,39.4987816540382));
#1460=CARTESIAN_POINT('Ctrl Pts',(146.33121628079,3.16666666666667,39.4987816540382));
#1461=CARTESIAN_POINT('Ctrl Pts',(146.16243256158,-1.66666666666667,39.4987816540382));
#1462=CARTESIAN_POINT('Ctrl Pts',(145.99364884237,-6.5,39.4987816540382));
#1463=CARTESIAN_POINT('',(144.501218345962,-6.5,38.0063511576303));
#1464=CARTESIAN_POINT('Ctrl Pts',(145.99364884237,-6.5,39.4987816540382));
#1465=CARTESIAN_POINT('Ctrl Pts',(145.99364884237,-6.5,39.0518655733421));
#1466=CARTESIAN_POINT('Ctrl Pts',(145.619253132934,-6.5,38.2789957741918));
#1467=CARTESIAN_POINT('Ctrl Pts',(144.836405406484,-6.5,38.0063511576303));
#1468=CARTESIAN_POINT('Ctrl Pts',(144.501218345962,-6.5,38.0063511576303));
#1469=CARTESIAN_POINT('',(144.501218345962,8.,37.5));
#1470=CARTESIAN_POINT('',(144.501218345962,8.,37.5));
#1471=CARTESIAN_POINT('Ctrl Pts',(146.5,8.,39.4987816540382));
#1472=CARTESIAN_POINT('Ctrl Pts',(146.5,8.,38.9004830200405));
#1473=CARTESIAN_POINT('Ctrl Pts',(145.998554918776,8.,37.8651033563838));
#1474=CARTESIAN_POINT('Ctrl Pts',(144.94994232146,8.,37.5));
#1475=CARTESIAN_POINT('Ctrl Pts',(144.501218345962,8.,37.5));
#1476=CARTESIAN_POINT('Origin',(144.501218345962,8.,37.5));
#1477=CARTESIAN_POINT('',(134.498781654038,-6.5,38.0063511576303));
#1478=CARTESIAN_POINT('',(134.498781654038,-6.5,38.0063511576303));
#1479=CARTESIAN_POINT('',(134.498781654038,8.,37.5));
#1480=CARTESIAN_POINT('Ctrl Pts',(134.498781654038,8.,37.5));
#1481=CARTESIAN_POINT('Ctrl Pts',(134.498781654038,3.16666666666667,37.6687837192101));
#1482=CARTESIAN_POINT('Ctrl Pts',(134.498781654038,-1.66666666666667,37.8375674384202));
#1483=CARTESIAN_POINT('Ctrl Pts',(134.498781654038,-6.5,38.0063511576303));
#1484=CARTESIAN_POINT('',(142.000609172981,8.,37.5));
#1485=CARTESIAN_POINT('Ctrl Pts',(132.5,8.,39.4987816540382));
#1486=CARTESIAN_POINT('Ctrl Pts',(132.66878371921,3.16666666666667,39.4987816540382));
#1487=CARTESIAN_POINT('Ctrl Pts',(132.83756743842,-1.66666666666667,39.4987816540382));
#1488=CARTESIAN_POINT('Ctrl Pts',(133.00635115763,-6.5,39.4987816540382));
#1489=CARTESIAN_POINT('Ctrl Pts',(132.5,8.,39.0500576785399));
#1490=CARTESIAN_POINT('Ctrl Pts',(132.668917628528,3.16666666666667,39.0878015418109));
#1491=CARTESIAN_POINT('Ctrl Pts',(132.837433529102,-1.66666666666667,39.1258507302452));
#1492=CARTESIAN_POINT('Ctrl Pts',(133.00635115763,-6.5,39.1635945935161));
#1493=CARTESIAN_POINT('Ctrl Pts',(132.865084036692,8.,38.0014218972245));
#1494=CARTESIAN_POINT('Ctrl Pts',(133.002957291278,3.16666666666667,38.1276960759063));
#1495=CARTESIAN_POINT('Ctrl Pts',(133.141108095054,-1.66666666666667,38.2544554302501));
#1496=CARTESIAN_POINT('Ctrl Pts',(133.27898134964,-6.5,38.3807296089319));
#1497=CARTESIAN_POINT('Ctrl Pts',(133.900483020041,8.,37.5));
#1498=CARTESIAN_POINT('Ctrl Pts',(133.951164271364,3.16666666666667,37.6693447041253));
#1499=CARTESIAN_POINT('Ctrl Pts',(134.001184322019,-1.66666666666667,37.8370064535049));
#1500=CARTESIAN_POINT('Ctrl Pts',(134.051865573342,-6.5,38.0063511576303));
#1501=CARTESIAN_POINT('Ctrl Pts',(134.498781654038,8.,37.5));
#1502=CARTESIAN_POINT('Ctrl Pts',(134.498781654038,3.16666666666667,37.6687837192101));
#1503=CARTESIAN_POINT('Ctrl Pts',(134.498781654038,-1.66666666666667,37.8375674384202));
#1504=CARTESIAN_POINT('Ctrl Pts',(134.498781654038,-6.5,38.0063511576303));
#1505=CARTESIAN_POINT('',(133.00635115763,-6.5,39.4987816540382));
#1506=CARTESIAN_POINT('Ctrl Pts',(134.498781654038,-6.5,38.0063511576303));
#1507=CARTESIAN_POINT('Ctrl Pts',(134.051865573342,-6.5,38.0063511576303));
#1508=CARTESIAN_POINT('Ctrl Pts',(133.27898134964,-6.5,38.3807296089319));
#1509=CARTESIAN_POINT('Ctrl Pts',(133.00635115763,-6.5,39.1635945935161));
#1510=CARTESIAN_POINT('Ctrl Pts',(133.00635115763,-6.5,39.4987816540382));
#1511=CARTESIAN_POINT('',(132.5,8.,39.4987816540382));
#1512=CARTESIAN_POINT('',(132.5,8.,39.4987816540382));
#1513=CARTESIAN_POINT('Ctrl Pts',(134.498781654038,8.,37.5));
#1514=CARTESIAN_POINT('Ctrl Pts',(133.900483020041,8.,37.5));
#1515=CARTESIAN_POINT('Ctrl Pts',(132.865084036692,8.,38.0014218972245));
#1516=CARTESIAN_POINT('Ctrl Pts',(132.5,8.,39.0500576785399));
#1517=CARTESIAN_POINT('Ctrl Pts',(132.5,8.,39.4987816540382));
#1518=CARTESIAN_POINT('Origin',(132.5,8.,39.4987816540382));
#1519=CARTESIAN_POINT('',(133.00635115763,-6.5,49.5012183459618));
#1520=CARTESIAN_POINT('',(133.00635115763,-6.5,49.5012183459618));
#1521=CARTESIAN_POINT('',(132.5,8.,49.5012183459618));
#1522=CARTESIAN_POINT('Ctrl Pts',(132.5,8.,49.5012183459618));
#1523=CARTESIAN_POINT('Ctrl Pts',(132.66878371921,3.16666666666667,49.5012183459618));
#1524=CARTESIAN_POINT('Ctrl Pts',(132.83756743842,-1.66666666666667,49.5012183459618));
#1525=CARTESIAN_POINT('Ctrl Pts',(133.00635115763,-6.5,49.5012183459618));
#1526=CARTESIAN_POINT('',(132.5,8.,41.9993908270191));
#1527=CARTESIAN_POINT('Ctrl Pts',(134.498781654038,8.,51.5));
#1528=CARTESIAN_POINT('Ctrl Pts',(134.498781654038,3.16666666666667,51.3312162807899));
#1529=CARTESIAN_POINT('Ctrl Pts',(134.498781654038,-1.66666666666667,51.1624325615797));
#1530=CARTESIAN_POINT('Ctrl Pts',(134.498781654038,-6.5,50.9936488423696));
#1531=CARTESIAN_POINT('Ctrl Pts',(134.05005767854,8.,51.5));
#1532=CARTESIAN_POINT('Ctrl Pts',(134.087801541811,3.16666666666666,51.331082371472));
#1533=CARTESIAN_POINT('Ctrl Pts',(134.125850730245,-1.66666666666666,51.1625664708976));
#1534=CARTESIAN_POINT('Ctrl Pts',(134.163594593516,-6.5,50.9936488423696));
#1535=CARTESIAN_POINT('Ctrl Pts',(133.001445081224,8.,51.1348966436162));
#1536=CARTESIAN_POINT('Ctrl Pts',(133.127719259906,3.16666666666667,50.9970233890297));
#1537=CARTESIAN_POINT('Ctrl Pts',(133.254472688385,-1.66666666666667,50.8588774803946));
#1538=CARTESIAN_POINT('Ctrl Pts',(133.380746867067,-6.5,50.7210042258081));
#1539=CARTESIAN_POINT('Ctrl Pts',(132.5,8.,50.0995169799594));
#1540=CARTESIAN_POINT('Ctrl Pts',(132.669344704125,3.16666666666666,50.0488357286358));
#1541=CARTESIAN_POINT('Ctrl Pts',(132.837006453505,-1.66666666666667,49.9988156779814));
#1542=CARTESIAN_POINT('Ctrl Pts',(133.00635115763,-6.5,49.9481344266578));
#1543=CARTESIAN_POINT('Ctrl Pts',(132.5,8.,49.5012183459618));
#1544=CARTESIAN_POINT('Ctrl Pts',(132.66878371921,3.16666666666667,49.5012183459618));
#1545=CARTESIAN_POINT('Ctrl Pts',(132.83756743842,-1.66666666666667,49.5012183459618));
#1546=CARTESIAN_POINT('Ctrl Pts',(133.00635115763,-6.5,49.5012183459618));
#1547=CARTESIAN_POINT('',(134.498781654038,-6.5,50.9936488423696));
#1548=CARTESIAN_POINT('Ctrl Pts',(133.00635115763,-6.5,49.5012183459618));
#1549=CARTESIAN_POINT('Ctrl Pts',(133.00635115763,-6.5,49.9481344266578));
#1550=CARTESIAN_POINT('Ctrl Pts',(133.380746867067,-6.5,50.7210042258081));
#1551=CARTESIAN_POINT('Ctrl Pts',(134.163594593516,-6.5,50.9936488423696));
#1552=CARTESIAN_POINT('Ctrl Pts',(134.498781654038,-6.5,50.9936488423696));
#1553=CARTESIAN_POINT('',(134.498781654038,8.,51.5));
#1554=CARTESIAN_POINT('',(134.498781654038,8.,51.5));
#1555=CARTESIAN_POINT('Ctrl Pts',(132.5,8.,49.5012183459618));
#1556=CARTESIAN_POINT('Ctrl Pts',(132.5,8.,50.0995169799594));
#1557=CARTESIAN_POINT('Ctrl Pts',(133.001445081224,8.,51.1348966436162));
#1558=CARTESIAN_POINT('Ctrl Pts',(134.05005767854,8.,51.5));
#1559=CARTESIAN_POINT('Ctrl Pts',(134.498781654038,8.,51.5));
#1560=CARTESIAN_POINT('Origin',(134.498781654038,8.,51.5));
#1561=CARTESIAN_POINT('',(144.501218345962,-6.5,50.9936488423696));
#1562=CARTESIAN_POINT('',(144.501218345962,-6.5,50.9936488423696));
#1563=CARTESIAN_POINT('',(144.501218345962,8.,51.5));
#1564=CARTESIAN_POINT('Ctrl Pts',(144.501218345962,8.,51.5));
#1565=CARTESIAN_POINT('Ctrl Pts',(144.501218345962,3.16666666666667,51.3312162807899));
#1566=CARTESIAN_POINT('Ctrl Pts',(144.501218345962,-1.66666666666667,51.1624325615797));
#1567=CARTESIAN_POINT('Ctrl Pts',(144.501218345962,-6.5,50.9936488423696));
#1568=CARTESIAN_POINT('',(136.999390827019,8.,51.5));
#1569=CARTESIAN_POINT('Ctrl Pts',(146.5,8.,49.5012183459618));
#1570=CARTESIAN_POINT('Ctrl Pts',(146.33121628079,3.16666666666667,49.5012183459618));
#1571=CARTESIAN_POINT('Ctrl Pts',(146.16243256158,-1.66666666666667,49.5012183459618));
#1572=CARTESIAN_POINT('Ctrl Pts',(145.99364884237,-6.5,49.5012183459618));
#1573=CARTESIAN_POINT('Ctrl Pts',(146.5,8.,49.94994232146));
#1574=CARTESIAN_POINT('Ctrl Pts',(146.331082371472,3.16666666666665,49.912198458189));
#1575=CARTESIAN_POINT('Ctrl Pts',(146.162566470898,-1.66666666666665,49.8741492697548));
#1576=CARTESIAN_POINT('Ctrl Pts',(145.99364884237,-6.5,49.8364054064838));
#1577=CARTESIAN_POINT('Ctrl Pts',(146.13488329013,8.,50.9985388943375));
#1578=CARTESIAN_POINT('Ctrl Pts',(145.997010035544,3.16666666666669,50.8722647156557));
#1579=CARTESIAN_POINT('Ctrl Pts',(145.858867510357,-1.66666666666669,50.7455153830473));
#1580=CARTESIAN_POINT('Ctrl Pts',(145.720994255771,-6.5,50.6192412043656));
#1581=CARTESIAN_POINT('Ctrl Pts',(145.09951697996,8.,51.5));
#1582=CARTESIAN_POINT('Ctrl Pts',(145.048835728636,3.16666666666666,51.3306552958746));
#1583=CARTESIAN_POINT('Ctrl Pts',(144.998815677981,-1.66666666666666,51.162993546495));
#1584=CARTESIAN_POINT('Ctrl Pts',(144.948134426658,-6.5,50.9936488423696));
#1585=CARTESIAN_POINT('Ctrl Pts',(144.501218345962,8.,51.5));
#1586=CARTESIAN_POINT('Ctrl Pts',(144.501218345962,3.16666666666667,51.3312162807899));
#1587=CARTESIAN_POINT('Ctrl Pts',(144.501218345962,-1.66666666666667,51.1624325615797));
#1588=CARTESIAN_POINT('Ctrl Pts',(144.501218345962,-6.5,50.9936488423696));
#1589=CARTESIAN_POINT('Ctrl Pts',(144.501218345962,-6.5,50.9936488423696));
#1590=CARTESIAN_POINT('Ctrl Pts',(144.948134426658,-6.5,50.9936488423696));
#1591=CARTESIAN_POINT('Ctrl Pts',(145.720994255771,-6.5,50.6192412043656));
#1592=CARTESIAN_POINT('Ctrl Pts',(145.99364884237,-6.5,49.8364054064838));
#1593=CARTESIAN_POINT('Ctrl Pts',(145.99364884237,-6.5,49.5012183459618));
#1594=CARTESIAN_POINT('Ctrl Pts',(144.501218345962,8.,51.5));
#1595=CARTESIAN_POINT('Ctrl Pts',(145.09951697996,8.,51.5));
#1596=CARTESIAN_POINT('Ctrl Pts',(146.13488329013,8.,50.9985388943375));
#1597=CARTESIAN_POINT('Ctrl Pts',(146.5,8.,49.94994232146));
#1598=CARTESIAN_POINT('Ctrl Pts',(146.5,8.,49.5012183459618));
#1599=CARTESIAN_POINT('Origin',(139.5,-6.5,44.5));
#1600=CARTESIAN_POINT('Origin',(145.999983246112,8.00785393112669,38.0000167538877));
#1601=CARTESIAN_POINT('',(148.,8.,37.9999969538265));
#1602=CARTESIAN_POINT('',(147.999980199939,8.01134458785849,38.0000167538877));
#1603=CARTESIAN_POINT('',(146.000003046173,8.,36.));
#1604=CARTESIAN_POINT('Origin',(145.999996953822,8.,38.000003046178));
#1605=CARTESIAN_POINT('',(145.999983246112,8.01134458785849,36.0000198000611));
#1606=CARTESIAN_POINT('Origin',(139.5,8.,44.5));
#1607=CARTESIAN_POINT('',(148.,8.,53.));
#1608=CARTESIAN_POINT('',(133.000003046169,8.,36.));
#1609=CARTESIAN_POINT('',(132.000001523084,8.,37.0000015230843));
#1610=CARTESIAN_POINT('',(152.,8.,36.));
#1611=CARTESIAN_POINT('Origin',(148.,8.,36.));
#1612=CARTESIAN_POINT('Origin',(132.000021323127,8.0113445772254,37.0000213231269));
#1613=CARTESIAN_POINT('',(133.000022846211,8.0113445772254,36.0000198000426));
#1614=CARTESIAN_POINT('Origin',(131.,8.,36.));
#1615=CARTESIAN_POINT('Origin',(139.5,228.,44.5));
#1616=CARTESIAN_POINT('Origin',(131.983972825322,228.,-50.3674959910858));
#1617=CARTESIAN_POINT('',(131.983972825322,228.,-50.3674959910858));
#1618=CARTESIAN_POINT('',(131.983972825322,228.,-38.6325040089142));
#1619=CARTESIAN_POINT('',(131.983972825322,228.,-47.4337479955429));
#1620=CARTESIAN_POINT('',(131.983972825322,218.,-50.3674959910858));
#1621=CARTESIAN_POINT('',(131.983972825322,228.,-50.3674959910858));
#1622=CARTESIAN_POINT('',(131.983972825322,218.,-38.6325040089142));
#1623=CARTESIAN_POINT('',(131.983972825322,218.,-38.6325040089142));
#1624=CARTESIAN_POINT('',(131.983972825322,228.,-38.6325040089142));
#1625=CARTESIAN_POINT('Origin',(133.632504008914,228.,-52.0160271746785));
#1626=CARTESIAN_POINT('',(133.632504008914,228.,-52.0160271746785));
#1627=CARTESIAN_POINT('',(133.220371213016,228.,-51.6038943787803));
#1628=CARTESIAN_POINT('',(133.632504008914,218.,-52.0160271746785));
#1629=CARTESIAN_POINT('',(133.632504008914,228.,-52.0160271746785));
#1630=CARTESIAN_POINT('',(131.983972825322,218.,-50.3674959910858));
#1631=CARTESIAN_POINT('Origin',(145.616030220852,228.,-52.0160271746785));
#1632=CARTESIAN_POINT('',(145.616030220852,228.,-52.0160271746785));
#1633=CARTESIAN_POINT('',(142.558015110426,228.,-52.0160271746785));
#1634=CARTESIAN_POINT('',(145.616030220852,218.,-52.0160271746785));
#1635=CARTESIAN_POINT('',(145.616030220852,228.,-52.0160271746785));
#1636=CARTESIAN_POINT('',(133.632504008914,218.,-52.0160271746785));
#1637=CARTESIAN_POINT('Origin',(145.616031482612,228.,-50.6160314826121));
#1638=CARTESIAN_POINT('',(147.016027174678,228.,-50.6160302208519));
#1639=CARTESIAN_POINT('Origin',(145.616031482612,228.,-50.6160314826121));
#1640=CARTESIAN_POINT('',(147.016027174678,218.,-50.6160302208519));
#1641=CARTESIAN_POINT('',(147.016027174678,228.,-50.6160302208519));
#1642=CARTESIAN_POINT('Origin',(145.616031482612,218.,-50.6160314826121));
#1643=CARTESIAN_POINT('Origin',(147.016027174678,228.,-38.3839697791481));
#1644=CARTESIAN_POINT('',(147.016027174678,228.,-38.3839697791481));
#1645=CARTESIAN_POINT('',(147.016027174678,228.,-41.4419848895741));
#1646=CARTESIAN_POINT('',(147.016027174678,218.,-38.3839697791481));
#1647=CARTESIAN_POINT('',(147.016027174678,228.,-38.3839697791481));
#1648=CARTESIAN_POINT('',(147.016027174678,218.,-50.6160302208519));
#1649=CARTESIAN_POINT('Origin',(145.616031482612,228.,-38.383968517388));
#1650=CARTESIAN_POINT('',(145.616030220852,228.,-36.9839728253216));
#1651=CARTESIAN_POINT('Origin',(145.616031482612,228.,-38.383968517388));
#1652=CARTESIAN_POINT('',(145.616030220852,218.,-36.9839728253216));
#1653=CARTESIAN_POINT('',(145.616030220852,228.,-36.9839728253216));
#1654=CARTESIAN_POINT('Origin',(145.616031482612,218.,-38.383968517388));
#1655=CARTESIAN_POINT('Origin',(133.632504008914,228.,-36.9839728253216));
#1656=CARTESIAN_POINT('',(133.632504008914,228.,-36.9839728253216));
#1657=CARTESIAN_POINT('',(136.566252004457,228.,-36.9839728253215));
#1658=CARTESIAN_POINT('',(133.632504008914,218.,-36.9839728253216));
#1659=CARTESIAN_POINT('',(133.632504008914,228.,-36.9839728253216));
#1660=CARTESIAN_POINT('',(145.616030220852,218.,-36.9839728253216));
#1661=CARTESIAN_POINT('Origin',(131.983972825322,228.,-38.6325040089142));
#1662=CARTESIAN_POINT('',(132.39610562122,228.,-38.220371213016));
#1663=CARTESIAN_POINT('',(133.632504008914,218.,-36.9839728253216));
#1664=CARTESIAN_POINT('Origin',(139.5,218.,-44.5));
#1665=CARTESIAN_POINT('',(131.36651951508,218.,-50.6334774387516));
#1666=CARTESIAN_POINT('',(133.366522561248,218.,-52.6334804849204));
#1667=CARTESIAN_POINT('',(132.366521038164,218.,-51.6334789618359));
#1668=CARTESIAN_POINT('',(131.36651951508,218.,-38.3665225612484));
#1669=CARTESIAN_POINT('',(131.36651951508,218.,-40.25));
#1670=CARTESIAN_POINT('',(133.366522561248,218.,-36.3665195150797));
#1671=CARTESIAN_POINT('',(132.366521038164,218.,-37.3665210381641));
#1672=CARTESIAN_POINT('',(145.633483531094,218.,-36.3665195150797));
#1673=CARTESIAN_POINT('',(143.75,218.,-36.3665195150797));
#1674=CARTESIAN_POINT('',(147.63348048492,218.,-38.3665164689062));
#1675=CARTESIAN_POINT('Origin',(145.633477438742,218.,-38.3665225612577));
#1676=CARTESIAN_POINT('',(147.63348048492,218.,-50.6334835310938));
#1677=CARTESIAN_POINT('',(147.63348048492,218.,-48.75));
#1678=CARTESIAN_POINT('',(145.633483531094,218.,-52.6334804849204));
#1679=CARTESIAN_POINT('Origin',(145.633477438742,218.,-50.6334774387423));
#1680=CARTESIAN_POINT('',(135.25,218.,-52.6334804849204));
#1681=CARTESIAN_POINT('Origin',(145.999983246112,8.00785393112669,-38.0000167538877));
#1682=CARTESIAN_POINT('',(146.000003046173,8.,-36.));
#1683=CARTESIAN_POINT('',(145.999983246112,8.01134458785849,-36.0000198000612));
#1684=CARTESIAN_POINT('',(148.,8.,-37.9999969538266));
#1685=CARTESIAN_POINT('Origin',(145.999996953822,8.,-38.0000030461781));
#1686=CARTESIAN_POINT('',(147.999980199939,8.01134458785849,-38.0000167538877));
#1687=CARTESIAN_POINT('Origin',(148.,8.,-36.));
#1688=CARTESIAN_POINT('',(133.000003046169,8.,-36.));
#1689=CARTESIAN_POINT('',(133.000022846211,8.0113445772254,-36.0000198000426));
#1690=CARTESIAN_POINT('',(131.,8.,-36.));
#1691=CARTESIAN_POINT('Origin',(132.000021323127,8.0113445772254,-37.000021323127));
#1692=CARTESIAN_POINT('',(131.,8.,-38.0000030461688));
#1693=CARTESIAN_POINT('',(131.000019800043,8.0113445772254,-38.0000228462114));
#1694=CARTESIAN_POINT('',(132.000001523084,8.,-37.0000015230844));
#1695=CARTESIAN_POINT('Origin',(131.,8.,-36.));
#1696=CARTESIAN_POINT('',(131.,8.,-50.9999969538312));
#1697=CARTESIAN_POINT('',(131.000019800043,8.0113445772254,-50.9999771537886));
#1698=CARTESIAN_POINT('',(131.,8.,-53.));
#1699=CARTESIAN_POINT('Origin',(144.501218345962,8.,-51.5));
#1700=CARTESIAN_POINT('',(144.501218345962,-6.5,-50.9936488423697));
#1701=CARTESIAN_POINT('',(134.498781654038,-6.5,-50.9936488423697));
#1702=CARTESIAN_POINT('',(134.498781654038,-6.5,-50.9936488423697));
#1703=CARTESIAN_POINT('',(134.498781654038,8.,-51.5));
#1704=CARTESIAN_POINT('Ctrl Pts',(134.498781654038,8.,-51.5));
#1705=CARTESIAN_POINT('Ctrl Pts',(134.498781654038,3.16666666666667,-51.3312162807899));
#1706=CARTESIAN_POINT('Ctrl Pts',(134.498781654038,-1.66666666666667,-51.1624325615798));
#1707=CARTESIAN_POINT('Ctrl Pts',(134.498781654038,-6.5,-50.9936488423697));
#1708=CARTESIAN_POINT('',(144.501218345962,8.,-51.5));
#1709=CARTESIAN_POINT('',(142.000609172981,8.,-51.5));
#1710=CARTESIAN_POINT('',(144.501218345962,8.,-51.5));
#1711=CARTESIAN_POINT('Ctrl Pts',(132.5,8.,-49.5012183459618));
#1712=CARTESIAN_POINT('Ctrl Pts',(132.66878371921,3.16666666666667,-49.5012183459618));
#1713=CARTESIAN_POINT('Ctrl Pts',(132.83756743842,-1.66666666666667,-49.5012183459618));
#1714=CARTESIAN_POINT('Ctrl Pts',(133.00635115763,-6.5,-49.5012183459618));
#1715=CARTESIAN_POINT('Ctrl Pts',(132.5,8.,-50.0995169799595));
#1716=CARTESIAN_POINT('Ctrl Pts',(132.669344704125,3.16666666666667,-50.0488357286359));
#1717=CARTESIAN_POINT('Ctrl Pts',(132.837006453505,-1.66666666666667,-49.9988156779815));
#1718=CARTESIAN_POINT('Ctrl Pts',(133.00635115763,-6.5,-49.9481344266578));
#1719=CARTESIAN_POINT('Ctrl Pts',(133.001445081224,8.,-51.1348966436162));
#1720=CARTESIAN_POINT('Ctrl Pts',(133.127719259906,3.16666666666667,-50.9970233890298));
#1721=CARTESIAN_POINT('Ctrl Pts',(133.254472688385,-1.66666666666667,-50.8588774803946));
#1722=CARTESIAN_POINT('Ctrl Pts',(133.380746867067,-6.5,-50.7210042258082));
#1723=CARTESIAN_POINT('Ctrl Pts',(134.05005767854,8.,-51.5));
#1724=CARTESIAN_POINT('Ctrl Pts',(134.087801541811,3.16666666666667,-51.3310823714721));
#1725=CARTESIAN_POINT('Ctrl Pts',(134.125850730245,-1.66666666666667,-51.1625664708976));
#1726=CARTESIAN_POINT('Ctrl Pts',(134.163594593516,-6.5,-50.9936488423697));
#1727=CARTESIAN_POINT('Ctrl Pts',(134.498781654038,8.,-51.5));
#1728=CARTESIAN_POINT('Ctrl Pts',(134.498781654038,3.16666666666667,-51.3312162807899));
#1729=CARTESIAN_POINT('Ctrl Pts',(134.498781654038,-1.66666666666667,-51.1624325615798));
#1730=CARTESIAN_POINT('Ctrl Pts',(134.498781654038,-6.5,-50.9936488423697));
#1731=CARTESIAN_POINT('',(133.00635115763,-6.5,-49.5012183459618));
#1732=CARTESIAN_POINT('Ctrl Pts',(134.498781654038,-6.5,-50.9936488423697));
#1733=CARTESIAN_POINT('Ctrl Pts',(134.163594593516,-6.5,-50.9936488423697));
#1734=CARTESIAN_POINT('Ctrl Pts',(133.380746867067,-6.5,-50.7210042258082));
#1735=CARTESIAN_POINT('Ctrl Pts',(133.00635115763,-6.5,-49.9481344266578));
#1736=CARTESIAN_POINT('Ctrl Pts',(133.00635115763,-6.5,-49.5012183459618));
#1737=CARTESIAN_POINT('',(132.5,8.,-49.5012183459618));
#1738=CARTESIAN_POINT('',(132.5,8.,-49.5012183459618));
#1739=CARTESIAN_POINT('Ctrl Pts',(134.498781654038,8.,-51.5));
#1740=CARTESIAN_POINT('Ctrl Pts',(134.05005767854,8.,-51.5));
#1741=CARTESIAN_POINT('Ctrl Pts',(133.001445081224,8.,-51.1348966436162));
#1742=CARTESIAN_POINT('Ctrl Pts',(132.5,8.,-50.0995169799595));
#1743=CARTESIAN_POINT('Ctrl Pts',(132.5,8.,-49.5012183459618));
#1744=CARTESIAN_POINT('Origin',(132.5,8.,-49.5012183459618));
#1745=CARTESIAN_POINT('',(133.00635115763,-6.5,-39.4987816540382));
#1746=CARTESIAN_POINT('',(133.00635115763,-6.5,-39.4987816540382));
#1747=CARTESIAN_POINT('',(132.5,8.,-39.4987816540382));
#1748=CARTESIAN_POINT('Ctrl Pts',(132.5,8.,-39.4987816540382));
#1749=CARTESIAN_POINT('Ctrl Pts',(132.66878371921,3.16666666666667,-39.4987816540382));
#1750=CARTESIAN_POINT('Ctrl Pts',(132.83756743842,-1.66666666666667,-39.4987816540382));
#1751=CARTESIAN_POINT('Ctrl Pts',(133.00635115763,-6.5,-39.4987816540382));
#1752=CARTESIAN_POINT('',(132.5,8.,-47.0006091729809));
#1753=CARTESIAN_POINT('Ctrl Pts',(134.498781654038,8.,-37.5));
#1754=CARTESIAN_POINT('Ctrl Pts',(134.498781654038,3.16666666666667,-37.6687837192101));
#1755=CARTESIAN_POINT('Ctrl Pts',(134.498781654038,-1.66666666666667,-37.8375674384202));
#1756=CARTESIAN_POINT('Ctrl Pts',(134.498781654038,-6.5,-38.0063511576304));
#1757=CARTESIAN_POINT('Ctrl Pts',(134.05005767854,8.,-37.5));
#1758=CARTESIAN_POINT('Ctrl Pts',(134.087801541811,3.16666666666666,-37.668917628528));
#1759=CARTESIAN_POINT('Ctrl Pts',(134.125850730245,-1.66666666666667,-37.8374335291024));
#1760=CARTESIAN_POINT('Ctrl Pts',(134.163594593516,-6.5,-38.0063511576304));
#1761=CARTESIAN_POINT('Ctrl Pts',(133.001421897224,8.,-37.8650840366919));
#1762=CARTESIAN_POINT('Ctrl Pts',(133.127696075906,3.16666666666667,-38.0029572912784));
#1763=CARTESIAN_POINT('Ctrl Pts',(133.25445543025,-1.66666666666667,-38.1411080950537));
#1764=CARTESIAN_POINT('Ctrl Pts',(133.380729608932,-6.5,-38.2789813496401));
#1765=CARTESIAN_POINT('Ctrl Pts',(132.5,8.,-38.9004830200405));
#1766=CARTESIAN_POINT('Ctrl Pts',(132.669344704125,3.16666666666667,-38.9511642713642));
#1767=CARTESIAN_POINT('Ctrl Pts',(132.837006453505,-1.66666666666667,-39.0011843220186));
#1768=CARTESIAN_POINT('Ctrl Pts',(133.00635115763,-6.5,-39.0518655733422));
#1769=CARTESIAN_POINT('Ctrl Pts',(132.5,8.,-39.4987816540382));
#1770=CARTESIAN_POINT('Ctrl Pts',(132.66878371921,3.16666666666667,-39.4987816540382));
#1771=CARTESIAN_POINT('Ctrl Pts',(132.83756743842,-1.66666666666667,-39.4987816540382));
#1772=CARTESIAN_POINT('Ctrl Pts',(133.00635115763,-6.5,-39.4987816540382));
#1773=CARTESIAN_POINT('',(134.498781654038,-6.5,-38.0063511576304));
#1774=CARTESIAN_POINT('Ctrl Pts',(133.00635115763,-6.5,-39.4987816540382));
#1775=CARTESIAN_POINT('Ctrl Pts',(133.00635115763,-6.5,-39.0518655733422));
#1776=CARTESIAN_POINT('Ctrl Pts',(133.380729608932,-6.5,-38.2789813496401));
#1777=CARTESIAN_POINT('Ctrl Pts',(134.163594593516,-6.5,-38.0063511576304));
#1778=CARTESIAN_POINT('Ctrl Pts',(134.498781654038,-6.5,-38.0063511576304));
#1779=CARTESIAN_POINT('',(134.498781654038,8.,-37.5));
#1780=CARTESIAN_POINT('',(134.498781654038,8.,-37.5));
#1781=CARTESIAN_POINT('Ctrl Pts',(132.5,8.,-39.4987816540382));
#1782=CARTESIAN_POINT('Ctrl Pts',(132.5,8.,-38.9004830200405));
#1783=CARTESIAN_POINT('Ctrl Pts',(133.001421897224,8.,-37.8650840366919));
#1784=CARTESIAN_POINT('Ctrl Pts',(134.05005767854,8.,-37.5));
#1785=CARTESIAN_POINT('Ctrl Pts',(134.498781654038,8.,-37.5));
#1786=CARTESIAN_POINT('Origin',(134.498781654038,8.,-37.5));
#1787=CARTESIAN_POINT('',(144.501218345962,-6.5,-38.0063511576304));
#1788=CARTESIAN_POINT('',(144.501218345962,-6.5,-38.0063511576304));
#1789=CARTESIAN_POINT('',(144.501218345962,8.,-37.5));
#1790=CARTESIAN_POINT('Ctrl Pts',(144.501218345962,8.,-37.5));
#1791=CARTESIAN_POINT('Ctrl Pts',(144.501218345962,3.16666666666667,-37.6687837192101));
#1792=CARTESIAN_POINT('Ctrl Pts',(144.501218345962,-1.66666666666667,-37.8375674384202));
#1793=CARTESIAN_POINT('Ctrl Pts',(144.501218345962,-6.5,-38.0063511576304));
#1794=CARTESIAN_POINT('',(136.999390827019,8.,-37.5));
#1795=CARTESIAN_POINT('Ctrl Pts',(146.5,8.,-39.4987816540382));
#1796=CARTESIAN_POINT('Ctrl Pts',(146.33121628079,3.16666666666667,-39.4987816540382));
#1797=CARTESIAN_POINT('Ctrl Pts',(146.16243256158,-1.66666666666667,-39.4987816540382));
#1798=CARTESIAN_POINT('Ctrl Pts',(145.99364884237,-6.5,-39.4987816540382));
#1799=CARTESIAN_POINT('Ctrl Pts',(146.5,8.,-39.05005767854));
#1800=CARTESIAN_POINT('Ctrl Pts',(146.331082371472,3.16666666666666,-39.0878015418109));
#1801=CARTESIAN_POINT('Ctrl Pts',(146.162566470898,-1.66666666666666,-39.1258507302452));
#1802=CARTESIAN_POINT('Ctrl Pts',(145.99364884237,-6.5,-39.1635945935162));
#1803=CARTESIAN_POINT('Ctrl Pts',(146.134896643616,8.,-38.0014450812242));
#1804=CARTESIAN_POINT('Ctrl Pts',(145.99702338903,3.16666666666667,-38.127719259906));
#1805=CARTESIAN_POINT('Ctrl Pts',(145.858877480395,-1.66666666666667,-38.2544726883848));
#1806=CARTESIAN_POINT('Ctrl Pts',(145.721004225808,-6.5,-38.3807468670666));
#1807=CARTESIAN_POINT('Ctrl Pts',(145.099516979959,8.,-37.5));
#1808=CARTESIAN_POINT('Ctrl Pts',(145.048835728636,3.16666666666667,-37.6693447041254));
#1809=CARTESIAN_POINT('Ctrl Pts',(144.998815677981,-1.66666666666667,-37.837006453505));
#1810=CARTESIAN_POINT('Ctrl Pts',(144.948134426658,-6.5,-38.0063511576304));
#1811=CARTESIAN_POINT('Ctrl Pts',(144.501218345962,8.,-37.5));
#1812=CARTESIAN_POINT('Ctrl Pts',(144.501218345962,3.16666666666667,-37.6687837192101));
#1813=CARTESIAN_POINT('Ctrl Pts',(144.501218345962,-1.66666666666667,-37.8375674384202));
#1814=CARTESIAN_POINT('Ctrl Pts',(144.501218345962,-6.5,-38.0063511576304));
#1815=CARTESIAN_POINT('',(145.99364884237,-6.5,-39.4987816540382));
#1816=CARTESIAN_POINT('Ctrl Pts',(144.501218345962,-6.5,-38.0063511576304));
#1817=CARTESIAN_POINT('Ctrl Pts',(144.948134426658,-6.5,-38.0063511576304));
#1818=CARTESIAN_POINT('Ctrl Pts',(145.721004225808,-6.5,-38.3807468670666));
#1819=CARTESIAN_POINT('Ctrl Pts',(145.99364884237,-6.5,-39.1635945935162));
#1820=CARTESIAN_POINT('Ctrl Pts',(145.99364884237,-6.5,-39.4987816540382));
#1821=CARTESIAN_POINT('',(146.5,8.,-39.4987816540382));
#1822=CARTESIAN_POINT('',(146.5,8.,-39.4987816540382));
#1823=CARTESIAN_POINT('Ctrl Pts',(144.501218345962,8.,-37.5));
#1824=CARTESIAN_POINT('Ctrl Pts',(145.099516979959,8.,-37.5));
#1825=CARTESIAN_POINT('Ctrl Pts',(146.134896643616,8.,-38.0014450812242));
#1826=CARTESIAN_POINT('Ctrl Pts',(146.5,8.,-39.05005767854));
#1827=CARTESIAN_POINT('Ctrl Pts',(146.5,8.,-39.4987816540382));
#1828=CARTESIAN_POINT('Origin',(146.5,8.,-39.4987816540382));
#1829=CARTESIAN_POINT('',(145.99364884237,-6.5,-49.5012183459618));
#1830=CARTESIAN_POINT('',(145.99364884237,-6.5,-49.5012183459618));
#1831=CARTESIAN_POINT('',(146.5,8.,-49.5012183459618));
#1832=CARTESIAN_POINT('Ctrl Pts',(146.5,8.,-49.5012183459618));
#1833=CARTESIAN_POINT('Ctrl Pts',(146.33121628079,3.16666666666667,-49.5012183459618));
#1834=CARTESIAN_POINT('Ctrl Pts',(146.16243256158,-1.66666666666667,-49.5012183459618));
#1835=CARTESIAN_POINT('Ctrl Pts',(145.99364884237,-6.5,-49.5012183459618));
#1836=CARTESIAN_POINT('',(146.5,8.,-41.9993908270191));
#1837=CARTESIAN_POINT('Ctrl Pts',(144.501218345962,8.,-51.5));
#1838=CARTESIAN_POINT('Ctrl Pts',(144.501218345962,3.16666666666667,-51.3312162807899));
#1839=CARTESIAN_POINT('Ctrl Pts',(144.501218345962,-1.66666666666667,-51.1624325615798));
#1840=CARTESIAN_POINT('Ctrl Pts',(144.501218345962,-6.5,-50.9936488423697));
#1841=CARTESIAN_POINT('Ctrl Pts',(145.099516979959,8.,-51.5));
#1842=CARTESIAN_POINT('Ctrl Pts',(145.048835728636,3.16666666666667,-51.3306552958747));
#1843=CARTESIAN_POINT('Ctrl Pts',(144.998815677981,-1.66666666666667,-51.162993546495));
#1844=CARTESIAN_POINT('Ctrl Pts',(144.948134426658,-6.5,-50.9936488423697));
#1845=CARTESIAN_POINT('Ctrl Pts',(146.13488329013,8.,-50.9985388943375));
#1846=CARTESIAN_POINT('Ctrl Pts',(145.997010035544,3.16666666666667,-50.8722647156557));
#1847=CARTESIAN_POINT('Ctrl Pts',(145.858867510357,-1.66666666666666,-50.7455153830474));
#1848=CARTESIAN_POINT('Ctrl Pts',(145.720994255771,-6.5,-50.6192412043656));
#1849=CARTESIAN_POINT('Ctrl Pts',(146.5,8.,-49.9499423214601));
#1850=CARTESIAN_POINT('Ctrl Pts',(146.331082371472,3.16666666666667,-49.9121984581891));
#1851=CARTESIAN_POINT('Ctrl Pts',(146.162566470898,-1.66666666666667,-49.8741492697548));
#1852=CARTESIAN_POINT('Ctrl Pts',(145.99364884237,-6.5,-49.8364054064838));
#1853=CARTESIAN_POINT('Ctrl Pts',(146.5,8.,-49.5012183459618));
#1854=CARTESIAN_POINT('Ctrl Pts',(146.33121628079,3.16666666666667,-49.5012183459618));
#1855=CARTESIAN_POINT('Ctrl Pts',(146.16243256158,-1.66666666666667,-49.5012183459618));
#1856=CARTESIAN_POINT('Ctrl Pts',(145.99364884237,-6.5,-49.5012183459618));
#1857=CARTESIAN_POINT('Ctrl Pts',(145.99364884237,-6.5,-49.5012183459618));
#1858=CARTESIAN_POINT('Ctrl Pts',(145.99364884237,-6.5,-49.8364054064838));
#1859=CARTESIAN_POINT('Ctrl Pts',(145.720994255771,-6.5,-50.6192412043656));
#1860=CARTESIAN_POINT('Ctrl Pts',(144.948134426658,-6.5,-50.9936488423697));
#1861=CARTESIAN_POINT('Ctrl Pts',(144.501218345962,-6.5,-50.9936488423697));
#1862=CARTESIAN_POINT('Ctrl Pts',(146.5,8.,-49.5012183459618));
#1863=CARTESIAN_POINT('Ctrl Pts',(146.5,8.,-49.9499423214601));
#1864=CARTESIAN_POINT('Ctrl Pts',(146.13488329013,8.,-50.9985388943375));
#1865=CARTESIAN_POINT('Ctrl Pts',(145.099516979959,8.,-51.5));
#1866=CARTESIAN_POINT('Ctrl Pts',(144.501218345962,8.,-51.5));
#1867=CARTESIAN_POINT('Origin',(139.5,-6.5,-44.5));
#1868=CARTESIAN_POINT('Origin',(145.999983246112,8.00785393112669,-50.9999832461123));
#1869=CARTESIAN_POINT('',(148.,8.,-51.0000030461734));
#1870=CARTESIAN_POINT('',(147.999980199939,8.01134458785849,-50.9999832461123));
#1871=CARTESIAN_POINT('',(146.000003046173,8.,-53.));
#1872=CARTESIAN_POINT('Origin',(145.999996953822,8.,-50.999996953822));
#1873=CARTESIAN_POINT('',(145.999983246112,8.01134458785849,-52.9999801999389));
#1874=CARTESIAN_POINT('Origin',(139.5,8.,-44.5));
#1875=CARTESIAN_POINT('',(148.,8.,-36.));
#1876=CARTESIAN_POINT('',(133.000003046169,8.,-53.));
#1877=CARTESIAN_POINT('',(132.000001523084,8.,-51.9999984769156));
#1878=CARTESIAN_POINT('',(152.,8.,-53.));
#1879=CARTESIAN_POINT('Origin',(148.,8.,-53.));
#1880=CARTESIAN_POINT('Origin',(132.000021323127,8.0113445772254,-51.999978676873));
#1881=CARTESIAN_POINT('',(133.000022846211,8.0113445772254,-52.9999801999574));
#1882=CARTESIAN_POINT('Origin',(131.,8.,-53.));
#1883=CARTESIAN_POINT('Origin',(139.5,228.,-44.5));
#1884=UNCERTAINTY_MEASURE_WITH_UNIT(LENGTH_MEASURE(0.01),#1888,
'DISTANCE_ACCURACY_VALUE',
'Maximum model space distance between geometric entities at asserted c
onnectivities');
#1885=UNCERTAINTY_MEASURE_WITH_UNIT(LENGTH_MEASURE(0.01),#1888,
'DISTANCE_ACCURACY_VALUE',
'Maximum model space distance between geometric entities at asserted c
onnectivities');
#1886=(
GEOMETRIC_REPRESENTATION_CONTEXT(3)
GLOBAL_UNCERTAINTY_ASSIGNED_CONTEXT((#1884))
GLOBAL_UNIT_ASSIGNED_CONTEXT((#1888,#1890,#1891))
REPRESENTATION_CONTEXT('','3D')
);
#1887=(
GEOMETRIC_REPRESENTATION_CONTEXT(3)
GLOBAL_UNCERTAINTY_ASSIGNED_CONTEXT((#1885))
GLOBAL_UNIT_ASSIGNED_CONTEXT((#1888,#1890,#1891))
REPRESENTATION_CONTEXT('','3D')
);
#1888=(
LENGTH_UNIT()
NAMED_UNIT(*)
SI_UNIT(.MILLI.,.METRE.)
);
#1889=(
LENGTH_UNIT()
NAMED_UNIT(*)
SI_UNIT(.CENTI.,.METRE.)
);
#1890=(
NAMED_UNIT(*)
PLANE_ANGLE_UNIT()
SI_UNIT($,.RADIAN.)
);
#1891=(
NAMED_UNIT(*)
SI_UNIT($,.STERADIAN.)
SOLID_ANGLE_UNIT()
);
#1892=SHAPE_DEFINITION_REPRESENTATION(#1893,#1894);
#1893=PRODUCT_DEFINITION_SHAPE('',$,#1896);
#1894=SHAPE_REPRESENTATION('',(#1048),#1886);
#1895=PRODUCT_DEFINITION_CONTEXT('part definition',#1900,'design');
#1896=PRODUCT_DEFINITION('leggie-boys','leggie-boys',#1897,#1895);
#1897=PRODUCT_DEFINITION_FORMATION('',$,#1902);
#1898=PRODUCT_RELATED_PRODUCT_CATEGORY('leggie-boys','leggie-boys',(#1902));
#1899=APPLICATION_PROTOCOL_DEFINITION('international standard',
'automotive_design',2009,#1900);
#1900=APPLICATION_CONTEXT(
'Core Data for Automotive Mechanical Design Process');
#1901=PRODUCT_CONTEXT('part definition',#1900,'mechanical');
#1902=PRODUCT('leggie-boys','leggie-boys',$,(#1901));
#1903=PRESENTATION_STYLE_ASSIGNMENT((#1904));
#1904=SURFACE_STYLE_USAGE(.BOTH.,#1907);
#1905=SURFACE_STYLE_RENDERING_WITH_PROPERTIES($,#1911,(#1906));
#1906=SURFACE_STYLE_TRANSPARENT(0.);
#1907=SURFACE_SIDE_STYLE('',(#1908,#1905));
#1908=SURFACE_STYLE_FILL_AREA(#1909);
#1909=FILL_AREA_STYLE('',(#1910));
#1910=FILL_AREA_STYLE_COLOUR('',#1911);
#1911=COLOUR_RGB('',0.749019607843137,0.749019607843137,0.749019607843137);
ENDSEC;
END-ISO-10303-21;
