ISO-10303-21;
HEADER;
/* Generated by software containing ST-Developer
 * from STEP Tools, Inc. (www.steptools.com) 
 */

FILE_DESCRIPTION(
/* description */ (''),
/* implementation_level */ '2;1');

FILE_NAME(
/* name */ 'h6-case.stp',
/* time_stamp */ '2025-08-18T15:16:52+01:00',
/* author */ ('iwheard'),
/* organization */ (''),
/* preprocessor_version */ 'ST-DEVELOPER v20',
/* originating_system */ 'Autodesk Inventor 2024',
/* authorisation */ '');

FILE_SCHEMA (('AUTOMOTIVE_DESIGN { 1 0 10303 214 3 1 1 }'));
ENDSEC;

DATA;
#10=MECHANICAL_DESIGN_GEOMETRIC_PRESENTATION_REPRESENTATION('',(#13),#928);
#11=SHAPE_REPRESENTATION_RELATIONSHIP('SRR','None',#935,#12);
#12=ADVANCED_BREP_SHAPE_REPRESENTATION('',(#14),#927);
#13=STYLED_ITEM('',(#944),#14);
#14=MANIFOLD_SOLID_BREP('Solid1',#575);
#15=FACE_BOUND('',#51,.T.);
#16=FACE_OUTER_BOUND('',#45,.T.);
#17=FACE_OUTER_BOUND('',#46,.T.);
#18=FACE_OUTER_BOUND('',#47,.T.);
#19=FACE_OUTER_BOUND('',#48,.T.);
#20=FACE_OUTER_BOUND('',#49,.T.);
#21=FACE_OUTER_BOUND('',#50,.T.);
#22=FACE_OUTER_BOUND('',#52,.T.);
#23=FACE_OUTER_BOUND('',#53,.T.);
#24=FACE_OUTER_BOUND('',#54,.T.);
#25=FACE_OUTER_BOUND('',#55,.T.);
#26=FACE_OUTER_BOUND('',#56,.T.);
#27=FACE_OUTER_BOUND('',#57,.T.);
#28=FACE_OUTER_BOUND('',#58,.T.);
#29=FACE_OUTER_BOUND('',#59,.T.);
#30=FACE_OUTER_BOUND('',#60,.T.);
#31=FACE_OUTER_BOUND('',#61,.T.);
#32=FACE_OUTER_BOUND('',#62,.T.);
#33=FACE_OUTER_BOUND('',#63,.T.);
#34=FACE_OUTER_BOUND('',#64,.T.);
#35=FACE_OUTER_BOUND('',#65,.T.);
#36=FACE_OUTER_BOUND('',#66,.T.);
#37=FACE_OUTER_BOUND('',#67,.T.);
#38=FACE_OUTER_BOUND('',#68,.T.);
#39=FACE_OUTER_BOUND('',#69,.T.);
#40=FACE_OUTER_BOUND('',#70,.T.);
#41=FACE_OUTER_BOUND('',#71,.T.);
#42=FACE_OUTER_BOUND('',#72,.T.);
#43=FACE_OUTER_BOUND('',#73,.T.);
#44=FACE_OUTER_BOUND('',#74,.T.);
#45=EDGE_LOOP('',(#361,#362,#363,#364));
#46=EDGE_LOOP('',(#365,#366,#367,#368));
#47=EDGE_LOOP('',(#369,#370,#371,#372));
#48=EDGE_LOOP('',(#373,#374,#375,#376));
#49=EDGE_LOOP('',(#377,#378,#379,#380));
#50=EDGE_LOOP('',(#381,#382,#383,#384,#385,#386,#387,#388));
#51=EDGE_LOOP('',(#389,#390,#391,#392,#393,#394,#395,#396,#397,#398,#399,
#400,#401,#402,#403,#404,#405,#406));
#52=EDGE_LOOP('',(#407,#408,#409,#410));
#53=EDGE_LOOP('',(#411,#412,#413,#414,#415,#416,#417,#418,#419,#420,#421,
#422,#423,#424,#425,#426,#427,#428));
#54=EDGE_LOOP('',(#429,#430,#431,#432,#433,#434,#435,#436));
#55=EDGE_LOOP('',(#437,#438,#439,#440));
#56=EDGE_LOOP('',(#441,#442,#443,#444));
#57=EDGE_LOOP('',(#445,#446,#447,#448));
#58=EDGE_LOOP('',(#449,#450,#451,#452));
#59=EDGE_LOOP('',(#453,#454,#455,#456));
#60=EDGE_LOOP('',(#457,#458,#459,#460));
#61=EDGE_LOOP('',(#461,#462,#463,#464));
#62=EDGE_LOOP('',(#465,#466,#467,#468));
#63=EDGE_LOOP('',(#469,#470,#471,#472));
#64=EDGE_LOOP('',(#473,#474,#475,#476));
#65=EDGE_LOOP('',(#477,#478,#479,#480));
#66=EDGE_LOOP('',(#481,#482,#483,#484));
#67=EDGE_LOOP('',(#485,#486,#487,#488));
#68=EDGE_LOOP('',(#489,#490,#491,#492));
#69=EDGE_LOOP('',(#493,#494,#495,#496));
#70=EDGE_LOOP('',(#497,#498,#499,#500));
#71=EDGE_LOOP('',(#501,#502,#503,#504));
#72=EDGE_LOOP('',(#505,#506,#507,#508));
#73=EDGE_LOOP('',(#509,#510,#511,#512));
#74=EDGE_LOOP('',(#513,#514,#515,#516));
#75=LINE('',#769,#153);
#76=LINE('',#771,#154);
#77=LINE('',#773,#155);
#78=LINE('',#774,#156);
#79=LINE('',#778,#157);
#80=LINE('',#780,#158);
#81=LINE('',#782,#159);
#82=LINE('',#783,#160);
#83=LINE('',#787,#161);
#84=LINE('',#789,#162);
#85=LINE('',#791,#163);
#86=LINE('',#792,#164);
#87=LINE('',#796,#165);
#88=LINE('',#798,#166);
#89=LINE('',#800,#167);
#90=LINE('',#801,#168);
#91=LINE('',#803,#169);
#92=LINE('',#804,#170);
#93=LINE('',#806,#171);
#94=LINE('',#807,#172);
#95=LINE('',#808,#173);
#96=LINE('',#811,#174);
#97=LINE('',#813,#175);
#98=LINE('',#815,#176);
#99=LINE('',#817,#177);
#100=LINE('',#819,#178);
#101=LINE('',#821,#179);
#102=LINE('',#823,#180);
#103=LINE('',#825,#181);
#104=LINE('',#827,#182);
#105=LINE('',#829,#183);
#106=LINE('',#831,#184);
#107=LINE('',#833,#185);
#108=LINE('',#835,#186);
#109=LINE('',#837,#187);
#110=LINE('',#839,#188);
#111=LINE('',#841,#189);
#112=LINE('',#843,#190);
#113=LINE('',#844,#191);
#114=LINE('',#846,#192);
#115=LINE('',#850,#193);
#116=LINE('',#852,#194);
#117=LINE('',#854,#195);
#118=LINE('',#856,#196);
#119=LINE('',#858,#197);
#120=LINE('',#860,#198);
#121=LINE('',#862,#199);
#122=LINE('',#864,#200);
#123=LINE('',#866,#201);
#124=LINE('',#868,#202);
#125=LINE('',#870,#203);
#126=LINE('',#872,#204);
#127=LINE('',#874,#205);
#128=LINE('',#876,#206);
#129=LINE('',#878,#207);
#130=LINE('',#880,#208);
#131=LINE('',#882,#209);
#132=LINE('',#883,#210);
#133=LINE('',#885,#211);
#134=LINE('',#886,#212);
#135=LINE('',#888,#213);
#136=LINE('',#889,#214);
#137=LINE('',#891,#215);
#138=LINE('',#893,#216);
#139=LINE('',#895,#217);
#140=LINE('',#897,#218);
#141=LINE('',#899,#219);
#142=LINE('',#901,#220);
#143=LINE('',#903,#221);
#144=LINE('',#905,#222);
#145=LINE('',#907,#223);
#146=LINE('',#909,#224);
#147=LINE('',#911,#225);
#148=LINE('',#913,#226);
#149=LINE('',#915,#227);
#150=LINE('',#917,#228);
#151=LINE('',#919,#229);
#152=LINE('',#921,#230);
#153=VECTOR('',#631,10.);
#154=VECTOR('',#632,10.);
#155=VECTOR('',#633,10.);
#156=VECTOR('',#634,10.);
#157=VECTOR('',#637,10.);
#158=VECTOR('',#638,10.);
#159=VECTOR('',#639,10.);
#160=VECTOR('',#640,10.);
#161=VECTOR('',#643,10.);
#162=VECTOR('',#644,10.);
#163=VECTOR('',#645,10.);
#164=VECTOR('',#646,10.);
#165=VECTOR('',#649,10.);
#166=VECTOR('',#650,10.);
#167=VECTOR('',#651,10.);
#168=VECTOR('',#652,10.);
#169=VECTOR('',#655,10.);
#170=VECTOR('',#656,10.);
#171=VECTOR('',#659,10.);
#172=VECTOR('',#660,10.);
#173=VECTOR('',#661,10.);
#174=VECTOR('',#662,10.);
#175=VECTOR('',#663,10.);
#176=VECTOR('',#664,10.);
#177=VECTOR('',#665,10.);
#178=VECTOR('',#666,10.);
#179=VECTOR('',#667,10.);
#180=VECTOR('',#668,10.);
#181=VECTOR('',#669,10.);
#182=VECTOR('',#670,10.);
#183=VECTOR('',#671,10.);
#184=VECTOR('',#672,10.);
#185=VECTOR('',#673,10.);
#186=VECTOR('',#674,10.);
#187=VECTOR('',#675,10.);
#188=VECTOR('',#676,10.);
#189=VECTOR('',#677,10.);
#190=VECTOR('',#678,10.);
#191=VECTOR('',#679,10.);
#192=VECTOR('',#682,10.);
#193=VECTOR('',#685,10.);
#194=VECTOR('',#686,10.);
#195=VECTOR('',#687,10.);
#196=VECTOR('',#688,10.);
#197=VECTOR('',#689,10.);
#198=VECTOR('',#690,10.);
#199=VECTOR('',#691,10.);
#200=VECTOR('',#692,10.);
#201=VECTOR('',#693,10.);
#202=VECTOR('',#694,10.);
#203=VECTOR('',#695,10.);
#204=VECTOR('',#696,10.);
#205=VECTOR('',#697,10.);
#206=VECTOR('',#698,10.);
#207=VECTOR('',#699,10.);
#208=VECTOR('',#700,10.);
#209=VECTOR('',#701,10.);
#210=VECTOR('',#702,10.);
#211=VECTOR('',#705,10.);
#212=VECTOR('',#706,10.);
#213=VECTOR('',#709,10.);
#214=VECTOR('',#710,10.);
#215=VECTOR('',#713,10.);
#216=VECTOR('',#716,10.);
#217=VECTOR('',#719,10.);
#218=VECTOR('',#722,10.);
#219=VECTOR('',#725,10.);
#220=VECTOR('',#728,10.);
#221=VECTOR('',#731,10.);
#222=VECTOR('',#734,10.);
#223=VECTOR('',#737,10.);
#224=VECTOR('',#740,10.);
#225=VECTOR('',#743,10.);
#226=VECTOR('',#746,10.);
#227=VECTOR('',#749,10.);
#228=VECTOR('',#752,10.);
#229=VECTOR('',#755,10.);
#230=VECTOR('',#758,10.);
#231=VERTEX_POINT('',#767);
#232=VERTEX_POINT('',#768);
#233=VERTEX_POINT('',#770);
#234=VERTEX_POINT('',#772);
#235=VERTEX_POINT('',#776);
#236=VERTEX_POINT('',#777);
#237=VERTEX_POINT('',#779);
#238=VERTEX_POINT('',#781);
#239=VERTEX_POINT('',#785);
#240=VERTEX_POINT('',#786);
#241=VERTEX_POINT('',#788);
#242=VERTEX_POINT('',#790);
#243=VERTEX_POINT('',#794);
#244=VERTEX_POINT('',#795);
#245=VERTEX_POINT('',#797);
#246=VERTEX_POINT('',#799);
#247=VERTEX_POINT('',#809);
#248=VERTEX_POINT('',#810);
#249=VERTEX_POINT('',#812);
#250=VERTEX_POINT('',#814);
#251=VERTEX_POINT('',#816);
#252=VERTEX_POINT('',#818);
#253=VERTEX_POINT('',#820);
#254=VERTEX_POINT('',#822);
#255=VERTEX_POINT('',#824);
#256=VERTEX_POINT('',#826);
#257=VERTEX_POINT('',#828);
#258=VERTEX_POINT('',#830);
#259=VERTEX_POINT('',#832);
#260=VERTEX_POINT('',#834);
#261=VERTEX_POINT('',#836);
#262=VERTEX_POINT('',#838);
#263=VERTEX_POINT('',#840);
#264=VERTEX_POINT('',#842);
#265=VERTEX_POINT('',#848);
#266=VERTEX_POINT('',#849);
#267=VERTEX_POINT('',#851);
#268=VERTEX_POINT('',#853);
#269=VERTEX_POINT('',#855);
#270=VERTEX_POINT('',#857);
#271=VERTEX_POINT('',#859);
#272=VERTEX_POINT('',#861);
#273=VERTEX_POINT('',#863);
#274=VERTEX_POINT('',#865);
#275=VERTEX_POINT('',#867);
#276=VERTEX_POINT('',#869);
#277=VERTEX_POINT('',#871);
#278=VERTEX_POINT('',#873);
#279=VERTEX_POINT('',#875);
#280=VERTEX_POINT('',#877);
#281=VERTEX_POINT('',#879);
#282=VERTEX_POINT('',#881);
#283=EDGE_CURVE('',#231,#232,#75,.T.);
#284=EDGE_CURVE('',#233,#231,#76,.T.);
#285=EDGE_CURVE('',#234,#233,#77,.T.);
#286=EDGE_CURVE('',#232,#234,#78,.T.);
#287=EDGE_CURVE('',#235,#236,#79,.T.);
#288=EDGE_CURVE('',#237,#235,#80,.T.);
#289=EDGE_CURVE('',#238,#237,#81,.T.);
#290=EDGE_CURVE('',#236,#238,#82,.T.);
#291=EDGE_CURVE('',#239,#240,#83,.T.);
#292=EDGE_CURVE('',#241,#239,#84,.T.);
#293=EDGE_CURVE('',#242,#241,#85,.T.);
#294=EDGE_CURVE('',#240,#242,#86,.T.);
#295=EDGE_CURVE('',#243,#244,#87,.T.);
#296=EDGE_CURVE('',#245,#243,#88,.T.);
#297=EDGE_CURVE('',#246,#245,#89,.T.);
#298=EDGE_CURVE('',#244,#246,#90,.T.);
#299=EDGE_CURVE('',#240,#231,#91,.T.);
#300=EDGE_CURVE('',#233,#242,#92,.T.);
#301=EDGE_CURVE('',#241,#246,#93,.T.);
#302=EDGE_CURVE('',#245,#238,#94,.T.);
#303=EDGE_CURVE('',#237,#234,#95,.T.);
#304=EDGE_CURVE('',#247,#248,#96,.T.);
#305=EDGE_CURVE('',#248,#249,#97,.T.);
#306=EDGE_CURVE('',#249,#250,#98,.T.);
#307=EDGE_CURVE('',#250,#251,#99,.T.);
#308=EDGE_CURVE('',#251,#252,#100,.T.);
#309=EDGE_CURVE('',#252,#253,#101,.T.);
#310=EDGE_CURVE('',#253,#254,#102,.T.);
#311=EDGE_CURVE('',#254,#255,#103,.T.);
#312=EDGE_CURVE('',#255,#256,#104,.T.);
#313=EDGE_CURVE('',#256,#257,#105,.T.);
#314=EDGE_CURVE('',#257,#258,#106,.T.);
#315=EDGE_CURVE('',#258,#259,#107,.T.);
#316=EDGE_CURVE('',#259,#260,#108,.T.);
#317=EDGE_CURVE('',#260,#261,#109,.T.);
#318=EDGE_CURVE('',#261,#262,#110,.T.);
#319=EDGE_CURVE('',#262,#263,#111,.T.);
#320=EDGE_CURVE('',#263,#264,#112,.T.);
#321=EDGE_CURVE('',#264,#247,#113,.T.);
#322=EDGE_CURVE('',#244,#239,#114,.T.);
#323=EDGE_CURVE('',#265,#266,#115,.T.);
#324=EDGE_CURVE('',#267,#265,#116,.T.);
#325=EDGE_CURVE('',#268,#267,#117,.T.);
#326=EDGE_CURVE('',#269,#268,#118,.T.);
#327=EDGE_CURVE('',#270,#269,#119,.T.);
#328=EDGE_CURVE('',#271,#270,#120,.T.);
#329=EDGE_CURVE('',#272,#271,#121,.T.);
#330=EDGE_CURVE('',#273,#272,#122,.T.);
#331=EDGE_CURVE('',#274,#273,#123,.T.);
#332=EDGE_CURVE('',#275,#274,#124,.T.);
#333=EDGE_CURVE('',#276,#275,#125,.T.);
#334=EDGE_CURVE('',#277,#276,#126,.T.);
#335=EDGE_CURVE('',#278,#277,#127,.T.);
#336=EDGE_CURVE('',#279,#278,#128,.T.);
#337=EDGE_CURVE('',#280,#279,#129,.T.);
#338=EDGE_CURVE('',#281,#280,#130,.T.);
#339=EDGE_CURVE('',#282,#281,#131,.T.);
#340=EDGE_CURVE('',#266,#282,#132,.T.);
#341=EDGE_CURVE('',#232,#235,#133,.T.);
#342=EDGE_CURVE('',#236,#243,#134,.T.);
#343=EDGE_CURVE('',#266,#247,#135,.T.);
#344=EDGE_CURVE('',#265,#264,#136,.T.);
#345=EDGE_CURVE('',#267,#263,#137,.T.);
#346=EDGE_CURVE('',#268,#262,#138,.T.);
#347=EDGE_CURVE('',#269,#261,#139,.T.);
#348=EDGE_CURVE('',#270,#260,#140,.T.);
#349=EDGE_CURVE('',#271,#259,#141,.T.);
#350=EDGE_CURVE('',#272,#258,#142,.T.);
#351=EDGE_CURVE('',#273,#257,#143,.T.);
#352=EDGE_CURVE('',#274,#256,#144,.T.);
#353=EDGE_CURVE('',#275,#255,#145,.T.);
#354=EDGE_CURVE('',#276,#254,#146,.T.);
#355=EDGE_CURVE('',#277,#253,#147,.T.);
#356=EDGE_CURVE('',#278,#252,#148,.T.);
#357=EDGE_CURVE('',#279,#251,#149,.T.);
#358=EDGE_CURVE('',#280,#250,#150,.T.);
#359=EDGE_CURVE('',#281,#249,#151,.T.);
#360=EDGE_CURVE('',#282,#248,#152,.T.);
#361=ORIENTED_EDGE('',*,*,#283,.F.);
#362=ORIENTED_EDGE('',*,*,#284,.F.);
#363=ORIENTED_EDGE('',*,*,#285,.F.);
#364=ORIENTED_EDGE('',*,*,#286,.F.);
#365=ORIENTED_EDGE('',*,*,#287,.F.);
#366=ORIENTED_EDGE('',*,*,#288,.F.);
#367=ORIENTED_EDGE('',*,*,#289,.F.);
#368=ORIENTED_EDGE('',*,*,#290,.F.);
#369=ORIENTED_EDGE('',*,*,#291,.F.);
#370=ORIENTED_EDGE('',*,*,#292,.F.);
#371=ORIENTED_EDGE('',*,*,#293,.F.);
#372=ORIENTED_EDGE('',*,*,#294,.F.);
#373=ORIENTED_EDGE('',*,*,#295,.F.);
#374=ORIENTED_EDGE('',*,*,#296,.F.);
#375=ORIENTED_EDGE('',*,*,#297,.F.);
#376=ORIENTED_EDGE('',*,*,#298,.F.);
#377=ORIENTED_EDGE('',*,*,#284,.T.);
#378=ORIENTED_EDGE('',*,*,#299,.F.);
#379=ORIENTED_EDGE('',*,*,#294,.T.);
#380=ORIENTED_EDGE('',*,*,#300,.F.);
#381=ORIENTED_EDGE('',*,*,#285,.T.);
#382=ORIENTED_EDGE('',*,*,#300,.T.);
#383=ORIENTED_EDGE('',*,*,#293,.T.);
#384=ORIENTED_EDGE('',*,*,#301,.T.);
#385=ORIENTED_EDGE('',*,*,#297,.T.);
#386=ORIENTED_EDGE('',*,*,#302,.T.);
#387=ORIENTED_EDGE('',*,*,#289,.T.);
#388=ORIENTED_EDGE('',*,*,#303,.T.);
#389=ORIENTED_EDGE('',*,*,#304,.T.);
#390=ORIENTED_EDGE('',*,*,#305,.T.);
#391=ORIENTED_EDGE('',*,*,#306,.T.);
#392=ORIENTED_EDGE('',*,*,#307,.T.);
#393=ORIENTED_EDGE('',*,*,#308,.T.);
#394=ORIENTED_EDGE('',*,*,#309,.T.);
#395=ORIENTED_EDGE('',*,*,#310,.T.);
#396=ORIENTED_EDGE('',*,*,#311,.T.);
#397=ORIENTED_EDGE('',*,*,#312,.T.);
#398=ORIENTED_EDGE('',*,*,#313,.T.);
#399=ORIENTED_EDGE('',*,*,#314,.T.);
#400=ORIENTED_EDGE('',*,*,#315,.T.);
#401=ORIENTED_EDGE('',*,*,#316,.T.);
#402=ORIENTED_EDGE('',*,*,#317,.T.);
#403=ORIENTED_EDGE('',*,*,#318,.T.);
#404=ORIENTED_EDGE('',*,*,#319,.T.);
#405=ORIENTED_EDGE('',*,*,#320,.T.);
#406=ORIENTED_EDGE('',*,*,#321,.T.);
#407=ORIENTED_EDGE('',*,*,#292,.T.);
#408=ORIENTED_EDGE('',*,*,#322,.F.);
#409=ORIENTED_EDGE('',*,*,#298,.T.);
#410=ORIENTED_EDGE('',*,*,#301,.F.);
#411=ORIENTED_EDGE('',*,*,#323,.F.);
#412=ORIENTED_EDGE('',*,*,#324,.F.);
#413=ORIENTED_EDGE('',*,*,#325,.F.);
#414=ORIENTED_EDGE('',*,*,#326,.F.);
#415=ORIENTED_EDGE('',*,*,#327,.F.);
#416=ORIENTED_EDGE('',*,*,#328,.F.);
#417=ORIENTED_EDGE('',*,*,#329,.F.);
#418=ORIENTED_EDGE('',*,*,#330,.F.);
#419=ORIENTED_EDGE('',*,*,#331,.F.);
#420=ORIENTED_EDGE('',*,*,#332,.F.);
#421=ORIENTED_EDGE('',*,*,#333,.F.);
#422=ORIENTED_EDGE('',*,*,#334,.F.);
#423=ORIENTED_EDGE('',*,*,#335,.F.);
#424=ORIENTED_EDGE('',*,*,#336,.F.);
#425=ORIENTED_EDGE('',*,*,#337,.F.);
#426=ORIENTED_EDGE('',*,*,#338,.F.);
#427=ORIENTED_EDGE('',*,*,#339,.F.);
#428=ORIENTED_EDGE('',*,*,#340,.F.);
#429=ORIENTED_EDGE('',*,*,#283,.T.);
#430=ORIENTED_EDGE('',*,*,#341,.T.);
#431=ORIENTED_EDGE('',*,*,#287,.T.);
#432=ORIENTED_EDGE('',*,*,#342,.T.);
#433=ORIENTED_EDGE('',*,*,#295,.T.);
#434=ORIENTED_EDGE('',*,*,#322,.T.);
#435=ORIENTED_EDGE('',*,*,#291,.T.);
#436=ORIENTED_EDGE('',*,*,#299,.T.);
#437=ORIENTED_EDGE('',*,*,#323,.T.);
#438=ORIENTED_EDGE('',*,*,#343,.T.);
#439=ORIENTED_EDGE('',*,*,#321,.F.);
#440=ORIENTED_EDGE('',*,*,#344,.F.);
#441=ORIENTED_EDGE('',*,*,#324,.T.);
#442=ORIENTED_EDGE('',*,*,#344,.T.);
#443=ORIENTED_EDGE('',*,*,#320,.F.);
#444=ORIENTED_EDGE('',*,*,#345,.F.);
#445=ORIENTED_EDGE('',*,*,#325,.T.);
#446=ORIENTED_EDGE('',*,*,#345,.T.);
#447=ORIENTED_EDGE('',*,*,#319,.F.);
#448=ORIENTED_EDGE('',*,*,#346,.F.);
#449=ORIENTED_EDGE('',*,*,#326,.T.);
#450=ORIENTED_EDGE('',*,*,#346,.T.);
#451=ORIENTED_EDGE('',*,*,#318,.F.);
#452=ORIENTED_EDGE('',*,*,#347,.F.);
#453=ORIENTED_EDGE('',*,*,#327,.T.);
#454=ORIENTED_EDGE('',*,*,#347,.T.);
#455=ORIENTED_EDGE('',*,*,#317,.F.);
#456=ORIENTED_EDGE('',*,*,#348,.F.);
#457=ORIENTED_EDGE('',*,*,#328,.T.);
#458=ORIENTED_EDGE('',*,*,#348,.T.);
#459=ORIENTED_EDGE('',*,*,#316,.F.);
#460=ORIENTED_EDGE('',*,*,#349,.F.);
#461=ORIENTED_EDGE('',*,*,#329,.T.);
#462=ORIENTED_EDGE('',*,*,#349,.T.);
#463=ORIENTED_EDGE('',*,*,#315,.F.);
#464=ORIENTED_EDGE('',*,*,#350,.F.);
#465=ORIENTED_EDGE('',*,*,#330,.T.);
#466=ORIENTED_EDGE('',*,*,#350,.T.);
#467=ORIENTED_EDGE('',*,*,#314,.F.);
#468=ORIENTED_EDGE('',*,*,#351,.F.);
#469=ORIENTED_EDGE('',*,*,#331,.T.);
#470=ORIENTED_EDGE('',*,*,#351,.T.);
#471=ORIENTED_EDGE('',*,*,#313,.F.);
#472=ORIENTED_EDGE('',*,*,#352,.F.);
#473=ORIENTED_EDGE('',*,*,#332,.T.);
#474=ORIENTED_EDGE('',*,*,#352,.T.);
#475=ORIENTED_EDGE('',*,*,#312,.F.);
#476=ORIENTED_EDGE('',*,*,#353,.F.);
#477=ORIENTED_EDGE('',*,*,#333,.T.);
#478=ORIENTED_EDGE('',*,*,#353,.T.);
#479=ORIENTED_EDGE('',*,*,#311,.F.);
#480=ORIENTED_EDGE('',*,*,#354,.F.);
#481=ORIENTED_EDGE('',*,*,#334,.T.);
#482=ORIENTED_EDGE('',*,*,#354,.T.);
#483=ORIENTED_EDGE('',*,*,#310,.F.);
#484=ORIENTED_EDGE('',*,*,#355,.F.);
#485=ORIENTED_EDGE('',*,*,#335,.T.);
#486=ORIENTED_EDGE('',*,*,#355,.T.);
#487=ORIENTED_EDGE('',*,*,#309,.F.);
#488=ORIENTED_EDGE('',*,*,#356,.F.);
#489=ORIENTED_EDGE('',*,*,#336,.T.);
#490=ORIENTED_EDGE('',*,*,#356,.T.);
#491=ORIENTED_EDGE('',*,*,#308,.F.);
#492=ORIENTED_EDGE('',*,*,#357,.F.);
#493=ORIENTED_EDGE('',*,*,#337,.T.);
#494=ORIENTED_EDGE('',*,*,#357,.T.);
#495=ORIENTED_EDGE('',*,*,#307,.F.);
#496=ORIENTED_EDGE('',*,*,#358,.F.);
#497=ORIENTED_EDGE('',*,*,#338,.T.);
#498=ORIENTED_EDGE('',*,*,#358,.T.);
#499=ORIENTED_EDGE('',*,*,#306,.F.);
#500=ORIENTED_EDGE('',*,*,#359,.F.);
#501=ORIENTED_EDGE('',*,*,#339,.T.);
#502=ORIENTED_EDGE('',*,*,#359,.T.);
#503=ORIENTED_EDGE('',*,*,#305,.F.);
#504=ORIENTED_EDGE('',*,*,#360,.F.);
#505=ORIENTED_EDGE('',*,*,#340,.T.);
#506=ORIENTED_EDGE('',*,*,#360,.T.);
#507=ORIENTED_EDGE('',*,*,#304,.F.);
#508=ORIENTED_EDGE('',*,*,#343,.F.);
#509=ORIENTED_EDGE('',*,*,#286,.T.);
#510=ORIENTED_EDGE('',*,*,#303,.F.);
#511=ORIENTED_EDGE('',*,*,#288,.T.);
#512=ORIENTED_EDGE('',*,*,#341,.F.);
#513=ORIENTED_EDGE('',*,*,#290,.T.);
#514=ORIENTED_EDGE('',*,*,#302,.F.);
#515=ORIENTED_EDGE('',*,*,#296,.T.);
#516=ORIENTED_EDGE('',*,*,#342,.F.);
#517=PLANE('',#598);
#518=PLANE('',#599);
#519=PLANE('',#600);
#520=PLANE('',#601);
#521=PLANE('',#602);
#522=PLANE('',#603);
#523=PLANE('',#604);
#524=PLANE('',#605);
#525=PLANE('',#606);
#526=PLANE('',#607);
#527=PLANE('',#608);
#528=PLANE('',#609);
#529=PLANE('',#610);
#530=PLANE('',#611);
#531=PLANE('',#612);
#532=PLANE('',#613);
#533=PLANE('',#614);
#534=PLANE('',#615);
#535=PLANE('',#616);
#536=PLANE('',#617);
#537=PLANE('',#618);
#538=PLANE('',#619);
#539=PLANE('',#620);
#540=PLANE('',#621);
#541=PLANE('',#622);
#542=PLANE('',#623);
#543=PLANE('',#624);
#544=PLANE('',#625);
#545=PLANE('',#626);
#546=ADVANCED_FACE('',(#16),#517,.F.);
#547=ADVANCED_FACE('',(#17),#518,.F.);
#548=ADVANCED_FACE('',(#18),#519,.F.);
#549=ADVANCED_FACE('',(#19),#520,.F.);
#550=ADVANCED_FACE('',(#20),#521,.T.);
#551=ADVANCED_FACE('',(#21,#15),#522,.T.);
#552=ADVANCED_FACE('',(#22),#523,.T.);
#553=ADVANCED_FACE('',(#23),#524,.F.);
#554=ADVANCED_FACE('',(#24),#525,.T.);
#555=ADVANCED_FACE('',(#25),#526,.T.);
#556=ADVANCED_FACE('',(#26),#527,.T.);
#557=ADVANCED_FACE('',(#27),#528,.T.);
#558=ADVANCED_FACE('',(#28),#529,.T.);
#559=ADVANCED_FACE('',(#29),#530,.T.);
#560=ADVANCED_FACE('',(#30),#531,.T.);
#561=ADVANCED_FACE('',(#31),#532,.T.);
#562=ADVANCED_FACE('',(#32),#533,.T.);
#563=ADVANCED_FACE('',(#33),#534,.T.);
#564=ADVANCED_FACE('',(#34),#535,.T.);
#565=ADVANCED_FACE('',(#35),#536,.T.);
#566=ADVANCED_FACE('',(#36),#537,.T.);
#567=ADVANCED_FACE('',(#37),#538,.T.);
#568=ADVANCED_FACE('',(#38),#539,.T.);
#569=ADVANCED_FACE('',(#39),#540,.T.);
#570=ADVANCED_FACE('',(#40),#541,.T.);
#571=ADVANCED_FACE('',(#41),#542,.T.);
#572=ADVANCED_FACE('',(#42),#543,.T.);
#573=ADVANCED_FACE('',(#43),#544,.T.);
#574=ADVANCED_FACE('',(#44),#545,.T.);
#575=CLOSED_SHELL('',(#546,#547,#548,#549,#550,#551,#552,#553,#554,#555,
#556,#557,#558,#559,#560,#561,#562,#563,#564,#565,#566,#567,#568,#569,#570,
#571,#572,#573,#574));
#576=DERIVED_UNIT_ELEMENT(#579,1.);
#577=DERIVED_UNIT_ELEMENT(#930,-3.);
#578=DIMENSIONAL_EXPONENTS(0.,1.,0.,0.,0.,0.,0.);
#579=(
CONVERSION_BASED_UNIT('gram',#581)
MASS_UNIT()
NAMED_UNIT(#578)
);
#580=(
MASS_UNIT()
NAMED_UNIT(*)
SI_UNIT(.KILO.,.GRAM.)
);
#581=MASS_MEASURE_WITH_UNIT(MASS_MEASURE(0.001),#580);
#582=DERIVED_UNIT((#576,#577));
#583=MEASURE_REPRESENTATION_ITEM('density measure',
POSITIVE_RATIO_MEASURE(1.),#582);
#584=PROPERTY_DEFINITION_REPRESENTATION(#589,#586);
#585=PROPERTY_DEFINITION_REPRESENTATION(#590,#587);
#586=REPRESENTATION('material name',(#588),#927);
#587=REPRESENTATION('density',(#583),#927);
#588=DESCRIPTIVE_REPRESENTATION_ITEM('Generic','Generic');
#589=PROPERTY_DEFINITION('material property','material name',#937);
#590=PROPERTY_DEFINITION('material property','density of part',#937);
#591=DATE_TIME_ROLE('creation_date');
#592=APPLIED_DATE_AND_TIME_ASSIGNMENT(#593,#591,(#937));
#593=DATE_AND_TIME(#594,#595);
#594=CALENDAR_DATE(2025,18,8);
#595=LOCAL_TIME(0,0,0.,#596);
#596=COORDINATED_UNIVERSAL_TIME_OFFSET(0,0,.BEHIND.);
#597=AXIS2_PLACEMENT_3D('',#765,#627,#628);
#598=AXIS2_PLACEMENT_3D('',#766,#629,#630);
#599=AXIS2_PLACEMENT_3D('',#775,#635,#636);
#600=AXIS2_PLACEMENT_3D('',#784,#641,#642);
#601=AXIS2_PLACEMENT_3D('',#793,#647,#648);
#602=AXIS2_PLACEMENT_3D('',#802,#653,#654);
#603=AXIS2_PLACEMENT_3D('',#805,#657,#658);
#604=AXIS2_PLACEMENT_3D('',#845,#680,#681);
#605=AXIS2_PLACEMENT_3D('',#847,#683,#684);
#606=AXIS2_PLACEMENT_3D('',#884,#703,#704);
#607=AXIS2_PLACEMENT_3D('',#887,#707,#708);
#608=AXIS2_PLACEMENT_3D('',#890,#711,#712);
#609=AXIS2_PLACEMENT_3D('',#892,#714,#715);
#610=AXIS2_PLACEMENT_3D('',#894,#717,#718);
#611=AXIS2_PLACEMENT_3D('',#896,#720,#721);
#612=AXIS2_PLACEMENT_3D('',#898,#723,#724);
#613=AXIS2_PLACEMENT_3D('',#900,#726,#727);
#614=AXIS2_PLACEMENT_3D('',#902,#729,#730);
#615=AXIS2_PLACEMENT_3D('',#904,#732,#733);
#616=AXIS2_PLACEMENT_3D('',#906,#735,#736);
#617=AXIS2_PLACEMENT_3D('',#908,#738,#739);
#618=AXIS2_PLACEMENT_3D('',#910,#741,#742);
#619=AXIS2_PLACEMENT_3D('',#912,#744,#745);
#620=AXIS2_PLACEMENT_3D('',#914,#747,#748);
#621=AXIS2_PLACEMENT_3D('',#916,#750,#751);
#622=AXIS2_PLACEMENT_3D('',#918,#753,#754);
#623=AXIS2_PLACEMENT_3D('',#920,#756,#757);
#624=AXIS2_PLACEMENT_3D('',#922,#759,#760);
#625=AXIS2_PLACEMENT_3D('',#923,#761,#762);
#626=AXIS2_PLACEMENT_3D('',#924,#763,#764);
#627=DIRECTION('axis',(0.,0.,1.));
#628=DIRECTION('refdir',(1.,0.,0.));
#629=DIRECTION('center_axis',(-0.599999999999998,0.,-0.800000000000001));
#630=DIRECTION('ref_axis',(0.800000000000001,0.,-0.599999999999998));
#631=DIRECTION('',(-0.800000000000001,0.,0.599999999999998));
#632=DIRECTION('',(0.,-1.,0.));
#633=DIRECTION('',(0.800000000000001,0.,-0.599999999999998));
#634=DIRECTION('',(0.,1.,0.));
#635=DIRECTION('center_axis',(0.765486270790816,0.,-0.643452227621266));
#636=DIRECTION('ref_axis',(0.643452227621266,0.,0.765486270790816));
#637=DIRECTION('',(-0.643452227621266,0.,-0.765486270790816));
#638=DIRECTION('',(0.,-1.,0.));
#639=DIRECTION('',(0.643452227621266,0.,0.765486270790816));
#640=DIRECTION('',(0.,1.,0.));
#641=DIRECTION('center_axis',(-0.599999999999999,0.,0.800000000000001));
#642=DIRECTION('ref_axis',(-0.8,0.,-0.599999999999999));
#643=DIRECTION('',(0.800000000000001,0.,0.599999999999999));
#644=DIRECTION('',(0.,-1.,0.));
#645=DIRECTION('',(-0.800000000000001,0.,-0.599999999999999));
#646=DIRECTION('',(0.,1.,0.));
#647=DIRECTION('center_axis',(0.765486270790817,0.,0.643452227621265));
#648=DIRECTION('ref_axis',(-0.643452227621265,0.,0.765486270790817));
#649=DIRECTION('',(0.643452227621265,0.,-0.765486270790817));
#650=DIRECTION('',(0.,-1.,0.));
#651=DIRECTION('',(-0.643452227621265,0.,0.765486270790817));
#652=DIRECTION('',(0.,1.,0.));
#653=DIRECTION('center_axis',(1.,0.,-4.45760812898431E-16));
#654=DIRECTION('ref_axis',(-4.45760812898431E-16,0.,-1.));
#655=DIRECTION('',(4.45760812898431E-16,0.,1.));
#656=DIRECTION('',(-4.45760812898431E-16,0.,-1.));
#657=DIRECTION('center_axis',(0.,1.,0.));
#658=DIRECTION('ref_axis',(0.,0.,1.));
#659=DIRECTION('',(-1.,0.,2.66453525910038E-16));
#660=DIRECTION('',(0.,0.,1.));
#661=DIRECTION('',(1.,0.,0.));
#662=DIRECTION('',(-0.643452227621266,0.,-0.765486270790816));
#663=DIRECTION('',(-1.11022302462516E-16,0.,-1.));
#664=DIRECTION('',(0.643452227621265,0.,-0.765486270790817));
#665=DIRECTION('',(0.924678098474716,0.,0.380749805254295));
#666=DIRECTION('',(0.578017340780339,0.,-0.816024481101655));
#667=DIRECTION('',(0.,0.,-1.));
#668=DIRECTION('',(1.,0.,0.));
#669=DIRECTION('',(0.,0.,1.));
#670=DIRECTION('',(1.,0.,-2.53765262771464E-16));
#671=DIRECTION('',(0.8,0.,0.599999999999999));
#672=DIRECTION('',(6.45947941600091E-16,0.,1.));
#673=DIRECTION('',(-0.800000000000001,0.,0.599999999999998));
#674=DIRECTION('',(-1.,0.,2.53765262771464E-16));
#675=DIRECTION('',(0.,0.,1.));
#676=DIRECTION('',(-1.,0.,4.03717463500057E-16));
#677=DIRECTION('',(0.,0.,-1.));
#678=DIRECTION('',(-0.57801734078034,0.,-0.816024481101655));
#679=DIRECTION('',(-0.924678098474716,0.,0.380749805254295));
#680=DIRECTION('center_axis',(-2.66453525910038E-16,0.,-1.));
#681=DIRECTION('ref_axis',(-1.,0.,2.66453525910038E-16));
#682=DIRECTION('',(1.,0.,-2.66453525910038E-16));
#683=DIRECTION('center_axis',(0.,-1.,0.));
#684=DIRECTION('ref_axis',(0.,0.,-1.));
#685=DIRECTION('',(-0.924678098474716,0.,0.380749805254295));
#686=DIRECTION('',(-0.57801734078034,0.,-0.816024481101655));
#687=DIRECTION('',(0.,0.,-1.));
#688=DIRECTION('',(-1.,0.,4.03717463500057E-16));
#689=DIRECTION('',(0.,0.,1.));
#690=DIRECTION('',(-1.,0.,2.53765262771464E-16));
#691=DIRECTION('',(-0.800000000000001,0.,0.599999999999998));
#692=DIRECTION('',(6.45947941600091E-16,0.,1.));
#693=DIRECTION('',(0.8,0.,0.599999999999999));
#694=DIRECTION('',(1.,0.,-2.53765262771464E-16));
#695=DIRECTION('',(0.,0.,1.));
#696=DIRECTION('',(1.,0.,0.));
#697=DIRECTION('',(0.,0.,-1.));
#698=DIRECTION('',(0.578017340780339,0.,-0.816024481101655));
#699=DIRECTION('',(0.924678098474716,0.,0.380749805254295));
#700=DIRECTION('',(0.643452227621265,0.,-0.765486270790817));
#701=DIRECTION('',(-1.11022302462516E-16,0.,-1.));
#702=DIRECTION('',(-0.643452227621266,0.,-0.765486270790816));
#703=DIRECTION('center_axis',(0.,-1.,0.));
#704=DIRECTION('ref_axis',(0.,0.,-1.));
#705=DIRECTION('',(-1.,0.,0.));
#706=DIRECTION('',(0.,0.,-1.));
#707=DIRECTION('center_axis',(-0.380749805254295,0.,-0.924678098474716));
#708=DIRECTION('ref_axis',(-0.924678098474716,0.,0.380749805254295));
#709=DIRECTION('',(0.,1.,0.));
#710=DIRECTION('',(0.,1.,0.));
#711=DIRECTION('center_axis',(0.816024481101655,0.,-0.57801734078034));
#712=DIRECTION('ref_axis',(-0.57801734078034,0.,-0.816024481101655));
#713=DIRECTION('',(0.,1.,0.));
#714=DIRECTION('center_axis',(1.,0.,0.));
#715=DIRECTION('ref_axis',(0.,0.,-1.));
#716=DIRECTION('',(0.,1.,0.));
#717=DIRECTION('center_axis',(-4.03717463500057E-16,0.,-1.));
#718=DIRECTION('ref_axis',(-1.,0.,4.03717463500057E-16));
#719=DIRECTION('',(0.,1.,0.));
#720=DIRECTION('center_axis',(-1.,0.,0.));
#721=DIRECTION('ref_axis',(0.,0.,1.));
#722=DIRECTION('',(0.,1.,0.));
#723=DIRECTION('center_axis',(-2.53765262771464E-16,0.,-1.));
#724=DIRECTION('ref_axis',(-1.,0.,2.53765262771464E-16));
#725=DIRECTION('',(0.,1.,0.));
#726=DIRECTION('center_axis',(-0.599999999999998,0.,-0.800000000000001));
#727=DIRECTION('ref_axis',(-0.800000000000001,0.,0.599999999999998));
#728=DIRECTION('',(0.,1.,0.));
#729=DIRECTION('center_axis',(-1.,0.,6.45947941600091E-16));
#730=DIRECTION('ref_axis',(6.45947941600091E-16,0.,1.));
#731=DIRECTION('',(0.,1.,0.));
#732=DIRECTION('center_axis',(-0.599999999999999,0.,0.800000000000001));
#733=DIRECTION('ref_axis',(0.8,0.,0.599999999999999));
#734=DIRECTION('',(0.,1.,0.));
#735=DIRECTION('center_axis',(2.53765262771464E-16,0.,1.));
#736=DIRECTION('ref_axis',(1.,0.,-2.53765262771464E-16));
#737=DIRECTION('',(0.,1.,0.));
#738=DIRECTION('center_axis',(-1.,0.,0.));
#739=DIRECTION('ref_axis',(0.,0.,1.));
#740=DIRECTION('',(0.,1.,0.));
#741=DIRECTION('center_axis',(0.,0.,1.));
#742=DIRECTION('ref_axis',(1.,0.,0.));
#743=DIRECTION('',(0.,1.,0.));
#744=DIRECTION('center_axis',(1.,0.,0.));
#745=DIRECTION('ref_axis',(0.,0.,-1.));
#746=DIRECTION('',(0.,1.,0.));
#747=DIRECTION('center_axis',(0.816024481101655,0.,0.578017340780339));
#748=DIRECTION('ref_axis',(0.578017340780339,0.,-0.816024481101655));
#749=DIRECTION('',(0.,1.,0.));
#750=DIRECTION('center_axis',(-0.380749805254295,0.,0.924678098474716));
#751=DIRECTION('ref_axis',(0.924678098474716,0.,0.380749805254295));
#752=DIRECTION('',(0.,1.,0.));
#753=DIRECTION('center_axis',(0.765486270790817,0.,0.643452227621265));
#754=DIRECTION('ref_axis',(0.643452227621265,0.,-0.765486270790817));
#755=DIRECTION('',(0.,1.,0.));
#756=DIRECTION('center_axis',(1.,0.,-1.11022302462516E-16));
#757=DIRECTION('ref_axis',(-1.11022302462516E-16,0.,-1.));
#758=DIRECTION('',(0.,1.,0.));
#759=DIRECTION('center_axis',(0.765486270790816,0.,-0.643452227621266));
#760=DIRECTION('ref_axis',(-0.643452227621266,0.,-0.765486270790816));
#761=DIRECTION('center_axis',(0.,0.,1.));
#762=DIRECTION('ref_axis',(1.,0.,0.));
#763=DIRECTION('center_axis',(-1.,0.,0.));
#764=DIRECTION('ref_axis',(0.,0.,1.));
#765=CARTESIAN_POINT('',(0.,0.,0.));
#766=CARTESIAN_POINT('Origin',(185.533333333333,20.,4.44089209850063E-15));
#767=CARTESIAN_POINT('',(200.,-3.,-10.85));
#768=CARTESIAN_POINT('',(185.533333333333,-3.,0.));
#769=CARTESIAN_POINT('',(167.726666666667,-3.,13.355));
#770=CARTESIAN_POINT('',(200.,20.,-10.85));
#771=CARTESIAN_POINT('',(200.,10.,-10.85));
#772=CARTESIAN_POINT('',(185.533333333333,20.,0.));
#773=CARTESIAN_POINT('',(167.726666666667,20.,13.355));
#774=CARTESIAN_POINT('',(185.533333333333,10.,-8.88178419700125E-15));
#775=CARTESIAN_POINT('Origin',(-4.44089209850063E-15,20.,-31.2566147300034));
#776=CARTESIAN_POINT('',(26.273676149858,-3.,0.));
#777=CARTESIAN_POINT('',(0.,-3.,-31.2566147300034));
#778=CARTESIAN_POINT('',(18.5851859784292,-3.,-9.1466521004929));
#779=CARTESIAN_POINT('',(26.273676149858,20.,0.));
#780=CARTESIAN_POINT('',(26.273676149858,10.,4.44089209850063E-15));
#781=CARTESIAN_POINT('',(0.,20.,-31.2566147300034));
#782=CARTESIAN_POINT('',(18.5851859784292,20.,-9.1466521004929));
#783=CARTESIAN_POINT('',(0.,10.,-31.2566147300034));
#784=CARTESIAN_POINT('Origin',(200.,20.,-68.8500000000001));
#785=CARTESIAN_POINT('',(185.533333333333,-3.,-79.7000000000001));
#786=CARTESIAN_POINT('',(200.,-3.,-68.8500000000001));
#787=CARTESIAN_POINT('',(174.96,-3.,-87.6300000000001));
#788=CARTESIAN_POINT('',(185.533333333333,20.,-79.7000000000001));
#789=CARTESIAN_POINT('',(185.533333333333,10.,-79.7000000000001));
#790=CARTESIAN_POINT('',(200.,20.,-68.8500000000001));
#791=CARTESIAN_POINT('',(174.96,20.,-87.6300000000001));
#792=CARTESIAN_POINT('',(200.,10.,-68.8500000000001));
#793=CARTESIAN_POINT('Origin',(26.273676149858,20.,-79.7000000000001));
#794=CARTESIAN_POINT('',(0.,-3.,-48.4433852699965));
#795=CARTESIAN_POINT('',(26.273676149858,-3.,-79.7000000000001));
#796=CARTESIAN_POINT('',(31.7220240533582,-3.,-86.1816552645089));
#797=CARTESIAN_POINT('',(0.,20.,-48.4433852699965));
#798=CARTESIAN_POINT('',(0.,10.,-48.4433852699965));
#799=CARTESIAN_POINT('',(26.273676149858,20.,-79.7000000000001));
#800=CARTESIAN_POINT('',(31.7220240533582,20.,-86.1816552645089));
#801=CARTESIAN_POINT('',(26.2736761498581,10.,-79.7000000000001));
#802=CARTESIAN_POINT('Origin',(200.,0.,0.));
#803=CARTESIAN_POINT('',(200.,-3.,-79.7000000000001));
#804=CARTESIAN_POINT('',(200.,20.,0.));
#805=CARTESIAN_POINT('Origin',(100.,20.,-39.8500000000001));
#806=CARTESIAN_POINT('',(200.,20.,-79.7000000000001));
#807=CARTESIAN_POINT('',(0.,20.,-79.7000000000001));
#808=CARTESIAN_POINT('',(0.,20.,0.));
#809=CARTESIAN_POINT('',(23.3,20.,-8.20000000000004));
#810=CARTESIAN_POINT('',(3.,20.,-32.35));
#811=CARTESIAN_POINT('',(23.3,20.,-8.20000000000004));
#812=CARTESIAN_POINT('',(3.,20.,-47.35));
#813=CARTESIAN_POINT('',(3.,20.,-32.35));
#814=CARTESIAN_POINT('',(23.3,20.,-71.5));
#815=CARTESIAN_POINT('',(3.,20.,-47.35));
#816=CARTESIAN_POINT('',(40.3,20.,-64.5));
#817=CARTESIAN_POINT('',(23.3,20.,-71.5));
#818=CARTESIAN_POINT('',(48.8,20.,-76.5));
#819=CARTESIAN_POINT('',(40.3,20.,-64.5));
#820=CARTESIAN_POINT('',(48.8,20.,-79.));
#821=CARTESIAN_POINT('',(48.8,20.,-76.5));
#822=CARTESIAN_POINT('',(114.8,20.,-79.));
#823=CARTESIAN_POINT('',(48.8,20.,-79.));
#824=CARTESIAN_POINT('',(114.8,20.,-76.5000000000001));
#825=CARTESIAN_POINT('',(114.8,20.,-79.));
#826=CARTESIAN_POINT('',(184.8,20.,-76.5000000000001));
#827=CARTESIAN_POINT('',(114.8,20.,-76.5000000000001));
#828=CARTESIAN_POINT('',(197.,20.,-67.3500000000001));
#829=CARTESIAN_POINT('',(184.8,20.,-76.5000000000001));
#830=CARTESIAN_POINT('',(197.,20.,-12.3500000000001));
#831=CARTESIAN_POINT('',(197.,20.,-67.3500000000001));
#832=CARTESIAN_POINT('',(184.8,20.,-3.20000000000007));
#833=CARTESIAN_POINT('',(197.,20.,-12.3500000000001));
#834=CARTESIAN_POINT('',(114.8,20.,-3.20000000000006));
#835=CARTESIAN_POINT('',(184.8,20.,-3.20000000000007));
#836=CARTESIAN_POINT('',(114.8,20.,-0.700000000000065));
#837=CARTESIAN_POINT('',(114.8,20.,-3.20000000000006));
#838=CARTESIAN_POINT('',(48.8,20.,-0.700000000000029));
#839=CARTESIAN_POINT('',(114.8,20.,-0.700000000000061));
#840=CARTESIAN_POINT('',(48.8,20.,-3.20000000000004));
#841=CARTESIAN_POINT('',(48.8,20.,-0.700000000000034));
#842=CARTESIAN_POINT('',(40.3,20.,-15.2));
#843=CARTESIAN_POINT('',(48.8,20.,-3.20000000000004));
#844=CARTESIAN_POINT('',(40.3,20.,-15.2));
#845=CARTESIAN_POINT('Origin',(200.,0.,-79.7000000000001));
#846=CARTESIAN_POINT('',(0.,-3.,-79.7000000000001));
#847=CARTESIAN_POINT('Origin',(100.,0.,-39.8500000000001));
#848=CARTESIAN_POINT('',(40.3,0.,-15.2));
#849=CARTESIAN_POINT('',(23.3,0.,-8.20000000000004));
#850=CARTESIAN_POINT('',(40.3,0.,-15.2));
#851=CARTESIAN_POINT('',(48.8,0.,-3.20000000000004));
#852=CARTESIAN_POINT('',(48.8,0.,-3.20000000000004));
#853=CARTESIAN_POINT('',(48.8,0.,-0.700000000000034));
#854=CARTESIAN_POINT('',(48.8,0.,-0.700000000000034));
#855=CARTESIAN_POINT('',(114.8,0.,-0.700000000000061));
#856=CARTESIAN_POINT('',(114.8,0.,-0.700000000000061));
#857=CARTESIAN_POINT('',(114.8,0.,-3.20000000000006));
#858=CARTESIAN_POINT('',(114.8,0.,-3.20000000000006));
#859=CARTESIAN_POINT('',(184.8,0.,-3.20000000000007));
#860=CARTESIAN_POINT('',(184.8,0.,-3.20000000000007));
#861=CARTESIAN_POINT('',(197.,0.,-12.3500000000001));
#862=CARTESIAN_POINT('',(197.,0.,-12.3500000000001));
#863=CARTESIAN_POINT('',(197.,0.,-67.3500000000001));
#864=CARTESIAN_POINT('',(197.,0.,-67.3500000000001));
#865=CARTESIAN_POINT('',(184.8,0.,-76.5000000000001));
#866=CARTESIAN_POINT('',(184.8,0.,-76.5000000000001));
#867=CARTESIAN_POINT('',(114.8,0.,-76.5000000000001));
#868=CARTESIAN_POINT('',(114.8,0.,-76.5000000000001));
#869=CARTESIAN_POINT('',(114.8,0.,-79.));
#870=CARTESIAN_POINT('',(114.8,0.,-79.));
#871=CARTESIAN_POINT('',(48.8,0.,-79.));
#872=CARTESIAN_POINT('',(48.8,0.,-79.));
#873=CARTESIAN_POINT('',(48.8,0.,-76.5));
#874=CARTESIAN_POINT('',(48.8,0.,-76.5));
#875=CARTESIAN_POINT('',(40.3,0.,-64.5));
#876=CARTESIAN_POINT('',(40.3,0.,-64.5));
#877=CARTESIAN_POINT('',(23.3,0.,-71.5));
#878=CARTESIAN_POINT('',(23.3,0.,-71.5));
#879=CARTESIAN_POINT('',(3.,0.,-47.35));
#880=CARTESIAN_POINT('',(3.,0.,-47.35));
#881=CARTESIAN_POINT('',(3.,0.,-32.35));
#882=CARTESIAN_POINT('',(3.,0.,-32.35));
#883=CARTESIAN_POINT('',(23.3,0.,-8.20000000000004));
#884=CARTESIAN_POINT('Origin',(100.,-3.,-39.8500000000001));
#885=CARTESIAN_POINT('',(200.,-3.,0.));
#886=CARTESIAN_POINT('',(0.,-3.,0.));
#887=CARTESIAN_POINT('Origin',(40.3,0.,-15.2));
#888=CARTESIAN_POINT('',(23.3,0.,-8.20000000000004));
#889=CARTESIAN_POINT('',(40.3,0.,-15.2));
#890=CARTESIAN_POINT('Origin',(48.8,0.,-3.20000000000004));
#891=CARTESIAN_POINT('',(48.8,0.,-3.20000000000004));
#892=CARTESIAN_POINT('Origin',(48.8,0.,-0.700000000000034));
#893=CARTESIAN_POINT('',(48.8,0.,-0.700000000000034));
#894=CARTESIAN_POINT('Origin',(114.8,0.,-0.700000000000061));
#895=CARTESIAN_POINT('',(114.8,0.,-0.700000000000061));
#896=CARTESIAN_POINT('Origin',(114.8,0.,-3.20000000000006));
#897=CARTESIAN_POINT('',(114.8,0.,-3.20000000000006));
#898=CARTESIAN_POINT('Origin',(184.8,0.,-3.20000000000007));
#899=CARTESIAN_POINT('',(184.8,0.,-3.20000000000007));
#900=CARTESIAN_POINT('Origin',(197.,0.,-12.3500000000001));
#901=CARTESIAN_POINT('',(197.,0.,-12.3500000000001));
#902=CARTESIAN_POINT('Origin',(197.,0.,-67.3500000000001));
#903=CARTESIAN_POINT('',(197.,0.,-67.3500000000001));
#904=CARTESIAN_POINT('Origin',(184.8,0.,-76.5000000000001));
#905=CARTESIAN_POINT('',(184.8,0.,-76.5000000000001));
#906=CARTESIAN_POINT('Origin',(114.8,0.,-76.5000000000001));
#907=CARTESIAN_POINT('',(114.8,0.,-76.5000000000001));
#908=CARTESIAN_POINT('Origin',(114.8,0.,-79.));
#909=CARTESIAN_POINT('',(114.8,0.,-79.));
#910=CARTESIAN_POINT('Origin',(48.8,0.,-79.));
#911=CARTESIAN_POINT('',(48.8,0.,-79.));
#912=CARTESIAN_POINT('Origin',(48.8,0.,-76.5));
#913=CARTESIAN_POINT('',(48.8,0.,-76.5));
#914=CARTESIAN_POINT('Origin',(40.3,0.,-64.5));
#915=CARTESIAN_POINT('',(40.3,0.,-64.5));
#916=CARTESIAN_POINT('Origin',(23.3,0.,-71.5));
#917=CARTESIAN_POINT('',(23.3,0.,-71.5));
#918=CARTESIAN_POINT('Origin',(3.,0.,-47.35));
#919=CARTESIAN_POINT('',(3.,0.,-47.35));
#920=CARTESIAN_POINT('Origin',(3.,0.,-32.35));
#921=CARTESIAN_POINT('',(3.,0.,-32.35));
#922=CARTESIAN_POINT('Origin',(23.3,0.,-8.20000000000004));
#923=CARTESIAN_POINT('Origin',(0.,0.,0.));
#924=CARTESIAN_POINT('Origin',(0.,0.,-79.7000000000001));
#925=UNCERTAINTY_MEASURE_WITH_UNIT(LENGTH_MEASURE(0.01),#929,
'DISTANCE_ACCURACY_VALUE',
'Maximum model space distance between geometric entities at asserted c
onnectivities');
#926=UNCERTAINTY_MEASURE_WITH_UNIT(LENGTH_MEASURE(0.01),#929,
'DISTANCE_ACCURACY_VALUE',
'Maximum model space distance between geometric entities at asserted c
onnectivities');
#927=(
GEOMETRIC_REPRESENTATION_CONTEXT(3)
GLOBAL_UNCERTAINTY_ASSIGNED_CONTEXT((#925))
GLOBAL_UNIT_ASSIGNED_CONTEXT((#929,#931,#932))
REPRESENTATION_CONTEXT('','3D')
);
#928=(
GEOMETRIC_REPRESENTATION_CONTEXT(3)
GLOBAL_UNCERTAINTY_ASSIGNED_CONTEXT((#926))
GLOBAL_UNIT_ASSIGNED_CONTEXT((#929,#931,#932))
REPRESENTATION_CONTEXT('','3D')
);
#929=(
LENGTH_UNIT()
NAMED_UNIT(*)
SI_UNIT(.MILLI.,.METRE.)
);
#930=(
LENGTH_UNIT()
NAMED_UNIT(*)
SI_UNIT(.CENTI.,.METRE.)
);
#931=(
NAMED_UNIT(*)
PLANE_ANGLE_UNIT()
SI_UNIT($,.RADIAN.)
);
#932=(
NAMED_UNIT(*)
SI_UNIT($,.STERADIAN.)
SOLID_ANGLE_UNIT()
);
#933=SHAPE_DEFINITION_REPRESENTATION(#934,#935);
#934=PRODUCT_DEFINITION_SHAPE('',$,#937);
#935=SHAPE_REPRESENTATION('',(#597),#927);
#936=PRODUCT_DEFINITION_CONTEXT('part definition',#941,'design');
#937=PRODUCT_DEFINITION('h6-case','h6-case',#938,#936);
#938=PRODUCT_DEFINITION_FORMATION('',$,#943);
#939=PRODUCT_RELATED_PRODUCT_CATEGORY('h6-case','h6-case',(#943));
#940=APPLICATION_PROTOCOL_DEFINITION('international standard',
'automotive_design',2009,#941);
#941=APPLICATION_CONTEXT(
'Core Data for Automotive Mechanical Design Process');
#942=PRODUCT_CONTEXT('part definition',#941,'mechanical');
#943=PRODUCT('h6-case','h6-case',$,(#942));
#944=PRESENTATION_STYLE_ASSIGNMENT((#945));
#945=SURFACE_STYLE_USAGE(.BOTH.,#948);
#946=SURFACE_STYLE_RENDERING_WITH_PROPERTIES($,#952,(#947));
#947=SURFACE_STYLE_TRANSPARENT(0.);
#948=SURFACE_SIDE_STYLE('',(#949,#946));
#949=SURFACE_STYLE_FILL_AREA(#950);
#950=FILL_AREA_STYLE('',(#951));
#951=FILL_AREA_STYLE_COLOUR('',#952);
#952=COLOUR_RGB('',0.749019607843137,0.749019607843137,0.749019607843137);
ENDSEC;
END-ISO-10303-21;
