ISO-10303-21;
HEADER;
/* Generated by software containing ST-Developer
 * from STEP Tools, Inc. (www.steptools.com) 
 */

FILE_DESCRIPTION(
/* description */ (''),
/* implementation_level */ '2;1');

FILE_NAME(
/* name */ 'V2.1-H6-case.stp',
/* time_stamp */ '2025-08-18T22:29:19+01:00',
/* author */ ('iwheard'),
/* organization */ (''),
/* preprocessor_version */ 'ST-DEVELOPER v20',
/* originating_system */ 'Autodesk Inventor 2024',
/* authorisation */ '');

FILE_SCHEMA (('AUTOMOTIVE_DESIGN { 1 0 10303 214 3 1 1 }'));
ENDSEC;

DATA;
#10=MECHANICAL_DESIGN_GEOMETRIC_PRESENTATION_REPRESENTATION('',(#13),#724);
#11=SHAPE_REPRESENTATION_RELATIONSHIP('SRR','None',#731,#12);
#12=ADVANCED_BREP_SHAPE_REPRESENTATION('',(#14),#723);
#13=STYLED_ITEM('',(#740),#14);
#14=MANIFOLD_SOLID_BREP('Solid1',#447);
#15=FACE_BOUND('',#60,.T.);
#16=FACE_BOUND('',#62,.T.);
#17=FACE_OUTER_BOUND('',#39,.T.);
#18=FACE_OUTER_BOUND('',#40,.T.);
#19=FACE_OUTER_BOUND('',#41,.T.);
#20=FACE_OUTER_BOUND('',#42,.T.);
#21=FACE_OUTER_BOUND('',#43,.T.);
#22=FACE_OUTER_BOUND('',#44,.T.);
#23=FACE_OUTER_BOUND('',#45,.T.);
#24=FACE_OUTER_BOUND('',#46,.T.);
#25=FACE_OUTER_BOUND('',#47,.T.);
#26=FACE_OUTER_BOUND('',#48,.T.);
#27=FACE_OUTER_BOUND('',#49,.T.);
#28=FACE_OUTER_BOUND('',#50,.T.);
#29=FACE_OUTER_BOUND('',#51,.T.);
#30=FACE_OUTER_BOUND('',#52,.T.);
#31=FACE_OUTER_BOUND('',#53,.T.);
#32=FACE_OUTER_BOUND('',#54,.T.);
#33=FACE_OUTER_BOUND('',#55,.T.);
#34=FACE_OUTER_BOUND('',#56,.T.);
#35=FACE_OUTER_BOUND('',#57,.T.);
#36=FACE_OUTER_BOUND('',#58,.T.);
#37=FACE_OUTER_BOUND('',#59,.T.);
#38=FACE_OUTER_BOUND('',#61,.T.);
#39=EDGE_LOOP('',(#283,#284,#285,#286));
#40=EDGE_LOOP('',(#287,#288,#289,#290));
#41=EDGE_LOOP('',(#291,#292,#293,#294));
#42=EDGE_LOOP('',(#295,#296,#297,#298));
#43=EDGE_LOOP('',(#299,#300,#301,#302));
#44=EDGE_LOOP('',(#303,#304,#305,#306));
#45=EDGE_LOOP('',(#307,#308,#309,#310));
#46=EDGE_LOOP('',(#311,#312,#313,#314));
#47=EDGE_LOOP('',(#315,#316,#317,#318));
#48=EDGE_LOOP('',(#319,#320,#321,#322));
#49=EDGE_LOOP('',(#323,#324,#325,#326));
#50=EDGE_LOOP('',(#327,#328,#329,#330));
#51=EDGE_LOOP('',(#331,#332,#333,#334));
#52=EDGE_LOOP('',(#335,#336,#337,#338));
#53=EDGE_LOOP('',(#339,#340,#341,#342));
#54=EDGE_LOOP('',(#343,#344,#345,#346));
#55=EDGE_LOOP('',(#347,#348,#349,#350));
#56=EDGE_LOOP('',(#351,#352,#353,#354));
#57=EDGE_LOOP('',(#355,#356,#357,#358));
#58=EDGE_LOOP('',(#359,#360,#361,#362));
#59=EDGE_LOOP('',(#363,#364,#365,#366));
#60=EDGE_LOOP('',(#367,#368,#369,#370,#371,#372,#373,#374,#375,#376,#377,
#378,#379,#380,#381,#382));
#61=EDGE_LOOP('',(#383,#384,#385,#386));
#62=EDGE_LOOP('',(#387,#388,#389,#390,#391,#392,#393,#394,#395,#396,#397,
#398,#399,#400,#401,#402));
#63=LINE('',#602,#123);
#64=LINE('',#604,#124);
#65=LINE('',#606,#125);
#66=LINE('',#607,#126);
#67=LINE('',#610,#127);
#68=LINE('',#612,#128);
#69=LINE('',#613,#129);
#70=LINE('',#616,#130);
#71=LINE('',#618,#131);
#72=LINE('',#619,#132);
#73=LINE('',#622,#133);
#74=LINE('',#624,#134);
#75=LINE('',#625,#135);
#76=LINE('',#628,#136);
#77=LINE('',#630,#137);
#78=LINE('',#631,#138);
#79=LINE('',#634,#139);
#80=LINE('',#636,#140);
#81=LINE('',#637,#141);
#82=LINE('',#640,#142);
#83=LINE('',#642,#143);
#84=LINE('',#643,#144);
#85=LINE('',#646,#145);
#86=LINE('',#648,#146);
#87=LINE('',#649,#147);
#88=LINE('',#652,#148);
#89=LINE('',#654,#149);
#90=LINE('',#655,#150);
#91=LINE('',#658,#151);
#92=LINE('',#660,#152);
#93=LINE('',#661,#153);
#94=LINE('',#664,#154);
#95=LINE('',#666,#155);
#96=LINE('',#667,#156);
#97=LINE('',#670,#157);
#98=LINE('',#672,#158);
#99=LINE('',#673,#159);
#100=LINE('',#676,#160);
#101=LINE('',#678,#161);
#102=LINE('',#679,#162);
#103=LINE('',#682,#163);
#104=LINE('',#684,#164);
#105=LINE('',#685,#165);
#106=LINE('',#688,#166);
#107=LINE('',#690,#167);
#108=LINE('',#691,#168);
#109=LINE('',#693,#169);
#110=LINE('',#694,#170);
#111=LINE('',#698,#171);
#112=LINE('',#700,#172);
#113=LINE('',#702,#173);
#114=LINE('',#703,#174);
#115=LINE('',#706,#175);
#116=LINE('',#708,#176);
#117=LINE('',#709,#177);
#118=LINE('',#712,#178);
#119=LINE('',#714,#179);
#120=LINE('',#715,#180);
#121=LINE('',#717,#181);
#122=LINE('',#718,#182);
#123=VECTOR('',#496,10.);
#124=VECTOR('',#497,10.);
#125=VECTOR('',#498,10.);
#126=VECTOR('',#499,10.);
#127=VECTOR('',#502,10.);
#128=VECTOR('',#503,10.);
#129=VECTOR('',#504,10.);
#130=VECTOR('',#507,10.);
#131=VECTOR('',#508,10.);
#132=VECTOR('',#509,10.);
#133=VECTOR('',#512,10.);
#134=VECTOR('',#513,10.);
#135=VECTOR('',#514,10.);
#136=VECTOR('',#517,10.);
#137=VECTOR('',#518,10.);
#138=VECTOR('',#519,10.);
#139=VECTOR('',#522,10.);
#140=VECTOR('',#523,10.);
#141=VECTOR('',#524,10.);
#142=VECTOR('',#527,10.);
#143=VECTOR('',#528,10.);
#144=VECTOR('',#529,10.);
#145=VECTOR('',#532,10.);
#146=VECTOR('',#533,10.);
#147=VECTOR('',#534,10.);
#148=VECTOR('',#537,10.);
#149=VECTOR('',#538,10.);
#150=VECTOR('',#539,10.);
#151=VECTOR('',#542,10.);
#152=VECTOR('',#543,10.);
#153=VECTOR('',#544,10.);
#154=VECTOR('',#547,10.);
#155=VECTOR('',#548,10.);
#156=VECTOR('',#549,10.);
#157=VECTOR('',#552,10.);
#158=VECTOR('',#553,10.);
#159=VECTOR('',#554,10.);
#160=VECTOR('',#557,10.);
#161=VECTOR('',#558,10.);
#162=VECTOR('',#559,10.);
#163=VECTOR('',#562,10.);
#164=VECTOR('',#563,10.);
#165=VECTOR('',#564,10.);
#166=VECTOR('',#567,10.);
#167=VECTOR('',#568,10.);
#168=VECTOR('',#569,10.);
#169=VECTOR('',#572,10.);
#170=VECTOR('',#573,10.);
#171=VECTOR('',#576,10.);
#172=VECTOR('',#577,10.);
#173=VECTOR('',#578,10.);
#174=VECTOR('',#579,10.);
#175=VECTOR('',#582,10.);
#176=VECTOR('',#583,10.);
#177=VECTOR('',#584,10.);
#178=VECTOR('',#587,10.);
#179=VECTOR('',#588,10.);
#180=VECTOR('',#589,10.);
#181=VECTOR('',#592,10.);
#182=VECTOR('',#593,10.);
#183=VERTEX_POINT('',#600);
#184=VERTEX_POINT('',#601);
#185=VERTEX_POINT('',#603);
#186=VERTEX_POINT('',#605);
#187=VERTEX_POINT('',#609);
#188=VERTEX_POINT('',#611);
#189=VERTEX_POINT('',#615);
#190=VERTEX_POINT('',#617);
#191=VERTEX_POINT('',#621);
#192=VERTEX_POINT('',#623);
#193=VERTEX_POINT('',#627);
#194=VERTEX_POINT('',#629);
#195=VERTEX_POINT('',#633);
#196=VERTEX_POINT('',#635);
#197=VERTEX_POINT('',#639);
#198=VERTEX_POINT('',#641);
#199=VERTEX_POINT('',#645);
#200=VERTEX_POINT('',#647);
#201=VERTEX_POINT('',#651);
#202=VERTEX_POINT('',#653);
#203=VERTEX_POINT('',#657);
#204=VERTEX_POINT('',#659);
#205=VERTEX_POINT('',#663);
#206=VERTEX_POINT('',#665);
#207=VERTEX_POINT('',#669);
#208=VERTEX_POINT('',#671);
#209=VERTEX_POINT('',#675);
#210=VERTEX_POINT('',#677);
#211=VERTEX_POINT('',#681);
#212=VERTEX_POINT('',#683);
#213=VERTEX_POINT('',#687);
#214=VERTEX_POINT('',#689);
#215=VERTEX_POINT('',#696);
#216=VERTEX_POINT('',#697);
#217=VERTEX_POINT('',#699);
#218=VERTEX_POINT('',#701);
#219=VERTEX_POINT('',#705);
#220=VERTEX_POINT('',#707);
#221=VERTEX_POINT('',#711);
#222=VERTEX_POINT('',#713);
#223=EDGE_CURVE('',#183,#184,#63,.T.);
#224=EDGE_CURVE('',#184,#185,#64,.T.);
#225=EDGE_CURVE('',#186,#185,#65,.T.);
#226=EDGE_CURVE('',#183,#186,#66,.T.);
#227=EDGE_CURVE('',#187,#183,#67,.T.);
#228=EDGE_CURVE('',#188,#186,#68,.T.);
#229=EDGE_CURVE('',#187,#188,#69,.T.);
#230=EDGE_CURVE('',#189,#187,#70,.T.);
#231=EDGE_CURVE('',#190,#188,#71,.T.);
#232=EDGE_CURVE('',#189,#190,#72,.T.);
#233=EDGE_CURVE('',#191,#189,#73,.T.);
#234=EDGE_CURVE('',#192,#190,#74,.T.);
#235=EDGE_CURVE('',#191,#192,#75,.T.);
#236=EDGE_CURVE('',#193,#191,#76,.T.);
#237=EDGE_CURVE('',#194,#192,#77,.T.);
#238=EDGE_CURVE('',#193,#194,#78,.T.);
#239=EDGE_CURVE('',#195,#193,#79,.T.);
#240=EDGE_CURVE('',#196,#194,#80,.T.);
#241=EDGE_CURVE('',#195,#196,#81,.T.);
#242=EDGE_CURVE('',#197,#195,#82,.T.);
#243=EDGE_CURVE('',#198,#196,#83,.T.);
#244=EDGE_CURVE('',#197,#198,#84,.T.);
#245=EDGE_CURVE('',#199,#197,#85,.T.);
#246=EDGE_CURVE('',#200,#198,#86,.T.);
#247=EDGE_CURVE('',#199,#200,#87,.T.);
#248=EDGE_CURVE('',#201,#199,#88,.T.);
#249=EDGE_CURVE('',#202,#200,#89,.T.);
#250=EDGE_CURVE('',#201,#202,#90,.T.);
#251=EDGE_CURVE('',#203,#201,#91,.T.);
#252=EDGE_CURVE('',#204,#202,#92,.T.);
#253=EDGE_CURVE('',#203,#204,#93,.T.);
#254=EDGE_CURVE('',#205,#203,#94,.T.);
#255=EDGE_CURVE('',#206,#204,#95,.T.);
#256=EDGE_CURVE('',#205,#206,#96,.T.);
#257=EDGE_CURVE('',#207,#205,#97,.T.);
#258=EDGE_CURVE('',#208,#206,#98,.T.);
#259=EDGE_CURVE('',#207,#208,#99,.T.);
#260=EDGE_CURVE('',#209,#207,#100,.T.);
#261=EDGE_CURVE('',#210,#208,#101,.T.);
#262=EDGE_CURVE('',#209,#210,#102,.T.);
#263=EDGE_CURVE('',#211,#209,#103,.T.);
#264=EDGE_CURVE('',#212,#210,#104,.T.);
#265=EDGE_CURVE('',#211,#212,#105,.T.);
#266=EDGE_CURVE('',#213,#211,#106,.T.);
#267=EDGE_CURVE('',#214,#212,#107,.T.);
#268=EDGE_CURVE('',#213,#214,#108,.T.);
#269=EDGE_CURVE('',#184,#213,#109,.T.);
#270=EDGE_CURVE('',#185,#214,#110,.T.);
#271=EDGE_CURVE('',#215,#216,#111,.T.);
#272=EDGE_CURVE('',#216,#217,#112,.T.);
#273=EDGE_CURVE('',#218,#217,#113,.T.);
#274=EDGE_CURVE('',#215,#218,#114,.T.);
#275=EDGE_CURVE('',#219,#215,#115,.T.);
#276=EDGE_CURVE('',#220,#218,#116,.T.);
#277=EDGE_CURVE('',#219,#220,#117,.T.);
#278=EDGE_CURVE('',#221,#219,#118,.T.);
#279=EDGE_CURVE('',#222,#220,#119,.T.);
#280=EDGE_CURVE('',#221,#222,#120,.T.);
#281=EDGE_CURVE('',#216,#221,#121,.T.);
#282=EDGE_CURVE('',#217,#222,#122,.T.);
#283=ORIENTED_EDGE('',*,*,#223,.T.);
#284=ORIENTED_EDGE('',*,*,#224,.T.);
#285=ORIENTED_EDGE('',*,*,#225,.F.);
#286=ORIENTED_EDGE('',*,*,#226,.F.);
#287=ORIENTED_EDGE('',*,*,#227,.T.);
#288=ORIENTED_EDGE('',*,*,#226,.T.);
#289=ORIENTED_EDGE('',*,*,#228,.F.);
#290=ORIENTED_EDGE('',*,*,#229,.F.);
#291=ORIENTED_EDGE('',*,*,#230,.T.);
#292=ORIENTED_EDGE('',*,*,#229,.T.);
#293=ORIENTED_EDGE('',*,*,#231,.F.);
#294=ORIENTED_EDGE('',*,*,#232,.F.);
#295=ORIENTED_EDGE('',*,*,#233,.T.);
#296=ORIENTED_EDGE('',*,*,#232,.T.);
#297=ORIENTED_EDGE('',*,*,#234,.F.);
#298=ORIENTED_EDGE('',*,*,#235,.F.);
#299=ORIENTED_EDGE('',*,*,#236,.T.);
#300=ORIENTED_EDGE('',*,*,#235,.T.);
#301=ORIENTED_EDGE('',*,*,#237,.F.);
#302=ORIENTED_EDGE('',*,*,#238,.F.);
#303=ORIENTED_EDGE('',*,*,#239,.T.);
#304=ORIENTED_EDGE('',*,*,#238,.T.);
#305=ORIENTED_EDGE('',*,*,#240,.F.);
#306=ORIENTED_EDGE('',*,*,#241,.F.);
#307=ORIENTED_EDGE('',*,*,#242,.T.);
#308=ORIENTED_EDGE('',*,*,#241,.T.);
#309=ORIENTED_EDGE('',*,*,#243,.F.);
#310=ORIENTED_EDGE('',*,*,#244,.F.);
#311=ORIENTED_EDGE('',*,*,#245,.T.);
#312=ORIENTED_EDGE('',*,*,#244,.T.);
#313=ORIENTED_EDGE('',*,*,#246,.F.);
#314=ORIENTED_EDGE('',*,*,#247,.F.);
#315=ORIENTED_EDGE('',*,*,#248,.T.);
#316=ORIENTED_EDGE('',*,*,#247,.T.);
#317=ORIENTED_EDGE('',*,*,#249,.F.);
#318=ORIENTED_EDGE('',*,*,#250,.F.);
#319=ORIENTED_EDGE('',*,*,#251,.T.);
#320=ORIENTED_EDGE('',*,*,#250,.T.);
#321=ORIENTED_EDGE('',*,*,#252,.F.);
#322=ORIENTED_EDGE('',*,*,#253,.F.);
#323=ORIENTED_EDGE('',*,*,#254,.T.);
#324=ORIENTED_EDGE('',*,*,#253,.T.);
#325=ORIENTED_EDGE('',*,*,#255,.F.);
#326=ORIENTED_EDGE('',*,*,#256,.F.);
#327=ORIENTED_EDGE('',*,*,#257,.T.);
#328=ORIENTED_EDGE('',*,*,#256,.T.);
#329=ORIENTED_EDGE('',*,*,#258,.F.);
#330=ORIENTED_EDGE('',*,*,#259,.F.);
#331=ORIENTED_EDGE('',*,*,#260,.T.);
#332=ORIENTED_EDGE('',*,*,#259,.T.);
#333=ORIENTED_EDGE('',*,*,#261,.F.);
#334=ORIENTED_EDGE('',*,*,#262,.F.);
#335=ORIENTED_EDGE('',*,*,#263,.T.);
#336=ORIENTED_EDGE('',*,*,#262,.T.);
#337=ORIENTED_EDGE('',*,*,#264,.F.);
#338=ORIENTED_EDGE('',*,*,#265,.F.);
#339=ORIENTED_EDGE('',*,*,#266,.T.);
#340=ORIENTED_EDGE('',*,*,#265,.T.);
#341=ORIENTED_EDGE('',*,*,#267,.F.);
#342=ORIENTED_EDGE('',*,*,#268,.F.);
#343=ORIENTED_EDGE('',*,*,#269,.T.);
#344=ORIENTED_EDGE('',*,*,#268,.T.);
#345=ORIENTED_EDGE('',*,*,#270,.F.);
#346=ORIENTED_EDGE('',*,*,#224,.F.);
#347=ORIENTED_EDGE('',*,*,#271,.T.);
#348=ORIENTED_EDGE('',*,*,#272,.T.);
#349=ORIENTED_EDGE('',*,*,#273,.F.);
#350=ORIENTED_EDGE('',*,*,#274,.F.);
#351=ORIENTED_EDGE('',*,*,#275,.T.);
#352=ORIENTED_EDGE('',*,*,#274,.T.);
#353=ORIENTED_EDGE('',*,*,#276,.F.);
#354=ORIENTED_EDGE('',*,*,#277,.F.);
#355=ORIENTED_EDGE('',*,*,#278,.T.);
#356=ORIENTED_EDGE('',*,*,#277,.T.);
#357=ORIENTED_EDGE('',*,*,#279,.F.);
#358=ORIENTED_EDGE('',*,*,#280,.F.);
#359=ORIENTED_EDGE('',*,*,#281,.T.);
#360=ORIENTED_EDGE('',*,*,#280,.T.);
#361=ORIENTED_EDGE('',*,*,#282,.F.);
#362=ORIENTED_EDGE('',*,*,#272,.F.);
#363=ORIENTED_EDGE('',*,*,#282,.T.);
#364=ORIENTED_EDGE('',*,*,#279,.T.);
#365=ORIENTED_EDGE('',*,*,#276,.T.);
#366=ORIENTED_EDGE('',*,*,#273,.T.);
#367=ORIENTED_EDGE('',*,*,#270,.T.);
#368=ORIENTED_EDGE('',*,*,#267,.T.);
#369=ORIENTED_EDGE('',*,*,#264,.T.);
#370=ORIENTED_EDGE('',*,*,#261,.T.);
#371=ORIENTED_EDGE('',*,*,#258,.T.);
#372=ORIENTED_EDGE('',*,*,#255,.T.);
#373=ORIENTED_EDGE('',*,*,#252,.T.);
#374=ORIENTED_EDGE('',*,*,#249,.T.);
#375=ORIENTED_EDGE('',*,*,#246,.T.);
#376=ORIENTED_EDGE('',*,*,#243,.T.);
#377=ORIENTED_EDGE('',*,*,#240,.T.);
#378=ORIENTED_EDGE('',*,*,#237,.T.);
#379=ORIENTED_EDGE('',*,*,#234,.T.);
#380=ORIENTED_EDGE('',*,*,#231,.T.);
#381=ORIENTED_EDGE('',*,*,#228,.T.);
#382=ORIENTED_EDGE('',*,*,#225,.T.);
#383=ORIENTED_EDGE('',*,*,#281,.F.);
#384=ORIENTED_EDGE('',*,*,#271,.F.);
#385=ORIENTED_EDGE('',*,*,#275,.F.);
#386=ORIENTED_EDGE('',*,*,#278,.F.);
#387=ORIENTED_EDGE('',*,*,#269,.F.);
#388=ORIENTED_EDGE('',*,*,#223,.F.);
#389=ORIENTED_EDGE('',*,*,#227,.F.);
#390=ORIENTED_EDGE('',*,*,#230,.F.);
#391=ORIENTED_EDGE('',*,*,#233,.F.);
#392=ORIENTED_EDGE('',*,*,#236,.F.);
#393=ORIENTED_EDGE('',*,*,#239,.F.);
#394=ORIENTED_EDGE('',*,*,#242,.F.);
#395=ORIENTED_EDGE('',*,*,#245,.F.);
#396=ORIENTED_EDGE('',*,*,#248,.F.);
#397=ORIENTED_EDGE('',*,*,#251,.F.);
#398=ORIENTED_EDGE('',*,*,#254,.F.);
#399=ORIENTED_EDGE('',*,*,#257,.F.);
#400=ORIENTED_EDGE('',*,*,#260,.F.);
#401=ORIENTED_EDGE('',*,*,#263,.F.);
#402=ORIENTED_EDGE('',*,*,#266,.F.);
#403=PLANE('',#470);
#404=PLANE('',#471);
#405=PLANE('',#472);
#406=PLANE('',#473);
#407=PLANE('',#474);
#408=PLANE('',#475);
#409=PLANE('',#476);
#410=PLANE('',#477);
#411=PLANE('',#478);
#412=PLANE('',#479);
#413=PLANE('',#480);
#414=PLANE('',#481);
#415=PLANE('',#482);
#416=PLANE('',#483);
#417=PLANE('',#484);
#418=PLANE('',#485);
#419=PLANE('',#486);
#420=PLANE('',#487);
#421=PLANE('',#488);
#422=PLANE('',#489);
#423=PLANE('',#490);
#424=PLANE('',#491);
#425=ADVANCED_FACE('',(#17),#403,.T.);
#426=ADVANCED_FACE('',(#18),#404,.T.);
#427=ADVANCED_FACE('',(#19),#405,.T.);
#428=ADVANCED_FACE('',(#20),#406,.T.);
#429=ADVANCED_FACE('',(#21),#407,.T.);
#430=ADVANCED_FACE('',(#22),#408,.T.);
#431=ADVANCED_FACE('',(#23),#409,.T.);
#432=ADVANCED_FACE('',(#24),#410,.T.);
#433=ADVANCED_FACE('',(#25),#411,.T.);
#434=ADVANCED_FACE('',(#26),#412,.T.);
#435=ADVANCED_FACE('',(#27),#413,.T.);
#436=ADVANCED_FACE('',(#28),#414,.T.);
#437=ADVANCED_FACE('',(#29),#415,.T.);
#438=ADVANCED_FACE('',(#30),#416,.T.);
#439=ADVANCED_FACE('',(#31),#417,.T.);
#440=ADVANCED_FACE('',(#32),#418,.T.);
#441=ADVANCED_FACE('',(#33),#419,.T.);
#442=ADVANCED_FACE('',(#34),#420,.T.);
#443=ADVANCED_FACE('',(#35),#421,.T.);
#444=ADVANCED_FACE('',(#36),#422,.T.);
#445=ADVANCED_FACE('',(#37,#15),#423,.T.);
#446=ADVANCED_FACE('',(#38,#16),#424,.F.);
#447=CLOSED_SHELL('',(#425,#426,#427,#428,#429,#430,#431,#432,#433,#434,
#435,#436,#437,#438,#439,#440,#441,#442,#443,#444,#445,#446));
#448=DERIVED_UNIT_ELEMENT(#451,1.);
#449=DERIVED_UNIT_ELEMENT(#726,-3.);
#450=DIMENSIONAL_EXPONENTS(0.,1.,0.,0.,0.,0.,0.);
#451=(
CONVERSION_BASED_UNIT('gram',#453)
MASS_UNIT()
NAMED_UNIT(#450)
);
#452=(
MASS_UNIT()
NAMED_UNIT(*)
SI_UNIT(.KILO.,.GRAM.)
);
#453=MASS_MEASURE_WITH_UNIT(MASS_MEASURE(0.001),#452);
#454=DERIVED_UNIT((#448,#449));
#455=MEASURE_REPRESENTATION_ITEM('density measure',
POSITIVE_RATIO_MEASURE(1.),#454);
#456=PROPERTY_DEFINITION_REPRESENTATION(#461,#458);
#457=PROPERTY_DEFINITION_REPRESENTATION(#462,#459);
#458=REPRESENTATION('material name',(#460),#723);
#459=REPRESENTATION('density',(#455),#723);
#460=DESCRIPTIVE_REPRESENTATION_ITEM('Generic','Generic');
#461=PROPERTY_DEFINITION('material property','material name',#733);
#462=PROPERTY_DEFINITION('material property','density of part',#733);
#463=DATE_TIME_ROLE('creation_date');
#464=APPLIED_DATE_AND_TIME_ASSIGNMENT(#465,#463,(#733));
#465=DATE_AND_TIME(#466,#467);
#466=CALENDAR_DATE(2025,18,8);
#467=LOCAL_TIME(0,0,0.,#468);
#468=COORDINATED_UNIVERSAL_TIME_OFFSET(0,0,.BEHIND.);
#469=AXIS2_PLACEMENT_3D('',#598,#492,#493);
#470=AXIS2_PLACEMENT_3D('',#599,#494,#495);
#471=AXIS2_PLACEMENT_3D('',#608,#500,#501);
#472=AXIS2_PLACEMENT_3D('',#614,#505,#506);
#473=AXIS2_PLACEMENT_3D('',#620,#510,#511);
#474=AXIS2_PLACEMENT_3D('',#626,#515,#516);
#475=AXIS2_PLACEMENT_3D('',#632,#520,#521);
#476=AXIS2_PLACEMENT_3D('',#638,#525,#526);
#477=AXIS2_PLACEMENT_3D('',#644,#530,#531);
#478=AXIS2_PLACEMENT_3D('',#650,#535,#536);
#479=AXIS2_PLACEMENT_3D('',#656,#540,#541);
#480=AXIS2_PLACEMENT_3D('',#662,#545,#546);
#481=AXIS2_PLACEMENT_3D('',#668,#550,#551);
#482=AXIS2_PLACEMENT_3D('',#674,#555,#556);
#483=AXIS2_PLACEMENT_3D('',#680,#560,#561);
#484=AXIS2_PLACEMENT_3D('',#686,#565,#566);
#485=AXIS2_PLACEMENT_3D('',#692,#570,#571);
#486=AXIS2_PLACEMENT_3D('',#695,#574,#575);
#487=AXIS2_PLACEMENT_3D('',#704,#580,#581);
#488=AXIS2_PLACEMENT_3D('',#710,#585,#586);
#489=AXIS2_PLACEMENT_3D('',#716,#590,#591);
#490=AXIS2_PLACEMENT_3D('',#719,#594,#595);
#491=AXIS2_PLACEMENT_3D('',#720,#596,#597);
#492=DIRECTION('axis',(0.,0.,1.));
#493=DIRECTION('refdir',(1.,0.,0.));
#494=DIRECTION('center_axis',(-0.295553992760536,0.,-0.955326037205783));
#495=DIRECTION('ref_axis',(-0.955326037205783,0.,0.295553992760536));
#496=DIRECTION('',(-0.955326037205783,0.,0.295553992760536));
#497=DIRECTION('',(0.,1.,0.));
#498=DIRECTION('',(-0.955326037205783,0.,0.295553992760536));
#499=DIRECTION('',(0.,1.,0.));
#500=DIRECTION('center_axis',(0.769954008591962,0.,-0.638099384620585));
#501=DIRECTION('ref_axis',(-0.638099384620585,0.,-0.769954008591962));
#502=DIRECTION('',(-0.638099384620585,0.,-0.769954008591962));
#503=DIRECTION('',(-0.638099384620585,0.,-0.769954008591962));
#504=DIRECTION('',(0.,1.,0.));
#505=DIRECTION('center_axis',(-3.67353206677441E-16,0.,-1.));
#506=DIRECTION('ref_axis',(-1.,0.,3.67353206677441E-16));
#507=DIRECTION('',(-1.,0.,3.67353206677441E-16));
#508=DIRECTION('',(-1.,0.,3.67353206677441E-16));
#509=DIRECTION('',(0.,1.,0.));
#510=DIRECTION('center_axis',(-1.,0.,0.));
#511=DIRECTION('ref_axis',(0.,0.,1.));
#512=DIRECTION('',(0.,0.,1.));
#513=DIRECTION('',(0.,0.,1.));
#514=DIRECTION('',(0.,1.,0.));
#515=DIRECTION('center_axis',(-2.61228946970625E-16,0.,-1.));
#516=DIRECTION('ref_axis',(-1.,0.,2.61228946970625E-16));
#517=DIRECTION('',(-1.,0.,2.61228946970625E-16));
#518=DIRECTION('',(-1.,0.,2.61228946970625E-16));
#519=DIRECTION('',(0.,1.,0.));
#520=DIRECTION('center_axis',(-0.597929481533848,0.,-0.801548710380513));
#521=DIRECTION('ref_axis',(-0.801548710380513,0.,0.597929481533848));
#522=DIRECTION('',(-0.801548710380513,0.,0.597929481533848));
#523=DIRECTION('',(-0.801548710380513,0.,0.597929481533848));
#524=DIRECTION('',(0.,1.,0.));
#525=DIRECTION('center_axis',(-1.,0.,0.));
#526=DIRECTION('ref_axis',(0.,0.,1.));
#527=DIRECTION('',(0.,0.,1.));
#528=DIRECTION('',(0.,0.,1.));
#529=DIRECTION('',(0.,1.,0.));
#530=DIRECTION('center_axis',(-0.597929481533847,0.,0.801548710380514));
#531=DIRECTION('ref_axis',(0.801548710380514,0.,0.597929481533847));
#532=DIRECTION('',(0.801548710380514,0.,0.597929481533847));
#533=DIRECTION('',(0.801548710380514,0.,0.597929481533847));
#534=DIRECTION('',(0.,1.,0.));
#535=DIRECTION('center_axis',(0.,0.,1.));
#536=DIRECTION('ref_axis',(1.,0.,0.));
#537=DIRECTION('',(1.,0.,0.));
#538=DIRECTION('',(1.,0.,0.));
#539=DIRECTION('',(0.,1.,0.));
#540=DIRECTION('center_axis',(-1.,0.,0.));
#541=DIRECTION('ref_axis',(0.,0.,1.));
#542=DIRECTION('',(0.,0.,1.));
#543=DIRECTION('',(0.,0.,1.));
#544=DIRECTION('',(0.,1.,0.));
#545=DIRECTION('center_axis',(0.,0.,1.));
#546=DIRECTION('ref_axis',(1.,0.,0.));
#547=DIRECTION('',(1.,0.,0.));
#548=DIRECTION('',(1.,0.,0.));
#549=DIRECTION('',(0.,1.,0.));
#550=DIRECTION('center_axis',(0.76995400859196,0.,0.638099384620587));
#551=DIRECTION('ref_axis',(0.638099384620587,0.,-0.76995400859196));
#552=DIRECTION('',(0.638099384620587,0.,-0.76995400859196));
#553=DIRECTION('',(0.638099384620587,0.,-0.76995400859196));
#554=DIRECTION('',(0.,1.,0.));
#555=DIRECTION('center_axis',(-0.295553992760538,0.,0.955326037205782));
#556=DIRECTION('ref_axis',(0.955326037205782,0.,0.295553992760538));
#557=DIRECTION('',(0.955326037205782,0.,0.295553992760538));
#558=DIRECTION('',(0.955326037205782,0.,0.295553992760538));
#559=DIRECTION('',(0.,1.,0.));
#560=DIRECTION('center_axis',(0.770785824179442,0.,0.63709435191659));
#561=DIRECTION('ref_axis',(0.637094351916589,0.,-0.770785824179441));
#562=DIRECTION('',(0.637094351916589,0.,-0.770785824179441));
#563=DIRECTION('',(0.637094351916589,0.,-0.770785824179441));
#564=DIRECTION('',(0.,1.,0.));
#565=DIRECTION('center_axis',(1.,0.,5.55111512312578E-16));
#566=DIRECTION('ref_axis',(5.55111512312578E-16,0.,-1.));
#567=DIRECTION('',(5.55111512312578E-16,0.,-1.));
#568=DIRECTION('',(5.55111512312578E-16,0.,-1.));
#569=DIRECTION('',(0.,1.,0.));
#570=DIRECTION('center_axis',(0.770785824179441,0.,-0.63709435191659));
#571=DIRECTION('ref_axis',(-0.63709435191659,0.,-0.770785824179441));
#572=DIRECTION('',(-0.63709435191659,0.,-0.770785824179441));
#573=DIRECTION('',(-0.63709435191659,0.,-0.770785824179441));
#574=DIRECTION('center_axis',(-3.53503848636866E-16,0.,-1.));
#575=DIRECTION('ref_axis',(-1.,0.,3.53503848636866E-16));
#576=DIRECTION('',(-1.,0.,3.53503848636866E-16));
#577=DIRECTION('',(0.,1.,0.));
#578=DIRECTION('',(-1.,0.,3.53503848636866E-16));
#579=DIRECTION('',(0.,1.,0.));
#580=DIRECTION('center_axis',(1.,0.,0.));
#581=DIRECTION('ref_axis',(0.,0.,-1.));
#582=DIRECTION('',(0.,0.,-1.));
#583=DIRECTION('',(0.,0.,-1.));
#584=DIRECTION('',(0.,1.,0.));
#585=DIRECTION('center_axis',(0.,0.,1.));
#586=DIRECTION('ref_axis',(1.,0.,0.));
#587=DIRECTION('',(1.,0.,0.));
#588=DIRECTION('',(1.,0.,0.));
#589=DIRECTION('',(0.,1.,0.));
#590=DIRECTION('center_axis',(-1.,0.,0.));
#591=DIRECTION('ref_axis',(0.,0.,1.));
#592=DIRECTION('',(0.,0.,1.));
#593=DIRECTION('',(0.,0.,1.));
#594=DIRECTION('center_axis',(0.,1.,0.));
#595=DIRECTION('ref_axis',(0.,0.,1.));
#596=DIRECTION('center_axis',(0.,1.,0.));
#597=DIRECTION('ref_axis',(0.,0.,1.));
#598=CARTESIAN_POINT('',(0.,0.,0.));
#599=CARTESIAN_POINT('Origin',(42.9699999999999,0.,-8.90000000000006));
#600=CARTESIAN_POINT('',(42.9699999999999,0.,-8.90000000000006));
#601=CARTESIAN_POINT('',(26.9699999999999,0.,-3.95000000000008));
#602=CARTESIAN_POINT('',(42.9699999999999,0.,-8.90000000000006));
#603=CARTESIAN_POINT('',(26.9699999999999,8.,-3.95000000000008));
#604=CARTESIAN_POINT('',(26.9699999999999,0.,-3.95000000000008));
#605=CARTESIAN_POINT('',(42.9699999999999,8.,-8.90000000000006));
#606=CARTESIAN_POINT('',(42.9699999999999,8.,-8.90000000000006));
#607=CARTESIAN_POINT('',(42.9699999999999,0.,-8.90000000000006));
#608=CARTESIAN_POINT('Origin',(49.5999999999999,0.,-0.900000000000055));
#609=CARTESIAN_POINT('',(49.5999999999999,0.,-0.900000000000056));
#610=CARTESIAN_POINT('',(49.5999999999999,0.,-0.900000000000055));
#611=CARTESIAN_POINT('',(49.5999999999999,8.,-0.900000000000052));
#612=CARTESIAN_POINT('',(49.5999999999999,8.,-0.900000000000055));
#613=CARTESIAN_POINT('',(49.5999999999999,0.,-0.900000000000056));
#614=CARTESIAN_POINT('Origin',(117.6,0.,-0.900000000000081));
#615=CARTESIAN_POINT('',(117.6,0.,-0.900000000000081));
#616=CARTESIAN_POINT('',(117.6,0.,-0.900000000000081));
#617=CARTESIAN_POINT('',(117.6,8.,-0.900000000000079));
#618=CARTESIAN_POINT('',(117.6,8.,-0.900000000000081));
#619=CARTESIAN_POINT('',(117.6,0.,-0.900000000000081));
#620=CARTESIAN_POINT('Origin',(117.6,0.,-3.20000000000007));
#621=CARTESIAN_POINT('',(117.6,0.,-3.20000000000007));
#622=CARTESIAN_POINT('',(117.6,0.,-3.20000000000007));
#623=CARTESIAN_POINT('',(117.6,8.,-3.20000000000007));
#624=CARTESIAN_POINT('',(117.6,8.,-3.20000000000007));
#625=CARTESIAN_POINT('',(117.6,0.,-3.20000000000007));
#626=CARTESIAN_POINT('Origin',(185.6,0.,-3.20000000000009));
#627=CARTESIAN_POINT('',(185.6,0.,-3.20000000000009));
#628=CARTESIAN_POINT('',(185.6,0.,-3.20000000000009));
#629=CARTESIAN_POINT('',(185.6,8.,-3.20000000000009));
#630=CARTESIAN_POINT('',(185.6,8.,-3.20000000000009));
#631=CARTESIAN_POINT('',(185.6,0.,-3.20000000000009));
#632=CARTESIAN_POINT('Origin',(198.,0.,-12.4500000000001));
#633=CARTESIAN_POINT('',(198.,0.,-12.4500000000001));
#634=CARTESIAN_POINT('',(198.,0.,-12.4500000000001));
#635=CARTESIAN_POINT('',(198.,8.,-12.4500000000001));
#636=CARTESIAN_POINT('',(198.,8.,-12.4500000000001));
#637=CARTESIAN_POINT('',(198.,0.,-12.4500000000001));
#638=CARTESIAN_POINT('Origin',(198.,0.,-67.4500000000001));
#639=CARTESIAN_POINT('',(198.,0.,-67.4500000000001));
#640=CARTESIAN_POINT('',(198.,0.,-67.4500000000001));
#641=CARTESIAN_POINT('',(198.,8.,-67.4500000000001));
#642=CARTESIAN_POINT('',(198.,8.,-67.4500000000001));
#643=CARTESIAN_POINT('',(198.,0.,-67.4500000000001));
#644=CARTESIAN_POINT('Origin',(185.6,0.,-76.7000000000001));
#645=CARTESIAN_POINT('',(185.6,0.,-76.7000000000001));
#646=CARTESIAN_POINT('',(185.6,0.,-76.7000000000001));
#647=CARTESIAN_POINT('',(185.6,8.,-76.7000000000001));
#648=CARTESIAN_POINT('',(185.6,8.,-76.7000000000001));
#649=CARTESIAN_POINT('',(185.6,0.,-76.7000000000001));
#650=CARTESIAN_POINT('Origin',(117.6,0.,-76.7000000000001));
#651=CARTESIAN_POINT('',(117.6,0.,-76.7000000000001));
#652=CARTESIAN_POINT('',(117.6,0.,-76.7000000000001));
#653=CARTESIAN_POINT('',(117.6,8.,-76.7000000000001));
#654=CARTESIAN_POINT('',(117.6,8.,-76.7000000000001));
#655=CARTESIAN_POINT('',(117.6,0.,-76.7000000000001));
#656=CARTESIAN_POINT('Origin',(117.6,0.,-79.0000000000001));
#657=CARTESIAN_POINT('',(117.6,0.,-79.0000000000001));
#658=CARTESIAN_POINT('',(117.6,0.,-79.0000000000001));
#659=CARTESIAN_POINT('',(117.6,8.,-79.0000000000001));
#660=CARTESIAN_POINT('',(117.6,8.,-79.0000000000001));
#661=CARTESIAN_POINT('',(117.6,0.,-79.0000000000001));
#662=CARTESIAN_POINT('Origin',(49.5999999999999,0.,-79.0000000000001));
#663=CARTESIAN_POINT('',(49.5999999999999,0.,-79.0000000000001));
#664=CARTESIAN_POINT('',(49.5999999999999,0.,-79.0000000000001));
#665=CARTESIAN_POINT('',(49.5999999999999,8.,-79.0000000000001));
#666=CARTESIAN_POINT('',(49.5999999999999,8.,-79.0000000000001));
#667=CARTESIAN_POINT('',(49.5999999999999,0.,-79.0000000000001));
#668=CARTESIAN_POINT('Origin',(42.9699999999999,0.,-71.0000000000001));
#669=CARTESIAN_POINT('',(42.9699999999999,0.,-71.0000000000001));
#670=CARTESIAN_POINT('',(42.9699999999999,0.,-71.0000000000001));
#671=CARTESIAN_POINT('',(42.9699999999999,8.,-71.0000000000001));
#672=CARTESIAN_POINT('',(42.9699999999999,8.,-71.0000000000001));
#673=CARTESIAN_POINT('',(42.9699999999999,0.,-71.0000000000001));
#674=CARTESIAN_POINT('Origin',(26.9699999999999,0.,-75.9500000000001));
#675=CARTESIAN_POINT('',(26.9699999999999,0.,-75.9500000000001));
#676=CARTESIAN_POINT('',(26.9699999999999,0.,-75.9500000000001));
#677=CARTESIAN_POINT('',(26.9699999999999,8.,-75.9500000000001));
#678=CARTESIAN_POINT('',(26.9699999999999,8.,-75.9500000000001));
#679=CARTESIAN_POINT('',(26.9699999999999,0.,-75.9500000000001));
#680=CARTESIAN_POINT('Origin',(3.00000000000001,0.,-46.9500000000001));
#681=CARTESIAN_POINT('',(3.00000000000001,0.,-46.9500000000001));
#682=CARTESIAN_POINT('',(3.00000000000001,0.,-46.9500000000001));
#683=CARTESIAN_POINT('',(3.00000000000001,8.,-46.9500000000001));
#684=CARTESIAN_POINT('',(3.00000000000001,8.,-46.9500000000001));
#685=CARTESIAN_POINT('',(3.00000000000001,0.,-46.9500000000001));
#686=CARTESIAN_POINT('Origin',(3.,0.,-32.9500000000001));
#687=CARTESIAN_POINT('',(3.,0.,-32.9500000000001));
#688=CARTESIAN_POINT('',(3.,0.,-32.9500000000001));
#689=CARTESIAN_POINT('',(3.,8.,-32.9500000000001));
#690=CARTESIAN_POINT('',(3.,8.,-32.9500000000001));
#691=CARTESIAN_POINT('',(3.,0.,-32.9500000000001));
#692=CARTESIAN_POINT('Origin',(26.9699999999999,0.,-3.95000000000008));
#693=CARTESIAN_POINT('',(26.9699999999999,0.,-3.95000000000008));
#694=CARTESIAN_POINT('',(26.9699999999999,8.,-3.95000000000008));
#695=CARTESIAN_POINT('Origin',(201.,0.,-79.9000000000001));
#696=CARTESIAN_POINT('',(201.,0.,-79.9000000000001));
#697=CARTESIAN_POINT('',(0.,0.,-79.9000000000001));
#698=CARTESIAN_POINT('',(201.,0.,-79.9000000000001));
#699=CARTESIAN_POINT('',(0.,8.,-79.9000000000001));
#700=CARTESIAN_POINT('',(0.,0.,-79.9000000000001));
#701=CARTESIAN_POINT('',(201.,8.,-79.9000000000001));
#702=CARTESIAN_POINT('',(201.,8.,-79.9000000000001));
#703=CARTESIAN_POINT('',(201.,0.,-79.9000000000001));
#704=CARTESIAN_POINT('Origin',(201.,0.,0.));
#705=CARTESIAN_POINT('',(201.,0.,0.));
#706=CARTESIAN_POINT('',(201.,0.,0.));
#707=CARTESIAN_POINT('',(201.,8.,0.));
#708=CARTESIAN_POINT('',(201.,8.,0.));
#709=CARTESIAN_POINT('',(201.,0.,0.));
#710=CARTESIAN_POINT('Origin',(0.,0.,0.));
#711=CARTESIAN_POINT('',(0.,0.,0.));
#712=CARTESIAN_POINT('',(0.,0.,0.));
#713=CARTESIAN_POINT('',(0.,8.,0.));
#714=CARTESIAN_POINT('',(0.,8.,0.));
#715=CARTESIAN_POINT('',(0.,0.,0.));
#716=CARTESIAN_POINT('Origin',(0.,0.,-79.9000000000001));
#717=CARTESIAN_POINT('',(0.,0.,-79.9000000000001));
#718=CARTESIAN_POINT('',(0.,8.,-79.9000000000001));
#719=CARTESIAN_POINT('Origin',(100.5,8.,-39.9500000000001));
#720=CARTESIAN_POINT('Origin',(100.5,0.,-39.9500000000001));
#721=UNCERTAINTY_MEASURE_WITH_UNIT(LENGTH_MEASURE(0.01),#725,
'DISTANCE_ACCURACY_VALUE',
'Maximum model space distance between geometric entities at asserted c
onnectivities');
#722=UNCERTAINTY_MEASURE_WITH_UNIT(LENGTH_MEASURE(0.01),#725,
'DISTANCE_ACCURACY_VALUE',
'Maximum model space distance between geometric entities at asserted c
onnectivities');
#723=(
GEOMETRIC_REPRESENTATION_CONTEXT(3)
GLOBAL_UNCERTAINTY_ASSIGNED_CONTEXT((#721))
GLOBAL_UNIT_ASSIGNED_CONTEXT((#725,#727,#728))
REPRESENTATION_CONTEXT('','3D')
);
#724=(
GEOMETRIC_REPRESENTATION_CONTEXT(3)
GLOBAL_UNCERTAINTY_ASSIGNED_CONTEXT((#722))
GLOBAL_UNIT_ASSIGNED_CONTEXT((#725,#727,#728))
REPRESENTATION_CONTEXT('','3D')
);
#725=(
LENGTH_UNIT()
NAMED_UNIT(*)
SI_UNIT(.MILLI.,.METRE.)
);
#726=(
LENGTH_UNIT()
NAMED_UNIT(*)
SI_UNIT(.CENTI.,.METRE.)
);
#727=(
NAMED_UNIT(*)
PLANE_ANGLE_UNIT()
SI_UNIT($,.RADIAN.)
);
#728=(
NAMED_UNIT(*)
SI_UNIT($,.STERADIAN.)
SOLID_ANGLE_UNIT()
);
#729=SHAPE_DEFINITION_REPRESENTATION(#730,#731);
#730=PRODUCT_DEFINITION_SHAPE('',$,#733);
#731=SHAPE_REPRESENTATION('',(#469),#723);
#732=PRODUCT_DEFINITION_CONTEXT('part definition',#737,'design');
#733=PRODUCT_DEFINITION('h6-case','h6-case',#734,#732);
#734=PRODUCT_DEFINITION_FORMATION('',$,#739);
#735=PRODUCT_RELATED_PRODUCT_CATEGORY('h6-case','h6-case',(#739));
#736=APPLICATION_PROTOCOL_DEFINITION('international standard',
'automotive_design',2009,#737);
#737=APPLICATION_CONTEXT(
'Core Data for Automotive Mechanical Design Process');
#738=PRODUCT_CONTEXT('part definition',#737,'mechanical');
#739=PRODUCT('h6-case','h6-case',$,(#738));
#740=PRESENTATION_STYLE_ASSIGNMENT((#741));
#741=SURFACE_STYLE_USAGE(.BOTH.,#744);
#742=SURFACE_STYLE_RENDERING_WITH_PROPERTIES($,#748,(#743));
#743=SURFACE_STYLE_TRANSPARENT(0.);
#744=SURFACE_SIDE_STYLE('',(#745,#742));
#745=SURFACE_STYLE_FILL_AREA(#746);
#746=FILL_AREA_STYLE('',(#747));
#747=FILL_AREA_STYLE_COLOUR('',#748);
#748=COLOUR_RGB('',0.749019607843137,0.749019607843137,0.749019607843137);
ENDSEC;
END-ISO-10303-21;
