ISO-10303-21;
HEADER;
/* Generated by software containing ST-Developer
 * from STEP Tools, Inc. (www.steptools.com) 
 */

FILE_DESCRIPTION(
/* description */ (''),
/* implementation_level */ '2;1');

FILE_NAME(
/* name */ 'V2.2-H6-case.stp',
/* time_stamp */ '2025-08-18T23:11:26+01:00',
/* author */ ('iwheard'),
/* organization */ (''),
/* preprocessor_version */ 'ST-DEVELOPER v20',
/* originating_system */ 'Autodesk Inventor 2024',
/* authorisation */ '');

FILE_SCHEMA (('AUTOMOTIVE_DESIGN { 1 0 10303 214 3 1 1 }'));
ENDSEC;

DATA;
#10=MECHANICAL_DESIGN_GEOMETRIC_PRESENTATION_REPRESENTATION('',(#13),#856);
#11=SHAPE_REPRESENTATION_RELATIONSHIP('SRR','None',#863,#12);
#12=ADVANCED_BREP_SHAPE_REPRESENTATION('',(#14),#855);
#13=STYLED_ITEM('',(#872),#14);
#14=MANIFOLD_SOLID_BREP('Solid1',#531);
#15=FACE_BOUND('',#68,.T.);
#16=FACE_BOUND('',#70,.T.);
#17=FACE_OUTER_BOUND('',#43,.T.);
#18=FACE_OUTER_BOUND('',#44,.T.);
#19=FACE_OUTER_BOUND('',#45,.T.);
#20=FACE_OUTER_BOUND('',#46,.T.);
#21=FACE_OUTER_BOUND('',#47,.T.);
#22=FACE_OUTER_BOUND('',#48,.T.);
#23=FACE_OUTER_BOUND('',#49,.T.);
#24=FACE_OUTER_BOUND('',#50,.T.);
#25=FACE_OUTER_BOUND('',#51,.T.);
#26=FACE_OUTER_BOUND('',#52,.T.);
#27=FACE_OUTER_BOUND('',#53,.T.);
#28=FACE_OUTER_BOUND('',#54,.T.);
#29=FACE_OUTER_BOUND('',#55,.T.);
#30=FACE_OUTER_BOUND('',#56,.T.);
#31=FACE_OUTER_BOUND('',#57,.T.);
#32=FACE_OUTER_BOUND('',#58,.T.);
#33=FACE_OUTER_BOUND('',#59,.T.);
#34=FACE_OUTER_BOUND('',#60,.T.);
#35=FACE_OUTER_BOUND('',#61,.T.);
#36=FACE_OUTER_BOUND('',#62,.T.);
#37=FACE_OUTER_BOUND('',#63,.T.);
#38=FACE_OUTER_BOUND('',#64,.T.);
#39=FACE_OUTER_BOUND('',#65,.T.);
#40=FACE_OUTER_BOUND('',#66,.T.);
#41=FACE_OUTER_BOUND('',#67,.T.);
#42=FACE_OUTER_BOUND('',#69,.T.);
#43=EDGE_LOOP('',(#335,#336,#337,#338));
#44=EDGE_LOOP('',(#339,#340,#341,#342));
#45=EDGE_LOOP('',(#343,#344,#345,#346));
#46=EDGE_LOOP('',(#347,#348,#349,#350));
#47=EDGE_LOOP('',(#351,#352,#353,#354));
#48=EDGE_LOOP('',(#355,#356,#357,#358));
#49=EDGE_LOOP('',(#359,#360,#361,#362));
#50=EDGE_LOOP('',(#363,#364,#365,#366));
#51=EDGE_LOOP('',(#367,#368,#369,#370));
#52=EDGE_LOOP('',(#371,#372,#373,#374));
#53=EDGE_LOOP('',(#375,#376,#377,#378));
#54=EDGE_LOOP('',(#379,#380,#381,#382));
#55=EDGE_LOOP('',(#383,#384,#385,#386));
#56=EDGE_LOOP('',(#387,#388,#389,#390));
#57=EDGE_LOOP('',(#391,#392,#393,#394));
#58=EDGE_LOOP('',(#395,#396,#397,#398));
#59=EDGE_LOOP('',(#399,#400,#401,#402));
#60=EDGE_LOOP('',(#403,#404,#405,#406));
#61=EDGE_LOOP('',(#407,#408,#409,#410));
#62=EDGE_LOOP('',(#411,#412,#413,#414));
#63=EDGE_LOOP('',(#415,#416,#417,#418));
#64=EDGE_LOOP('',(#419,#420,#421,#422));
#65=EDGE_LOOP('',(#423,#424,#425,#426));
#66=EDGE_LOOP('',(#427,#428,#429,#430));
#67=EDGE_LOOP('',(#431,#432,#433,#434));
#68=EDGE_LOOP('',(#435,#436,#437,#438,#439,#440,#441,#442,#443,#444,#445,
#446,#447,#448,#449,#450,#451,#452,#453,#454));
#69=EDGE_LOOP('',(#455,#456,#457,#458));
#70=EDGE_LOOP('',(#459,#460,#461,#462,#463,#464,#465,#466,#467,#468,#469,
#470,#471,#472,#473,#474,#475,#476,#477,#478));
#71=LINE('',#710,#143);
#72=LINE('',#712,#144);
#73=LINE('',#714,#145);
#74=LINE('',#715,#146);
#75=LINE('',#718,#147);
#76=LINE('',#720,#148);
#77=LINE('',#721,#149);
#78=LINE('',#724,#150);
#79=LINE('',#726,#151);
#80=LINE('',#727,#152);
#81=LINE('',#730,#153);
#82=LINE('',#732,#154);
#83=LINE('',#733,#155);
#84=LINE('',#736,#156);
#85=LINE('',#738,#157);
#86=LINE('',#739,#158);
#87=LINE('',#742,#159);
#88=LINE('',#744,#160);
#89=LINE('',#745,#161);
#90=LINE('',#748,#162);
#91=LINE('',#750,#163);
#92=LINE('',#751,#164);
#93=LINE('',#754,#165);
#94=LINE('',#756,#166);
#95=LINE('',#757,#167);
#96=LINE('',#760,#168);
#97=LINE('',#762,#169);
#98=LINE('',#763,#170);
#99=LINE('',#766,#171);
#100=LINE('',#768,#172);
#101=LINE('',#769,#173);
#102=LINE('',#772,#174);
#103=LINE('',#774,#175);
#104=LINE('',#775,#176);
#105=LINE('',#778,#177);
#106=LINE('',#780,#178);
#107=LINE('',#781,#179);
#108=LINE('',#784,#180);
#109=LINE('',#786,#181);
#110=LINE('',#787,#182);
#111=LINE('',#790,#183);
#112=LINE('',#792,#184);
#113=LINE('',#793,#185);
#114=LINE('',#796,#186);
#115=LINE('',#798,#187);
#116=LINE('',#799,#188);
#117=LINE('',#802,#189);
#118=LINE('',#804,#190);
#119=LINE('',#805,#191);
#120=LINE('',#808,#192);
#121=LINE('',#810,#193);
#122=LINE('',#811,#194);
#123=LINE('',#814,#195);
#124=LINE('',#816,#196);
#125=LINE('',#817,#197);
#126=LINE('',#820,#198);
#127=LINE('',#822,#199);
#128=LINE('',#823,#200);
#129=LINE('',#825,#201);
#130=LINE('',#826,#202);
#131=LINE('',#830,#203);
#132=LINE('',#832,#204);
#133=LINE('',#834,#205);
#134=LINE('',#835,#206);
#135=LINE('',#838,#207);
#136=LINE('',#840,#208);
#137=LINE('',#841,#209);
#138=LINE('',#844,#210);
#139=LINE('',#846,#211);
#140=LINE('',#847,#212);
#141=LINE('',#849,#213);
#142=LINE('',#850,#214);
#143=VECTOR('',#584,10.);
#144=VECTOR('',#585,10.);
#145=VECTOR('',#586,10.);
#146=VECTOR('',#587,10.);
#147=VECTOR('',#590,10.);
#148=VECTOR('',#591,10.);
#149=VECTOR('',#592,10.);
#150=VECTOR('',#595,10.);
#151=VECTOR('',#596,10.);
#152=VECTOR('',#597,10.);
#153=VECTOR('',#600,10.);
#154=VECTOR('',#601,10.);
#155=VECTOR('',#602,10.);
#156=VECTOR('',#605,10.);
#157=VECTOR('',#606,10.);
#158=VECTOR('',#607,10.);
#159=VECTOR('',#610,10.);
#160=VECTOR('',#611,10.);
#161=VECTOR('',#612,10.);
#162=VECTOR('',#615,10.);
#163=VECTOR('',#616,10.);
#164=VECTOR('',#617,10.);
#165=VECTOR('',#620,10.);
#166=VECTOR('',#621,10.);
#167=VECTOR('',#622,10.);
#168=VECTOR('',#625,10.);
#169=VECTOR('',#626,10.);
#170=VECTOR('',#627,10.);
#171=VECTOR('',#630,10.);
#172=VECTOR('',#631,10.);
#173=VECTOR('',#632,10.);
#174=VECTOR('',#635,10.);
#175=VECTOR('',#636,10.);
#176=VECTOR('',#637,10.);
#177=VECTOR('',#640,10.);
#178=VECTOR('',#641,10.);
#179=VECTOR('',#642,10.);
#180=VECTOR('',#645,10.);
#181=VECTOR('',#646,10.);
#182=VECTOR('',#647,10.);
#183=VECTOR('',#650,10.);
#184=VECTOR('',#651,10.);
#185=VECTOR('',#652,10.);
#186=VECTOR('',#655,10.);
#187=VECTOR('',#656,10.);
#188=VECTOR('',#657,10.);
#189=VECTOR('',#660,10.);
#190=VECTOR('',#661,10.);
#191=VECTOR('',#662,10.);
#192=VECTOR('',#665,10.);
#193=VECTOR('',#666,10.);
#194=VECTOR('',#667,10.);
#195=VECTOR('',#670,10.);
#196=VECTOR('',#671,10.);
#197=VECTOR('',#672,10.);
#198=VECTOR('',#675,10.);
#199=VECTOR('',#676,10.);
#200=VECTOR('',#677,10.);
#201=VECTOR('',#680,10.);
#202=VECTOR('',#681,10.);
#203=VECTOR('',#684,10.);
#204=VECTOR('',#685,10.);
#205=VECTOR('',#686,10.);
#206=VECTOR('',#687,10.);
#207=VECTOR('',#690,10.);
#208=VECTOR('',#691,10.);
#209=VECTOR('',#692,10.);
#210=VECTOR('',#695,10.);
#211=VECTOR('',#696,10.);
#212=VECTOR('',#697,10.);
#213=VECTOR('',#700,10.);
#214=VECTOR('',#701,10.);
#215=VERTEX_POINT('',#708);
#216=VERTEX_POINT('',#709);
#217=VERTEX_POINT('',#711);
#218=VERTEX_POINT('',#713);
#219=VERTEX_POINT('',#717);
#220=VERTEX_POINT('',#719);
#221=VERTEX_POINT('',#723);
#222=VERTEX_POINT('',#725);
#223=VERTEX_POINT('',#729);
#224=VERTEX_POINT('',#731);
#225=VERTEX_POINT('',#735);
#226=VERTEX_POINT('',#737);
#227=VERTEX_POINT('',#741);
#228=VERTEX_POINT('',#743);
#229=VERTEX_POINT('',#747);
#230=VERTEX_POINT('',#749);
#231=VERTEX_POINT('',#753);
#232=VERTEX_POINT('',#755);
#233=VERTEX_POINT('',#759);
#234=VERTEX_POINT('',#761);
#235=VERTEX_POINT('',#765);
#236=VERTEX_POINT('',#767);
#237=VERTEX_POINT('',#771);
#238=VERTEX_POINT('',#773);
#239=VERTEX_POINT('',#777);
#240=VERTEX_POINT('',#779);
#241=VERTEX_POINT('',#783);
#242=VERTEX_POINT('',#785);
#243=VERTEX_POINT('',#789);
#244=VERTEX_POINT('',#791);
#245=VERTEX_POINT('',#795);
#246=VERTEX_POINT('',#797);
#247=VERTEX_POINT('',#801);
#248=VERTEX_POINT('',#803);
#249=VERTEX_POINT('',#807);
#250=VERTEX_POINT('',#809);
#251=VERTEX_POINT('',#813);
#252=VERTEX_POINT('',#815);
#253=VERTEX_POINT('',#819);
#254=VERTEX_POINT('',#821);
#255=VERTEX_POINT('',#828);
#256=VERTEX_POINT('',#829);
#257=VERTEX_POINT('',#831);
#258=VERTEX_POINT('',#833);
#259=VERTEX_POINT('',#837);
#260=VERTEX_POINT('',#839);
#261=VERTEX_POINT('',#843);
#262=VERTEX_POINT('',#845);
#263=EDGE_CURVE('',#215,#216,#71,.T.);
#264=EDGE_CURVE('',#216,#217,#72,.T.);
#265=EDGE_CURVE('',#218,#217,#73,.T.);
#266=EDGE_CURVE('',#215,#218,#74,.T.);
#267=EDGE_CURVE('',#219,#215,#75,.T.);
#268=EDGE_CURVE('',#220,#218,#76,.T.);
#269=EDGE_CURVE('',#219,#220,#77,.T.);
#270=EDGE_CURVE('',#221,#219,#78,.T.);
#271=EDGE_CURVE('',#222,#220,#79,.T.);
#272=EDGE_CURVE('',#221,#222,#80,.T.);
#273=EDGE_CURVE('',#223,#221,#81,.T.);
#274=EDGE_CURVE('',#224,#222,#82,.T.);
#275=EDGE_CURVE('',#223,#224,#83,.T.);
#276=EDGE_CURVE('',#225,#223,#84,.T.);
#277=EDGE_CURVE('',#226,#224,#85,.T.);
#278=EDGE_CURVE('',#225,#226,#86,.T.);
#279=EDGE_CURVE('',#227,#225,#87,.T.);
#280=EDGE_CURVE('',#228,#226,#88,.T.);
#281=EDGE_CURVE('',#227,#228,#89,.T.);
#282=EDGE_CURVE('',#229,#227,#90,.T.);
#283=EDGE_CURVE('',#230,#228,#91,.T.);
#284=EDGE_CURVE('',#229,#230,#92,.T.);
#285=EDGE_CURVE('',#231,#229,#93,.T.);
#286=EDGE_CURVE('',#232,#230,#94,.T.);
#287=EDGE_CURVE('',#231,#232,#95,.T.);
#288=EDGE_CURVE('',#233,#231,#96,.T.);
#289=EDGE_CURVE('',#234,#232,#97,.T.);
#290=EDGE_CURVE('',#233,#234,#98,.T.);
#291=EDGE_CURVE('',#235,#233,#99,.T.);
#292=EDGE_CURVE('',#236,#234,#100,.T.);
#293=EDGE_CURVE('',#235,#236,#101,.T.);
#294=EDGE_CURVE('',#237,#235,#102,.T.);
#295=EDGE_CURVE('',#238,#236,#103,.T.);
#296=EDGE_CURVE('',#237,#238,#104,.T.);
#297=EDGE_CURVE('',#239,#237,#105,.T.);
#298=EDGE_CURVE('',#240,#238,#106,.T.);
#299=EDGE_CURVE('',#239,#240,#107,.T.);
#300=EDGE_CURVE('',#241,#239,#108,.T.);
#301=EDGE_CURVE('',#242,#240,#109,.T.);
#302=EDGE_CURVE('',#241,#242,#110,.T.);
#303=EDGE_CURVE('',#243,#241,#111,.T.);
#304=EDGE_CURVE('',#244,#242,#112,.T.);
#305=EDGE_CURVE('',#243,#244,#113,.T.);
#306=EDGE_CURVE('',#245,#243,#114,.T.);
#307=EDGE_CURVE('',#246,#244,#115,.T.);
#308=EDGE_CURVE('',#245,#246,#116,.T.);
#309=EDGE_CURVE('',#247,#245,#117,.T.);
#310=EDGE_CURVE('',#248,#246,#118,.T.);
#311=EDGE_CURVE('',#247,#248,#119,.T.);
#312=EDGE_CURVE('',#249,#247,#120,.T.);
#313=EDGE_CURVE('',#250,#248,#121,.T.);
#314=EDGE_CURVE('',#249,#250,#122,.T.);
#315=EDGE_CURVE('',#251,#249,#123,.T.);
#316=EDGE_CURVE('',#252,#250,#124,.T.);
#317=EDGE_CURVE('',#251,#252,#125,.T.);
#318=EDGE_CURVE('',#253,#251,#126,.T.);
#319=EDGE_CURVE('',#254,#252,#127,.T.);
#320=EDGE_CURVE('',#253,#254,#128,.T.);
#321=EDGE_CURVE('',#216,#253,#129,.T.);
#322=EDGE_CURVE('',#217,#254,#130,.T.);
#323=EDGE_CURVE('',#255,#256,#131,.T.);
#324=EDGE_CURVE('',#256,#257,#132,.T.);
#325=EDGE_CURVE('',#258,#257,#133,.T.);
#326=EDGE_CURVE('',#255,#258,#134,.T.);
#327=EDGE_CURVE('',#259,#255,#135,.T.);
#328=EDGE_CURVE('',#260,#258,#136,.T.);
#329=EDGE_CURVE('',#259,#260,#137,.T.);
#330=EDGE_CURVE('',#261,#259,#138,.T.);
#331=EDGE_CURVE('',#262,#260,#139,.T.);
#332=EDGE_CURVE('',#261,#262,#140,.T.);
#333=EDGE_CURVE('',#256,#261,#141,.T.);
#334=EDGE_CURVE('',#257,#262,#142,.T.);
#335=ORIENTED_EDGE('',*,*,#263,.T.);
#336=ORIENTED_EDGE('',*,*,#264,.T.);
#337=ORIENTED_EDGE('',*,*,#265,.F.);
#338=ORIENTED_EDGE('',*,*,#266,.F.);
#339=ORIENTED_EDGE('',*,*,#267,.T.);
#340=ORIENTED_EDGE('',*,*,#266,.T.);
#341=ORIENTED_EDGE('',*,*,#268,.F.);
#342=ORIENTED_EDGE('',*,*,#269,.F.);
#343=ORIENTED_EDGE('',*,*,#270,.T.);
#344=ORIENTED_EDGE('',*,*,#269,.T.);
#345=ORIENTED_EDGE('',*,*,#271,.F.);
#346=ORIENTED_EDGE('',*,*,#272,.F.);
#347=ORIENTED_EDGE('',*,*,#273,.T.);
#348=ORIENTED_EDGE('',*,*,#272,.T.);
#349=ORIENTED_EDGE('',*,*,#274,.F.);
#350=ORIENTED_EDGE('',*,*,#275,.F.);
#351=ORIENTED_EDGE('',*,*,#276,.T.);
#352=ORIENTED_EDGE('',*,*,#275,.T.);
#353=ORIENTED_EDGE('',*,*,#277,.F.);
#354=ORIENTED_EDGE('',*,*,#278,.F.);
#355=ORIENTED_EDGE('',*,*,#279,.T.);
#356=ORIENTED_EDGE('',*,*,#278,.T.);
#357=ORIENTED_EDGE('',*,*,#280,.F.);
#358=ORIENTED_EDGE('',*,*,#281,.F.);
#359=ORIENTED_EDGE('',*,*,#282,.T.);
#360=ORIENTED_EDGE('',*,*,#281,.T.);
#361=ORIENTED_EDGE('',*,*,#283,.F.);
#362=ORIENTED_EDGE('',*,*,#284,.F.);
#363=ORIENTED_EDGE('',*,*,#285,.T.);
#364=ORIENTED_EDGE('',*,*,#284,.T.);
#365=ORIENTED_EDGE('',*,*,#286,.F.);
#366=ORIENTED_EDGE('',*,*,#287,.F.);
#367=ORIENTED_EDGE('',*,*,#288,.T.);
#368=ORIENTED_EDGE('',*,*,#287,.T.);
#369=ORIENTED_EDGE('',*,*,#289,.F.);
#370=ORIENTED_EDGE('',*,*,#290,.F.);
#371=ORIENTED_EDGE('',*,*,#291,.T.);
#372=ORIENTED_EDGE('',*,*,#290,.T.);
#373=ORIENTED_EDGE('',*,*,#292,.F.);
#374=ORIENTED_EDGE('',*,*,#293,.F.);
#375=ORIENTED_EDGE('',*,*,#294,.T.);
#376=ORIENTED_EDGE('',*,*,#293,.T.);
#377=ORIENTED_EDGE('',*,*,#295,.F.);
#378=ORIENTED_EDGE('',*,*,#296,.F.);
#379=ORIENTED_EDGE('',*,*,#297,.T.);
#380=ORIENTED_EDGE('',*,*,#296,.T.);
#381=ORIENTED_EDGE('',*,*,#298,.F.);
#382=ORIENTED_EDGE('',*,*,#299,.F.);
#383=ORIENTED_EDGE('',*,*,#300,.T.);
#384=ORIENTED_EDGE('',*,*,#299,.T.);
#385=ORIENTED_EDGE('',*,*,#301,.F.);
#386=ORIENTED_EDGE('',*,*,#302,.F.);
#387=ORIENTED_EDGE('',*,*,#303,.T.);
#388=ORIENTED_EDGE('',*,*,#302,.T.);
#389=ORIENTED_EDGE('',*,*,#304,.F.);
#390=ORIENTED_EDGE('',*,*,#305,.F.);
#391=ORIENTED_EDGE('',*,*,#306,.T.);
#392=ORIENTED_EDGE('',*,*,#305,.T.);
#393=ORIENTED_EDGE('',*,*,#307,.F.);
#394=ORIENTED_EDGE('',*,*,#308,.F.);
#395=ORIENTED_EDGE('',*,*,#309,.T.);
#396=ORIENTED_EDGE('',*,*,#308,.T.);
#397=ORIENTED_EDGE('',*,*,#310,.F.);
#398=ORIENTED_EDGE('',*,*,#311,.F.);
#399=ORIENTED_EDGE('',*,*,#312,.T.);
#400=ORIENTED_EDGE('',*,*,#311,.T.);
#401=ORIENTED_EDGE('',*,*,#313,.F.);
#402=ORIENTED_EDGE('',*,*,#314,.F.);
#403=ORIENTED_EDGE('',*,*,#315,.T.);
#404=ORIENTED_EDGE('',*,*,#314,.T.);
#405=ORIENTED_EDGE('',*,*,#316,.F.);
#406=ORIENTED_EDGE('',*,*,#317,.F.);
#407=ORIENTED_EDGE('',*,*,#318,.T.);
#408=ORIENTED_EDGE('',*,*,#317,.T.);
#409=ORIENTED_EDGE('',*,*,#319,.F.);
#410=ORIENTED_EDGE('',*,*,#320,.F.);
#411=ORIENTED_EDGE('',*,*,#321,.T.);
#412=ORIENTED_EDGE('',*,*,#320,.T.);
#413=ORIENTED_EDGE('',*,*,#322,.F.);
#414=ORIENTED_EDGE('',*,*,#264,.F.);
#415=ORIENTED_EDGE('',*,*,#323,.T.);
#416=ORIENTED_EDGE('',*,*,#324,.T.);
#417=ORIENTED_EDGE('',*,*,#325,.F.);
#418=ORIENTED_EDGE('',*,*,#326,.F.);
#419=ORIENTED_EDGE('',*,*,#327,.T.);
#420=ORIENTED_EDGE('',*,*,#326,.T.);
#421=ORIENTED_EDGE('',*,*,#328,.F.);
#422=ORIENTED_EDGE('',*,*,#329,.F.);
#423=ORIENTED_EDGE('',*,*,#330,.T.);
#424=ORIENTED_EDGE('',*,*,#329,.T.);
#425=ORIENTED_EDGE('',*,*,#331,.F.);
#426=ORIENTED_EDGE('',*,*,#332,.F.);
#427=ORIENTED_EDGE('',*,*,#333,.T.);
#428=ORIENTED_EDGE('',*,*,#332,.T.);
#429=ORIENTED_EDGE('',*,*,#334,.F.);
#430=ORIENTED_EDGE('',*,*,#324,.F.);
#431=ORIENTED_EDGE('',*,*,#334,.T.);
#432=ORIENTED_EDGE('',*,*,#331,.T.);
#433=ORIENTED_EDGE('',*,*,#328,.T.);
#434=ORIENTED_EDGE('',*,*,#325,.T.);
#435=ORIENTED_EDGE('',*,*,#322,.T.);
#436=ORIENTED_EDGE('',*,*,#319,.T.);
#437=ORIENTED_EDGE('',*,*,#316,.T.);
#438=ORIENTED_EDGE('',*,*,#313,.T.);
#439=ORIENTED_EDGE('',*,*,#310,.T.);
#440=ORIENTED_EDGE('',*,*,#307,.T.);
#441=ORIENTED_EDGE('',*,*,#304,.T.);
#442=ORIENTED_EDGE('',*,*,#301,.T.);
#443=ORIENTED_EDGE('',*,*,#298,.T.);
#444=ORIENTED_EDGE('',*,*,#295,.T.);
#445=ORIENTED_EDGE('',*,*,#292,.T.);
#446=ORIENTED_EDGE('',*,*,#289,.T.);
#447=ORIENTED_EDGE('',*,*,#286,.T.);
#448=ORIENTED_EDGE('',*,*,#283,.T.);
#449=ORIENTED_EDGE('',*,*,#280,.T.);
#450=ORIENTED_EDGE('',*,*,#277,.T.);
#451=ORIENTED_EDGE('',*,*,#274,.T.);
#452=ORIENTED_EDGE('',*,*,#271,.T.);
#453=ORIENTED_EDGE('',*,*,#268,.T.);
#454=ORIENTED_EDGE('',*,*,#265,.T.);
#455=ORIENTED_EDGE('',*,*,#333,.F.);
#456=ORIENTED_EDGE('',*,*,#323,.F.);
#457=ORIENTED_EDGE('',*,*,#327,.F.);
#458=ORIENTED_EDGE('',*,*,#330,.F.);
#459=ORIENTED_EDGE('',*,*,#321,.F.);
#460=ORIENTED_EDGE('',*,*,#263,.F.);
#461=ORIENTED_EDGE('',*,*,#267,.F.);
#462=ORIENTED_EDGE('',*,*,#270,.F.);
#463=ORIENTED_EDGE('',*,*,#273,.F.);
#464=ORIENTED_EDGE('',*,*,#276,.F.);
#465=ORIENTED_EDGE('',*,*,#279,.F.);
#466=ORIENTED_EDGE('',*,*,#282,.F.);
#467=ORIENTED_EDGE('',*,*,#285,.F.);
#468=ORIENTED_EDGE('',*,*,#288,.F.);
#469=ORIENTED_EDGE('',*,*,#291,.F.);
#470=ORIENTED_EDGE('',*,*,#294,.F.);
#471=ORIENTED_EDGE('',*,*,#297,.F.);
#472=ORIENTED_EDGE('',*,*,#300,.F.);
#473=ORIENTED_EDGE('',*,*,#303,.F.);
#474=ORIENTED_EDGE('',*,*,#306,.F.);
#475=ORIENTED_EDGE('',*,*,#309,.F.);
#476=ORIENTED_EDGE('',*,*,#312,.F.);
#477=ORIENTED_EDGE('',*,*,#315,.F.);
#478=ORIENTED_EDGE('',*,*,#318,.F.);
#479=PLANE('',#554);
#480=PLANE('',#555);
#481=PLANE('',#556);
#482=PLANE('',#557);
#483=PLANE('',#558);
#484=PLANE('',#559);
#485=PLANE('',#560);
#486=PLANE('',#561);
#487=PLANE('',#562);
#488=PLANE('',#563);
#489=PLANE('',#564);
#490=PLANE('',#565);
#491=PLANE('',#566);
#492=PLANE('',#567);
#493=PLANE('',#568);
#494=PLANE('',#569);
#495=PLANE('',#570);
#496=PLANE('',#571);
#497=PLANE('',#572);
#498=PLANE('',#573);
#499=PLANE('',#574);
#500=PLANE('',#575);
#501=PLANE('',#576);
#502=PLANE('',#577);
#503=PLANE('',#578);
#504=PLANE('',#579);
#505=ADVANCED_FACE('',(#17),#479,.T.);
#506=ADVANCED_FACE('',(#18),#480,.T.);
#507=ADVANCED_FACE('',(#19),#481,.T.);
#508=ADVANCED_FACE('',(#20),#482,.T.);
#509=ADVANCED_FACE('',(#21),#483,.T.);
#510=ADVANCED_FACE('',(#22),#484,.T.);
#511=ADVANCED_FACE('',(#23),#485,.T.);
#512=ADVANCED_FACE('',(#24),#486,.T.);
#513=ADVANCED_FACE('',(#25),#487,.T.);
#514=ADVANCED_FACE('',(#26),#488,.T.);
#515=ADVANCED_FACE('',(#27),#489,.T.);
#516=ADVANCED_FACE('',(#28),#490,.T.);
#517=ADVANCED_FACE('',(#29),#491,.T.);
#518=ADVANCED_FACE('',(#30),#492,.T.);
#519=ADVANCED_FACE('',(#31),#493,.T.);
#520=ADVANCED_FACE('',(#32),#494,.T.);
#521=ADVANCED_FACE('',(#33),#495,.T.);
#522=ADVANCED_FACE('',(#34),#496,.T.);
#523=ADVANCED_FACE('',(#35),#497,.T.);
#524=ADVANCED_FACE('',(#36),#498,.T.);
#525=ADVANCED_FACE('',(#37),#499,.T.);
#526=ADVANCED_FACE('',(#38),#500,.T.);
#527=ADVANCED_FACE('',(#39),#501,.T.);
#528=ADVANCED_FACE('',(#40),#502,.T.);
#529=ADVANCED_FACE('',(#41,#15),#503,.T.);
#530=ADVANCED_FACE('',(#42,#16),#504,.F.);
#531=CLOSED_SHELL('',(#505,#506,#507,#508,#509,#510,#511,#512,#513,#514,
#515,#516,#517,#518,#519,#520,#521,#522,#523,#524,#525,#526,#527,#528,#529,
#530));
#532=DERIVED_UNIT_ELEMENT(#535,1.);
#533=DERIVED_UNIT_ELEMENT(#858,-3.);
#534=DIMENSIONAL_EXPONENTS(0.,1.,0.,0.,0.,0.,0.);
#535=(
CONVERSION_BASED_UNIT('gram',#537)
MASS_UNIT()
NAMED_UNIT(#534)
);
#536=(
MASS_UNIT()
NAMED_UNIT(*)
SI_UNIT(.KILO.,.GRAM.)
);
#537=MASS_MEASURE_WITH_UNIT(MASS_MEASURE(0.001),#536);
#538=DERIVED_UNIT((#532,#533));
#539=MEASURE_REPRESENTATION_ITEM('density measure',
POSITIVE_RATIO_MEASURE(1.),#538);
#540=PROPERTY_DEFINITION_REPRESENTATION(#545,#542);
#541=PROPERTY_DEFINITION_REPRESENTATION(#546,#543);
#542=REPRESENTATION('material name',(#544),#855);
#543=REPRESENTATION('density',(#539),#855);
#544=DESCRIPTIVE_REPRESENTATION_ITEM('Generic','Generic');
#545=PROPERTY_DEFINITION('material property','material name',#865);
#546=PROPERTY_DEFINITION('material property','density of part',#865);
#547=DATE_TIME_ROLE('creation_date');
#548=APPLIED_DATE_AND_TIME_ASSIGNMENT(#549,#547,(#865));
#549=DATE_AND_TIME(#550,#551);
#550=CALENDAR_DATE(2025,18,8);
#551=LOCAL_TIME(0,0,0.,#552);
#552=COORDINATED_UNIVERSAL_TIME_OFFSET(0,0,.BEHIND.);
#553=AXIS2_PLACEMENT_3D('',#706,#580,#581);
#554=AXIS2_PLACEMENT_3D('',#707,#582,#583);
#555=AXIS2_PLACEMENT_3D('',#716,#588,#589);
#556=AXIS2_PLACEMENT_3D('',#722,#593,#594);
#557=AXIS2_PLACEMENT_3D('',#728,#598,#599);
#558=AXIS2_PLACEMENT_3D('',#734,#603,#604);
#559=AXIS2_PLACEMENT_3D('',#740,#608,#609);
#560=AXIS2_PLACEMENT_3D('',#746,#613,#614);
#561=AXIS2_PLACEMENT_3D('',#752,#618,#619);
#562=AXIS2_PLACEMENT_3D('',#758,#623,#624);
#563=AXIS2_PLACEMENT_3D('',#764,#628,#629);
#564=AXIS2_PLACEMENT_3D('',#770,#633,#634);
#565=AXIS2_PLACEMENT_3D('',#776,#638,#639);
#566=AXIS2_PLACEMENT_3D('',#782,#643,#644);
#567=AXIS2_PLACEMENT_3D('',#788,#648,#649);
#568=AXIS2_PLACEMENT_3D('',#794,#653,#654);
#569=AXIS2_PLACEMENT_3D('',#800,#658,#659);
#570=AXIS2_PLACEMENT_3D('',#806,#663,#664);
#571=AXIS2_PLACEMENT_3D('',#812,#668,#669);
#572=AXIS2_PLACEMENT_3D('',#818,#673,#674);
#573=AXIS2_PLACEMENT_3D('',#824,#678,#679);
#574=AXIS2_PLACEMENT_3D('',#827,#682,#683);
#575=AXIS2_PLACEMENT_3D('',#836,#688,#689);
#576=AXIS2_PLACEMENT_3D('',#842,#693,#694);
#577=AXIS2_PLACEMENT_3D('',#848,#698,#699);
#578=AXIS2_PLACEMENT_3D('',#851,#702,#703);
#579=AXIS2_PLACEMENT_3D('',#852,#704,#705);
#580=DIRECTION('axis',(0.,0.,1.));
#581=DIRECTION('refdir',(1.,0.,0.));
#582=DIRECTION('center_axis',(0.749686952943155,0.,-0.661792620529127));
#583=DIRECTION('ref_axis',(-0.661792620529126,0.,-0.749686952943154));
#584=DIRECTION('',(-0.661792620529126,0.,-0.749686952943154));
#585=DIRECTION('',(0.,1.,0.));
#586=DIRECTION('',(-0.661792620529126,0.,-0.749686952943154));
#587=DIRECTION('',(0.,1.,0.));
#588=DIRECTION('center_axis',(-0.284598288426309,0.,-0.958646866278097));
#589=DIRECTION('ref_axis',(-0.958646866278097,0.,0.284598288426309));
#590=DIRECTION('',(-0.958646866278097,0.,0.284598288426309));
#591=DIRECTION('',(-0.958646866278097,0.,0.284598288426309));
#592=DIRECTION('',(0.,1.,0.));
#593=DIRECTION('center_axis',(0.707106781186548,0.,-0.707106781186547));
#594=DIRECTION('ref_axis',(-0.707106781186547,0.,-0.707106781186548));
#595=DIRECTION('',(-0.707106781186547,0.,-0.707106781186548));
#596=DIRECTION('',(-0.707106781186547,0.,-0.707106781186548));
#597=DIRECTION('',(0.,1.,0.));
#598=DIRECTION('center_axis',(-3.67353206677441E-16,0.,-1.));
#599=DIRECTION('ref_axis',(-1.,0.,3.67353206677441E-16));
#600=DIRECTION('',(-1.,0.,3.67353206677441E-16));
#601=DIRECTION('',(-1.,0.,3.67353206677441E-16));
#602=DIRECTION('',(0.,1.,0.));
#603=DIRECTION('center_axis',(-1.,0.,0.));
#604=DIRECTION('ref_axis',(0.,0.,1.));
#605=DIRECTION('',(0.,0.,1.));
#606=DIRECTION('',(0.,0.,1.));
#607=DIRECTION('',(0.,1.,0.));
#608=DIRECTION('center_axis',(-1.95921710227969E-16,0.,-1.));
#609=DIRECTION('ref_axis',(-1.,0.,1.95921710227969E-16));
#610=DIRECTION('',(-1.,0.,1.95921710227969E-16));
#611=DIRECTION('',(-1.,0.,1.95921710227969E-16));
#612=DIRECTION('',(0.,1.,0.));
#613=DIRECTION('center_axis',(-0.597929481533848,0.,-0.801548710380513));
#614=DIRECTION('ref_axis',(-0.801548710380513,0.,0.597929481533848));
#615=DIRECTION('',(-0.801548710380513,0.,0.597929481533848));
#616=DIRECTION('',(-0.801548710380513,0.,0.597929481533848));
#617=DIRECTION('',(0.,1.,0.));
#618=DIRECTION('center_axis',(-1.,0.,0.));
#619=DIRECTION('ref_axis',(0.,0.,1.));
#620=DIRECTION('',(0.,0.,1.));
#621=DIRECTION('',(0.,0.,1.));
#622=DIRECTION('',(0.,1.,0.));
#623=DIRECTION('center_axis',(-0.597929481533846,0.,0.801548710380514));
#624=DIRECTION('ref_axis',(0.801548710380514,0.,0.597929481533846));
#625=DIRECTION('',(0.801548710380514,0.,0.597929481533846));
#626=DIRECTION('',(0.801548710380514,0.,0.597929481533846));
#627=DIRECTION('',(0.,1.,0.));
#628=DIRECTION('center_axis',(2.61228946970625E-16,0.,1.));
#629=DIRECTION('ref_axis',(1.,0.,-2.61228946970625E-16));
#630=DIRECTION('',(1.,0.,-2.61228946970625E-16));
#631=DIRECTION('',(1.,0.,-2.61228946970625E-16));
#632=DIRECTION('',(0.,1.,0.));
#633=DIRECTION('center_axis',(-1.,0.,0.));
#634=DIRECTION('ref_axis',(0.,0.,1.));
#635=DIRECTION('',(0.,0.,1.));
#636=DIRECTION('',(0.,0.,1.));
#637=DIRECTION('',(0.,1.,0.));
#638=DIRECTION('center_axis',(2.61228946970625E-16,0.,1.));
#639=DIRECTION('ref_axis',(1.,0.,-2.61228946970625E-16));
#640=DIRECTION('',(1.,0.,-2.61228946970625E-16));
#641=DIRECTION('',(1.,0.,-2.61228946970625E-16));
#642=DIRECTION('',(0.,1.,0.));
#643=DIRECTION('center_axis',(0.707106781186548,0.,0.707106781186548));
#644=DIRECTION('ref_axis',(0.707106781186548,0.,-0.707106781186548));
#645=DIRECTION('',(0.707106781186548,0.,-0.707106781186548));
#646=DIRECTION('',(0.707106781186548,0.,-0.707106781186548));
#647=DIRECTION('',(0.,1.,0.));
#648=DIRECTION('center_axis',(-0.284598288426309,0.,0.958646866278097));
#649=DIRECTION('ref_axis',(0.958646866278097,0.,0.284598288426309));
#650=DIRECTION('',(0.958646866278097,0.,0.284598288426309));
#651=DIRECTION('',(0.958646866278097,0.,0.284598288426309));
#652=DIRECTION('',(0.,1.,0.));
#653=DIRECTION('center_axis',(0.749686952943154,0.,0.661792620529127));
#654=DIRECTION('ref_axis',(0.661792620529127,0.,-0.749686952943154));
#655=DIRECTION('',(0.661792620529127,0.,-0.749686952943154));
#656=DIRECTION('',(0.661792620529127,0.,-0.749686952943154));
#657=DIRECTION('',(0.,1.,0.));
#658=DIRECTION('center_axis',(1.,0.,-2.77555756156289E-16));
#659=DIRECTION('ref_axis',(-2.77555756156289E-16,0.,-1.));
#660=DIRECTION('',(-2.77555756156289E-16,0.,-1.));
#661=DIRECTION('',(-2.77555756156289E-16,0.,-1.));
#662=DIRECTION('',(0.,1.,0.));
#663=DIRECTION('center_axis',(0.749686952943155,0.,-0.661792620529126));
#664=DIRECTION('ref_axis',(-0.661792620529126,0.,-0.749686952943155));
#665=DIRECTION('',(-0.661792620529126,0.,-0.749686952943155));
#666=DIRECTION('',(-0.661792620529126,0.,-0.749686952943155));
#667=DIRECTION('',(0.,1.,0.));
#668=DIRECTION('center_axis',(1.,0.,5.55111512312578E-16));
#669=DIRECTION('ref_axis',(5.55111512312578E-16,0.,-1.));
#670=DIRECTION('',(5.55111512312578E-16,0.,-1.));
#671=DIRECTION('',(5.55111512312578E-16,0.,-1.));
#672=DIRECTION('',(0.,1.,0.));
#673=DIRECTION('center_axis',(0.749686952943155,0.,0.661792620529126));
#674=DIRECTION('ref_axis',(0.661792620529126,0.,-0.749686952943155));
#675=DIRECTION('',(0.661792620529126,0.,-0.749686952943155));
#676=DIRECTION('',(0.661792620529126,0.,-0.749686952943155));
#677=DIRECTION('',(0.,1.,0.));
#678=DIRECTION('center_axis',(1.,0.,0.));
#679=DIRECTION('ref_axis',(0.,0.,-1.));
#680=DIRECTION('',(0.,0.,-1.));
#681=DIRECTION('',(0.,0.,-1.));
#682=DIRECTION('center_axis',(-1.7415263131375E-16,0.,-1.));
#683=DIRECTION('ref_axis',(-1.,0.,1.7415263131375E-16));
#684=DIRECTION('',(-1.,0.,1.7415263131375E-16));
#685=DIRECTION('',(0.,1.,0.));
#686=DIRECTION('',(-1.,0.,1.7415263131375E-16));
#687=DIRECTION('',(0.,1.,0.));
#688=DIRECTION('center_axis',(1.,0.,0.));
#689=DIRECTION('ref_axis',(0.,0.,-1.));
#690=DIRECTION('',(0.,0.,-1.));
#691=DIRECTION('',(0.,0.,-1.));
#692=DIRECTION('',(0.,1.,0.));
#693=DIRECTION('center_axis',(1.30614473485312E-16,0.,1.));
#694=DIRECTION('ref_axis',(1.,0.,-1.30614473485312E-16));
#695=DIRECTION('',(1.,0.,-1.30614473485312E-16));
#696=DIRECTION('',(1.,0.,-1.30614473485312E-16));
#697=DIRECTION('',(0.,1.,0.));
#698=DIRECTION('center_axis',(-1.,0.,0.));
#699=DIRECTION('ref_axis',(0.,0.,1.));
#700=DIRECTION('',(0.,0.,1.));
#701=DIRECTION('',(0.,0.,1.));
#702=DIRECTION('center_axis',(0.,1.,0.));
#703=DIRECTION('ref_axis',(0.,0.,1.));
#704=DIRECTION('center_axis',(0.,1.,0.));
#705=DIRECTION('ref_axis',(0.,0.,1.));
#706=CARTESIAN_POINT('',(0.,0.,0.));
#707=CARTESIAN_POINT('Origin',(28.5999999999999,0.,-4.15000000000001));
#708=CARTESIAN_POINT('',(28.5999999999999,0.,-4.15000000000001));
#709=CARTESIAN_POINT('',(1.5,0.,-34.84921875));
#710=CARTESIAN_POINT('',(28.5999999999999,0.,-4.15000000000001));
#711=CARTESIAN_POINT('',(1.5,8.,-34.84921875));
#712=CARTESIAN_POINT('',(1.5,0.,-34.84921875));
#713=CARTESIAN_POINT('',(28.5999999999999,8.,-4.15000000000001));
#714=CARTESIAN_POINT('',(28.5999999999999,8.,-4.15000000000001));
#715=CARTESIAN_POINT('',(28.5999999999999,0.,-4.15000000000001));
#716=CARTESIAN_POINT('Origin',(44.5999999999999,0.,-8.89999999999999));
#717=CARTESIAN_POINT('',(44.5999999999999,0.,-8.89999999999999));
#718=CARTESIAN_POINT('',(44.5999999999999,0.,-8.89999999999999));
#719=CARTESIAN_POINT('',(44.5999999999999,8.,-8.89999999999999));
#720=CARTESIAN_POINT('',(44.5999999999999,8.,-8.89999999999999));
#721=CARTESIAN_POINT('',(44.5999999999999,0.,-8.89999999999999));
#722=CARTESIAN_POINT('Origin',(52.5999999999999,0.,-0.899999999999991));
#723=CARTESIAN_POINT('',(52.5999999999999,0.,-0.899999999999991));
#724=CARTESIAN_POINT('',(52.5999999999999,0.,-0.899999999999991));
#725=CARTESIAN_POINT('',(52.5999999999999,8.,-0.89999999999999));
#726=CARTESIAN_POINT('',(52.5999999999999,8.,-0.899999999999991));
#727=CARTESIAN_POINT('',(52.5999999999999,0.,-0.899999999999991));
#728=CARTESIAN_POINT('Origin',(120.6,0.,-0.900000000000016));
#729=CARTESIAN_POINT('',(120.6,0.,-0.900000000000016));
#730=CARTESIAN_POINT('',(120.6,0.,-0.900000000000016));
#731=CARTESIAN_POINT('',(120.6,8.,-0.900000000000016));
#732=CARTESIAN_POINT('',(120.6,8.,-0.900000000000016));
#733=CARTESIAN_POINT('',(120.6,0.,-0.900000000000016));
#734=CARTESIAN_POINT('Origin',(120.6,0.,-3.40000000000001));
#735=CARTESIAN_POINT('',(120.6,0.,-3.40000000000001));
#736=CARTESIAN_POINT('',(120.6,0.,-3.40000000000001));
#737=CARTESIAN_POINT('',(120.6,8.,-3.40000000000002));
#738=CARTESIAN_POINT('',(120.6,8.,-3.40000000000001));
#739=CARTESIAN_POINT('',(120.6,0.,-3.40000000000001));
#740=CARTESIAN_POINT('Origin',(188.6,0.,-3.40000000000003));
#741=CARTESIAN_POINT('',(188.6,0.,-3.40000000000003));
#742=CARTESIAN_POINT('',(188.6,0.,-3.40000000000003));
#743=CARTESIAN_POINT('',(188.6,8.,-3.40000000000003));
#744=CARTESIAN_POINT('',(188.6,8.,-3.40000000000003));
#745=CARTESIAN_POINT('',(188.6,0.,-3.40000000000003));
#746=CARTESIAN_POINT('Origin',(201.,0.,-12.65));
#747=CARTESIAN_POINT('',(201.,0.,-12.65));
#748=CARTESIAN_POINT('',(201.,0.,-12.65));
#749=CARTESIAN_POINT('',(201.,8.,-12.65));
#750=CARTESIAN_POINT('',(201.,8.,-12.65));
#751=CARTESIAN_POINT('',(201.,0.,-12.65));
#752=CARTESIAN_POINT('Origin',(201.,0.,-67.65));
#753=CARTESIAN_POINT('',(201.,0.,-67.65));
#754=CARTESIAN_POINT('',(201.,0.,-67.65));
#755=CARTESIAN_POINT('',(201.,8.,-67.65));
#756=CARTESIAN_POINT('',(201.,8.,-67.65));
#757=CARTESIAN_POINT('',(201.,0.,-67.65));
#758=CARTESIAN_POINT('Origin',(188.6,0.,-76.9));
#759=CARTESIAN_POINT('',(188.6,0.,-76.9));
#760=CARTESIAN_POINT('',(188.6,0.,-76.9));
#761=CARTESIAN_POINT('',(188.6,8.,-76.9));
#762=CARTESIAN_POINT('',(188.6,8.,-76.9));
#763=CARTESIAN_POINT('',(188.6,0.,-76.9));
#764=CARTESIAN_POINT('Origin',(120.6,0.,-76.9));
#765=CARTESIAN_POINT('',(120.6,0.,-76.9));
#766=CARTESIAN_POINT('',(120.6,0.,-76.9));
#767=CARTESIAN_POINT('',(120.6,8.,-76.9));
#768=CARTESIAN_POINT('',(120.6,8.,-76.9));
#769=CARTESIAN_POINT('',(120.6,0.,-76.9));
#770=CARTESIAN_POINT('Origin',(120.6,0.,-79.4));
#771=CARTESIAN_POINT('',(120.6,0.,-79.4));
#772=CARTESIAN_POINT('',(120.6,0.,-79.4));
#773=CARTESIAN_POINT('',(120.6,8.,-79.4));
#774=CARTESIAN_POINT('',(120.6,8.,-79.4));
#775=CARTESIAN_POINT('',(120.6,0.,-79.4));
#776=CARTESIAN_POINT('Origin',(52.5999999999999,0.,-79.4));
#777=CARTESIAN_POINT('',(52.5999999999999,0.,-79.4));
#778=CARTESIAN_POINT('',(52.5999999999999,0.,-79.4));
#779=CARTESIAN_POINT('',(52.5999999999999,8.,-79.4));
#780=CARTESIAN_POINT('',(52.5999999999999,8.,-79.4));
#781=CARTESIAN_POINT('',(52.5999999999999,0.,-79.4));
#782=CARTESIAN_POINT('Origin',(44.5999999999999,0.,-71.4));
#783=CARTESIAN_POINT('',(44.5999999999999,0.,-71.4));
#784=CARTESIAN_POINT('',(44.5999999999999,0.,-71.4));
#785=CARTESIAN_POINT('',(44.5999999999999,8.,-71.4));
#786=CARTESIAN_POINT('',(44.5999999999999,8.,-71.4));
#787=CARTESIAN_POINT('',(44.5999999999999,0.,-71.4));
#788=CARTESIAN_POINT('Origin',(28.5999999999999,0.,-76.15));
#789=CARTESIAN_POINT('',(28.5999999999999,0.,-76.15));
#790=CARTESIAN_POINT('',(28.5999999999999,0.,-76.15));
#791=CARTESIAN_POINT('',(28.5999999999999,8.,-76.15));
#792=CARTESIAN_POINT('',(28.5999999999999,8.,-76.15));
#793=CARTESIAN_POINT('',(28.5999999999999,0.,-76.15));
#794=CARTESIAN_POINT('Origin',(1.5,0.,-45.45078125));
#795=CARTESIAN_POINT('',(1.5,0.,-45.45078125));
#796=CARTESIAN_POINT('',(1.5,0.,-45.45078125));
#797=CARTESIAN_POINT('',(1.5,8.,-45.45078125));
#798=CARTESIAN_POINT('',(1.5,8.,-45.45078125));
#799=CARTESIAN_POINT('',(1.5,0.,-45.45078125));
#800=CARTESIAN_POINT('Origin',(1.5,0.,-43.45078125));
#801=CARTESIAN_POINT('',(1.5,0.,-43.45078125));
#802=CARTESIAN_POINT('',(1.5,0.,-43.45078125));
#803=CARTESIAN_POINT('',(1.5,8.,-43.45078125));
#804=CARTESIAN_POINT('',(1.5,8.,-43.45078125));
#805=CARTESIAN_POINT('',(1.5,0.,-43.45078125));
#806=CARTESIAN_POINT('Origin',(3.,0.,-41.7515625));
#807=CARTESIAN_POINT('',(3.,0.,-41.7515625));
#808=CARTESIAN_POINT('',(3.,0.,-41.7515625));
#809=CARTESIAN_POINT('',(3.,8.,-41.7515625));
#810=CARTESIAN_POINT('',(3.,8.,-41.7515625));
#811=CARTESIAN_POINT('',(3.,0.,-41.7515625));
#812=CARTESIAN_POINT('Origin',(3.,0.,-38.5484375));
#813=CARTESIAN_POINT('',(3.,0.,-38.5484375));
#814=CARTESIAN_POINT('',(3.,0.,-33.15));
#815=CARTESIAN_POINT('',(3.,8.,-38.5484375));
#816=CARTESIAN_POINT('',(3.,8.,-33.15));
#817=CARTESIAN_POINT('',(3.,0.,-38.5484375));
#818=CARTESIAN_POINT('Origin',(1.5,0.,-36.84921875));
#819=CARTESIAN_POINT('',(1.5,0.,-36.84921875));
#820=CARTESIAN_POINT('',(1.5,0.,-36.84921875));
#821=CARTESIAN_POINT('',(1.5,8.,-36.84921875));
#822=CARTESIAN_POINT('',(1.5,8.,-36.84921875));
#823=CARTESIAN_POINT('',(1.5,0.,-36.84921875));
#824=CARTESIAN_POINT('Origin',(1.5,0.,-34.84921875));
#825=CARTESIAN_POINT('',(1.5,0.,-34.84921875));
#826=CARTESIAN_POINT('',(1.5,8.,-34.84921875));
#827=CARTESIAN_POINT('Origin',(204.,0.,-80.3));
#828=CARTESIAN_POINT('',(204.,0.,-80.3));
#829=CARTESIAN_POINT('',(0.,0.,-80.3));
#830=CARTESIAN_POINT('',(204.,0.,-80.3));
#831=CARTESIAN_POINT('',(0.,8.,-80.3));
#832=CARTESIAN_POINT('',(0.,0.,-80.3));
#833=CARTESIAN_POINT('',(204.,8.,-80.3));
#834=CARTESIAN_POINT('',(204.,8.,-80.3));
#835=CARTESIAN_POINT('',(204.,0.,-80.3));
#836=CARTESIAN_POINT('Origin',(204.,0.,-2.66453525910038E-14));
#837=CARTESIAN_POINT('',(204.,0.,-2.66453525910038E-14));
#838=CARTESIAN_POINT('',(204.,0.,-2.66453525910038E-14));
#839=CARTESIAN_POINT('',(204.,8.,-1.77635683940025E-14));
#840=CARTESIAN_POINT('',(204.,8.,-2.66453525910038E-14));
#841=CARTESIAN_POINT('',(204.,0.,-2.66453525910038E-14));
#842=CARTESIAN_POINT('Origin',(0.,0.,0.));
#843=CARTESIAN_POINT('',(0.,0.,0.));
#844=CARTESIAN_POINT('',(0.,0.,0.));
#845=CARTESIAN_POINT('',(0.,8.,0.));
#846=CARTESIAN_POINT('',(0.,8.,0.));
#847=CARTESIAN_POINT('',(0.,0.,0.));
#848=CARTESIAN_POINT('Origin',(0.,0.,-80.3));
#849=CARTESIAN_POINT('',(0.,0.,-80.3));
#850=CARTESIAN_POINT('',(0.,8.,-80.3));
#851=CARTESIAN_POINT('Origin',(102.,8.,-40.15));
#852=CARTESIAN_POINT('Origin',(102.,0.,-40.15));
#853=UNCERTAINTY_MEASURE_WITH_UNIT(LENGTH_MEASURE(0.01),#857,
'DISTANCE_ACCURACY_VALUE',
'Maximum model space distance between geometric entities at asserted c
onnectivities');
#854=UNCERTAINTY_MEASURE_WITH_UNIT(LENGTH_MEASURE(0.01),#857,
'DISTANCE_ACCURACY_VALUE',
'Maximum model space distance between geometric entities at asserted c
onnectivities');
#855=(
GEOMETRIC_REPRESENTATION_CONTEXT(3)
GLOBAL_UNCERTAINTY_ASSIGNED_CONTEXT((#853))
GLOBAL_UNIT_ASSIGNED_CONTEXT((#857,#859,#860))
REPRESENTATION_CONTEXT('','3D')
);
#856=(
GEOMETRIC_REPRESENTATION_CONTEXT(3)
GLOBAL_UNCERTAINTY_ASSIGNED_CONTEXT((#854))
GLOBAL_UNIT_ASSIGNED_CONTEXT((#857,#859,#860))
REPRESENTATION_CONTEXT('','3D')
);
#857=(
LENGTH_UNIT()
NAMED_UNIT(*)
SI_UNIT(.MILLI.,.METRE.)
);
#858=(
LENGTH_UNIT()
NAMED_UNIT(*)
SI_UNIT(.CENTI.,.METRE.)
);
#859=(
NAMED_UNIT(*)
PLANE_ANGLE_UNIT()
SI_UNIT($,.RADIAN.)
);
#860=(
NAMED_UNIT(*)
SI_UNIT($,.STERADIAN.)
SOLID_ANGLE_UNIT()
);
#861=SHAPE_DEFINITION_REPRESENTATION(#862,#863);
#862=PRODUCT_DEFINITION_SHAPE('',$,#865);
#863=SHAPE_REPRESENTATION('',(#553),#855);
#864=PRODUCT_DEFINITION_CONTEXT('part definition',#869,'design');
#865=PRODUCT_DEFINITION('h6-case','h6-case',#866,#864);
#866=PRODUCT_DEFINITION_FORMATION('',$,#871);
#867=PRODUCT_RELATED_PRODUCT_CATEGORY('h6-case','h6-case',(#871));
#868=APPLICATION_PROTOCOL_DEFINITION('international standard',
'automotive_design',2009,#869);
#869=APPLICATION_CONTEXT(
'Core Data for Automotive Mechanical Design Process');
#870=PRODUCT_CONTEXT('part definition',#869,'mechanical');
#871=PRODUCT('h6-case','h6-case',$,(#870));
#872=PRESENTATION_STYLE_ASSIGNMENT((#873));
#873=SURFACE_STYLE_USAGE(.BOTH.,#876);
#874=SURFACE_STYLE_RENDERING_WITH_PROPERTIES($,#880,(#875));
#875=SURFACE_STYLE_TRANSPARENT(0.);
#876=SURFACE_SIDE_STYLE('',(#877,#874));
#877=SURFACE_STYLE_FILL_AREA(#878);
#878=FILL_AREA_STYLE('',(#879));
#879=FILL_AREA_STYLE_COLOUR('',#880);
#880=COLOUR_RGB('',0.749019607843137,0.749019607843137,0.749019607843137);
ENDSEC;
END-ISO-10303-21;
