ISO-10303-21;
HEADER;
/* Generated by software containing ST-Developer
 * from STEP Tools, Inc. (www.steptools.com) 
 */

FILE_DESCRIPTION(
/* description */ (''),
/* implementation_level */ '2;1');

FILE_NAME(
/* name */ 'bishop-white.stp',
/* time_stamp */ '2025-08-10T17:47:00+01:00',
/* author */ ('iwheard'),
/* organization */ (''),
/* preprocessor_version */ 'ST-DEVELOPER v20',
/* originating_system */ 'Autodesk Inventor 2024',
/* authorisation */ '');

FILE_SCHEMA (('AUTOMOTIVE_DESIGN { 1 0 10303 214 3 1 1 }'));
ENDSEC;

DATA;
#10=MECHANICAL_DESIGN_GEOMETRIC_PRESENTATION_REPRESENTATION('',(#20),#961);
#11=GEOMETRICALLY_BOUNDED_WIREFRAME_SHAPE_REPRESENTATION('',(#12),#960);
#12=GEOMETRIC_CURVE_SET('Sketch16',(#18,#19,#16,#17,#953,#954,#955,#956,
#957));
#13=SHAPE_REPRESENTATION_RELATIONSHIP('SRR','None',#968,#15);
#14=SHAPE_REPRESENTATION_RELATIONSHIP('SRR','None',#968,#11);
#15=ADVANCED_BREP_SHAPE_REPRESENTATION('',(#21),#960);
#16=POLYLINE('',(#949,#950));
#17=POLYLINE('',(#951,#952));
#18=TRIMMED_CURVE('',#84,(#927,PARAMETER_VALUE(1.)),(#928,
PARAMETER_VALUE(2.)),.T.,.PARAMETER.);
#19=TRIMMED_CURVE('',#85,(#947,PARAMETER_VALUE(1.0566019707685)),(#948,
PARAMETER_VALUE(1.94354199732057)),.T.,.PARAMETER.);
#20=STYLED_ITEM('',(#977),#21);
#21=MANIFOLD_SOLID_BREP('Solid1',#192);
#22=FACE_BOUND('',#71,.T.);
#23=LINE('',#918,#25);
#24=LINE('',#921,#26);
#25=VECTOR('',#259,7.15);
#26=VECTOR('',#262,3.);
#27=CYLINDRICAL_SURFACE('',#226,7.15);
#28=CYLINDRICAL_SURFACE('',#228,3.);
#29=CIRCLE('',#217,2.78693442470996);
#30=CIRCLE('',#219,2.48266817560002);
#31=CIRCLE('',#220,0.599999999999999);
#32=CIRCLE('',#221,7.15);
#33=CIRCLE('',#222,7.15);
#34=CIRCLE('',#224,3.);
#35=CIRCLE('',#227,7.15);
#36=CIRCLE('',#229,3.);
#37=ELLIPSE('',#216,8.,6.3);
#38=ELLIPSE('',#218,8.,6.3);
#39=ELLIPSE('',#225,2.8,1.4);
#40=(
BOUNDED_SURFACE()
B_SPLINE_SURFACE(2,2,((#442,#443,#444,#445,#446,#447,#448,#449,#450),(#451,
#452,#453,#454,#455,#456,#457,#458,#459),(#460,#461,#462,#463,#464,#465,
#466,#467,#468),(#469,#470,#471,#472,#473,#474,#475,#476,#477),(#478,#479,
#480,#481,#482,#483,#484,#485,#486)),.UNSPECIFIED.,.F.,.T.,.F.)
B_SPLINE_SURFACE_WITH_KNOTS((3,2,3),(3,2,2,2,3),(0.458240196031443,1.59738620296782,
2.7365322099042),(0.,1.5707963267949,3.14159265358979,4.71238898038469,
6.28318530717959),.UNSPECIFIED.)
GEOMETRIC_REPRESENTATION_ITEM()
RATIONAL_B_SPLINE_SURFACE(((1.,0.707106781186548,1.,0.707106781186548,1.,
0.707106781186548,1.,0.707106781186548,1.),(0.842131319418301,0.595476766610255,
0.842131319418301,0.595476766610255,0.842131319418301,0.595476766610255,
0.842131319418301,0.595476766610255,0.842131319418301),(1.,0.707106781186548,
1.,0.707106781186548,1.,0.707106781186548,1.,0.707106781186548,1.),(0.842131319418297,
0.595476766610252,0.842131319418297,0.595476766610252,0.842131319418297,
0.595476766610252,0.842131319418297,0.595476766610252,0.842131319418297),
(1.,0.707106781186548,1.,0.707106781186548,1.,0.707106781186548,1.,0.707106781186548,
1.)))
REPRESENTATION_ITEM('')
SURFACE()
);
#41=(
BOUNDED_SURFACE()
B_SPLINE_SURFACE(4,2,((#632,#633,#634,#635,#636,#637,#638,#639,#640),(#641,
#642,#643,#644,#645,#646,#647,#648,#649),(#650,#651,#652,#653,#654,#655,
#656,#657,#658),(#659,#660,#661,#662,#663,#664,#665,#666,#667),(#668,#669,
#670,#671,#672,#673,#674,#675,#676),(#677,#678,#679,#680,#681,#682,#683,
#684,#685),(#686,#687,#688,#689,#690,#691,#692,#693,#694)),
 .UNSPECIFIED.,.F.,.T.,.F.)
B_SPLINE_SURFACE_WITH_KNOTS((5,1,1,5),(3,2,2,2,3),(1.,1.62055832623936,
1.87448749498052,2.),(0.,1.5707963267949,3.14159265358979,4.71238898038469,
6.28318530717959),.UNSPECIFIED.)
GEOMETRIC_REPRESENTATION_ITEM()
RATIONAL_B_SPLINE_SURFACE(((1.,0.707106781186548,1.,0.707106781186548,1.,
0.707106781186548,1.,0.707106781186548,1.),(1.,0.707106781186548,1.,0.707106781186548,
1.,0.707106781186548,1.,0.707106781186548,1.),(1.,0.707106781186548,1.,
0.707106781186548,1.,0.707106781186548,1.,0.707106781186548,1.),(1.,0.707106781186548,
1.,0.707106781186548,1.,0.707106781186548,1.,0.707106781186548,1.),(1.,
0.707106781186548,1.,0.707106781186548,1.,0.707106781186548,1.,0.707106781186548,
1.),(1.,0.707106781186548,1.,0.707106781186548,1.,0.707106781186548,1.,
0.707106781186548,1.),(1.,0.707106781186548,1.,0.707106781186548,1.,0.707106781186548,
1.,0.707106781186548,1.)))
REPRESENTATION_ITEM('')
SURFACE()
);
#42=(
BOUNDED_SURFACE()
B_SPLINE_SURFACE(4,2,((#702,#703,#704,#705,#706,#707,#708,#709,#710),(#711,
#712,#713,#714,#715,#716,#717,#718,#719),(#720,#721,#722,#723,#724,#725,
#726,#727,#728),(#729,#730,#731,#732,#733,#734,#735,#736,#737),(#738,#739,
#740,#741,#742,#743,#744,#745,#746),(#747,#748,#749,#750,#751,#752,#753,
#754,#755),(#756,#757,#758,#759,#760,#761,#762,#763,#764),(#765,#766,#767,
#768,#769,#770,#771,#772,#773),(#774,#775,#776,#777,#778,#779,#780,#781,
#782),(#783,#784,#785,#786,#787,#788,#789,#790,#791),(#792,#793,#794,#795,
#796,#797,#798,#799,#800),(#801,#802,#803,#804,#805,#806,#807,#808,#809),
(#810,#811,#812,#813,#814,#815,#816,#817,#818),(#819,#820,#821,#822,#823,
#824,#825,#826,#827),(#828,#829,#830,#831,#832,#833,#834,#835,#836),(#837,
#838,#839,#840,#841,#842,#843,#844,#845)),.UNSPECIFIED.,.F.,.T.,.F.)
B_SPLINE_SURFACE_WITH_KNOTS((5,1,1,1,1,1,1,1,1,1,1,1,5),(3,2,2,2,3),(1.,
2.,3.,4.,5.,6.,7.,8.,9.,10.,10.5058134422237,10.9241796110413,11.),(0.,
1.5707963267949,3.14159265358979,4.71238898038469,6.28318530717959),
 .UNSPECIFIED.)
GEOMETRIC_REPRESENTATION_ITEM()
RATIONAL_B_SPLINE_SURFACE(((1.,0.707106781186548,1.,0.707106781186548,1.,
0.707106781186548,1.,0.707106781186548,1.),(1.,0.707106781186548,1.,0.707106781186548,
1.,0.707106781186548,1.,0.707106781186548,1.),(1.,0.707106781186548,1.,
0.707106781186548,1.,0.707106781186548,1.,0.707106781186548,1.),(1.,0.707106781186548,
1.,0.707106781186548,1.,0.707106781186548,1.,0.707106781186548,1.),(1.,
0.707106781186548,1.,0.707106781186548,1.,0.707106781186548,1.,0.707106781186548,
1.),(1.,0.707106781186548,1.,0.707106781186548,1.,0.707106781186548,1.,
0.707106781186548,1.),(1.,0.707106781186548,1.,0.707106781186548,1.,0.707106781186548,
1.,0.707106781186548,1.),(1.,0.707106781186548,1.,0.707106781186548,1.,
0.707106781186548,1.,0.707106781186548,1.),(1.,0.707106781186548,1.,0.707106781186548,
1.,0.707106781186548,1.,0.707106781186548,1.),(1.,0.707106781186548,1.,
0.707106781186548,1.,0.707106781186548,1.,0.707106781186548,1.),(1.,0.707106781186548,
1.,0.707106781186548,1.,0.707106781186548,1.,0.707106781186548,1.),(1.,
0.707106781186548,1.,0.707106781186548,1.,0.707106781186548,1.,0.707106781186548,
1.),(1.,0.707106781186548,1.,0.707106781186548,1.,0.707106781186548,1.,
0.707106781186548,1.),(1.,0.707106781186548,1.,0.707106781186548,1.,0.707106781186548,
1.,0.707106781186548,1.),(1.,0.707106781186548,1.,0.707106781186548,1.,
0.707106781186548,1.,0.707106781186548,1.),(1.,0.707106781186548,1.,0.707106781186548,
1.,0.707106781186548,1.,0.707106781186548,1.)))
REPRESENTATION_ITEM('')
SURFACE()
);
#43=(
BOUNDED_SURFACE()
B_SPLINE_SURFACE(2,2,((#868,#869,#870,#871,#872,#873,#874,#875,#876),(#877,
#878,#879,#880,#881,#882,#883,#884,#885),(#886,#887,#888,#889,#890,#891,
#892,#893,#894),(#895,#896,#897,#898,#899,#900,#901,#902,#903),(#904,#905,
#906,#907,#908,#909,#910,#911,#912)),.UNSPECIFIED.,.F.,.T.,.F.)
B_SPLINE_SURFACE_WITH_KNOTS((3,2,3),(3,2,2,2,3),(2.66088345274784,3.68663621656626,
4.71238898038469),(0.,1.5707963267949,3.14159265358979,4.71238898038469,
6.28318530717959),.UNSPECIFIED.)
GEOMETRIC_REPRESENTATION_ITEM()
RATIONAL_B_SPLINE_SURFACE(((1.,0.707106781186548,1.,0.707106781186548,1.,
0.707106781186548,1.,0.707106781186548,1.),(0.871336715025425,0.616128099891289,
0.871336715025425,0.616128099891289,0.871336715025425,0.616128099891289,
0.871336715025425,0.616128099891289,0.871336715025425),(1.,0.707106781186548,
1.,0.707106781186548,1.,0.707106781186548,1.,0.707106781186548,1.),(0.871336715025449,
0.616128099891306,0.871336715025449,0.616128099891306,0.871336715025449,
0.616128099891306,0.871336715025449,0.616128099891306,0.871336715025449),
(1.,0.707106781186548,1.,0.707106781186548,1.,0.707106781186548,1.,0.707106781186548,
1.)))
REPRESENTATION_ITEM('')
SURFACE()
);
#44=PLANE('',#215);
#45=PLANE('',#223);
#46=PLANE('',#230);
#47=FACE_OUTER_BOUND('',#59,.T.);
#48=FACE_OUTER_BOUND('',#60,.T.);
#49=FACE_OUTER_BOUND('',#61,.T.);
#50=FACE_OUTER_BOUND('',#62,.T.);
#51=FACE_OUTER_BOUND('',#63,.T.);
#52=FACE_OUTER_BOUND('',#64,.T.);
#53=FACE_OUTER_BOUND('',#65,.T.);
#54=FACE_OUTER_BOUND('',#66,.T.);
#55=FACE_OUTER_BOUND('',#67,.T.);
#56=FACE_OUTER_BOUND('',#68,.T.);
#57=FACE_OUTER_BOUND('',#69,.T.);
#58=FACE_OUTER_BOUND('',#70,.T.);
#59=EDGE_LOOP('',(#127,#128,#129));
#60=EDGE_LOOP('',(#130,#131,#132));
#61=EDGE_LOOP('',(#133,#134,#135,#136));
#62=EDGE_LOOP('',(#137,#138,#139,#140,#141,#142,#143,#144,#145,#146,#147,
#148));
#63=EDGE_LOOP('',(#149,#150,#151,#152));
#64=EDGE_LOOP('',(#153,#154,#155,#156));
#65=EDGE_LOOP('',(#157,#158,#159,#160,#161));
#66=EDGE_LOOP('',(#162));
#67=EDGE_LOOP('',(#163,#164,#165));
#68=EDGE_LOOP('',(#166,#167,#168,#169,#170));
#69=EDGE_LOOP('',(#171,#172,#173,#174));
#70=EDGE_LOOP('',(#175));
#71=EDGE_LOOP('',(#176));
#72=B_SPLINE_CURVE_WITH_KNOTS('',3,(#286,#287,#288,#289,#290,#291,#292,
#293,#294,#295,#296,#297,#298,#299),.UNSPECIFIED.,.F.,.F.,(4,2,2,2,2,2,
4),(-2.31799429736451,-2.01409283726455,-1.70831011816653,-1.43082738988294,
-1.28619572270703,-1.18517453272665,-1.15871292339135),.UNSPECIFIED.);
#73=B_SPLINE_CURVE_WITH_KNOTS('',2,(#301,#302,#303),.UNSPECIFIED.,.F.,.F.,
(3,3),(-1.88148871210781,-1.11869601054424),.UNSPECIFIED.);
#74=B_SPLINE_CURVE_WITH_KNOTS('',3,(#304,#305,#306,#307,#308,#309,#310,
#311,#312,#313,#314,#315,#316,#317),.UNSPECIFIED.,.F.,.F.,(4,2,2,2,2,2,
4),(-1.15871292339135,-1.09074931670869,-0.977372819976536,-0.785887511892221,
-0.486769432798333,-0.153575741729401,0.),.UNSPECIFIED.);
#75=B_SPLINE_CURVE_WITH_KNOTS('',3,(#384,#385,#386,#387,#388,#389,#390,
#391,#392,#393,#394,#395,#396,#397),.UNSPECIFIED.,.F.,.F.,(4,2,2,2,2,2,
4),(-1.16122859419954,-1.13811662465947,-1.04249900850414,-0.898011377127324,
-0.64454666671713,-0.308754050655413,0.),.UNSPECIFIED.);
#76=B_SPLINE_CURVE_WITH_KNOTS('',3,(#399,#400,#401,#402,#403,#404,#405,
#406,#407,#408,#409,#410,#411,#412),.UNSPECIFIED.,.F.,.F.,(4,2,2,2,2,2,
4),(-2.36627631304499,-2.08529619686968,-1.80620280375233,-1.5545808535313,
-1.33789750611907,-1.22679334709899,-1.16122859419954),.UNSPECIFIED.);
#77=B_SPLINE_CURVE_WITH_KNOTS('',3,(#413,#414,#415,#416,#417,#418,#419,
#420,#421,#422,#423,#424,#425,#426,#427,#428),.UNSPECIFIED.,.F.,.F.,(4,
1,1,1,1,1,1,1,1,1,1,1,1,4),(-1.8434314015178,-1.79571865956189,-1.75876282512222,
-1.68485115624288,-1.64789532180321,-1.57398365292387,-1.5370278184842,
-1.46311614960486,-1.4261603151652,-1.35224864628586,-1.31529281184619,
-1.24138114296685,-1.20442530852718,-1.15641518105319),.UNSPECIFIED.);
#78=B_SPLINE_CURVE_WITH_KNOTS('',3,(#430,#431,#432,#433,#434,#435),
 .UNSPECIFIED.,.F.,.F.,(4,2,4),(-0.253341952850491,-0.248867543315398,-0.127343283493914),
 .UNSPECIFIED.);
#79=B_SPLINE_CURVE_WITH_KNOTS('',3,(#436,#437,#438,#439,#440,#441),
 .UNSPECIFIED.,.F.,.F.,(4,2,4),(-0.364433675028821,-0.244944812075368,-0.238774854203684),
 .UNSPECIFIED.);
#80=B_SPLINE_CURVE_WITH_KNOTS('',3,(#598,#599,#600,#601,#602,#603,#604,
#605,#606,#607,#608,#609,#610,#611,#612,#613,#614),.UNSPECIFIED.,.T.,.F.,
(4,1,1,1,1,1,1,1,1,1,1,1,1,1,4),(-1.5707963267949,-1.12199737628207,-0.673198425769241,
-0.224399475256414,0.224399475256414,0.822798075940184,1.12199737628207,
2.01959527730772,2.13179501493593,2.46839422782055,2.91719317833338,3.36599212884621,
3.81479107935903,4.26359002987186,4.71238898038469),.UNSPECIFIED.);
#81=B_SPLINE_CURVE_WITH_KNOTS('',3,(#615,#616,#617,#618,#619,#620,#621,
#622,#623,#624,#625,#626,#627,#628,#629,#630,#631),.UNSPECIFIED.,.T.,.F.,
(4,1,1,1,1,1,1,1,1,1,1,1,1,1,4),(-4.71238898038469,-4.26359002987186,-3.81479107935903,
-3.36599212884621,-2.91719317833338,-2.46839422782055,-2.13179501493593,
-2.01959527730772,-1.12199737628207,-0.822798075940184,-0.224399475256414,
0.224399475256414,0.673198425769241,1.12199737628207,1.5707963267949),
 .UNSPECIFIED.);
#82=B_SPLINE_CURVE_WITH_KNOTS('',4,(#695,#696,#697,#698,#699,#700,#701),
 .UNSPECIFIED.,.F.,.F.,(5,1,1,5),(1.12740757066739,1.62055832623936,1.87448749498052,
2.),.UNSPECIFIED.);
#83=B_SPLINE_CURVE_WITH_KNOTS('',4,(#847,#848,#849,#850,#851,#852,#853,
#854,#855,#856,#857,#858,#859,#860,#861),.UNSPECIFIED.,.F.,.F.,(5,1,1,1,
1,1,1,1,1,1,1,5),(1.,2.,3.,4.,5.,6.,7.,8.,9.,10.,10.5058134422237,10.7995655898705),
 .UNSPECIFIED.);
#84=B_SPLINE_CURVE_WITH_KNOTS('',2,(#924,#925,#926),.UNSPECIFIED.,.F.,.F.,
(3,3),(1.,2.),.UNSPECIFIED.);
#85=B_SPLINE_CURVE_WITH_KNOTS('',3,(#929,#930,#931,#932,#933,#934,#935,
#936,#937,#938,#939,#940,#941,#942,#943,#944,#945,#946),.UNSPECIFIED.,.F.,
 .F.,(4,1,1,1,1,1,1,1,1,1,1,1,1,1,1,4),(1.0566019707685,1.13051363964784,
1.20442530852718,1.24138114296685,1.31529281184619,1.35224864628586,1.4261603151652,
1.46311614960486,1.5370278184842,1.57398365292387,1.64789532180321,1.68485115624288,
1.75876282512222,1.79571865956189,1.86963032844123,1.94354199732057),
 .UNSPECIFIED.);
#86=VERTEX_POINT('',#284);
#87=VERTEX_POINT('',#285);
#88=VERTEX_POINT('',#300);
#89=VERTEX_POINT('',#382);
#90=VERTEX_POINT('',#383);
#91=VERTEX_POINT('',#398);
#92=VERTEX_POINT('',#487);
#93=VERTEX_POINT('',#490);
#94=VERTEX_POINT('',#595);
#95=VERTEX_POINT('',#596);
#96=VERTEX_POINT('',#846);
#97=VERTEX_POINT('',#862);
#98=VERTEX_POINT('',#866);
#99=VERTEX_POINT('',#913);
#100=VERTEX_POINT('',#916);
#101=VERTEX_POINT('',#920);
#102=EDGE_CURVE('',#86,#87,#72,.T.);
#103=EDGE_CURVE('',#86,#88,#73,.T.);
#104=EDGE_CURVE('',#87,#88,#74,.T.);
#105=EDGE_CURVE('',#89,#90,#75,.T.);
#106=EDGE_CURVE('',#91,#89,#76,.T.);
#107=EDGE_CURVE('',#91,#90,#77,.T.);
#108=EDGE_CURVE('',#90,#86,#78,.T.);
#109=EDGE_CURVE('',#88,#91,#79,.T.);
#110=EDGE_CURVE('',#92,#89,#37,.T.);
#111=EDGE_CURVE('',#92,#92,#29,.T.);
#112=EDGE_CURVE('',#87,#93,#38,.T.);
#113=EDGE_CURVE('',#93,#93,#30,.T.);
#114=EDGE_CURVE('',#94,#95,#31,.T.);
#115=EDGE_CURVE('',#95,#95,#80,.T.);
#116=EDGE_CURVE('',#94,#94,#81,.T.);
#117=EDGE_CURVE('',#95,#92,#82,.T.);
#118=EDGE_CURVE('',#96,#94,#83,.T.);
#119=EDGE_CURVE('',#97,#96,#32,.T.);
#120=EDGE_CURVE('',#96,#97,#33,.T.);
#121=EDGE_CURVE('',#98,#98,#34,.T.);
#122=EDGE_CURVE('',#93,#99,#39,.T.);
#123=EDGE_CURVE('',#100,#100,#35,.T.);
#124=EDGE_CURVE('',#100,#97,#23,.T.);
#125=EDGE_CURVE('',#98,#101,#24,.T.);
#126=EDGE_CURVE('',#101,#101,#36,.T.);
#127=ORIENTED_EDGE('',*,*,#102,.F.);
#128=ORIENTED_EDGE('',*,*,#103,.T.);
#129=ORIENTED_EDGE('',*,*,#104,.F.);
#130=ORIENTED_EDGE('',*,*,#105,.F.);
#131=ORIENTED_EDGE('',*,*,#106,.F.);
#132=ORIENTED_EDGE('',*,*,#107,.T.);
#133=ORIENTED_EDGE('',*,*,#108,.F.);
#134=ORIENTED_EDGE('',*,*,#107,.F.);
#135=ORIENTED_EDGE('',*,*,#109,.F.);
#136=ORIENTED_EDGE('',*,*,#103,.F.);
#137=ORIENTED_EDGE('',*,*,#104,.T.);
#138=ORIENTED_EDGE('',*,*,#109,.T.);
#139=ORIENTED_EDGE('',*,*,#106,.T.);
#140=ORIENTED_EDGE('',*,*,#110,.F.);
#141=ORIENTED_EDGE('',*,*,#111,.F.);
#142=ORIENTED_EDGE('',*,*,#110,.T.);
#143=ORIENTED_EDGE('',*,*,#105,.T.);
#144=ORIENTED_EDGE('',*,*,#108,.T.);
#145=ORIENTED_EDGE('',*,*,#102,.T.);
#146=ORIENTED_EDGE('',*,*,#112,.T.);
#147=ORIENTED_EDGE('',*,*,#113,.T.);
#148=ORIENTED_EDGE('',*,*,#112,.F.);
#149=ORIENTED_EDGE('',*,*,#114,.T.);
#150=ORIENTED_EDGE('',*,*,#115,.T.);
#151=ORIENTED_EDGE('',*,*,#114,.F.);
#152=ORIENTED_EDGE('',*,*,#116,.T.);
#153=ORIENTED_EDGE('',*,*,#115,.F.);
#154=ORIENTED_EDGE('',*,*,#117,.T.);
#155=ORIENTED_EDGE('',*,*,#111,.T.);
#156=ORIENTED_EDGE('',*,*,#117,.F.);
#157=ORIENTED_EDGE('',*,*,#116,.F.);
#158=ORIENTED_EDGE('',*,*,#118,.F.);
#159=ORIENTED_EDGE('',*,*,#119,.F.);
#160=ORIENTED_EDGE('',*,*,#120,.F.);
#161=ORIENTED_EDGE('',*,*,#118,.T.);
#162=ORIENTED_EDGE('',*,*,#121,.T.);
#163=ORIENTED_EDGE('',*,*,#122,.T.);
#164=ORIENTED_EDGE('',*,*,#122,.F.);
#165=ORIENTED_EDGE('',*,*,#113,.F.);
#166=ORIENTED_EDGE('',*,*,#123,.F.);
#167=ORIENTED_EDGE('',*,*,#124,.T.);
#168=ORIENTED_EDGE('',*,*,#119,.T.);
#169=ORIENTED_EDGE('',*,*,#120,.T.);
#170=ORIENTED_EDGE('',*,*,#124,.F.);
#171=ORIENTED_EDGE('',*,*,#121,.F.);
#172=ORIENTED_EDGE('',*,*,#125,.T.);
#173=ORIENTED_EDGE('',*,*,#126,.T.);
#174=ORIENTED_EDGE('',*,*,#125,.F.);
#175=ORIENTED_EDGE('',*,*,#123,.T.);
#176=ORIENTED_EDGE('',*,*,#126,.F.);
#177=B_SPLINE_SURFACE_WITH_KNOTS('',3,3,((#268,#269,#270,#271),(#272,#273,
#274,#275),(#276,#277,#278,#279),(#280,#281,#282,#283)),.UNSPECIFIED.,.F.,
 .F.,.F.,(4,4),(4,4),(-1.88148871210781,-1.11869601054424),(1.02026972152453,
2.),.UNSPECIFIED.);
#178=B_SPLINE_SURFACE_WITH_KNOTS('',3,3,((#318,#319,#320,#321),(#322,#323,
#324,#325),(#326,#327,#328,#329),(#330,#331,#332,#333),(#334,#335,#336,
#337),(#338,#339,#340,#341),(#342,#343,#344,#345),(#346,#347,#348,#349),
(#350,#351,#352,#353),(#354,#355,#356,#357),(#358,#359,#360,#361),(#362,
#363,#364,#365),(#366,#367,#368,#369),(#370,#371,#372,#373),(#374,#375,
#376,#377),(#378,#379,#380,#381)),.UNSPECIFIED.,.F.,.F.,.F.,(4,1,1,1,1,
1,1,1,1,1,1,1,1,4),(4,4),(-1.84505718379,-1.79571865956189,-1.75876282512222,
-1.68485115624288,-1.64789532180321,-1.57398365292387,-1.5370278184842,
-1.46311614960486,-1.4261603151652,-1.35224864628586,-1.31529281184619,
-1.24138114296685,-1.20442530852718,-1.154512690764),(1.05938243348605,
2.),.UNSPECIFIED.);
#179=B_SPLINE_SURFACE_WITH_KNOTS('',3,3,((#493,#494,#495,#496,#497,#498,
#499,#500,#501,#502,#503,#504,#505,#506,#507,#508,#509),(#510,#511,#512,
#513,#514,#515,#516,#517,#518,#519,#520,#521,#522,#523,#524,#525,#526),
(#527,#528,#529,#530,#531,#532,#533,#534,#535,#536,#537,#538,#539,#540,
#541,#542,#543),(#544,#545,#546,#547,#548,#549,#550,#551,#552,#553,#554,
#555,#556,#557,#558,#559,#560),(#561,#562,#563,#564,#565,#566,#567,#568,
#569,#570,#571,#572,#573,#574,#575,#576,#577),(#578,#579,#580,#581,#582,
#583,#584,#585,#586,#587,#588,#589,#590,#591,#592,#593,#594)),
 .UNSPECIFIED.,.F.,.T.,.F.,(4,1,1,4),(4,1,1,1,1,1,1,1,1,1,1,1,1,1,4),(0.,
0.285714285714286,0.571428571428571,1.),(-1.5707963267949,-1.12199737628207,
-0.673198425769241,-0.224399475256414,0.224399475256414,0.822798075940184,
1.12199737628207,2.01959527730772,2.13179501493593,2.46839422782055,2.91719317833338,
3.36599212884621,3.81479107935903,4.26359002987186,4.71238898038469),
 .UNSPECIFIED.);
#180=ADVANCED_FACE('',(#47),#177,.F.);
#181=ADVANCED_FACE('',(#48),#178,.F.);
#182=ADVANCED_FACE('',(#49),#44,.T.);
#183=ADVANCED_FACE('',(#50),#40,.T.);
#184=ADVANCED_FACE('',(#51),#179,.F.);
#185=ADVANCED_FACE('',(#52),#41,.T.);
#186=ADVANCED_FACE('',(#53),#42,.T.);
#187=ADVANCED_FACE('',(#54),#45,.T.);
#188=ADVANCED_FACE('',(#55),#43,.T.);
#189=ADVANCED_FACE('',(#56),#27,.T.);
#190=ADVANCED_FACE('',(#57),#28,.F.);
#191=ADVANCED_FACE('',(#58,#22),#46,.F.);
#192=CLOSED_SHELL('',(#180,#181,#182,#183,#184,#185,#186,#187,#188,#189,
#190,#191));
#193=DERIVED_UNIT_ELEMENT(#196,1.);
#194=DERIVED_UNIT_ELEMENT(#963,-3.);
#195=DIMENSIONAL_EXPONENTS(0.,1.,0.,0.,0.,0.,0.);
#196=(
CONVERSION_BASED_UNIT('gram',#198)
MASS_UNIT()
NAMED_UNIT(#195)
);
#197=(
MASS_UNIT()
NAMED_UNIT(*)
SI_UNIT(.KILO.,.GRAM.)
);
#198=MASS_MEASURE_WITH_UNIT(MASS_MEASURE(0.001),#197);
#199=DERIVED_UNIT((#193,#194));
#200=MEASURE_REPRESENTATION_ITEM('density measure',
POSITIVE_RATIO_MEASURE(1.),#199);
#201=PROPERTY_DEFINITION_REPRESENTATION(#206,#203);
#202=PROPERTY_DEFINITION_REPRESENTATION(#207,#204);
#203=REPRESENTATION('material name',(#205),#960);
#204=REPRESENTATION('density',(#200),#960);
#205=DESCRIPTIVE_REPRESENTATION_ITEM('Generic','Generic');
#206=PROPERTY_DEFINITION('material property','material name',#970);
#207=PROPERTY_DEFINITION('material property','density of part',#970);
#208=DATE_TIME_ROLE('creation_date');
#209=APPLIED_DATE_AND_TIME_ASSIGNMENT(#210,#208,(#970));
#210=DATE_AND_TIME(#211,#212);
#211=CALENDAR_DATE(2025,3,8);
#212=LOCAL_TIME(0,0,0.,#213);
#213=COORDINATED_UNIVERSAL_TIME_OFFSET(0,0,.BEHIND.);
#214=AXIS2_PLACEMENT_3D('',#267,#231,#232);
#215=AXIS2_PLACEMENT_3D('',#429,#233,#234);
#216=AXIS2_PLACEMENT_3D('',#488,#235,#236);
#217=AXIS2_PLACEMENT_3D('',#489,#237,#238);
#218=AXIS2_PLACEMENT_3D('',#491,#239,#240);
#219=AXIS2_PLACEMENT_3D('',#492,#241,#242);
#220=AXIS2_PLACEMENT_3D('',#597,#243,#244);
#221=AXIS2_PLACEMENT_3D('',#863,#245,#246);
#222=AXIS2_PLACEMENT_3D('',#864,#247,#248);
#223=AXIS2_PLACEMENT_3D('',#865,#249,#250);
#224=AXIS2_PLACEMENT_3D('',#867,#251,#252);
#225=AXIS2_PLACEMENT_3D('',#914,#253,#254);
#226=AXIS2_PLACEMENT_3D('',#915,#255,#256);
#227=AXIS2_PLACEMENT_3D('',#917,#257,#258);
#228=AXIS2_PLACEMENT_3D('',#919,#260,#261);
#229=AXIS2_PLACEMENT_3D('',#922,#263,#264);
#230=AXIS2_PLACEMENT_3D('',#923,#265,#266);
#231=DIRECTION('axis',(0.,0.,1.));
#232=DIRECTION('refdir',(1.,0.,0.));
#233=DIRECTION('center_axis',(0.,0.976172489715391,0.21699601453219));
#234=DIRECTION('ref_axis',(1.,0.,0.));
#235=DIRECTION('center_axis',(1.,0.,0.));
#236=DIRECTION('ref_axis',(0.,0.,-1.));
#237=DIRECTION('center_axis',(0.,0.,-1.));
#238=DIRECTION('ref_axis',(1.,0.,0.));
#239=DIRECTION('center_axis',(1.,0.,0.));
#240=DIRECTION('ref_axis',(0.,0.,-1.));
#241=DIRECTION('center_axis',(0.,0.,-1.));
#242=DIRECTION('ref_axis',(1.,0.,0.));
#243=DIRECTION('center_axis',(1.,-2.48043657427672E-15,5.18085200186808E-16));
#244=DIRECTION('ref_axis',(1.73472347597681E-15,0.521092848340574,-0.853499996138435));
#245=DIRECTION('center_axis',(0.,0.,-1.));
#246=DIRECTION('ref_axis',(0.,1.,0.));
#247=DIRECTION('center_axis',(0.,0.,-1.));
#248=DIRECTION('ref_axis',(0.,1.,0.));
#249=DIRECTION('center_axis',(0.,0.,-1.));
#250=DIRECTION('ref_axis',(-1.,0.,0.));
#251=DIRECTION('center_axis',(0.,0.,-1.));
#252=DIRECTION('ref_axis',(-1.,0.,0.));
#253=DIRECTION('center_axis',(1.,0.,0.));
#254=DIRECTION('ref_axis',(0.,-1.,-1.22464679914735E-16));
#255=DIRECTION('center_axis',(0.,0.,-1.));
#256=DIRECTION('ref_axis',(1.,0.,0.));
#257=DIRECTION('center_axis',(0.,0.,-1.));
#258=DIRECTION('ref_axis',(1.,0.,0.));
#259=DIRECTION('',(0.,0.,1.));
#260=DIRECTION('center_axis',(0.,0.,1.));
#261=DIRECTION('ref_axis',(-1.,0.,0.));
#262=DIRECTION('',(0.,0.,-1.));
#263=DIRECTION('center_axis',(0.,0.,-1.));
#264=DIRECTION('ref_axis',(-1.,0.,0.));
#265=DIRECTION('center_axis',(0.,0.,1.));
#266=DIRECTION('ref_axis',(1.,0.,0.));
#267=CARTESIAN_POINT('',(0.,0.,0.));
#268=CARTESIAN_POINT('Ctrl Pts',(6.10381939372498,28.9022199447984,39.6357965233485));
#269=CARTESIAN_POINT('Ctrl Pts',(6.10381939372498,28.9770789158693,36.5427244693831));
#270=CARTESIAN_POINT('Ctrl Pts',(6.10381939372498,28.2661902215606,33.9473838303662));
#271=CARTESIAN_POINT('Ctrl Pts',(6.10381939372498,26.7592600058127,31.8308815851451));
#272=CARTESIAN_POINT('Ctrl Pts',(2.03559165205259,29.9888815216991,38.7110321903956));
#273=CARTESIAN_POINT('Ctrl Pts',(2.03559165205259,29.9070017225206,35.4337813211671));
#274=CARTESIAN_POINT('Ctrl Pts',(2.03559165205259,28.907595683642,32.6282418023145));
#275=CARTESIAN_POINT('Ctrl Pts',(2.03559165205259,27.0688900103099,30.4379882961494));
#276=CARTESIAN_POINT('Ctrl Pts',(-2.03263608961979,29.993521002624,38.7070839266731));
#277=CARTESIAN_POINT('Ctrl Pts',(-2.03263608961979,29.9109720102484,35.4290467094975));
#278=CARTESIAN_POINT('Ctrl Pts',(-2.03263608961979,28.9103341520573,32.6226097505272));
#279=CARTESIAN_POINT('Ctrl Pts',(-2.03263608961979,27.0702119697223,30.4320413647569));
#280=CARTESIAN_POINT('Ctrl Pts',(-6.10086383129217,28.916138387573,39.6239517321809));
#281=CARTESIAN_POINT('Ctrl Pts',(-6.10086383129217,28.9889897790528,36.5285206343742));
#282=CARTESIAN_POINT('Ctrl Pts',(-6.10086383129217,28.2744056268064,33.9304876750044));
#283=CARTESIAN_POINT('Ctrl Pts',(-6.10086383129217,26.7632258840497,31.8130407909676));
#284=CARTESIAN_POINT('',(6.10381939372497,26.7592600058127,31.8308815851451));
#285=CARTESIAN_POINT('',(0.,29.7206970455072,38.9392359677105));
#286=CARTESIAN_POINT('Ctrl Pts',(6.10381939372497,26.7592600058127,31.8308815851451));
#287=CARTESIAN_POINT('Ctrl Pts',(6.07973720424674,27.3367896040987,32.6312094537116));
#288=CARTESIAN_POINT('Ctrl Pts',(5.90069862972974,27.8293939252782,33.4825479237147));
#289=CARTESIAN_POINT('Ctrl Pts',(5.26404648551532,28.6228657139236,35.1754449581299));
#290=CARTESIAN_POINT('Ctrl Pts',(4.81051855680295,28.9162879838852,35.9940352109347));
#291=CARTESIAN_POINT('Ctrl Pts',(3.72395343851104,29.3342814925036,37.3400941782392));
#292=CARTESIAN_POINT('Ctrl Pts',(3.09570347347852,29.4782411291324,37.9065613753548));
#293=CARTESIAN_POINT('Ctrl Pts',(1.97975618290244,29.6262801703979,38.52357158348));
#294=CARTESIAN_POINT('Ctrl Pts',(1.57343172683777,29.6636260237044,38.6884648545622));
#295=CARTESIAN_POINT('Ctrl Pts',(0.850617248196487,29.7048927622741,38.8712101432556));
#296=CARTESIAN_POINT('Ctrl Pts',(0.547488437306076,29.7152702007595,38.9175058917107));
#297=CARTESIAN_POINT('Ctrl Pts',(0.160556974233073,29.7200712245073,38.9373305427761));
#298=CARTESIAN_POINT('Ctrl Pts',(0.0802508447433311,29.7206110301998,38.9393345339575));
#299=CARTESIAN_POINT('Ctrl Pts',(-5.16886312695108E-16,29.7206970455072,
38.9392359677105));
#300=CARTESIAN_POINT('',(-6.10086383129217,26.7632258840497,31.8130407909676));
#301=CARTESIAN_POINT('Ctrl Pts',(6.10381939372497,26.7592600058127,31.8308815851451));
#302=CARTESIAN_POINT('Ctrl Pts',(0.00147778121640019,27.2237050125586,29.7415416516515));
#303=CARTESIAN_POINT('Ctrl Pts',(-6.10086383129217,26.7632258840497,31.8130407909676));
#304=CARTESIAN_POINT('Ctrl Pts',(-1.73472347597681E-16,29.7206970455072,
38.9392359677105));
#305=CARTESIAN_POINT('Ctrl Pts',(-0.206115084648675,29.7209179659525,38.9389828116171));
#306=CARTESIAN_POINT('Ctrl Pts',(-0.411865467917036,29.7181528396784,38.9248582342811));
#307=CARTESIAN_POINT('Ctrl Pts',(-0.95779350121483,29.7027440236531,38.8505799402928));
#308=CARTESIAN_POINT('Ctrl Pts',(-1.29139600863201,29.6848993619971,38.766595367404));
#309=CARTESIAN_POINT('Ctrl Pts',(-2.15957396978129,29.6146304649884,38.4499560903775));
#310=CARTESIAN_POINT('Ctrl Pts',(-2.66266278648122,29.5479502007519,38.1591117090499));
#311=CARTESIAN_POINT('Ctrl Pts',(-3.82545027310987,29.31564406304,37.2514778120883));
#312=CARTESIAN_POINT('Ctrl Pts',(-4.40554733121114,29.1169137917503,36.5516207370316));
#313=CARTESIAN_POINT('Ctrl Pts',(-5.36291353569716,28.5479046744468,34.9726207618046));
#314=CARTESIAN_POINT('Ctrl Pts',(-5.73907434806805,28.1426115558283,34.0351754923079));
#315=CARTESIAN_POINT('Ctrl Pts',(-6.03468366549445,27.3409850893174,32.655755851428));
#316=CARTESIAN_POINT('Ctrl Pts',(-6.08882482075401,27.0630522598038,32.2277942256759));
#317=CARTESIAN_POINT('Ctrl Pts',(-6.10086383129217,26.7632258840497,31.8130407909676));
#318=CARTESIAN_POINT('Ctrl Pts',(-5.84349346717339,29.8319016548207,38.4476038634313));
#319=CARTESIAN_POINT('Ctrl Pts',(-5.84349346717339,29.7063042284928,35.3617234765827));
#320=CARTESIAN_POINT('Ctrl Pts',(-5.84349346717339,28.7500818288288,32.7178269385046));
#321=CARTESIAN_POINT('Ctrl Pts',(-5.84349346717339,27.0274312789307,30.6244934405786));
#322=CARTESIAN_POINT('Ctrl Pts',(-5.56630104161431,29.8971273533506,38.389741555801));
#323=CARTESIAN_POINT('Ctrl Pts',(-5.56630104161431,29.7618677495309,35.2929694105342));
#324=CARTESIAN_POINT('Ctrl Pts',(-5.56630104161431,28.7884663115748,32.6370392867858));
#325=CARTESIAN_POINT('Ctrl Pts',(-5.56630104161431,27.0463515873776,30.5393790450788));
#326=CARTESIAN_POINT('Ctrl Pts',(-5.08100820611341,30.003128468634,38.2957070068437));
#327=CARTESIAN_POINT('Ctrl Pts',(-5.08100820611341,29.8521664405661,35.1812341919674));
#328=CARTESIAN_POINT('Ctrl Pts',(-5.08100820611341,28.8508466014354,32.5057477655552));
#329=CARTESIAN_POINT('Ctrl Pts',(-5.08100820611341,27.0770998023002,30.4010559446291));
#330=CARTESIAN_POINT('Ctrl Pts',(-4.17864583884369,30.1735512851031,38.1445233835785));
#331=CARTESIAN_POINT('Ctrl Pts',(-4.17864583884369,29.9973437550551,35.0015923967277));
#332=CARTESIAN_POINT('Ctrl Pts',(-4.17864583884369,28.9511382319694,32.2946644126414));
#333=CARTESIAN_POINT('Ctrl Pts',(-4.17864583884369,27.1265351065845,30.1786676018429));
#334=CARTESIAN_POINT('Ctrl Pts',(-3.34450392015617,30.2994307060669,38.0328546097011));
#335=CARTESIAN_POINT('Ctrl Pts',(-3.34450392015617,30.104576088516,34.868903560607));
#336=CARTESIAN_POINT('Ctrl Pts',(-3.34450392015617,29.0252166484673,32.1387518958177));
#337=CARTESIAN_POINT('Ctrl Pts',(-3.34450392015617,27.1630495100394,30.0144048792861));
#338=CARTESIAN_POINT('Ctrl Pts',(-2.30037371830262,30.4173289295996,37.9282660283157));
#339=CARTESIAN_POINT('Ctrl Pts',(-2.30037371830262,30.2050095153899,34.744627662756));
#340=CARTESIAN_POINT('Ctrl Pts',(-2.30037371830262,29.0945982331643,31.9927247801916));
#341=CARTESIAN_POINT('Ctrl Pts',(-2.30037371830262,27.1972487720612,29.8605569902998));
#342=CARTESIAN_POINT('Ctrl Pts',(-1.46412033920329,30.4800073887075,37.8726633998358));
#343=CARTESIAN_POINT('Ctrl Pts',(-1.46412033920329,30.2584031310931,34.6785586283961));
#344=CARTESIAN_POINT('Ctrl Pts',(-1.46412033920329,29.1314836983475,31.9150921041328));
#345=CARTESIAN_POINT('Ctrl Pts',(-1.46412033920329,27.2154301914407,29.7787665414726));
#346=CARTESIAN_POINT('Ctrl Pts',(-0.418193007773171,30.5186718951805,37.8383637661279));
#347=CARTESIAN_POINT('Ctrl Pts',(-0.418193007773171,30.2913400894892,34.6378025753113));
#348=CARTESIAN_POINT('Ctrl Pts',(-0.418193007773171,29.1542372619742,31.8672027790168));
#349=CARTESIAN_POINT('Ctrl Pts',(-0.418193007773171,27.2266457767837,29.7283124080571));
#350=CARTESIAN_POINT('Ctrl Pts',(0.418787320305571,30.517828352113,37.8391120808194));
#351=CARTESIAN_POINT('Ctrl Pts',(0.418787320305571,30.2906215042684,34.6386917496258));
#352=CARTESIAN_POINT('Ctrl Pts',(0.418787320305571,29.1537408477533,31.8682475798404));
#353=CARTESIAN_POINT('Ctrl Pts',(0.418787320305571,27.2264010864946,29.7294131652722));
#354=CARTESIAN_POINT('Ctrl Pts',(1.46468987937098,30.4770568575456,37.8752808427396));
#355=CARTESIAN_POINT('Ctrl Pts',(1.46468987937098,30.2558896754463,34.6816687677883));
#356=CARTESIAN_POINT('Ctrl Pts',(1.46468987937098,29.1297473487947,31.9187465913865));
#357=CARTESIAN_POINT('Ctrl Pts',(1.46468987937098,27.2145743177449,29.7826167520783));
#358=CARTESIAN_POINT('Ctrl Pts',(2.30090414935713,30.4126958113761,37.9323761094337));
#359=CARTESIAN_POINT('Ctrl Pts',(2.30090414935713,30.2010627219069,34.7495114083276));
#360=CARTESIAN_POINT('Ctrl Pts',(2.30090414935713,29.0918717028164,31.9984632966023));
#361=CARTESIAN_POINT('Ctrl Pts',(2.30090414935713,27.1959048228535,29.8666028443997));
#362=CARTESIAN_POINT('Ctrl Pts',(3.34496373284891,30.2927013894864,38.0388242473577));
#363=CARTESIAN_POINT('Ctrl Pts',(3.34496373284891,30.0988436160118,34.8759968978508));
#364=CARTESIAN_POINT('Ctrl Pts',(3.34496373284891,29.0212565324088,32.1470867346383));
#365=CARTESIAN_POINT('Ctrl Pts',(3.34496373284891,27.161097507252,30.0231861070197));
#366=CARTESIAN_POINT('Ctrl Pts',(4.17903316785648,30.1651517749634,38.1519746650611));
#367=CARTESIAN_POINT('Ctrl Pts',(4.17903316785648,29.9901885023115,35.0104462762251));
#368=CARTESIAN_POINT('Ctrl Pts',(4.17903316785648,28.9461952285321,32.3050679301977));
#369=CARTESIAN_POINT('Ctrl Pts',(4.17903316785648,27.1240986233236,30.1896283005269));
#370=CARTESIAN_POINT('Ctrl Pts',(5.08453637233564,29.9923108673585,38.305303398863));
#371=CARTESIAN_POINT('Ctrl Pts',(5.08453637233564,29.8429512994546,35.1926369686236));
#372=CARTESIAN_POINT('Ctrl Pts',(5.08453637233564,28.8444805825369,32.5191462974832));
#373=CARTESIAN_POINT('Ctrl Pts',(5.08453637233564,27.0739618925898,30.4151720616516));
#374=CARTESIAN_POINT('Ctrl Pts',(5.57299746959778,29.8845370670372,38.4009105127649));
#375=CARTESIAN_POINT('Ctrl Pts',(5.57299746959778,29.7511425192273,35.3062407651731));
#376=CARTESIAN_POINT('Ctrl Pts',(5.57299746959778,28.7810570903836,32.6526334419831));
#377=CARTESIAN_POINT('Ctrl Pts',(5.57299746959778,27.0426994670347,30.5558083763529));
#378=CARTESIAN_POINT('Ctrl Pts',(5.8533758463705,29.8178863871831,38.4600369342277));
#379=CARTESIAN_POINT('Ctrl Pts',(5.8533758463705,29.6943651057884,35.3764968965469));
#380=CARTESIAN_POINT('Ctrl Pts',(5.8533758463705,28.741834024498,32.7351860559409));
#381=CARTESIAN_POINT('Ctrl Pts',(5.8533758463705,27.0233658079179,30.6427822601639));
#382=CARTESIAN_POINT('',(0.,30.5155991228187,37.8410382148794));
#383=CARTESIAN_POINT('',(5.82131356693333,27.0255706215662,30.6328637442266));
#384=CARTESIAN_POINT('Ctrl Pts',(-8.10966374043415E-16,30.5155991228187,
37.8410382148794));
#385=CARTESIAN_POINT('Ctrl Pts',(0.0698144899107973,30.5155330618712,37.8411485790186));
#386=CARTESIAN_POINT('Ctrl Pts',(0.139682155701732,30.5150325661259,37.8395497284745));
#387=CARTESIAN_POINT('Ctrl Pts',(0.498709270045008,30.5102149096267,37.8225168596268));
#388=CARTESIAN_POINT('Ctrl Pts',(0.784467411915607,30.4989430287205,37.7795851466787));
#389=CARTESIAN_POINT('Ctrl Pts',(1.48811931634499,30.4521221178657,37.6029055318228));
#390=CARTESIAN_POINT('Ctrl Pts',(1.89068875245805,30.4077167224751,37.436058811864));
#391=CARTESIAN_POINT('Ctrl Pts',(2.92883782148863,30.2407053452356,36.8461117511116));
#392=CARTESIAN_POINT('Ctrl Pts',(3.49766564725595,30.0864044223716,36.333289444273));
#393=CARTESIAN_POINT('Ctrl Pts',(4.59732978384813,29.610199496647,35.0014997884869));
#394=CARTESIAN_POINT('Ctrl Pts',(5.09018365353696,29.2350085582432,34.0965778768992));
#395=CARTESIAN_POINT('Ctrl Pts',(5.70967383054699,28.248431355022,32.292798240149));
#396=CARTESIAN_POINT('Ctrl Pts',(5.8533770647989,27.6726846415097,31.4325056623713));
#397=CARTESIAN_POINT('Ctrl Pts',(5.82131356693334,27.0255706215662,30.6328637442266));
#398=CARTESIAN_POINT('',(-5.81609079710996,27.0292972754824,30.6160991182056));
#399=CARTESIAN_POINT('Ctrl Pts',(-5.81609079710996,27.0292972754824,30.6160991182056));
#400=CARTESIAN_POINT('Ctrl Pts',(-5.84349435218521,27.5702178857137,31.2834529908428));
#401=CARTESIAN_POINT('Ctrl Pts',(-5.74783452510051,28.0621431161362,31.992246422337));
#402=CARTESIAN_POINT('Ctrl Pts',(-5.34073487322685,28.9040462930192,33.4282869094433));
#403=CARTESIAN_POINT('Ctrl Pts',(-5.03063985489783,29.2550528008726,34.1547833922947));
#404=CARTESIAN_POINT('Ctrl Pts',(-4.23730291937814,29.7938479276948,35.4560592628482));
#405=CARTESIAN_POINT('Ctrl Pts',(-3.76998946713162,29.9969757618057,36.0435916318678));
#406=CARTESIAN_POINT('Ctrl Pts',(-2.72504092724354,30.2841049245103,36.9630763504458));
#407=CARTESIAN_POINT('Ctrl Pts',(-2.17366662009532,30.380589027827,37.3165630873216));
#408=CARTESIAN_POINT('Ctrl Pts',(-1.24957843135502,30.4727421607983,37.6671163568568));
#409=CARTESIAN_POINT('Ctrl Pts',(-0.925040778151932,30.4941405247927,37.7521901151844));
#410=CARTESIAN_POINT('Ctrl Pts',(-0.39567587464589,30.512487151231,37.8266544915385));
#411=CARTESIAN_POINT('Ctrl Pts',(-0.19805191296516,30.5157865265661,37.8407251304619));
#412=CARTESIAN_POINT('Ctrl Pts',(2.42861286636753E-16,30.5155991228187,
37.8410382148794));
#413=CARTESIAN_POINT('Ctrl Pts',(-5.81609079710996,27.0292972754824,30.6160991182056));
#414=CARTESIAN_POINT('Ctrl Pts',(-5.54801497614737,27.0475087152631,30.5341736204017));
#415=CARTESIAN_POINT('Ctrl Pts',(-5.07185096801027,27.0776014753181,30.3987991317565));
#416=CARTESIAN_POINT('Ctrl Pts',(-4.17864583884369,27.1265351065845,30.1786676018429));
#417=CARTESIAN_POINT('Ctrl Pts',(-3.34450392015617,27.1630495100394,30.0144048792861));
#418=CARTESIAN_POINT('Ctrl Pts',(-2.30037371830262,27.1972487720612,29.8605569902998));
#419=CARTESIAN_POINT('Ctrl Pts',(-1.46412033920329,27.2154301914407,29.7787665414726));
#420=CARTESIAN_POINT('Ctrl Pts',(-0.41819300777317,27.2266457767837,29.7283124080571));
#421=CARTESIAN_POINT('Ctrl Pts',(0.418787320305572,27.2264010864947,29.7294131652722));
#422=CARTESIAN_POINT('Ctrl Pts',(1.46468987937098,27.2145743177449,29.7826167520783));
#423=CARTESIAN_POINT('Ctrl Pts',(2.30090414935713,27.1959048228535,29.8666028443997));
#424=CARTESIAN_POINT('Ctrl Pts',(3.34496373284891,27.161097507252,30.0231861070197));
#425=CARTESIAN_POINT('Ctrl Pts',(4.17903316785648,27.1240986233237,30.1896283005269));
#426=CARTESIAN_POINT('Ctrl Pts',(5.073821670532,27.0745551540124,30.4125032316219));
#427=CARTESIAN_POINT('Ctrl Pts',(5.55160170059042,27.0440668105284,30.5496572813411));
#428=CARTESIAN_POINT('Ctrl Pts',(5.82131356693333,27.0255706215662,30.6328637442266));
#429=CARTESIAN_POINT('Origin',(-5.55111512312578E-16,26.9912480660509,30.7872662780382));
#430=CARTESIAN_POINT('Ctrl Pts',(5.82131356693333,27.0255706215662,30.6328637442266));
#431=CARTESIAN_POINT('Ctrl Pts',(5.82563657613194,27.0224750136936,30.6467895633282));
#432=CARTESIAN_POINT('Ctrl Pts',(5.82992437265152,27.0193772135547,30.6607252445008));
#433=CARTESIAN_POINT('Ctrl Pts',(5.94967694106822,26.9320834584347,31.053422605583));
#434=CARTESIAN_POINT('Ctrl Pts',(6.03947775825428,26.8461300450276,31.4400903411447));
#435=CARTESIAN_POINT('Ctrl Pts',(6.10381939372497,26.7592600058127,31.8308815851451));
#436=CARTESIAN_POINT('Ctrl Pts',(-6.10086383129217,26.7632258840497,31.8130407909676));
#437=CARTESIAN_POINT('Ctrl Pts',(-6.03669169946557,26.8488078299189,31.4280441293752));
#438=CARTESIAN_POINT('Ctrl Pts',(-5.94779072165368,26.9334871307752,31.0471080825888));
#439=CARTESIAN_POINT('Ctrl Pts',(-5.82805116597186,27.0207411742059,30.6545893674543));
#440=CARTESIAN_POINT('Ctrl Pts',(-5.82210461886686,27.0250213394602,30.6353347300744));
#441=CARTESIAN_POINT('Ctrl Pts',(-5.81609079710996,27.0292972754824,30.6160991182056));
#442=CARTESIAN_POINT('Ctrl Pts',(0.,28.28693442471,25.8253410298709));
#443=CARTESIAN_POINT('Ctrl Pts',(2.78693442470996,28.28693442471,25.8253410298709));
#444=CARTESIAN_POINT('Ctrl Pts',(2.78693442470996,25.5,25.8253410298709));
#445=CARTESIAN_POINT('Ctrl Pts',(2.78693442470996,22.71306557529,25.8253410298709));
#446=CARTESIAN_POINT('Ctrl Pts',(0.,22.71306557529,25.8253410298709));
#447=CARTESIAN_POINT('Ctrl Pts',(-2.78693442470996,22.71306557529,25.8253410298709));
#448=CARTESIAN_POINT('Ctrl Pts',(-2.78693442470996,25.5,25.8253410298709));
#449=CARTESIAN_POINT('Ctrl Pts',(-2.78693442470996,28.28693442471,25.8253410298709));
#450=CARTESIAN_POINT('Ctrl Pts',(0.,28.28693442471,25.8253410298709));
#451=CARTESIAN_POINT('Ctrl Pts',(0.,31.905032113971,28.0915745089733));
#452=CARTESIAN_POINT('Ctrl Pts',(6.40503211397101,31.905032113971,28.0915745089733));
#453=CARTESIAN_POINT('Ctrl Pts',(6.40503211397101,25.5,28.0915745089733));
#454=CARTESIAN_POINT('Ctrl Pts',(6.40503211397101,19.094967886029,28.0915745089733));
#455=CARTESIAN_POINT('Ctrl Pts',(0.,19.094967886029,28.0915745089733));
#456=CARTESIAN_POINT('Ctrl Pts',(-6.40503211397101,19.094967886029,28.0915745089733));
#457=CARTESIAN_POINT('Ctrl Pts',(-6.40503211397101,25.5,28.0915745089733));
#458=CARTESIAN_POINT('Ctrl Pts',(-6.40503211397101,31.905032113971,28.0915745089733));
#459=CARTESIAN_POINT('Ctrl Pts',(0.,31.905032113971,28.0915745089733));
#460=CARTESIAN_POINT('Ctrl Pts',(0.,31.7977730134433,33.2126939441168));
#461=CARTESIAN_POINT('Ctrl Pts',(6.29777301344335,31.7977730134433,33.2126939441168));
#462=CARTESIAN_POINT('Ctrl Pts',(6.29777301344335,25.5,33.2126939441168));
#463=CARTESIAN_POINT('Ctrl Pts',(6.29777301344335,19.2022269865567,33.2126939441168));
#464=CARTESIAN_POINT('Ctrl Pts',(0.,19.2022269865567,33.2126939441168));
#465=CARTESIAN_POINT('Ctrl Pts',(-6.29777301344335,19.2022269865567,33.2126939441168));
#466=CARTESIAN_POINT('Ctrl Pts',(-6.29777301344335,25.5,33.2126939441168));
#467=CARTESIAN_POINT('Ctrl Pts',(-6.29777301344335,31.7977730134433,33.2126939441168));
#468=CARTESIAN_POINT('Ctrl Pts',(0.,31.7977730134433,33.2126939441168));
#469=CARTESIAN_POINT('Ctrl Pts',(0.,31.6905139129157,38.3338133792603));
#470=CARTESIAN_POINT('Ctrl Pts',(6.19051391291568,31.6905139129157,38.3338133792603));
#471=CARTESIAN_POINT('Ctrl Pts',(6.19051391291568,25.5,38.3338133792603));
#472=CARTESIAN_POINT('Ctrl Pts',(6.19051391291568,19.3094860870843,38.3338133792603));
#473=CARTESIAN_POINT('Ctrl Pts',(0.,19.3094860870843,38.3338133792603));
#474=CARTESIAN_POINT('Ctrl Pts',(-6.19051391291568,19.3094860870843,38.3338133792603));
#475=CARTESIAN_POINT('Ctrl Pts',(-6.19051391291568,25.5,38.3338133792603));
#476=CARTESIAN_POINT('Ctrl Pts',(-6.19051391291568,31.6905139129157,38.3338133792603));
#477=CARTESIAN_POINT('Ctrl Pts',(0.,31.6905139129157,38.3338133792603));
#478=CARTESIAN_POINT('Ctrl Pts',(0.,27.9826681756,40.3526286363262));
#479=CARTESIAN_POINT('Ctrl Pts',(2.48266817560002,27.9826681756,40.3526286363262));
#480=CARTESIAN_POINT('Ctrl Pts',(2.48266817560002,25.5,40.3526286363262));
#481=CARTESIAN_POINT('Ctrl Pts',(2.48266817560002,23.0173318244,40.3526286363262));
#482=CARTESIAN_POINT('Ctrl Pts',(0.,23.0173318244,40.3526286363262));
#483=CARTESIAN_POINT('Ctrl Pts',(-2.48266817560002,23.0173318244,40.3526286363262));
#484=CARTESIAN_POINT('Ctrl Pts',(-2.48266817560002,25.5,40.3526286363262));
#485=CARTESIAN_POINT('Ctrl Pts',(-2.48266817560002,27.9826681756,40.3526286363262));
#486=CARTESIAN_POINT('Ctrl Pts',(0.,27.9826681756,40.3526286363262));
#487=CARTESIAN_POINT('',(0.,28.28693442471,25.8253410298709));
#488=CARTESIAN_POINT('Origin',(0.,25.5,33.));
#489=CARTESIAN_POINT('Origin',(0.,25.5,25.8253410298709));
#490=CARTESIAN_POINT('',(0.,27.9826681756,40.3526286363262));
#491=CARTESIAN_POINT('Origin',(0.,25.5,33.));
#492=CARTESIAN_POINT('Origin',(0.,25.5,40.3526286363262));
#493=CARTESIAN_POINT('Ctrl Pts',(-1.38777878078145E-15,31.9821104851432,
22.4446670068631));
#494=CARTESIAN_POINT('Ctrl Pts',(0.969678125686273,31.9821104851432,22.4446670068631));
#495=CARTESIAN_POINT('Ctrl Pts',(2.90812375149908,31.5405719245525,22.4446670068632));
#496=CARTESIAN_POINT('Ctrl Pts',(5.24207494053302,29.6781718361783,22.4446670068631));
#497=CARTESIAN_POINT('Ctrl Pts',(6.53390096620212,26.994067019294,22.4446670068632));
#498=CARTESIAN_POINT('Ctrl Pts',(6.53938639730611,23.6710844201161,22.4446670068631));
#499=CARTESIAN_POINT('Ctrl Pts',(5.01797369806098,21.0488185747447,22.4446670068632));
#500=CARTESIAN_POINT('Ctrl Pts',(1.77325218767135,18.8202072496758,22.4446670068632));
#501=CARTESIAN_POINT('Ctrl Pts',(-1.33087045800148,18.8106799595608,22.4446670068632));
#502=CARTESIAN_POINT('Ctrl Pts',(-3.88106949567514,20.2384936797947,22.4446670068632));
#503=CARTESIAN_POINT('Ctrl Pts',(-5.34874029775708,21.5411529776068,22.4446670068631));
#504=CARTESIAN_POINT('Ctrl Pts',(-6.53579254387528,24.0101330525642,22.4446670068632));
#505=CARTESIAN_POINT('Ctrl Pts',(-6.53527567577992,26.9910452914894,22.4446670068631));
#506=CARTESIAN_POINT('Ctrl Pts',(-5.2417132727612,29.680301633401,22.4446670068632));
#507=CARTESIAN_POINT('Ctrl Pts',(-2.90822242396182,31.5396814565574,22.4446670068632));
#508=CARTESIAN_POINT('Ctrl Pts',(-0.969678125686272,31.9821104851432,22.4446670068632));
#509=CARTESIAN_POINT('Ctrl Pts',(-9.71445146547012E-16,31.9821104851432,
22.4446670068632));
#510=CARTESIAN_POINT('Ctrl Pts',(-1.38765176273074E-15,32.0612486124026,
22.3735801552648));
#511=CARTESIAN_POINT('Ctrl Pts',(0.981541775727614,32.0612486124026,22.3735801552648));
#512=CARTESIAN_POINT('Ctrl Pts',(2.94362877419526,31.6143365236742,22.3735801552648));
#513=CARTESIAN_POINT('Ctrl Pts',(5.30609493464342,29.729195057611,22.3735801552648));
#514=CARTESIAN_POINT('Ctrl Pts',(6.6136855759168,27.0123233217009,22.3735801552648));
#515=CARTESIAN_POINT('Ctrl Pts',(6.61924569381533,23.6487470708652,22.3735801552648));
#516=CARTESIAN_POINT('Ctrl Pts',(5.07926277360336,20.9944761900541,22.3735801552648));
#517=CARTESIAN_POINT('Ctrl Pts',(1.79489057755819,18.7386277998455,22.3735801552648));
#518=CARTESIAN_POINT('Ctrl Pts',(-1.34709752324079,18.7289913694718,22.3735801552648));
#519=CARTESIAN_POINT('Ctrl Pts',(-3.92847442446279,20.1742531610565,22.3735801552648));
#520=CARTESIAN_POINT('Ctrl Pts',(-5.41407403801189,21.4928321732707,22.3735801552648));
#521=CARTESIAN_POINT('Ctrl Pts',(-6.6156085336593,23.9919369254405,22.3735801552648));
#522=CARTESIAN_POINT('Ctrl Pts',(-6.61508150799546,27.0092451655387,22.3735801552648));
#523=CARTESIAN_POINT('Ctrl Pts',(-5.30572122761526,29.731361074313,22.3735801552648));
#524=CARTESIAN_POINT('Ctrl Pts',(-2.94373108588313,31.6134302938956,22.3735801552648));
#525=CARTESIAN_POINT('Ctrl Pts',(-0.981541775727604,32.0612486124026,22.3735801552648));
#526=CARTESIAN_POINT('Ctrl Pts',(-9.89233153476355E-16,32.0612486124026,
22.3735801552648));
#527=CARTESIAN_POINT('Ctrl Pts',(-1.37398546668275E-15,32.180257503971,
22.1887274649634));
#528=CARTESIAN_POINT('Ctrl Pts',(0.999371437693242,32.180257503971,22.1887274649634));
#529=CARTESIAN_POINT('Ctrl Pts',(2.99702139329025,31.7252571357103,22.1887274649634));
#530=CARTESIAN_POINT('Ctrl Pts',(5.40235973151971,29.8059186172542,22.1887274649634));
#531=CARTESIAN_POINT('Ctrl Pts',(6.73366042521388,27.0397704843427,22.1887274649634));
#532=CARTESIAN_POINT('Ctrl Pts',(6.73932946927739,23.6151596977816,22.1887274649634));
#533=CARTESIAN_POINT('Ctrl Pts',(5.17141855689566,20.9127551153286,22.1887274649634));
#534=CARTESIAN_POINT('Ctrl Pts',(1.82743535824938,18.6159598602901,22.1887274649634));
#535=CARTESIAN_POINT('Ctrl Pts',(-1.37150926296473,18.6061561523885,22.1887274649634));
#536=CARTESIAN_POINT('Ctrl Pts',(-3.99975282510552,20.0776493997398,22.1887274649634));
#537=CARTESIAN_POINT('Ctrl Pts',(-5.51230941198326,21.420161674519,22.1887274649634));
#538=CARTESIAN_POINT('Ctrl Pts',(-6.73562693382474,23.9645763477286,22.1887274649634));
#539=CARTESIAN_POINT('Ctrl Pts',(-6.73508632257527,27.0366160499748,22.1887274649634));
#540=CARTESIAN_POINT('Ctrl Pts',(-5.40197126760038,29.8081346143857,22.1887274649634));
#541=CARTESIAN_POINT('Ctrl Pts',(-2.99712810857858,31.7243293507009,22.1887274649634));
#542=CARTESIAN_POINT('Ctrl Pts',(-0.999371437693228,32.180257503971,22.1887274649634));
#543=CARTESIAN_POINT('Ctrl Pts',(-9.57627994472893E-16,32.180257503971,
22.1887274649634));
#544=CARTESIAN_POINT('Ctrl Pts',(-1.30981168893035E-15,32.1968653253885,
21.8027330057869));
#545=CARTESIAN_POINT('Ctrl Pts',(1.00180667362004,32.1968653253885,21.8027330057869));
#546=CARTESIAN_POINT('Ctrl Pts',(3.0044710892223,31.7407002786372,21.8027330057869));
#547=CARTESIAN_POINT('Ctrl Pts',(5.41574921454288,29.8165977273698,21.8027330057869));
#548=CARTESIAN_POINT('Ctrl Pts',(6.75037318839049,27.043567746958,21.8027330057869));
#549=CARTESIAN_POINT('Ctrl Pts',(6.75604119328012,23.6104907927831,21.8027330057869));
#550=CARTESIAN_POINT('Ctrl Pts',(5.18422396176672,20.9013492846466,21.8027330057869));
#551=CARTESIAN_POINT('Ctrl Pts',(1.8319995571153,18.5989000868163,21.8027330057869));
#552=CARTESIAN_POINT('Ctrl Pts',(-1.37496041545348,18.5890579343246,21.8027330057869));
#553=CARTESIAN_POINT('Ctrl Pts',(-4.0096532431901,20.0641774537831,21.8027330057869));
#554=CARTESIAN_POINT('Ctrl Pts',(-5.52594968742876,21.4099960943383,21.8027330057869));
#555=CARTESIAN_POINT('Ctrl Pts',(-6.75232833603461,23.9607724426914,21.8027330057869));
#556=CARTESIAN_POINT('Ctrl Pts',(-6.75179392544852,27.0404437831943,21.8027330057869));
#557=CARTESIAN_POINT('Ctrl Pts',(-5.41537473537818,29.8187991969015,21.8027330057869));
#558=CARTESIAN_POINT('Ctrl Pts',(-3.00457329553743,31.7397797771944,21.8027330057869));
#559=CARTESIAN_POINT('Ctrl Pts',(-1.00180667362001,32.1968653253885,21.8027330057869));
#560=CARTESIAN_POINT('Ctrl Pts',(-6.83570600265992E-16,32.1968653253885,
21.8027330057869));
#561=CARTESIAN_POINT('Ctrl Pts',(-1.24382573780139E-15,32.0300057605684,
21.5693540763728));
#562=CARTESIAN_POINT('Ctrl Pts',(0.97699631511954,32.0300057605684,21.5693540763728));
#563=CARTESIAN_POINT('Ctrl Pts',(2.92961518814639,31.5853089609455,21.5693540763728));
#564=CARTESIAN_POINT('Ctrl Pts',(5.28093643399225,29.7091241154649,21.5693540763728));
#565=CARTESIAN_POINT('Ctrl Pts',(6.58226547271679,27.0052021623209,21.5693540763728));
#566=CARTESIAN_POINT('Ctrl Pts',(6.58783851391447,23.6575179504599,21.5693540763728));
#567=CARTESIAN_POINT('Ctrl Pts',(5.05521024870585,21.0159340455875,21.5693540763728));
#568=CARTESIAN_POINT('Ctrl Pts',(1.78628912393356,18.7706812429156,21.5693540763728));
#569=CARTESIAN_POINT('Ctrl Pts',(-1.34057513671803,18.7611273340495,21.5693540763728));
#570=CARTESIAN_POINT('Ctrl Pts',(-3.90988107497606,20.1995905390376,21.5693540763728));
#571=CARTESIAN_POINT('Ctrl Pts',(-5.38846009049492,21.5119722302175,21.5693540763728));
#572=CARTESIAN_POINT('Ctrl Pts',(-6.58422158077947,23.9990832277232,21.5693540763728));
#573=CARTESIAN_POINT('Ctrl Pts',(-6.58367742197031,27.0020389153373,21.5693540763728));
#574=CARTESIAN_POINT('Ctrl Pts',(-5.2805255825411,29.7113319843308,21.5693540763728));
#575=CARTESIAN_POINT('Ctrl Pts',(-2.92972944256601,31.5843820783041,21.5693540763728));
#576=CARTESIAN_POINT('Ctrl Pts',(-0.976996315119507,32.0300057605684,21.5693540763728));
#577=CARTESIAN_POINT('Ctrl Pts',(-3.59152087289838E-16,32.0300057605684,
21.5693540763728));
#578=CARTESIAN_POINT('Ctrl Pts',(-1.20852290754608E-15,31.8938158997144,
21.4862052036972));
#579=CARTESIAN_POINT('Ctrl Pts',(0.956469876875486,31.8938158997144,21.4862052036972));
#580=CARTESIAN_POINT('Ctrl Pts',(2.86851140894445,31.458291655641,21.4862052036972));
#581=CARTESIAN_POINT('Ctrl Pts',(5.17067121566252,29.621259824115,21.4862052036972));
#582=CARTESIAN_POINT('Ctrl Pts',(6.4449009285807,26.9737159271036,21.4862052036972));
#583=CARTESIAN_POINT('Ctrl Pts',(6.45031164113949,23.6959965753903,21.4862052036972));
#584=CARTESIAN_POINT('Ctrl Pts',(4.94962251700989,21.1094493244847,21.4862052036972));
#585=CARTESIAN_POINT('Ctrl Pts',(1.74909823856324,18.9111945188672,21.4862052036972));
#586=CARTESIAN_POINT('Ctrl Pts',(-1.31274231044552,18.9017970025555,21.4862052036972));
#587=CARTESIAN_POINT('Ctrl Pts',(-3.8282043951918,20.3101620847592,21.4862052036972));
#588=CARTESIAN_POINT('Ctrl Pts',(-5.27588365511894,21.5950775068816,21.4862052036972));
#589=CARTESIAN_POINT('Ctrl Pts',(-6.4467667405612,24.0304269344363,21.4862052036972));
#590=CARTESIAN_POINT('Ctrl Pts',(-6.44625691286639,26.9707353590732,21.4862052036972));
#591=CARTESIAN_POINT('Ctrl Pts',(-5.17031447426553,29.623360610792,21.4862052036972));
#592=CARTESIAN_POINT('Ctrl Pts',(-2.86860873736282,31.457413316952,21.4862052036972));
#593=CARTESIAN_POINT('Ctrl Pts',(-0.956469876875454,31.8938158997144,21.4862052036972));
#594=CARTESIAN_POINT('Ctrl Pts',(-1.74714278519935E-16,31.8938158997144,
21.4862052036972));
#595=CARTESIAN_POINT('',(-2.08166817117217E-16,31.8938158997144,21.4862052036972));
#596=CARTESIAN_POINT('',(-4.85722573273506E-16,31.9821104851432,22.4446670068631));
#597=CARTESIAN_POINT('Origin',(-1.2490009027033E-15,31.58116019071,21.9983052013803));
#598=CARTESIAN_POINT('Ctrl Pts',(-1.38777878078145E-15,31.9821104851432,
22.4446670068631));
#599=CARTESIAN_POINT('Ctrl Pts',(0.969678125686273,31.9821104851432,22.4446670068631));
#600=CARTESIAN_POINT('Ctrl Pts',(2.90812375149908,31.5405719245525,22.4446670068632));
#601=CARTESIAN_POINT('Ctrl Pts',(5.24207494053302,29.6781718361783,22.4446670068631));
#602=CARTESIAN_POINT('Ctrl Pts',(6.53390096620212,26.994067019294,22.4446670068632));
#603=CARTESIAN_POINT('Ctrl Pts',(6.53938639730611,23.6710844201161,22.4446670068631));
#604=CARTESIAN_POINT('Ctrl Pts',(5.01797369806098,21.0488185747447,22.4446670068632));
#605=CARTESIAN_POINT('Ctrl Pts',(1.77325218767135,18.8202072496758,22.4446670068632));
#606=CARTESIAN_POINT('Ctrl Pts',(-1.33087045800148,18.8106799595608,22.4446670068632));
#607=CARTESIAN_POINT('Ctrl Pts',(-3.88106949567514,20.2384936797947,22.4446670068632));
#608=CARTESIAN_POINT('Ctrl Pts',(-5.34874029775708,21.5411529776068,22.4446670068631));
#609=CARTESIAN_POINT('Ctrl Pts',(-6.53579254387528,24.0101330525642,22.4446670068632));
#610=CARTESIAN_POINT('Ctrl Pts',(-6.53527567577992,26.9910452914894,22.4446670068631));
#611=CARTESIAN_POINT('Ctrl Pts',(-5.2417132727612,29.680301633401,22.4446670068632));
#612=CARTESIAN_POINT('Ctrl Pts',(-2.90822242396182,31.5396814565574,22.4446670068632));
#613=CARTESIAN_POINT('Ctrl Pts',(-0.969678125686272,31.9821104851432,22.4446670068632));
#614=CARTESIAN_POINT('Ctrl Pts',(-9.71445146547012E-16,31.9821104851432,
22.4446670068632));
#615=CARTESIAN_POINT('Ctrl Pts',(-1.74714278519935E-16,31.8938158997144,
21.4862052036972));
#616=CARTESIAN_POINT('Ctrl Pts',(-0.956469876875454,31.8938158997144,21.4862052036972));
#617=CARTESIAN_POINT('Ctrl Pts',(-2.86860873736282,31.457413316952,21.4862052036972));
#618=CARTESIAN_POINT('Ctrl Pts',(-5.17031447426553,29.623360610792,21.4862052036972));
#619=CARTESIAN_POINT('Ctrl Pts',(-6.44625691286639,26.9707353590732,21.4862052036972));
#620=CARTESIAN_POINT('Ctrl Pts',(-6.4467667405612,24.0304269344363,21.4862052036972));
#621=CARTESIAN_POINT('Ctrl Pts',(-5.27588365511894,21.5950775068816,21.4862052036972));
#622=CARTESIAN_POINT('Ctrl Pts',(-3.8282043951918,20.3101620847592,21.4862052036972));
#623=CARTESIAN_POINT('Ctrl Pts',(-1.31274231044552,18.9017970025555,21.4862052036972));
#624=CARTESIAN_POINT('Ctrl Pts',(1.74909823856324,18.9111945188672,21.4862052036972));
#625=CARTESIAN_POINT('Ctrl Pts',(4.94962251700989,21.1094493244847,21.4862052036972));
#626=CARTESIAN_POINT('Ctrl Pts',(6.45031164113949,23.6959965753903,21.4862052036972));
#627=CARTESIAN_POINT('Ctrl Pts',(6.4449009285807,26.9737159271036,21.4862052036972));
#628=CARTESIAN_POINT('Ctrl Pts',(5.17067121566252,29.621259824115,21.4862052036972));
#629=CARTESIAN_POINT('Ctrl Pts',(2.86851140894445,31.458291655641,21.4862052036972));
#630=CARTESIAN_POINT('Ctrl Pts',(0.956469876875486,31.8938158997144,21.4862052036972));
#631=CARTESIAN_POINT('Ctrl Pts',(-1.20852290754608E-15,31.8938158997144,
21.4862052036972));
#632=CARTESIAN_POINT('Ctrl Pts',(0.,32.25,21.8));
#633=CARTESIAN_POINT('Ctrl Pts',(6.75,32.25,21.8));
#634=CARTESIAN_POINT('Ctrl Pts',(6.75,25.5,21.8));
#635=CARTESIAN_POINT('Ctrl Pts',(6.75,18.75,21.8));
#636=CARTESIAN_POINT('Ctrl Pts',(0.,18.75,21.8));
#637=CARTESIAN_POINT('Ctrl Pts',(-6.75,18.75,21.8));
#638=CARTESIAN_POINT('Ctrl Pts',(-6.75,25.5,21.8));
#639=CARTESIAN_POINT('Ctrl Pts',(-6.75,32.25,21.8));
#640=CARTESIAN_POINT('Ctrl Pts',(0.,32.25,21.8));
#641=CARTESIAN_POINT('Ctrl Pts',(0.,32.4346669787147,22.738666647888));
#642=CARTESIAN_POINT('Ctrl Pts',(6.93466697871472,32.4346669787147,22.738666647888));
#643=CARTESIAN_POINT('Ctrl Pts',(6.93466697871473,25.5,22.738666647888));
#644=CARTESIAN_POINT('Ctrl Pts',(6.93466697871472,18.5653330212853,22.738666647888));
#645=CARTESIAN_POINT('Ctrl Pts',(0.,18.5653330212853,22.738666647888));
#646=CARTESIAN_POINT('Ctrl Pts',(-6.93466697871472,18.5653330212853,22.738666647888));
#647=CARTESIAN_POINT('Ctrl Pts',(-6.93466697871473,25.5,22.738666647888));
#648=CARTESIAN_POINT('Ctrl Pts',(-6.93466697871472,32.4346669787147,22.738666647888));
#649=CARTESIAN_POINT('Ctrl Pts',(0.,32.4346669787147,22.738666647888));
#650=CARTESIAN_POINT('Ctrl Pts',(0.,29.7907113322424,23.2848736341558));
#651=CARTESIAN_POINT('Ctrl Pts',(4.29071133224242,29.7907113322424,23.2848736341558));
#652=CARTESIAN_POINT('Ctrl Pts',(4.29071133224242,25.5,23.2848736341558));
#653=CARTESIAN_POINT('Ctrl Pts',(4.29071133224242,21.2092886677576,23.2848736341558));
#654=CARTESIAN_POINT('Ctrl Pts',(0.,21.2092886677576,23.2848736341558));
#655=CARTESIAN_POINT('Ctrl Pts',(-4.29071133224242,21.2092886677576,23.2848736341558));
#656=CARTESIAN_POINT('Ctrl Pts',(-4.29071133224242,25.5,23.2848736341558));
#657=CARTESIAN_POINT('Ctrl Pts',(-4.29071133224242,29.7907113322424,23.2848736341558));
#658=CARTESIAN_POINT('Ctrl Pts',(0.,29.7907113322424,23.2848736341558));
#659=CARTESIAN_POINT('Ctrl Pts',(0.,29.1842851256122,23.4969441643974));
#660=CARTESIAN_POINT('Ctrl Pts',(3.68428512561218,29.1842851256122,23.4969441643974));
#661=CARTESIAN_POINT('Ctrl Pts',(3.68428512561218,25.5,23.4969441643974));
#662=CARTESIAN_POINT('Ctrl Pts',(3.68428512561218,21.8157148743878,23.4969441643974));
#663=CARTESIAN_POINT('Ctrl Pts',(0.,21.8157148743878,23.4969441643974));
#664=CARTESIAN_POINT('Ctrl Pts',(-3.68428512561218,21.8157148743878,23.4969441643974));
#665=CARTESIAN_POINT('Ctrl Pts',(-3.68428512561218,25.5,23.4969441643974));
#666=CARTESIAN_POINT('Ctrl Pts',(-3.68428512561218,29.1842851256122,23.4969441643974));
#667=CARTESIAN_POINT('Ctrl Pts',(0.,29.1842851256122,23.4969441643974));
#668=CARTESIAN_POINT('Ctrl Pts',(0.,29.3829705727048,25.3659239182914));
#669=CARTESIAN_POINT('Ctrl Pts',(3.88297057270483,29.3829705727048,25.3659239182914));
#670=CARTESIAN_POINT('Ctrl Pts',(3.88297057270483,25.5,25.3659239182914));
#671=CARTESIAN_POINT('Ctrl Pts',(3.88297057270483,21.6170294272952,25.3659239182914));
#672=CARTESIAN_POINT('Ctrl Pts',(0.,21.6170294272952,25.3659239182914));
#673=CARTESIAN_POINT('Ctrl Pts',(-3.88297057270483,21.6170294272952,25.3659239182914));
#674=CARTESIAN_POINT('Ctrl Pts',(-3.88297057270483,25.5,25.3659239182914));
#675=CARTESIAN_POINT('Ctrl Pts',(-3.88297057270483,29.3829705727048,25.3659239182914));
#676=CARTESIAN_POINT('Ctrl Pts',(0.,29.3829705727048,25.3659239182914));
#677=CARTESIAN_POINT('Ctrl Pts',(0.,28.3368690901086,25.611053531806));
#678=CARTESIAN_POINT('Ctrl Pts',(2.8368690901086,28.3368690901086,25.611053531806));
#679=CARTESIAN_POINT('Ctrl Pts',(2.8368690901086,25.5,25.611053531806));
#680=CARTESIAN_POINT('Ctrl Pts',(2.8368690901086,22.6631309098914,25.611053531806));
#681=CARTESIAN_POINT('Ctrl Pts',(0.,22.6631309098914,25.611053531806));
#682=CARTESIAN_POINT('Ctrl Pts',(-2.8368690901086,22.6631309098914,25.611053531806));
#683=CARTESIAN_POINT('Ctrl Pts',(-2.8368690901086,25.5,25.611053531806));
#684=CARTESIAN_POINT('Ctrl Pts',(-2.8368690901086,28.3368690901086,25.611053531806));
#685=CARTESIAN_POINT('Ctrl Pts',(0.,28.3368690901086,25.611053531806));
#686=CARTESIAN_POINT('Ctrl Pts',(0.,28.28693442471,25.8253410298709));
#687=CARTESIAN_POINT('Ctrl Pts',(2.78693442470996,28.28693442471,25.8253410298709));
#688=CARTESIAN_POINT('Ctrl Pts',(2.78693442470996,25.5,25.8253410298709));
#689=CARTESIAN_POINT('Ctrl Pts',(2.78693442470996,22.71306557529,25.8253410298709));
#690=CARTESIAN_POINT('Ctrl Pts',(0.,22.71306557529,25.8253410298709));
#691=CARTESIAN_POINT('Ctrl Pts',(-2.78693442470996,22.71306557529,25.8253410298709));
#692=CARTESIAN_POINT('Ctrl Pts',(-2.78693442470996,25.5,25.8253410298709));
#693=CARTESIAN_POINT('Ctrl Pts',(-2.78693442470996,28.28693442471,25.8253410298709));
#694=CARTESIAN_POINT('Ctrl Pts',(0.,28.28693442471,25.8253410298709));
#695=CARTESIAN_POINT('Ctrl Pts',(0.,31.9821104851434,22.444667006863));
#696=CARTESIAN_POINT('Ctrl Pts',(0.,31.409006345742,22.9594652503762));
#697=CARTESIAN_POINT('Ctrl Pts',(0.,29.649253879827,23.365808508526));
#698=CARTESIAN_POINT('Ctrl Pts',(0.,29.2095991557532,23.7350663344676));
#699=CARTESIAN_POINT('Ctrl Pts',(0.,29.3829705727048,25.3659239182914));
#700=CARTESIAN_POINT('Ctrl Pts',(0.,28.3368690901086,25.611053531806));
#701=CARTESIAN_POINT('Ctrl Pts',(0.,28.28693442471,25.8253410298709));
#702=CARTESIAN_POINT('Ctrl Pts',(0.,32.65,0.8));
#703=CARTESIAN_POINT('Ctrl Pts',(7.15,32.65,0.8));
#704=CARTESIAN_POINT('Ctrl Pts',(7.15,25.5,0.8));
#705=CARTESIAN_POINT('Ctrl Pts',(7.15,18.35,0.8));
#706=CARTESIAN_POINT('Ctrl Pts',(0.,18.35,0.8));
#707=CARTESIAN_POINT('Ctrl Pts',(-7.15,18.35,0.8));
#708=CARTESIAN_POINT('Ctrl Pts',(-7.15,25.5,0.8));
#709=CARTESIAN_POINT('Ctrl Pts',(-7.15,32.65,0.8));
#710=CARTESIAN_POINT('Ctrl Pts',(0.,32.65,0.8));
#711=CARTESIAN_POINT('Ctrl Pts',(0.,33.5165896518532,1.20265045532431));
#712=CARTESIAN_POINT('Ctrl Pts',(8.01658965185324,33.5165896518532,1.20265045532431));
#713=CARTESIAN_POINT('Ctrl Pts',(8.01658965185324,25.5,1.20265045532431));
#714=CARTESIAN_POINT('Ctrl Pts',(8.01658965185324,17.4834103481468,1.20265045532431));
#715=CARTESIAN_POINT('Ctrl Pts',(0.,17.4834103481468,1.20265045532431));
#716=CARTESIAN_POINT('Ctrl Pts',(-8.01658965185324,17.4834103481468,1.20265045532431));
#717=CARTESIAN_POINT('Ctrl Pts',(-8.01658965185324,25.5,1.20265045532431));
#718=CARTESIAN_POINT('Ctrl Pts',(-8.01658965185324,33.5165896518532,1.20265045532431));
#719=CARTESIAN_POINT('Ctrl Pts',(0.,33.5165896518532,1.20265045532431));
#720=CARTESIAN_POINT('Ctrl Pts',(0.,34.0787386692125,2.25538448287181));
#721=CARTESIAN_POINT('Ctrl Pts',(8.57873866921252,34.0787386692125,2.25538448287181));
#722=CARTESIAN_POINT('Ctrl Pts',(8.57873866921253,25.5,2.25538448287181));
#723=CARTESIAN_POINT('Ctrl Pts',(8.57873866921252,16.9212613307875,2.25538448287181));
#724=CARTESIAN_POINT('Ctrl Pts',(0.,16.9212613307875,2.25538448287181));
#725=CARTESIAN_POINT('Ctrl Pts',(-8.57873866921252,16.9212613307875,2.25538448287181));
#726=CARTESIAN_POINT('Ctrl Pts',(-8.57873866921253,25.5,2.25538448287181));
#727=CARTESIAN_POINT('Ctrl Pts',(-8.57873866921252,34.0787386692125,2.25538448287181));
#728=CARTESIAN_POINT('Ctrl Pts',(0.,34.0787386692125,2.25538448287181));
#729=CARTESIAN_POINT('Ctrl Pts',(0.,34.4911074379048,4.03653404801948));
#730=CARTESIAN_POINT('Ctrl Pts',(8.99110743790479,34.4911074379048,4.03653404801948));
#731=CARTESIAN_POINT('Ctrl Pts',(8.99110743790479,25.5,4.03653404801948));
#732=CARTESIAN_POINT('Ctrl Pts',(8.99110743790479,16.5088925620952,4.03653404801948));
#733=CARTESIAN_POINT('Ctrl Pts',(0.,16.5088925620952,4.03653404801948));
#734=CARTESIAN_POINT('Ctrl Pts',(-8.99110743790479,16.5088925620952,4.03653404801948));
#735=CARTESIAN_POINT('Ctrl Pts',(-8.99110743790479,25.5,4.03653404801948));
#736=CARTESIAN_POINT('Ctrl Pts',(-8.99110743790479,34.4911074379048,4.03653404801948));
#737=CARTESIAN_POINT('Ctrl Pts',(0.,34.4911074379048,4.03653404801948));
#738=CARTESIAN_POINT('Ctrl Pts',(0.,34.2277981231294,5.21490135898318));
#739=CARTESIAN_POINT('Ctrl Pts',(8.72779812312942,34.2277981231294,5.21490135898318));
#740=CARTESIAN_POINT('Ctrl Pts',(8.72779812312942,25.5,5.21490135898318));
#741=CARTESIAN_POINT('Ctrl Pts',(8.72779812312942,16.7722018768706,5.21490135898318));
#742=CARTESIAN_POINT('Ctrl Pts',(0.,16.7722018768706,5.21490135898318));
#743=CARTESIAN_POINT('Ctrl Pts',(-8.72779812312942,16.7722018768706,5.21490135898318));
#744=CARTESIAN_POINT('Ctrl Pts',(-8.72779812312942,25.5,5.21490135898318));
#745=CARTESIAN_POINT('Ctrl Pts',(-8.72779812312942,34.2277981231294,5.21490135898318));
#746=CARTESIAN_POINT('Ctrl Pts',(0.,34.2277981231294,5.21490135898318));
#747=CARTESIAN_POINT('Ctrl Pts',(0.,33.7976641605329,5.91484545548548));
#748=CARTESIAN_POINT('Ctrl Pts',(8.29766416053288,33.7976641605329,5.91484545548548));
#749=CARTESIAN_POINT('Ctrl Pts',(8.29766416053289,25.5,5.91484545548548));
#750=CARTESIAN_POINT('Ctrl Pts',(8.29766416053288,17.2023358394671,5.91484545548548));
#751=CARTESIAN_POINT('Ctrl Pts',(0.,17.2023358394671,5.91484545548548));
#752=CARTESIAN_POINT('Ctrl Pts',(-8.29766416053288,17.2023358394671,5.91484545548548));
#753=CARTESIAN_POINT('Ctrl Pts',(-8.29766416053289,25.5,5.91484545548548));
#754=CARTESIAN_POINT('Ctrl Pts',(-8.29766416053288,33.7976641605329,5.91484545548548));
#755=CARTESIAN_POINT('Ctrl Pts',(0.,33.7976641605329,5.91484545548548));
#756=CARTESIAN_POINT('Ctrl Pts',(0.,33.0832948259266,6.06552762622135));
#757=CARTESIAN_POINT('Ctrl Pts',(7.58329482592662,33.0832948259266,6.06552762622135));
#758=CARTESIAN_POINT('Ctrl Pts',(7.58329482592662,25.5,6.06552762622135));
#759=CARTESIAN_POINT('Ctrl Pts',(7.58329482592662,17.9167051740734,6.06552762622135));
#760=CARTESIAN_POINT('Ctrl Pts',(0.,17.9167051740734,6.06552762622135));
#761=CARTESIAN_POINT('Ctrl Pts',(-7.58329482592662,17.9167051740734,6.06552762622135));
#762=CARTESIAN_POINT('Ctrl Pts',(-7.58329482592662,25.5,6.06552762622135));
#763=CARTESIAN_POINT('Ctrl Pts',(-7.58329482592662,33.0832948259266,6.06552762622135));
#764=CARTESIAN_POINT('Ctrl Pts',(0.,33.0832948259266,6.06552762622135));
#765=CARTESIAN_POINT('Ctrl Pts',(0.,32.65,6.88718618268326));
#766=CARTESIAN_POINT('Ctrl Pts',(7.15,32.65,6.88718618268326));
#767=CARTESIAN_POINT('Ctrl Pts',(7.15,25.5,6.88718618268326));
#768=CARTESIAN_POINT('Ctrl Pts',(7.15,18.35,6.88718618268326));
#769=CARTESIAN_POINT('Ctrl Pts',(0.,18.35,6.88718618268326));
#770=CARTESIAN_POINT('Ctrl Pts',(-7.15,18.35,6.88718618268326));
#771=CARTESIAN_POINT('Ctrl Pts',(-7.15,25.5,6.88718618268326));
#772=CARTESIAN_POINT('Ctrl Pts',(-7.15,32.65,6.88718618268326));
#773=CARTESIAN_POINT('Ctrl Pts',(0.,32.65,6.88718618268326));
#774=CARTESIAN_POINT('Ctrl Pts',(0.,33.4404794932298,8.43000268020231));
#775=CARTESIAN_POINT('Ctrl Pts',(7.94047949322975,33.4404794932297,8.43000268020231));
#776=CARTESIAN_POINT('Ctrl Pts',(7.94047949322975,25.5,8.43000268020231));
#777=CARTESIAN_POINT('Ctrl Pts',(7.94047949322975,17.5595205067702,8.43000268020231));
#778=CARTESIAN_POINT('Ctrl Pts',(0.,17.5595205067702,8.43000268020231));
#779=CARTESIAN_POINT('Ctrl Pts',(-7.94047949322975,17.5595205067702,8.43000268020231));
#780=CARTESIAN_POINT('Ctrl Pts',(-7.94047949322975,25.5,8.43000268020231));
#781=CARTESIAN_POINT('Ctrl Pts',(-7.94047949322975,33.4404794932297,8.43000268020231));
#782=CARTESIAN_POINT('Ctrl Pts',(0.,33.4404794932298,8.43000268020231));
#783=CARTESIAN_POINT('Ctrl Pts',(0.,29.406842951601,8.43000268020231));
#784=CARTESIAN_POINT('Ctrl Pts',(3.90684295160095,29.406842951601,8.43000268020231));
#785=CARTESIAN_POINT('Ctrl Pts',(3.90684295160095,25.5,8.43000268020231));
#786=CARTESIAN_POINT('Ctrl Pts',(3.90684295160095,21.593157048399,8.43000268020231));
#787=CARTESIAN_POINT('Ctrl Pts',(0.,21.593157048399,8.43000268020231));
#788=CARTESIAN_POINT('Ctrl Pts',(-3.90684295160095,21.593157048399,8.43000268020231));
#789=CARTESIAN_POINT('Ctrl Pts',(-3.90684295160095,25.5,8.43000268020231));
#790=CARTESIAN_POINT('Ctrl Pts',(-3.90684295160095,29.406842951601,8.43000268020231));
#791=CARTESIAN_POINT('Ctrl Pts',(0.,29.406842951601,8.43000268020231));
#792=CARTESIAN_POINT('Ctrl Pts',(0.,27.9564009508881,17.9326336794624));
#793=CARTESIAN_POINT('Ctrl Pts',(2.45640095088813,27.9564009508881,17.9326336794624));
#794=CARTESIAN_POINT('Ctrl Pts',(2.45640095088813,25.5,17.9326336794624));
#795=CARTESIAN_POINT('Ctrl Pts',(2.45640095088813,23.0435990491119,17.9326336794624));
#796=CARTESIAN_POINT('Ctrl Pts',(0.,23.0435990491119,17.9326336794624));
#797=CARTESIAN_POINT('Ctrl Pts',(-2.45640095088813,23.0435990491119,17.9326336794624));
#798=CARTESIAN_POINT('Ctrl Pts',(-2.45640095088813,25.5,17.9326336794624));
#799=CARTESIAN_POINT('Ctrl Pts',(-2.45640095088813,27.9564009508881,17.9326336794624));
#800=CARTESIAN_POINT('Ctrl Pts',(0.,27.9564009508881,17.9326336794624));
#801=CARTESIAN_POINT('Ctrl Pts',(0.,28.5,20.0573529880099));
#802=CARTESIAN_POINT('Ctrl Pts',(3.,28.5,20.0573529880099));
#803=CARTESIAN_POINT('Ctrl Pts',(3.,25.5,20.0573529880099));
#804=CARTESIAN_POINT('Ctrl Pts',(3.,22.5,20.0573529880099));
#805=CARTESIAN_POINT('Ctrl Pts',(0.,22.5,20.0573529880099));
#806=CARTESIAN_POINT('Ctrl Pts',(-3.,22.5,20.0573529880099));
#807=CARTESIAN_POINT('Ctrl Pts',(-3.,25.5,20.0573529880099));
#808=CARTESIAN_POINT('Ctrl Pts',(-3.,28.5,20.0573529880099));
#809=CARTESIAN_POINT('Ctrl Pts',(0.,28.5,20.0573529880099));
#810=CARTESIAN_POINT('Ctrl Pts',(0.,31.3750841991327,21.1668665839596));
#811=CARTESIAN_POINT('Ctrl Pts',(5.87508419913269,31.3750841991327,21.1668665839596));
#812=CARTESIAN_POINT('Ctrl Pts',(5.87508419913269,25.5,21.1668665839596));
#813=CARTESIAN_POINT('Ctrl Pts',(5.87508419913269,19.6249158008673,21.1668665839596));
#814=CARTESIAN_POINT('Ctrl Pts',(0.,19.6249158008673,21.1668665839596));
#815=CARTESIAN_POINT('Ctrl Pts',(-5.87508419913269,19.6249158008673,21.1668665839596));
#816=CARTESIAN_POINT('Ctrl Pts',(-5.87508419913269,25.5,21.1668665839596));
#817=CARTESIAN_POINT('Ctrl Pts',(-5.87508419913269,31.3750841991327,21.1668665839596));
#818=CARTESIAN_POINT('Ctrl Pts',(0.,31.3750841991327,21.1668665839596));
#819=CARTESIAN_POINT('Ctrl Pts',(0.,32.1290953350953,21.5879413746308));
#820=CARTESIAN_POINT('Ctrl Pts',(6.62909533509528,32.1290953350953,21.5879413746308));
#821=CARTESIAN_POINT('Ctrl Pts',(6.62909533509528,25.5,21.5879413746308));
#822=CARTESIAN_POINT('Ctrl Pts',(6.62909533509528,18.8709046649047,21.5879413746308));
#823=CARTESIAN_POINT('Ctrl Pts',(0.,18.8709046649047,21.5879413746308));
#824=CARTESIAN_POINT('Ctrl Pts',(-6.62909533509528,18.8709046649047,21.5879413746308));
#825=CARTESIAN_POINT('Ctrl Pts',(-6.62909533509528,25.5,21.5879413746308));
#826=CARTESIAN_POINT('Ctrl Pts',(-6.62909533509528,32.1290953350953,21.5879413746308));
#827=CARTESIAN_POINT('Ctrl Pts',(0.,32.1290953350953,21.5879413746308));
#828=CARTESIAN_POINT('Ctrl Pts',(0.,32.2498790953351,21.7997879413746));
#829=CARTESIAN_POINT('Ctrl Pts',(6.74987909533509,32.2498790953351,21.7997879413746));
#830=CARTESIAN_POINT('Ctrl Pts',(6.74987909533509,25.5,21.7997879413746));
#831=CARTESIAN_POINT('Ctrl Pts',(6.74987909533509,18.7501209046649,21.7997879413746));
#832=CARTESIAN_POINT('Ctrl Pts',(0.,18.7501209046649,21.7997879413746));
#833=CARTESIAN_POINT('Ctrl Pts',(-6.74987909533509,18.7501209046649,21.7997879413746));
#834=CARTESIAN_POINT('Ctrl Pts',(-6.74987909533509,25.5,21.7997879413746));
#835=CARTESIAN_POINT('Ctrl Pts',(-6.74987909533509,32.2498790953351,21.7997879413746));
#836=CARTESIAN_POINT('Ctrl Pts',(0.,32.2498790953351,21.7997879413746));
#837=CARTESIAN_POINT('Ctrl Pts',(0.,32.25,21.8));
#838=CARTESIAN_POINT('Ctrl Pts',(6.75,32.25,21.8));
#839=CARTESIAN_POINT('Ctrl Pts',(6.75,25.5,21.8));
#840=CARTESIAN_POINT('Ctrl Pts',(6.75,18.75,21.8));
#841=CARTESIAN_POINT('Ctrl Pts',(0.,18.75,21.8));
#842=CARTESIAN_POINT('Ctrl Pts',(-6.75,18.75,21.8));
#843=CARTESIAN_POINT('Ctrl Pts',(-6.75,25.5,21.8));
#844=CARTESIAN_POINT('Ctrl Pts',(-6.75,32.25,21.8));
#845=CARTESIAN_POINT('Ctrl Pts',(0.,32.25,21.8));
#846=CARTESIAN_POINT('',(0.,32.65,0.8));
#847=CARTESIAN_POINT('Ctrl Pts',(0.,32.65,0.8));
#848=CARTESIAN_POINT('Ctrl Pts',(0.,33.5165896518532,1.20265045532431));
#849=CARTESIAN_POINT('Ctrl Pts',(0.,34.0787386692125,2.25538448287181));
#850=CARTESIAN_POINT('Ctrl Pts',(0.,34.4911074379048,4.03653404801948));
#851=CARTESIAN_POINT('Ctrl Pts',(0.,34.2277981231294,5.21490135898318));
#852=CARTESIAN_POINT('Ctrl Pts',(0.,33.7976641605329,5.91484545548548));
#853=CARTESIAN_POINT('Ctrl Pts',(0.,33.0832948259266,6.06552762622135));
#854=CARTESIAN_POINT('Ctrl Pts',(0.,32.65,6.88718618268326));
#855=CARTESIAN_POINT('Ctrl Pts',(0.,33.4404794932298,8.43000268020231));
#856=CARTESIAN_POINT('Ctrl Pts',(0.,29.406842951601,8.43000268020231));
#857=CARTESIAN_POINT('Ctrl Pts',(0.,27.9564009508881,17.9326336794624));
#858=CARTESIAN_POINT('Ctrl Pts',(0.,28.4768345066224,19.9668079968959));
#859=CARTESIAN_POINT('Ctrl Pts',(0.,30.9179145042586,20.9851569068038));
#860=CARTESIAN_POINT('Ctrl Pts',(0.,31.6805216689904,21.3559813036088));
#861=CARTESIAN_POINT('Ctrl Pts',(0.,31.8938158997144,21.4862052036972));
#862=CARTESIAN_POINT('',(-7.15,25.5,0.8));
#863=CARTESIAN_POINT('Origin',(0.,25.5,0.8));
#864=CARTESIAN_POINT('Origin',(0.,25.5,0.8));
#865=CARTESIAN_POINT('Origin',(0.,25.5,3.));
#866=CARTESIAN_POINT('',(3.,25.5,3.));
#867=CARTESIAN_POINT('Origin',(0.,25.5,3.));
#868=CARTESIAN_POINT('Ctrl Pts',(0.,27.9826681755752,40.3526286363327));
#869=CARTESIAN_POINT('Ctrl Pts',(2.48266817557524,27.9826681755752,40.3526286363327));
#870=CARTESIAN_POINT('Ctrl Pts',(2.48266817557524,25.5,40.3526286363327));
#871=CARTESIAN_POINT('Ctrl Pts',(2.48266817557524,23.0173318244248,40.3526286363327));
#872=CARTESIAN_POINT('Ctrl Pts',(0.,23.0173318244248,40.3526286363327));
#873=CARTESIAN_POINT('Ctrl Pts',(-2.48266817557524,23.0173318244248,40.3526286363327));
#874=CARTESIAN_POINT('Ctrl Pts',(-2.48266817557524,25.5,40.3526286363327));
#875=CARTESIAN_POINT('Ctrl Pts',(-2.48266817557524,27.9826681755752,40.3526286363327));
#876=CARTESIAN_POINT('Ctrl Pts',(0.,27.9826681755752,40.3526286363327));
#877=CARTESIAN_POINT('Ctrl Pts',(0.,28.7117910999211,41.0516749573274));
#878=CARTESIAN_POINT('Ctrl Pts',(3.21179109992113,28.7117910999211,41.0516749573274));
#879=CARTESIAN_POINT('Ctrl Pts',(3.21179109992113,25.5,41.0516749573274));
#880=CARTESIAN_POINT('Ctrl Pts',(3.21179109992113,22.2882089000789,41.0516749573274));
#881=CARTESIAN_POINT('Ctrl Pts',(0.,22.2882089000789,41.0516749573274));
#882=CARTESIAN_POINT('Ctrl Pts',(-3.21179109992113,22.2882089000789,41.0516749573274));
#883=CARTESIAN_POINT('Ctrl Pts',(-3.21179109992113,25.5,41.0516749573274));
#884=CARTESIAN_POINT('Ctrl Pts',(-3.21179109992113,28.7117910999211,41.0516749573274));
#885=CARTESIAN_POINT('Ctrl Pts',(0.,28.7117910999211,41.0516749573274));
#886=CARTESIAN_POINT('Ctrl Pts',(0.,27.8942931771754,41.7258374786637));
#887=CARTESIAN_POINT('Ctrl Pts',(2.39429317717536,27.8942931771754,41.7258374786637));
#888=CARTESIAN_POINT('Ctrl Pts',(2.39429317717536,25.5,41.7258374786637));
#889=CARTESIAN_POINT('Ctrl Pts',(2.39429317717536,23.1057068228246,41.7258374786637));
#890=CARTESIAN_POINT('Ctrl Pts',(0.,23.1057068228246,41.7258374786637));
#891=CARTESIAN_POINT('Ctrl Pts',(-2.39429317717536,23.1057068228246,41.7258374786637));
#892=CARTESIAN_POINT('Ctrl Pts',(-2.39429317717536,25.5,41.7258374786637));
#893=CARTESIAN_POINT('Ctrl Pts',(-2.39429317717536,27.8942931771754,41.7258374786637));
#894=CARTESIAN_POINT('Ctrl Pts',(0.,27.8942931771754,41.7258374786637));
#895=CARTESIAN_POINT('Ctrl Pts',(0.,27.0767952544296,42.4));
#896=CARTESIAN_POINT('Ctrl Pts',(1.57679525442961,27.0767952544296,42.4));
#897=CARTESIAN_POINT('Ctrl Pts',(1.57679525442961,25.5,42.4));
#898=CARTESIAN_POINT('Ctrl Pts',(1.57679525442961,23.9232047455704,42.4));
#899=CARTESIAN_POINT('Ctrl Pts',(0.,23.9232047455704,42.4));
#900=CARTESIAN_POINT('Ctrl Pts',(-1.57679525442961,23.9232047455704,42.4));
#901=CARTESIAN_POINT('Ctrl Pts',(-1.57679525442961,25.5,42.4));
#902=CARTESIAN_POINT('Ctrl Pts',(-1.57679525442961,27.0767952544296,42.4));
#903=CARTESIAN_POINT('Ctrl Pts',(0.,27.0767952544296,42.4));
#904=CARTESIAN_POINT('Ctrl Pts',(0.,25.5,42.4));
#905=CARTESIAN_POINT('Ctrl Pts',(0.,25.5,42.4));
#906=CARTESIAN_POINT('Ctrl Pts',(0.,25.5,42.4));
#907=CARTESIAN_POINT('Ctrl Pts',(0.,25.5,42.4));
#908=CARTESIAN_POINT('Ctrl Pts',(0.,25.5,42.4));
#909=CARTESIAN_POINT('Ctrl Pts',(0.,25.5,42.4));
#910=CARTESIAN_POINT('Ctrl Pts',(0.,25.5,42.4));
#911=CARTESIAN_POINT('Ctrl Pts',(0.,25.5,42.4));
#912=CARTESIAN_POINT('Ctrl Pts',(0.,25.5,42.4));
#913=CARTESIAN_POINT('',(0.,25.5,42.4));
#914=CARTESIAN_POINT('Origin',(0.,25.5,41.));
#915=CARTESIAN_POINT('Origin',(0.,25.5,3.));
#916=CARTESIAN_POINT('',(-7.15,25.5,0.));
#917=CARTESIAN_POINT('Origin',(0.,25.5,0.));
#918=CARTESIAN_POINT('',(-7.15,25.5,3.));
#919=CARTESIAN_POINT('Origin',(0.,25.5,0.));
#920=CARTESIAN_POINT('',(3.,25.5,0.));
#921=CARTESIAN_POINT('',(3.,25.5,0.));
#922=CARTESIAN_POINT('Origin',(0.,25.5,0.));
#923=CARTESIAN_POINT('Origin',(0.,25.5,0.));
#924=CARTESIAN_POINT('Ctrl Pts',(8.,28.3393614511092,38.8159776082182));
#925=CARTESIAN_POINT('Ctrl Pts',(3.94430452610506E-30,30.9373334112397,
36.2180056480877));
#926=CARTESIAN_POINT('Ctrl Pts',(-8.,28.3553466505723,38.7999924087551));
#927=CARTESIAN_POINT('',(8.,28.3393614511092,38.8159776082182));
#928=CARTESIAN_POINT('',(-8.,28.3553466505723,38.7999924087551));
#929=CARTESIAN_POINT('Ctrl Pts',(7.49999999999998,29.3208509303384,37.834488128989));
#930=CARTESIAN_POINT('Ctrl Pts',(7.08654149341984,29.4399670902584,37.715371969069));
#931=CARTESIAN_POINT('Ctrl Pts',(6.25825406218217,29.6588067594225,37.4965322999048));
#932=CARTESIAN_POINT('Ctrl Pts',(5.21969747026165,29.883493482141,37.2718455771863));
#933=CARTESIAN_POINT('Ctrl Pts',(4.17903316785648,30.0712564416671,37.0840826176603));
#934=CARTESIAN_POINT('Ctrl Pts',(3.34496373284891,30.1918216132372,36.9635174460902));
#935=CARTESIAN_POINT('Ctrl Pts',(2.30090414935713,30.3052453042195,36.8500937551079));
#936=CARTESIAN_POINT('Ctrl Pts',(1.46468987937098,30.3660820272694,36.789257032058));
#937=CARTESIAN_POINT('Ctrl Pts',(0.418787320305572,30.404620930394,36.7507181289334));
#938=CARTESIAN_POINT('Ctrl Pts',(-0.41819300777317,30.4054182821935,36.7499207771339));
#939=CARTESIAN_POINT('Ctrl Pts',(-1.46412033920329,30.3688709913685,36.7864680679589));
#940=CARTESIAN_POINT('Ctrl Pts',(-2.30037371830262,30.3096247192072,36.8457143401201));
#941=CARTESIAN_POINT('Ctrl Pts',(-3.34450392015617,30.1981824416184,36.957156617709));
#942=CARTESIAN_POINT('Ctrl Pts',(-4.17864583884369,30.0791960060859,37.0761430532415));
#943=CARTESIAN_POINT('Ctrl Pts',(-5.21941673741679,29.8933964715201,37.2619425878072));
#944=CARTESIAN_POINT('Ctrl Pts',(-6.25809364180267,29.670662518872,37.4846765404554));
#945=CARTESIAN_POINT('Ctrl Pts',(-7.08648714649717,29.4533729460571,37.7019661132703));
#946=CARTESIAN_POINT('Ctrl Pts',(-7.5,29.3350288425444,37.820310216783));
#947=CARTESIAN_POINT('',(7.49999999999998,29.3208509303384,37.834488128989));
#948=CARTESIAN_POINT('',(-7.5,29.3350288425444,37.820310216783));
#949=CARTESIAN_POINT('polyline point',(8.,28.3393614511092,38.8159776082182));
#950=CARTESIAN_POINT('polyline point',(7.49999999999998,29.3208509303384,
37.834488128989));
#951=CARTESIAN_POINT('polyline point',(-7.5,29.3350288425444,37.820310216783));
#952=CARTESIAN_POINT('polyline point',(-8.,28.3553466505723,38.7999924087551));
#953=CARTESIAN_POINT('',(0.,33.5776695296637,33.5776695296637));
#954=CARTESIAN_POINT('',(7.67360687300885,29.119721504928,38.0356175543994));
#955=CARTESIAN_POINT('',(-7.68101311143489,29.1041477875554,38.051191271772));
#956=CARTESIAN_POINT('',(-4.00000000000001,28.4333873606932,38.7219516986342));
#957=CARTESIAN_POINT('',(3.99999999999999,28.4333873606932,38.7219516986342));
#958=UNCERTAINTY_MEASURE_WITH_UNIT(LENGTH_MEASURE(0.01),#962,
'DISTANCE_ACCURACY_VALUE',
'Maximum model space distance between geometric entities at asserted c
onnectivities');
#959=UNCERTAINTY_MEASURE_WITH_UNIT(LENGTH_MEASURE(0.01),#962,
'DISTANCE_ACCURACY_VALUE',
'Maximum model space distance between geometric entities at asserted c
onnectivities');
#960=(
GEOMETRIC_REPRESENTATION_CONTEXT(3)
GLOBAL_UNCERTAINTY_ASSIGNED_CONTEXT((#958))
GLOBAL_UNIT_ASSIGNED_CONTEXT((#962,#964,#965))
REPRESENTATION_CONTEXT('','3D')
);
#961=(
GEOMETRIC_REPRESENTATION_CONTEXT(3)
GLOBAL_UNCERTAINTY_ASSIGNED_CONTEXT((#959))
GLOBAL_UNIT_ASSIGNED_CONTEXT((#962,#964,#965))
REPRESENTATION_CONTEXT('','3D')
);
#962=(
LENGTH_UNIT()
NAMED_UNIT(*)
SI_UNIT(.MILLI.,.METRE.)
);
#963=(
LENGTH_UNIT()
NAMED_UNIT(*)
SI_UNIT(.CENTI.,.METRE.)
);
#964=(
NAMED_UNIT(*)
PLANE_ANGLE_UNIT()
SI_UNIT($,.RADIAN.)
);
#965=(
NAMED_UNIT(*)
SI_UNIT($,.STERADIAN.)
SOLID_ANGLE_UNIT()
);
#966=SHAPE_DEFINITION_REPRESENTATION(#967,#968);
#967=PRODUCT_DEFINITION_SHAPE('',$,#970);
#968=SHAPE_REPRESENTATION('',(#214),#960);
#969=PRODUCT_DEFINITION_CONTEXT('part definition',#974,'design');
#970=PRODUCT_DEFINITION('bishop-white','bishop-white',#971,#969);
#971=PRODUCT_DEFINITION_FORMATION('',$,#976);
#972=PRODUCT_RELATED_PRODUCT_CATEGORY('bishop-white','bishop-white',(#976));
#973=APPLICATION_PROTOCOL_DEFINITION('international standard',
'automotive_design',2009,#974);
#974=APPLICATION_CONTEXT(
'Core Data for Automotive Mechanical Design Process');
#975=PRODUCT_CONTEXT('part definition',#974,'mechanical');
#976=PRODUCT('bishop-white','bishop-white',$,(#975));
#977=PRESENTATION_STYLE_ASSIGNMENT((#979));
#978=PRESENTATION_STYLE_ASSIGNMENT((#980));
#979=SURFACE_STYLE_USAGE(.BOTH.,#983);
#980=SURFACE_STYLE_USAGE(.BOTH.,#984);
#981=SURFACE_STYLE_RENDERING_WITH_PROPERTIES($,#991,(#982));
#982=SURFACE_STYLE_TRANSPARENT(0.);
#983=SURFACE_SIDE_STYLE('',(#985,#981));
#984=SURFACE_SIDE_STYLE('',(#986));
#985=SURFACE_STYLE_FILL_AREA(#987);
#986=SURFACE_STYLE_FILL_AREA(#988);
#987=FILL_AREA_STYLE('',(#989));
#988=FILL_AREA_STYLE('',(#990));
#989=FILL_AREA_STYLE_COLOUR('',#991);
#990=FILL_AREA_STYLE_COLOUR('',#992);
#991=COLOUR_RGB('',0.749019607843137,0.749019607843137,0.749019607843137);
#992=COLOUR_RGB('',1.,1.,0.);
ENDSEC;
END-ISO-10303-21;
