ISO-10303-21;
HEADER;
/* Generated by software containing ST-Developer
 * from STEP Tools, Inc. (www.steptools.com) 
 */

FILE_DESCRIPTION(
/* description */ (''),
/* implementation_level */ '2;1');

FILE_NAME(
/* name */ 'chess-board-topcaps.stp',
/* time_stamp */ '2025-08-14T23:24:43+01:00',
/* author */ ('iwheard'),
/* organization */ (''),
/* preprocessor_version */ 'ST-DEVELOPER v20',
/* originating_system */ 'Autodesk Inventor 2024',
/* authorisation */ '');

FILE_SCHEMA (('AUTOMOTIVE_DESIGN { 1 0 10303 214 3 1 1 }'));
ENDSEC;

DATA;
#10=MECHANICAL_DESIGN_GEOMETRIC_PRESENTATION_REPRESENTATION('',(#13),#352);
#11=SHAPE_REPRESENTATION_RELATIONSHIP('SRR','None',#359,#12);
#12=ADVANCED_BREP_SHAPE_REPRESENTATION('',(#14),#351);
#13=STYLED_ITEM('',(#368),#14);
#14=MANIFOLD_SOLID_BREP('top-caps',#195);
#15=FACE_BOUND('',#51,.T.);
#16=FACE_BOUND('',#52,.T.);
#17=PLANE('',#224);
#18=PLANE('',#231);
#19=PLANE('',#232);
#20=PLANE('',#233);
#21=PLANE('',#234);
#22=PLANE('',#235);
#23=PLANE('',#236);
#24=PLANE('',#237);
#25=CYLINDRICAL_SURFACE('',#222,1.55);
#26=CYLINDRICAL_SURFACE('',#229,1.55);
#27=FACE_OUTER_BOUND('',#39,.T.);
#28=FACE_OUTER_BOUND('',#40,.T.);
#29=FACE_OUTER_BOUND('',#41,.T.);
#30=FACE_OUTER_BOUND('',#42,.T.);
#31=FACE_OUTER_BOUND('',#43,.T.);
#32=FACE_OUTER_BOUND('',#44,.T.);
#33=FACE_OUTER_BOUND('',#45,.T.);
#34=FACE_OUTER_BOUND('',#46,.T.);
#35=FACE_OUTER_BOUND('',#47,.T.);
#36=FACE_OUTER_BOUND('',#48,.T.);
#37=FACE_OUTER_BOUND('',#49,.T.);
#38=FACE_OUTER_BOUND('',#50,.T.);
#39=EDGE_LOOP('',(#133,#134,#135,#136,#137));
#40=EDGE_LOOP('',(#138,#139,#140,#141,#142));
#41=EDGE_LOOP('',(#143));
#42=EDGE_LOOP('',(#144,#145,#146,#147,#148));
#43=EDGE_LOOP('',(#149,#150,#151,#152,#153));
#44=EDGE_LOOP('',(#154));
#45=EDGE_LOOP('',(#155,#156,#157,#158));
#46=EDGE_LOOP('',(#159,#160,#161,#162));
#47=EDGE_LOOP('',(#163,#164,#165,#166));
#48=EDGE_LOOP('',(#167,#168,#169,#170));
#49=EDGE_LOOP('',(#171,#172,#173,#174));
#50=EDGE_LOOP('',(#175,#176,#177,#178));
#51=EDGE_LOOP('',(#179));
#52=EDGE_LOOP('',(#180));
#53=LINE('',#301,#69);
#54=LINE('',#307,#70);
#55=LINE('',#314,#71);
#56=LINE('',#320,#72);
#57=LINE('',#326,#73);
#58=LINE('',#328,#74);
#59=LINE('',#330,#75);
#60=LINE('',#331,#76);
#61=LINE('',#334,#77);
#62=LINE('',#336,#78);
#63=LINE('',#337,#79);
#64=LINE('',#340,#80);
#65=LINE('',#342,#81);
#66=LINE('',#343,#82);
#67=LINE('',#345,#83);
#68=LINE('',#346,#84);
#69=VECTOR('',#244,1.35);
#70=VECTOR('',#251,1.55);
#71=VECTOR('',#260,1.35);
#72=VECTOR('',#267,1.55);
#73=VECTOR('',#274,10.);
#74=VECTOR('',#275,10.);
#75=VECTOR('',#276,10.);
#76=VECTOR('',#277,10.);
#77=VECTOR('',#280,10.);
#78=VECTOR('',#281,10.);
#79=VECTOR('',#282,10.);
#80=VECTOR('',#285,10.);
#81=VECTOR('',#286,10.);
#82=VECTOR('',#287,10.);
#83=VECTOR('',#290,10.);
#84=VECTOR('',#291,10.);
#85=CIRCLE('',#219,1.15);
#86=CIRCLE('',#220,1.55);
#87=CIRCLE('',#221,1.55);
#88=CIRCLE('',#223,1.55);
#89=CIRCLE('',#226,1.15);
#90=CIRCLE('',#227,1.55);
#91=CIRCLE('',#228,1.55);
#92=CIRCLE('',#230,1.55);
#93=VERTEX_POINT('',#298);
#94=VERTEX_POINT('',#300);
#95=VERTEX_POINT('',#302);
#96=VERTEX_POINT('',#306);
#97=VERTEX_POINT('',#311);
#98=VERTEX_POINT('',#313);
#99=VERTEX_POINT('',#315);
#100=VERTEX_POINT('',#319);
#101=VERTEX_POINT('',#324);
#102=VERTEX_POINT('',#325);
#103=VERTEX_POINT('',#327);
#104=VERTEX_POINT('',#329);
#105=VERTEX_POINT('',#333);
#106=VERTEX_POINT('',#335);
#107=VERTEX_POINT('',#339);
#108=VERTEX_POINT('',#341);
#109=EDGE_CURVE('',#93,#93,#85,.T.);
#110=EDGE_CURVE('',#93,#94,#53,.T.);
#111=EDGE_CURVE('',#94,#95,#86,.T.);
#112=EDGE_CURVE('',#95,#94,#87,.T.);
#113=EDGE_CURVE('',#95,#96,#54,.T.);
#114=EDGE_CURVE('',#96,#96,#88,.T.);
#115=EDGE_CURVE('',#97,#97,#89,.T.);
#116=EDGE_CURVE('',#97,#98,#55,.T.);
#117=EDGE_CURVE('',#98,#99,#90,.T.);
#118=EDGE_CURVE('',#99,#98,#91,.T.);
#119=EDGE_CURVE('',#99,#100,#56,.T.);
#120=EDGE_CURVE('',#100,#100,#92,.T.);
#121=EDGE_CURVE('',#101,#102,#57,.T.);
#122=EDGE_CURVE('',#102,#103,#58,.T.);
#123=EDGE_CURVE('',#103,#104,#59,.T.);
#124=EDGE_CURVE('',#101,#104,#60,.T.);
#125=EDGE_CURVE('',#102,#105,#61,.T.);
#126=EDGE_CURVE('',#105,#106,#62,.T.);
#127=EDGE_CURVE('',#106,#103,#63,.T.);
#128=EDGE_CURVE('',#105,#107,#64,.T.);
#129=EDGE_CURVE('',#107,#108,#65,.T.);
#130=EDGE_CURVE('',#108,#106,#66,.T.);
#131=EDGE_CURVE('',#104,#108,#67,.T.);
#132=EDGE_CURVE('',#107,#101,#68,.T.);
#133=ORIENTED_EDGE('',*,*,#109,.T.);
#134=ORIENTED_EDGE('',*,*,#110,.T.);
#135=ORIENTED_EDGE('',*,*,#111,.T.);
#136=ORIENTED_EDGE('',*,*,#112,.T.);
#137=ORIENTED_EDGE('',*,*,#110,.F.);
#138=ORIENTED_EDGE('',*,*,#111,.F.);
#139=ORIENTED_EDGE('',*,*,#112,.F.);
#140=ORIENTED_EDGE('',*,*,#113,.T.);
#141=ORIENTED_EDGE('',*,*,#114,.F.);
#142=ORIENTED_EDGE('',*,*,#113,.F.);
#143=ORIENTED_EDGE('',*,*,#109,.F.);
#144=ORIENTED_EDGE('',*,*,#115,.T.);
#145=ORIENTED_EDGE('',*,*,#116,.T.);
#146=ORIENTED_EDGE('',*,*,#117,.T.);
#147=ORIENTED_EDGE('',*,*,#118,.T.);
#148=ORIENTED_EDGE('',*,*,#116,.F.);
#149=ORIENTED_EDGE('',*,*,#117,.F.);
#150=ORIENTED_EDGE('',*,*,#118,.F.);
#151=ORIENTED_EDGE('',*,*,#119,.T.);
#152=ORIENTED_EDGE('',*,*,#120,.F.);
#153=ORIENTED_EDGE('',*,*,#119,.F.);
#154=ORIENTED_EDGE('',*,*,#115,.F.);
#155=ORIENTED_EDGE('',*,*,#121,.T.);
#156=ORIENTED_EDGE('',*,*,#122,.T.);
#157=ORIENTED_EDGE('',*,*,#123,.T.);
#158=ORIENTED_EDGE('',*,*,#124,.F.);
#159=ORIENTED_EDGE('',*,*,#125,.T.);
#160=ORIENTED_EDGE('',*,*,#126,.T.);
#161=ORIENTED_EDGE('',*,*,#127,.T.);
#162=ORIENTED_EDGE('',*,*,#122,.F.);
#163=ORIENTED_EDGE('',*,*,#128,.T.);
#164=ORIENTED_EDGE('',*,*,#129,.T.);
#165=ORIENTED_EDGE('',*,*,#130,.T.);
#166=ORIENTED_EDGE('',*,*,#126,.F.);
#167=ORIENTED_EDGE('',*,*,#131,.T.);
#168=ORIENTED_EDGE('',*,*,#129,.F.);
#169=ORIENTED_EDGE('',*,*,#132,.T.);
#170=ORIENTED_EDGE('',*,*,#124,.T.);
#171=ORIENTED_EDGE('',*,*,#121,.F.);
#172=ORIENTED_EDGE('',*,*,#132,.F.);
#173=ORIENTED_EDGE('',*,*,#128,.F.);
#174=ORIENTED_EDGE('',*,*,#125,.F.);
#175=ORIENTED_EDGE('',*,*,#127,.F.);
#176=ORIENTED_EDGE('',*,*,#130,.F.);
#177=ORIENTED_EDGE('',*,*,#131,.F.);
#178=ORIENTED_EDGE('',*,*,#123,.F.);
#179=ORIENTED_EDGE('',*,*,#114,.T.);
#180=ORIENTED_EDGE('',*,*,#120,.T.);
#181=CONICAL_SURFACE('',#218,1.35,0.785398163397449);
#182=CONICAL_SURFACE('',#225,1.35,0.785398163397449);
#183=ADVANCED_FACE('',(#27),#181,.T.);
#184=ADVANCED_FACE('',(#28),#25,.T.);
#185=ADVANCED_FACE('',(#29),#17,.T.);
#186=ADVANCED_FACE('',(#30),#182,.T.);
#187=ADVANCED_FACE('',(#31),#26,.T.);
#188=ADVANCED_FACE('',(#32),#18,.T.);
#189=ADVANCED_FACE('',(#33),#19,.T.);
#190=ADVANCED_FACE('',(#34),#20,.T.);
#191=ADVANCED_FACE('',(#35),#21,.T.);
#192=ADVANCED_FACE('',(#36),#22,.T.);
#193=ADVANCED_FACE('',(#37),#23,.T.);
#194=ADVANCED_FACE('',(#38,#15,#16),#24,.F.);
#195=CLOSED_SHELL('',(#183,#184,#185,#186,#187,#188,#189,#190,#191,#192,
#193,#194));
#196=DERIVED_UNIT_ELEMENT(#199,1.);
#197=DERIVED_UNIT_ELEMENT(#354,-3.);
#198=DIMENSIONAL_EXPONENTS(0.,1.,0.,0.,0.,0.,0.);
#199=(
CONVERSION_BASED_UNIT('gram',#201)
MASS_UNIT()
NAMED_UNIT(#198)
);
#200=(
MASS_UNIT()
NAMED_UNIT(*)
SI_UNIT(.KILO.,.GRAM.)
);
#201=MASS_MEASURE_WITH_UNIT(MASS_MEASURE(0.001),#200);
#202=DERIVED_UNIT((#196,#197));
#203=MEASURE_REPRESENTATION_ITEM('density measure',
POSITIVE_RATIO_MEASURE(1.),#202);
#204=PROPERTY_DEFINITION_REPRESENTATION(#209,#206);
#205=PROPERTY_DEFINITION_REPRESENTATION(#210,#207);
#206=REPRESENTATION('material name',(#208),#351);
#207=REPRESENTATION('density',(#203),#351);
#208=DESCRIPTIVE_REPRESENTATION_ITEM('Generic','Generic');
#209=PROPERTY_DEFINITION('material property','material name',#361);
#210=PROPERTY_DEFINITION('material property','density of part',#361);
#211=DATE_TIME_ROLE('creation_date');
#212=APPLIED_DATE_AND_TIME_ASSIGNMENT(#213,#211,(#361));
#213=DATE_AND_TIME(#214,#215);
#214=CALENDAR_DATE(2025,14,8);
#215=LOCAL_TIME(0,0,0.,#216);
#216=COORDINATED_UNIVERSAL_TIME_OFFSET(0,0,.BEHIND.);
#217=AXIS2_PLACEMENT_3D('',#296,#238,#239);
#218=AXIS2_PLACEMENT_3D('',#297,#240,#241);
#219=AXIS2_PLACEMENT_3D('',#299,#242,#243);
#220=AXIS2_PLACEMENT_3D('',#303,#245,#246);
#221=AXIS2_PLACEMENT_3D('',#304,#247,#248);
#222=AXIS2_PLACEMENT_3D('',#305,#249,#250);
#223=AXIS2_PLACEMENT_3D('',#308,#252,#253);
#224=AXIS2_PLACEMENT_3D('',#309,#254,#255);
#225=AXIS2_PLACEMENT_3D('',#310,#256,#257);
#226=AXIS2_PLACEMENT_3D('',#312,#258,#259);
#227=AXIS2_PLACEMENT_3D('',#316,#261,#262);
#228=AXIS2_PLACEMENT_3D('',#317,#263,#264);
#229=AXIS2_PLACEMENT_3D('',#318,#265,#266);
#230=AXIS2_PLACEMENT_3D('',#321,#268,#269);
#231=AXIS2_PLACEMENT_3D('',#322,#270,#271);
#232=AXIS2_PLACEMENT_3D('',#323,#272,#273);
#233=AXIS2_PLACEMENT_3D('',#332,#278,#279);
#234=AXIS2_PLACEMENT_3D('',#338,#283,#284);
#235=AXIS2_PLACEMENT_3D('',#344,#288,#289);
#236=AXIS2_PLACEMENT_3D('',#347,#292,#293);
#237=AXIS2_PLACEMENT_3D('',#348,#294,#295);
#238=DIRECTION('axis',(0.,0.,1.));
#239=DIRECTION('refdir',(1.,0.,0.));
#240=DIRECTION('center_axis',(0.,1.,0.));
#241=DIRECTION('ref_axis',(-1.,0.,0.));
#242=DIRECTION('center_axis',(0.,1.,0.));
#243=DIRECTION('ref_axis',(-1.,0.,0.));
#244=DIRECTION('',(0.707106781186548,0.707106781186547,8.65956056235494E-17));
#245=DIRECTION('center_axis',(0.,-1.,0.));
#246=DIRECTION('ref_axis',(-1.,0.,0.));
#247=DIRECTION('center_axis',(0.,-1.,0.));
#248=DIRECTION('ref_axis',(-1.,0.,0.));
#249=DIRECTION('center_axis',(0.,-1.,0.));
#250=DIRECTION('ref_axis',(1.,0.,0.));
#251=DIRECTION('',(0.,1.,0.));
#252=DIRECTION('center_axis',(0.,1.,0.));
#253=DIRECTION('ref_axis',(1.,0.,0.));
#254=DIRECTION('center_axis',(0.,-1.,0.));
#255=DIRECTION('ref_axis',(0.,0.,-1.));
#256=DIRECTION('center_axis',(0.,1.,0.));
#257=DIRECTION('ref_axis',(-1.,0.,0.));
#258=DIRECTION('center_axis',(0.,1.,0.));
#259=DIRECTION('ref_axis',(-1.,0.,0.));
#260=DIRECTION('',(0.707106781186548,0.707106781186547,8.65956056235494E-17));
#261=DIRECTION('center_axis',(0.,-1.,0.));
#262=DIRECTION('ref_axis',(-1.,0.,0.));
#263=DIRECTION('center_axis',(0.,-1.,0.));
#264=DIRECTION('ref_axis',(-1.,0.,0.));
#265=DIRECTION('center_axis',(0.,-1.,0.));
#266=DIRECTION('ref_axis',(1.,0.,0.));
#267=DIRECTION('',(0.,1.,0.));
#268=DIRECTION('center_axis',(0.,1.,0.));
#269=DIRECTION('ref_axis',(1.,0.,0.));
#270=DIRECTION('center_axis',(0.,-1.,0.));
#271=DIRECTION('ref_axis',(0.,0.,-1.));
#272=DIRECTION('center_axis',(0.707106781186548,0.707106781186548,-1.39563774105224E-16));
#273=DIRECTION('ref_axis',(-1.97372982155583E-16,0.,-1.));
#274=DIRECTION('',(1.97372982155583E-16,0.,1.));
#275=DIRECTION('',(0.577350269189626,-0.577350269189625,0.577350269189626));
#276=DIRECTION('',(-1.97372982155583E-16,0.,-1.));
#277=DIRECTION('',(0.577350269189626,-0.577350269189625,-0.577350269189626));
#278=DIRECTION('center_axis',(9.59500946973418E-17,0.707106781186548,0.707106781186547));
#279=DIRECTION('ref_axis',(1.,0.,-1.35693925231964E-16));
#280=DIRECTION('',(-1.,0.,1.35693925231964E-16));
#281=DIRECTION('',(-0.577350269189626,-0.577350269189625,0.577350269189626));
#282=DIRECTION('',(1.,0.,-1.35693925231964E-16));
#283=DIRECTION('center_axis',(-0.707106781186548,0.707106781186547,3.48909435263061E-17));
#284=DIRECTION('ref_axis',(4.93432455388958E-17,0.,1.));
#285=DIRECTION('',(-4.93432455388958E-17,0.,-1.));
#286=DIRECTION('',(-0.577350269189626,-0.577350269189625,-0.577350269189626));
#287=DIRECTION('',(4.93432455388958E-17,0.,1.));
#288=DIRECTION('center_axis',(1.1165101928418E-15,0.707106781186548,-0.707106781186548));
#289=DIRECTION('ref_axis',(-1.,0.,-1.57898385724467E-15));
#290=DIRECTION('',(-1.,0.,-1.57898385724467E-15));
#291=DIRECTION('',(1.,0.,1.57898385724467E-15));
#292=DIRECTION('center_axis',(0.,1.,0.));
#293=DIRECTION('ref_axis',(0.,0.,1.));
#294=DIRECTION('center_axis',(0.,1.,0.));
#295=DIRECTION('ref_axis',(0.,0.,1.));
#296=CARTESIAN_POINT('',(0.,0.,0.));
#297=CARTESIAN_POINT('Origin',(20.,1.8,-5.50000000000001));
#298=CARTESIAN_POINT('',(21.15,1.6,-5.50000000000001));
#299=CARTESIAN_POINT('Origin',(20.,1.6,-5.50000000000001));
#300=CARTESIAN_POINT('',(21.55,2.,-5.50000000000001));
#301=CARTESIAN_POINT('',(21.35,1.8,-5.50000000000001));
#302=CARTESIAN_POINT('',(18.45,2.,-5.50000000000001));
#303=CARTESIAN_POINT('Origin',(20.,2.,-5.50000000000001));
#304=CARTESIAN_POINT('Origin',(20.,2.,-5.50000000000001));
#305=CARTESIAN_POINT('Origin',(20.,2.8,-5.50000000000001));
#306=CARTESIAN_POINT('',(18.45,2.8,-5.50000000000001));
#307=CARTESIAN_POINT('',(18.45,2.8,-5.50000000000001));
#308=CARTESIAN_POINT('Origin',(20.,2.8,-5.50000000000001));
#309=CARTESIAN_POINT('Origin',(20.,1.6,-5.50000000000001));
#310=CARTESIAN_POINT('Origin',(5.5,1.8,-20.0000000000001));
#311=CARTESIAN_POINT('',(6.65,1.6,-20.0000000000001));
#312=CARTESIAN_POINT('Origin',(5.5,1.6,-20.0000000000001));
#313=CARTESIAN_POINT('',(7.05,2.,-20.0000000000001));
#314=CARTESIAN_POINT('',(6.85,1.8,-20.0000000000001));
#315=CARTESIAN_POINT('',(3.95,2.,-20.0000000000001));
#316=CARTESIAN_POINT('Origin',(5.5,2.,-20.0000000000001));
#317=CARTESIAN_POINT('Origin',(5.5,2.,-20.0000000000001));
#318=CARTESIAN_POINT('Origin',(5.5,2.8,-20.0000000000001));
#319=CARTESIAN_POINT('',(3.95,2.8,-20.0000000000001));
#320=CARTESIAN_POINT('',(3.95,2.8,-20.0000000000001));
#321=CARTESIAN_POINT('Origin',(5.5,2.8,-20.0000000000001));
#322=CARTESIAN_POINT('Origin',(5.5,1.6,-20.0000000000001));
#323=CARTESIAN_POINT('Origin',(23.8,3.,-7.12500000000001));
#324=CARTESIAN_POINT('',(23.6,3.2,-23.6));
#325=CARTESIAN_POINT('',(23.6,3.2,-1.90000000000001));
#326=CARTESIAN_POINT('',(23.6,3.2,-7.12500000000001));
#327=CARTESIAN_POINT('',(24.,2.8,-1.5));
#328=CARTESIAN_POINT('',(23.6,3.2,-1.90000000000001));
#329=CARTESIAN_POINT('',(24.,2.8,-24.));
#330=CARTESIAN_POINT('',(24.,2.8,-1.5));
#331=CARTESIAN_POINT('',(23.6,3.2,-23.6));
#332=CARTESIAN_POINT('Origin',(7.125,3.,-1.7));
#333=CARTESIAN_POINT('',(1.9,3.2,-1.9));
#334=CARTESIAN_POINT('',(7.125,3.2,-1.9));
#335=CARTESIAN_POINT('',(1.5,2.8,-1.5));
#336=CARTESIAN_POINT('',(1.9,3.2,-1.9));
#337=CARTESIAN_POINT('',(1.5,2.8,-1.5));
#338=CARTESIAN_POINT('Origin',(1.7,3.,-18.375));
#339=CARTESIAN_POINT('',(1.9,3.2,-23.6));
#340=CARTESIAN_POINT('',(1.9,3.2,-18.375));
#341=CARTESIAN_POINT('',(1.5,2.8,-24.));
#342=CARTESIAN_POINT('',(1.9,3.2,-23.6));
#343=CARTESIAN_POINT('',(1.5,2.8,-24.));
#344=CARTESIAN_POINT('Origin',(18.375,3.,-23.8));
#345=CARTESIAN_POINT('',(24.,2.8,-24.));
#346=CARTESIAN_POINT('',(18.375,3.2,-23.6));
#347=CARTESIAN_POINT('Origin',(12.75,3.2,-12.75));
#348=CARTESIAN_POINT('Origin',(12.75,2.8,-12.75));
#349=UNCERTAINTY_MEASURE_WITH_UNIT(LENGTH_MEASURE(0.01),#353,
'DISTANCE_ACCURACY_VALUE',
'Maximum model space distance between geometric entities at asserted c
onnectivities');
#350=UNCERTAINTY_MEASURE_WITH_UNIT(LENGTH_MEASURE(0.01),#353,
'DISTANCE_ACCURACY_VALUE',
'Maximum model space distance between geometric entities at asserted c
onnectivities');
#351=(
GEOMETRIC_REPRESENTATION_CONTEXT(3)
GLOBAL_UNCERTAINTY_ASSIGNED_CONTEXT((#349))
GLOBAL_UNIT_ASSIGNED_CONTEXT((#353,#355,#356))
REPRESENTATION_CONTEXT('','3D')
);
#352=(
GEOMETRIC_REPRESENTATION_CONTEXT(3)
GLOBAL_UNCERTAINTY_ASSIGNED_CONTEXT((#350))
GLOBAL_UNIT_ASSIGNED_CONTEXT((#353,#355,#356))
REPRESENTATION_CONTEXT('','3D')
);
#353=(
LENGTH_UNIT()
NAMED_UNIT(*)
SI_UNIT(.MILLI.,.METRE.)
);
#354=(
LENGTH_UNIT()
NAMED_UNIT(*)
SI_UNIT(.CENTI.,.METRE.)
);
#355=(
NAMED_UNIT(*)
PLANE_ANGLE_UNIT()
SI_UNIT($,.RADIAN.)
);
#356=(
NAMED_UNIT(*)
SI_UNIT($,.STERADIAN.)
SOLID_ANGLE_UNIT()
);
#357=SHAPE_DEFINITION_REPRESENTATION(#358,#359);
#358=PRODUCT_DEFINITION_SHAPE('',$,#361);
#359=SHAPE_REPRESENTATION('',(#217),#351);
#360=PRODUCT_DEFINITION_CONTEXT('part definition',#365,'design');
#361=PRODUCT_DEFINITION('chess-board-topcaps','chess-board-topcaps',#362,
#360);
#362=PRODUCT_DEFINITION_FORMATION('',$,#367);
#363=PRODUCT_RELATED_PRODUCT_CATEGORY('chess-board-topcaps',
'chess-board-topcaps',(#367));
#364=APPLICATION_PROTOCOL_DEFINITION('international standard',
'automotive_design',2009,#365);
#365=APPLICATION_CONTEXT(
'Core Data for Automotive Mechanical Design Process');
#366=PRODUCT_CONTEXT('part definition',#365,'mechanical');
#367=PRODUCT('chess-board-topcaps','chess-board-topcaps',$,(#366));
#368=PRESENTATION_STYLE_ASSIGNMENT((#369));
#369=SURFACE_STYLE_USAGE(.BOTH.,#372);
#370=SURFACE_STYLE_RENDERING_WITH_PROPERTIES($,#376,(#371));
#371=SURFACE_STYLE_TRANSPARENT(0.);
#372=SURFACE_SIDE_STYLE('',(#373,#370));
#373=SURFACE_STYLE_FILL_AREA(#374);
#374=FILL_AREA_STYLE('',(#375));
#375=FILL_AREA_STYLE_COLOUR('',#376);
#376=COLOUR_RGB('',0.749019607843137,0.749019607843137,0.749019607843137);
ENDSEC;
END-ISO-10303-21;
