999
"DXF R12 Output" (www.mydxf.blogspot.com)
 0 
SECTION
 2 
HEADER
 9 
$ACADVER
 1 
AC1009
 9 
$EXTMIN
 10 
 0 
 20 
 0 
 9 
$EXTMAX
 10 
 8.5 
 20 
 11 
 0 
ENDSEC
 0 
SECTION
 2 
ENTITIES
0
POLYLINE
8
Layer 1
62
7
70
1
10
0.000000
20
0.000000
66
1
0
VERTEX
8
Layer 1
10
22.595046
20
14.903372
70
0
0
VERTEX
8
Layer 1
10
22.854526
20
14.300738
70
0
0
VERTEX
8
Layer 1
10
23.420752
20
13.659051
70
0
0
VERTEX
8
Layer 1
10
24.061695
20
13.080315
70
0
0
VERTEX
8
Layer 1
10
24.844199
20
12.918338
70
0
0
VERTEX
8
Layer 1
10
25.325121
20
12.885738
70
0
0
VERTEX
8
Layer 1
10
25.668704
20
13.004489
70
0
0
VERTEX
8
Layer 1
10
26.603653
20
14.162658
70
0
0
VERTEX
8
Layer 1
10
27.114419
20
14.935518
70
0
0
VERTEX
8
Layer 1
10
27.187930
20
15.173121
70
0
0
VERTEX
8
Layer 1
10
27.114695
20
15.332393
70
0
0
VERTEX
8
Layer 1
10
26.451499
20
15.478609
70
0
0
VERTEX
8
Layer 1
10
24.971850
20
15.499498
70
0
0
VERTEX
8
Layer 1
10
22.735880
20
15.424982
70
0
0
VERTEX
8
Layer 1
10
22.514984
20
15.248007
70
0
0
VERTEX
8
Layer 1
10
22.595046
20
14.903372
70
0
0
VERTEX
8
Layer 1
10
22.595046
20
14.903372
70
0
0
SEQEND
8
Layer 1
0
POLYLINE
8
Layer 1
62
7
70
1
10
0.000000
20
0.000000
66
1
0
VERTEX
8
Layer 1
10
3.857437
20
13.567912
70
0
0
VERTEX
8
Layer 1
10
5.357050
20
11.907313
70
0
0
VERTEX
8
Layer 1
10
5.650406
20
11.766200
70
0
0
VERTEX
8
Layer 1
10
5.894036
20
11.872634
70
0
0
VERTEX
8
Layer 1
10
6.257749
20
12.291314
70
0
0
VERTEX
8
Layer 1
10
6.544455
20
13.804220
70
0
0
VERTEX
8
Layer 1
10
6.666686
20
14.784302
70
0
0
VERTEX
8
Layer 1
10
6.495284
20
15.287588
70
0
0
VERTEX
8
Layer 1
10
5.839318
20
15.473009
70
0
0
VERTEX
8
Layer 1
10
4.507857
20
15.499498
70
0
0
VERTEX
8
Layer 1
10
3.198055
20
15.469316
70
0
0
VERTEX
8
Layer 1
10
2.693702
20
15.258049
70
0
0
VERTEX
8
Layer 1
10
2.933822
20
14.684610
70
0
0
VERTEX
8
Layer 1
10
3.857437
20
13.567912
70
0
0
VERTEX
8
Layer 1
10
3.857437
20
13.567912
70
0
0
SEQEND
8
Layer 1
0
POLYLINE
8
Layer 1
62
7
70
1
10
0.000000
20
0.000000
66
1
0
VERTEX
8
Layer 1
10
14.856805
20
14.037766
70
0
0
VERTEX
8
Layer 1
10
14.963958
20
12.698237
70
0
0
VERTEX
8
Layer 1
10
15.461222
20
12.091916
70
0
0
VERTEX
8
Layer 1
10
16.032151
20
11.696516
70
0
0
VERTEX
8
Layer 1
10
16.654970
20
11.833425
70
0
0
VERTEX
8
Layer 1
10
17.024166
20
11.990745
70
0
0
VERTEX
8
Layer 1
10
17.240535
20
12.245877
70
0
0
VERTEX
8
Layer 1
10
17.550688
20
13.779275
70
0
0
VERTEX
8
Layer 1
10
17.680018
20
14.773779
70
0
0
VERTEX
8
Layer 1
10
17.594391
20
15.284470
70
0
0
VERTEX
8
Layer 1
10
17.177940
20
15.472619
70
0
0
VERTEX
8
Layer 1
10
16.314804
20
15.499498
70
0
0
VERTEX
8
Layer 1
10
15.448197
20
15.476658
70
0
0
VERTEX
8
Layer 1
10
15.007453
20
15.316781
70
0
0
VERTEX
8
Layer 1
10
14.855885
20
14.882830
70
0
0
VERTEX
8
Layer 1
10
14.856805
20
14.037766
70
0
0
VERTEX
8
Layer 1
10
14.856805
20
14.037766
70
0
0
SEQEND
8
Layer 1
0
POLYLINE
8
Layer 1
62
7
70
1
10
0.000000
20
0.000000
66
1
0
VERTEX
8
Layer 1
10
11.244461
20
13.983659
70
0
0
VERTEX
8
Layer 1
10
11.305227
20
13.088614
70
0
0
VERTEX
8
Layer 1
10
11.542297
20
12.595423
70
0
0
VERTEX
8
Layer 1
10
12.049585
20
12.381365
70
0
0
VERTEX
8
Layer 1
10
12.921007
20
12.323716
70
0
0
VERTEX
8
Layer 1
10
14.215765
20
12.317610
70
0
0
VERTEX
8
Layer 1
10
14.600715
20
12.437671
70
0
0
VERTEX
8
Layer 1
10
14.799603
20
12.743670
70
0
0
VERTEX
8
Layer 1
10
14.791934
20
14.039129
70
0
0
VERTEX
8
Layer 1
10
14.740170
20
14.883404
70
0
0
VERTEX
8
Layer 1
10
14.535687
20
15.316951
70
0
0
VERTEX
8
Layer 1
10
14.009977
20
15.476679
70
0
0
VERTEX
8
Layer 1
10
12.994536
20
15.499498
70
0
0
VERTEX
8
Layer 1
10
11.979834
20
15.475813
70
0
0
VERTEX
8
Layer 1
10
11.459300
20
15.310018
70
0
0
VERTEX
8
Layer 1
10
11.268866
20
14.860003
70
0
0
VERTEX
8
Layer 1
10
11.244461
20
13.983659
70
0
0
VERTEX
8
Layer 1
10
11.244461
20
13.983659
70
0
0
SEQEND
8
Layer 1
0
POLYLINE
8
Layer 1
62
7
70
1
10
0.000000
20
0.000000
66
1
0
VERTEX
8
Layer 1
10
8.522026
20
13.660154
70
0
0
VERTEX
8
Layer 1
10
8.572307
20
12.601631
70
0
0
VERTEX
8
Layer 1
10
8.729355
20
12.089509
70
0
0
VERTEX
8
Layer 1
10
9.119428
20
11.980434
70
0
0
VERTEX
8
Layer 1
10
9.868785
20
12.131053
70
0
0
VERTEX
8
Layer 1
10
10.629584
20
12.346025
70
0
0
VERTEX
8
Layer 1
10
11.019734
20
12.610351
70
0
0
VERTEX
8
Layer 1
10
11.162129
20
13.097432
70
0
0
VERTEX
8
Layer 1
10
11.179666
20
13.980672
70
0
0
VERTEX
8
Layer 1
10
11.155510
20
14.858743
70
0
0
VERTEX
8
Layer 1
10
11.006060
20
15.309644
70
0
0
VERTEX
8
Layer 1
10
10.604055
20
15.475766
70
0
0
VERTEX
8
Layer 1
10
9.822238
20
15.499498
70
0
0
VERTEX
8
Layer 1
10
9.041315
20
15.470758
70
0
0
VERTEX
8
Layer 1
10
8.645568
20
15.269580
70
0
0
VERTEX
8
Layer 1
10
8.513104
20
14.723525
70
0
0
VERTEX
8
Layer 1
10
8.522026
20
13.660154
70
0
0
VERTEX
8
Layer 1
10
8.522026
20
13.660154
70
0
0
SEQEND
8
Layer 1
0
POLYLINE
8
Layer 1
62
7
70
0
10
0.000000
20
0.000000
66
1
0
VERTEX
8
Layer 1
10
7.333154
20
11.856887
70
0
0
VERTEX
8
Layer 1
10
8.216134
20
11.644519
70
0
0
VERTEX
8
Layer 1
10
8.419675
20
11.696462
70
0
0
VERTEX
8
Layer 1
10
8.457596
20
13.645977
70
0
0
VERTEX
8
Layer 1
10
8.316686
20
15.267807
70
0
0
VERTEX
8
Layer 1
10
8.085147
20
15.470536
70
0
0
VERTEX
8
Layer 1
10
7.644594
20
15.499498
70
0
0
VERTEX
8
Layer 1
10
7.200586
20
15.473043
70
0
0
VERTEX
8
Layer 1
10
6.944860
20
15.287861
70
0
0
VERTEX
8
Layer 1
10
6.610453
20
13.806402
70
0
0
VERTEX
8
Layer 1
10
6.467890
20
12.823574
70
0
0
VERTEX
8
Layer 1
10
6.495651
20
12.292891
70
0
0
VERTEX
8
Layer 1
10
6.761488
20
12.031584
70
0
0
VERTEX
8
Layer 1
10
7.333154
20
11.856887
70
0
0
VERTEX
8
Layer 1
10
7.333154
20
11.856887
70
0
0
SEQEND
8
Layer 1
0
POLYLINE
8
Layer 1
62
7
70
0
10
0.000000
20
0.000000
66
1
0
VERTEX
8
Layer 1
10
18.309744
20
11.696969
70
0
0
VERTEX
8
Layer 1
10
18.893123
20
11.526862
70
0
0
VERTEX
8
Layer 1
10
19.266496
20
11.657613
70
0
0
VERTEX
8
Layer 1
10
19.520636
20
12.242694
70
0
0
VERTEX
8
Layer 1
10
19.746321
20
13.435577
70
0
0
VERTEX
8
Layer 1
10
19.915549
20
14.628781
70
0
0
VERTEX
8
Layer 1
10
19.891566
20
15.241507
70
0
0
VERTEX
8
Layer 1
10
19.602019
20
15.467249
70
0
0
VERTEX
8
Layer 1
10
18.974556
20
15.499498
70
0
0
VERTEX
8
Layer 1
10
18.337925
20
15.472596
70
0
0
VERTEX
8
Layer 1
10
17.984201
20
15.284288
70
0
0
VERTEX
8
Layer 1
10
17.786023
20
14.773164
70
0
0
VERTEX
8
Layer 1
10
17.616029
20
13.777819
70
0
0
VERTEX
8
Layer 1
10
17.478102
20
12.776861
70
0
0
VERTEX
8
Layer 1
10
17.504388
20
12.226454
70
0
0
VERTEX
8
Layer 1
10
17.759923
20
11.931516
70
0
0
VERTEX
8
Layer 1
10
18.309744
20
11.696969
70
0
0
VERTEX
8
Layer 1
10
18.309744
20
11.696969
70
0
0
SEQEND
8
Layer 1
0
POLYLINE
8
Layer 1
62
7
70
1
10
0.000000
20
0.000000
66
1
0
VERTEX
8
Layer 1
10
26.089867
20
12.124137
70
0
0
VERTEX
8
Layer 1
10
26.338527
20
11.736871
70
0
0
VERTEX
8
Layer 1
10
26.632479
20
11.521634
70
0
0
VERTEX
8
Layer 1
10
28.116102
20
11.297107
70
0
0
VERTEX
8
Layer 1
10
29.064492
20
11.237815
70
0
0
VERTEX
8
Layer 1
10
29.551502
20
11.428512
70
0
0
VERTEX
8
Layer 1
10
29.730927
20
12.058614
70
0
0
VERTEX
8
Layer 1
10
29.756560
20
13.317537
70
0
0
VERTEX
8
Layer 1
10
29.739997
20
14.578983
70
0
0
VERTEX
8
Layer 1
10
29.624062
20
15.226752
70
0
0
VERTEX
8
Layer 1
10
29.309382
20
15.465404
70
0
0
VERTEX
8
Layer 1
10
28.696583
20
15.499498
70
0
0
VERTEX
8
Layer 1
10
28.068686
20
15.478327
70
0
0
VERTEX
8
Layer 1
10
27.648320
20
15.330131
70
0
0
VERTEX
8
Layer 1
10
26.670347
20
14.144567
70
0
0
VERTEX
8
Layer 1
10
25.873093
20
12.875815
70
0
0
VERTEX
8
Layer 1
10
25.881937
20
12.530049
70
0
0
VERTEX
8
Layer 1
10
26.089867
20
12.124137
70
0
0
VERTEX
8
Layer 1
10
26.089867
20
12.124137
70
0
0
SEQEND
8
Layer 1
0
POLYLINE
8
Layer 1
62
7
70
0
10
0.000000
20
0.000000
66
1
0
VERTEX
8
Layer 1
10
19.910623
20
11.096994
70
0
0
VERTEX
8
Layer 1
10
20.358157
20
10.887970
70
0
0
VERTEX
8
Layer 1
10
20.954782
20
11.007941
70
0
0
VERTEX
8
Layer 1
10
21.323169
20
11.133278
70
0
0
VERTEX
8
Layer 1
10
21.571347
20
11.355119
70
0
0
VERTEX
8
Layer 1
10
22.158458
20
12.736544
70
0
0
VERTEX
8
Layer 1
10
22.641471
20
14.171690
70
0
0
VERTEX
8
Layer 1
10
22.529351
20
14.894920
70
0
0
VERTEX
8
Layer 1
10
22.207965
20
15.423925
70
0
0
VERTEX
8
Layer 1
10
21.226120
20
15.499498
70
0
0
VERTEX
8
Layer 1
10
20.589804
20
15.467164
70
0
0
VERTEX
8
Layer 1
10
20.230298
20
15.240832
70
0
0
VERTEX
8
Layer 1
10
20.014939
20
14.626502
70
0
0
VERTEX
8
Layer 1
10
19.811068
20
13.430174
70
0
0
VERTEX
8
Layer 1
10
19.581164
20
11.586535
70
0
0
VERTEX
8
Layer 1
10
19.671306
20
11.281870
70
0
0
VERTEX
8
Layer 1
10
19.910623
20
11.096994
70
0
0
VERTEX
8
Layer 1
10
19.910623
20
11.096994
70
0
0
SEQEND
8
Layer 1
0
POLYLINE
8
Layer 1
62
7
70
1
10
0.000000
20
0.000000
66
1
0
VERTEX
8
Layer 1
10
1.123399
20
11.764417
70
0
0
VERTEX
8
Layer 1
10
2.290538
20
11.286416
70
0
0
VERTEX
8
Layer 1
10
3.786499
20
11.249007
70
0
0
VERTEX
8
Layer 1
10
5.151910
20
11.299495
70
0
0
VERTEX
8
Layer 1
10
5.405190
20
11.436779
70
0
0
VERTEX
8
Layer 1
10
5.254552
20
11.813996
70
0
0
VERTEX
8
Layer 1
10
3.792527
20
13.544013
70
0
0
VERTEX
8
Layer 1
10
2.190706
20
15.255062
70
0
0
VERTEX
8
Layer 1
10
1.695044
20
15.468943
70
0
0
VERTEX
8
Layer 1
10
1.061501
20
15.499498
70
0
0
VERTEX
8
Layer 1
10
0.454217
20
15.474625
70
0
0
VERTEX
8
Layer 1
10
0.142369
20
15.300520
70
0
0
VERTEX
8
Layer 1
10
0.027478
20
14.827947
70
0
0
VERTEX
8
Layer 1
10
0.011065
20
13.907674
70
0
0
VERTEX
8
Layer 1
10
0.028445
20
12.978785
70
0
0
VERTEX
8
Layer 1
10
0.150106
20
12.445899
70
0
0
VERTEX
8
Layer 1
10
0.480331
20
12.108087
70
0
0
VERTEX
8
Layer 1
10
1.123399
20
11.764417
70
0
0
VERTEX
8
Layer 1
10
1.123399
20
11.764417
70
0
0
SEQEND
8
Layer 1
0
POLYLINE
8
Layer 1
62
7
70
0
10
0.000000
20
0.000000
66
1
0
VERTEX
8
Layer 1
10
22.499924
20
10.697442
70
0
0
VERTEX
8
Layer 1
10
23.285368
20
10.304593
70
0
0
VERTEX
8
Layer 1
10
23.629972
20
10.395137
70
0
0
VERTEX
8
Layer 1
10
23.872758
20
10.694938
70
0
0
VERTEX
8
Layer 1
10
23.945478
20
11.766897
70
0
0
VERTEX
8
Layer 1
10
23.909148
20
12.896381
70
0
0
VERTEX
8
Layer 1
10
23.388586
20
13.598858
70
0
0
VERTEX
8
Layer 1
10
23.032022
20
13.939933
70
0
0
VERTEX
8
Layer 1
10
22.790832
20
13.960047
70
0
0
VERTEX
8
Layer 1
10
22.214162
20
12.700512
70
0
0
VERTEX
8
Layer 1
10
21.896227
20
11.808783
70
0
0
VERTEX
8
Layer 1
10
21.820015
20
11.302887
70
0
0
VERTEX
8
Layer 1
10
22.012318
20
10.995036
70
0
0
VERTEX
8
Layer 1
10
22.499924
20
10.697442
70
0
0
VERTEX
8
Layer 1
10
22.499924
20
10.697442
70
0
0
SEQEND
8
Layer 1
0
POLYLINE
8
Layer 1
62
7
70
0
10
0.000000
20
0.000000
66
1
0
VERTEX
8
Layer 1
10
24.631896
20
10.473582
70
0
0
VERTEX
8
Layer 1
10
25.284142
20
10.450696
70
0
0
VERTEX
8
Layer 1
10
25.856289
20
10.902717
70
0
0
VERTEX
8
Layer 1
10
26.297150
20
11.450444
70
0
0
VERTEX
8
Layer 1
10
26.030401
20
12.097502
70
0
0
VERTEX
8
Layer 1
10
25.594308
20
12.689582
70
0
0
VERTEX
8
Layer 1
10
24.849771
20
12.852468
70
0
0
VERTEX
8
Layer 1
10
24.388931
20
12.886780
70
0
0
VERTEX
8
Layer 1
10
24.147849
20
12.784389
70
0
0
VERTEX
8
Layer 1
10
24.010062
20
11.759720
70
0
0
VERTEX
8
Layer 1
10
24.054969
20
10.710878
70
0
0
VERTEX
8
Layer 1
10
24.247781
20
10.551074
70
0
0
VERTEX
8
Layer 1
10
24.631896
20
10.473582
70
0
0
VERTEX
8
Layer 1
10
24.631896
20
10.473582
70
0
0
SEQEND
8
Layer 1
0
POLYLINE
8
Layer 1
62
7
70
0
10
0.000000
20
0.000000
66
1
0
VERTEX
8
Layer 1
10
12.250957
20
11.300351
70
0
0
VERTEX
8
Layer 1
10
12.904142
20
10.440180
70
0
0
VERTEX
8
Layer 1
10
13.157455
20
10.326712
70
0
0
VERTEX
8
Layer 1
10
13.381996
20
10.454753
70
0
0
VERTEX
8
Layer 1
10
13.833782
20
11.285142
70
0
0
VERTEX
8
Layer 1
10
14.095051
20
11.833295
70
0
0
VERTEX
8
Layer 1
10
14.087714
20
12.117434
70
0
0
VERTEX
8
Layer 1
10
13.726787
20
12.228836
70
0
0
VERTEX
8
Layer 1
10
12.927284
20
12.258782
70
0
0
VERTEX
8
Layer 1
10
12.131378
20
12.258539
70
0
0
VERTEX
8
Layer 1
10
11.795625
20
12.158622
70
0
0
VERTEX
8
Layer 1
10
11.856620
20
11.869177
70
0
0
VERTEX
8
Layer 1
10
12.250957
20
11.300351
70
0
0
VERTEX
8
Layer 1
10
12.250957
20
11.300351
70
0
0
SEQEND
8
Layer 1
0
POLYLINE
8
Layer 1
62
7
70
0
10
0.000000
20
0.000000
66
1
0
VERTEX
8
Layer 1
10
8.504063
20
10.606589
70
0
0
VERTEX
8
Layer 1
10
8.597244
20
10.062837
70
0
0
VERTEX
8
Layer 1
10
8.750494
20
9.811403
70
0
0
VERTEX
8
Layer 1
10
9.066893
20
9.791729
70
0
0
VERTEX
8
Layer 1
10
9.649521
20
9.943262
70
0
0
VERTEX
8
Layer 1
10
10.555069
20
10.329847
70
0
0
VERTEX
8
Layer 1
10
10.893081
20
11.300350
70
0
0
VERTEX
8
Layer 1
10
11.013679
20
11.912860
70
0
0
VERTEX
8
Layer 1
10
10.945027
20
12.196104
70
0
0
VERTEX
8
Layer 1
10
10.589158
20
12.221248
70
0
0
VERTEX
8
Layer 1
10
9.848107
20
12.059459
70
0
0
VERTEX
8
Layer 1
10
8.466883
20
11.652065
70
0
0
VERTEX
8
Layer 1
10
8.504063
20
10.606589
70
0
0
VERTEX
8
Layer 1
10
8.504063
20
10.606589
70
0
0
SEQEND
8
Layer 1
0
POLYLINE
8
Layer 1
62
7
70
0
10
0.000000
20
0.000000
66
1
0
VERTEX
8
Layer 1
10
14.146620
20
9.729005
70
0
0
VERTEX
8
Layer 1
10
14.583622
20
9.406910
70
0
0
VERTEX
8
Layer 1
10
14.863377
20
9.350763
70
0
0
VERTEX
8
Layer 1
10
15.106564
20
9.606660
70
0
0
VERTEX
8
Layer 1
10
15.433862
20
10.220697
70
0
0
VERTEX
8
Layer 1
10
15.845221
20
11.449624
70
0
0
VERTEX
8
Layer 1
10
15.739086
20
11.738893
70
0
0
VERTEX
8
Layer 1
10
15.423820
20
12.038604
70
0
0
VERTEX
8
Layer 1
10
14.904720
20
12.443140
70
0
0
VERTEX
8
Layer 1
10
14.632184
20
12.380969
70
0
0
VERTEX
8
Layer 1
10
14.367469
20
12.138149
70
0
0
VERTEX
8
Layer 1
10
13.903113
20
11.278145
70
0
0
VERTEX
8
Layer 1
10
13.560330
20
10.362351
70
0
0
VERTEX
8
Layer 1
10
13.725926
20
10.082988
70
0
0
VERTEX
8
Layer 1
10
14.146620
20
9.729005
70
0
0
VERTEX
8
Layer 1
10
14.146620
20
9.729005
70
0
0
SEQEND
8
Layer 1
0
POLYLINE
8
Layer 1
62
7
70
0
10
0.000000
20
0.000000
66
1
0
VERTEX
8
Layer 1
10
16.896234
20
10.366464
70
0
0
VERTEX
8
Layer 1
10
17.399886
20
9.839560
70
0
0
VERTEX
8
Layer 1
10
17.732757
20
9.663215
70
0
0
VERTEX
8
Layer 1
10
18.043334
20
9.836786
70
0
0
VERTEX
8
Layer 1
10
18.480105
20
10.359635
70
0
0
VERTEX
8
Layer 1
10
18.888751
20
10.902673
70
0
0
VERTEX
8
Layer 1
10
19.002448
20
11.217571
70
0
0
VERTEX
8
Layer 1
10
18.800929
20
11.424826
70
0
0
VERTEX
8
Layer 1
10
18.263928
20
11.644934
70
0
0
VERTEX
8
Layer 1
10
17.354687
20
11.927801
70
0
0
VERTEX
8
Layer 1
10
16.681980
20
11.774259
70
0
0
VERTEX
8
Layer 1
10
16.326942
20
11.487174
70
0
0
VERTEX
8
Layer 1
10
16.230914
20
11.244834
70
0
0
VERTEX
8
Layer 1
10
16.896234
20
10.366464
70
0
0
VERTEX
8
Layer 1
10
16.896234
20
10.366464
70
0
0
SEQEND
8
Layer 1
0
POLYLINE
8
Layer 1
62
7
70
0
10
0.000000
20
0.000000
66
1
0
VERTEX
8
Layer 1
10
5.463717
20
10.334324
70
0
0
VERTEX
8
Layer 1
10
5.581329
20
9.490293
70
0
0
VERTEX
8
Layer 1
10
5.970902
20
9.060668
70
0
0
VERTEX
8
Layer 1
10
6.623969
20
8.688918
70
0
0
VERTEX
8
Layer 1
10
7.705815
20
9.165712
70
0
0
VERTEX
8
Layer 1
10
8.445360
20
9.710490
70
0
0
VERTEX
8
Layer 1
10
8.440101
20
10.596026
70
0
0
VERTEX
8
Layer 1
10
8.201566
20
11.452818
70
0
0
VERTEX
8
Layer 1
10
7.308180
20
11.796398
70
0
0
VERTEX
8
Layer 1
10
6.382905
20
11.992023
70
0
0
VERTEX
8
Layer 1
10
5.921149
20
11.813140
70
0
0
VERTEX
8
Layer 1
10
5.464039
20
11.409631
70
0
0
VERTEX
8
Layer 1
10
5.463715
20
10.334324
70
0
0
VERTEX
8
Layer 1
10
5.463717
20
10.334324
70
0
0
SEQEND
8
Layer 1
0
POLYLINE
8
Layer 1
62
7
70
0
10
0.000000
20
0.000000
66
1
0
VERTEX
8
Layer 1
10
11.253123
20
9.701351
70
0
0
VERTEX
8
Layer 1
10
11.795931
20
9.318560
70
0
0
VERTEX
8
Layer 1
10
12.352969
20
9.735541
70
0
0
VERTEX
8
Layer 1
10
12.664912
20
10.069353
70
0
0
VERTEX
8
Layer 1
10
12.750724
20
10.342503
70
0
0
VERTEX
8
Layer 1
10
12.178553
20
11.289583
70
0
0
VERTEX
8
Layer 1
10
11.614230
20
11.911760
70
0
0
VERTEX
8
Layer 1
10
11.299285
20
12.120896
70
0
0
VERTEX
8
Layer 1
10
11.119563
20
11.918561
70
0
0
VERTEX
8
Layer 1
10
10.960911
20
11.306324
70
0
0
VERTEX
8
Layer 1
10
10.811268
20
10.289038
70
0
0
VERTEX
8
Layer 1
10
11.253123
20
9.701351
70
0
0
VERTEX
8
Layer 1
10
11.253123
20
9.701351
70
0
0
SEQEND
8
Layer 1
0
POLYLINE
8
Layer 1
62
7
70
0
10
0.000000
20
0.000000
66
1
0
VERTEX
8
Layer 1
10
3.047204
20
10.033934
70
0
0
VERTEX
8
Layer 1
10
3.814885
20
9.089776
70
0
0
VERTEX
8
Layer 1
10
4.144955
20
9.043463
70
0
0
VERTEX
8
Layer 1
10
4.638033
20
9.173430
70
0
0
VERTEX
8
Layer 1
10
5.357513
20
9.508492
70
0
0
VERTEX
8
Layer 1
10
5.399511
20
10.324195
70
0
0
VERTEX
8
Layer 1
10
5.334764
20
10.841534
70
0
0
VERTEX
8
Layer 1
10
5.147470
20
11.103616
70
0
0
VERTEX
8
Layer 1
10
3.808681
20
11.184700
70
0
0
VERTEX
8
Layer 1
10
2.941832
20
11.146859
70
0
0
VERTEX
8
Layer 1
10
2.573562
20
11.014374
70
0
0
VERTEX
8
Layer 1
10
2.632482
20
10.679361
70
0
0
VERTEX
8
Layer 1
10
3.047204
20
10.033934
70
0
0
VERTEX
8
Layer 1
10
3.047204
20
10.033934
70
0
0
SEQEND
8
Layer 1
0
POLYLINE
8
Layer 1
62
7
70
0
10
0.000000
20
0.000000
66
1
0
VERTEX
8
Layer 1
10
25.643630
20
9.615079
70
0
0
VERTEX
8
Layer 1
10
25.845065
20
9.207361
70
0
0
VERTEX
8
Layer 1
10
26.141887
20
9.030443
70
0
0
VERTEX
8
Layer 1
10
27.848525
20
9.221364
70
0
0
VERTEX
8
Layer 1
10
29.518055
20
9.597079
70
0
0
VERTEX
8
Layer 1
10
29.726747
20
9.859047
70
0
0
VERTEX
8
Layer 1
10
29.756560
20
10.306001
70
0
0
VERTEX
8
Layer 1
10
29.730864
20
10.750482
70
0
0
VERTEX
8
Layer 1
10
29.550995
20
10.995142
70
0
0
VERTEX
8
Layer 1
10
28.112040
20
11.232388
70
0
0
VERTEX
8
Layer 1
10
26.603038
20
11.307494
70
0
0
VERTEX
8
Layer 1
10
26.256807
20
11.167068
70
0
0
VERTEX
8
Layer 1
10
25.907145
20
10.861647
70
0
0
VERTEX
8
Layer 1
10
25.453924
20
10.306321
70
0
0
VERTEX
8
Layer 1
10
25.643630
20
9.615079
70
0
0
VERTEX
8
Layer 1
10
25.643630
20
9.615079
70
0
0
SEQEND
8
Layer 1
0
POLYLINE
8
Layer 1
62
7
70
0
10
0.000000
20
0.000000
66
1
0
VERTEX
8
Layer 1
10
15.486942
20
8.643421
70
0
0
VERTEX
8
Layer 1
10
16.058693
20
8.333743
70
0
0
VERTEX
8
Layer 1
10
16.822487
20
8.404902
70
0
0
VERTEX
8
Layer 1
10
17.524888
20
8.574544
70
0
0
VERTEX
8
Layer 1
10
17.666888
20
8.954238
70
0
0
VERTEX
8
Layer 1
10
17.603438
20
9.433676
70
0
0
VERTEX
8
Layer 1
10
16.867695
20
10.301517
70
0
0
VERTEX
8
Layer 1
10
16.369072
20
10.823896
70
0
0
VERTEX
8
Layer 1
10
16.057930
20
10.983396
70
0
0
VERTEX
8
Layer 1
10
15.803826
20
10.766854
70
0
0
VERTEX
8
Layer 1
10
15.476319
20
10.161105
70
0
0
VERTEX
8
Layer 1
10
15.080805
20
9.112995
70
0
0
VERTEX
8
Layer 1
10
15.183169
20
8.877033
70
0
0
VERTEX
8
Layer 1
10
15.486942
20
8.643421
70
0
0
VERTEX
8
Layer 1
10
15.486942
20
8.643421
70
0
0
SEQEND
8
Layer 1
0
POLYLINE
8
Layer 1
62
7
70
0
10
0.000000
20
0.000000
66
1
0
VERTEX
8
Layer 1
10
20.450853
20
9.802879
70
0
0
VERTEX
8
Layer 1
10
20.653306
20
8.910112
70
0
0
VERTEX
8
Layer 1
10
21.543330
20
8.488478
70
0
0
VERTEX
8
Layer 1
10
22.447708
20
8.199232
70
0
0
VERTEX
8
Layer 1
10
22.750641
20
8.233183
70
0
0
VERTEX
8
Layer 1
10
22.951132
20
8.425555
70
0
0
VERTEX
8
Layer 1
10
23.138427
20
9.245249
70
0
0
VERTEX
8
Layer 1
10
23.192466
20
10.113449
70
0
0
VERTEX
8
Layer 1
10
22.460174
20
10.645355
70
0
0
VERTEX
8
Layer 1
10
21.627630
20
11.040039
70
0
0
VERTEX
8
Layer 1
10
20.979910
20
10.947689
70
0
0
VERTEX
8
Layer 1
10
20.451091
20
10.674447
70
0
0
VERTEX
8
Layer 1
10
20.450853
20
9.802879
70
0
0
VERTEX
8
Layer 1
10
20.450853
20
9.802879
70
0
0
SEQEND
8
Layer 1
0
POLYLINE
8
Layer 1
62
7
70
0
10
0.000000
20
0.000000
66
1
0
VERTEX
8
Layer 1
10
17.822262
20
8.403901
70
0
0
VERTEX
8
Layer 1
10
18.857172
20
8.228868
70
0
0
VERTEX
8
Layer 1
10
19.685022
20
8.222018
70
0
0
VERTEX
8
Layer 1
10
20.113122
20
8.497957
70
0
0
VERTEX
8
Layer 1
10
20.418342
20
8.903024
70
0
0
VERTEX
8
Layer 1
10
20.386037
20
9.800069
70
0
0
VERTEX
8
Layer 1
10
20.255369
20
10.689925
70
0
0
VERTEX
8
Layer 1
10
19.872052
20
11.044677
70
0
0
VERTEX
8
Layer 1
10
19.520186
20
11.162876
70
0
0
VERTEX
8
Layer 1
10
19.263320
20
11.126886
70
0
0
VERTEX
8
Layer 1
10
18.532118
20
10.320936
70
0
0
VERTEX
8
Layer 1
10
17.868288
20
9.433581
70
0
0
VERTEX
8
Layer 1
10
17.731166
20
8.945955
70
0
0
VERTEX
8
Layer 1
10
17.705549
20
8.562445
70
0
0
VERTEX
8
Layer 1
10
17.822262
20
8.403901
70
0
0
VERTEX
8
Layer 1
10
17.822262
20
8.403901
70
0
0
SEQEND
8
Layer 1
0
POLYLINE
8
Layer 1
62
7
70
0
10
0.000000
20
0.000000
66
1
0
VERTEX
8
Layer 1
10
1.461718
20
8.006844
70
0
0
VERTEX
8
Layer 1
10
2.783515
20
7.927274
70
0
0
VERTEX
8
Layer 1
10
3.066809
20
8.063657
70
0
0
VERTEX
8
Layer 1
10
3.332174
20
8.361862
70
0
0
VERTEX
8
Layer 1
10
3.562798
20
8.680408
70
0
0
VERTEX
8
Layer 1
10
3.602908
20
8.959171
70
0
0
VERTEX
8
Layer 1
10
2.979232
20
10.018648
70
0
0
VERTEX
8
Layer 1
10
2.165866
20
11.081112
70
0
0
VERTEX
8
Layer 1
10
1.108776
20
11.699336
70
0
0
VERTEX
8
Layer 1
10
0.474162
20
11.982134
70
0
0
VERTEX
8
Layer 1
10
0.148279
20
11.921033
70
0
0
VERTEX
8
Layer 1
10
0.028216
20
11.376203
70
0
0
VERTEX
8
Layer 1
10
0.011065
20
10.207813
70
0
0
VERTEX
8
Layer 1
10
0.033731
20
9.028338
70
0
0
VERTEX
8
Layer 1
10
0.192396
20
8.405912
70
0
0
VERTEX
8
Layer 1
10
0.623059
20
8.134194
70
0
0
VERTEX
8
Layer 1
10
1.461718
20
8.006844
70
0
0
VERTEX
8
Layer 1
10
1.461718
20
8.006844
70
0
0
SEQEND
8
Layer 1
0
POLYLINE
8
Layer 1
62
7
70
0
10
0.000000
20
0.000000
66
1
0
VERTEX
8
Layer 1
10
24.053775
20
7.754101
70
0
0
VERTEX
8
Layer 1
10
24.667479
20
7.448911
70
0
0
VERTEX
8
Layer 1
10
25.035598
20
7.385651
70
0
0
VERTEX
8
Layer 1
10
25.278596
20
7.580530
70
0
0
VERTEX
8
Layer 1
10
25.516932
20
8.049757
70
0
0
VERTEX
8
Layer 1
10
25.801633
20
8.853674
70
0
0
VERTEX
8
Layer 1
10
25.585259
20
9.586668
70
0
0
VERTEX
8
Layer 1
10
25.238767
20
10.230585
70
0
0
VERTEX
8
Layer 1
10
24.612640
20
10.410972
70
0
0
VERTEX
8
Layer 1
10
23.989568
20
10.479482
70
0
0
VERTEX
8
Layer 1
10
23.664453
20
10.340266
70
0
0
VERTEX
8
Layer 1
10
23.400258
20
10.072451
70
0
0
VERTEX
8
Layer 1
10
23.203621
20
9.240767
70
0
0
VERTEX
8
Layer 1
10
23.112629
20
8.696853
70
0
0
VERTEX
8
Layer 1
10
23.170857
20
8.360687
70
0
0
VERTEX
8
Layer 1
10
24.053775
20
7.754101
70
0
0
VERTEX
8
Layer 1
10
24.053775
20
7.754101
70
0
0
SEQEND
8
Layer 1
0
POLYLINE
8
Layer 1
62
7
70
0
10
0.000000
20
0.000000
66
1
0
VERTEX
8
Layer 1
10
9.661643
20
8.300437
70
0
0
VERTEX
8
Layer 1
10
10.572682
20
7.183279
70
0
0
VERTEX
8
Layer 1
10
10.846524
20
7.091825
70
0
0
VERTEX
8
Layer 1
10
11.190332
20
7.170552
70
0
0
VERTEX
8
Layer 1
10
11.688138
20
7.432003
70
0
0
VERTEX
8
Layer 1
10
11.760278
20
8.234097
70
0
0
VERTEX
8
Layer 1
10
11.692989
20
9.080030
70
0
0
VERTEX
8
Layer 1
10
11.214789
20
9.648351
70
0
0
VERTEX
8
Layer 1
10
10.613541
20
10.069600
70
0
0
VERTEX
8
Layer 1
10
9.684905
20
9.886035
70
0
0
VERTEX
8
Layer 1
10
9.131491
20
9.701303
70
0
0
VERTEX
8
Layer 1
10
8.944597
20
9.474559
70
0
0
VERTEX
8
Layer 1
10
9.122041
20
9.057154
70
0
0
VERTEX
8
Layer 1
10
9.661643
20
8.300437
70
0
0
VERTEX
8
Layer 1
10
9.661643
20
8.300437
70
0
0
SEQEND
8
Layer 1
0
POLYLINE
8
Layer 1
62
7
70
0
10
0.000000
20
0.000000
66
1
0
VERTEX
8
Layer 1
10
12.443602
20
7.377620
70
0
0
VERTEX
8
Layer 1
10
13.079966
20
7.518088
70
0
0
VERTEX
8
Layer 1
10
13.960857
20
8.217256
70
0
0
VERTEX
8
Layer 1
10
14.474233
20
8.722316
70
0
0
VERTEX
8
Layer 1
10
14.661069
20
9.042416
70
0
0
VERTEX
8
Layer 1
10
14.535504
20
9.314126
70
0
0
VERTEX
8
Layer 1
10
14.111677
20
9.674017
70
0
0
VERTEX
8
Layer 1
10
13.424668
20
10.197026
70
0
0
VERTEX
8
Layer 1
10
13.161561
20
10.262036
70
0
0
VERTEX
8
Layer 1
10
12.921735
20
10.181868
70
0
0
VERTEX
8
Layer 1
10
12.397691
20
9.688630
70
0
0
VERTEX
8
Layer 1
10
11.897555
20
9.085136
70
0
0
VERTEX
8
Layer 1
10
11.825082
20
8.233180
70
0
0
VERTEX
8
Layer 1
10
11.919579
20
7.449052
70
0
0
VERTEX
8
Layer 1
10
12.443602
20
7.377620
70
0
0
VERTEX
8
Layer 1
10
12.443602
20
7.377620
70
0
0
SEQEND
8
Layer 1
0
POLYLINE
8
Layer 1
62
7
70
0
10
0.000000
20
0.000000
66
1
0
VERTEX
8
Layer 1
10
27.113694
20
7.041205
70
0
0
VERTEX
8
Layer 1
10
28.815454
20
6.880553
70
0
0
VERTEX
8
Layer 1
10
29.380715
20
6.948731
70
0
0
VERTEX
8
Layer 1
10
29.598000
20
7.029107
70
0
0
VERTEX
8
Layer 1
10
29.709579
20
7.193056
70
0
0
VERTEX
8
Layer 1
10
29.756560
20
8.265440
70
0
0
VERTEX
8
Layer 1
10
29.726765
20
8.960199
70
0
0
VERTEX
8
Layer 1
10
29.518204
20
9.284537
70
0
0
VERTEX
8
Layer 1
10
28.952111
20
9.321929
70
0
0
VERTEX
8
Layer 1
10
27.849718
20
9.155853
70
0
0
VERTEX
8
Layer 1
10
26.136209
20
8.776128
70
0
0
VERTEX
8
Layer 1
10
25.820720
20
8.504242
70
0
0
VERTEX
8
Layer 1
10
25.582697
20
8.037933
70
0
0
VERTEX
8
Layer 1
10
25.404018
20
7.573519
70
0
0
VERTEX
8
Layer 1
10
25.503937
20
7.314888
70
0
0
VERTEX
8
Layer 1
10
27.113694
20
7.041205
70
0
0
VERTEX
8
Layer 1
10
27.113694
20
7.041205
70
0
0
SEQEND
8
Layer 1
0
POLYLINE
8
Layer 1
62
7
70
0
10
0.000000
20
0.000000
66
1
0
VERTEX
8
Layer 1
10
7.639775
20
7.460244
70
0
0
VERTEX
8
Layer 1
10
8.395084
20
6.441017
70
0
0
VERTEX
8
Layer 1
10
8.723661
20
6.330097
70
0
0
VERTEX
8
Layer 1
10
9.216625
20
6.345647
70
0
0
VERTEX
8
Layer 1
10
9.977500
20
6.431907
70
0
0
VERTEX
8
Layer 1
10
10.308141
20
6.684091
70
0
0
VERTEX
8
Layer 1
10
10.442685
20
6.866411
70
0
0
VERTEX
8
Layer 1
10
10.413492
20
7.093263
70
0
0
VERTEX
8
Layer 1
10
9.597341
20
8.278438
70
0
0
VERTEX
8
Layer 1
10
9.011607
20
9.035275
70
0
0
VERTEX
8
Layer 1
10
8.624077
20
9.374908
70
0
0
VERTEX
8
Layer 1
10
8.261697
20
9.375956
70
0
0
VERTEX
8
Layer 1
10
7.751408
20
9.117039
70
0
0
VERTEX
8
Layer 1
10
7.268219
20
8.819131
70
0
0
VERTEX
8
Layer 1
10
7.095527
20
8.547246
70
0
0
VERTEX
8
Layer 1
10
7.222868
20
8.146058
70
0
0
VERTEX
8
Layer 1
10
7.639775
20
7.460244
70
0
0
VERTEX
8
Layer 1
10
7.639775
20
7.460244
70
0
0
SEQEND
8
Layer 1
0
POLYLINE
8
Layer 1
62
7
70
0
10
0.000000
20
0.000000
66
1
0
VERTEX
8
Layer 1
10
3.259724
20
7.237143
70
0
0
VERTEX
8
Layer 1
10
3.638277
20
6.742880
70
0
0
VERTEX
8
Layer 1
10
4.519410
20
6.681325
70
0
0
VERTEX
8
Layer 1
10
5.418042
20
6.813512
70
0
0
VERTEX
8
Layer 1
10
5.919083
20
7.675441
70
0
0
VERTEX
8
Layer 1
10
6.245994
20
8.580420
70
0
0
VERTEX
8
Layer 1
10
6.166440
20
8.793375
70
0
0
VERTEX
8
Layer 1
10
5.925708
20
9.013956
70
0
0
VERTEX
8
Layer 1
10
5.445682
20
9.292267
70
0
0
VERTEX
8
Layer 1
10
4.654410
20
9.110669
70
0
0
VERTEX
8
Layer 1
10
3.863761
20
8.819145
70
0
0
VERTEX
8
Layer 1
10
3.388099
20
8.327972
70
0
0
VERTEX
8
Layer 1
10
3.054678
20
7.798282
70
0
0
VERTEX
8
Layer 1
10
3.259724
20
7.237143
70
0
0
VERTEX
8
Layer 1
10
3.259724
20
7.237143
70
0
0
SEQEND
8
Layer 1
0
POLYLINE
8
Layer 1
62
7
70
0
10
0.000000
20
0.000000
66
1
0
VERTEX
8
Layer 1
10
20.061151
20
6.774232
70
0
0
VERTEX
8
Layer 1
10
20.309563
20
5.571339
70
0
0
VERTEX
8
Layer 1
10
20.472439
20
5.284678
70
0
0
VERTEX
8
Layer 1
10
20.665579
20
5.186307
70
0
0
VERTEX
8
Layer 1
10
21.067836
20
5.319670
70
0
0
VERTEX
8
Layer 1
10
21.512934
20
5.632608
70
0
0
VERTEX
8
Layer 1
10
22.005964
20
6.791266
70
0
0
VERTEX
8
Layer 1
10
22.280060
20
7.547916
70
0
0
VERTEX
8
Layer 1
10
22.319907
20
7.970929
70
0
0
VERTEX
8
Layer 1
10
22.079139
20
8.214020
70
0
0
VERTEX
8
Layer 1
10
21.511390
20
8.430906
70
0
0
VERTEX
8
Layer 1
10
20.595414
20
8.688363
70
0
0
VERTEX
8
Layer 1
10
20.157140
20
8.450383
70
0
0
VERTEX
8
Layer 1
10
19.953896
20
8.243882
70
0
0
VERTEX
8
Layer 1
10
19.876149
20
8.000449
70
0
0
VERTEX
8
Layer 1
10
20.061151
20
6.774232
70
0
0
VERTEX
8
Layer 1
10
20.061151
20
6.774232
70
0
0
SEQEND
8
Layer 1
0
POLYLINE
8
Layer 1
62
7
70
0
10
0.000000
20
0.000000
66
1
0
VERTEX
8
Layer 1
10
13.858023
20
6.765504
70
0
0
VERTEX
8
Layer 1
10
14.586865
20
6.230066
70
0
0
VERTEX
8
Layer 1
10
15.155619
20
6.252464
70
0
0
VERTEX
8
Layer 1
10
15.647824
20
6.469237
70
0
0
VERTEX
8
Layer 1
10
15.840834
20
7.294424
70
0
0
VERTEX
8
Layer 1
10
15.899597
20
8.151155
70
0
0
VERTEX
8
Layer 1
10
15.452077
20
8.588741
70
0
0
VERTEX
8
Layer 1
10
15.130372
20
8.789126
70
0
0
VERTEX
8
Layer 1
10
14.873059
20
8.812843
70
0
0
VERTEX
8
Layer 1
10
14.011338
20
8.175192
70
0
0
VERTEX
8
Layer 1
10
13.497720
20
7.713698
70
0
0
VERTEX
8
Layer 1
10
13.310544
20
7.413024
70
0
0
VERTEX
8
Layer 1
10
13.435436
20
7.141012
70
0
0
VERTEX
8
Layer 1
10
13.858023
20
6.765504
70
0
0
VERTEX
8
Layer 1
10
13.858023
20
6.765504
70
0
0
SEQEND
8
Layer 1
0
POLYLINE
8
Layer 1
62
7
70
0
10
0.000000
20
0.000000
66
1
0
VERTEX
8
Layer 1
10
16.210936
20
5.940429
70
0
0
VERTEX
8
Layer 1
10
16.908759
20
5.481996
70
0
0
VERTEX
8
Layer 1
10
17.171674
20
5.470542
70
0
0
VERTEX
8
Layer 1
10
17.524943
20
5.665712
70
0
0
VERTEX
8
Layer 1
10
17.848730
20
6.012938
70
0
0
VERTEX
8
Layer 1
10
17.905271
20
7.065883
70
0
0
VERTEX
8
Layer 1
10
17.898318
20
8.105172
70
0
0
VERTEX
8
Layer 1
10
17.777649
20
8.356799
70
0
0
VERTEX
8
Layer 1
10
17.556075
20
8.445287
70
0
0
VERTEX
8
Layer 1
10
16.842790
20
8.342611
70
0
0
VERTEX
8
Layer 1
10
16.129046
20
8.108948
70
0
0
VERTEX
8
Layer 1
10
15.904260
20
7.280523
70
0
0
VERTEX
8
Layer 1
10
15.835125
20
6.417348
70
0
0
VERTEX
8
Layer 1
10
16.210936
20
5.940429
70
0
0
VERTEX
8
Layer 1
10
16.210936
20
5.940429
70
0
0
SEQEND
8
Layer 1
0
POLYLINE
8
Layer 1
62
7
70
0
10
0.000000
20
0.000000
66
1
0
VERTEX
8
Layer 1
10
19.105616
20
5.673406
70
0
0
VERTEX
8
Layer 1
10
19.764948
20
5.561104
70
0
0
VERTEX
8
Layer 1
10
20.077328
20
5.638628
70
0
0
VERTEX
8
Layer 1
10
20.126099
20
6.009439
70
0
0
VERTEX
8
Layer 1
10
19.994604
20
6.777001
70
0
0
VERTEX
8
Layer 1
10
19.658808
20
7.950778
70
0
0
VERTEX
8
Layer 1
10
19.370140
20
8.112389
70
0
0
VERTEX
8
Layer 1
10
18.859009
20
8.163834
70
0
0
VERTEX
8
Layer 1
10
18.351732
20
8.176367
70
0
0
VERTEX
8
Layer 1
10
18.090037
20
8.065587
70
0
0
VERTEX
8
Layer 1
10
17.970021
20
7.060240
70
0
0
VERTEX
8
Layer 1
10
17.981096
20
6.388023
70
0
0
VERTEX
8
Layer 1
10
18.103079
20
6.019488
70
0
0
VERTEX
8
Layer 1
10
18.442431
20
5.824621
70
0
0
VERTEX
8
Layer 1
10
19.105616
20
5.673406
70
0
0
VERTEX
8
Layer 1
10
19.105616
20
5.673406
70
0
0
SEQEND
8
Layer 1
0
POLYLINE
8
Layer 1
62
7
70
0
10
0.000000
20
0.000000
66
1
0
VERTEX
8
Layer 1
10
5.736719
20
6.241675
70
0
0
VERTEX
8
Layer 1
10
6.022480
20
5.866235
70
0
0
VERTEX
8
Layer 1
10
6.849124
20
5.748649
70
0
0
VERTEX
8
Layer 1
10
7.686326
20
5.719830
70
0
0
VERTEX
8
Layer 1
10
8.045988
20
5.965753
70
0
0
VERTEX
8
Layer 1
10
8.196229
20
6.152805
70
0
0
VERTEX
8
Layer 1
10
8.197641
20
6.368247
70
0
0
VERTEX
8
Layer 1
10
7.578775
20
7.435424
70
0
0
VERTEX
8
Layer 1
10
6.898808
20
8.467476
70
0
0
VERTEX
8
Layer 1
10
6.622754
20
8.624090
70
0
0
VERTEX
8
Layer 1
10
6.385553
20
8.510041
70
0
0
VERTEX
8
Layer 1
10
5.977562
20
7.647445
70
0
0
VERTEX
8
Layer 1
10
5.620114
20
6.731209
70
0
0
VERTEX
8
Layer 1
10
5.736719
20
6.241675
70
0
0
VERTEX
8
Layer 1
10
5.736719
20
6.241675
70
0
0
SEQEND
8
Layer 1
0
POLYLINE
8
Layer 1
62
7
70
0
10
0.000000
20
0.000000
66
1
0
VERTEX
8
Layer 1
10
22.520440
20
5.216457
70
0
0
VERTEX
8
Layer 1
10
23.080542
20
5.076316
70
0
0
VERTEX
8
Layer 1
10
23.448469
20
5.114003
70
0
0
VERTEX
8
Layer 1
10
24.260213
20
6.026697
70
0
0
VERTEX
8
Layer 1
10
24.704243
20
6.677531
70
0
0
VERTEX
8
Layer 1
10
24.827049
20
7.068740
70
0
0
VERTEX
8
Layer 1
10
24.605949
20
7.357163
70
0
0
VERTEX
8
Layer 1
10
24.018258
20
7.699639
70
0
0
VERTEX
8
Layer 1
10
23.084608
20
8.180736
70
0
0
VERTEX
8
Layer 1
10
22.777438
20
8.174167
70
0
0
VERTEX
8
Layer 1
10
22.537422
20
7.934913
70
0
0
VERTEX
8
Layer 1
10
22.073855
20
6.787212
70
0
0
VERTEX
8
Layer 1
10
21.799118
20
6.031920
70
0
0
VERTEX
8
Layer 1
10
21.754059
20
5.616535
70
0
0
VERTEX
8
Layer 1
10
21.980543
20
5.393800
70
0
0
VERTEX
8
Layer 1
10
22.520440
20
5.216457
70
0
0
VERTEX
8
Layer 1
10
22.520440
20
5.216457
70
0
0
SEQEND
8
Layer 1
0
POLYLINE
8
Layer 1
62
7
70
0
10
0.000000
20
0.000000
66
1
0
VERTEX
8
Layer 1
10
1.470260
20
4.511828
70
0
0
VERTEX
8
Layer 1
10
2.318318
20
4.563026
70
0
0
VERTEX
8
Layer 1
10
2.782736
20
4.693808
70
0
0
VERTEX
8
Layer 1
10
3.027075
20
5.006521
70
0
0
VERTEX
8
Layer 1
10
3.214894
20
5.603509
70
0
0
VERTEX
8
Layer 1
10
3.427482
20
6.577038
70
0
0
VERTEX
8
Layer 1
10
3.202973
20
7.205812
70
0
0
VERTEX
8
Layer 1
10
3.008449
20
7.538679
70
0
0
VERTEX
8
Layer 1
10
2.761875
20
7.726322
70
0
0
VERTEX
8
Layer 1
10
1.458340
20
7.942005
70
0
0
VERTEX
8
Layer 1
10
0.621634
20
8.008764
70
0
0
VERTEX
8
Layer 1
10
0.191974
20
7.857789
70
0
0
VERTEX
8
Layer 1
10
0.033678
20
7.333172
70
0
0
VERTEX
8
Layer 1
10
0.011065
20
6.279009
70
0
0
VERTEX
8
Layer 1
10
0.033865
20
5.223218
70
0
0
VERTEX
8
Layer 1
10
0.193464
20
4.687206
70
0
0
VERTEX
8
Layer 1
10
0.626663
20
4.505301
70
0
0
VERTEX
8
Layer 1
10
1.470260
20
4.511828
70
0
0
VERTEX
8
Layer 1
10
1.470260
20
4.511828
70
0
0
SEQEND
8
Layer 1
0
POLYLINE
8
Layer 1
62
7
70
0
10
0.000000
20
0.000000
66
1
0
VERTEX
8
Layer 1
10
25.774290
20
5.882123
70
0
0
VERTEX
8
Layer 1
10
26.186414
20
5.192609
70
0
0
VERTEX
8
Layer 1
10
26.542864
20
4.945146
70
0
0
VERTEX
8
Layer 1
10
27.002414
20
5.125938
70
0
0
VERTEX
8
Layer 1
10
27.723835
20
5.721189
70
0
0
VERTEX
8
Layer 1
10
28.392376
20
6.339301
70
0
0
VERTEX
8
Layer 1
10
28.545757
20
6.676673
70
0
0
VERTEX
8
Layer 1
10
28.121460
20
6.851507
70
0
0
VERTEX
8
Layer 1
10
27.056966
20
6.982006
70
0
0
VERTEX
8
Layer 1
10
25.945756
20
7.032491
70
0
0
VERTEX
8
Layer 1
10
25.441741
20
6.934748
70
0
0
VERTEX
8
Layer 1
10
25.424669
20
6.585664
70
0
0
VERTEX
8
Layer 1
10
25.774290
20
5.882123
70
0
0
VERTEX
8
Layer 1
10
25.774290
20
5.882123
70
0
0
SEQEND
8
Layer 1
0
POLYLINE
8
Layer 1
62
7
70
0
10
0.000000
20
0.000000
66
1
0
VERTEX
8
Layer 1
10
12.367734
20
5.953267
70
0
0
VERTEX
8
Layer 1
10
12.869029
20
4.824088
70
0
0
VERTEX
8
Layer 1
10
13.115320
20
4.731549
70
0
0
VERTEX
8
Layer 1
10
13.500275
20
4.810917
70
0
0
VERTEX
8
Layer 1
10
14.097401
20
5.031405
70
0
0
VERTEX
8
Layer 1
10
14.359851
20
5.537832
70
0
0
VERTEX
8
Layer 1
10
14.445389
20
6.101920
70
0
0
VERTEX
8
Layer 1
10
13.804130
20
6.726038
70
0
0
VERTEX
8
Layer 1
10
13.064934
20
7.275165
70
0
0
VERTEX
8
Layer 1
10
12.464918
20
7.314305
70
0
0
VERTEX
8
Layer 1
10
12.138938
20
7.267244
70
0
0
VERTEX
8
Layer 1
10
12.020155
20
7.109783
70
0
0
VERTEX
8
Layer 1
10
12.367734
20
5.953267
70
0
0
VERTEX
8
Layer 1
10
12.367734
20
5.953267
70
0
0
SEQEND
8
Layer 1
0
POLYLINE
8
Layer 1
62
7
70
0
10
0.000000
20
0.000000
66
1
0
VERTEX
8
Layer 1
10
4.226783
20
4.628973
70
0
0
VERTEX
8
Layer 1
10
5.307470
20
4.784644
70
0
0
VERTEX
8
Layer 1
10
5.652771
20
5.261454
70
0
0
VERTEX
8
Layer 1
10
5.823260
20
5.777701
70
0
0
VERTEX
8
Layer 1
10
5.680253
20
6.209437
70
0
0
VERTEX
8
Layer 1
10
5.389073
20
6.573564
70
0
0
VERTEX
8
Layer 1
10
4.522343
20
6.616548
70
0
0
VERTEX
8
Layer 1
10
3.961367
20
6.594416
70
0
0
VERTEX
8
Layer 1
10
3.644494
20
6.479011
70
0
0
VERTEX
8
Layer 1
10
3.275483
20
5.579478
70
0
0
VERTEX
8
Layer 1
10
3.148625
20
4.972509
70
0
0
VERTEX
8
Layer 1
10
3.205433
20
4.671175
70
0
0
VERTEX
8
Layer 1
10
3.535091
20
4.586366
70
0
0
VERTEX
8
Layer 1
10
4.226783
20
4.628973
70
0
0
VERTEX
8
Layer 1
10
4.226783
20
4.628973
70
0
0
SEQEND
8
Layer 1
0
POLYLINE
8
Layer 1
62
7
70
0
10
0.000000
20
0.000000
66
1
0
VERTEX
8
Layer 1
10
23.629398
20
4.687282
70
0
0
VERTEX
8
Layer 1
10
23.820791
20
4.450225
70
0
0
VERTEX
8
Layer 1
10
24.495601
20
4.093480
70
0
0
VERTEX
8
Layer 1
10
25.226523
20
3.821489
70
0
0
VERTEX
8
Layer 1
10
25.810695
20
4.177714
70
0
0
VERTEX
8
Layer 1
10
26.124194
20
4.462914
70
0
0
VERTEX
8
Layer 1
10
26.219759
20
4.730835
70
0
0
VERTEX
8
Layer 1
10
25.724925
20
5.837114
70
0
0
VERTEX
8
Layer 1
10
25.339561
20
6.513331
70
0
0
VERTEX
8
Layer 1
10
25.062573
20
6.752578
70
0
0
VERTEX
8
Layer 1
10
24.760282
20
6.567312
70
0
0
VERTEX
8
Layer 1
10
24.299008
20
5.969989
70
0
0
VERTEX
8
Layer 1
10
23.629981
20
5.010453
70
0
0
VERTEX
8
Layer 1
10
23.629398
20
4.687282
70
0
0
VERTEX
8
Layer 1
10
23.629398
20
4.687282
70
0
0
SEQEND
8
Layer 1
0
POLYLINE
8
Layer 1
62
7
70
0
10
0.000000
20
0.000000
66
1
0
VERTEX
8
Layer 1
10
14.696713
20
4.431247
70
0
0
VERTEX
8
Layer 1
10
14.986357
20
4.135814
70
0
0
VERTEX
8
Layer 1
10
15.207150
20
4.065022
70
0
0
VERTEX
8
Layer 1
10
15.889464
20
4.697033
70
0
0
VERTEX
8
Layer 1
10
16.456322
20
5.446258
70
0
0
VERTEX
8
Layer 1
10
16.402907
20
5.653847
70
0
0
VERTEX
8
Layer 1
10
16.158568
20
5.900523
70
0
0
VERTEX
8
Layer 1
10
15.703965
20
6.240521
70
0
0
VERTEX
8
Layer 1
10
15.172885
20
6.189882
70
0
0
VERTEX
8
Layer 1
10
14.671152
20
6.019212
70
0
0
VERTEX
8
Layer 1
10
14.421990
20
5.518992
70
0
0
VERTEX
8
Layer 1
10
14.301030
20
4.966664
70
0
0
VERTEX
8
Layer 1
10
14.696713
20
4.431247
70
0
0
VERTEX
8
Layer 1
10
14.696713
20
4.431247
70
0
0
SEQEND
8
Layer 1
0
POLYLINE
8
Layer 1
62
7
70
0
10
0.000000
20
0.000000
66
1
0
VERTEX
8
Layer 1
10
10.212546
20
5.322609
70
0
0
VERTEX
8
Layer 1
10
10.399714
20
4.370343
70
0
0
VERTEX
8
Layer 1
10
11.023242
20
3.938893
70
0
0
VERTEX
8
Layer 1
10
11.678086
20
3.655848
70
0
0
VERTEX
8
Layer 1
10
12.084466
20
3.742414
70
0
0
VERTEX
8
Layer 1
10
12.425221
20
3.916457
70
0
0
VERTEX
8
Layer 1
10
12.620686
20
4.245762
70
0
0
VERTEX
8
Layer 1
10
12.709634
20
4.723524
70
0
0
VERTEX
8
Layer 1
10
12.304769
20
5.936773
70
0
0
VERTEX
8
Layer 1
10
11.781654
20
7.093284
70
0
0
VERTEX
8
Layer 1
10
11.552697
20
7.188571
70
0
0
VERTEX
8
Layer 1
10
11.208430
20
7.108322
70
0
0
VERTEX
8
Layer 1
10
10.666505
20
6.919301
70
0
0
VERTEX
8
Layer 1
10
10.362479
20
6.647397
70
0
0
VERTEX
8
Layer 1
10
10.145456
20
6.267510
70
0
0
VERTEX
8
Layer 1
10
10.212546
20
5.322609
70
0
0
VERTEX
8
Layer 1
10
10.212546
20
5.322609
70
0
0
SEQEND
8
Layer 1
0
POLYLINE
8
Layer 1
62
7
70
0
10
0.000000
20
0.000000
66
1
0
VERTEX
8
Layer 1
10
5.868457
20
4.068375
70
0
0
VERTEX
8
Layer 1
10
6.293333
20
3.506038
70
0
0
VERTEX
8
Layer 1
10
6.987958
20
3.377824
70
0
0
VERTEX
8
Layer 1
10
7.415674
20
3.363410
70
0
0
VERTEX
8
Layer 1
10
7.636246
20
3.471988
70
0
0
VERTEX
8
Layer 1
10
7.736763
20
4.466303
70
0
0
VERTEX
8
Layer 1
10
7.631441
20
5.476827
70
0
0
VERTEX
8
Layer 1
10
7.363146
20
5.623906
70
0
0
VERTEX
8
Layer 1
10
6.838857
20
5.684465
70
0
0
VERTEX
8
Layer 1
10
6.017420
20
5.683109
70
0
0
VERTEX
8
Layer 1
10
5.710134
20
5.230677
70
0
0
VERTEX
8
Layer 1
10
5.563728
20
4.689681
70
0
0
VERTEX
8
Layer 1
10
5.868457
20
4.068375
70
0
0
VERTEX
8
Layer 1
10
5.868457
20
4.068375
70
0
0
SEQEND
8
Layer 1
0
POLYLINE
8
Layer 1
62
7
70
0
10
0.000000
20
0.000000
66
1
0
VERTEX
8
Layer 1
10
8.094745
20
3.044047
70
0
0
VERTEX
8
Layer 1
10
8.284233
20
2.906620
70
0
0
VERTEX
8
Layer 1
10
8.476062
20
2.911574
70
0
0
VERTEX
8
Layer 1
10
9.329932
20
3.531372
70
0
0
VERTEX
8
Layer 1
10
10.131790
20
4.312261
70
0
0
VERTEX
8
Layer 1
10
10.149020
20
5.307435
70
0
0
VERTEX
8
Layer 1
10
9.946315
20
6.202186
70
0
0
VERTEX
8
Layer 1
10
9.688423
20
6.297660
70
0
0
VERTEX
8
Layer 1
10
9.208623
20
6.280119
70
0
0
VERTEX
8
Layer 1
10
8.449446
20
6.192030
70
0
0
VERTEX
8
Layer 1
10
8.096346
20
5.924632
70
0
0
VERTEX
8
Layer 1
10
7.845433
20
5.519168
70
0
0
VERTEX
8
Layer 1
10
7.801557
20
4.464623
70
0
0
VERTEX
8
Layer 1
10
7.831178
20
3.415007
70
0
0
VERTEX
8
Layer 1
10
8.094745
20
3.044047
70
0
0
VERTEX
8
Layer 1
10
8.094745
20
3.044047
70
0
0
SEQEND
8
Layer 1
0
POLYLINE
8
Layer 1
62
7
70
0
10
0.000000
20
0.000000
66
1
0
VERTEX
8
Layer 1
10
28.166746
20
3.186261
70
0
0
VERTEX
8
Layer 1
10
29.085857
20
2.396016
70
0
0
VERTEX
8
Layer 1
10
29.557833
20
2.255712
70
0
0
VERTEX
8
Layer 1
10
29.731719
20
2.876149
70
0
0
VERTEX
8
Layer 1
10
29.756560
20
4.368125
70
0
0
VERTEX
8
Layer 1
10
29.710749
20
6.647294
70
0
0
VERTEX
8
Layer 1
10
29.601949
20
6.903033
70
0
0
VERTEX
8
Layer 1
10
29.390075
20
6.884031
70
0
0
VERTEX
8
Layer 1
10
28.916484
20
6.658547
70
0
0
VERTEX
8
Layer 1
10
27.800262
20
5.702166
70
0
0
VERTEX
8
Layer 1
10
27.117866
20
5.056369
70
0
0
VERTEX
8
Layer 1
10
26.928576
20
4.579030
70
0
0
VERTEX
8
Layer 1
10
27.266750
20
4.034283
70
0
0
VERTEX
8
Layer 1
10
28.166746
20
3.186261
70
0
0
VERTEX
8
Layer 1
10
28.166746
20
3.186261
70
0
0
SEQEND
8
Layer 1
0
POLYLINE
8
Layer 1
62
7
70
0
10
0.000000
20
0.000000
66
1
0
VERTEX
8
Layer 1
10
17.502208
20
4.088980
70
0
0
VERTEX
8
Layer 1
10
17.698471
20
3.356937
70
0
0
VERTEX
8
Layer 1
10
17.938656
20
3.099170
70
0
0
VERTEX
8
Layer 1
10
18.380053
20
3.303302
70
0
0
VERTEX
8
Layer 1
10
19.179948
20
3.956956
70
0
0
VERTEX
8
Layer 1
10
20.366177
20
4.992532
70
0
0
VERTEX
8
Layer 1
10
20.475586
20
5.157012
70
0
0
VERTEX
8
Layer 1
10
20.417180
20
5.247240
70
0
0
VERTEX
8
Layer 1
10
19.105349
20
5.607363
70
0
0
VERTEX
8
Layer 1
10
18.032685
20
5.784964
70
0
0
VERTEX
8
Layer 1
10
17.565810
20
5.614822
70
0
0
VERTEX
8
Layer 1
10
17.358992
20
5.462675
70
0
0
VERTEX
8
Layer 1
10
17.283428
20
5.253018
70
0
0
VERTEX
8
Layer 1
10
17.502208
20
4.088980
70
0
0
VERTEX
8
Layer 1
10
17.502208
20
4.088980
70
0
0
SEQEND
8
Layer 1
0
POLYLINE
8
Layer 1
62
7
70
0
10
0.000000
20
0.000000
66
1
0
VERTEX
8
Layer 1
10
15.264090
20
2.686062
70
0
0
VERTEX
8
Layer 1
10
15.351814
20
1.582572
70
0
0
VERTEX
8
Layer 1
10
15.651300
20
0.772394
70
0
0
VERTEX
8
Layer 1
10
16.005453
20
0.106264
70
0
0
VERTEX
8
Layer 1
10
16.475839
20
0.011102
70
0
0
VERTEX
8
Layer 1
10
16.765120
20
0.032368
70
0
0
VERTEX
8
Layer 1
10
16.953497
20
0.181227
70
0
0
VERTEX
8
Layer 1
10
17.358558
20
1.372097
70
0
0
VERTEX
8
Layer 1
10
17.663951
20
2.728021
70
0
0
VERTEX
8
Layer 1
10
17.443928
20
4.053522
70
0
0
VERTEX
8
Layer 1
10
17.144883
20
5.214436
70
0
0
VERTEX
8
Layer 1
10
16.897126
20
5.418244
70
0
0
VERTEX
8
Layer 1
10
16.597427
20
5.355492
70
0
0
VERTEX
8
Layer 1
10
15.934789
20
4.650486
70
0
0
VERTEX
8
Layer 1
10
15.308606
20
3.795897
70
0
0
VERTEX
8
Layer 1
10
15.264090
20
2.686062
70
0
0
VERTEX
8
Layer 1
10
15.264090
20
2.686062
70
0
0
SEQEND
8
Layer 1
0
POLYLINE
8
Layer 1
62
7
70
0
10
0.000000
20
0.000000
66
1
0
VERTEX
8
Layer 1
10
13.881048
20
2.736008
70
0
0
VERTEX
8
Layer 1
10
15.071394
20
1.880220
70
0
0
VERTEX
8
Layer 1
10
15.205862
20
2.088106
70
0
0
VERTEX
8
Layer 1
10
15.197786
20
2.717536
70
0
0
VERTEX
8
Layer 1
10
15.091972
20
3.764805
70
0
0
VERTEX
8
Layer 1
10
14.656872
20
4.378688
70
0
0
VERTEX
8
Layer 1
10
14.145819
20
4.830844
70
0
0
VERTEX
8
Layer 1
10
13.508332
20
4.746013
70
0
0
VERTEX
8
Layer 1
10
12.911069
20
4.549870
70
0
0
VERTEX
8
Layer 1
10
12.681575
20
4.222832
70
0
0
VERTEX
8
Layer 1
10
12.605705
20
4.003370
70
0
0
VERTEX
8
Layer 1
10
12.705360
20
3.775339
70
0
0
VERTEX
8
Layer 1
10
13.881048
20
2.736008
70
0
0
VERTEX
8
Layer 1
10
13.881048
20
2.736008
70
0
0
SEQEND
8
Layer 1
0
POLYLINE
8
Layer 1
62
7
70
0
10
0.000000
20
0.000000
66
1
0
VERTEX
8
Layer 1
10
21.217211
20
2.734245
70
0
0
VERTEX
8
Layer 1
10
21.548636
20
1.402142
70
0
0
VERTEX
8
Layer 1
10
21.815898
20
0.924355
70
0
0
VERTEX
8
Layer 1
10
22.160105
20
1.270504
70
0
0
VERTEX
8
Layer 1
10
22.722365
20
2.410211
70
0
0
VERTEX
8
Layer 1
10
23.546536
20
4.218140
70
0
0
VERTEX
8
Layer 1
10
23.569154
20
4.662763
70
0
0
VERTEX
8
Layer 1
10
23.351646
20
4.887515
70
0
0
VERTEX
8
Layer 1
10
22.494936
20
5.156353
70
0
0
VERTEX
8
Layer 1
10
21.598231
20
5.376821
70
0
0
VERTEX
8
Layer 1
10
21.100757
20
5.262982
70
0
0
VERTEX
8
Layer 1
10
20.860175
20
5.128095
70
0
0
VERTEX
8
Layer 1
10
20.792112
20
4.819723
70
0
0
VERTEX
8
Layer 1
10
21.217211
20
2.734245
70
0
0
VERTEX
8
Layer 1
10
21.217211
20
2.734245
70
0
0
SEQEND
8
Layer 1
0
POLYLINE
8
Layer 1
62
7
70
0
10
0.000000
20
0.000000
66
1
0
VERTEX
8
Layer 1
10
3.294518
20
3.838178
70
0
0
VERTEX
8
Layer 1
10
3.589608
20
3.223766
70
0
0
VERTEX
8
Layer 1
10
4.240244
20
2.682440
70
0
0
VERTEX
8
Layer 1
10
4.938799
20
2.297828
70
0
0
VERTEX
8
Layer 1
10
5.569318
20
2.780417
70
0
0
VERTEX
8
Layer 1
10
6.064001
20
3.407833
70
0
0
VERTEX
8
Layer 1
10
5.811700
20
4.037018
70
0
0
VERTEX
8
Layer 1
10
5.575299
20
4.399359
70
0
0
VERTEX
8
Layer 1
10
5.333488
20
4.575204
70
0
0
VERTEX
8
Layer 1
10
4.246794
20
4.565634
70
0
0
VERTEX
8
Layer 1
10
3.236679
20
4.399055
70
0
0
VERTEX
8
Layer 1
10
3.176742
20
4.202003
70
0
0
VERTEX
8
Layer 1
10
3.294518
20
3.838178
70
0
0
VERTEX
8
Layer 1
10
3.294518
20
3.838178
70
0
0
SEQEND
8
Layer 1
0
POLYLINE
8
Layer 1
62
7
70
0
10
0.000000
20
0.000000
66
1
0
VERTEX
8
Layer 1
10
25.462210
20
1.837716
70
0
0
VERTEX
8
Layer 1
10
25.594417
20
0.781705
70
0
0
VERTEX
8
Layer 1
10
25.871159
20
0.239429
70
0
0
VERTEX
8
Layer 1
10
26.501844
20
0.039643
70
0
0
VERTEX
8
Layer 1
10
27.695879
20
0.011102
70
0
0
VERTEX
8
Layer 1
10
29.498974
20
0.114232
70
0
0
VERTEX
8
Layer 1
10
29.724361
20
0.359165
70
0
0
VERTEX
8
Layer 1
10
29.756560
20
0.836140
70
0
0
VERTEX
8
Layer 1
10
29.731235
20
1.336017
70
0
0
VERTEX
8
Layer 1
10
29.553966
20
1.741259
70
0
0
VERTEX
8
Layer 1
10
28.135814
20
3.126860
70
0
0
VERTEX
8
Layer 1
10
26.565773
20
4.355367
70
0
0
VERTEX
8
Layer 1
10
26.210161
20
4.377700
70
0
0
VERTEX
8
Layer 1
10
25.855824
20
4.130927
70
0
0
VERTEX
8
Layer 1
10
25.530961
20
3.832634
70
0
0
VERTEX
8
Layer 1
10
25.381672
20
3.494327
70
0
0
VERTEX
8
Layer 1
10
25.462210
20
1.837716
70
0
0
VERTEX
8
Layer 1
10
25.462210
20
1.837716
70
0
0
SEQEND
8
Layer 1
0
POLYLINE
8
Layer 1
62
7
70
0
10
0.000000
20
0.000000
66
1
0
VERTEX
8
Layer 1
10
21.717937
20
0.142300
70
0
0
VERTEX
8
Layer 1
10
21.163931
20
2.677157
70
0
0
VERTEX
8
Layer 1
10
20.819686
20
4.048280
70
0
0
VERTEX
8
Layer 1
10
20.501384
20
4.632421
70
0
0
VERTEX
8
Layer 1
10
20.025826
20
4.543972
70
0
0
VERTEX
8
Layer 1
10
19.209815
20
3.897321
70
0
0
VERTEX
8
Layer 1
10
17.939188
20
2.692843
70
0
0
VERTEX
8
Layer 1
10
17.423229
20
1.362464
70
0
0
VERTEX
8
Layer 1
10
17.234227
20
0.581208
70
0
0
VERTEX
8
Layer 1
10
17.374395
20
0.180023
70
0
0
VERTEX
8
Layer 1
10
18.026582
20
0.032218
70
0
0
VERTEX
8
Layer 1
10
19.373641
20
0.011102
70
0
0
VERTEX
8
Layer 1
10
21.422123
20
0.027502
70
0
0
VERTEX
8
Layer 1
10
21.717937
20
0.142300
70
0
0
VERTEX
8
Layer 1
10
21.717937
20
0.142300
70
0
0
SEQEND
8
Layer 1
0
POLYLINE
8
Layer 1
62
7
70
0
10
0.000000
20
0.000000
66
1
0
VERTEX
8
Layer 1
10
25.397442
20
1.834269
70
0
0
VERTEX
8
Layer 1
10
25.153028
20
3.476085
70
0
0
VERTEX
8
Layer 1
10
24.912472
20
3.786037
70
0
0
VERTEX
8
Layer 1
10
24.478098
20
4.029792
70
0
0
VERTEX
8
Layer 1
10
24.031227
20
4.212770
70
0
0
VERTEX
8
Layer 1
10
23.703184
20
4.097286
70
0
0
VERTEX
8
Layer 1
10
22.758881
20
2.335614
70
0
0
VERTEX
8
Layer 1
10
22.222042
20
0.991756
70
0
0
VERTEX
8
Layer 1
10
22.138482
20
0.301666
70
0
0
VERTEX
8
Layer 1
10
22.594047
20
0.047423
70
0
0
VERTEX
8
Layer 1
10
23.674584
20
0.011102
70
0
0
VERTEX
8
Layer 1
10
24.767733
20
0.039589
70
0
0
VERTEX
8
Layer 1
10
25.311580
20
0.238998
70
0
0
VERTEX
8
Layer 1
10
25.467644
20
0.780251
70
0
0
VERTEX
8
Layer 1
10
25.397442
20
1.834269
70
0
0
VERTEX
8
Layer 1
10
25.397442
20
1.834269
70
0
0
SEQEND
8
Layer 1
0
POLYLINE
8
Layer 1
62
7
70
0
10
0.000000
20
0.000000
66
1
0
VERTEX
8
Layer 1
10
8.692939
20
1.371093
70
0
0
VERTEX
8
Layer 1
10
8.860848
20
0.584849
70
0
0
VERTEX
8
Layer 1
10
9.058232
20
0.181101
70
0
0
VERTEX
8
Layer 1
10
9.412364
20
0.032352
70
0
0
VERTEX
8
Layer 1
10
10.050517
20
0.011102
70
0
0
VERTEX
8
Layer 1
10
10.688778
20
0.038674
70
0
0
VERTEX
8
Layer 1
10
11.043659
20
0.231671
70
0
0
VERTEX
8
Layer 1
10
11.243078
20
0.755522
70
0
0
VERTEX
8
Layer 1
10
11.414949
20
1.775652
70
0
0
VERTEX
8
Layer 1
10
11.562781
20
3.362382
70
0
0
VERTEX
8
Layer 1
10
11.386949
20
3.656907
70
0
0
VERTEX
8
Layer 1
10
10.991715
20
3.882189
70
0
0
VERTEX
8
Layer 1
10
10.577699
20
4.068236
70
0
0
VERTEX
8
Layer 1
10
10.270400
20
4.088110
70
0
0
VERTEX
8
Layer 1
10
9.366488
20
3.477630
70
0
0
VERTEX
8
Layer 1
10
8.830396
20
3.024783
70
0
0
VERTEX
8
Layer 1
10
8.581537
20
2.654403
70
0
0
VERTEX
8
Layer 1
10
8.556766
20
2.169002
70
0
0
VERTEX
8
Layer 1
10
8.692939
20
1.371093
70
0
0
VERTEX
8
Layer 1
10
8.692939
20
1.371093
70
0
0
SEQEND
8
Layer 1
0
POLYLINE
8
Layer 1
62
7
70
0
10
0.000000
20
0.000000
66
1
0
VERTEX
8
Layer 1
10
2.348343
20
1.603499
70
0
0
VERTEX
8
Layer 1
10
3.297118
20
3.076714
70
0
0
VERTEX
8
Layer 1
10
3.348080
20
3.440570
70
0
0
VERTEX
8
Layer 1
10
3.226531
20
3.834842
70
0
0
VERTEX
8
Layer 1
10
3.039996
20
4.223200
70
0
0
VERTEX
8
Layer 1
10
2.795605
20
4.416446
70
0
0
VERTEX
8
Layer 1
10
1.477284
20
4.447259
70
0
0
VERTEX
8
Layer 1
10
0.629626
20
4.377821
70
0
0
VERTEX
8
Layer 1
10
0.194342
20
4.120449
70
0
0
VERTEX
8
Layer 1
10
0.033974
20
3.464339
70
0
0
VERTEX
8
Layer 1
10
0.011065
20
2.198688
70
0
0
VERTEX
8
Layer 1
10
0.087228
20
0.284551
70
0
0
VERTEX
8
Layer 1
10
0.268115
20
0.045284
70
0
0
VERTEX
8
Layer 1
10
0.620369
20
0.011102
70
0
0
VERTEX
8
Layer 1
10
0.990102
20
0.035984
70
0
0
VERTEX
8
Layer 1
10
1.293344
20
0.210152
70
0
0
VERTEX
8
Layer 1
10
2.348343
20
1.603499
70
0
0
VERTEX
8
Layer 1
10
2.348343
20
1.603499
70
0
0
SEQEND
8
Layer 1
0
POLYLINE
8
Layer 1
62
7
70
0
10
0.000000
20
0.000000
66
1
0
VERTEX
8
Layer 1
10
15.586561
20
0.758625
70
0
0
VERTEX
8
Layer 1
10
15.124524
20
1.557819
70
0
0
VERTEX
8
Layer 1
10
13.862617
20
2.667039
70
0
0
VERTEX
8
Layer 1
10
12.596804
20
3.664552
70
0
0
VERTEX
8
Layer 1
10
12.337335
20
3.748140
70
0
0
VERTEX
8
Layer 1
10
12.107426
20
3.681793
70
0
0
VERTEX
8
Layer 1
10
11.895140
20
3.569771
70
0
0
VERTEX
8
Layer 1
10
11.759037
20
3.333637
70
0
0
VERTEX
8
Layer 1
10
11.480150
20
1.773379
70
0
0
VERTEX
8
Layer 1
10
11.362354
20
0.754563
70
0
0
VERTEX
8
Layer 1
10
11.540163
20
0.231387
70
0
0
VERTEX
8
Layer 1
10
12.208945
20
0.038638
70
0
0
VERTEX
8
Layer 1
10
13.564067
20
0.011102
70
0
0
VERTEX
8
Layer 1
10
15.580294
20
0.104543
70
0
0
VERTEX
8
Layer 1
10
15.739868
20
0.326464
70
0
0
VERTEX
8
Layer 1
10
15.586561
20
0.758625
70
0
0
VERTEX
8
Layer 1
10
15.586561
20
0.758625
70
0
0
SEQEND
8
Layer 1
0
POLYLINE
8
Layer 1
62
7
70
0
10
0.000000
20
0.000000
66
1
0
VERTEX
8
Layer 1
10
5.041925
20
1.054493
70
0
0
VERTEX
8
Layer 1
10
5.103581
20
0.451283
70
0
0
VERTEX
8
Layer 1
10
5.327322
20
0.141526
70
0
0
VERTEX
8
Layer 1
10
5.896022
20
0.027405
70
0
0
VERTEX
8
Layer 1
10
6.992549
20
0.011102
70
0
0
VERTEX
8
Layer 1
10
8.084142
20
0.032320
70
0
0
VERTEX
8
Layer 1
10
8.618299
20
0.180840
70
0
0
VERTEX
8
Layer 1
10
8.748281
20
0.583968
70
0
0
VERTEX
8
Layer 1
10
8.627353
20
1.369006
70
0
0
VERTEX
8
Layer 1
10
8.360741
20
2.590211
70
0
0
VERTEX
8
Layer 1
10
8.056823
20
2.991219
70
0
0
VERTEX
8
Layer 1
10
7.691393
20
3.229593
70
0
0
VERTEX
8
Layer 1
10
6.994200
20
3.312363
70
0
0
VERTEX
8
Layer 1
10
6.257323
20
3.282637
70
0
0
VERTEX
8
Layer 1
10
5.614107
20
2.733541
70
0
0
VERTEX
8
Layer 1
10
5.071879
20
2.046918
70
0
0
VERTEX
8
Layer 1
10
5.041925
20
1.054493
70
0
0
VERTEX
8
Layer 1
10
5.041925
20
1.054493
70
0
0
SEQEND
8
Layer 1
0
POLYLINE
8
Layer 1
62
7
70
0
10
0.000000
20
0.000000
66
1
0
VERTEX
8
Layer 1
10
4.977144
20
1.052334
70
0
0
VERTEX
8
Layer 1
10
4.840552
20
2.029151
70
0
0
VERTEX
8
Layer 1
10
4.216280
20
2.619476
70
0
0
VERTEX
8
Layer 1
10
3.791179
20
2.899030
70
0
0
VERTEX
8
Layer 1
10
3.461304
20
2.883754
70
0
0
VERTEX
8
Layer 1
10
2.409799
20
1.578244
70
0
0
VERTEX
8
Layer 1
10
1.802415
20
0.672240
70
0
0
VERTEX
8
Layer 1
10
1.679211
20
0.206995
70
0
0
VERTEX
8
Layer 1
10
2.111516
20
0.035589
70
0
0
VERTEX
8
Layer 1
10
3.170663
20
0.011102
70
0
0
VERTEX
8
Layer 1
10
4.246147
20
0.027372
70
0
0
VERTEX
8
Layer 1
10
4.792817
20
0.141256
70
0
0
VERTEX
8
Layer 1
10
4.980030
20
0.450372
70
0
0
VERTEX
8
Layer 1
10
4.977144
20
1.052334
70
0
0
VERTEX
8
Layer 1
10
4.977144
20
1.052334
70
0
0
SEQEND
8
Layer 1
 0 
ENDSEC
 0 
EOF