ISO-10303-21;
HEADER;
/* Generated by software containing ST-Developer
 * from STEP Tools, Inc. (www.steptools.com) 
 */

FILE_DESCRIPTION(
/* description */ (''),
/* implementation_level */ '2;1');

FILE_NAME(
/* name */ 'pawn-white.stp',
/* time_stamp */ '2025-08-10T17:46:22+01:00',
/* author */ ('iwheard'),
/* organization */ (''),
/* preprocessor_version */ 'ST-DEVELOPER v20',
/* originating_system */ 'Autodesk Inventor 2024',
/* authorisation */ '');

FILE_SCHEMA (('AUTOMOTIVE_DESIGN { 1 0 10303 214 3 1 1 }'));
ENDSEC;

DATA;
#10=MECHANICAL_DESIGN_GEOMETRIC_PRESENTATION_REPRESENTATION('',(#54,#55,
#56,#57,#58,#59,#60,#61,#62,#63,#64),#609);
#11=GEOMETRICALLY_BOUNDED_WIREFRAME_SHAPE_REPRESENTATION('',(#12),#608);
#12=GEOMETRIC_CURVE_SET('Sketch11',(#16,#17,#18,#19,#20,#21,#22,#23,#24,
#25,#26,#27,#28,#29,#30,#31,#32,#33,#34,#35,#36,#37,#38,#39,#40,#41,#42,
#43,#44,#45,#46,#47,#48,#49,#50,#51,#52,#53,#597,#598,#599,#600,#601,#602,
#603,#604,#605));
#13=SHAPE_REPRESENTATION_RELATIONSHIP('SRR','None',#616,#15);
#14=SHAPE_REPRESENTATION_RELATIONSHIP('SRR','None',#616,#11);
#15=ADVANCED_BREP_SHAPE_REPRESENTATION('',(#65),#608);
#16=POLYLINE('',(#521,#522));
#17=POLYLINE('',(#523,#524));
#18=POLYLINE('',(#525,#526));
#19=POLYLINE('',(#527,#528));
#20=POLYLINE('',(#529,#530));
#21=POLYLINE('',(#531,#532));
#22=POLYLINE('',(#533,#534));
#23=POLYLINE('',(#535,#536));
#24=POLYLINE('',(#537,#538));
#25=POLYLINE('',(#539,#540));
#26=POLYLINE('',(#541,#542));
#27=POLYLINE('',(#543,#544));
#28=POLYLINE('',(#545,#546));
#29=POLYLINE('',(#547,#548));
#30=POLYLINE('',(#549,#550));
#31=POLYLINE('',(#551,#552));
#32=POLYLINE('',(#553,#554));
#33=POLYLINE('',(#555,#556));
#34=POLYLINE('',(#557,#558));
#35=POLYLINE('',(#559,#560));
#36=POLYLINE('',(#561,#562));
#37=POLYLINE('',(#563,#564));
#38=POLYLINE('',(#565,#566));
#39=POLYLINE('',(#567,#568));
#40=POLYLINE('',(#569,#570));
#41=POLYLINE('',(#571,#572));
#42=POLYLINE('',(#573,#574));
#43=POLYLINE('',(#575,#576));
#44=POLYLINE('',(#577,#578));
#45=POLYLINE('',(#579,#580));
#46=POLYLINE('',(#581,#582));
#47=POLYLINE('',(#583,#584));
#48=POLYLINE('',(#585,#586));
#49=POLYLINE('',(#587,#588));
#50=POLYLINE('',(#589,#590));
#51=POLYLINE('',(#591,#592));
#52=POLYLINE('',(#593,#594));
#53=POLYLINE('',(#595,#596));
#54=STYLED_ITEM('',(#625),#65);
#55=STYLED_ITEM('',(#627),#44);
#56=STYLED_ITEM('',(#627),#45);
#57=STYLED_ITEM('',(#627),#46);
#58=STYLED_ITEM('',(#627),#47);
#59=STYLED_ITEM('',(#627),#48);
#60=STYLED_ITEM('',(#627),#49);
#61=STYLED_ITEM('',(#627),#50);
#62=STYLED_ITEM('',(#627),#51);
#63=STYLED_ITEM('',(#626),#52);
#64=STYLED_ITEM('',(#626),#53);
#65=MANIFOLD_SOLID_BREP('Solid1',#160);
#66=FACE_BOUND('',#93,.T.);
#67=SPHERICAL_SURFACE('',#189,5.25);
#68=PLANE('',#187);
#69=PLANE('',#193);
#70=CYLINDRICAL_SURFACE('',#185,7.15);
#71=CYLINDRICAL_SURFACE('',#191,3.);
#72=CIRCLE('',#183,3.32803893469045);
#73=CIRCLE('',#184,3.32803893469045);
#74=CIRCLE('',#186,7.15);
#75=CIRCLE('',#188,3.);
#76=CIRCLE('',#190,5.25);
#77=CIRCLE('',#192,3.);
#78=(
BOUNDED_SURFACE()
B_SPLINE_SURFACE(4,2,((#332,#333,#334,#335,#336,#337,#338,#339,#340),(#341,
#342,#343,#344,#345,#346,#347,#348,#349),(#350,#351,#352,#353,#354,#355,
#356,#357,#358),(#359,#360,#361,#362,#363,#364,#365,#366,#367),(#368,#369,
#370,#371,#372,#373,#374,#375,#376),(#377,#378,#379,#380,#381,#382,#383,
#384,#385),(#386,#387,#388,#389,#390,#391,#392,#393,#394),(#395,#396,#397,
#398,#399,#400,#401,#402,#403),(#404,#405,#406,#407,#408,#409,#410,#411,
#412),(#413,#414,#415,#416,#417,#418,#419,#420,#421),(#422,#423,#424,#425,
#426,#427,#428,#429,#430),(#431,#432,#433,#434,#435,#436,#437,#438,#439),
(#440,#441,#442,#443,#444,#445,#446,#447,#448),(#449,#450,#451,#452,#453,
#454,#455,#456,#457),(#458,#459,#460,#461,#462,#463,#464,#465,#466),(#467,
#468,#469,#470,#471,#472,#473,#474,#475),(#476,#477,#478,#479,#480,#481,
#482,#483,#484)),.UNSPECIFIED.,.F.,.T.,.F.)
B_SPLINE_SURFACE_WITH_KNOTS((5,1,1,1,1,1,1,1,1,1,1,1,1,5),(3,2,2,2,3),(0.,
1.,1.59727962182785,2.,3.,4.,5.,6.,7.,8.,8.80673809079709,8.9235880295187,
8.99754429170628,8.9977641967333),(0.,1.5707963267949,3.14159265358979,
4.71238898038469,6.28318530717959),.UNSPECIFIED.)
GEOMETRIC_REPRESENTATION_ITEM()
RATIONAL_B_SPLINE_SURFACE(((1.,0.707106781186548,1.,0.707106781186548,1.,
0.707106781186548,1.,0.707106781186548,1.),(1.,0.707106781186548,1.,0.707106781186548,
1.,0.707106781186548,1.,0.707106781186548,1.),(1.,0.707106781186548,1.,
0.707106781186548,1.,0.707106781186548,1.,0.707106781186548,1.),(1.,0.707106781186548,
1.,0.707106781186548,1.,0.707106781186548,1.,0.707106781186548,1.),(1.,
0.707106781186548,1.,0.707106781186548,1.,0.707106781186548,1.,0.707106781186548,
1.),(1.,0.707106781186548,1.,0.707106781186548,1.,0.707106781186548,1.,
0.707106781186548,1.),(1.,0.707106781186548,1.,0.707106781186548,1.,0.707106781186548,
1.,0.707106781186548,1.),(1.,0.707106781186548,1.,0.707106781186548,1.,
0.707106781186548,1.,0.707106781186548,1.),(1.,0.707106781186548,1.,0.707106781186548,
1.,0.707106781186548,1.,0.707106781186548,1.),(1.,0.707106781186548,1.,
0.707106781186548,1.,0.707106781186548,1.,0.707106781186548,1.),(1.,0.707106781186548,
1.,0.707106781186548,1.,0.707106781186548,1.,0.707106781186548,1.),(1.,
0.707106781186548,1.,0.707106781186548,1.,0.707106781186548,1.,0.707106781186548,
1.),(1.,0.707106781186548,1.,0.707106781186548,1.,0.707106781186548,1.,
0.707106781186548,1.),(1.,0.707106781186548,1.,0.707106781186548,1.,0.707106781186548,
1.,0.707106781186548,1.),(1.,0.707106781186548,1.,0.707106781186548,1.,
0.707106781186548,1.,0.707106781186548,1.),(1.,0.707106781186548,1.,0.707106781186548,
1.,0.707106781186548,1.,0.707106781186548,1.),(1.,0.707106781186548,1.,
0.707106781186548,1.,0.707106781186548,1.,0.707106781186548,1.)))
REPRESENTATION_ITEM('')
SURFACE()
);
#79=FACE_OUTER_BOUND('',#86,.T.);
#80=FACE_OUTER_BOUND('',#87,.T.);
#81=FACE_OUTER_BOUND('',#88,.T.);
#82=FACE_OUTER_BOUND('',#89,.T.);
#83=FACE_OUTER_BOUND('',#90,.T.);
#84=FACE_OUTER_BOUND('',#91,.T.);
#85=FACE_OUTER_BOUND('',#92,.T.);
#86=EDGE_LOOP('',(#126,#127,#128,#129,#130));
#87=EDGE_LOOP('',(#131,#132,#133,#134,#135));
#88=EDGE_LOOP('',(#136,#137,#138,#139,#140));
#89=EDGE_LOOP('',(#141));
#90=EDGE_LOOP('',(#142,#143,#144,#145));
#91=EDGE_LOOP('',(#146,#147,#148,#149));
#92=EDGE_LOOP('',(#150));
#93=EDGE_LOOP('',(#151));
#94=B_SPLINE_CURVE_WITH_KNOTS('',3,(#293,#294,#295,#296,#297,#298,#299,
#300,#301,#302,#303,#304,#305,#306,#307,#308,#309),.UNSPECIFIED.,.T.,.F.,
(4,1,1,1,1,1,1,1,1,1,1,1,1,1,4),(0.,0.448798950512828,0.897597901025655,
1.34639685153848,1.79519580205131,2.39359440273508,2.69279370307697,3.14159265358979,
3.59039160410262,4.03919055461545,4.48798950512828,4.9367884556411,5.38558740615393,
5.83438635666676,6.28318530717959),.UNSPECIFIED.);
#95=B_SPLINE_CURVE_WITH_KNOTS('',3,(#311,#312,#313,#314,#315,#316,#317),
 .UNSPECIFIED.,.F.,.F.,(4,1,1,1,4),(-6.28318530717959,-5.83438635666676,
-5.38558740615393,-4.9367884556411,-4.71238898038469),.UNSPECIFIED.);
#96=B_SPLINE_CURVE_WITH_KNOTS('',3,(#318,#319,#320,#321,#322,#323,#324,
#325,#326,#327,#328,#329,#330,#331),.UNSPECIFIED.,.F.,.F.,(4,1,1,1,1,1,
1,1,1,1,1,4),(-4.71238898038469,-4.48798950512828,-4.03919055461545,-3.59039160410262,
-3.14159265358979,-2.69279370307697,-2.39359440273508,-1.79519580205131,
-1.34639685153848,-0.897597901025655,-0.448798950512828,0.),
 .UNSPECIFIED.);
#97=B_SPLINE_CURVE_WITH_KNOTS('',4,(#486,#487,#488,#489,#490,#491,#492,
#493,#494,#495,#496,#497,#498,#499,#500,#501,#502),.UNSPECIFIED.,.F.,.F.,
(5,1,1,1,1,1,1,1,1,1,1,1,1,5),(0.24890508092929,1.,1.59727962182785,2.,
3.,4.,5.,6.,7.,8.,8.80673809079709,8.9235880295187,8.99754429170628,8.9977641967333),
 .UNSPECIFIED.);
#98=LINE('',#292,#101);
#99=LINE('',#509,#102);
#100=LINE('',#518,#103);
#101=VECTOR('',#196,10.);
#102=VECTOR('',#205,7.15);
#103=VECTOR('',#216,3.);
#104=VERTEX_POINT('',#290);
#105=VERTEX_POINT('',#291);
#106=VERTEX_POINT('',#310);
#107=VERTEX_POINT('',#485);
#108=VERTEX_POINT('',#503);
#109=VERTEX_POINT('',#507);
#110=VERTEX_POINT('',#511);
#111=VERTEX_POINT('',#514);
#112=VERTEX_POINT('',#517);
#113=EDGE_CURVE('',#104,#105,#98,.T.);
#114=EDGE_CURVE('',#105,#105,#94,.T.);
#115=EDGE_CURVE('',#104,#106,#95,.T.);
#116=EDGE_CURVE('',#106,#104,#96,.T.);
#117=EDGE_CURVE('',#105,#107,#97,.T.);
#118=EDGE_CURVE('',#107,#108,#72,.T.);
#119=EDGE_CURVE('',#108,#107,#73,.T.);
#120=EDGE_CURVE('',#109,#109,#74,.T.);
#121=EDGE_CURVE('',#109,#106,#99,.T.);
#122=EDGE_CURVE('',#110,#110,#75,.T.);
#123=EDGE_CURVE('',#111,#108,#76,.T.);
#124=EDGE_CURVE('',#110,#112,#100,.T.);
#125=EDGE_CURVE('',#112,#112,#77,.T.);
#126=ORIENTED_EDGE('',*,*,#113,.T.);
#127=ORIENTED_EDGE('',*,*,#114,.T.);
#128=ORIENTED_EDGE('',*,*,#113,.F.);
#129=ORIENTED_EDGE('',*,*,#115,.T.);
#130=ORIENTED_EDGE('',*,*,#116,.T.);
#131=ORIENTED_EDGE('',*,*,#114,.F.);
#132=ORIENTED_EDGE('',*,*,#117,.T.);
#133=ORIENTED_EDGE('',*,*,#118,.T.);
#134=ORIENTED_EDGE('',*,*,#119,.T.);
#135=ORIENTED_EDGE('',*,*,#117,.F.);
#136=ORIENTED_EDGE('',*,*,#120,.F.);
#137=ORIENTED_EDGE('',*,*,#121,.T.);
#138=ORIENTED_EDGE('',*,*,#115,.F.);
#139=ORIENTED_EDGE('',*,*,#116,.F.);
#140=ORIENTED_EDGE('',*,*,#121,.F.);
#141=ORIENTED_EDGE('',*,*,#122,.T.);
#142=ORIENTED_EDGE('',*,*,#118,.F.);
#143=ORIENTED_EDGE('',*,*,#119,.F.);
#144=ORIENTED_EDGE('',*,*,#123,.F.);
#145=ORIENTED_EDGE('',*,*,#123,.T.);
#146=ORIENTED_EDGE('',*,*,#122,.F.);
#147=ORIENTED_EDGE('',*,*,#124,.T.);
#148=ORIENTED_EDGE('',*,*,#125,.T.);
#149=ORIENTED_EDGE('',*,*,#124,.F.);
#150=ORIENTED_EDGE('',*,*,#120,.T.);
#151=ORIENTED_EDGE('',*,*,#125,.F.);
#152=B_SPLINE_SURFACE_WITH_KNOTS('',3,3,((#222,#223,#224,#225,#226,#227,
#228,#229,#230,#231,#232,#233,#234,#235,#236,#237,#238),(#239,#240,#241,
#242,#243,#244,#245,#246,#247,#248,#249,#250,#251,#252,#253,#254,#255),
(#256,#257,#258,#259,#260,#261,#262,#263,#264,#265,#266,#267,#268,#269,
#270,#271,#272),(#273,#274,#275,#276,#277,#278,#279,#280,#281,#282,#283,
#284,#285,#286,#287,#288,#289)),.UNSPECIFIED.,.F.,.T.,.F.,(4,4),(4,1,1,
1,1,1,1,1,1,1,1,1,1,1,4),(0.,1.),(0.,0.448798950512828,0.897597901025655,
1.34639685153848,1.79519580205131,2.39359440273508,2.69279370307697,3.14159265358979,
3.59039160410262,4.03919055461545,4.48798950512828,4.9367884556411,5.38558740615393,
5.83438635666676,6.28318530717959),.UNSPECIFIED.);
#153=ADVANCED_FACE('',(#79),#152,.T.);
#154=ADVANCED_FACE('',(#80),#78,.T.);
#155=ADVANCED_FACE('',(#81),#70,.T.);
#156=ADVANCED_FACE('',(#82),#68,.T.);
#157=ADVANCED_FACE('',(#83),#67,.T.);
#158=ADVANCED_FACE('',(#84),#71,.F.);
#159=ADVANCED_FACE('',(#85,#66),#69,.F.);
#160=CLOSED_SHELL('',(#153,#154,#155,#156,#157,#158,#159));
#161=DERIVED_UNIT_ELEMENT(#164,1.);
#162=DERIVED_UNIT_ELEMENT(#611,-3.);
#163=DIMENSIONAL_EXPONENTS(0.,1.,0.,0.,0.,0.,0.);
#164=(
CONVERSION_BASED_UNIT('gram',#166)
MASS_UNIT()
NAMED_UNIT(#163)
);
#165=(
MASS_UNIT()
NAMED_UNIT(*)
SI_UNIT(.KILO.,.GRAM.)
);
#166=MASS_MEASURE_WITH_UNIT(MASS_MEASURE(0.001),#165);
#167=DERIVED_UNIT((#161,#162));
#168=MEASURE_REPRESENTATION_ITEM('density measure',
POSITIVE_RATIO_MEASURE(1.),#167);
#169=PROPERTY_DEFINITION_REPRESENTATION(#174,#171);
#170=PROPERTY_DEFINITION_REPRESENTATION(#175,#172);
#171=REPRESENTATION('material name',(#173),#608);
#172=REPRESENTATION('density',(#168),#608);
#173=DESCRIPTIVE_REPRESENTATION_ITEM('Generic','Generic');
#174=PROPERTY_DEFINITION('material property','material name',#618);
#175=PROPERTY_DEFINITION('material property','density of part',#618);
#176=DATE_TIME_ROLE('creation_date');
#177=APPLIED_DATE_AND_TIME_ASSIGNMENT(#178,#176,(#618));
#178=DATE_AND_TIME(#179,#180);
#179=CALENDAR_DATE(2025,3,8);
#180=LOCAL_TIME(0,0,0.,#181);
#181=COORDINATED_UNIVERSAL_TIME_OFFSET(0,0,.BEHIND.);
#182=AXIS2_PLACEMENT_3D('',#221,#194,#195);
#183=AXIS2_PLACEMENT_3D('',#504,#197,#198);
#184=AXIS2_PLACEMENT_3D('',#505,#199,#200);
#185=AXIS2_PLACEMENT_3D('',#506,#201,#202);
#186=AXIS2_PLACEMENT_3D('',#508,#203,#204);
#187=AXIS2_PLACEMENT_3D('',#510,#206,#207);
#188=AXIS2_PLACEMENT_3D('',#512,#208,#209);
#189=AXIS2_PLACEMENT_3D('',#513,#210,#211);
#190=AXIS2_PLACEMENT_3D('',#515,#212,#213);
#191=AXIS2_PLACEMENT_3D('',#516,#214,#215);
#192=AXIS2_PLACEMENT_3D('',#519,#217,#218);
#193=AXIS2_PLACEMENT_3D('',#520,#219,#220);
#194=DIRECTION('axis',(0.,0.,1.));
#195=DIRECTION('refdir',(1.,0.,0.));
#196=DIRECTION('',(-4.76916275506693E-16,0.396570239537769,0.918004381859344));
#197=DIRECTION('center_axis',(0.,0.,-1.));
#198=DIRECTION('ref_axis',(1.,0.,0.));
#199=DIRECTION('center_axis',(0.,0.,-1.));
#200=DIRECTION('ref_axis',(1.,0.,0.));
#201=DIRECTION('center_axis',(0.,0.,-1.));
#202=DIRECTION('ref_axis',(1.,0.,0.));
#203=DIRECTION('center_axis',(0.,0.,-1.));
#204=DIRECTION('ref_axis',(1.,0.,0.));
#205=DIRECTION('',(0.,0.,1.));
#206=DIRECTION('center_axis',(0.,0.,-1.));
#207=DIRECTION('ref_axis',(-1.,0.,0.));
#208=DIRECTION('center_axis',(0.,0.,-1.));
#209=DIRECTION('ref_axis',(-1.,0.,0.));
#210=DIRECTION('center_axis',(6.12323399573677E-17,0.,1.));
#211=DIRECTION('ref_axis',(1.,0.,0.));
#212=DIRECTION('center_axis',(0.,-1.,0.));
#213=DIRECTION('ref_axis',(-1.,0.,0.));
#214=DIRECTION('center_axis',(0.,0.,1.));
#215=DIRECTION('ref_axis',(-1.,0.,0.));
#216=DIRECTION('',(0.,0.,-1.));
#217=DIRECTION('center_axis',(0.,0.,-1.));
#218=DIRECTION('ref_axis',(-1.,0.,0.));
#219=DIRECTION('center_axis',(0.,0.,1.));
#220=DIRECTION('ref_axis',(1.,0.,0.));
#221=CARTESIAN_POINT('',(0.,0.,0.));
#222=CARTESIAN_POINT('Ctrl Pts',(4.37811230695179E-16,32.65,0.214658573370807));
#223=CARTESIAN_POINT('Ctrl Pts',(1.06963749872224,32.65,0.214658573370807));
#224=CARTESIAN_POINT('Ctrl Pts',(3.20768498229552,32.1626466623339,0.214658573370807));
#225=CARTESIAN_POINT('Ctrl Pts',(5.78229464150878,30.1095409416557,0.214658573370807));
#226=CARTESIAN_POINT('Ctrl Pts',(7.20702910841521,27.1467471358445,0.214658573370807));
#227=CARTESIAN_POINT('Ctrl Pts',(7.21340191648789,23.4858574930144,0.214658573370807));
#228=CARTESIAN_POINT('Ctrl Pts',(5.53584391373495,20.5840199560587,0.214658573370807));
#229=CARTESIAN_POINT('Ctrl Pts',(2.85015872731526,18.7579186730386,0.214658573370807));
#230=CARTESIAN_POINT('Ctrl Pts',(0.000736344940260664,18.1049193223112,
0.214658573370807));
#231=CARTESIAN_POINT('Ctrl Pts',(-3.20880835545261,18.8380443156691,0.214658573370807));
#232=CARTESIAN_POINT('Ctrl Pts',(-5.78096067409369,20.8894612743712,0.214658573370807));
#233=CARTESIAN_POINT('Ctrl Pts',(-7.20912690855092,23.8547338680201,0.214658573370807));
#234=CARTESIAN_POINT('Ctrl Pts',(-7.2087576094563,27.1453161216227,0.214658573370807));
#235=CARTESIAN_POINT('Ctrl Pts',(-5.78176522709542,30.110546691817,0.214658573370807));
#236=CARTESIAN_POINT('Ctrl Pts',(-3.20804049869368,32.1621628080949,0.214658573370807));
#237=CARTESIAN_POINT('Ctrl Pts',(-1.06963749872224,32.65,0.214658573370807));
#238=CARTESIAN_POINT('Ctrl Pts',(-1.1498076945188E-15,32.65,0.214658573370807));
#239=CARTESIAN_POINT('Ctrl Pts',(2.91874153796786E-16,32.7713510725369,
0.495569255075123));
#240=CARTESIAN_POINT('Ctrl Pts',(1.08779157672163,32.7713510725369,0.495569255075123));
#241=CARTESIAN_POINT('Ctrl Pts',(3.26212638270979,32.2757262872862,0.495569255075124));
#242=CARTESIAN_POINT('Ctrl Pts',(5.88043277528101,30.1877748909106,0.495569255075123));
#243=CARTESIAN_POINT('Ctrl Pts',(7.32934808913002,27.1746960213174,0.495569255075124));
#244=CARTESIAN_POINT('Ctrl Pts',(7.33582905763551,23.4516731079144,0.495569255075123));
#245=CARTESIAN_POINT('Ctrl Pts',(5.6297992418928,20.5005850678206,0.495569255075124));
#246=CARTESIAN_POINT('Ctrl Pts',(2.89853212849849,18.6434908688207,0.495569255075124));
#247=CARTESIAN_POINT('Ctrl Pts',(0.000748842317639046,17.9794086968938,
0.495569255075123));
#248=CARTESIAN_POINT('Ctrl Pts',(-3.26326882195604,18.7249764181185,0.495569255075123));
#249=CARTESIAN_POINT('Ctrl Pts',(-5.87907616753354,20.8112103905491,0.495569255075123));
#250=CARTESIAN_POINT('Ctrl Pts',(-7.33148149350298,23.8268101184083,0.495569255075123));
#251=CARTESIAN_POINT('Ctrl Pts',(-7.33110592659841,27.1732407196677,0.495569255075123));
#252=CARTESIAN_POINT('Ctrl Pts',(-5.879894375552,30.1887977108426,0.495569255075123));
#253=CARTESIAN_POINT('Ctrl Pts',(-3.26248793299554,32.2752342209869,0.495569255075123));
#254=CARTESIAN_POINT('Ctrl Pts',(-1.08779157672163,32.7713510725369,0.495569255075124));
#255=CARTESIAN_POINT('Ctrl Pts',(-1.38000921111718E-15,32.7713510725369,
0.495569255075124));
#256=CARTESIAN_POINT('Ctrl Pts',(1.45937076898393E-16,32.8927021450738,
0.77647993677944));
#257=CARTESIAN_POINT('Ctrl Pts',(1.10594565472102,32.8927021450738,0.77647993677944));
#258=CARTESIAN_POINT('Ctrl Pts',(3.31656778312407,32.3888059122384,0.776479936779441));
#259=CARTESIAN_POINT('Ctrl Pts',(5.97857090905324,30.2660088401656,0.77647993677944));
#260=CARTESIAN_POINT('Ctrl Pts',(7.4516670698448,27.2026449067904,0.77647993677944));
#261=CARTESIAN_POINT('Ctrl Pts',(7.45825619878313,23.4174887228144,0.77647993677944));
#262=CARTESIAN_POINT('Ctrl Pts',(5.72375457005064,20.4171501795825,0.77647993677944));
#263=CARTESIAN_POINT('Ctrl Pts',(2.94690552968172,18.5290630646028,0.776479936779441));
#264=CARTESIAN_POINT('Ctrl Pts',(0.00076133969501758,17.8538980714764,0.776479936779439));
#265=CARTESIAN_POINT('Ctrl Pts',(-3.31772928845947,18.6119085205679,0.776479936779439));
#266=CARTESIAN_POINT('Ctrl Pts',(-5.97719166097338,20.732959506727,0.77647993677944));
#267=CARTESIAN_POINT('Ctrl Pts',(-7.45383607845504,23.7988863687965,0.77647993677944));
#268=CARTESIAN_POINT('Ctrl Pts',(-7.4534542437405,27.2011653177126,0.776479936779439));
#269=CARTESIAN_POINT('Ctrl Pts',(-5.97802352400858,30.2670487298683,0.77647993677944));
#270=CARTESIAN_POINT('Ctrl Pts',(-3.31693536729739,32.3883056338789,0.776479936779439));
#271=CARTESIAN_POINT('Ctrl Pts',(-1.10594565472102,32.8927021450738,0.77647993677944));
#272=CARTESIAN_POINT('Ctrl Pts',(-1.61021072771557E-15,32.8927021450738,
0.77647993677944));
#273=CARTESIAN_POINT('Ctrl Pts',(0.,33.0140532176107,1.05739061848376));
#274=CARTESIAN_POINT('Ctrl Pts',(1.1240997327204,33.0140532176107,1.05739061848376));
#275=CARTESIAN_POINT('Ctrl Pts',(3.37100918353834,32.5018855371907,1.05739061848376));
#276=CARTESIAN_POINT('Ctrl Pts',(6.07670904282547,30.3442427894205,1.05739061848376));
#277=CARTESIAN_POINT('Ctrl Pts',(7.5739860505596,27.2305937922634,1.05739061848376));
#278=CARTESIAN_POINT('Ctrl Pts',(7.58068333993076,23.3833043377145,1.05739061848376));
#279=CARTESIAN_POINT('Ctrl Pts',(5.81770989820848,20.3337152913445,1.05739061848376));
#280=CARTESIAN_POINT('Ctrl Pts',(2.99527893086495,18.414635260385,1.05739061848376));
#281=CARTESIAN_POINT('Ctrl Pts',(0.000773837072395809,17.728387446059,1.05739061848376));
#282=CARTESIAN_POINT('Ctrl Pts',(-3.3721897549629,18.4988406230173,1.05739061848375));
#283=CARTESIAN_POINT('Ctrl Pts',(-6.07530715441322,20.6547086229049,1.05739061848376));
#284=CARTESIAN_POINT('Ctrl Pts',(-7.57619066340711,23.7709626191847,1.05739061848376));
#285=CARTESIAN_POINT('Ctrl Pts',(-7.57580256088261,27.2290899157575,1.05739061848376));
#286=CARTESIAN_POINT('Ctrl Pts',(-6.07615267246516,30.3452997488939,1.05739061848376));
#287=CARTESIAN_POINT('Ctrl Pts',(-3.37138280159925,32.5013770467709,1.05739061848376));
#288=CARTESIAN_POINT('Ctrl Pts',(-1.12409973272041,33.0140532176107,1.05739061848376));
#289=CARTESIAN_POINT('Ctrl Pts',(-1.84041224431396E-15,33.0140532176107,
1.05739061848376));
#290=CARTESIAN_POINT('',(-1.1498076945188E-15,32.65,0.214658573370807));
#291=CARTESIAN_POINT('',(0.,33.0140532176107,1.05739061848376));
#292=CARTESIAN_POINT('',(4.37811230695179E-16,32.65,0.214658573370807));
#293=CARTESIAN_POINT('Ctrl Pts',(0.,33.0140532176107,1.05739061848376));
#294=CARTESIAN_POINT('Ctrl Pts',(1.1240997327204,33.0140532176107,1.05739061848376));
#295=CARTESIAN_POINT('Ctrl Pts',(3.37100918353834,32.5018855371907,1.05739061848376));
#296=CARTESIAN_POINT('Ctrl Pts',(6.07670904282547,30.3442427894205,1.05739061848376));
#297=CARTESIAN_POINT('Ctrl Pts',(7.5739860505596,27.2305937922634,1.05739061848376));
#298=CARTESIAN_POINT('Ctrl Pts',(7.58068333993076,23.3833043377145,1.05739061848376));
#299=CARTESIAN_POINT('Ctrl Pts',(5.81770989820848,20.3337152913445,1.05739061848376));
#300=CARTESIAN_POINT('Ctrl Pts',(2.99527893086495,18.414635260385,1.05739061848376));
#301=CARTESIAN_POINT('Ctrl Pts',(0.000773837072395809,17.728387446059,1.05739061848376));
#302=CARTESIAN_POINT('Ctrl Pts',(-3.3721897549629,18.4988406230173,1.05739061848375));
#303=CARTESIAN_POINT('Ctrl Pts',(-6.07530715441322,20.6547086229049,1.05739061848376));
#304=CARTESIAN_POINT('Ctrl Pts',(-7.57619066340711,23.7709626191847,1.05739061848376));
#305=CARTESIAN_POINT('Ctrl Pts',(-7.57580256088261,27.2290899157575,1.05739061848376));
#306=CARTESIAN_POINT('Ctrl Pts',(-6.07615267246516,30.3452997488939,1.05739061848376));
#307=CARTESIAN_POINT('Ctrl Pts',(-3.37138280159925,32.5013770467709,1.05739061848376));
#308=CARTESIAN_POINT('Ctrl Pts',(-1.12409973272041,33.0140532176107,1.05739061848376));
#309=CARTESIAN_POINT('Ctrl Pts',(-1.84041224431396E-15,33.0140532176107,
1.05739061848376));
#310=CARTESIAN_POINT('',(-7.1494597878199,25.5000241193328,0.214658573370807));
#311=CARTESIAN_POINT('Ctrl Pts',(-1.1498076945188E-15,32.65,0.214658573370807));
#312=CARTESIAN_POINT('Ctrl Pts',(-1.06963749872224,32.65,0.214658573370807));
#313=CARTESIAN_POINT('Ctrl Pts',(-3.20804049869368,32.1621628080949,0.214658573370807));
#314=CARTESIAN_POINT('Ctrl Pts',(-5.78176522709542,30.110546691817,0.214658573370807));
#315=CARTESIAN_POINT('Ctrl Pts',(-6.97092554572949,27.6395212166551,0.214658573370807));
#316=CARTESIAN_POINT('Ctrl Pts',(-7.14943808068508,26.0348990502799,0.214658573370807));
#317=CARTESIAN_POINT('Ctrl Pts',(-7.1494597878199,25.5000241193328,0.214658573370807));
#318=CARTESIAN_POINT('Ctrl Pts',(-7.1494597878199,25.5000241193328,0.214658573370807));
#319=CARTESIAN_POINT('Ctrl Pts',(-7.14948149495472,24.9651491883857,0.214658573370807));
#320=CARTESIAN_POINT('Ctrl Pts',(-6.97109920280805,23.3605217690786,0.214658573370807));
#321=CARTESIAN_POINT('Ctrl Pts',(-5.78096067409369,20.8894612743712,0.214658573370807));
#322=CARTESIAN_POINT('Ctrl Pts',(-3.20880835545261,18.8380443156691,0.214658573370807));
#323=CARTESIAN_POINT('Ctrl Pts',(0.000736344940260664,18.1049193223112,
0.214658573370807));
#324=CARTESIAN_POINT('Ctrl Pts',(2.85015872731526,18.7579186730386,0.214658573370807));
#325=CARTESIAN_POINT('Ctrl Pts',(5.53584391373495,20.5840199560587,0.214658573370807));
#326=CARTESIAN_POINT('Ctrl Pts',(7.21340191648789,23.4858574930144,0.214658573370807));
#327=CARTESIAN_POINT('Ctrl Pts',(7.20702910841521,27.1467471358445,0.214658573370807));
#328=CARTESIAN_POINT('Ctrl Pts',(5.78229464150878,30.1095409416557,0.214658573370807));
#329=CARTESIAN_POINT('Ctrl Pts',(3.20768498229552,32.1626466623339,0.214658573370807));
#330=CARTESIAN_POINT('Ctrl Pts',(1.06963749872224,32.65,0.214658573370807));
#331=CARTESIAN_POINT('Ctrl Pts',(4.37811230695179E-16,32.65,0.214658573370807));
#332=CARTESIAN_POINT('Ctrl Pts',(0.,32.65,0.714658573370807));
#333=CARTESIAN_POINT('Ctrl Pts',(7.15,32.65,0.714658573370807));
#334=CARTESIAN_POINT('Ctrl Pts',(7.15,25.5,0.714658573370807));
#335=CARTESIAN_POINT('Ctrl Pts',(7.15,18.35,0.714658573370807));
#336=CARTESIAN_POINT('Ctrl Pts',(0.,18.35,0.714658573370807));
#337=CARTESIAN_POINT('Ctrl Pts',(-7.15,18.35,0.714658573370807));
#338=CARTESIAN_POINT('Ctrl Pts',(-7.15,25.5,0.714658573370807));
#339=CARTESIAN_POINT('Ctrl Pts',(-7.15,32.65,0.714658573370807));
#340=CARTESIAN_POINT('Ctrl Pts',(0.,32.65,0.714658573370807));
#341=CARTESIAN_POINT('Ctrl Pts',(0.,32.8750517898318,0.928925775664367));
#342=CARTESIAN_POINT('Ctrl Pts',(7.37505178983177,32.8750517898318,0.928925775664367));
#343=CARTESIAN_POINT('Ctrl Pts',(7.37505178983177,25.5,0.928925775664367));
#344=CARTESIAN_POINT('Ctrl Pts',(7.37505178983177,18.1249482101682,0.928925775664367));
#345=CARTESIAN_POINT('Ctrl Pts',(0.,18.1249482101682,0.928925775664367));
#346=CARTESIAN_POINT('Ctrl Pts',(-7.37505178983177,18.1249482101682,0.928925775664367));
#347=CARTESIAN_POINT('Ctrl Pts',(-7.37505178983177,25.5,0.928925775664367));
#348=CARTESIAN_POINT('Ctrl Pts',(-7.37505178983177,32.8750517898318,0.928925775664367));
#349=CARTESIAN_POINT('Ctrl Pts',(0.,32.8750517898318,0.928925775664367));
#350=CARTESIAN_POINT('Ctrl Pts',(0.,34.1113040303629,1.85518249081409));
#351=CARTESIAN_POINT('Ctrl Pts',(8.61130403036288,34.1113040303629,1.85518249081409));
#352=CARTESIAN_POINT('Ctrl Pts',(8.61130403036288,25.5,1.85518249081409));
#353=CARTESIAN_POINT('Ctrl Pts',(8.61130403036288,16.8886959696371,1.85518249081409));
#354=CARTESIAN_POINT('Ctrl Pts',(0.,16.8886959696371,1.85518249081409));
#355=CARTESIAN_POINT('Ctrl Pts',(-8.61130403036288,16.8886959696371,1.85518249081409));
#356=CARTESIAN_POINT('Ctrl Pts',(-8.61130403036288,25.5,1.85518249081409));
#357=CARTESIAN_POINT('Ctrl Pts',(-8.61130403036288,34.1113040303629,1.85518249081409));
#358=CARTESIAN_POINT('Ctrl Pts',(0.,34.1113040303629,1.85518249081409));
#359=CARTESIAN_POINT('Ctrl Pts',(0.,33.8170212282214,3.9218229166216));
#360=CARTESIAN_POINT('Ctrl Pts',(8.3170212282214,33.8170212282214,3.9218229166216));
#361=CARTESIAN_POINT('Ctrl Pts',(8.3170212282214,25.5,3.9218229166216));
#362=CARTESIAN_POINT('Ctrl Pts',(8.3170212282214,17.1829787717786,3.9218229166216));
#363=CARTESIAN_POINT('Ctrl Pts',(0.,17.1829787717786,3.9218229166216));
#364=CARTESIAN_POINT('Ctrl Pts',(-8.3170212282214,17.1829787717786,3.9218229166216));
#365=CARTESIAN_POINT('Ctrl Pts',(-8.3170212282214,25.5,3.9218229166216));
#366=CARTESIAN_POINT('Ctrl Pts',(-8.3170212282214,33.8170212282214,3.9218229166216));
#367=CARTESIAN_POINT('Ctrl Pts',(0.,33.8170212282214,3.9218229166216));
#368=CARTESIAN_POINT('Ctrl Pts',(0.,32.5368654865844,4.28015121482387));
#369=CARTESIAN_POINT('Ctrl Pts',(7.03686548658438,32.5368654865844,4.28015121482387));
#370=CARTESIAN_POINT('Ctrl Pts',(7.03686548658438,25.5,4.28015121482387));
#371=CARTESIAN_POINT('Ctrl Pts',(7.03686548658438,18.4631345134156,4.28015121482387));
#372=CARTESIAN_POINT('Ctrl Pts',(0.,18.4631345134156,4.28015121482387));
#373=CARTESIAN_POINT('Ctrl Pts',(-7.03686548658438,18.4631345134156,4.28015121482387));
#374=CARTESIAN_POINT('Ctrl Pts',(-7.03686548658438,25.5,4.28015121482387));
#375=CARTESIAN_POINT('Ctrl Pts',(-7.03686548658438,32.5368654865844,4.28015121482387));
#376=CARTESIAN_POINT('Ctrl Pts',(0.,32.5368654865844,4.28015121482387));
#377=CARTESIAN_POINT('Ctrl Pts',(0.,33.4931779100973,5.05281262839479));
#378=CARTESIAN_POINT('Ctrl Pts',(7.99317791009732,33.4931779100973,5.05281262839479));
#379=CARTESIAN_POINT('Ctrl Pts',(7.99317791009733,25.5,5.05281262839479));
#380=CARTESIAN_POINT('Ctrl Pts',(7.99317791009732,17.5068220899027,5.05281262839479));
#381=CARTESIAN_POINT('Ctrl Pts',(0.,17.5068220899027,5.05281262839479));
#382=CARTESIAN_POINT('Ctrl Pts',(-7.99317791009732,17.5068220899027,5.05281262839479));
#383=CARTESIAN_POINT('Ctrl Pts',(-7.99317791009733,25.5,5.05281262839479));
#384=CARTESIAN_POINT('Ctrl Pts',(-7.99317791009732,33.4931779100973,5.05281262839479));
#385=CARTESIAN_POINT('Ctrl Pts',(0.,33.4931779100973,5.05281262839479));
#386=CARTESIAN_POINT('Ctrl Pts',(0.,30.6959523322066,6.45849360244399));
#387=CARTESIAN_POINT('Ctrl Pts',(5.19595233220655,30.6959523322066,6.45849360244399));
#388=CARTESIAN_POINT('Ctrl Pts',(5.19595233220655,25.5,6.45849360244399));
#389=CARTESIAN_POINT('Ctrl Pts',(5.19595233220655,20.3040476677934,6.45849360244399));
#390=CARTESIAN_POINT('Ctrl Pts',(0.,20.3040476677934,6.45849360244399));
#391=CARTESIAN_POINT('Ctrl Pts',(-5.19595233220655,20.3040476677934,6.45849360244399));
#392=CARTESIAN_POINT('Ctrl Pts',(-5.19595233220655,25.5,6.45849360244399));
#393=CARTESIAN_POINT('Ctrl Pts',(-5.19595233220655,30.6959523322066,6.45849360244399));
#394=CARTESIAN_POINT('Ctrl Pts',(0.,30.6959523322066,6.45849360244399));
#395=CARTESIAN_POINT('Ctrl Pts',(0.,27.8628203508204,9.81092305849916));
#396=CARTESIAN_POINT('Ctrl Pts',(2.3628203508204,27.8628203508204,9.81092305849916));
#397=CARTESIAN_POINT('Ctrl Pts',(2.3628203508204,25.5,9.81092305849916));
#398=CARTESIAN_POINT('Ctrl Pts',(2.3628203508204,23.1371796491796,9.81092305849916));
#399=CARTESIAN_POINT('Ctrl Pts',(0.,23.1371796491796,9.81092305849916));
#400=CARTESIAN_POINT('Ctrl Pts',(-2.3628203508204,23.1371796491796,9.81092305849916));
#401=CARTESIAN_POINT('Ctrl Pts',(-2.3628203508204,25.5,9.81092305849916));
#402=CARTESIAN_POINT('Ctrl Pts',(-2.3628203508204,27.8628203508204,9.81092305849916));
#403=CARTESIAN_POINT('Ctrl Pts',(0.,27.8628203508204,9.81092305849916));
#404=CARTESIAN_POINT('Ctrl Pts',(0.,28.0192341451107,12.2414564859497));
#405=CARTESIAN_POINT('Ctrl Pts',(2.51923414511072,28.0192341451107,12.2414564859497));
#406=CARTESIAN_POINT('Ctrl Pts',(2.51923414511072,25.5,12.2414564859497));
#407=CARTESIAN_POINT('Ctrl Pts',(2.51923414511072,22.9807658548893,12.2414564859497));
#408=CARTESIAN_POINT('Ctrl Pts',(0.,22.9807658548893,12.2414564859497));
#409=CARTESIAN_POINT('Ctrl Pts',(-2.51923414511072,22.9807658548893,12.2414564859497));
#410=CARTESIAN_POINT('Ctrl Pts',(-2.51923414511072,25.5,12.2414564859497));
#411=CARTESIAN_POINT('Ctrl Pts',(-2.51923414511072,28.0192341451107,12.2414564859497));
#412=CARTESIAN_POINT('Ctrl Pts',(0.,28.0192341451107,12.2414564859497));
#413=CARTESIAN_POINT('Ctrl Pts',(0.,27.8628203508204,13.535651540167));
#414=CARTESIAN_POINT('Ctrl Pts',(2.3628203508204,27.8628203508204,13.535651540167));
#415=CARTESIAN_POINT('Ctrl Pts',(2.3628203508204,25.5,13.535651540167));
#416=CARTESIAN_POINT('Ctrl Pts',(2.3628203508204,23.1371796491796,13.535651540167));
#417=CARTESIAN_POINT('Ctrl Pts',(0.,23.1371796491796,13.535651540167));
#418=CARTESIAN_POINT('Ctrl Pts',(-2.3628203508204,23.1371796491796,13.535651540167));
#419=CARTESIAN_POINT('Ctrl Pts',(-2.3628203508204,25.5,13.535651540167));
#420=CARTESIAN_POINT('Ctrl Pts',(-2.3628203508204,27.8628203508204,13.535651540167));
#421=CARTESIAN_POINT('Ctrl Pts',(0.,27.8628203508204,13.535651540167));
#422=CARTESIAN_POINT('Ctrl Pts',(0.,28.0192341451107,14.8821170349085));
#423=CARTESIAN_POINT('Ctrl Pts',(2.51923414511072,28.0192341451107,14.8821170349085));
#424=CARTESIAN_POINT('Ctrl Pts',(2.51923414511072,25.5,14.8821170349085));
#425=CARTESIAN_POINT('Ctrl Pts',(2.51923414511072,22.9807658548893,14.8821170349085));
#426=CARTESIAN_POINT('Ctrl Pts',(0.,22.9807658548893,14.8821170349085));
#427=CARTESIAN_POINT('Ctrl Pts',(-2.51923414511072,22.9807658548893,14.8821170349085));
#428=CARTESIAN_POINT('Ctrl Pts',(-2.51923414511072,25.5,14.8821170349085));
#429=CARTESIAN_POINT('Ctrl Pts',(-2.51923414511072,28.0192341451107,14.8821170349085));
#430=CARTESIAN_POINT('Ctrl Pts',(0.,28.0192341451107,14.8821170349085));
#431=CARTESIAN_POINT('Ctrl Pts',(0.,28.2811735100388,16.0937506128316));
#432=CARTESIAN_POINT('Ctrl Pts',(2.78117351003883,28.2811735100388,16.0937506128316));
#433=CARTESIAN_POINT('Ctrl Pts',(2.78117351003883,25.5,16.0937506128316));
#434=CARTESIAN_POINT('Ctrl Pts',(2.78117351003883,22.7188264899612,16.0937506128316));
#435=CARTESIAN_POINT('Ctrl Pts',(0.,22.7188264899612,16.0937506128316));
#436=CARTESIAN_POINT('Ctrl Pts',(-2.78117351003883,22.7188264899612,16.0937506128316));
#437=CARTESIAN_POINT('Ctrl Pts',(-2.78117351003883,25.5,16.0937506128316));
#438=CARTESIAN_POINT('Ctrl Pts',(-2.78117351003883,28.2811735100388,16.0937506128316));
#439=CARTESIAN_POINT('Ctrl Pts',(0.,28.2811735100388,16.0937506128316));
#440=CARTESIAN_POINT('Ctrl Pts',(0.,29.2696943128438,16.5796884602373));
#441=CARTESIAN_POINT('Ctrl Pts',(3.76969431284376,29.2696943128438,16.5796884602373));
#442=CARTESIAN_POINT('Ctrl Pts',(3.76969431284377,25.5,16.5796884602373));
#443=CARTESIAN_POINT('Ctrl Pts',(3.76969431284376,21.7303056871562,16.5796884602373));
#444=CARTESIAN_POINT('Ctrl Pts',(0.,21.7303056871562,16.5796884602373));
#445=CARTESIAN_POINT('Ctrl Pts',(-3.76969431284376,21.7303056871562,16.5796884602373));
#446=CARTESIAN_POINT('Ctrl Pts',(-3.76969431284377,25.5,16.5796884602373));
#447=CARTESIAN_POINT('Ctrl Pts',(-3.76969431284376,29.2696943128438,16.5796884602373));
#448=CARTESIAN_POINT('Ctrl Pts',(0.,29.2696943128438,16.5796884602373));
#449=CARTESIAN_POINT('Ctrl Pts',(0.,30.0001286160838,16.9387559396273));
#450=CARTESIAN_POINT('Ctrl Pts',(4.50012861608376,30.0001286160838,16.9387559396273));
#451=CARTESIAN_POINT('Ctrl Pts',(4.50012861608376,25.5,16.9387559396273));
#452=CARTESIAN_POINT('Ctrl Pts',(4.50012861608376,20.9998713839162,16.9387559396273));
#453=CARTESIAN_POINT('Ctrl Pts',(0.,20.9998713839162,16.9387559396273));
#454=CARTESIAN_POINT('Ctrl Pts',(-4.50012861608376,20.9998713839162,16.9387559396273));
#455=CARTESIAN_POINT('Ctrl Pts',(-4.50012861608376,25.5,16.9387559396273));
#456=CARTESIAN_POINT('Ctrl Pts',(-4.50012861608376,30.0001286160838,16.9387559396273));
#457=CARTESIAN_POINT('Ctrl Pts',(0.,30.0001286160838,16.9387559396273));
#458=CARTESIAN_POINT('Ctrl Pts',(0.,30.0017464475883,18.4559731187405));
#459=CARTESIAN_POINT('Ctrl Pts',(4.50174644758828,30.0017464475883,18.4559731187405));
#460=CARTESIAN_POINT('Ctrl Pts',(4.50174644758828,25.5,18.4559731187405));
#461=CARTESIAN_POINT('Ctrl Pts',(4.50174644758828,20.9982535524117,18.4559731187405));
#462=CARTESIAN_POINT('Ctrl Pts',(0.,20.9982535524117,18.4559731187405));
#463=CARTESIAN_POINT('Ctrl Pts',(-4.50174644758828,20.9982535524117,18.4559731187405));
#464=CARTESIAN_POINT('Ctrl Pts',(-4.50174644758828,25.5,18.4559731187405));
#465=CARTESIAN_POINT('Ctrl Pts',(-4.50174644758828,30.0017464475883,18.4559731187405));
#466=CARTESIAN_POINT('Ctrl Pts',(0.,30.0017464475883,18.4559731187405));
#467=CARTESIAN_POINT('Ctrl Pts',(0.,28.8315125127922,18.9382013750911));
#468=CARTESIAN_POINT('Ctrl Pts',(3.3315125127922,28.8315125127922,18.9382013750911));
#469=CARTESIAN_POINT('Ctrl Pts',(3.3315125127922,25.5,18.9382013750911));
#470=CARTESIAN_POINT('Ctrl Pts',(3.3315125127922,22.1684874872078,18.9382013750911));
#471=CARTESIAN_POINT('Ctrl Pts',(0.,22.1684874872078,18.9382013750911));
#472=CARTESIAN_POINT('Ctrl Pts',(-3.3315125127922,22.1684874872078,18.9382013750911));
#473=CARTESIAN_POINT('Ctrl Pts',(-3.3315125127922,25.5,18.9382013750911));
#474=CARTESIAN_POINT('Ctrl Pts',(-3.3315125127922,28.8315125127922,18.9382013750911));
#475=CARTESIAN_POINT('Ctrl Pts',(0.,28.8315125127922,18.9382013750911));
#476=CARTESIAN_POINT('Ctrl Pts',(0.,28.8280389346905,18.9396235581918));
#477=CARTESIAN_POINT('Ctrl Pts',(3.32803893469047,28.8280389346905,18.9396235581918));
#478=CARTESIAN_POINT('Ctrl Pts',(3.32803893469047,25.5,18.9396235581918));
#479=CARTESIAN_POINT('Ctrl Pts',(3.32803893469047,22.1719610653095,18.9396235581918));
#480=CARTESIAN_POINT('Ctrl Pts',(0.,22.1719610653095,18.9396235581918));
#481=CARTESIAN_POINT('Ctrl Pts',(-3.32803893469047,22.1719610653095,18.9396235581918));
#482=CARTESIAN_POINT('Ctrl Pts',(-3.32803893469047,25.5,18.9396235581918));
#483=CARTESIAN_POINT('Ctrl Pts',(-3.32803893469047,28.8280389346905,18.9396235581918));
#484=CARTESIAN_POINT('Ctrl Pts',(0.,28.8280389346905,18.9396235581918));
#485=CARTESIAN_POINT('',(0.,28.8280389346905,18.9396235581918));
#486=CARTESIAN_POINT('Ctrl Pts',(0.,33.0140532176108,1.05739061848384));
#487=CARTESIAN_POINT('Ctrl Pts',(0.,33.3500255607984,1.4075521500103));
#488=CARTESIAN_POINT('Ctrl Pts',(0.,34.0293951198323,2.34127073069905));
#489=CARTESIAN_POINT('Ctrl Pts',(0.,33.7108088053966,3.95155282797603));
#490=CARTESIAN_POINT('Ctrl Pts',(0.,32.5368654865844,4.28015121482387));
#491=CARTESIAN_POINT('Ctrl Pts',(0.,33.4931779100973,5.05281262839479));
#492=CARTESIAN_POINT('Ctrl Pts',(0.,30.6959523322066,6.45849360244399));
#493=CARTESIAN_POINT('Ctrl Pts',(0.,27.8628203508204,9.81092305849916));
#494=CARTESIAN_POINT('Ctrl Pts',(0.,28.0192341451107,12.2414564859497));
#495=CARTESIAN_POINT('Ctrl Pts',(0.,27.8628203508204,13.535651540167));
#496=CARTESIAN_POINT('Ctrl Pts',(0.,28.0192341451107,14.8821170349085));
#497=CARTESIAN_POINT('Ctrl Pts',(0.,28.2811735100388,16.0937506128316));
#498=CARTESIAN_POINT('Ctrl Pts',(0.,29.2696943128438,16.5796884602373));
#499=CARTESIAN_POINT('Ctrl Pts',(0.,30.0001286160838,16.9387559396273));
#500=CARTESIAN_POINT('Ctrl Pts',(0.,30.0017464475883,18.4559731187405));
#501=CARTESIAN_POINT('Ctrl Pts',(0.,28.8315125127922,18.9382013750911));
#502=CARTESIAN_POINT('Ctrl Pts',(0.,28.8280389346905,18.9396235581918));
#503=CARTESIAN_POINT('',(-3.32803893469045,25.5,18.9396235581918));
#504=CARTESIAN_POINT('Origin',(0.,25.5,18.9396235581918));
#505=CARTESIAN_POINT('Origin',(0.,25.5,18.9396235581918));
#506=CARTESIAN_POINT('Origin',(0.,25.5,3.));
#507=CARTESIAN_POINT('',(-7.15,25.5,0.));
#508=CARTESIAN_POINT('Origin',(0.,25.5,0.));
#509=CARTESIAN_POINT('',(-7.15,25.5,3.));
#510=CARTESIAN_POINT('Origin',(0.,25.5,3.));
#511=CARTESIAN_POINT('',(3.,25.5,3.));
#512=CARTESIAN_POINT('Origin',(0.,25.5,3.));
#513=CARTESIAN_POINT('Origin',(0.,25.5,23.));
#514=CARTESIAN_POINT('',(-3.2146978477618E-16,25.5,28.25));
#515=CARTESIAN_POINT('Origin',(0.,25.5,23.));
#516=CARTESIAN_POINT('Origin',(0.,25.5,0.));
#517=CARTESIAN_POINT('',(3.,25.5,0.));
#518=CARTESIAN_POINT('',(3.,25.5,0.));
#519=CARTESIAN_POINT('Origin',(0.,25.5,0.));
#520=CARTESIAN_POINT('Origin',(0.,25.5,0.));
#521=CARTESIAN_POINT('polyline point',(0.,27.9316365244219,16.5404516984262));
#522=CARTESIAN_POINT('polyline point',(0.,27.8538164724735,16.3314056847848));
#523=CARTESIAN_POINT('polyline point',(0.,27.8538164724735,16.3314056847848));
#524=CARTESIAN_POINT('polyline point',(0.,28.5085893008002,16.0876581259236));
#525=CARTESIAN_POINT('polyline point',(0.,28.5085893008002,16.0876581259236));
#526=CARTESIAN_POINT('polyline point',(0.,28.5864093527486,16.296704139565));
#527=CARTESIAN_POINT('polyline point',(0.,28.5864093527486,16.296704139565));
#528=CARTESIAN_POINT('polyline point',(0.,27.9316365244219,16.5404516984262));
#529=CARTESIAN_POINT('polyline point',(0.,27.8370317553866,16.253585635911));
#530=CARTESIAN_POINT('polyline point',(0.,27.7454787530944,15.9056842409457));
#531=CARTESIAN_POINT('polyline point',(0.,27.7454787530944,15.9056842409457));
#532=CARTESIAN_POINT('polyline point',(0.,28.4075579633896,15.7314528629317));
#533=CARTESIAN_POINT('polyline point',(0.,28.4075579633896,15.7314528629317));
#534=CARTESIAN_POINT('polyline point',(0.,28.4991109656818,16.079354257897));
#535=CARTESIAN_POINT('polyline point',(0.,28.4991109656818,16.079354257897));
#536=CARTESIAN_POINT('polyline point',(0.,27.8370317553866,16.253585635911));
#537=CARTESIAN_POINT('polyline point',(0.,27.7340697613139,15.8623300738927));
#538=CARTESIAN_POINT('polyline point',(0.,27.5609620526164,15.0978203407954));
#539=CARTESIAN_POINT('polyline point',(0.,27.5609620526164,15.0978203407954));
#540=CARTESIAN_POINT('polyline point',(0.,28.3710656033858,14.9143888376891));
#541=CARTESIAN_POINT('polyline point',(0.,28.3710656033858,14.9143888376891));
#542=CARTESIAN_POINT('polyline point',(0.,28.5441733120834,15.6788985707863));
#543=CARTESIAN_POINT('polyline point',(0.,28.5441733120834,15.6788985707863));
#544=CARTESIAN_POINT('polyline point',(0.,27.7340697613139,15.8623300738927));
#545=CARTESIAN_POINT('polyline point',(0.,27.5469089113316,14.9813799717925));
#546=CARTESIAN_POINT('polyline point',(0.,27.5027418880546,14.0719408535152));
#547=CARTESIAN_POINT('polyline point',(0.,27.5027418880546,14.0719408535152));
#548=CARTESIAN_POINT('polyline point',(0.,28.4028999039435,14.0282245681239));
#549=CARTESIAN_POINT('polyline point',(0.,28.4028999039435,14.0282245681239));
#550=CARTESIAN_POINT('polyline point',(0.,28.4470669272204,14.9376636864012));
#551=CARTESIAN_POINT('polyline point',(0.,28.4470669272204,14.9376636864012));
#552=CARTESIAN_POINT('polyline point',(0.,27.5469089113316,14.9813799717925));
#553=CARTESIAN_POINT('polyline point',(0.,27.4908998640213,13.8281028246763));
#554=CARTESIAN_POINT('polyline point',(0.,27.5320062820222,12.655098833255));
#555=CARTESIAN_POINT('polyline point',(0.,27.5320062820222,12.655098833255));
#556=CARTESIAN_POINT('polyline point',(0.,28.8485092907857,12.7012339899753));
#557=CARTESIAN_POINT('polyline point',(0.,28.8485092907857,12.7012339899753));
#558=CARTESIAN_POINT('polyline point',(0.,28.8074028727847,13.8742379813966));
#559=CARTESIAN_POINT('polyline point',(0.,28.8074028727847,13.8742379813966));
#560=CARTESIAN_POINT('polyline point',(0.,27.4908998640213,13.8281028246763));
#561=CARTESIAN_POINT('polyline point',(0.,27.556108652127,12.495945607964));
#562=CARTESIAN_POINT('polyline point',(0.,27.7912552542405,11.1634548875356));
#563=CARTESIAN_POINT('polyline point',(0.,27.7912552542405,11.1634548875356));
#564=CARTESIAN_POINT('polyline point',(0.,29.3082995061596,11.4311699234646));
#565=CARTESIAN_POINT('polyline point',(0.,29.3082995061596,11.4311699234646));
#566=CARTESIAN_POINT('polyline point',(0.,29.0731529040461,12.763660643893));
#567=CARTESIAN_POINT('polyline point',(0.,29.0731529040461,12.763660643893));
#568=CARTESIAN_POINT('polyline point',(0.,27.556108652127,12.495945607964));
#569=CARTESIAN_POINT('polyline point',(0.,27.8370317553866,10.9040560170325));
#570=CARTESIAN_POINT('polyline point',(0.,28.2953085812302,9.6804592985748));
#571=CARTESIAN_POINT('polyline point',(0.,28.2953085812302,9.6804592985748));
#572=CARTESIAN_POINT('polyline point',(0.,29.8371346163865,10.2579233688324));
#573=CARTESIAN_POINT('polyline point',(0.,29.8371346163865,10.2579233688324));
#574=CARTESIAN_POINT('polyline point',(0.,29.378857790543,11.4815200872901));
#575=CARTESIAN_POINT('polyline point',(0.,29.378857790543,11.4815200872901));
#576=CARTESIAN_POINT('polyline point',(0.,27.8370317553866,10.9040560170325));
#577=CARTESIAN_POINT('polyline point',(0.,28.4907313651163,9.15868149182057));
#578=CARTESIAN_POINT('polyline point',(0.,29.2582944919074,8.04463547312345));
#579=CARTESIAN_POINT('polyline point',(0.,29.2582944919074,8.04463547312345));
#580=CARTESIAN_POINT('polyline point',(0.,30.9088928654441,9.1818761502634));
#581=CARTESIAN_POINT('polyline point',(0.,30.9088928654441,9.1818761502634));
#582=CARTESIAN_POINT('polyline point',(0.,30.141329738653,10.2959221689605));
#583=CARTESIAN_POINT('polyline point',(0.,30.141329738653,10.2959221689605));
#584=CARTESIAN_POINT('polyline point',(0.,28.4907313651163,9.15868149182057));
#585=CARTESIAN_POINT('polyline point',(0.,29.7116803592181,7.60917327592241));
#586=CARTESIAN_POINT('polyline point',(0.,31.4159334401929,6.0425388));
#587=CARTESIAN_POINT('polyline point',(0.,31.4159334401929,6.0425388));
#588=CARTESIAN_POINT('polyline point',(0.,33.1004821928396,7.87506415666305));
#589=CARTESIAN_POINT('polyline point',(0.,33.1004821928396,7.87506415666305));
#590=CARTESIAN_POINT('polyline point',(0.,31.3962291118648,9.44169863258546));
#591=CARTESIAN_POINT('polyline point',(0.,31.3962291118648,9.44169863258546));
#592=CARTESIAN_POINT('polyline point',(0.,29.7116803592181,7.60917327592241));
#593=CARTESIAN_POINT('polyline point',(0.,25.5,-5.65));
#594=CARTESIAN_POINT('polyline point',(0.,25.5,33.9));
#595=CARTESIAN_POINT('polyline point',(0.,22.5,0.));
#596=CARTESIAN_POINT('polyline point',(0.,28.5,0.));
#597=CARTESIAN_POINT('',(0.,0.,0.));
#598=CARTESIAN_POINT('',(0.,28.377105062063,14.9410613930369));
#599=CARTESIAN_POINT('',(0.,28.2194566482579,14.9487176077544));
#600=CARTESIAN_POINT('',(0.,28.6874131636103,12.6955885831477));
#601=CARTESIAN_POINT('',(0.,28.8477157807863,12.7238774223576));
#602=CARTESIAN_POINT('',(0.,29.1875095659471,11.4098539446176));
#603=CARTESIAN_POINT('',(0.,29.3043393817108,11.4536105159817));
#604=CARTESIAN_POINT('',(0.,29.4445923823039,10.1109035163505));
#605=CARTESIAN_POINT('',(0.,29.8003863927134,10.3560409330641));
#606=UNCERTAINTY_MEASURE_WITH_UNIT(LENGTH_MEASURE(0.01),#610,
'DISTANCE_ACCURACY_VALUE',
'Maximum model space distance between geometric entities at asserted c
onnectivities');
#607=UNCERTAINTY_MEASURE_WITH_UNIT(LENGTH_MEASURE(0.01),#610,
'DISTANCE_ACCURACY_VALUE',
'Maximum model space distance between geometric entities at asserted c
onnectivities');
#608=(
GEOMETRIC_REPRESENTATION_CONTEXT(3)
GLOBAL_UNCERTAINTY_ASSIGNED_CONTEXT((#606))
GLOBAL_UNIT_ASSIGNED_CONTEXT((#610,#612,#613))
REPRESENTATION_CONTEXT('','3D')
);
#609=(
GEOMETRIC_REPRESENTATION_CONTEXT(3)
GLOBAL_UNCERTAINTY_ASSIGNED_CONTEXT((#607))
GLOBAL_UNIT_ASSIGNED_CONTEXT((#610,#612,#613))
REPRESENTATION_CONTEXT('','3D')
);
#610=(
LENGTH_UNIT()
NAMED_UNIT(*)
SI_UNIT(.MILLI.,.METRE.)
);
#611=(
LENGTH_UNIT()
NAMED_UNIT(*)
SI_UNIT(.CENTI.,.METRE.)
);
#612=(
NAMED_UNIT(*)
PLANE_ANGLE_UNIT()
SI_UNIT($,.RADIAN.)
);
#613=(
NAMED_UNIT(*)
SI_UNIT($,.STERADIAN.)
SOLID_ANGLE_UNIT()
);
#614=SHAPE_DEFINITION_REPRESENTATION(#615,#616);
#615=PRODUCT_DEFINITION_SHAPE('',$,#618);
#616=SHAPE_REPRESENTATION('',(#182),#608);
#617=PRODUCT_DEFINITION_CONTEXT('part definition',#622,'design');
#618=PRODUCT_DEFINITION('pawn-white-v2','pawn-white-v2',#619,#617);
#619=PRODUCT_DEFINITION_FORMATION('',$,#624);
#620=PRODUCT_RELATED_PRODUCT_CATEGORY('pawn-white-v2','pawn-white-v2',(#624));
#621=APPLICATION_PROTOCOL_DEFINITION('international standard',
'automotive_design',2009,#622);
#622=APPLICATION_CONTEXT(
'Core Data for Automotive Mechanical Design Process');
#623=PRODUCT_CONTEXT('part definition',#622,'mechanical');
#624=PRODUCT('pawn-white-v2','pawn-white-v2',$,(#623));
#625=PRESENTATION_STYLE_ASSIGNMENT((#628));
#626=PRESENTATION_STYLE_ASSIGNMENT((#629));
#627=PRESENTATION_STYLE_ASSIGNMENT((#630));
#628=SURFACE_STYLE_USAGE(.BOTH.,#633);
#629=SURFACE_STYLE_USAGE(.BOTH.,#634);
#630=SURFACE_STYLE_USAGE(.BOTH.,#635);
#631=SURFACE_STYLE_RENDERING_WITH_PROPERTIES($,#645,(#632));
#632=SURFACE_STYLE_TRANSPARENT(0.);
#633=SURFACE_SIDE_STYLE('',(#636,#631));
#634=SURFACE_SIDE_STYLE('',(#637));
#635=SURFACE_SIDE_STYLE('',(#638));
#636=SURFACE_STYLE_FILL_AREA(#639);
#637=SURFACE_STYLE_FILL_AREA(#640);
#638=SURFACE_STYLE_FILL_AREA(#641);
#639=FILL_AREA_STYLE('',(#642));
#640=FILL_AREA_STYLE('',(#643));
#641=FILL_AREA_STYLE('',(#644));
#642=FILL_AREA_STYLE_COLOUR('',#645);
#643=FILL_AREA_STYLE_COLOUR('',#646);
#644=FILL_AREA_STYLE_COLOUR('',#647);
#645=COLOUR_RGB('',0.749019607843137,0.749019607843137,0.749019607843137);
#646=COLOUR_RGB('',1.,1.,0.);
#647=COLOUR_RGB('',0.,0.,0.);
ENDSEC;
END-ISO-10303-21;
