ISO-10303-21;
HEADER;
/* Generated by software containing ST-Developer
 * from STEP Tools, Inc. (www.steptools.com) 
 */

FILE_DESCRIPTION(
/* description */ (''),
/* implementation_level */ '2;1');

FILE_NAME(
/* name */ 'table-legs.stp',
/* time_stamp */ '2025-02-23T23:09:58Z',
/* author */ ('iwheard'),
/* organization */ (''),
/* preprocessor_version */ 'ST-DEVELOPER v20',
/* originating_system */ 'Autodesk Inventor 2024',
/* authorisation */ '');

FILE_SCHEMA (('AUTOMOTIVE_DESIGN { 1 0 10303 214 3 1 1 }'));
ENDSEC;

DATA;
#10=MECHANICAL_DESIGN_GEOMETRIC_PRESENTATION_REPRESENTATION('',(#13),#2007);
#11=SHAPE_REPRESENTATION_RELATIONSHIP('SRR','None',#2014,#12);
#12=ADVANCED_BREP_SHAPE_REPRESENTATION('',(#14),#2006);
#13=STYLED_ITEM('',(#2023),#14);
#14=MANIFOLD_SOLID_BREP('leggie-boi',#1157);
#15=FACE_BOUND('',#168,.T.);
#16=FACE_BOUND('',#169,.T.);
#17=FACE_BOUND('',#170,.T.);
#18=CONICAL_SURFACE('',#1283,7.5,0.20943951023932);
#19=CONICAL_SURFACE('',#1287,7.5,0.20943951023932);
#20=CONICAL_SURFACE('',#1291,7.5,0.20943951023932);
#21=ELLIPSE('',#1215,5.11209785381806,2.);
#22=ELLIPSE('',#1223,5.11209785381806,2.);
#23=ELLIPSE('',#1224,5.11209785381806,2.);
#24=ELLIPSE('',#1230,9.61946868948826,2.);
#25=ELLIPSE('',#1231,9.61946868948826,2.);
#26=ELLIPSE('',#1232,9.61946868948826,2.);
#27=ELLIPSE('',#1237,5.11209785381807,2.);
#28=ELLIPSE('',#1250,9.61946868948826,2.);
#29=ELLIPSE('',#1252,5.11209785381806,2.);
#30=ELLIPSE('',#1261,5.11209785381807,2.);
#31=ELLIPSE('',#1263,9.61946868948827,2.);
#32=ELLIPSE('',#1271,9.61946868948827,2.);
#33=ELLIPSE('',#1273,5.11209785381806,2.);
#34=ELLIPSE('',#1275,9.61946868948826,2.);
#35=ELLIPSE('',#1285,3.92126878831565,1.32858113551644);
#36=ELLIPSE('',#1289,3.92126878831566,1.3285811355164);
#37=ELLIPSE('',#1293,3.92126878831566,1.32858113551644);
#38=CYLINDRICAL_SURFACE('',#1211,1.4);
#39=CYLINDRICAL_SURFACE('',#1216,1.4);
#40=CYLINDRICAL_SURFACE('',#1219,1.4);
#41=CYLINDRICAL_SURFACE('',#1225,1.4);
#42=CYLINDRICAL_SURFACE('',#1233,1.4);
#43=CYLINDRICAL_SURFACE('',#1238,1.4);
#44=CYLINDRICAL_SURFACE('',#1243,1.4);
#45=CYLINDRICAL_SURFACE('',#1246,2.);
#46=CYLINDRICAL_SURFACE('',#1256,2.);
#47=CYLINDRICAL_SURFACE('',#1265,1.4);
#48=CYLINDRICAL_SURFACE('',#1269,2.);
#49=CYLINDRICAL_SURFACE('',#1279,1.4);
#50=FACE_OUTER_BOUND('',#109,.T.);
#51=FACE_OUTER_BOUND('',#110,.T.);
#52=FACE_OUTER_BOUND('',#111,.T.);
#53=FACE_OUTER_BOUND('',#112,.T.);
#54=FACE_OUTER_BOUND('',#113,.T.);
#55=FACE_OUTER_BOUND('',#114,.T.);
#56=FACE_OUTER_BOUND('',#115,.T.);
#57=FACE_OUTER_BOUND('',#116,.T.);
#58=FACE_OUTER_BOUND('',#117,.T.);
#59=FACE_OUTER_BOUND('',#118,.T.);
#60=FACE_OUTER_BOUND('',#119,.T.);
#61=FACE_OUTER_BOUND('',#120,.T.);
#62=FACE_OUTER_BOUND('',#121,.T.);
#63=FACE_OUTER_BOUND('',#122,.T.);
#64=FACE_OUTER_BOUND('',#123,.T.);
#65=FACE_OUTER_BOUND('',#124,.T.);
#66=FACE_OUTER_BOUND('',#125,.T.);
#67=FACE_OUTER_BOUND('',#126,.T.);
#68=FACE_OUTER_BOUND('',#127,.T.);
#69=FACE_OUTER_BOUND('',#128,.T.);
#70=FACE_OUTER_BOUND('',#129,.T.);
#71=FACE_OUTER_BOUND('',#130,.T.);
#72=FACE_OUTER_BOUND('',#131,.T.);
#73=FACE_OUTER_BOUND('',#132,.T.);
#74=FACE_OUTER_BOUND('',#133,.T.);
#75=FACE_OUTER_BOUND('',#134,.T.);
#76=FACE_OUTER_BOUND('',#135,.T.);
#77=FACE_OUTER_BOUND('',#136,.T.);
#78=FACE_OUTER_BOUND('',#137,.T.);
#79=FACE_OUTER_BOUND('',#138,.T.);
#80=FACE_OUTER_BOUND('',#139,.T.);
#81=FACE_OUTER_BOUND('',#140,.T.);
#82=FACE_OUTER_BOUND('',#141,.T.);
#83=FACE_OUTER_BOUND('',#142,.T.);
#84=FACE_OUTER_BOUND('',#143,.T.);
#85=FACE_OUTER_BOUND('',#144,.T.);
#86=FACE_OUTER_BOUND('',#145,.T.);
#87=FACE_OUTER_BOUND('',#146,.T.);
#88=FACE_OUTER_BOUND('',#147,.T.);
#89=FACE_OUTER_BOUND('',#148,.T.);
#90=FACE_OUTER_BOUND('',#149,.T.);
#91=FACE_OUTER_BOUND('',#150,.T.);
#92=FACE_OUTER_BOUND('',#151,.T.);
#93=FACE_OUTER_BOUND('',#152,.T.);
#94=FACE_OUTER_BOUND('',#153,.T.);
#95=FACE_OUTER_BOUND('',#154,.T.);
#96=FACE_OUTER_BOUND('',#155,.T.);
#97=FACE_OUTER_BOUND('',#156,.T.);
#98=FACE_OUTER_BOUND('',#157,.T.);
#99=FACE_OUTER_BOUND('',#158,.T.);
#100=FACE_OUTER_BOUND('',#159,.T.);
#101=FACE_OUTER_BOUND('',#160,.T.);
#102=FACE_OUTER_BOUND('',#161,.T.);
#103=FACE_OUTER_BOUND('',#162,.T.);
#104=FACE_OUTER_BOUND('',#163,.T.);
#105=FACE_OUTER_BOUND('',#164,.T.);
#106=FACE_OUTER_BOUND('',#165,.T.);
#107=FACE_OUTER_BOUND('',#166,.T.);
#108=FACE_OUTER_BOUND('',#167,.T.);
#109=EDGE_LOOP('',(#712,#713,#714,#715,#716));
#110=EDGE_LOOP('',(#717,#718,#719,#720));
#111=EDGE_LOOP('',(#721,#722,#723,#724));
#112=EDGE_LOOP('',(#725,#726,#727,#728));
#113=EDGE_LOOP('',(#729,#730,#731,#732,#733));
#114=EDGE_LOOP('',(#734,#735,#736,#737));
#115=EDGE_LOOP('',(#738,#739,#740,#741));
#116=EDGE_LOOP('',(#742,#743,#744,#745));
#117=EDGE_LOOP('',(#746,#747,#748,#749,#750));
#118=EDGE_LOOP('',(#751,#752,#753,#754));
#119=EDGE_LOOP('',(#755,#756,#757,#758));
#120=EDGE_LOOP('',(#759,#760,#761,#762));
#121=EDGE_LOOP('',(#763,#764,#765,#766));
#122=EDGE_LOOP('',(#767,#768,#769,#770));
#123=EDGE_LOOP('',(#771,#772,#773,#774));
#124=EDGE_LOOP('',(#775,#776,#777,#778));
#125=EDGE_LOOP('',(#779,#780,#781,#782));
#126=EDGE_LOOP('',(#783,#784,#785,#786,#787));
#127=EDGE_LOOP('',(#788,#789,#790,#791));
#128=EDGE_LOOP('',(#792,#793,#794,#795));
#129=EDGE_LOOP('',(#796,#797,#798,#799));
#130=EDGE_LOOP('',(#800,#801,#802,#803,#804,#805,#806,#807,#808));
#131=EDGE_LOOP('',(#809,#810,#811,#812));
#132=EDGE_LOOP('',(#813,#814,#815,#816));
#133=EDGE_LOOP('',(#817,#818,#819,#820));
#134=EDGE_LOOP('',(#821,#822,#823,#824));
#135=EDGE_LOOP('',(#825,#826,#827,#828));
#136=EDGE_LOOP('',(#829,#830,#831,#832));
#137=EDGE_LOOP('',(#833,#834,#835,#836));
#138=EDGE_LOOP('',(#837,#838,#839,#840));
#139=EDGE_LOOP('',(#841,#842,#843,#844));
#140=EDGE_LOOP('',(#845,#846,#847,#848,#849,#850,#851,#852,#853,#854,#855,
#856,#857,#858,#859,#860,#861,#862,#863,#864,#865,#866));
#141=EDGE_LOOP('',(#867,#868,#869,#870));
#142=EDGE_LOOP('',(#871,#872,#873,#874,#875,#876,#877,#878,#879,#880,#881,
#882,#883,#884,#885,#886,#887,#888,#889,#890,#891,#892));
#143=EDGE_LOOP('',(#893,#894,#895,#896));
#144=EDGE_LOOP('',(#897,#898,#899,#900));
#145=EDGE_LOOP('',(#901,#902,#903,#904));
#146=EDGE_LOOP('',(#905,#906,#907,#908));
#147=EDGE_LOOP('',(#909,#910,#911,#912,#913,#914,#915,#916,#917,#918,#919,
#920,#921,#922,#923,#924,#925,#926,#927,#928,#929,#930));
#148=EDGE_LOOP('',(#931,#932,#933,#934));
#149=EDGE_LOOP('',(#935,#936,#937,#938));
#150=EDGE_LOOP('',(#939,#940,#941,#942));
#151=EDGE_LOOP('',(#943,#944,#945,#946));
#152=EDGE_LOOP('',(#947,#948,#949,#950,#951,#952,#953));
#153=EDGE_LOOP('',(#954,#955));
#154=EDGE_LOOP('',(#956,#957,#958,#959,#960,#961));
#155=EDGE_LOOP('',(#962,#963));
#156=EDGE_LOOP('',(#964,#965,#966,#967,#968,#969));
#157=EDGE_LOOP('',(#970,#971));
#158=EDGE_LOOP('',(#972,#973,#974));
#159=EDGE_LOOP('',(#975,#976,#977));
#160=EDGE_LOOP('',(#978,#979,#980));
#161=EDGE_LOOP('',(#981,#982,#983,#984));
#162=EDGE_LOOP('',(#985,#986,#987,#988));
#163=EDGE_LOOP('',(#989,#990,#991,#992));
#164=EDGE_LOOP('',(#993,#994,#995,#996,#997,#998,#999,#1000));
#165=EDGE_LOOP('',(#1001,#1002,#1003));
#166=EDGE_LOOP('',(#1004,#1005,#1006,#1007,#1008,#1009,#1010,#1011));
#167=EDGE_LOOP('',(#1012,#1013,#1014,#1015,#1016,#1017));
#168=EDGE_LOOP('',(#1018,#1019,#1020,#1021,#1022,#1023,#1024,#1025,#1026,
#1027,#1028,#1029));
#169=EDGE_LOOP('',(#1030,#1031,#1032,#1033,#1034,#1035,#1036,#1037,#1038,
#1039,#1040,#1041));
#170=EDGE_LOOP('',(#1042,#1043,#1044,#1045,#1046,#1047,#1048,#1049,#1050,
#1051,#1052,#1053));
#171=CIRCLE('',#1181,2.);
#172=CIRCLE('',#1182,2.);
#173=CIRCLE('',#1183,1.4);
#174=CIRCLE('',#1185,1.4);
#175=CIRCLE('',#1186,2.);
#176=CIRCLE('',#1188,2.);
#177=CIRCLE('',#1189,1.4);
#178=CIRCLE('',#1191,2.);
#179=CIRCLE('',#1192,1.4);
#180=CIRCLE('',#1194,1.4);
#181=CIRCLE('',#1195,2.);
#182=CIRCLE('',#1196,2.);
#183=CIRCLE('',#1198,2.);
#184=CIRCLE('',#1199,1.4);
#185=CIRCLE('',#1201,2.);
#186=CIRCLE('',#1202,1.4);
#187=CIRCLE('',#1204,1.4);
#188=CIRCLE('',#1205,2.);
#189=CIRCLE('',#1207,2.);
#190=CIRCLE('',#1208,2.);
#191=CIRCLE('',#1209,1.4);
#192=CIRCLE('',#1212,1.4);
#193=CIRCLE('',#1217,1.4);
#194=CIRCLE('',#1220,1.4);
#195=CIRCLE('',#1226,1.4);
#196=CIRCLE('',#1234,1.4);
#197=CIRCLE('',#1239,1.4);
#198=CIRCLE('',#1244,1.4);
#199=CIRCLE('',#1247,2.);
#200=CIRCLE('',#1248,2.);
#201=CIRCLE('',#1249,2.);
#202=CIRCLE('',#1251,2.);
#203=CIRCLE('',#1253,2.);
#204=CIRCLE('',#1254,2.);
#205=CIRCLE('',#1257,2.);
#206=CIRCLE('',#1258,2.);
#207=CIRCLE('',#1259,2.);
#208=CIRCLE('',#1260,2.);
#209=CIRCLE('',#1262,2.);
#210=CIRCLE('',#1266,1.4);
#211=CIRCLE('',#1270,2.);
#212=CIRCLE('',#1272,2.);
#213=CIRCLE('',#1274,2.);
#214=CIRCLE('',#1276,2.);
#215=CIRCLE('',#1277,2.);
#216=CIRCLE('',#1280,1.4);
#217=CIRCLE('',#1284,7.5);
#218=CIRCLE('',#1288,7.5);
#219=CIRCLE('',#1292,7.5);
#220=LINE('',#1666,#325);
#221=LINE('',#1672,#326);
#222=LINE('',#1677,#327);
#223=LINE('',#1681,#328);
#224=LINE('',#1686,#329);
#225=LINE('',#1690,#330);
#226=LINE('',#1695,#331);
#227=LINE('',#1699,#332);
#228=LINE('',#1704,#333);
#229=LINE('',#1708,#334);
#230=LINE('',#1715,#335);
#231=LINE('',#1719,#336);
#232=LINE('',#1724,#337);
#233=LINE('',#1728,#338);
#234=LINE('',#1733,#339);
#235=LINE('',#1737,#340);
#236=LINE('',#1742,#341);
#237=LINE('',#1748,#342);
#238=LINE('',#1752,#343);
#239=LINE('',#1754,#344);
#240=LINE('',#1755,#345);
#241=LINE('',#1758,#346);
#242=LINE('',#1762,#347);
#243=LINE('',#1763,#348);
#244=LINE('',#1769,#349);
#245=LINE('',#1771,#350);
#246=LINE('',#1772,#351);
#247=LINE('',#1775,#352);
#248=LINE('',#1778,#353);
#249=LINE('',#1781,#354);
#250=LINE('',#1782,#355);
#251=LINE('',#1785,#356);
#252=LINE('',#1788,#357);
#253=LINE('',#1791,#358);
#254=LINE('',#1792,#359);
#255=LINE('',#1800,#360);
#256=LINE('',#1802,#361);
#257=LINE('',#1803,#362);
#258=LINE('',#1806,#363);
#259=LINE('',#1809,#364);
#260=LINE('',#1812,#365);
#261=LINE('',#1813,#366);
#262=LINE('',#1816,#367);
#263=LINE('',#1818,#368);
#264=LINE('',#1819,#369);
#265=LINE('',#1824,#370);
#266=LINE('',#1826,#371);
#267=LINE('',#1828,#372);
#268=LINE('',#1834,#373);
#269=LINE('',#1835,#374);
#270=LINE('',#1838,#375);
#271=LINE('',#1842,#376);
#272=LINE('',#1843,#377);
#273=LINE('',#1848,#378);
#274=LINE('',#1849,#379);
#275=LINE('',#1852,#380);
#276=LINE('',#1855,#381);
#277=LINE('',#1858,#382);
#278=LINE('',#1859,#383);
#279=LINE('',#1862,#384);
#280=LINE('',#1863,#385);
#281=LINE('',#1866,#386);
#282=LINE('',#1868,#387);
#283=LINE('',#1869,#388);
#284=LINE('',#1873,#389);
#285=LINE('',#1876,#390);
#286=LINE('',#1877,#391);
#287=LINE('',#1882,#392);
#288=LINE('',#1894,#393);
#289=LINE('',#1895,#394);
#290=LINE('',#1899,#395);
#291=LINE('',#1901,#396);
#292=LINE('',#1904,#397);
#293=LINE('',#1914,#398);
#294=LINE('',#1915,#399);
#295=LINE('',#1919,#400);
#296=LINE('',#1921,#401);
#297=LINE('',#1924,#402);
#298=LINE('',#1925,#403);
#299=LINE('',#1928,#404);
#300=LINE('',#1931,#405);
#301=LINE('',#1932,#406);
#302=LINE('',#1943,#407);
#303=LINE('',#1948,#408);
#304=LINE('',#1949,#409);
#305=LINE('',#1953,#410);
#306=LINE('',#1955,#411);
#307=LINE('',#1957,#412);
#308=LINE('',#1960,#413);
#309=LINE('',#1967,#414);
#310=LINE('',#1972,#415);
#311=LINE('',#1975,#416);
#312=LINE('',#1980,#417);
#313=LINE('',#1981,#418);
#314=LINE('',#1984,#419);
#315=LINE('',#1985,#420);
#316=LINE('',#1988,#421);
#317=LINE('',#1989,#422);
#318=LINE('',#1991,#423);
#319=LINE('',#1992,#424);
#320=LINE('',#1994,#425);
#321=LINE('',#1995,#426);
#322=LINE('',#1997,#427);
#323=LINE('',#1999,#428);
#324=LINE('',#2002,#429);
#325=VECTOR('',#1309,10.);
#326=VECTOR('',#1314,10.);
#327=VECTOR('',#1319,10.);
#328=VECTOR('',#1322,10.);
#329=VECTOR('',#1327,10.);
#330=VECTOR('',#1330,10.);
#331=VECTOR('',#1335,10.);
#332=VECTOR('',#1338,10.);
#333=VECTOR('',#1343,10.);
#334=VECTOR('',#1346,10.);
#335=VECTOR('',#1353,10.);
#336=VECTOR('',#1356,10.);
#337=VECTOR('',#1361,10.);
#338=VECTOR('',#1364,10.);
#339=VECTOR('',#1369,10.);
#340=VECTOR('',#1372,10.);
#341=VECTOR('',#1377,10.);
#342=VECTOR('',#1382,10.);
#343=VECTOR('',#1387,10.);
#344=VECTOR('',#1388,10.);
#345=VECTOR('',#1389,10.);
#346=VECTOR('',#1392,10.);
#347=VECTOR('',#1397,10.);
#348=VECTOR('',#1398,10.);
#349=VECTOR('',#1403,10.);
#350=VECTOR('',#1404,10.);
#351=VECTOR('',#1405,10.);
#352=VECTOR('',#1408,10.);
#353=VECTOR('',#1411,10.);
#354=VECTOR('',#1414,10.);
#355=VECTOR('',#1415,10.);
#356=VECTOR('',#1418,10.);
#357=VECTOR('',#1421,10.);
#358=VECTOR('',#1424,10.);
#359=VECTOR('',#1425,10.);
#360=VECTOR('',#1432,10.);
#361=VECTOR('',#1433,10.);
#362=VECTOR('',#1434,10.);
#363=VECTOR('',#1437,10.);
#364=VECTOR('',#1440,10.);
#365=VECTOR('',#1443,10.);
#366=VECTOR('',#1444,10.);
#367=VECTOR('',#1447,10.);
#368=VECTOR('',#1448,10.);
#369=VECTOR('',#1449,10.);
#370=VECTOR('',#1454,10.);
#371=VECTOR('',#1455,10.);
#372=VECTOR('',#1456,10.);
#373=VECTOR('',#1461,10.);
#374=VECTOR('',#1462,10.);
#375=VECTOR('',#1465,10.);
#376=VECTOR('',#1470,10.);
#377=VECTOR('',#1471,10.);
#378=VECTOR('',#1476,10.);
#379=VECTOR('',#1477,10.);
#380=VECTOR('',#1480,10.);
#381=VECTOR('',#1483,10.);
#382=VECTOR('',#1486,10.);
#383=VECTOR('',#1487,10.);
#384=VECTOR('',#1490,10.);
#385=VECTOR('',#1491,10.);
#386=VECTOR('',#1494,10.);
#387=VECTOR('',#1495,10.);
#388=VECTOR('',#1496,10.);
#389=VECTOR('',#1501,10.);
#390=VECTOR('',#1504,10.);
#391=VECTOR('',#1505,10.);
#392=VECTOR('',#1512,2.);
#393=VECTOR('',#1527,10.);
#394=VECTOR('',#1528,10.);
#395=VECTOR('',#1533,10.);
#396=VECTOR('',#1534,10.);
#397=VECTOR('',#1539,2.);
#398=VECTOR('',#1550,10.);
#399=VECTOR('',#1551,10.);
#400=VECTOR('',#1556,10.);
#401=VECTOR('',#1559,10.);
#402=VECTOR('',#1562,10.);
#403=VECTOR('',#1563,10.);
#404=VECTOR('',#1566,10.);
#405=VECTOR('',#1569,10.);
#406=VECTOR('',#1570,2.);
#407=VECTOR('',#1581,10.);
#408=VECTOR('',#1588,10.);
#409=VECTOR('',#1589,10.);
#410=VECTOR('',#1594,10.);
#411=VECTOR('',#1597,10.);
#412=VECTOR('',#1600,10.);
#413=VECTOR('',#1603,10.);
#414=VECTOR('',#1614,10.);
#415=VECTOR('',#1621,10.);
#416=VECTOR('',#1624,10.);
#417=VECTOR('',#1631,10.);
#418=VECTOR('',#1632,10.);
#419=VECTOR('',#1635,10.);
#420=VECTOR('',#1636,10.);
#421=VECTOR('',#1639,10.);
#422=VECTOR('',#1640,10.);
#423=VECTOR('',#1643,10.);
#424=VECTOR('',#1644,10.);
#425=VECTOR('',#1647,10.);
#426=VECTOR('',#1648,10.);
#427=VECTOR('',#1651,10.);
#428=VECTOR('',#1654,10.);
#429=VECTOR('',#1659,10.);
#430=VERTEX_POINT('',#1664);
#431=VERTEX_POINT('',#1665);
#432=VERTEX_POINT('',#1667);
#433=VERTEX_POINT('',#1669);
#434=VERTEX_POINT('',#1671);
#435=VERTEX_POINT('',#1675);
#436=VERTEX_POINT('',#1676);
#437=VERTEX_POINT('',#1678);
#438=VERTEX_POINT('',#1680);
#439=VERTEX_POINT('',#1684);
#440=VERTEX_POINT('',#1685);
#441=VERTEX_POINT('',#1687);
#442=VERTEX_POINT('',#1689);
#443=VERTEX_POINT('',#1693);
#444=VERTEX_POINT('',#1694);
#445=VERTEX_POINT('',#1696);
#446=VERTEX_POINT('',#1698);
#447=VERTEX_POINT('',#1702);
#448=VERTEX_POINT('',#1703);
#449=VERTEX_POINT('',#1705);
#450=VERTEX_POINT('',#1707);
#451=VERTEX_POINT('',#1709);
#452=VERTEX_POINT('',#1713);
#453=VERTEX_POINT('',#1714);
#454=VERTEX_POINT('',#1716);
#455=VERTEX_POINT('',#1718);
#456=VERTEX_POINT('',#1722);
#457=VERTEX_POINT('',#1723);
#458=VERTEX_POINT('',#1725);
#459=VERTEX_POINT('',#1727);
#460=VERTEX_POINT('',#1731);
#461=VERTEX_POINT('',#1732);
#462=VERTEX_POINT('',#1734);
#463=VERTEX_POINT('',#1736);
#464=VERTEX_POINT('',#1740);
#465=VERTEX_POINT('',#1741);
#466=VERTEX_POINT('',#1743);
#467=VERTEX_POINT('',#1745);
#468=VERTEX_POINT('',#1747);
#469=VERTEX_POINT('',#1751);
#470=VERTEX_POINT('',#1753);
#471=VERTEX_POINT('',#1757);
#472=VERTEX_POINT('',#1761);
#473=VERTEX_POINT('',#1765);
#474=VERTEX_POINT('',#1766);
#475=VERTEX_POINT('',#1768);
#476=VERTEX_POINT('',#1770);
#477=VERTEX_POINT('',#1774);
#478=VERTEX_POINT('',#1776);
#479=VERTEX_POINT('',#1780);
#480=VERTEX_POINT('',#1784);
#481=VERTEX_POINT('',#1786);
#482=VERTEX_POINT('',#1790);
#483=VERTEX_POINT('',#1794);
#484=VERTEX_POINT('',#1795);
#485=VERTEX_POINT('',#1797);
#486=VERTEX_POINT('',#1799);
#487=VERTEX_POINT('',#1801);
#488=VERTEX_POINT('',#1805);
#489=VERTEX_POINT('',#1807);
#490=VERTEX_POINT('',#1811);
#491=VERTEX_POINT('',#1815);
#492=VERTEX_POINT('',#1817);
#493=VERTEX_POINT('',#1821);
#494=VERTEX_POINT('',#1823);
#495=VERTEX_POINT('',#1825);
#496=VERTEX_POINT('',#1827);
#497=VERTEX_POINT('',#1829);
#498=VERTEX_POINT('',#1831);
#499=VERTEX_POINT('',#1833);
#500=VERTEX_POINT('',#1837);
#501=VERTEX_POINT('',#1841);
#502=VERTEX_POINT('',#1845);
#503=VERTEX_POINT('',#1847);
#504=VERTEX_POINT('',#1851);
#505=VERTEX_POINT('',#1853);
#506=VERTEX_POINT('',#1857);
#507=VERTEX_POINT('',#1861);
#508=VERTEX_POINT('',#1865);
#509=VERTEX_POINT('',#1867);
#510=VERTEX_POINT('',#1871);
#511=VERTEX_POINT('',#1875);
#512=VERTEX_POINT('',#1881);
#513=VERTEX_POINT('',#1884);
#514=VERTEX_POINT('',#1886);
#515=VERTEX_POINT('',#1888);
#516=VERTEX_POINT('',#1893);
#517=VERTEX_POINT('',#1897);
#518=VERTEX_POINT('',#1900);
#519=VERTEX_POINT('',#1905);
#520=VERTEX_POINT('',#1907);
#521=VERTEX_POINT('',#1909);
#522=VERTEX_POINT('',#1913);
#523=VERTEX_POINT('',#1917);
#524=VERTEX_POINT('',#1923);
#525=VERTEX_POINT('',#1927);
#526=VERTEX_POINT('',#1929);
#527=VERTEX_POINT('',#1933);
#528=VERTEX_POINT('',#1935);
#529=VERTEX_POINT('',#1937);
#530=VERTEX_POINT('',#1939);
#531=VERTEX_POINT('',#1942);
#532=VERTEX_POINT('',#1947);
#533=VERTEX_POINT('',#1951);
#534=VERTEX_POINT('',#1959);
#535=VERTEX_POINT('',#1965);
#536=VERTEX_POINT('',#1971);
#537=VERTEX_POINT('',#1973);
#538=VERTEX_POINT('',#1979);
#539=VERTEX_POINT('',#1983);
#540=VERTEX_POINT('',#1987);
#541=EDGE_CURVE('',#430,#431,#220,.T.);
#542=EDGE_CURVE('',#432,#430,#171,.T.);
#543=EDGE_CURVE('',#433,#432,#172,.T.);
#544=EDGE_CURVE('',#434,#433,#221,.T.);
#545=EDGE_CURVE('',#431,#434,#173,.T.);
#546=EDGE_CURVE('',#435,#436,#222,.T.);
#547=EDGE_CURVE('',#437,#435,#174,.T.);
#548=EDGE_CURVE('',#438,#437,#223,.T.);
#549=EDGE_CURVE('',#436,#438,#175,.T.);
#550=EDGE_CURVE('',#439,#440,#224,.T.);
#551=EDGE_CURVE('',#441,#439,#176,.T.);
#552=EDGE_CURVE('',#442,#441,#225,.T.);
#553=EDGE_CURVE('',#440,#442,#177,.T.);
#554=EDGE_CURVE('',#443,#444,#226,.T.);
#555=EDGE_CURVE('',#445,#443,#178,.T.);
#556=EDGE_CURVE('',#446,#445,#227,.T.);
#557=EDGE_CURVE('',#444,#446,#179,.T.);
#558=EDGE_CURVE('',#447,#448,#228,.T.);
#559=EDGE_CURVE('',#449,#447,#180,.T.);
#560=EDGE_CURVE('',#450,#449,#229,.T.);
#561=EDGE_CURVE('',#451,#450,#181,.T.);
#562=EDGE_CURVE('',#448,#451,#182,.T.);
#563=EDGE_CURVE('',#452,#453,#230,.T.);
#564=EDGE_CURVE('',#454,#452,#183,.T.);
#565=EDGE_CURVE('',#455,#454,#231,.T.);
#566=EDGE_CURVE('',#453,#455,#184,.T.);
#567=EDGE_CURVE('',#456,#457,#232,.T.);
#568=EDGE_CURVE('',#458,#456,#185,.T.);
#569=EDGE_CURVE('',#459,#458,#233,.T.);
#570=EDGE_CURVE('',#457,#459,#186,.T.);
#571=EDGE_CURVE('',#460,#461,#234,.T.);
#572=EDGE_CURVE('',#462,#460,#187,.T.);
#573=EDGE_CURVE('',#463,#462,#235,.T.);
#574=EDGE_CURVE('',#461,#463,#188,.T.);
#575=EDGE_CURVE('',#464,#465,#236,.T.);
#576=EDGE_CURVE('',#466,#464,#189,.T.);
#577=EDGE_CURVE('',#467,#466,#190,.T.);
#578=EDGE_CURVE('',#468,#467,#237,.T.);
#579=EDGE_CURVE('',#465,#468,#191,.T.);
#580=EDGE_CURVE('',#469,#440,#238,.T.);
#581=EDGE_CURVE('',#470,#469,#239,.T.);
#582=EDGE_CURVE('',#470,#439,#240,.T.);
#583=EDGE_CURVE('',#471,#442,#241,.T.);
#584=EDGE_CURVE('',#469,#471,#192,.T.);
#585=EDGE_CURVE('',#472,#441,#242,.T.);
#586=EDGE_CURVE('',#471,#472,#243,.T.);
#587=EDGE_CURVE('',#473,#474,#21,.T.);
#588=EDGE_CURVE('',#474,#475,#244,.T.);
#589=EDGE_CURVE('',#475,#476,#245,.T.);
#590=EDGE_CURVE('',#476,#473,#246,.T.);
#591=EDGE_CURVE('',#477,#434,#247,.T.);
#592=EDGE_CURVE('',#478,#477,#193,.T.);
#593=EDGE_CURVE('',#478,#431,#248,.T.);
#594=EDGE_CURVE('',#479,#433,#249,.T.);
#595=EDGE_CURVE('',#477,#479,#250,.T.);
#596=EDGE_CURVE('',#480,#455,#251,.T.);
#597=EDGE_CURVE('',#481,#480,#194,.T.);
#598=EDGE_CURVE('',#481,#453,#252,.T.);
#599=EDGE_CURVE('',#482,#454,#253,.T.);
#600=EDGE_CURVE('',#480,#482,#254,.T.);
#601=EDGE_CURVE('',#483,#484,#22,.T.);
#602=EDGE_CURVE('',#484,#485,#23,.T.);
#603=EDGE_CURVE('',#485,#486,#255,.T.);
#604=EDGE_CURVE('',#486,#487,#256,.T.);
#605=EDGE_CURVE('',#487,#483,#257,.T.);
#606=EDGE_CURVE('',#488,#446,#258,.T.);
#607=EDGE_CURVE('',#489,#488,#195,.T.);
#608=EDGE_CURVE('',#489,#444,#259,.T.);
#609=EDGE_CURVE('',#490,#445,#260,.T.);
#610=EDGE_CURVE('',#488,#490,#261,.T.);
#611=EDGE_CURVE('',#491,#465,#262,.T.);
#612=EDGE_CURVE('',#492,#491,#263,.T.);
#613=EDGE_CURVE('',#492,#464,#264,.T.);
#614=EDGE_CURVE('',#474,#493,#24,.T.);
#615=EDGE_CURVE('',#494,#493,#265,.T.);
#616=EDGE_CURVE('',#494,#495,#266,.T.);
#617=EDGE_CURVE('',#495,#496,#267,.T.);
#618=EDGE_CURVE('',#496,#497,#25,.T.);
#619=EDGE_CURVE('',#497,#498,#26,.T.);
#620=EDGE_CURVE('',#499,#498,#268,.T.);
#621=EDGE_CURVE('',#475,#499,#269,.T.);
#622=EDGE_CURVE('',#500,#468,#270,.T.);
#623=EDGE_CURVE('',#491,#500,#196,.T.);
#624=EDGE_CURVE('',#501,#467,#271,.T.);
#625=EDGE_CURVE('',#500,#501,#272,.T.);
#626=EDGE_CURVE('',#498,#502,#27,.T.);
#627=EDGE_CURVE('',#502,#503,#273,.T.);
#628=EDGE_CURVE('',#503,#499,#274,.T.);
#629=EDGE_CURVE('',#504,#459,#275,.T.);
#630=EDGE_CURVE('',#505,#504,#197,.T.);
#631=EDGE_CURVE('',#505,#457,#276,.T.);
#632=EDGE_CURVE('',#506,#458,#277,.T.);
#633=EDGE_CURVE('',#504,#506,#278,.T.);
#634=EDGE_CURVE('',#507,#478,#279,.T.);
#635=EDGE_CURVE('',#507,#430,#280,.T.);
#636=EDGE_CURVE('',#508,#436,#281,.T.);
#637=EDGE_CURVE('',#509,#508,#282,.T.);
#638=EDGE_CURVE('',#509,#435,#283,.T.);
#639=EDGE_CURVE('',#510,#509,#198,.T.);
#640=EDGE_CURVE('',#510,#437,#284,.T.);
#641=EDGE_CURVE('',#511,#510,#285,.T.);
#642=EDGE_CURVE('',#511,#438,#286,.T.);
#643=EDGE_CURVE('',#508,#470,#199,.T.);
#644=EDGE_CURVE('',#479,#511,#200,.T.);
#645=EDGE_CURVE('',#432,#512,#287,.T.);
#646=EDGE_CURVE('',#493,#512,#201,.T.);
#647=EDGE_CURVE('',#513,#473,#28,.T.);
#648=EDGE_CURVE('',#514,#513,#202,.T.);
#649=EDGE_CURVE('',#515,#514,#29,.T.);
#650=EDGE_CURVE('',#512,#515,#203,.T.);
#651=EDGE_CURVE('',#472,#507,#204,.T.);
#652=EDGE_CURVE('',#516,#505,#288,.T.);
#653=EDGE_CURVE('',#516,#456,#289,.T.);
#654=EDGE_CURVE('',#517,#492,#205,.T.);
#655=EDGE_CURVE('',#517,#461,#290,.T.);
#656=EDGE_CURVE('',#518,#463,#291,.T.);
#657=EDGE_CURVE('',#506,#518,#206,.T.);
#658=EDGE_CURVE('',#501,#516,#207,.T.);
#659=EDGE_CURVE('',#466,#497,#292,.T.);
#660=EDGE_CURVE('',#519,#496,#208,.T.);
#661=EDGE_CURVE('',#520,#519,#30,.T.);
#662=EDGE_CURVE('',#521,#520,#209,.T.);
#663=EDGE_CURVE('',#502,#521,#31,.T.);
#664=EDGE_CURVE('',#522,#517,#293,.T.);
#665=EDGE_CURVE('',#522,#460,#294,.T.);
#666=EDGE_CURVE('',#523,#522,#210,.T.);
#667=EDGE_CURVE('',#523,#462,#295,.T.);
#668=EDGE_CURVE('',#518,#523,#296,.T.);
#669=EDGE_CURVE('',#524,#489,#297,.T.);
#670=EDGE_CURVE('',#524,#443,#298,.T.);
#671=EDGE_CURVE('',#525,#452,#299,.T.);
#672=EDGE_CURVE('',#526,#525,#211,.T.);
#673=EDGE_CURVE('',#526,#448,#300,.T.);
#674=EDGE_CURVE('',#451,#484,#301,.T.);
#675=EDGE_CURVE('',#527,#483,#32,.T.);
#676=EDGE_CURVE('',#528,#527,#212,.T.);
#677=EDGE_CURVE('',#529,#528,#33,.T.);
#678=EDGE_CURVE('',#530,#529,#213,.T.);
#679=EDGE_CURVE('',#485,#530,#34,.T.);
#680=EDGE_CURVE('',#531,#450,#302,.T.);
#681=EDGE_CURVE('',#490,#531,#214,.T.);
#682=EDGE_CURVE('',#482,#524,#215,.T.);
#683=EDGE_CURVE('',#532,#526,#303,.T.);
#684=EDGE_CURVE('',#532,#447,#304,.T.);
#685=EDGE_CURVE('',#533,#532,#216,.T.);
#686=EDGE_CURVE('',#533,#449,#305,.T.);
#687=EDGE_CURVE('',#531,#533,#306,.T.);
#688=EDGE_CURVE('',#525,#481,#307,.T.);
#689=EDGE_CURVE('',#534,#513,#308,.T.);
#690=EDGE_CURVE('',#534,#494,#217,.T.);
#691=EDGE_CURVE('',#514,#515,#35,.T.);
#692=EDGE_CURVE('',#495,#535,#218,.T.);
#693=EDGE_CURVE('',#535,#521,#309,.T.);
#694=EDGE_CURVE('',#519,#520,#36,.T.);
#695=EDGE_CURVE('',#536,#527,#310,.T.);
#696=EDGE_CURVE('',#536,#537,#219,.T.);
#697=EDGE_CURVE('',#537,#530,#311,.T.);
#698=EDGE_CURVE('',#528,#529,#37,.T.);
#699=EDGE_CURVE('',#476,#538,#312,.T.);
#700=EDGE_CURVE('',#538,#475,#313,.T.);
#701=EDGE_CURVE('',#499,#539,#314,.T.);
#702=EDGE_CURVE('',#539,#503,#315,.T.);
#703=EDGE_CURVE('',#487,#540,#316,.T.);
#704=EDGE_CURVE('',#540,#486,#317,.T.);
#705=EDGE_CURVE('',#486,#476,#318,.T.);
#706=EDGE_CURVE('',#538,#540,#319,.T.);
#707=EDGE_CURVE('',#503,#487,#320,.T.);
#708=EDGE_CURVE('',#540,#539,#321,.T.);
#709=EDGE_CURVE('',#539,#538,#322,.T.);
#710=EDGE_CURVE('',#537,#534,#323,.T.);
#711=EDGE_CURVE('',#535,#536,#324,.T.);
#712=ORIENTED_EDGE('',*,*,#541,.F.);
#713=ORIENTED_EDGE('',*,*,#542,.F.);
#714=ORIENTED_EDGE('',*,*,#543,.F.);
#715=ORIENTED_EDGE('',*,*,#544,.F.);
#716=ORIENTED_EDGE('',*,*,#545,.F.);
#717=ORIENTED_EDGE('',*,*,#546,.F.);
#718=ORIENTED_EDGE('',*,*,#547,.F.);
#719=ORIENTED_EDGE('',*,*,#548,.F.);
#720=ORIENTED_EDGE('',*,*,#549,.F.);
#721=ORIENTED_EDGE('',*,*,#550,.F.);
#722=ORIENTED_EDGE('',*,*,#551,.F.);
#723=ORIENTED_EDGE('',*,*,#552,.F.);
#724=ORIENTED_EDGE('',*,*,#553,.F.);
#725=ORIENTED_EDGE('',*,*,#554,.F.);
#726=ORIENTED_EDGE('',*,*,#555,.F.);
#727=ORIENTED_EDGE('',*,*,#556,.F.);
#728=ORIENTED_EDGE('',*,*,#557,.F.);
#729=ORIENTED_EDGE('',*,*,#558,.F.);
#730=ORIENTED_EDGE('',*,*,#559,.F.);
#731=ORIENTED_EDGE('',*,*,#560,.F.);
#732=ORIENTED_EDGE('',*,*,#561,.F.);
#733=ORIENTED_EDGE('',*,*,#562,.F.);
#734=ORIENTED_EDGE('',*,*,#563,.F.);
#735=ORIENTED_EDGE('',*,*,#564,.F.);
#736=ORIENTED_EDGE('',*,*,#565,.F.);
#737=ORIENTED_EDGE('',*,*,#566,.F.);
#738=ORIENTED_EDGE('',*,*,#567,.F.);
#739=ORIENTED_EDGE('',*,*,#568,.F.);
#740=ORIENTED_EDGE('',*,*,#569,.F.);
#741=ORIENTED_EDGE('',*,*,#570,.F.);
#742=ORIENTED_EDGE('',*,*,#571,.F.);
#743=ORIENTED_EDGE('',*,*,#572,.F.);
#744=ORIENTED_EDGE('',*,*,#573,.F.);
#745=ORIENTED_EDGE('',*,*,#574,.F.);
#746=ORIENTED_EDGE('',*,*,#575,.F.);
#747=ORIENTED_EDGE('',*,*,#576,.F.);
#748=ORIENTED_EDGE('',*,*,#577,.F.);
#749=ORIENTED_EDGE('',*,*,#578,.F.);
#750=ORIENTED_EDGE('',*,*,#579,.F.);
#751=ORIENTED_EDGE('',*,*,#550,.T.);
#752=ORIENTED_EDGE('',*,*,#580,.F.);
#753=ORIENTED_EDGE('',*,*,#581,.F.);
#754=ORIENTED_EDGE('',*,*,#582,.T.);
#755=ORIENTED_EDGE('',*,*,#553,.T.);
#756=ORIENTED_EDGE('',*,*,#583,.F.);
#757=ORIENTED_EDGE('',*,*,#584,.F.);
#758=ORIENTED_EDGE('',*,*,#580,.T.);
#759=ORIENTED_EDGE('',*,*,#552,.T.);
#760=ORIENTED_EDGE('',*,*,#585,.F.);
#761=ORIENTED_EDGE('',*,*,#586,.F.);
#762=ORIENTED_EDGE('',*,*,#583,.T.);
#763=ORIENTED_EDGE('',*,*,#587,.T.);
#764=ORIENTED_EDGE('',*,*,#588,.T.);
#765=ORIENTED_EDGE('',*,*,#589,.T.);
#766=ORIENTED_EDGE('',*,*,#590,.T.);
#767=ORIENTED_EDGE('',*,*,#545,.T.);
#768=ORIENTED_EDGE('',*,*,#591,.F.);
#769=ORIENTED_EDGE('',*,*,#592,.F.);
#770=ORIENTED_EDGE('',*,*,#593,.T.);
#771=ORIENTED_EDGE('',*,*,#544,.T.);
#772=ORIENTED_EDGE('',*,*,#594,.F.);
#773=ORIENTED_EDGE('',*,*,#595,.F.);
#774=ORIENTED_EDGE('',*,*,#591,.T.);
#775=ORIENTED_EDGE('',*,*,#566,.T.);
#776=ORIENTED_EDGE('',*,*,#596,.F.);
#777=ORIENTED_EDGE('',*,*,#597,.F.);
#778=ORIENTED_EDGE('',*,*,#598,.T.);
#779=ORIENTED_EDGE('',*,*,#565,.T.);
#780=ORIENTED_EDGE('',*,*,#599,.F.);
#781=ORIENTED_EDGE('',*,*,#600,.F.);
#782=ORIENTED_EDGE('',*,*,#596,.T.);
#783=ORIENTED_EDGE('',*,*,#601,.T.);
#784=ORIENTED_EDGE('',*,*,#602,.T.);
#785=ORIENTED_EDGE('',*,*,#603,.T.);
#786=ORIENTED_EDGE('',*,*,#604,.T.);
#787=ORIENTED_EDGE('',*,*,#605,.T.);
#788=ORIENTED_EDGE('',*,*,#557,.T.);
#789=ORIENTED_EDGE('',*,*,#606,.F.);
#790=ORIENTED_EDGE('',*,*,#607,.F.);
#791=ORIENTED_EDGE('',*,*,#608,.T.);
#792=ORIENTED_EDGE('',*,*,#556,.T.);
#793=ORIENTED_EDGE('',*,*,#609,.F.);
#794=ORIENTED_EDGE('',*,*,#610,.F.);
#795=ORIENTED_EDGE('',*,*,#606,.T.);
#796=ORIENTED_EDGE('',*,*,#575,.T.);
#797=ORIENTED_EDGE('',*,*,#611,.F.);
#798=ORIENTED_EDGE('',*,*,#612,.F.);
#799=ORIENTED_EDGE('',*,*,#613,.T.);
#800=ORIENTED_EDGE('',*,*,#614,.T.);
#801=ORIENTED_EDGE('',*,*,#615,.F.);
#802=ORIENTED_EDGE('',*,*,#616,.T.);
#803=ORIENTED_EDGE('',*,*,#617,.T.);
#804=ORIENTED_EDGE('',*,*,#618,.T.);
#805=ORIENTED_EDGE('',*,*,#619,.T.);
#806=ORIENTED_EDGE('',*,*,#620,.F.);
#807=ORIENTED_EDGE('',*,*,#621,.F.);
#808=ORIENTED_EDGE('',*,*,#588,.F.);
#809=ORIENTED_EDGE('',*,*,#579,.T.);
#810=ORIENTED_EDGE('',*,*,#622,.F.);
#811=ORIENTED_EDGE('',*,*,#623,.F.);
#812=ORIENTED_EDGE('',*,*,#611,.T.);
#813=ORIENTED_EDGE('',*,*,#578,.T.);
#814=ORIENTED_EDGE('',*,*,#624,.F.);
#815=ORIENTED_EDGE('',*,*,#625,.F.);
#816=ORIENTED_EDGE('',*,*,#622,.T.);
#817=ORIENTED_EDGE('',*,*,#626,.T.);
#818=ORIENTED_EDGE('',*,*,#627,.T.);
#819=ORIENTED_EDGE('',*,*,#628,.T.);
#820=ORIENTED_EDGE('',*,*,#620,.T.);
#821=ORIENTED_EDGE('',*,*,#570,.T.);
#822=ORIENTED_EDGE('',*,*,#629,.F.);
#823=ORIENTED_EDGE('',*,*,#630,.F.);
#824=ORIENTED_EDGE('',*,*,#631,.T.);
#825=ORIENTED_EDGE('',*,*,#569,.T.);
#826=ORIENTED_EDGE('',*,*,#632,.F.);
#827=ORIENTED_EDGE('',*,*,#633,.F.);
#828=ORIENTED_EDGE('',*,*,#629,.T.);
#829=ORIENTED_EDGE('',*,*,#541,.T.);
#830=ORIENTED_EDGE('',*,*,#593,.F.);
#831=ORIENTED_EDGE('',*,*,#634,.F.);
#832=ORIENTED_EDGE('',*,*,#635,.T.);
#833=ORIENTED_EDGE('',*,*,#546,.T.);
#834=ORIENTED_EDGE('',*,*,#636,.F.);
#835=ORIENTED_EDGE('',*,*,#637,.F.);
#836=ORIENTED_EDGE('',*,*,#638,.T.);
#837=ORIENTED_EDGE('',*,*,#547,.T.);
#838=ORIENTED_EDGE('',*,*,#638,.F.);
#839=ORIENTED_EDGE('',*,*,#639,.F.);
#840=ORIENTED_EDGE('',*,*,#640,.T.);
#841=ORIENTED_EDGE('',*,*,#548,.T.);
#842=ORIENTED_EDGE('',*,*,#640,.F.);
#843=ORIENTED_EDGE('',*,*,#641,.F.);
#844=ORIENTED_EDGE('',*,*,#642,.T.);
#845=ORIENTED_EDGE('',*,*,#582,.F.);
#846=ORIENTED_EDGE('',*,*,#643,.F.);
#847=ORIENTED_EDGE('',*,*,#636,.T.);
#848=ORIENTED_EDGE('',*,*,#549,.T.);
#849=ORIENTED_EDGE('',*,*,#642,.F.);
#850=ORIENTED_EDGE('',*,*,#644,.F.);
#851=ORIENTED_EDGE('',*,*,#594,.T.);
#852=ORIENTED_EDGE('',*,*,#543,.T.);
#853=ORIENTED_EDGE('',*,*,#645,.T.);
#854=ORIENTED_EDGE('',*,*,#646,.F.);
#855=ORIENTED_EDGE('',*,*,#614,.F.);
#856=ORIENTED_EDGE('',*,*,#587,.F.);
#857=ORIENTED_EDGE('',*,*,#647,.F.);
#858=ORIENTED_EDGE('',*,*,#648,.F.);
#859=ORIENTED_EDGE('',*,*,#649,.F.);
#860=ORIENTED_EDGE('',*,*,#650,.F.);
#861=ORIENTED_EDGE('',*,*,#645,.F.);
#862=ORIENTED_EDGE('',*,*,#542,.T.);
#863=ORIENTED_EDGE('',*,*,#635,.F.);
#864=ORIENTED_EDGE('',*,*,#651,.F.);
#865=ORIENTED_EDGE('',*,*,#585,.T.);
#866=ORIENTED_EDGE('',*,*,#551,.T.);
#867=ORIENTED_EDGE('',*,*,#567,.T.);
#868=ORIENTED_EDGE('',*,*,#631,.F.);
#869=ORIENTED_EDGE('',*,*,#652,.F.);
#870=ORIENTED_EDGE('',*,*,#653,.T.);
#871=ORIENTED_EDGE('',*,*,#613,.F.);
#872=ORIENTED_EDGE('',*,*,#654,.F.);
#873=ORIENTED_EDGE('',*,*,#655,.T.);
#874=ORIENTED_EDGE('',*,*,#574,.T.);
#875=ORIENTED_EDGE('',*,*,#656,.F.);
#876=ORIENTED_EDGE('',*,*,#657,.F.);
#877=ORIENTED_EDGE('',*,*,#632,.T.);
#878=ORIENTED_EDGE('',*,*,#568,.T.);
#879=ORIENTED_EDGE('',*,*,#653,.F.);
#880=ORIENTED_EDGE('',*,*,#658,.F.);
#881=ORIENTED_EDGE('',*,*,#624,.T.);
#882=ORIENTED_EDGE('',*,*,#577,.T.);
#883=ORIENTED_EDGE('',*,*,#659,.T.);
#884=ORIENTED_EDGE('',*,*,#618,.F.);
#885=ORIENTED_EDGE('',*,*,#660,.F.);
#886=ORIENTED_EDGE('',*,*,#661,.F.);
#887=ORIENTED_EDGE('',*,*,#662,.F.);
#888=ORIENTED_EDGE('',*,*,#663,.F.);
#889=ORIENTED_EDGE('',*,*,#626,.F.);
#890=ORIENTED_EDGE('',*,*,#619,.F.);
#891=ORIENTED_EDGE('',*,*,#659,.F.);
#892=ORIENTED_EDGE('',*,*,#576,.T.);
#893=ORIENTED_EDGE('',*,*,#571,.T.);
#894=ORIENTED_EDGE('',*,*,#655,.F.);
#895=ORIENTED_EDGE('',*,*,#664,.F.);
#896=ORIENTED_EDGE('',*,*,#665,.T.);
#897=ORIENTED_EDGE('',*,*,#572,.T.);
#898=ORIENTED_EDGE('',*,*,#665,.F.);
#899=ORIENTED_EDGE('',*,*,#666,.F.);
#900=ORIENTED_EDGE('',*,*,#667,.T.);
#901=ORIENTED_EDGE('',*,*,#573,.T.);
#902=ORIENTED_EDGE('',*,*,#667,.F.);
#903=ORIENTED_EDGE('',*,*,#668,.F.);
#904=ORIENTED_EDGE('',*,*,#656,.T.);
#905=ORIENTED_EDGE('',*,*,#554,.T.);
#906=ORIENTED_EDGE('',*,*,#608,.F.);
#907=ORIENTED_EDGE('',*,*,#669,.F.);
#908=ORIENTED_EDGE('',*,*,#670,.T.);
#909=ORIENTED_EDGE('',*,*,#671,.F.);
#910=ORIENTED_EDGE('',*,*,#672,.F.);
#911=ORIENTED_EDGE('',*,*,#673,.T.);
#912=ORIENTED_EDGE('',*,*,#562,.T.);
#913=ORIENTED_EDGE('',*,*,#674,.T.);
#914=ORIENTED_EDGE('',*,*,#601,.F.);
#915=ORIENTED_EDGE('',*,*,#675,.F.);
#916=ORIENTED_EDGE('',*,*,#676,.F.);
#917=ORIENTED_EDGE('',*,*,#677,.F.);
#918=ORIENTED_EDGE('',*,*,#678,.F.);
#919=ORIENTED_EDGE('',*,*,#679,.F.);
#920=ORIENTED_EDGE('',*,*,#602,.F.);
#921=ORIENTED_EDGE('',*,*,#674,.F.);
#922=ORIENTED_EDGE('',*,*,#561,.T.);
#923=ORIENTED_EDGE('',*,*,#680,.F.);
#924=ORIENTED_EDGE('',*,*,#681,.F.);
#925=ORIENTED_EDGE('',*,*,#609,.T.);
#926=ORIENTED_EDGE('',*,*,#555,.T.);
#927=ORIENTED_EDGE('',*,*,#670,.F.);
#928=ORIENTED_EDGE('',*,*,#682,.F.);
#929=ORIENTED_EDGE('',*,*,#599,.T.);
#930=ORIENTED_EDGE('',*,*,#564,.T.);
#931=ORIENTED_EDGE('',*,*,#558,.T.);
#932=ORIENTED_EDGE('',*,*,#673,.F.);
#933=ORIENTED_EDGE('',*,*,#683,.F.);
#934=ORIENTED_EDGE('',*,*,#684,.T.);
#935=ORIENTED_EDGE('',*,*,#559,.T.);
#936=ORIENTED_EDGE('',*,*,#684,.F.);
#937=ORIENTED_EDGE('',*,*,#685,.F.);
#938=ORIENTED_EDGE('',*,*,#686,.T.);
#939=ORIENTED_EDGE('',*,*,#560,.T.);
#940=ORIENTED_EDGE('',*,*,#686,.F.);
#941=ORIENTED_EDGE('',*,*,#687,.F.);
#942=ORIENTED_EDGE('',*,*,#680,.T.);
#943=ORIENTED_EDGE('',*,*,#563,.T.);
#944=ORIENTED_EDGE('',*,*,#598,.F.);
#945=ORIENTED_EDGE('',*,*,#688,.F.);
#946=ORIENTED_EDGE('',*,*,#671,.T.);
#947=ORIENTED_EDGE('',*,*,#648,.T.);
#948=ORIENTED_EDGE('',*,*,#689,.F.);
#949=ORIENTED_EDGE('',*,*,#690,.T.);
#950=ORIENTED_EDGE('',*,*,#615,.T.);
#951=ORIENTED_EDGE('',*,*,#646,.T.);
#952=ORIENTED_EDGE('',*,*,#650,.T.);
#953=ORIENTED_EDGE('',*,*,#691,.F.);
#954=ORIENTED_EDGE('',*,*,#649,.T.);
#955=ORIENTED_EDGE('',*,*,#691,.T.);
#956=ORIENTED_EDGE('',*,*,#660,.T.);
#957=ORIENTED_EDGE('',*,*,#617,.F.);
#958=ORIENTED_EDGE('',*,*,#692,.T.);
#959=ORIENTED_EDGE('',*,*,#693,.T.);
#960=ORIENTED_EDGE('',*,*,#662,.T.);
#961=ORIENTED_EDGE('',*,*,#694,.F.);
#962=ORIENTED_EDGE('',*,*,#661,.T.);
#963=ORIENTED_EDGE('',*,*,#694,.T.);
#964=ORIENTED_EDGE('',*,*,#676,.T.);
#965=ORIENTED_EDGE('',*,*,#695,.F.);
#966=ORIENTED_EDGE('',*,*,#696,.T.);
#967=ORIENTED_EDGE('',*,*,#697,.T.);
#968=ORIENTED_EDGE('',*,*,#678,.T.);
#969=ORIENTED_EDGE('',*,*,#698,.F.);
#970=ORIENTED_EDGE('',*,*,#677,.T.);
#971=ORIENTED_EDGE('',*,*,#698,.T.);
#972=ORIENTED_EDGE('',*,*,#699,.F.);
#973=ORIENTED_EDGE('',*,*,#589,.F.);
#974=ORIENTED_EDGE('',*,*,#700,.F.);
#975=ORIENTED_EDGE('',*,*,#701,.F.);
#976=ORIENTED_EDGE('',*,*,#628,.F.);
#977=ORIENTED_EDGE('',*,*,#702,.F.);
#978=ORIENTED_EDGE('',*,*,#703,.F.);
#979=ORIENTED_EDGE('',*,*,#604,.F.);
#980=ORIENTED_EDGE('',*,*,#704,.F.);
#981=ORIENTED_EDGE('',*,*,#704,.T.);
#982=ORIENTED_EDGE('',*,*,#705,.T.);
#983=ORIENTED_EDGE('',*,*,#699,.T.);
#984=ORIENTED_EDGE('',*,*,#706,.T.);
#985=ORIENTED_EDGE('',*,*,#702,.T.);
#986=ORIENTED_EDGE('',*,*,#707,.T.);
#987=ORIENTED_EDGE('',*,*,#703,.T.);
#988=ORIENTED_EDGE('',*,*,#708,.T.);
#989=ORIENTED_EDGE('',*,*,#700,.T.);
#990=ORIENTED_EDGE('',*,*,#621,.T.);
#991=ORIENTED_EDGE('',*,*,#701,.T.);
#992=ORIENTED_EDGE('',*,*,#709,.T.);
#993=ORIENTED_EDGE('',*,*,#647,.T.);
#994=ORIENTED_EDGE('',*,*,#590,.F.);
#995=ORIENTED_EDGE('',*,*,#705,.F.);
#996=ORIENTED_EDGE('',*,*,#603,.F.);
#997=ORIENTED_EDGE('',*,*,#679,.T.);
#998=ORIENTED_EDGE('',*,*,#697,.F.);
#999=ORIENTED_EDGE('',*,*,#710,.T.);
#1000=ORIENTED_EDGE('',*,*,#689,.T.);
#1001=ORIENTED_EDGE('',*,*,#706,.F.);
#1002=ORIENTED_EDGE('',*,*,#709,.F.);
#1003=ORIENTED_EDGE('',*,*,#708,.F.);
#1004=ORIENTED_EDGE('',*,*,#675,.T.);
#1005=ORIENTED_EDGE('',*,*,#605,.F.);
#1006=ORIENTED_EDGE('',*,*,#707,.F.);
#1007=ORIENTED_EDGE('',*,*,#627,.F.);
#1008=ORIENTED_EDGE('',*,*,#663,.T.);
#1009=ORIENTED_EDGE('',*,*,#693,.F.);
#1010=ORIENTED_EDGE('',*,*,#711,.T.);
#1011=ORIENTED_EDGE('',*,*,#695,.T.);
#1012=ORIENTED_EDGE('',*,*,#616,.F.);
#1013=ORIENTED_EDGE('',*,*,#690,.F.);
#1014=ORIENTED_EDGE('',*,*,#710,.F.);
#1015=ORIENTED_EDGE('',*,*,#696,.F.);
#1016=ORIENTED_EDGE('',*,*,#711,.F.);
#1017=ORIENTED_EDGE('',*,*,#692,.F.);
#1018=ORIENTED_EDGE('',*,*,#637,.T.);
#1019=ORIENTED_EDGE('',*,*,#643,.T.);
#1020=ORIENTED_EDGE('',*,*,#581,.T.);
#1021=ORIENTED_EDGE('',*,*,#584,.T.);
#1022=ORIENTED_EDGE('',*,*,#586,.T.);
#1023=ORIENTED_EDGE('',*,*,#651,.T.);
#1024=ORIENTED_EDGE('',*,*,#634,.T.);
#1025=ORIENTED_EDGE('',*,*,#592,.T.);
#1026=ORIENTED_EDGE('',*,*,#595,.T.);
#1027=ORIENTED_EDGE('',*,*,#644,.T.);
#1028=ORIENTED_EDGE('',*,*,#641,.T.);
#1029=ORIENTED_EDGE('',*,*,#639,.T.);
#1030=ORIENTED_EDGE('',*,*,#654,.T.);
#1031=ORIENTED_EDGE('',*,*,#612,.T.);
#1032=ORIENTED_EDGE('',*,*,#623,.T.);
#1033=ORIENTED_EDGE('',*,*,#625,.T.);
#1034=ORIENTED_EDGE('',*,*,#658,.T.);
#1035=ORIENTED_EDGE('',*,*,#652,.T.);
#1036=ORIENTED_EDGE('',*,*,#630,.T.);
#1037=ORIENTED_EDGE('',*,*,#633,.T.);
#1038=ORIENTED_EDGE('',*,*,#657,.T.);
#1039=ORIENTED_EDGE('',*,*,#668,.T.);
#1040=ORIENTED_EDGE('',*,*,#666,.T.);
#1041=ORIENTED_EDGE('',*,*,#664,.T.);
#1042=ORIENTED_EDGE('',*,*,#672,.T.);
#1043=ORIENTED_EDGE('',*,*,#688,.T.);
#1044=ORIENTED_EDGE('',*,*,#597,.T.);
#1045=ORIENTED_EDGE('',*,*,#600,.T.);
#1046=ORIENTED_EDGE('',*,*,#682,.T.);
#1047=ORIENTED_EDGE('',*,*,#669,.T.);
#1048=ORIENTED_EDGE('',*,*,#607,.T.);
#1049=ORIENTED_EDGE('',*,*,#610,.T.);
#1050=ORIENTED_EDGE('',*,*,#681,.T.);
#1051=ORIENTED_EDGE('',*,*,#687,.T.);
#1052=ORIENTED_EDGE('',*,*,#685,.T.);
#1053=ORIENTED_EDGE('',*,*,#683,.T.);
#1054=PLANE('',#1180);
#1055=PLANE('',#1184);
#1056=PLANE('',#1187);
#1057=PLANE('',#1190);
#1058=PLANE('',#1193);
#1059=PLANE('',#1197);
#1060=PLANE('',#1200);
#1061=PLANE('',#1203);
#1062=PLANE('',#1206);
#1063=PLANE('',#1210);
#1064=PLANE('',#1213);
#1065=PLANE('',#1214);
#1066=PLANE('',#1218);
#1067=PLANE('',#1221);
#1068=PLANE('',#1222);
#1069=PLANE('',#1227);
#1070=PLANE('',#1228);
#1071=PLANE('',#1229);
#1072=PLANE('',#1235);
#1073=PLANE('',#1236);
#1074=PLANE('',#1240);
#1075=PLANE('',#1241);
#1076=PLANE('',#1242);
#1077=PLANE('',#1245);
#1078=PLANE('',#1255);
#1079=PLANE('',#1264);
#1080=PLANE('',#1267);
#1081=PLANE('',#1268);
#1082=PLANE('',#1278);
#1083=PLANE('',#1281);
#1084=PLANE('',#1282);
#1085=PLANE('',#1286);
#1086=PLANE('',#1290);
#1087=PLANE('',#1294);
#1088=PLANE('',#1295);
#1089=PLANE('',#1296);
#1090=PLANE('',#1297);
#1091=PLANE('',#1298);
#1092=PLANE('',#1299);
#1093=PLANE('',#1300);
#1094=PLANE('',#1301);
#1095=PLANE('',#1302);
#1096=PLANE('',#1303);
#1097=PLANE('',#1304);
#1098=ADVANCED_FACE('',(#50),#1054,.T.);
#1099=ADVANCED_FACE('',(#51),#1055,.T.);
#1100=ADVANCED_FACE('',(#52),#1056,.T.);
#1101=ADVANCED_FACE('',(#53),#1057,.T.);
#1102=ADVANCED_FACE('',(#54),#1058,.T.);
#1103=ADVANCED_FACE('',(#55),#1059,.T.);
#1104=ADVANCED_FACE('',(#56),#1060,.T.);
#1105=ADVANCED_FACE('',(#57),#1061,.T.);
#1106=ADVANCED_FACE('',(#58),#1062,.T.);
#1107=ADVANCED_FACE('',(#59),#1063,.F.);
#1108=ADVANCED_FACE('',(#60),#38,.F.);
#1109=ADVANCED_FACE('',(#61),#1064,.F.);
#1110=ADVANCED_FACE('',(#62),#1065,.T.);
#1111=ADVANCED_FACE('',(#63),#39,.F.);
#1112=ADVANCED_FACE('',(#64),#1066,.F.);
#1113=ADVANCED_FACE('',(#65),#40,.F.);
#1114=ADVANCED_FACE('',(#66),#1067,.F.);
#1115=ADVANCED_FACE('',(#67),#1068,.T.);
#1116=ADVANCED_FACE('',(#68),#41,.F.);
#1117=ADVANCED_FACE('',(#69),#1069,.F.);
#1118=ADVANCED_FACE('',(#70),#1070,.F.);
#1119=ADVANCED_FACE('',(#71),#1071,.T.);
#1120=ADVANCED_FACE('',(#72),#42,.F.);
#1121=ADVANCED_FACE('',(#73),#1072,.F.);
#1122=ADVANCED_FACE('',(#74),#1073,.T.);
#1123=ADVANCED_FACE('',(#75),#43,.F.);
#1124=ADVANCED_FACE('',(#76),#1074,.F.);
#1125=ADVANCED_FACE('',(#77),#1075,.F.);
#1126=ADVANCED_FACE('',(#78),#1076,.F.);
#1127=ADVANCED_FACE('',(#79),#44,.F.);
#1128=ADVANCED_FACE('',(#80),#1077,.F.);
#1129=ADVANCED_FACE('',(#81),#45,.F.);
#1130=ADVANCED_FACE('',(#82),#1078,.F.);
#1131=ADVANCED_FACE('',(#83),#46,.F.);
#1132=ADVANCED_FACE('',(#84),#1079,.F.);
#1133=ADVANCED_FACE('',(#85),#47,.F.);
#1134=ADVANCED_FACE('',(#86),#1080,.F.);
#1135=ADVANCED_FACE('',(#87),#1081,.F.);
#1136=ADVANCED_FACE('',(#88),#48,.F.);
#1137=ADVANCED_FACE('',(#89),#1082,.F.);
#1138=ADVANCED_FACE('',(#90),#49,.F.);
#1139=ADVANCED_FACE('',(#91),#1083,.F.);
#1140=ADVANCED_FACE('',(#92),#1084,.F.);
#1141=ADVANCED_FACE('',(#93),#18,.T.);
#1142=ADVANCED_FACE('',(#94),#1085,.T.);
#1143=ADVANCED_FACE('',(#95),#19,.T.);
#1144=ADVANCED_FACE('',(#96),#1086,.T.);
#1145=ADVANCED_FACE('',(#97),#20,.T.);
#1146=ADVANCED_FACE('',(#98),#1087,.T.);
#1147=ADVANCED_FACE('',(#99),#1088,.T.);
#1148=ADVANCED_FACE('',(#100),#1089,.T.);
#1149=ADVANCED_FACE('',(#101),#1090,.T.);
#1150=ADVANCED_FACE('',(#102),#1091,.T.);
#1151=ADVANCED_FACE('',(#103),#1092,.T.);
#1152=ADVANCED_FACE('',(#104),#1093,.T.);
#1153=ADVANCED_FACE('',(#105),#1094,.T.);
#1154=ADVANCED_FACE('',(#106),#1095,.T.);
#1155=ADVANCED_FACE('',(#107),#1096,.T.);
#1156=ADVANCED_FACE('',(#108,#15,#16,#17),#1097,.F.);
#1157=CLOSED_SHELL('',(#1098,#1099,#1100,#1101,#1102,#1103,#1104,#1105,
#1106,#1107,#1108,#1109,#1110,#1111,#1112,#1113,#1114,#1115,#1116,#1117,
#1118,#1119,#1120,#1121,#1122,#1123,#1124,#1125,#1126,#1127,#1128,#1129,
#1130,#1131,#1132,#1133,#1134,#1135,#1136,#1137,#1138,#1139,#1140,#1141,
#1142,#1143,#1144,#1145,#1146,#1147,#1148,#1149,#1150,#1151,#1152,#1153,
#1154,#1155,#1156));
#1158=DERIVED_UNIT_ELEMENT(#1161,1.);
#1159=DERIVED_UNIT_ELEMENT(#2009,-3.);
#1160=DIMENSIONAL_EXPONENTS(0.,1.,0.,0.,0.,0.,0.);
#1161=(
CONVERSION_BASED_UNIT('gram',#1163)
MASS_UNIT()
NAMED_UNIT(#1160)
);
#1162=(
MASS_UNIT()
NAMED_UNIT(*)
SI_UNIT(.KILO.,.GRAM.)
);
#1163=MASS_MEASURE_WITH_UNIT(MASS_MEASURE(0.001),#1162);
#1164=DERIVED_UNIT((#1158,#1159));
#1165=MEASURE_REPRESENTATION_ITEM('density measure',
POSITIVE_RATIO_MEASURE(1.),#1164);
#1166=PROPERTY_DEFINITION_REPRESENTATION(#1171,#1168);
#1167=PROPERTY_DEFINITION_REPRESENTATION(#1172,#1169);
#1168=REPRESENTATION('material name',(#1170),#2006);
#1169=REPRESENTATION('density',(#1165),#2006);
#1170=DESCRIPTIVE_REPRESENTATION_ITEM('Generic','Generic');
#1171=PROPERTY_DEFINITION('material property','material name',#2016);
#1172=PROPERTY_DEFINITION('material property','density of part',#2016);
#1173=DATE_TIME_ROLE('creation_date');
#1174=APPLIED_DATE_AND_TIME_ASSIGNMENT(#1175,#1173,(#2016));
#1175=DATE_AND_TIME(#1176,#1177);
#1176=CALENDAR_DATE(2025,23,2);
#1177=LOCAL_TIME(0,0,0.,#1178);
#1178=COORDINATED_UNIVERSAL_TIME_OFFSET(0,0,.BEHIND.);
#1179=AXIS2_PLACEMENT_3D('',#1662,#1305,#1306);
#1180=AXIS2_PLACEMENT_3D('',#1663,#1307,#1308);
#1181=AXIS2_PLACEMENT_3D('',#1668,#1310,#1311);
#1182=AXIS2_PLACEMENT_3D('',#1670,#1312,#1313);
#1183=AXIS2_PLACEMENT_3D('',#1673,#1315,#1316);
#1184=AXIS2_PLACEMENT_3D('',#1674,#1317,#1318);
#1185=AXIS2_PLACEMENT_3D('',#1679,#1320,#1321);
#1186=AXIS2_PLACEMENT_3D('',#1682,#1323,#1324);
#1187=AXIS2_PLACEMENT_3D('',#1683,#1325,#1326);
#1188=AXIS2_PLACEMENT_3D('',#1688,#1328,#1329);
#1189=AXIS2_PLACEMENT_3D('',#1691,#1331,#1332);
#1190=AXIS2_PLACEMENT_3D('',#1692,#1333,#1334);
#1191=AXIS2_PLACEMENT_3D('',#1697,#1336,#1337);
#1192=AXIS2_PLACEMENT_3D('',#1700,#1339,#1340);
#1193=AXIS2_PLACEMENT_3D('',#1701,#1341,#1342);
#1194=AXIS2_PLACEMENT_3D('',#1706,#1344,#1345);
#1195=AXIS2_PLACEMENT_3D('',#1710,#1347,#1348);
#1196=AXIS2_PLACEMENT_3D('',#1711,#1349,#1350);
#1197=AXIS2_PLACEMENT_3D('',#1712,#1351,#1352);
#1198=AXIS2_PLACEMENT_3D('',#1717,#1354,#1355);
#1199=AXIS2_PLACEMENT_3D('',#1720,#1357,#1358);
#1200=AXIS2_PLACEMENT_3D('',#1721,#1359,#1360);
#1201=AXIS2_PLACEMENT_3D('',#1726,#1362,#1363);
#1202=AXIS2_PLACEMENT_3D('',#1729,#1365,#1366);
#1203=AXIS2_PLACEMENT_3D('',#1730,#1367,#1368);
#1204=AXIS2_PLACEMENT_3D('',#1735,#1370,#1371);
#1205=AXIS2_PLACEMENT_3D('',#1738,#1373,#1374);
#1206=AXIS2_PLACEMENT_3D('',#1739,#1375,#1376);
#1207=AXIS2_PLACEMENT_3D('',#1744,#1378,#1379);
#1208=AXIS2_PLACEMENT_3D('',#1746,#1380,#1381);
#1209=AXIS2_PLACEMENT_3D('',#1749,#1383,#1384);
#1210=AXIS2_PLACEMENT_3D('',#1750,#1385,#1386);
#1211=AXIS2_PLACEMENT_3D('',#1756,#1390,#1391);
#1212=AXIS2_PLACEMENT_3D('',#1759,#1393,#1394);
#1213=AXIS2_PLACEMENT_3D('',#1760,#1395,#1396);
#1214=AXIS2_PLACEMENT_3D('',#1764,#1399,#1400);
#1215=AXIS2_PLACEMENT_3D('',#1767,#1401,#1402);
#1216=AXIS2_PLACEMENT_3D('',#1773,#1406,#1407);
#1217=AXIS2_PLACEMENT_3D('',#1777,#1409,#1410);
#1218=AXIS2_PLACEMENT_3D('',#1779,#1412,#1413);
#1219=AXIS2_PLACEMENT_3D('',#1783,#1416,#1417);
#1220=AXIS2_PLACEMENT_3D('',#1787,#1419,#1420);
#1221=AXIS2_PLACEMENT_3D('',#1789,#1422,#1423);
#1222=AXIS2_PLACEMENT_3D('',#1793,#1426,#1427);
#1223=AXIS2_PLACEMENT_3D('',#1796,#1428,#1429);
#1224=AXIS2_PLACEMENT_3D('',#1798,#1430,#1431);
#1225=AXIS2_PLACEMENT_3D('',#1804,#1435,#1436);
#1226=AXIS2_PLACEMENT_3D('',#1808,#1438,#1439);
#1227=AXIS2_PLACEMENT_3D('',#1810,#1441,#1442);
#1228=AXIS2_PLACEMENT_3D('',#1814,#1445,#1446);
#1229=AXIS2_PLACEMENT_3D('',#1820,#1450,#1451);
#1230=AXIS2_PLACEMENT_3D('',#1822,#1452,#1453);
#1231=AXIS2_PLACEMENT_3D('',#1830,#1457,#1458);
#1232=AXIS2_PLACEMENT_3D('',#1832,#1459,#1460);
#1233=AXIS2_PLACEMENT_3D('',#1836,#1463,#1464);
#1234=AXIS2_PLACEMENT_3D('',#1839,#1466,#1467);
#1235=AXIS2_PLACEMENT_3D('',#1840,#1468,#1469);
#1236=AXIS2_PLACEMENT_3D('',#1844,#1472,#1473);
#1237=AXIS2_PLACEMENT_3D('',#1846,#1474,#1475);
#1238=AXIS2_PLACEMENT_3D('',#1850,#1478,#1479);
#1239=AXIS2_PLACEMENT_3D('',#1854,#1481,#1482);
#1240=AXIS2_PLACEMENT_3D('',#1856,#1484,#1485);
#1241=AXIS2_PLACEMENT_3D('',#1860,#1488,#1489);
#1242=AXIS2_PLACEMENT_3D('',#1864,#1492,#1493);
#1243=AXIS2_PLACEMENT_3D('',#1870,#1497,#1498);
#1244=AXIS2_PLACEMENT_3D('',#1872,#1499,#1500);
#1245=AXIS2_PLACEMENT_3D('',#1874,#1502,#1503);
#1246=AXIS2_PLACEMENT_3D('',#1878,#1506,#1507);
#1247=AXIS2_PLACEMENT_3D('',#1879,#1508,#1509);
#1248=AXIS2_PLACEMENT_3D('',#1880,#1510,#1511);
#1249=AXIS2_PLACEMENT_3D('',#1883,#1513,#1514);
#1250=AXIS2_PLACEMENT_3D('',#1885,#1515,#1516);
#1251=AXIS2_PLACEMENT_3D('',#1887,#1517,#1518);
#1252=AXIS2_PLACEMENT_3D('',#1889,#1519,#1520);
#1253=AXIS2_PLACEMENT_3D('',#1890,#1521,#1522);
#1254=AXIS2_PLACEMENT_3D('',#1891,#1523,#1524);
#1255=AXIS2_PLACEMENT_3D('',#1892,#1525,#1526);
#1256=AXIS2_PLACEMENT_3D('',#1896,#1529,#1530);
#1257=AXIS2_PLACEMENT_3D('',#1898,#1531,#1532);
#1258=AXIS2_PLACEMENT_3D('',#1902,#1535,#1536);
#1259=AXIS2_PLACEMENT_3D('',#1903,#1537,#1538);
#1260=AXIS2_PLACEMENT_3D('',#1906,#1540,#1541);
#1261=AXIS2_PLACEMENT_3D('',#1908,#1542,#1543);
#1262=AXIS2_PLACEMENT_3D('',#1910,#1544,#1545);
#1263=AXIS2_PLACEMENT_3D('',#1911,#1546,#1547);
#1264=AXIS2_PLACEMENT_3D('',#1912,#1548,#1549);
#1265=AXIS2_PLACEMENT_3D('',#1916,#1552,#1553);
#1266=AXIS2_PLACEMENT_3D('',#1918,#1554,#1555);
#1267=AXIS2_PLACEMENT_3D('',#1920,#1557,#1558);
#1268=AXIS2_PLACEMENT_3D('',#1922,#1560,#1561);
#1269=AXIS2_PLACEMENT_3D('',#1926,#1564,#1565);
#1270=AXIS2_PLACEMENT_3D('',#1930,#1567,#1568);
#1271=AXIS2_PLACEMENT_3D('',#1934,#1571,#1572);
#1272=AXIS2_PLACEMENT_3D('',#1936,#1573,#1574);
#1273=AXIS2_PLACEMENT_3D('',#1938,#1575,#1576);
#1274=AXIS2_PLACEMENT_3D('',#1940,#1577,#1578);
#1275=AXIS2_PLACEMENT_3D('',#1941,#1579,#1580);
#1276=AXIS2_PLACEMENT_3D('',#1944,#1582,#1583);
#1277=AXIS2_PLACEMENT_3D('',#1945,#1584,#1585);
#1278=AXIS2_PLACEMENT_3D('',#1946,#1586,#1587);
#1279=AXIS2_PLACEMENT_3D('',#1950,#1590,#1591);
#1280=AXIS2_PLACEMENT_3D('',#1952,#1592,#1593);
#1281=AXIS2_PLACEMENT_3D('',#1954,#1595,#1596);
#1282=AXIS2_PLACEMENT_3D('',#1956,#1598,#1599);
#1283=AXIS2_PLACEMENT_3D('',#1958,#1601,#1602);
#1284=AXIS2_PLACEMENT_3D('',#1961,#1604,#1605);
#1285=AXIS2_PLACEMENT_3D('',#1962,#1606,#1607);
#1286=AXIS2_PLACEMENT_3D('',#1963,#1608,#1609);
#1287=AXIS2_PLACEMENT_3D('',#1964,#1610,#1611);
#1288=AXIS2_PLACEMENT_3D('',#1966,#1612,#1613);
#1289=AXIS2_PLACEMENT_3D('',#1968,#1615,#1616);
#1290=AXIS2_PLACEMENT_3D('',#1969,#1617,#1618);
#1291=AXIS2_PLACEMENT_3D('',#1970,#1619,#1620);
#1292=AXIS2_PLACEMENT_3D('',#1974,#1622,#1623);
#1293=AXIS2_PLACEMENT_3D('',#1976,#1625,#1626);
#1294=AXIS2_PLACEMENT_3D('',#1977,#1627,#1628);
#1295=AXIS2_PLACEMENT_3D('',#1978,#1629,#1630);
#1296=AXIS2_PLACEMENT_3D('',#1982,#1633,#1634);
#1297=AXIS2_PLACEMENT_3D('',#1986,#1637,#1638);
#1298=AXIS2_PLACEMENT_3D('',#1990,#1641,#1642);
#1299=AXIS2_PLACEMENT_3D('',#1993,#1645,#1646);
#1300=AXIS2_PLACEMENT_3D('',#1996,#1649,#1650);
#1301=AXIS2_PLACEMENT_3D('',#1998,#1652,#1653);
#1302=AXIS2_PLACEMENT_3D('',#2000,#1655,#1656);
#1303=AXIS2_PLACEMENT_3D('',#2001,#1657,#1658);
#1304=AXIS2_PLACEMENT_3D('',#2003,#1660,#1661);
#1305=DIRECTION('axis',(0.,0.,1.));
#1306=DIRECTION('refdir',(1.,0.,0.));
#1307=DIRECTION('center_axis',(0.,-1.,0.));
#1308=DIRECTION('ref_axis',(0.,0.,-1.));
#1309=DIRECTION('',(0.797509227038748,0.,-0.603306748502003));
#1310=DIRECTION('center_axis',(0.,1.,0.));
#1311=DIRECTION('ref_axis',(1.,0.,0.));
#1312=DIRECTION('center_axis',(0.,1.,0.));
#1313=DIRECTION('ref_axis',(1.,0.,0.));
#1314=DIRECTION('',(-0.921233583996698,0.,-0.389009876117046));
#1315=DIRECTION('center_axis',(0.,-1.,0.));
#1316=DIRECTION('ref_axis',(1.,0.,0.));
#1317=DIRECTION('center_axis',(0.,-1.,0.));
#1318=DIRECTION('ref_axis',(0.,0.,-1.));
#1319=DIRECTION('',(0.797509227038748,0.,-0.603306748502003));
#1320=DIRECTION('center_axis',(0.,-1.,0.));
#1321=DIRECTION('ref_axis',(1.,0.,0.));
#1322=DIRECTION('',(0.12372435695795,0.,0.992316624619049));
#1323=DIRECTION('center_axis',(0.,1.,0.));
#1324=DIRECTION('ref_axis',(1.,0.,0.));
#1325=DIRECTION('center_axis',(0.,-1.,0.));
#1326=DIRECTION('ref_axis',(0.,0.,-1.));
#1327=DIRECTION('',(-0.921233583996698,0.,-0.389009876117046));
#1328=DIRECTION('center_axis',(0.,1.,0.));
#1329=DIRECTION('ref_axis',(1.,0.,0.));
#1330=DIRECTION('',(0.12372435695795,0.,0.992316624619049));
#1331=DIRECTION('center_axis',(0.,-1.,0.));
#1332=DIRECTION('ref_axis',(1.,0.,0.));
#1333=DIRECTION('center_axis',(0.,-1.,0.));
#1334=DIRECTION('ref_axis',(0.,0.,-1.));
#1335=DIRECTION('',(-0.921233583996698,0.,-0.389009876117046));
#1336=DIRECTION('center_axis',(0.,1.,0.));
#1337=DIRECTION('ref_axis',(1.,0.,0.));
#1338=DIRECTION('',(0.12372435695795,0.,0.992316624619048));
#1339=DIRECTION('center_axis',(0.,-1.,0.));
#1340=DIRECTION('ref_axis',(1.,0.,0.));
#1341=DIRECTION('center_axis',(0.,-1.,0.));
#1342=DIRECTION('ref_axis',(0.,0.,-1.));
#1343=DIRECTION('',(-0.921233583996698,0.,-0.389009876117046));
#1344=DIRECTION('center_axis',(0.,-1.,0.));
#1345=DIRECTION('ref_axis',(1.,0.,0.));
#1346=DIRECTION('',(0.797509227038748,0.,-0.603306748502002));
#1347=DIRECTION('center_axis',(0.,1.,0.));
#1348=DIRECTION('ref_axis',(1.,0.,0.));
#1349=DIRECTION('center_axis',(0.,1.,0.));
#1350=DIRECTION('ref_axis',(1.,0.,0.));
#1351=DIRECTION('center_axis',(0.,-1.,0.));
#1352=DIRECTION('ref_axis',(0.,0.,-1.));
#1353=DIRECTION('',(0.12372435695795,0.,0.992316624619048));
#1354=DIRECTION('center_axis',(0.,1.,0.));
#1355=DIRECTION('ref_axis',(1.,0.,0.));
#1356=DIRECTION('',(0.797509227038748,0.,-0.603306748502002));
#1357=DIRECTION('center_axis',(0.,-1.,0.));
#1358=DIRECTION('ref_axis',(1.,0.,0.));
#1359=DIRECTION('center_axis',(0.,-1.,0.));
#1360=DIRECTION('ref_axis',(0.,0.,-1.));
#1361=DIRECTION('',(0.123724356957951,0.,0.992316624619048));
#1362=DIRECTION('center_axis',(0.,1.,0.));
#1363=DIRECTION('ref_axis',(1.,0.,0.));
#1364=DIRECTION('',(0.797509227038748,0.,-0.603306748502003));
#1365=DIRECTION('center_axis',(0.,-1.,0.));
#1366=DIRECTION('ref_axis',(1.,0.,0.));
#1367=DIRECTION('center_axis',(0.,-1.,0.));
#1368=DIRECTION('ref_axis',(0.,0.,-1.));
#1369=DIRECTION('',(0.123724356957951,0.,0.992316624619048));
#1370=DIRECTION('center_axis',(0.,-1.,0.));
#1371=DIRECTION('ref_axis',(1.,0.,0.));
#1372=DIRECTION('',(-0.921233583996698,0.,-0.389009876117046));
#1373=DIRECTION('center_axis',(0.,1.,0.));
#1374=DIRECTION('ref_axis',(1.,0.,0.));
#1375=DIRECTION('center_axis',(0.,-1.,0.));
#1376=DIRECTION('ref_axis',(0.,0.,-1.));
#1377=DIRECTION('',(0.797509227038748,0.,-0.603306748502003));
#1378=DIRECTION('center_axis',(0.,1.,0.));
#1379=DIRECTION('ref_axis',(1.,0.,0.));
#1380=DIRECTION('center_axis',(0.,1.,0.));
#1381=DIRECTION('ref_axis',(1.,0.,0.));
#1382=DIRECTION('',(-0.921233583996698,0.,-0.389009876117046));
#1383=DIRECTION('center_axis',(0.,-1.,0.));
#1384=DIRECTION('ref_axis',(1.,0.,0.));
#1385=DIRECTION('center_axis',(-0.389009876117046,0.,0.921233583996698));
#1386=DIRECTION('ref_axis',(-0.921233583996698,0.,-0.389009876117046));
#1387=DIRECTION('',(0.,-1.,0.));
#1388=DIRECTION('',(-0.921233583996698,0.,-0.389009876117046));
#1389=DIRECTION('',(0.,-1.,0.));
#1390=DIRECTION('center_axis',(0.,-1.,0.));
#1391=DIRECTION('ref_axis',(1.,0.,0.));
#1392=DIRECTION('',(0.,-1.,0.));
#1393=DIRECTION('center_axis',(0.,-1.,0.));
#1394=DIRECTION('ref_axis',(1.,0.,0.));
#1395=DIRECTION('center_axis',(0.992316624619049,0.,-0.12372435695795));
#1396=DIRECTION('ref_axis',(0.12372435695795,0.,0.992316624619049));
#1397=DIRECTION('',(0.,-1.,0.));
#1398=DIRECTION('',(0.12372435695795,0.,0.992316624619049));
#1399=DIRECTION('center_axis',(-0.644071239092998,-0.39122881783381,0.657352455741644));
#1400=DIRECTION('ref_axis',(0.714285714285713,0.,0.699854212223766));
#1401=DIRECTION('center_axis',(0.644071239092998,0.39122881783381,-0.657352455741644));
#1402=DIRECTION('ref_axis',(0.273803136104317,-0.920293438038303,-0.279449155595578));
#1403=DIRECTION('',(0.273803136104316,-0.920293438038303,-0.279449155595579));
#1404=DIRECTION('',(0.714285714285714,-3.3425825339409E-15,0.699854212223765));
#1405=DIRECTION('',(-0.273803136104316,0.920293438038303,0.279449155595579));
#1406=DIRECTION('center_axis',(0.,-1.,0.));
#1407=DIRECTION('ref_axis',(-0.992316624619049,0.,0.123724356957949));
#1408=DIRECTION('',(0.,-1.,0.));
#1409=DIRECTION('center_axis',(0.,-1.,0.));
#1410=DIRECTION('ref_axis',(1.,0.,0.));
#1411=DIRECTION('',(0.,-1.,0.));
#1412=DIRECTION('center_axis',(-0.389009876117046,0.,0.921233583996698));
#1413=DIRECTION('ref_axis',(-0.921233583996698,0.,-0.389009876117046));
#1414=DIRECTION('',(0.,-1.,0.));
#1415=DIRECTION('',(-0.921233583996698,0.,-0.389009876117046));
#1416=DIRECTION('center_axis',(0.,-1.,0.));
#1417=DIRECTION('ref_axis',(1.,0.,0.));
#1418=DIRECTION('',(0.,-1.,0.));
#1419=DIRECTION('center_axis',(0.,-1.,0.));
#1420=DIRECTION('ref_axis',(1.,0.,0.));
#1421=DIRECTION('',(0.,-1.,0.));
#1422=DIRECTION('center_axis',(-0.603306748502002,0.,-0.797509227038748));
#1423=DIRECTION('ref_axis',(0.797509227038748,0.,-0.603306748502002));
#1424=DIRECTION('',(0.,-1.,0.));
#1425=DIRECTION('',(0.797509227038748,0.,-0.603306748502002));
#1426=DIRECTION('center_axis',(0.891319545458848,-0.39122881783381,0.229105827030635));
#1427=DIRECTION('ref_axis',(0.248948669588471,0.,-0.968516680243624));
#1428=DIRECTION('center_axis',(-0.891319545458848,0.39122881783381,-0.229105827030635));
#1429=DIRECTION('ref_axis',(0.37891163586404,0.920293438038303,0.0973958937043973));
#1430=DIRECTION('center_axis',(-0.891319545458848,0.39122881783381,-0.229105827030635));
#1431=DIRECTION('ref_axis',(0.37891163586404,0.920293438038303,0.0973958937043973));
#1432=DIRECTION('',(-0.37891163586404,-0.920293438038303,-0.0973958937043967));
#1433=DIRECTION('',(0.248948669588471,3.34258253394089E-15,-0.968516680243624));
#1434=DIRECTION('',(0.37891163586404,0.920293438038303,0.0973958937043968));
#1435=DIRECTION('center_axis',(0.,-1.,0.));
#1436=DIRECTION('ref_axis',(1.,0.,0.));
#1437=DIRECTION('',(0.,-1.,0.));
#1438=DIRECTION('center_axis',(0.,-1.,0.));
#1439=DIRECTION('ref_axis',(1.,0.,0.));
#1440=DIRECTION('',(0.,-1.,0.));
#1441=DIRECTION('center_axis',(0.992316624619049,0.,-0.12372435695795));
#1442=DIRECTION('ref_axis',(0.12372435695795,0.,0.992316624619048));
#1443=DIRECTION('',(0.,-1.,0.));
#1444=DIRECTION('',(0.12372435695795,0.,0.992316624619048));
#1445=DIRECTION('center_axis',(-0.603306748502003,0.,-0.797509227038748));
#1446=DIRECTION('ref_axis',(0.797509227038748,0.,-0.603306748502003));
#1447=DIRECTION('',(0.,-1.,0.));
#1448=DIRECTION('',(0.797509227038748,0.,-0.603306748502003));
#1449=DIRECTION('',(0.,-1.,0.));
#1450=DIRECTION('center_axis',(-0.947352267050972,-0.207911690817759,-0.243508543863834));
#1451=DIRECTION('ref_axis',(0.248948669588469,0.,-0.968516680243624));
#1452=DIRECTION('center_axis',(0.947352267050972,0.207911690817759,0.243508543863834));
#1453=DIRECTION('ref_axis',(0.201365940574655,-0.978147600733806,0.0517593388209704));
#1454=DIRECTION('',(0.201365940574655,-0.978147600733806,0.0517593388209704));
#1455=DIRECTION('',(0.248948669588469,0.,-0.968516680243624));
#1456=DIRECTION('',(0.201365940574655,-0.978147600733806,0.0517593388209703));
#1457=DIRECTION('center_axis',(0.947352267050972,0.207911690817759,0.243508543863834));
#1458=DIRECTION('ref_axis',(0.201365940574655,-0.978147600733806,0.0517593388209704));
#1459=DIRECTION('center_axis',(0.947352267050972,0.207911690817759,0.243508543863834));
#1460=DIRECTION('ref_axis',(0.201365940574655,-0.978147600733806,0.0517593388209704));
#1461=DIRECTION('',(-0.105108499759723,0.920293438038303,-0.376845049299975));
#1462=DIRECTION('',(0.248948669588469,0.,-0.968516680243624));
#1463=DIRECTION('center_axis',(0.,-1.,0.));
#1464=DIRECTION('ref_axis',(-0.992316624619049,0.,0.123724356957947));
#1465=DIRECTION('',(0.,-1.,0.));
#1466=DIRECTION('center_axis',(0.,-1.,0.));
#1467=DIRECTION('ref_axis',(1.,0.,0.));
#1468=DIRECTION('center_axis',(-0.389009876117046,0.,0.921233583996698));
#1469=DIRECTION('ref_axis',(-0.921233583996698,0.,-0.389009876117046));
#1470=DIRECTION('',(0.,-1.,0.));
#1471=DIRECTION('',(-0.921233583996698,0.,-0.389009876117046));
#1472=DIRECTION('center_axis',(-0.247248306365853,-0.39122881783381,-0.886458282772278));
#1473=DIRECTION('ref_axis',(-0.963234383874183,0.,0.268662468019861));
#1474=DIRECTION('center_axis',(0.247248306365853,0.39122881783381,0.886458282772278));
#1475=DIRECTION('ref_axis',(0.105108499759724,-0.920293438038303,0.376845049299975));
#1476=DIRECTION('',(0.105108499759724,-0.920293438038303,0.376845049299975));
#1477=DIRECTION('',(-0.963234383874183,0.,0.268662468019861));
#1478=DIRECTION('center_axis',(0.,-1.,0.));
#1479=DIRECTION('ref_axis',(1.,0.,0.));
#1480=DIRECTION('',(0.,-1.,0.));
#1481=DIRECTION('center_axis',(0.,-1.,0.));
#1482=DIRECTION('ref_axis',(1.,0.,0.));
#1483=DIRECTION('',(0.,-1.,0.));
#1484=DIRECTION('center_axis',(-0.603306748502003,0.,-0.797509227038748));
#1485=DIRECTION('ref_axis',(0.797509227038748,0.,-0.603306748502003));
#1486=DIRECTION('',(0.,-1.,0.));
#1487=DIRECTION('',(0.797509227038748,0.,-0.603306748502003));
#1488=DIRECTION('center_axis',(-0.603306748502003,0.,-0.797509227038748));
#1489=DIRECTION('ref_axis',(0.797509227038748,0.,-0.603306748502003));
#1490=DIRECTION('',(0.797509227038748,0.,-0.603306748502003));
#1491=DIRECTION('',(0.,-1.,0.));
#1492=DIRECTION('center_axis',(-0.603306748502003,0.,-0.797509227038748));
#1493=DIRECTION('ref_axis',(0.797509227038748,0.,-0.603306748502003));
#1494=DIRECTION('',(0.,-1.,0.));
#1495=DIRECTION('',(0.797509227038748,0.,-0.603306748502003));
#1496=DIRECTION('',(0.,-1.,0.));
#1497=DIRECTION('center_axis',(0.,-1.,0.));
#1498=DIRECTION('ref_axis',(1.,0.,0.));
#1499=DIRECTION('center_axis',(0.,-1.,0.));
#1500=DIRECTION('ref_axis',(1.,0.,0.));
#1501=DIRECTION('',(0.,-1.,0.));
#1502=DIRECTION('center_axis',(0.992316624619049,0.,-0.12372435695795));
#1503=DIRECTION('ref_axis',(0.12372435695795,0.,0.992316624619049));
#1504=DIRECTION('',(0.12372435695795,0.,0.992316624619049));
#1505=DIRECTION('',(0.,-1.,0.));
#1506=DIRECTION('center_axis',(0.,-1.,0.));
#1507=DIRECTION('ref_axis',(1.,0.,0.));
#1508=DIRECTION('center_axis',(0.,-1.,0.));
#1509=DIRECTION('ref_axis',(1.,0.,0.));
#1510=DIRECTION('center_axis',(0.,-1.,0.));
#1511=DIRECTION('ref_axis',(1.,0.,0.));
#1512=DIRECTION('',(0.,-1.,0.));
#1513=DIRECTION('center_axis',(0.,1.,0.));
#1514=DIRECTION('ref_axis',(1.,0.,0.));
#1515=DIRECTION('center_axis',(-0.262791548500848,0.207911690817759,-0.942185401530838));
#1516=DIRECTION('ref_axis',(0.0558580679852811,0.978147600733806,0.200267689405084));
#1517=DIRECTION('center_axis',(0.,1.,0.));
#1518=DIRECTION('ref_axis',(1.,0.,0.));
#1519=DIRECTION('center_axis',(0.644071239092998,0.39122881783381,-0.657352455741644));
#1520=DIRECTION('ref_axis',(0.273803136104317,-0.920293438038303,-0.279449155595578));
#1521=DIRECTION('center_axis',(0.,1.,0.));
#1522=DIRECTION('ref_axis',(1.,0.,0.));
#1523=DIRECTION('center_axis',(0.,-1.,0.));
#1524=DIRECTION('ref_axis',(1.,0.,0.));
#1525=DIRECTION('center_axis',(0.992316624619048,0.,-0.123724356957951));
#1526=DIRECTION('ref_axis',(0.123724356957951,0.,0.992316624619048));
#1527=DIRECTION('',(0.123724356957951,0.,0.992316624619048));
#1528=DIRECTION('',(0.,-1.,0.));
#1529=DIRECTION('center_axis',(0.,-1.,0.));
#1530=DIRECTION('ref_axis',(1.,0.,0.));
#1531=DIRECTION('center_axis',(0.,-1.,0.));
#1532=DIRECTION('ref_axis',(1.,0.,0.));
#1533=DIRECTION('',(0.,-1.,0.));
#1534=DIRECTION('',(0.,-1.,0.));
#1535=DIRECTION('center_axis',(0.,-1.,0.));
#1536=DIRECTION('ref_axis',(1.,0.,0.));
#1537=DIRECTION('center_axis',(0.,-1.,0.));
#1538=DIRECTION('ref_axis',(1.,0.,0.));
#1539=DIRECTION('',(0.,-1.,0.));
#1540=DIRECTION('center_axis',(0.,1.,0.));
#1541=DIRECTION('ref_axis',(1.,0.,0.));
#1542=DIRECTION('center_axis',(0.247248306365853,0.39122881783381,0.886458282772278));
#1543=DIRECTION('ref_axis',(0.105108499759724,-0.920293438038303,0.376845049299975));
#1544=DIRECTION('center_axis',(0.,1.,0.));
#1545=DIRECTION('ref_axis',(1.,0.,0.));
#1546=DIRECTION('center_axis',(-0.684560718550123,0.207911690817759,0.698676857667004));
#1547=DIRECTION('ref_axis',(0.145507872589374,0.978147600733806,-0.148508350584114));
#1548=DIRECTION('center_axis',(0.992316624619048,0.,-0.123724356957951));
#1549=DIRECTION('ref_axis',(0.123724356957951,0.,0.992316624619048));
#1550=DIRECTION('',(0.123724356957951,0.,0.992316624619048));
#1551=DIRECTION('',(0.,-1.,0.));
#1552=DIRECTION('center_axis',(0.,-1.,0.));
#1553=DIRECTION('ref_axis',(1.,0.,0.));
#1554=DIRECTION('center_axis',(0.,-1.,0.));
#1555=DIRECTION('ref_axis',(1.,0.,0.));
#1556=DIRECTION('',(0.,-1.,0.));
#1557=DIRECTION('center_axis',(-0.389009876117046,0.,0.921233583996698));
#1558=DIRECTION('ref_axis',(-0.921233583996698,0.,-0.389009876117046));
#1559=DIRECTION('',(-0.921233583996698,0.,-0.389009876117046));
#1560=DIRECTION('center_axis',(-0.389009876117046,0.,0.921233583996698));
#1561=DIRECTION('ref_axis',(-0.921233583996698,0.,-0.389009876117046));
#1562=DIRECTION('',(-0.921233583996698,0.,-0.389009876117046));
#1563=DIRECTION('',(0.,-1.,0.));
#1564=DIRECTION('center_axis',(0.,-1.,0.));
#1565=DIRECTION('ref_axis',(1.,0.,0.));
#1566=DIRECTION('',(0.,-1.,0.));
#1567=DIRECTION('center_axis',(0.,-1.,0.));
#1568=DIRECTION('ref_axis',(1.,0.,0.));
#1569=DIRECTION('',(0.,-1.,0.));
#1570=DIRECTION('',(0.,-1.,0.));
#1571=DIRECTION('center_axis',(-0.684560718550123,0.207911690817759,0.698676857667004));
#1572=DIRECTION('ref_axis',(0.145507872589374,0.978147600733806,-0.148508350584114));
#1573=DIRECTION('center_axis',(0.,1.,0.));
#1574=DIRECTION('ref_axis',(1.,0.,0.));
#1575=DIRECTION('center_axis',(-0.891319545458848,0.39122881783381,-0.229105827030635));
#1576=DIRECTION('ref_axis',(0.37891163586404,0.920293438038303,0.0973958937043973));
#1577=DIRECTION('center_axis',(0.,1.,0.));
#1578=DIRECTION('ref_axis',(1.,0.,0.));
#1579=DIRECTION('center_axis',(-0.262791548500848,0.207911690817759,-0.942185401530838));
#1580=DIRECTION('ref_axis',(0.0558580679852811,0.978147600733806,0.200267689405084));
#1581=DIRECTION('',(0.,-1.,0.));
#1582=DIRECTION('center_axis',(0.,-1.,0.));
#1583=DIRECTION('ref_axis',(1.,0.,0.));
#1584=DIRECTION('center_axis',(0.,-1.,0.));
#1585=DIRECTION('ref_axis',(1.,0.,0.));
#1586=DIRECTION('center_axis',(-0.389009876117046,0.,0.921233583996698));
#1587=DIRECTION('ref_axis',(-0.921233583996698,0.,-0.389009876117046));
#1588=DIRECTION('',(-0.921233583996698,0.,-0.389009876117046));
#1589=DIRECTION('',(0.,-1.,0.));
#1590=DIRECTION('center_axis',(0.,-1.,0.));
#1591=DIRECTION('ref_axis',(-0.992316624619049,0.,0.123724356957951));
#1592=DIRECTION('center_axis',(0.,-1.,0.));
#1593=DIRECTION('ref_axis',(1.,0.,0.));
#1594=DIRECTION('',(0.,-1.,0.));
#1595=DIRECTION('center_axis',(-0.603306748502002,0.,-0.797509227038748));
#1596=DIRECTION('ref_axis',(0.797509227038748,0.,-0.603306748502002));
#1597=DIRECTION('',(0.797509227038748,0.,-0.603306748502002));
#1598=DIRECTION('center_axis',(0.992316624619049,0.,-0.12372435695795));
#1599=DIRECTION('ref_axis',(0.12372435695795,0.,0.992316624619048));
#1600=DIRECTION('',(0.12372435695795,0.,0.992316624619048));
#1601=DIRECTION('center_axis',(0.,1.,0.));
#1602=DIRECTION('ref_axis',(-0.699854212223765,0.,0.714285714285715));
#1603=DIRECTION('',(-0.0558580679852811,-0.978147600733806,-0.200267689405084));
#1604=DIRECTION('center_axis',(0.,-1.,0.));
#1605=DIRECTION('ref_axis',(1.,0.,0.));
#1606=DIRECTION('center_axis',(-0.644071239092998,-0.39122881783381,0.657352455741644));
#1607=DIRECTION('ref_axis',(-0.273803136104317,0.920293438038303,0.279449155595578));
#1608=DIRECTION('center_axis',(-0.644071239092998,-0.39122881783381,0.657352455741644));
#1609=DIRECTION('ref_axis',(0.714285714285713,0.,0.699854212223766));
#1610=DIRECTION('center_axis',(0.,1.,0.));
#1611=DIRECTION('ref_axis',(1.,0.,0.));
#1612=DIRECTION('center_axis',(0.,-1.,0.));
#1613=DIRECTION('ref_axis',(1.,0.,0.));
#1614=DIRECTION('',(-0.145507872589374,-0.978147600733806,0.148508350584114));
#1615=DIRECTION('center_axis',(-0.247248306365853,-0.39122881783381,-0.886458282772278));
#1616=DIRECTION('ref_axis',(-0.105108499759736,0.920293438038303,-0.376845049299971));
#1617=DIRECTION('center_axis',(-0.247248306365853,-0.39122881783381,-0.886458282772278));
#1618=DIRECTION('ref_axis',(-0.963234383874183,0.,0.268662468019861));
#1619=DIRECTION('center_axis',(0.,1.,0.));
#1620=DIRECTION('ref_axis',(1.,0.,0.));
#1621=DIRECTION('',(-0.145507872589374,-0.978147600733806,0.148508350584114));
#1622=DIRECTION('center_axis',(0.,-1.,0.));
#1623=DIRECTION('ref_axis',(1.,0.,0.));
#1624=DIRECTION('',(-0.0558580679852811,-0.978147600733806,-0.200267689405084));
#1625=DIRECTION('center_axis',(0.891319545458848,-0.39122881783381,0.229105827030635));
#1626=DIRECTION('ref_axis',(0.378911635864038,0.920293438038303,0.0973958937043977));
#1627=DIRECTION('center_axis',(0.891319545458848,-0.39122881783381,0.229105827030635));
#1628=DIRECTION('ref_axis',(0.248948669588471,0.,-0.968516680243624));
#1629=DIRECTION('center_axis',(-0.383108694984228,-0.836863157460313,0.391008674472878));
#1630=DIRECTION('ref_axis',(0.714285714285711,0.,0.699854212223769));
#1631=DIRECTION('',(0.357757955469642,-0.524698036999373,-0.7724643779924));
#1632=DIRECTION('',(-0.765002315422159,0.524698036999375,0.373448024988402));
#1633=DIRECTION('center_axis',(-0.147069097701481,-0.836863157460314,-0.527286199503481));
#1634=DIRECTION('ref_axis',(-0.963234383874183,0.,0.268662468019861));
#1635=DIRECTION('',(0.49009479712514,-0.524698036999374,0.696059666838893));
#1636=DIRECTION('',(0.0590856810779963,0.524698036999372,-0.849235451603708));
#1637=DIRECTION('center_axis',(0.530177792685707,-0.836863157460314,0.136277525030602));
#1638=DIRECTION('ref_axis',(0.248948669588466,0.,-0.968516680243625));
#1639=DIRECTION('',(-0.847852752594785,-0.524698036999373,0.0764047111535108));
#1640=DIRECTION('',(0.705916634344163,0.524698036999374,0.475787426615304));
#1641=DIRECTION('center_axis',(0.169074769434672,-0.777145961456972,0.606183039132349));
#1642=DIRECTION('ref_axis',(0.963234383874184,0.,-0.268662468019859));
#1643=DIRECTION('',(-0.963234383874184,0.,0.268662468019859));
#1644=DIRECTION('',(0.963234383874184,0.,-0.268662468019859));
#1645=DIRECTION('center_axis',(0.440432526514535,-0.777145961456972,-0.449514565035597));
#1646=DIRECTION('ref_axis',(-0.714285714285714,0.,-0.699854212223765));
#1647=DIRECTION('',(0.714285714285714,0.,0.699854212223765));
#1648=DIRECTION('',(-0.714285714285714,0.,-0.699854212223765));
#1649=DIRECTION('center_axis',(-0.609507295949208,-0.777145961456971,-0.156668474096752));
#1650=DIRECTION('ref_axis',(-0.248948669588469,0.,0.968516680243624));
#1651=DIRECTION('',(-0.248948669588469,0.,0.968516680243624));
#1652=DIRECTION('center_axis',(0.262791548500848,-0.207911690817759,0.942185401530838));
#1653=DIRECTION('ref_axis',(-0.963234383874184,0.,0.268662468019859));
#1654=DIRECTION('',(-0.963234383874184,0.,0.268662468019859));
#1655=DIRECTION('center_axis',(0.,-1.,0.));
#1656=DIRECTION('ref_axis',(0.,0.,-1.));
#1657=DIRECTION('center_axis',(0.684560718550123,-0.207911690817759,-0.698676857667004));
#1658=DIRECTION('ref_axis',(0.714285714285714,0.,0.699854212223765));
#1659=DIRECTION('',(0.714285714285714,0.,0.699854212223765));
#1660=DIRECTION('center_axis',(0.,-1.,0.));
#1661=DIRECTION('ref_axis',(0.,0.,-1.));
#1662=CARTESIAN_POINT('',(0.,0.,0.));
#1663=CARTESIAN_POINT('Origin',(7.7525512860841,-23.5,-7.5));
#1664=CARTESIAN_POINT('',(6.1575328320066,-23.5,-6.293386502996));
#1665=CARTESIAN_POINT('',(6.63603836822985,-23.5,-6.6553705520972));
#1666=CARTESIAN_POINT('',(6.95504205904535,-23.5,-6.896693251498));
#1667=CARTESIAN_POINT('',(5.7525512860841,-23.5,-7.5));
#1668=CARTESIAN_POINT('Origin',(7.7525512860841,-23.5,-7.5));
#1669=CARTESIAN_POINT('',(5.9100841180907,-23.5,-8.27801975223409));
#1670=CARTESIAN_POINT('Origin',(7.7525512860841,-23.5,-7.5));
#1671=CARTESIAN_POINT('',(6.46282426848872,-23.5,-8.04461382656387));
#1672=CARTESIAN_POINT('',(7.10768777728641,-23.5,-7.77230691328193));
#1673=CARTESIAN_POINT('Origin',(7.7525512860841,-23.5,-7.5));
#1674=CARTESIAN_POINT('Origin',(7.7525512860841,-23.5,-7.5));
#1675=CARTESIAN_POINT('',(8.86906420393835,-23.5,-8.34462944790281));
#1676=CARTESIAN_POINT('',(9.3475697401616,-23.5,-8.70661349700401));
#1677=CARTESIAN_POINT('',(8.31080774501122,-23.5,-7.9223147239514));
#1678=CARTESIAN_POINT('',(7.57933718634297,-23.5,-8.88924327446667));
#1679=CARTESIAN_POINT('Origin',(7.7525512860841,-23.5,-7.5));
#1680=CARTESIAN_POINT('',(7.5051025721682,-23.5,-9.4846332492381));
#1681=CARTESIAN_POINT('',(7.62882692912615,-23.5,-8.49231662461905));
#1682=CARTESIAN_POINT('Origin',(7.7525512860841,-23.5,-7.5));
#1683=CARTESIAN_POINT('Origin',(7.7525512860841,-23.5,-7.5));
#1684=CARTESIAN_POINT('',(9.5950184540775,-23.5,-6.72198024776591));
#1685=CARTESIAN_POINT('',(9.04227830367948,-23.5,-6.95538617343614));
#1686=CARTESIAN_POINT('',(8.6737848700808,-23.5,-7.11099012388296));
#1687=CARTESIAN_POINT('',(8.,-23.5,-5.51536675076191));
#1688=CARTESIAN_POINT('Origin',(7.7525512860841,-23.5,-7.5));
#1689=CARTESIAN_POINT('',(7.92576538582523,-23.5,-6.11075672553334));
#1690=CARTESIAN_POINT('',(7.83915833595466,-23.5,-6.80537836276667));
#1691=CARTESIAN_POINT('Origin',(7.7525512860841,-23.5,-7.5));
#1692=CARTESIAN_POINT('Origin',(36.9490419042634,-23.5,-15.6433982822018));
#1693=CARTESIAN_POINT('',(38.7915090722568,-23.5,-14.8653785299677));
#1694=CARTESIAN_POINT('',(38.2387689218588,-23.5,-15.0987844556379));
#1695=CARTESIAN_POINT('',(37.8702754882601,-23.5,-15.2543884060847));
#1696=CARTESIAN_POINT('',(37.1964906181793,-23.5,-13.6587650329637));
#1697=CARTESIAN_POINT('Origin',(36.9490419042634,-23.5,-15.6433982822018));
#1698=CARTESIAN_POINT('',(37.1222560040046,-23.5,-14.2541550077351));
#1699=CARTESIAN_POINT('',(37.035648954134,-23.5,-14.9487766449685));
#1700=CARTESIAN_POINT('Origin',(36.9490419042634,-23.5,-15.6433982822018));
#1701=CARTESIAN_POINT('Origin',(36.9490419042634,-23.5,-15.6433982822018));
#1702=CARTESIAN_POINT('',(35.659314886668,-23.5,-16.1880121087657));
#1703=CARTESIAN_POINT('',(35.10657473627,-23.5,-16.4214180344359));
#1704=CARTESIAN_POINT('',(36.3041783954657,-23.5,-15.9157051954837));
#1705=CARTESIAN_POINT('',(35.8325289864092,-23.5,-14.798768834299));
#1706=CARTESIAN_POINT('Origin',(36.9490419042634,-23.5,-15.6433982822018));
#1707=CARTESIAN_POINT('',(35.3540234501859,-23.5,-14.4367847851978));
#1708=CARTESIAN_POINT('',(36.1515326772247,-23.5,-15.0400915336998));
#1709=CARTESIAN_POINT('',(34.9490419042634,-23.5,-15.6433982822018));
#1710=CARTESIAN_POINT('Origin',(36.9490419042634,-23.5,-15.6433982822018));
#1711=CARTESIAN_POINT('Origin',(36.9490419042634,-23.5,-15.6433982822018));
#1712=CARTESIAN_POINT('Origin',(36.9490419042634,-23.5,-15.6433982822018));
#1713=CARTESIAN_POINT('',(36.7015931903475,-23.5,-17.6280315314399));
#1714=CARTESIAN_POINT('',(36.7758278045223,-23.5,-17.0326415566685));
#1715=CARTESIAN_POINT('',(36.8253175473055,-23.5,-16.6357149068208));
#1716=CARTESIAN_POINT('',(38.5440603583409,-23.5,-16.8500117792058));
#1717=CARTESIAN_POINT('Origin',(36.9490419042634,-23.5,-15.6433982822018));
#1718=CARTESIAN_POINT('',(38.0655548221177,-23.5,-16.4880277301046));
#1719=CARTESIAN_POINT('',(37.5072983631905,-23.5,-16.0657130061532));
#1720=CARTESIAN_POINT('Origin',(36.9490419042634,-23.5,-15.6433982822018));
#1721=CARTESIAN_POINT('Origin',(15.2984068096525,-23.5,-36.8566017177982));
#1722=CARTESIAN_POINT('',(15.0509580957366,-23.5,-38.8412349670363));
#1723=CARTESIAN_POINT('',(15.1251927099113,-23.5,-38.2458449922649));
#1724=CARTESIAN_POINT('',(15.1746824526945,-23.5,-37.8489183424173));
#1725=CARTESIAN_POINT('',(16.8934252637299,-23.5,-38.0632152148022));
#1726=CARTESIAN_POINT('Origin',(15.2984068096525,-23.5,-36.8566017177982));
#1727=CARTESIAN_POINT('',(16.4149197275067,-23.5,-37.701231165701));
#1728=CARTESIAN_POINT('',(15.8566632685796,-23.5,-37.2789164417496));
#1729=CARTESIAN_POINT('Origin',(15.2984068096525,-23.5,-36.8566017177982));
#1730=CARTESIAN_POINT('Origin',(15.2984068096525,-23.5,-36.8566017177982));
#1731=CARTESIAN_POINT('',(15.4716209093936,-23.5,-35.4673584433315));
#1732=CARTESIAN_POINT('',(15.5458555235684,-23.5,-34.8719684685601));
#1733=CARTESIAN_POINT('',(15.385013859523,-23.5,-36.1619800805649));
#1734=CARTESIAN_POINT('',(16.5881338272478,-23.5,-36.3119878912344));
#1735=CARTESIAN_POINT('Origin',(15.2984068096525,-23.5,-36.8566017177982));
#1736=CARTESIAN_POINT('',(17.1408739776459,-23.5,-36.0785819655641));
#1737=CARTESIAN_POINT('',(16.2196403936492,-23.5,-36.4675918416812));
#1738=CARTESIAN_POINT('Origin',(15.2984068096525,-23.5,-36.8566017177982));
#1739=CARTESIAN_POINT('Origin',(15.2984068096525,-23.5,-36.8566017177982));
#1740=CARTESIAN_POINT('',(13.703388355575,-23.5,-35.6499882207942));
#1741=CARTESIAN_POINT('',(14.1818938917982,-23.5,-36.0119722698954));
#1742=CARTESIAN_POINT('',(14.5008975826137,-23.5,-36.2532949692962));
#1743=CARTESIAN_POINT('',(13.2984068096525,-23.5,-36.8566017177982));
#1744=CARTESIAN_POINT('Origin',(15.2984068096525,-23.5,-36.8566017177982));
#1745=CARTESIAN_POINT('',(13.4559396416591,-23.5,-37.6346214700323));
#1746=CARTESIAN_POINT('Origin',(15.2984068096525,-23.5,-36.8566017177982));
#1747=CARTESIAN_POINT('',(14.0086797920571,-23.5,-37.4012155443621));
#1748=CARTESIAN_POINT('',(14.6535433008548,-23.5,-37.1289086310802));
#1749=CARTESIAN_POINT('Origin',(15.2984068096525,-23.5,-36.8566017177982));
#1750=CARTESIAN_POINT('Origin',(9.5950184540775,0.,-6.72198024776591));
#1751=CARTESIAN_POINT('',(9.04227830367948,0.,-6.95538617343614));
#1752=CARTESIAN_POINT('',(9.04227830367948,0.,-6.95538617343614));
#1753=CARTESIAN_POINT('',(9.5950184540775,0.,-6.72198024776591));
#1754=CARTESIAN_POINT('',(12.238217176835,0.,-5.60583508593655));
#1755=CARTESIAN_POINT('',(9.5950184540775,0.,-6.72198024776591));
#1756=CARTESIAN_POINT('Origin',(7.7525512860841,0.,-7.5));
#1757=CARTESIAN_POINT('',(7.92576538582523,0.,-6.11075672553334));
#1758=CARTESIAN_POINT('',(7.92576538582523,0.,-6.11075672553334));
#1759=CARTESIAN_POINT('Origin',(7.7525512860841,0.,-7.5));
#1760=CARTESIAN_POINT('Origin',(7.92576538582523,0.,-6.11075672553334));
#1761=CARTESIAN_POINT('',(8.,0.,-5.51536675076191));
#1762=CARTESIAN_POINT('',(8.,0.,-5.51536675076191));
#1763=CARTESIAN_POINT('',(7.04983631694106,0.,-13.1360425981951));
#1764=CARTESIAN_POINT('Origin',(1.22976318270944,-7.94757903931583,-0.842707269348182));
#1765=CARTESIAN_POINT('',(9.74778408511466,-33.3882396854342,-7.63800752759421));
#1766=CARTESIAN_POINT('',(7.84981103437689,-33.3882396854342,-9.49763373553863));
#1767=CARTESIAN_POINT('Origin',(7.7525512860841,-29.8716489190814,-7.5));
#1768=CARTESIAN_POINT('',(12.0645562540916,-47.5546309981655,-13.7992900622618));
#1769=CARTESIAN_POINT('',(0.280776657340552,-7.94757903931583,-1.7725203733204));
#1770=CARTESIAN_POINT('',(13.9625293048294,-47.5546309981655,-11.9396638543174));
#1771=CARTESIAN_POINT('',(12.0645562540916,-47.5546309981655,-13.7992900622618));
#1772=CARTESIAN_POINT('',(2.17874970807832,-7.94757903931583,0.0871058346240328));
#1773=CARTESIAN_POINT('Origin',(7.7525512860841,0.,-7.5));
#1774=CARTESIAN_POINT('',(6.46282426848872,0.,-8.04461382656387));
#1775=CARTESIAN_POINT('',(6.46282426848872,0.,-8.04461382656387));
#1776=CARTESIAN_POINT('',(6.63603836822985,0.,-6.6553705520972));
#1777=CARTESIAN_POINT('Origin',(7.7525512860841,0.,-7.5));
#1778=CARTESIAN_POINT('',(6.63603836822985,0.,-6.6553705520972));
#1779=CARTESIAN_POINT('Origin',(6.46282426848872,0.,-8.04461382656387));
#1780=CARTESIAN_POINT('',(5.9100841180907,0.,-8.27801975223409));
#1781=CARTESIAN_POINT('',(5.9100841180907,0.,-8.27801975223409));
#1782=CARTESIAN_POINT('',(10.6721200840406,0.,-6.26715187533552));
#1783=CARTESIAN_POINT('Origin',(36.9490419042634,0.,-15.6433982822018));
#1784=CARTESIAN_POINT('',(38.0655548221177,0.,-16.4880277301046));
#1785=CARTESIAN_POINT('',(38.0655548221177,0.,-16.4880277301046));
#1786=CARTESIAN_POINT('',(36.7758278045223,0.,-17.0326415566685));
#1787=CARTESIAN_POINT('Origin',(36.9490419042634,0.,-15.6433982822018));
#1788=CARTESIAN_POINT('',(36.7758278045223,0.,-17.0326415566685));
#1789=CARTESIAN_POINT('Origin',(38.0655548221177,0.,-16.4880277301046));
#1790=CARTESIAN_POINT('',(38.5440603583409,0.,-16.8500117792058));
#1791=CARTESIAN_POINT('',(38.5440603583409,0.,-16.8500117792058));
#1792=CARTESIAN_POINT('',(34.4370136432812,0.,-13.7430771938732));
#1793=CARTESIAN_POINT('Origin',(45.9758205811247,-7.94757903931583,-13.3231444465023));
#1794=CARTESIAN_POINT('',(35.8319074799381,-33.3882396854342,-17.3023168088291));
#1795=CARTESIAN_POINT('',(34.9490419042634,-34.4281616544877,-15.6433982822018));
#1796=CARTESIAN_POINT('Origin',(36.9490419042634,-29.8716489190814,-15.6433982822018));
#1797=CARTESIAN_POINT('',(35.1704104676838,-33.3882396854342,-14.7288108272197));
#1798=CARTESIAN_POINT('Origin',(36.9490419042634,-29.8716489190814,-15.6433982822018));
#1799=CARTESIAN_POINT('',(29.3376942005341,-47.5546309981655,-16.2280590946101));
#1800=CARTESIAN_POINT('',(45.6450720749975,-7.94757903931583,-12.0363914556976));
#1801=CARTESIAN_POINT('',(29.9991912127884,-47.5546309981655,-18.8015650762195));
#1802=CARTESIAN_POINT('',(29.3376942005341,-47.5546309981655,-16.2280590946101));
#1803=CARTESIAN_POINT('',(46.3065690872519,-7.94757903931583,-14.609897437307));
#1804=CARTESIAN_POINT('Origin',(36.9490419042634,0.,-15.6433982822018));
#1805=CARTESIAN_POINT('',(37.1222560040046,0.,-14.2541550077351));
#1806=CARTESIAN_POINT('',(37.1222560040046,0.,-14.2541550077351));
#1807=CARTESIAN_POINT('',(38.2387689218588,0.,-15.0987844556379));
#1808=CARTESIAN_POINT('Origin',(36.9490419042634,0.,-15.6433982822018));
#1809=CARTESIAN_POINT('',(38.2387689218588,0.,-15.0987844556379));
#1810=CARTESIAN_POINT('Origin',(37.1222560040046,0.,-14.2541550077351));
#1811=CARTESIAN_POINT('',(37.1964906181793,0.,-13.6587650329637));
#1812=CARTESIAN_POINT('',(37.1964906181793,0.,-13.6587650329637));
#1813=CARTESIAN_POINT('',(36.5227588510231,0.,-19.0623512751644));
#1814=CARTESIAN_POINT('Origin',(13.703388355575,0.,-35.6499882207942));
#1815=CARTESIAN_POINT('',(14.1818938917982,0.,-36.0119722698954));
#1816=CARTESIAN_POINT('',(14.1818938917982,0.,-36.0119722698954));
#1817=CARTESIAN_POINT('',(13.703388355575,0.,-35.6499882207942));
#1818=CARTESIAN_POINT('',(13.2124528253507,0.,-35.278601021221));
#1819=CARTESIAN_POINT('',(13.703388355575,0.,-35.6499882207942));
#1820=CARTESIAN_POINT('Origin',(8.03453170782527,0.,-38.7237167397117));
#1821=CARTESIAN_POINT('',(5.81551792559685,-25.8754656021315,-7.99789733917694));
#1822=CARTESIAN_POINT('Origin',(7.7525512860841,-35.2847258210884,-7.5));
#1823=CARTESIAN_POINT('',(0.488676184256918,0.,-9.36711502191352));
#1824=CARTESIAN_POINT('',(0.488676184256918,0.,-9.36711502191352));
#1825=CARTESIAN_POINT('',(8.03453170782527,0.,-38.7237167397117));
#1826=CARTESIAN_POINT('',(0.488676184256918,0.,-9.36711502191352));
#1827=CARTESIAN_POINT('',(13.3613734491652,-25.8754656021315,-37.3544990569752));
#1828=CARTESIAN_POINT('',(8.03453170782527,0.,-38.7237167397117));
#1829=CARTESIAN_POINT('',(13.2984068096525,-26.1717003502759,-36.8566017177982));
#1830=CARTESIAN_POINT('Origin',(15.2984068096525,-35.2847258210884,-36.8566017177982));
#1831=CARTESIAN_POINT('',(14.4203084349472,-33.3882396854342,-35.0596756635767));
#1832=CARTESIAN_POINT('Origin',(15.2984068096525,-35.2847258210884,-36.8566017177982));
#1833=CARTESIAN_POINT('',(16.0382794823822,-47.5546309981655,-29.2587710694631));
#1834=CARTESIAN_POINT('',(11.5146812046698,-7.94757903931583,-45.477208397317));
#1835=CARTESIAN_POINT('',(14.0514178682369,-47.5546309981655,-21.5290305658625));
#1836=CARTESIAN_POINT('Origin',(15.2984068096525,0.,-36.8566017177982));
#1837=CARTESIAN_POINT('',(14.0086797920571,0.,-37.4012155443621));
#1838=CARTESIAN_POINT('',(14.0086797920571,0.,-37.4012155443621));
#1839=CARTESIAN_POINT('Origin',(15.2984068096525,0.,-36.8566017177982));
#1840=CARTESIAN_POINT('Origin',(14.0086797920571,0.,-37.4012155443621));
#1841=CARTESIAN_POINT('',(13.4559396416591,0.,-37.6346214700323));
#1842=CARTESIAN_POINT('',(13.4559396416591,0.,-37.6346214700323));
#1843=CARTESIAN_POINT('',(20.2762474861581,0.,-34.754605852106));
#1844=CARTESIAN_POINT('Origin',(12.7944162361658,-7.94757903931583,-45.8341482841495));
#1845=CARTESIAN_POINT('',(16.9797784979393,-33.3882396854342,-35.7735554372417));
#1846=CARTESIAN_POINT('Origin',(15.2984068096525,-29.8716489190815,-36.8566017177982));
#1847=CARTESIAN_POINT('',(18.5977495453743,-47.5546309981655,-29.9726508431281));
#1848=CARTESIAN_POINT('',(14.0741512676619,-7.94757903931583,-46.191088170982));
#1849=CARTESIAN_POINT('',(18.5977495453743,-47.5546309981655,-29.9726508431281));
#1850=CARTESIAN_POINT('Origin',(15.2984068096525,0.,-36.8566017177982));
#1851=CARTESIAN_POINT('',(16.4149197275067,0.,-37.701231165701));
#1852=CARTESIAN_POINT('',(16.4149197275067,0.,-37.701231165701));
#1853=CARTESIAN_POINT('',(15.1251927099113,0.,-38.2458449922649));
#1854=CARTESIAN_POINT('Origin',(15.2984068096525,0.,-36.8566017177982));
#1855=CARTESIAN_POINT('',(15.1251927099113,0.,-38.2458449922649));
#1856=CARTESIAN_POINT('Origin',(16.4149197275067,0.,-37.701231165701));
#1857=CARTESIAN_POINT('',(16.8934252637299,0.,-38.0632152148022));
#1858=CARTESIAN_POINT('',(16.8934252637299,0.,-38.0632152148022));
#1859=CARTESIAN_POINT('',(14.5682185113166,0.,-36.3042224936744));
#1860=CARTESIAN_POINT('Origin',(6.1575328320066,0.,-6.293386502996));
#1861=CARTESIAN_POINT('',(6.1575328320066,0.,-6.293386502996));
#1862=CARTESIAN_POINT('',(15.128615753122,0.,-13.0799096981903));
#1863=CARTESIAN_POINT('',(6.1575328320066,0.,-6.293386502996));
#1864=CARTESIAN_POINT('Origin',(8.86906420393835,0.,-8.34462944790281));
#1865=CARTESIAN_POINT('',(9.3475697401616,0.,-8.70661349700401));
#1866=CARTESIAN_POINT('',(9.3475697401616,0.,-8.70661349700401));
#1867=CARTESIAN_POINT('',(8.86906420393835,0.,-8.34462944790281));
#1868=CARTESIAN_POINT('',(16.4843814390878,0.,-14.1055311706437));
#1869=CARTESIAN_POINT('',(8.86906420393835,0.,-8.34462944790281));
#1870=CARTESIAN_POINT('Origin',(7.7525512860841,0.,-7.5));
#1871=CARTESIAN_POINT('',(7.57933718634297,0.,-8.88924327446667));
#1872=CARTESIAN_POINT('Origin',(7.7525512860841,0.,-7.5));
#1873=CARTESIAN_POINT('',(7.57933718634297,0.,-8.88924327446667));
#1874=CARTESIAN_POINT('Origin',(7.5051025721682,0.,-9.4846332492381));
#1875=CARTESIAN_POINT('',(7.5051025721682,0.,-9.4846332492381));
#1876=CARTESIAN_POINT('',(6.83950491011254,0.,-14.8229808600475));
#1877=CARTESIAN_POINT('',(7.5051025721682,0.,-9.4846332492381));
#1878=CARTESIAN_POINT('Origin',(7.7525512860841,0.,-7.5));
#1879=CARTESIAN_POINT('Origin',(7.7525512860841,0.,-7.5));
#1880=CARTESIAN_POINT('Origin',(7.7525512860841,0.,-7.5));
#1881=CARTESIAN_POINT('',(5.7525512860841,-25.8754656021315,-7.5));
#1882=CARTESIAN_POINT('',(5.7525512860841,0.,-7.5));
#1883=CARTESIAN_POINT('Origin',(7.7525512860841,-25.8754656021315,-7.5));
#1884=CARTESIAN_POINT('',(8.28987622212382,-25.8754656021315,-5.57353123225163));
#1885=CARTESIAN_POINT('Origin',(7.7525512860841,-35.2847258210884,-7.5));
#1886=CARTESIAN_POINT('',(7.31751151754107,-25.8754656021315,-5.5478882204684));
#1887=CARTESIAN_POINT('Origin',(7.7525512860841,-25.8754656021315,-7.5));
#1888=CARTESIAN_POINT('',(5.8097244320834,-25.8754656021315,-7.02521182052022));
#1889=CARTESIAN_POINT('Origin',(7.7525512860841,-29.8716489190814,-7.5));
#1890=CARTESIAN_POINT('Origin',(7.7525512860841,-25.8754656021315,-7.5));
#1891=CARTESIAN_POINT('Origin',(7.7525512860841,0.,-7.5));
#1892=CARTESIAN_POINT('Origin',(15.0509580957366,0.,-38.8412349670363));
#1893=CARTESIAN_POINT('',(15.0509580957366,0.,-38.8412349670363));
#1894=CARTESIAN_POINT('',(16.1297153637952,0.,-30.1891894252922));
#1895=CARTESIAN_POINT('',(15.0509580957366,0.,-38.8412349670363));
#1896=CARTESIAN_POINT('Origin',(15.2984068096525,0.,-36.8566017177982));
#1897=CARTESIAN_POINT('',(15.5458555235684,0.,-34.8719684685601));
#1898=CARTESIAN_POINT('Origin',(15.2984068096525,0.,-36.8566017177982));
#1899=CARTESIAN_POINT('',(15.5458555235684,0.,-34.8719684685601));
#1900=CARTESIAN_POINT('',(17.1408739776459,0.,-36.0785819655641));
#1901=CARTESIAN_POINT('',(17.1408739776459,0.,-36.0785819655641));
#1902=CARTESIAN_POINT('Origin',(15.2984068096525,0.,-36.8566017177982));
#1903=CARTESIAN_POINT('Origin',(15.2984068096525,0.,-36.8566017177982));
#1904=CARTESIAN_POINT('',(13.2984068096525,0.,-36.8566017177982));
#1905=CARTESIAN_POINT('',(13.8253483018227,-25.8754656021315,-38.2094130987788));
#1906=CARTESIAN_POINT('Origin',(15.2984068096525,-25.8754656021315,-36.8566017177982));
#1907=CARTESIAN_POINT('',(15.8586416118066,-25.8754656021313,-38.7765332182574));
#1908=CARTESIAN_POINT('Origin',(15.2984068096525,-29.8716489190815,-36.8566017177982));
#1909=CARTESIAN_POINT('',(16.6981152341,-25.8754656021315,-38.2851731463696));
#1910=CARTESIAN_POINT('Origin',(15.2984068096525,-25.8754656021315,-36.8566017177982));
#1911=CARTESIAN_POINT('Origin',(15.2984068096525,-35.2847258210884,-36.8566017177982));
#1912=CARTESIAN_POINT('Origin',(15.4716209093936,0.,-35.4673584433315));
#1913=CARTESIAN_POINT('',(15.4716209093936,0.,-35.4673584433315));
#1914=CARTESIAN_POINT('',(16.3400467706237,0.,-28.5022511634398));
#1915=CARTESIAN_POINT('',(15.4716209093936,0.,-35.4673584433315));
#1916=CARTESIAN_POINT('Origin',(15.2984068096525,0.,-36.8566017177982));
#1917=CARTESIAN_POINT('',(16.5881338272478,0.,-36.3119878912344));
#1918=CARTESIAN_POINT('Origin',(15.2984068096525,0.,-36.8566017177982));
#1919=CARTESIAN_POINT('',(16.5881338272478,0.,-36.3119878912344));
#1920=CARTESIAN_POINT('Origin',(17.1408739776459,0.,-36.0785819655641));
#1921=CARTESIAN_POINT('',(21.8423445789525,0.,-34.0932890627071));
#1922=CARTESIAN_POINT('Origin',(38.7915090722568,0.,-14.8653785299677));
#1923=CARTESIAN_POINT('',(38.7915090722568,0.,-14.8653785299677));
#1924=CARTESIAN_POINT('',(30.5047663294632,0.,-18.3646265206918));
#1925=CARTESIAN_POINT('',(38.7915090722568,0.,-14.8653785299677));
#1926=CARTESIAN_POINT('Origin',(36.9490419042634,0.,-15.6433982822018));
#1927=CARTESIAN_POINT('',(36.7015931903475,0.,-17.6280315314399));
#1928=CARTESIAN_POINT('',(36.7015931903475,0.,-17.6280315314399));
#1929=CARTESIAN_POINT('',(35.10657473627,0.,-16.4214180344359));
#1930=CARTESIAN_POINT('Origin',(36.9490419042634,0.,-15.6433982822018));
#1931=CARTESIAN_POINT('',(35.10657473627,0.,-16.4214180344359));
#1932=CARTESIAN_POINT('',(34.9490419042634,0.,-15.6433982822018));
#1933=CARTESIAN_POINT('',(38.348750328711,-25.8754656021315,-17.0719697107732));
#1934=CARTESIAN_POINT('Origin',(36.9490419042634,-35.2847258210884,-15.6433982822018));
#1935=CARTESIAN_POINT('',(38.8571401806362,-25.8754656021315,-16.2426986807528));
#1936=CARTESIAN_POINT('Origin',(36.9490419042634,-25.8754656021315,-15.6433982822018));
#1937=CARTESIAN_POINT('',(38.3316339561098,-25.8754656021315,-14.1982549612225));
#1938=CARTESIAN_POINT('Origin',(36.9490419042634,-29.8716489190814,-15.6433982822018));
#1939=CARTESIAN_POINT('',(37.4863668403031,-25.8754656021315,-13.7169295144534));
#1940=CARTESIAN_POINT('Origin',(36.9490419042634,-25.8754656021315,-15.6433982822018));
#1941=CARTESIAN_POINT('Origin',(36.9490419042634,-35.2847258210884,-15.6433982822018));
#1942=CARTESIAN_POINT('',(35.3540234501859,0.,-14.4367847851978));
#1943=CARTESIAN_POINT('',(35.3540234501859,0.,-14.4367847851978));
#1944=CARTESIAN_POINT('Origin',(36.9490419042634,0.,-15.6433982822018));
#1945=CARTESIAN_POINT('Origin',(36.9490419042634,0.,-15.6433982822018));
#1946=CARTESIAN_POINT('Origin',(35.659314886668,0.,-16.1880121087656));
#1947=CARTESIAN_POINT('',(35.659314886668,0.,-16.1880121087657));
#1948=CARTESIAN_POINT('',(28.9386692366688,0.,-19.0259433100908));
#1949=CARTESIAN_POINT('',(35.659314886668,0.,-16.1880121087657));
#1950=CARTESIAN_POINT('Origin',(36.9490419042634,0.,-15.6433982822018));
#1951=CARTESIAN_POINT('',(35.8325289864092,0.,-14.798768834299));
#1952=CARTESIAN_POINT('Origin',(36.9490419042634,0.,-15.6433982822018));
#1953=CARTESIAN_POINT('',(35.8325289864092,0.,-14.798768834299));
#1954=CARTESIAN_POINT('Origin',(35.3540234501859,0.,-14.4367847851978));
#1955=CARTESIAN_POINT('',(33.0812479573153,0.,-12.7174557214198));
#1956=CARTESIAN_POINT('Origin',(36.7015931903475,0.,-17.6280315314399));
#1957=CARTESIAN_POINT('',(36.3124274441946,0.,-20.7492895370168));
#1958=CARTESIAN_POINT('Origin',(7.7525512860841,0.,-7.5));
#1959=CARTESIAN_POINT('',(9.76751979623304,0.,-0.275742120943626));
#1960=CARTESIAN_POINT('',(9.76751979623304,0.,-0.275742120943626));
#1961=CARTESIAN_POINT('Origin',(7.7525512860841,0.,-7.5));
#1962=CARTESIAN_POINT('Origin',(7.2157234402097,-28.0672899517458,-6.95210237412095));
#1963=CARTESIAN_POINT('Origin',(1.22976318270944,-7.94757903931583,-0.842707269348182));
#1964=CARTESIAN_POINT('Origin',(15.2984068096525,0.,-36.8566017177982));
#1965=CARTESIAN_POINT('',(20.5473134013307,0.,-42.2137445749411));
#1966=CARTESIAN_POINT('Origin',(15.2984068096525,0.,-36.8566017177982));
#1967=CARTESIAN_POINT('',(20.5473134013307,0.,-42.2137445749411));
#1968=CARTESIAN_POINT('Origin',(15.0923274699052,-28.0672899517458,-37.5954570827238));
#1969=CARTESIAN_POINT('Origin',(12.7944162361658,-7.94757903931583,-45.8341482841495));
#1970=CARTESIAN_POINT('Origin',(36.9490419042634,0.,-15.6433982822018));
#1971=CARTESIAN_POINT('',(42.1979484959417,0.,-21.0005411393446));
#1972=CARTESIAN_POINT('',(42.1979484959417,0.,-21.0005411393446));
#1973=CARTESIAN_POINT('',(38.9640104144124,0.,-8.41914040314541));
#1974=CARTESIAN_POINT('Origin',(36.9490419042634,0.,-15.6433982822018));
#1975=CARTESIAN_POINT('',(38.9640104144124,0.,-8.41914040314541));
#1976=CARTESIAN_POINT('Origin',(37.6919490898851,-28.0672899517458,-15.4524405431552));
#1977=CARTESIAN_POINT('Origin',(45.9758205811247,-7.94757903931583,-13.3231444465023));
#1978=CARTESIAN_POINT('Origin',(12.0645562540916,-47.5546309981655,-13.7992900622618));
#1979=CARTESIAN_POINT('',(15.629869665903,-50.,-15.5397544050016));
#1980=CARTESIAN_POINT('',(13.9625293048294,-47.5546309981655,-11.9396638543174));
#1981=CARTESIAN_POINT('',(15.629869665903,-50.,-15.5397544050016));
#1982=CARTESIAN_POINT('Origin',(18.5977495453743,-47.5546309981655,-29.9726508431281));
#1983=CARTESIAN_POINT('',(18.3223791746622,-50.,-26.0147666846762));
#1984=CARTESIAN_POINT('',(16.0382794823822,-47.5546309981655,-29.2587710694631));
#1985=CARTESIAN_POINT('',(18.3223791746622,-50.,-26.0147666846762));
#1986=CARTESIAN_POINT('Origin',(29.3376942005341,-47.5546309981655,-16.2280590946101));
#1987=CARTESIAN_POINT('',(26.0477511594347,-50.,-18.4454789103222));
#1988=CARTESIAN_POINT('',(29.9991912127884,-47.5546309981655,-18.8015650762195));
#1989=CARTESIAN_POINT('',(26.0477511594347,-50.,-18.4454789103222));
#1990=CARTESIAN_POINT('Origin',(3.51802035020929,-48.7773154990827,-10.5940329661546));
#1991=CARTESIAN_POINT('',(3.92367102021571,-47.5546309981655,-9.13965537455552));
#1992=CARTESIAN_POINT('',(3.11236968020286,-50.,-12.0484105577537));
#1993=CARTESIAN_POINT('Origin',(26.3347156437236,-48.7773154990827,-20.2781577449299));
#1994=CARTESIAN_POINT('',(27.39141824974,-47.5546309981655,-21.3566503260171));
#1995=CARTESIAN_POINT('',(25.2780130377072,-50.,-19.1996651638426));
#1996=CARTESIAN_POINT('Origin',(15.5137711442598,-48.7773154990827,-21.1531455553507));
#1997=CARTESIAN_POINT('',(16.9761244202826,-50.,-20.7772605448389));
#1998=CARTESIAN_POINT('Origin',(9.76751979623304,0.,-0.275742120943626));
#1999=CARTESIAN_POINT('',(38.9640104144124,0.,-8.41914040314541));
#2000=CARTESIAN_POINT('Origin',(0.488676184256918,-50.,-9.36711502191352));
#2001=CARTESIAN_POINT('Origin',(42.1979484959417,0.,-21.0005411393446));
#2002=CARTESIAN_POINT('',(20.5473134013307,0.,-42.2137445749411));
#2003=CARTESIAN_POINT('Origin',(22.3507965951738,0.,-22.1783008588991));
#2004=UNCERTAINTY_MEASURE_WITH_UNIT(LENGTH_MEASURE(0.01),#2008,
'DISTANCE_ACCURACY_VALUE',
'Maximum model space distance between geometric entities at asserted c
onnectivities');
#2005=UNCERTAINTY_MEASURE_WITH_UNIT(LENGTH_MEASURE(0.01),#2008,
'DISTANCE_ACCURACY_VALUE',
'Maximum model space distance between geometric entities at asserted c
onnectivities');
#2006=(
GEOMETRIC_REPRESENTATION_CONTEXT(3)
GLOBAL_UNCERTAINTY_ASSIGNED_CONTEXT((#2004))
GLOBAL_UNIT_ASSIGNED_CONTEXT((#2008,#2010,#2011))
REPRESENTATION_CONTEXT('','3D')
);
#2007=(
GEOMETRIC_REPRESENTATION_CONTEXT(3)
GLOBAL_UNCERTAINTY_ASSIGNED_CONTEXT((#2005))
GLOBAL_UNIT_ASSIGNED_CONTEXT((#2008,#2010,#2011))
REPRESENTATION_CONTEXT('','3D')
);
#2008=(
LENGTH_UNIT()
NAMED_UNIT(*)
SI_UNIT(.MILLI.,.METRE.)
);
#2009=(
LENGTH_UNIT()
NAMED_UNIT(*)
SI_UNIT(.CENTI.,.METRE.)
);
#2010=(
NAMED_UNIT(*)
PLANE_ANGLE_UNIT()
SI_UNIT($,.RADIAN.)
);
#2011=(
NAMED_UNIT(*)
SI_UNIT($,.STERADIAN.)
SOLID_ANGLE_UNIT()
);
#2012=SHAPE_DEFINITION_REPRESENTATION(#2013,#2014);
#2013=PRODUCT_DEFINITION_SHAPE('',$,#2016);
#2014=SHAPE_REPRESENTATION('',(#1179),#2006);
#2015=PRODUCT_DEFINITION_CONTEXT('part definition',#2020,'design');
#2016=PRODUCT_DEFINITION('table-legs','table-legs',#2017,#2015);
#2017=PRODUCT_DEFINITION_FORMATION('',$,#2022);
#2018=PRODUCT_RELATED_PRODUCT_CATEGORY('table-legs','table-legs',(#2022));
#2019=APPLICATION_PROTOCOL_DEFINITION('international standard',
'automotive_design',2009,#2020);
#2020=APPLICATION_CONTEXT(
'Core Data for Automotive Mechanical Design Process');
#2021=PRODUCT_CONTEXT('part definition',#2020,'mechanical');
#2022=PRODUCT('table-legs','table-legs',$,(#2021));
#2023=PRESENTATION_STYLE_ASSIGNMENT((#2025));
#2024=PRESENTATION_STYLE_ASSIGNMENT((#2026));
#2025=SURFACE_STYLE_USAGE(.BOTH.,#2029);
#2026=SURFACE_STYLE_USAGE(.BOTH.,#2030);
#2027=SURFACE_STYLE_RENDERING_WITH_PROPERTIES($,#2037,(#2028));
#2028=SURFACE_STYLE_TRANSPARENT(0.);
#2029=SURFACE_SIDE_STYLE('',(#2031,#2027));
#2030=SURFACE_SIDE_STYLE('',(#2032));
#2031=SURFACE_STYLE_FILL_AREA(#2033);
#2032=SURFACE_STYLE_FILL_AREA(#2034);
#2033=FILL_AREA_STYLE('',(#2035));
#2034=FILL_AREA_STYLE('',(#2036));
#2035=FILL_AREA_STYLE_COLOUR('',#2037);
#2036=FILL_AREA_STYLE_COLOUR('',#2038);
#2037=COLOUR_RGB('',0.749019607843137,0.749019607843137,0.749019607843137);
#2038=COLOUR_RGB('',0.411764705882353,0.372549019607843,0.345098039215686);
ENDSEC;
END-ISO-10303-21;
